<svg width="19" height="19" viewBox="0 0 19 19" fill="none" xmlns="http://www.w3.org/2000/svg">
<g clip-path="url(#clip0_3853_17402)">
<path d="M12.9916 11.3003L10.0005 5.61719L7.00938 11.3003L2.22363 6.21544L5.15039 15.8738C5.16901 15.9352 5.20688 15.989 5.25843 16.0273C5.30997 16.0655 5.37245 16.0861 5.43663 16.0862H14.5644C14.6286 16.0862 14.6911 16.0655 14.7426 16.0273C14.7942 15.989 14.8321 15.9352 14.8507 15.8738L17.7774 6.21544L12.9916 11.3003Z" fill="#CC0000"/>
<path d="M10.0007 4.72211C10.4137 4.72211 10.7485 4.38732 10.7485 3.97434C10.7485 3.56135 10.4137 3.22656 10.0007 3.22656C9.58772 3.22656 9.25293 3.56135 9.25293 3.97434C9.25293 4.38732 9.58772 4.72211 10.0007 4.72211Z" fill="#CC0000"/>
<path d="M1.57224 5.61859C1.9027 5.61859 2.1706 5.3507 2.1706 5.02023C2.1706 4.68977 1.9027 4.42188 1.57224 4.42188C1.24177 4.42188 0.973877 4.68977 0.973877 5.02023C0.973877 5.3507 1.24177 5.61859 1.57224 5.61859Z" fill="#CC0000"/>
<path d="M18.3755 5.61859C18.7059 5.61859 18.9738 5.3507 18.9738 5.02023C18.9738 4.68977 18.7059 4.42188 18.3755 4.42188C18.045 4.42188 17.7771 4.68977 17.7771 5.02023C17.7771 5.3507 18.045 5.61859 18.3755 5.61859Z" fill="#CC0000"/>
</g>
<defs>
<clipPath id="clip0_3853_17402">
<rect width="18" height="18" fill="white" transform="translate(0.973877 0.65625)"/>
</clipPath>
</defs>
</svg>
