<svg width="19" height="19" viewBox="0 0 19 19" fill="none" xmlns="http://www.w3.org/2000/svg">
<path d="M15.6016 15.0121H3.30921C2.90965 15.0117 2.52659 14.8527 2.24408 14.5702C1.96156 14.2877 1.80267 13.9046 1.80225 13.505V5.91335C1.80267 5.5138 1.96156 5.13073 2.24408 4.84818C2.52659 4.56564 2.90965 4.40671 3.30921 4.40625H15.6016C16.0012 4.40671 16.3842 4.56564 16.6668 4.84818C16.9493 5.13073 17.1082 5.5138 17.1086 5.91335V13.505C17.1082 13.9046 16.9493 14.2877 16.6668 14.5702C16.3842 14.8527 16.0012 15.0117 15.6016 15.0121ZM3.30921 4.98225C3.06236 4.98252 2.8257 5.08071 2.65116 5.25527C2.47663 5.42983 2.37847 5.66651 2.37825 5.91335V13.505C2.37847 13.7519 2.47663 13.9886 2.65116 14.1631C2.8257 14.3377 3.06236 14.4359 3.30921 14.4361H15.6016C15.8485 14.4359 16.0851 14.3377 16.2597 14.1631C16.4342 13.9886 16.5324 13.7519 16.5326 13.505V5.91335C16.5324 5.66651 16.4342 5.42983 16.2597 5.25527C16.0851 5.08071 15.8485 4.98252 15.6016 4.98225H3.30921Z" fill="black"/>
<path d="M9.45543 11.4043C9.38523 11.4044 9.31743 11.3788 9.26477 11.3323L2.32397 5.20544L2.70514 4.77344L9.45543 10.7327L16.206 4.77416L16.5872 5.20616L9.64637 11.3331C9.59358 11.3794 9.52565 11.4047 9.45543 11.4043Z" fill="black"/>
<path d="M2.16724 14.1074L6.82996 8.79453L7.26325 9.17469L2.60053 14.4874L2.16724 14.1074ZM11.6622 9.16922L12.0953 8.78906L16.7582 14.1017L16.325 14.4818L11.6622 9.16922Z" fill="black"/>
</svg>
