<svg width="19" height="18" viewBox="0 0 19 18" fill="none" xmlns="http://www.w3.org/2000/svg">
<path d="M9.46564 18.0072C9.2927 18.0072 9.44878 18.1117 6.88822 15.5877C6.44949 15.1553 6.55267 14.808 6.60063 13.2254C6.60386 13.1168 6.57322 13.0099 6.51296 12.9195C6.4527 12.8291 6.3658 12.7598 6.26433 12.721L3.28688 11.5855C3.13515 11.5277 2.99778 11.4377 2.88427 11.3216C2.77077 11.2056 2.68384 11.0662 2.6295 10.9132L1.86773 8.7731C1.73491 8.40001 2.29949 8.19852 2.43246 8.57209C3.24964 10.8679 3.19989 10.9107 3.50048 11.0254L6.47793 12.161C6.92419 12.3311 7.21425 12.7662 7.19979 13.2436C7.15037 14.8749 7.09653 14.9514 7.30904 15.1608L9.58104 17.4004C10.7825 17.3529 11.9134 17.0602 12.9267 16.5706C13.511 13.533 13.5916 13.5288 13.3226 13.2668C11.6845 11.6704 11.7253 11.641 11.4417 11.641H9.0921C7.99524 11.641 7.55373 10.2239 8.44967 9.59845L9.29097 9.01116C9.59351 8.79993 9.51453 8.76763 9.51453 5.63398C9.51453 5.35951 9.29805 5.11114 8.98 5.11114C8.26132 5.11114 8.61085 6.21479 7.2845 6.21479C6.88507 6.21479 6.51273 5.99996 6.31285 5.65418L5.7824 4.73659C5.62478 4.46387 5.65003 4.53247 2.60608 3.87543C-1.0482 8.5894 1.2791 15.5011 6.96963 17.0969C7.30342 17.1905 7.23497 17.6853 6.88886 17.6853C6.76514 17.6853 4.06056 17.0296 2.10943 14.493C-0.477398 11.1301 -0.310598 6.51246 2.25723 3.35056C2.4162 3.15484 2.30066 3.1962 5.56656 3.9012C6.1722 4.03196 6.30929 4.4502 6.83183 5.35415C6.99631 5.63867 7.2821 5.61533 7.39885 5.61533C7.75459 5.61533 7.86336 5.33298 7.99891 5.08896C8.55352 4.09078 10.114 4.4671 10.114 5.63398C10.114 9.52273 10.4153 8.95728 8.79286 10.09C8.3759 10.381 8.58072 11.0415 9.09214 11.0415C11.5753 11.0415 11.8023 10.9481 12.225 11.36L13.741 12.8374C13.8743 12.9669 13.9733 13.1276 14.0289 13.3049C14.0846 13.4822 14.0952 13.6706 14.0599 13.8531L13.6083 16.2012C18.7223 13.112 19.0571 5.67505 14.0689 2.15441C13.1058 3.47982 12.9953 3.53336 13.0808 3.84699L13.5083 5.41447C13.7275 6.21812 15.2083 5.44332 15.7344 6.55412L16.3768 7.91036C16.886 8.98486 15.3921 9.79986 15.8386 10.4598C15.9736 10.6594 15.829 10.9275 15.5906 10.9275C15.2588 10.9275 14.9711 10.2114 15.2848 9.63224C15.8335 8.61926 15.9817 8.4764 15.8351 8.16704C14.9407 6.27885 15.3132 6.58825 13.8601 6.38882C13.642 6.3591 13.4375 6.26581 13.2721 6.12059C13.1067 5.97537 12.9877 5.78466 12.93 5.57224C12.2653 3.13487 12.1861 3.72575 13.5666 1.82598C10.7803 0.143331 7.14737 0.188403 4.35565 2.19034C4.03385 2.4211 3.68399 1.93433 4.00631 1.7032C9.96836 -2.57223 18.2328 1.74333 18.2328 9.01528C18.2328 14.2156 13.8885 18.0072 9.46564 18.0072Z" fill="black"/>
</svg>
