<svg width="19" height="19" viewBox="0 0 19 19" fill="none" xmlns="http://www.w3.org/2000/svg">
<path d="M9.45528 2.05469C1.92847 2.09434 -1.28004 11.6546 4.70215 16.2145C6.07195 17.2464 7.74032 17.8044 9.45528 17.8044C11.1702 17.8044 12.8386 17.2464 14.2084 16.2145C20.1906 11.6563 16.9815 2.09294 9.45528 2.05469ZM14.5113 15.2158C13.2581 16.4222 11.6148 17.1407 9.87817 17.2416C8.14156 17.3425 6.42612 16.8191 5.04162 15.7659C4.81716 15.595 4.60269 15.4113 4.39925 15.2158V14.1138C4.3987 13.683 4.53397 13.2629 4.78581 12.9133C5.03765 12.5637 5.39327 12.3024 5.80212 12.1665L8.33225 11.3222C9.06158 11.0801 9.84959 11.0802 10.5789 11.3224L13.1084 12.1665C13.5173 12.3024 13.8729 12.5637 14.1247 12.9133C14.3766 13.2629 14.5119 13.683 14.5113 14.1138V15.2158ZM6.95637 8.07878C7.08743 4.76566 11.8237 4.76678 11.9542 8.07878C11.9542 8.74153 11.6909 9.37714 11.2223 9.84577C10.7536 10.3144 10.118 10.5777 9.45528 10.5777C8.79253 10.5777 8.15692 10.3144 7.68828 9.84577C7.21965 9.37714 6.95637 8.74153 6.95637 8.07878ZM15.0738 14.6147V14.1138C15.0744 13.5649 14.9021 13.0297 14.5812 12.5843C14.2604 12.1389 13.8073 11.8059 13.2865 11.6327L10.8269 10.812C13.6718 9.3565 12.6942 5.05984 9.45528 5.01681C6.21612 5.06097 5.2385 9.35537 8.08362 10.812L5.62409 11.6327C5.10316 11.8059 4.65006 12.1388 4.32915 12.5843C4.00824 13.0297 3.83585 13.5649 3.83646 14.1138V14.6145C-0.128597 9.92519 3.30153 2.59047 9.45528 2.61747C15.609 2.59047 19.0394 9.92519 15.0738 14.6147Z" fill="black"/>
</svg>
