<svg width="19" height="19" viewBox="0 0 19 19" fill="none" xmlns="http://www.w3.org/2000/svg">
<g clip-path="url(#clip0_3853_16306)">
<path d="M14.9706 18.5731H4.93942C4.28635 18.5723 3.66026 18.3125 3.1985 17.8507C2.73674 17.3888 2.47702 16.7627 2.47632 16.1096V10.135C2.47712 9.48197 2.73689 8.85594 3.19863 8.39419C3.66038 7.93244 4.28641 7.67268 4.93942 7.67188H14.9709C15.624 7.67258 16.2501 7.93231 16.7118 8.39408C17.1736 8.85585 17.4333 9.48194 17.434 10.135V16.11C17.4332 16.7631 17.1734 17.3892 16.7116 17.8509C16.2498 18.3127 15.6236 18.5724 14.9706 18.5731ZM4.93942 8.43244C4.48804 8.43295 4.05528 8.61248 3.7361 8.93166C3.41693 9.25084 3.23739 9.68359 3.23689 10.135V16.11C3.23729 16.5615 3.41678 16.9943 3.73597 17.3136C4.05516 17.6328 4.48797 17.8124 4.93942 17.8129H14.9709C15.4224 17.8124 15.8552 17.6328 16.1744 17.3136C16.4936 16.9943 16.6731 16.5615 16.6735 16.11V10.135C16.673 9.68359 16.4934 9.25084 16.1743 8.93166C15.8551 8.61248 15.4223 8.43295 14.9709 8.43244H4.93942Z" fill="black"/>
<path d="M12.9972 8.42965C12.8964 8.42965 12.7997 8.38958 12.7283 8.31827C12.657 8.24695 12.617 8.15022 12.617 8.04937V3.99287C12.617 2.52535 11.4229 1.33088 9.95497 1.33088C8.48707 1.33088 7.29298 2.52535 7.29298 3.99287V8.04937C7.29298 8.15022 7.25291 8.24695 7.18159 8.31827C7.11028 8.38958 7.01355 8.42965 6.91269 8.42965C6.81183 8.42965 6.71511 8.38958 6.64379 8.31827C6.57247 8.24695 6.53241 8.15022 6.53241 8.04937V3.99287C6.53241 2.10552 8.068 0.570312 9.95497 0.570312C11.8419 0.570312 13.3775 2.10552 13.3775 3.99287V8.04937C13.3775 8.15022 13.3375 8.24695 13.2661 8.31827C13.1948 8.38958 13.0981 8.42965 12.9972 8.42965ZM12.2698 13.1197C12.2431 12.0728 10.7087 12.0732 10.6824 13.1197C10.7091 14.1666 12.2435 14.1662 12.2698 13.1197ZM15.312 13.1197C15.2854 12.0728 13.751 12.0732 13.7247 13.1197C13.7513 14.1666 15.2858 14.1662 15.312 13.1197ZM6.18521 13.1197C6.15859 12.0728 4.62414 12.0732 4.5979 13.1197C4.62452 14.1666 6.15897 14.1662 6.18521 13.1197ZM9.22748 13.1197C9.20086 12.0728 7.66641 12.0732 7.64018 13.1197C7.6668 14.1666 9.20124 14.1662 9.22748 13.1197Z" fill="black"/>
</g>
<defs>
<clipPath id="clip0_3853_16306">
<rect width="18" height="18" fill="white" transform="translate(0.955322 0.570312)"/>
</clipPath>
</defs>
</svg>
