<svg width="19" height="18" viewBox="0 0 19 18" fill="none" xmlns="http://www.w3.org/2000/svg">
<path d="M18.2328 12.7134C18.2328 11.9952 17.6485 11.4109 16.9304 11.4109C16.2123 11.4109 15.628 11.9952 15.628 12.7134C15.628 13.206 15.9033 13.6357 16.3079 13.857C15.9033 14.0781 15.628 14.5078 15.628 15.0006C15.628 15.6418 16.0944 16.175 16.7053 16.2821V17.5577H14.6722V3.24219C14.6722 3.16647 14.6342 3.09629 14.5712 3.05437C14.5082 3.01244 14.4282 3.00545 14.3591 3.03516L11.1518 4.39865V2.39826C11.1518 2.33862 11.1281 2.28143 11.0859 2.23926C11.0438 2.19709 10.9866 2.17339 10.9269 2.17339H8.80723V0.232769C8.80723 0.173106 8.78353 0.115888 8.74134 0.0737006C8.69916 0.0315132 8.64194 0.0078125 8.58228 0.0078125C8.52261 0.0078125 8.46539 0.0315132 8.42321 0.0737006C8.38102 0.115888 8.35732 0.173106 8.35732 0.232769V2.17339H6.16436C6.13482 2.17338 6.10557 2.17918 6.07828 2.19047C6.05099 2.20177 6.02619 2.21833 6.0053 2.23921C5.98441 2.2601 5.96785 2.28489 5.95655 2.31218C5.94525 2.33947 5.93944 2.36872 5.93945 2.39826V7.24996H4.0182C3.98866 7.24996 3.95941 7.25578 3.93211 7.26709C3.90482 7.27839 3.88002 7.29497 3.85913 7.31586C3.83825 7.33676 3.82168 7.36156 3.81039 7.38886C3.79909 7.41616 3.79328 7.44541 3.79329 7.47496V17.5577H1.75994V16.2821C2.37109 16.175 2.83735 15.6418 2.83735 15.0007C2.83735 14.5078 2.56216 14.0782 2.15738 13.857C2.56212 13.6358 2.83735 13.2061 2.83735 12.7135C2.83735 11.9952 2.25318 11.4109 1.53512 11.4109C0.817051 11.4109 0.23271 11.9951 0.23271 12.7134C0.23271 13.206 0.507895 13.6357 0.912676 13.857C0.507895 14.0781 0.23271 14.5078 0.23271 15.0006C0.23271 15.6418 0.69897 16.175 1.31007 16.2821V17.5577H0.45771C0.398025 17.5577 0.340784 17.5814 0.29858 17.6236C0.256376 17.6658 0.232666 17.723 0.232666 17.7827C0.232666 17.8424 0.256376 17.8997 0.29858 17.9419C0.340784 17.9841 0.398025 18.0078 0.45771 18.0078H18.0077C18.0674 18.0078 18.1246 17.9841 18.1668 17.9419C18.209 17.8997 18.2328 17.8424 18.2328 17.7827C18.2328 17.723 18.209 17.6658 18.1668 17.6236C18.1246 17.5814 18.0674 17.5577 18.0077 17.5577H17.1554V16.2821C17.7663 16.175 18.2328 15.6418 18.2328 15.0006C18.2328 14.5078 17.9574 14.0781 17.5528 13.857C17.9574 13.6357 18.2328 13.2061 18.2328 12.7134ZM1.53512 11.861C2.00494 11.861 2.38739 12.2434 2.38739 12.7134C2.38739 13.1834 2.00494 13.5657 1.53512 13.5657C1.06508 13.5657 0.682622 13.1834 0.682622 12.7134C0.682622 12.2434 1.06508 11.861 1.53512 11.861ZM0.682622 15.0006C0.682622 14.5306 1.06508 14.1481 1.53512 14.1481C2.00494 14.1481 2.38739 14.5306 2.38739 15.0006C2.38739 15.4705 2.00494 15.8529 1.53512 15.8529C1.06508 15.8529 0.682622 15.4705 0.682622 15.0006ZM14.2221 17.5577H12.9522V15.2969C12.9522 15.2674 12.9464 15.2381 12.9351 15.2108C12.9238 15.1835 12.9072 15.1588 12.8863 15.1379C12.8654 15.117 12.8406 15.1004 12.8133 15.0891C12.786 15.0778 12.7568 15.072 12.7272 15.072H10.1143C10.0848 15.072 10.0555 15.0778 10.0283 15.0891C10.001 15.1004 9.97616 15.117 9.95526 15.1379C9.93437 15.1588 9.91779 15.1835 9.90648 15.2108C9.89517 15.2381 9.88935 15.2674 9.88934 15.2969V17.5577H8.61932V5.96407L14.222 3.58224L14.2221 17.5577ZM12.5022 17.5577H10.3394V15.522H12.5022L12.5022 17.5577ZM10.7018 2.62335V4.33897H6.38936V2.62335H10.7018ZM6.38936 4.78906H10.2337L8.30626 5.60838C8.26562 5.62562 8.23097 5.65446 8.20661 5.69127C8.18226 5.72809 8.16929 5.77126 8.16932 5.81541V7.25H6.38936V4.78906ZM4.24325 7.69991H8.16932V17.5577H4.24325V7.69991ZM16.9304 15.853C16.4604 15.853 16.0781 15.4705 16.0781 15.0007C16.0781 14.5307 16.4604 14.1482 16.9304 14.1482C17.4004 14.1482 17.7827 14.5307 17.7827 15.0007C17.7827 15.4705 17.4004 15.853 16.9304 15.853ZM16.9304 13.5658C16.4604 13.5658 16.0781 13.1835 16.0781 12.7135C16.0781 12.2435 16.4604 11.861 16.9304 11.861C17.4004 11.861 17.7827 12.2435 17.7827 12.7135C17.7827 13.1835 17.4004 13.5658 16.9304 13.5658Z" fill="black"/>
</svg>
