<svg width="19" height="19" viewBox="0 0 19 19" fill="none" xmlns="http://www.w3.org/2000/svg">
<g clip-path="url(#clip0_3853_16219)">
<path d="M18.4553 7.96231H0.455322V4.34161C0.455332 4.2593 0.488033 4.18036 0.546235 4.12216C0.604436 4.06396 0.683372 4.03126 0.765681 4.03125H18.145C18.2273 4.03126 18.3062 4.06396 18.3644 4.12216C18.4226 4.18036 18.4553 4.2593 18.4553 4.34161L18.4553 7.96231Z" fill="#FAB446"/>
<path d="M18.1449 15.8216H0.765681C0.683372 15.8216 0.604436 15.7889 0.546235 15.7307C0.488033 15.6725 0.455332 15.5936 0.455322 15.5113L0.455322 11.8906H18.4553V15.5113C18.4553 15.5936 18.4226 15.6725 18.3644 15.7307C18.3062 15.789 18.2272 15.8216 18.1449 15.8216Z" fill="#73AF00"/>
<path d="M0.455322 7.96094H18.4553V11.8917H0.455322V7.96094Z" fill="#F5F5F5"/>
<path d="M9.4552 11.594C8.53537 11.594 7.78711 10.8457 7.78711 9.92591C7.78711 9.00608 8.53537 8.25781 9.4552 8.25781C10.375 8.25781 11.1233 9.00608 11.1233 9.92591C11.1233 10.8457 10.375 11.594 9.4552 11.594ZM9.4552 8.56814C8.70645 8.56814 8.09743 9.17715 8.09743 9.92591C8.09743 10.6747 8.70645 11.2837 9.4552 11.2837C10.204 11.2837 10.813 10.6747 10.813 9.92591C10.813 9.17715 10.204 8.56814 9.4552 8.56814Z" fill="#41479B"/>
<path d="M9.45522 10.1204C9.55966 10.1204 9.64432 10.0357 9.64432 9.93129C9.64432 9.82685 9.55966 9.74219 9.45522 9.74219C9.35078 9.74219 9.26611 9.82685 9.26611 9.93129C9.26611 10.0357 9.35078 10.1204 9.45522 10.1204Z" fill="#41479B"/>
<path d="M9.4553 9.95682L8.97471 10.0053L7.94238 9.95682V9.90008L8.97471 9.85156L9.4553 9.90008V9.95682ZM9.4553 9.95682L9.93588 10.0053L10.9682 9.95682V9.90008L9.93588 9.85156L9.4553 9.90008V9.95682Z" fill="#41479B"/>
<path d="M9.42693 9.92698L9.37842 9.44639L9.42693 8.41406H9.48368L9.53219 9.44639L9.48368 9.92698H9.42693ZM9.42693 9.92698L9.37842 10.4076L9.42693 11.4399H9.48368L9.53219 10.4076L9.48368 9.92698H9.42693Z" fill="#41479B"/>
<path d="M9.43528 9.94582L9.06115 9.64035L8.36548 8.87605L8.40559 8.83594L9.16989 9.53161L9.47536 9.90574L9.43528 9.94582Z" fill="#41479B"/>
<path d="M9.4353 9.94633L9.74078 10.3205L10.5051 11.0161L10.5452 10.976L9.84951 10.2117L9.47538 9.90625L9.4353 9.94633Z" fill="#41479B"/>
<path d="M9.43528 9.90574L9.74076 9.53161L10.5051 8.83594L10.5452 8.87605L9.84949 9.64035L9.47536 9.94582L9.43528 9.90574ZM9.43528 9.90574L9.06115 10.2112L8.36548 10.9755L8.40559 11.0156L9.16989 10.32L9.47536 9.94582L9.43528 9.90574Z" fill="#41479B"/>
<path d="M9.4661 9.95089L9.04064 10.1796L8.06836 10.5298L8.04663 10.4774L8.98182 10.0376L9.44437 9.89844L9.4661 9.95089Z" fill="#41479B"/>
<path d="M9.46606 9.95172L9.92861 9.81261L10.8638 9.37273L10.8421 9.32031L9.8698 9.67054L9.44434 9.89927L9.46606 9.95172Z" fill="#41479B"/>
<path d="M9.42905 9.93509L9.20032 9.50963L8.8501 8.53735L8.90252 8.51562L9.34239 9.45082L9.4815 9.91337L9.42905 9.93509Z" fill="#41479B"/>
<path d="M9.4292 9.93579L9.56831 10.3983L10.0082 11.3335L10.0606 11.3118L9.71038 10.3395L9.48165 9.91406L9.4292 9.93579Z" fill="#41479B"/>
<path d="M9.44437 9.95172L8.98182 9.81261L8.04663 9.37273L8.06836 9.32031L9.04064 9.67054L9.4661 9.89927L9.44437 9.95172ZM9.44437 9.95172L9.86983 10.1804L10.8421 10.5307L10.8638 10.4783L9.92865 10.0384L9.4661 9.89927L9.44437 9.95172Z" fill="#41479B"/>
<path d="M9.4292 9.91337L9.56831 9.45082L10.0082 8.51562L10.0606 8.53735L9.71038 9.50963L9.48165 9.93509L9.4292 9.91337Z" fill="#41479B"/>
<path d="M9.42905 9.91406L9.20032 10.3395L8.8501 11.3118L8.90252 11.3335L9.34239 10.3983L9.4815 9.93579L9.42905 9.91406Z" fill="#41479B"/>
<path d="M9.45529 10.1821C9.59617 10.1821 9.71038 10.0679 9.71038 9.92697C9.71038 9.78608 9.59617 9.67188 9.45529 9.67188C9.3144 9.67188 9.2002 9.78608 9.2002 9.92697C9.2002 10.0679 9.3144 10.1821 9.45529 10.1821Z" fill="#F5F5F5"/>
<path d="M9.45521 10.0794C9.53969 10.0794 9.60818 10.0109 9.60818 9.9264C9.60818 9.84192 9.53969 9.77344 9.45521 9.77344C9.37073 9.77344 9.30225 9.84192 9.30225 9.9264C9.30225 10.0109 9.37073 10.0794 9.45521 10.0794Z" fill="#41479B"/>
</g>
<defs>
<clipPath id="clip0_3853_16219">
<rect width="18" height="18" fill="white" transform="translate(0.455322 0.929688)"/>
</clipPath>
</defs>
</svg>
