<svg width="19" height="18" viewBox="0 0 19 18" fill="none" xmlns="http://www.w3.org/2000/svg">
<path d="M7.74554 8.75781H3.05013C2.85243 8.75781 2.67944 8.58281 2.67944 8.38281V3.63281C2.67944 3.43281 2.85243 3.25781 3.05013 3.25781H7.74554C7.94324 3.25781 8.11622 3.43281 8.11622 3.63281V8.38281C8.11622 8.58281 7.96795 8.75781 7.74554 8.75781ZM3.42082 8.00781H7.37485V4.00781H3.42082V8.00781Z" fill="#0B0B0B"/>
<path d="M12.3173 9.73594C12.2185 9.73594 12.1196 9.71094 12.0455 9.63594L8.73401 6.26094C8.58573 6.11094 8.58573 5.88594 8.73401 5.73594L12.0702 2.38594C12.2185 2.23594 12.4409 2.23594 12.5892 2.38594L15.9007 5.73594C15.9748 5.81094 15.9995 5.91094 15.9995 6.01094C15.9995 6.11094 15.9501 6.21094 15.9007 6.28594L12.5892 9.63594C12.515 9.71094 12.4162 9.73594 12.3173 9.73594ZM9.52481 6.01094L12.3173 8.83594L15.1099 6.01094L12.3173 3.16094L9.52481 6.01094Z" fill="#0B0B0B"/>
<path d="M7.74554 15.7578H3.05013C2.85243 15.7578 2.67944 15.5828 2.67944 15.3828V10.6328C2.67944 10.4328 2.85243 10.2578 3.05013 10.2578H7.74554C7.94324 10.2578 8.11623 10.4328 8.11623 10.6328V15.3828C8.11623 15.5828 7.96795 15.7578 7.74554 15.7578ZM3.42082 15.0078H7.37485V11.0078H3.42082V15.0078ZM14.6651 15.7578H9.96967C9.77197 15.7578 9.59898 15.5828 9.59898 15.3828V10.6328C9.59898 10.4328 9.77197 10.2578 9.96967 10.2578H14.6651C14.8628 10.2578 15.0358 10.4328 15.0358 10.6328V15.3828C15.0358 15.5828 14.8875 15.7578 14.6651 15.7578ZM10.3404 15.0078H14.2944V11.0078H10.3404V15.0078Z" fill="#0B0B0B"/>
</svg>
