<svg width="19" height="19" viewBox="0 0 19 19" fill="none" xmlns="http://www.w3.org/2000/svg">
<g clip-path="url(#clip0_3853_16240)">
<path d="M9.45544 0.929688C5.78894 0.929688 2.80615 3.91248 2.80615 7.57897C2.80615 8.78601 3.34748 10.0842 3.37017 10.1389C3.545 10.5539 3.88999 11.1985 4.13875 11.5764L8.69781 18.4842C8.88438 18.7674 9.16052 18.9297 9.45544 18.9297C9.75035 18.9297 10.0265 18.7674 10.2131 18.4846L14.7725 11.5764C15.0217 11.1985 15.3663 10.5539 15.5411 10.1389C15.5638 10.0846 16.1047 8.7864 16.1047 7.57897C16.1047 3.91248 13.1219 0.929688 9.45544 0.929688ZM14.8198 9.83542C14.6638 10.2074 14.3427 10.807 14.1193 11.1457L9.55987 18.0539C9.46991 18.1904 9.44135 18.1904 9.35139 18.0539L4.79194 11.1457C4.5686 10.807 4.24748 10.207 4.09142 9.83503C4.08477 9.819 3.58842 8.62408 3.58842 7.57897C3.58842 4.3439 6.22036 1.71196 9.45544 1.71196C12.6905 1.71196 15.3224 4.3439 15.3224 7.57897C15.3224 8.62565 14.8249 9.82369 14.8198 9.83542Z" fill="black"/>
<path d="M9.45551 4.0625C7.51431 4.0625 5.9353 5.6419 5.9353 7.58271C5.9353 9.52352 7.51431 11.1029 9.45551 11.1029C11.3967 11.1029 12.9757 9.52352 12.9757 7.58271C12.9757 5.6419 11.3967 4.0625 9.45551 4.0625ZM9.45551 10.3206C7.94612 10.3206 6.71757 9.09249 6.71757 7.58271C6.71757 6.07293 7.94612 4.84477 9.45551 4.84477C10.9649 4.84477 12.1935 6.07293 12.1935 7.58271C12.1935 9.09249 10.9649 10.3206 9.45551 10.3206Z" fill="black"/>
</g>
<defs>
<clipPath id="clip0_3853_16240">
<rect width="18" height="18" fill="white" transform="translate(0.455322 0.929688)"/>
</clipPath>
</defs>
</svg>
