<svg width="102" height="71" viewBox="0 0 102 71" fill="none" xmlns="http://www.w3.org/2000/svg">
<g id="Group">
<path id="Vector" d="M86.6494 70.6328C86.0166 70.6328 85.501 70.1172 85.501 69.4844V37.5859C85.501 36.9531 86.0166 36.4375 86.6494 36.4375C87.2822 36.4375 87.7979 36.9531 87.7979 37.5859V69.4844C87.7744 70.1172 87.2822 70.6328 86.6494 70.6328ZM92.251 70.6328C91.6182 70.6328 91.1025 70.1172 91.1025 69.4844V37.5859C91.1025 36.9531 91.6182 36.4375 92.251 36.4375C92.8838 36.4375 93.3994 36.9531 93.3994 37.5859V69.4844C93.3994 70.1172 92.8838 70.6328 92.251 70.6328Z" fill="#0B0B0B"/>
<path id="Vector_2" d="M54.4697 70.6328C52.1494 70.6328 50.251 68.7344 50.251 66.4141V62.0781C50.251 61.4453 50.7666 60.9297 51.3994 60.9297C52.0322 60.9297 52.5479 61.4453 52.5479 62.0781V66.4141C52.5479 67.4687 53.415 68.3359 54.4697 68.3359C55.1025 68.3359 55.6182 68.8516 55.6182 69.4844C55.6182 70.1172 55.1025 70.6328 54.4697 70.6328ZM60.54 70.6328C59.9072 70.6328 59.3916 70.1172 59.3916 69.4844C59.3916 68.8516 59.9072 68.3359 60.54 68.3359C61.5947 68.3359 62.4619 67.4687 62.4619 66.4141V62.0781C62.4619 61.4453 62.9775 60.9297 63.6104 60.9297C64.2432 60.9297 64.7588 61.4453 64.7588 62.0781V66.4375C64.7354 68.7344 62.8604 70.6328 60.54 70.6328ZM16.9932 70.6328C14.6729 70.6328 12.7744 68.7344 12.7744 66.4141V62.0781C12.7744 61.4453 13.29 60.9297 13.9229 60.9297C14.5557 60.9297 15.0713 61.4453 15.0713 62.0781V66.4141C15.0713 67.4687 15.9385 68.3359 16.9932 68.3359C17.626 68.3359 18.1416 68.8516 18.1416 69.4844C18.1416 70.1172 17.626 70.6328 16.9932 70.6328ZM23.0869 70.6328C22.4541 70.6328 21.9385 70.1172 21.9385 69.4844C21.9385 68.8516 22.4541 68.3359 23.0869 68.3359C24.1416 68.3359 25.0088 67.4687 25.0088 66.4141V62.0781C25.0088 61.4453 25.5244 60.9297 26.1572 60.9297C26.79 60.9297 27.3057 61.4453 27.3057 62.0781V66.4375C27.3057 68.7344 25.4307 70.6328 23.0869 70.6328ZM54.0479 9.22656H23.5088C21.9385 9.22656 20.6494 7.9375 20.6494 6.36719V2.03125C20.6494 1.39844 21.165 0.882812 21.7979 0.882812C22.4307 0.882812 22.9463 1.39844 22.9463 2.03125V6.36719C22.9463 6.67188 23.2041 6.92969 23.5088 6.92969H54.0479C54.3525 6.92969 54.6104 6.67188 54.6104 6.36719V2.03125C54.6104 1.39844 55.126 0.882812 55.7588 0.882812C56.3916 0.882812 56.9072 1.39844 56.9072 2.03125V6.36719C56.9072 7.9375 55.6182 9.22656 54.0479 9.22656ZM62.4619 44.9453H15.0947C13.9229 44.9453 12.9854 44.0078 12.9854 42.8359V16.1875C12.9854 14.3359 14.4854 12.8359 16.3369 12.8359H61.2197C63.0713 12.8359 64.5713 14.3359 64.5713 16.1875V42.8359C64.5713 44.0078 63.6338 44.9453 62.4619 44.9453ZM15.2822 42.6484H62.2744V16.2109C62.2744 15.625 61.8057 15.1563 61.2197 15.1563H16.3369C15.751 15.1563 15.2822 15.625 15.2822 16.2109V42.6484ZM62.251 57.1797H52.501C51.8682 57.1797 51.3525 56.6641 51.3525 56.0312V53.7578C51.3525 51.2734 53.3916 49.2578 55.8525 49.2578H62.251C63.54 49.2578 64.5479 50.2656 64.5479 51.5547V54.9063C64.5479 56.1719 63.54 57.1797 62.251 57.1797ZM53.6494 54.9063H62.2744V51.5547H55.876C54.6338 51.5547 53.6494 52.5391 53.6494 53.7812V54.9063ZM25.0322 57.1797H15.2822C13.9932 57.1797 12.9854 56.1719 12.9854 54.8828V51.5312C12.9854 50.2422 13.9932 49.2344 15.2822 49.2344H21.6807C24.165 49.2344 26.1807 51.2734 26.1807 53.7344V56.0078C26.1807 56.6875 25.665 57.1797 25.0322 57.1797ZM15.2822 51.5547V54.9063H23.9072V53.7812C23.9072 52.5391 22.9229 51.5547 21.6807 51.5547H15.2822ZM74.5791 16.7031C73.9463 16.7031 73.4307 16.1875 73.4307 15.5547V11.9453C73.4307 11.8516 73.3604 11.7578 73.2432 11.7578H68.626C67.9932 11.7578 67.4775 11.2422 67.4775 10.6094C67.4775 9.97656 67.9932 9.46094 68.626 9.46094H73.2432C74.6025 9.46094 75.7041 10.5625 75.7041 11.9219V15.5312C75.7041 16.1875 75.2119 16.7031 74.5791 16.7031ZM2.97754 16.7031C2.34473 16.7031 1.8291 16.1875 1.8291 15.5547V11.9453C1.8291 10.5859 2.93066 9.48437 4.29004 9.48437H8.90723C9.54004 9.48437 10.0557 10 10.0557 10.6328C10.0557 11.2656 9.54004 11.7812 8.90723 11.7812H4.29004C4.19629 11.7812 4.10254 11.8516 4.10254 11.9688V15.5781C4.12598 16.1875 3.61035 16.7031 2.97754 16.7031ZM44.1572 57.1797H33.376C32.7197 57.1797 32.0869 56.7578 31.876 56.1484L30.0947 51.4609C29.9072 50.9688 29.9775 50.4063 30.2822 49.9609C30.5869 49.5156 31.0791 49.2578 31.6182 49.2578H45.9385C46.4541 49.2578 46.9463 49.5156 47.251 49.9375C47.5557 50.3828 47.626 50.9219 47.4385 51.4375V51.4609L45.6807 56.125C45.4697 56.7578 44.8838 57.1797 44.1572 57.1797ZM33.8447 54.9063H43.6885L44.9541 51.5547H32.5557L33.8447 54.9063ZM91.9229 31.4922H87.0244C86.3916 31.4922 85.876 30.9766 85.876 30.3438C85.876 29.7109 86.3916 29.1953 87.0244 29.1953H91.9229C92.5557 29.1953 93.0713 29.7109 93.0713 30.3438C93.0479 30.9766 92.5557 31.4922 91.9229 31.4922ZM93.7979 26.2891H85.126C84.4932 26.2891 83.9775 25.7734 83.9775 25.1406C83.9775 24.5078 84.4932 23.9922 85.126 23.9922H93.7979C94.4307 23.9922 94.9463 24.5078 94.9463 25.1406C94.9463 25.7734 94.4307 26.2891 93.7979 26.2891Z" fill="#0B0B0B"/>
<path id="Vector_3" d="M89.4619 39.1094C83.2041 39.1094 78.0947 34.0234 78.0947 27.7422C78.0947 21.4609 83.1807 16.375 89.4619 16.375C95.7432 16.375 100.829 21.4609 100.829 27.7422C100.829 34 95.7432 39.1094 89.4619 39.1094ZM89.4619 18.6719C84.4697 18.6719 80.3916 22.75 80.3916 27.7422C80.3916 32.7344 84.4697 36.8125 89.4619 36.8125C94.4541 36.8125 98.5322 32.7344 98.5322 27.7422C98.5322 22.75 94.4775 18.6719 89.4619 18.6719ZM65.1572 63.25H12.3994C9.84473 63.25 7.78223 61.1641 7.78223 58.6328V6.32031C7.78223 3.32031 10.2432 0.859375 13.2432 0.859375H64.3604C67.3604 0.859375 69.8213 3.32031 69.8213 6.32031V58.6094C69.7979 61.1641 67.7119 63.25 65.1572 63.25ZM13.2197 3.15625C11.4854 3.15625 10.0557 4.5625 10.0557 6.32031V58.6094C10.0557 59.8984 11.1104 60.9531 12.3994 60.9531H65.1572C66.4463 60.9531 67.501 59.8984 67.501 58.6094V6.32031C67.501 4.58594 66.0947 3.15625 64.3369 3.15625H13.2197Z" fill="#0B0B0B"/>
<path id="Vector_4" d="M100.571 70.6328H2.08691C1.4541 70.6328 0.938477 70.1172 0.938477 69.4844C0.938477 68.8516 1.4541 68.3359 2.08691 68.3359H100.571C101.204 68.3359 101.72 68.8516 101.72 69.4844C101.72 70.1172 101.204 70.6328 100.571 70.6328Z" fill="#0B0B0B"/>
</g>
</svg>
