<svg width="99" height="99" viewBox="0 0 99 99" fill="none" xmlns="http://www.w3.org/2000/svg">
<g id="Group">
<path id="Vector" d="M97.1426 59.8757C92.0074 59.2416 88.1359 54.8856 88.1359 49.7416C88.1359 44.6125 92.0029 40.2564 97.1322 39.6088C98.0536 39.4908 98.6401 38.6044 98.4302 37.7306C97.2398 32.7899 95.272 28.0465 92.5817 23.6337C92.1025 22.8486 91.0508 22.6648 90.3342 23.2224C86.2593 26.3941 80.4527 26.0533 76.831 22.4284C73.1898 18.7886 72.8368 12.9701 76.007 8.89379C76.5717 8.16501 76.3711 7.11633 75.5957 6.64629C71.1948 3.96364 66.453 1.99115 61.5033 0.78449C60.6 0.573579 59.7299 1.17887 59.6206 2.08544C58.9867 7.22042 54.6306 11.0935 49.4864 11.0935C44.3438 11.0935 39.9878 7.22042 39.3537 2.08524C39.2441 1.17769 38.3742 0.573383 37.471 0.784294C32.5183 1.99252 27.7779 3.96345 23.3785 6.6461C22.5982 7.12241 22.4063 8.16971 22.9673 8.89359C26.1374 12.9685 25.783 18.7886 22.1433 22.4282C18.5199 26.0515 12.7163 26.391 8.63847 23.2222C7.91851 22.6618 6.86827 22.8516 6.39097 23.6335C3.70087 28.0463 1.73289 32.7897 0.542499 37.7304C0.329628 38.6195 0.935312 39.4955 1.84345 39.6086C6.97117 40.2427 10.8366 44.5987 10.8366 49.7414C10.8366 54.8856 6.9651 59.2416 1.82992 59.8755C0.931587 59.9839 0.310027 60.8573 0.528974 61.7582C1.74779 66.7528 3.72008 71.5005 6.39234 75.8671C6.87101 76.6514 7.92184 76.8372 8.63984 76.2754C12.7118 73.0947 18.5303 73.4432 22.1685 77.0814C25.7828 80.7226 26.1194 86.5368 22.9506 90.6056C22.3867 91.3301 22.5845 92.3792 23.3634 92.8547C27.7524 95.5209 32.4987 97.4873 37.4723 98.6986C38.3766 98.9158 39.2423 98.2954 39.3535 97.3991C39.989 92.2639 44.345 88.3908 49.4862 88.3908C54.6289 88.3908 58.9849 92.2639 59.6204 97.3991C59.6469 97.6134 59.7184 97.8196 59.8303 98.0043C59.9422 98.189 60.0919 98.3479 60.2695 98.4707C60.4472 98.5934 60.6488 98.6772 60.8611 98.7165C61.0735 98.7558 61.2917 98.7497 61.5015 98.6986C66.4764 97.4874 71.2348 95.5163 75.6088 92.8547C76.3884 92.3807 76.5848 91.3293 76.0217 90.6056C72.8409 86.5217 73.1759 80.7092 76.7992 77.0859C80.4345 73.4491 86.2546 73.1023 90.3338 76.277C91.0642 76.848 92.1111 76.6351 92.5799 75.8673C95.2522 71.5009 97.2245 66.753 98.4433 61.7584C98.6625 60.8579 98.0413 59.9843 97.1426 59.8757ZM90.7829 72.8871C85.6238 69.853 78.9485 70.6067 74.6343 74.9208C70.3321 79.2229 69.5889 85.8893 72.629 91.05C69.3802 92.8775 65.9241 94.3093 62.3348 95.3148C60.8378 89.5158 55.5876 85.3287 49.4864 85.3287C43.3853 85.3287 38.1364 89.5158 36.6397 95.3148C33.05 94.309 29.5935 92.8772 26.344 91.05C29.3707 85.9058 28.6274 79.2409 24.3388 74.9208C20.0187 70.6006 13.3432 69.8454 8.19019 72.884C6.35543 69.6377 4.91943 66.1818 3.91335 62.5913C9.71243 61.0943 13.8995 55.8456 13.8995 49.7416C13.8995 43.6389 9.71694 38.3902 3.92374 36.8932C4.91812 33.3283 6.34765 29.883 8.19313 26.6141C13.3477 29.6466 20.0067 28.896 24.3088 24.5937C28.626 20.2765 29.3871 13.6042 26.3589 8.44805C29.6016 6.61501 33.0527 5.17813 36.6381 4.16828C38.1351 9.96893 43.3837 14.156 49.4864 14.156C55.5891 14.156 60.8394 9.96893 62.3361 4.16828C65.9071 5.17325 69.354 6.60729 72.6153 8.44805C69.5857 13.6042 70.3484 20.2779 74.6654 24.5937C78.9675 28.8974 85.6281 29.6466 90.7796 26.6141C92.6248 29.8844 94.0559 33.3299 95.0489 36.8977C89.2559 38.4035 85.0732 43.654 85.0732 49.7416C85.0732 55.8443 89.2602 61.0945 95.0593 62.5913C94.0533 66.1828 92.6174 69.6397 90.7829 72.8871Z" fill="#0B0B0B"/>
<path id="Vector_2" d="M49.4861 20.0078C33.0894 20.0078 19.749 33.3466 19.749 49.7434C19.749 66.1401 33.0894 79.4805 49.4861 79.4805C65.8829 79.4805 79.2232 66.1401 79.2232 49.7434C79.2232 33.3466 65.8829 20.0078 49.4861 20.0078ZM49.4861 76.4179C34.7776 76.4179 22.8115 64.4519 22.8115 49.7434C22.8115 35.0362 34.7776 23.0703 49.4861 23.0703C64.1946 23.0703 76.1607 35.0364 76.1607 49.7434C76.1607 64.4519 64.1946 76.4179 49.4861 76.4179Z" fill="#0B0B0B"/>
<g id="Group_2">
<path id="Vector_3" d="M49.4862 28.1484C49.2851 28.1483 49.0859 28.1878 48.9001 28.2647C48.7143 28.3416 48.5454 28.4544 48.4032 28.5966C48.261 28.7389 48.1482 28.9077 48.0713 29.0936C47.9944 29.2794 47.9549 29.4786 47.955 29.6797V30.7742C47.955 31.6206 48.6399 32.3055 49.4862 32.3055C50.3326 32.3055 51.0175 31.6206 51.0175 30.7742V29.6797C51.0176 29.4786 50.9781 29.2794 50.9012 29.0936C50.8243 28.9077 50.7115 28.7389 50.5693 28.5966C50.4271 28.4544 50.2582 28.3416 50.0724 28.2647C49.8865 28.1878 49.6874 28.1483 49.4862 28.1484ZM49.4862 67.1613C49.2851 67.1612 49.0859 67.2007 48.9001 67.2776C48.7143 67.3545 48.5454 67.4673 48.4032 67.6095C48.261 67.7517 48.1482 67.9206 48.0713 68.1064C47.9944 68.2923 47.9549 68.4915 47.955 68.6926V69.7871C47.955 70.6335 48.6399 71.3184 49.4862 71.3184C50.3326 71.3184 51.0175 70.6335 51.0175 69.7871V68.6926C51.0176 68.4915 50.9781 68.2923 50.9012 68.1064C50.8243 67.9206 50.7115 67.7517 50.5693 67.6095C50.4271 67.4673 50.2582 67.3545 50.0724 67.2776C49.8865 67.2007 49.6874 67.1612 49.4862 67.1613ZM62.5857 34.4695L61.811 35.2426C61.6686 35.3845 61.5556 35.5532 61.4784 35.7388C61.4011 35.9245 61.3612 36.1236 61.361 36.3247C61.3607 36.5257 61.4 36.7249 61.4768 36.9108C61.5535 37.0967 61.6661 37.2656 61.8081 37.4079C62.4081 38.0109 63.3801 38.0042 63.9734 37.4109L64.7481 36.6378C64.8905 36.4958 65.0035 36.3272 65.0808 36.1415C65.158 35.9559 65.1979 35.7568 65.1981 35.5557C65.1984 35.3546 65.1591 35.1555 65.0824 34.9696C65.0056 34.7837 64.8931 34.6148 64.751 34.4724C64.153 33.8713 63.181 33.8742 62.5857 34.4695ZM34.999 62.0561L34.2244 62.8292C34.082 62.9712 33.9689 63.1398 33.8917 63.3255C33.8145 63.5111 33.7746 63.7102 33.7743 63.9113C33.7741 64.1124 33.8134 64.3115 33.8901 64.4974C33.9668 64.6833 34.0794 64.8522 34.2214 64.9946C34.8214 65.5975 35.7935 65.5909 36.3868 64.9975L37.1615 64.2244C37.3039 64.0825 37.4169 63.9138 37.4941 63.7282C37.5714 63.5425 37.6112 63.3434 37.6115 63.1424C37.6118 62.9413 37.5724 62.7421 37.4957 62.5562C37.419 62.3704 37.3064 62.2014 37.1644 62.0591C36.5662 61.4581 35.5941 61.461 34.999 62.0561ZM66.9148 49.7327C66.9147 49.9339 66.9542 50.133 67.0311 50.3189C67.108 50.5047 67.2208 50.6736 67.363 50.8158C67.5053 50.958 67.6741 51.0708 67.86 51.1477C68.0458 51.2246 68.245 51.2641 68.4461 51.264H69.5406C70.387 51.264 71.0719 50.5791 71.0719 49.7327C71.0719 48.8863 70.387 48.2015 69.5406 48.2015H68.4461C68.245 48.2013 68.0458 48.2409 67.86 48.3178C67.6741 48.3947 67.5053 48.5075 67.363 48.6497C67.2208 48.7919 67.108 48.9607 67.0311 49.1466C66.9542 49.3324 66.9147 49.5316 66.9148 49.7327ZM30.5278 48.2015H29.4317C28.5853 48.2015 27.9004 48.8863 27.9004 49.7327C27.9004 50.5791 28.5853 51.264 29.4317 51.264H30.5278C31.3742 51.264 32.059 50.5791 32.059 49.7327C32.059 48.8863 31.3742 48.2015 30.5278 48.2015ZM63.9734 62.0561C63.3752 61.461 62.4063 61.4579 61.8081 62.0591C61.6661 62.2014 61.5535 62.3704 61.4768 62.5562C61.4 62.7421 61.3607 62.9413 61.361 63.1424C61.3612 63.3434 61.4011 63.5425 61.4784 63.7282C61.5556 63.9138 61.6686 64.0825 61.811 64.2244L62.5857 64.9975C62.728 65.1395 62.897 65.2521 63.0828 65.3288C63.2687 65.4056 63.4679 65.4449 63.669 65.4446C63.87 65.4444 64.0691 65.4045 64.2548 65.3272C64.4404 65.25 64.6091 65.137 64.751 64.9946C64.8931 64.8522 65.0056 64.6833 65.0824 64.4974C65.1591 64.3115 65.1984 64.1124 65.1981 63.9113C65.1979 63.7102 65.158 63.5111 65.0808 63.3255C65.0035 63.1398 64.8905 62.9712 64.7481 62.8292L63.9734 62.0561ZM36.3868 34.4695C35.7886 33.8744 34.8197 33.8713 34.2214 34.4724C34.0794 34.6148 33.9668 34.7837 33.8901 34.9696C33.8134 35.1555 33.7741 35.3546 33.7743 35.5557C33.7746 35.7568 33.8145 35.9559 33.8917 36.1415C33.9689 36.3272 34.082 36.4958 34.2244 36.6378L34.999 37.4109C35.1414 37.5529 35.3103 37.6655 35.4962 37.7422C35.6821 37.8189 35.8812 37.8583 36.0823 37.858C36.2834 37.8577 36.4825 37.8178 36.6681 37.7406C36.8538 37.6634 37.0224 37.5504 37.1644 37.4079C37.3064 37.2656 37.419 37.0967 37.4957 36.9108C37.5724 36.7249 37.6118 36.5257 37.6115 36.3247C37.6112 36.1236 37.5714 35.9245 37.4941 35.7388C37.4169 35.5532 37.3039 35.3845 37.1615 35.2426L36.3868 34.4695ZM49.4862 39.2562C49.2851 39.256 49.0859 39.2956 48.9001 39.3725C48.7143 39.4494 48.5454 39.5622 48.4032 39.7044C48.261 39.8466 48.1482 40.0154 48.0713 40.2013C47.9944 40.3871 47.9549 40.5863 47.955 40.7874V49.0988L43.5525 53.5013C42.9543 54.0995 42.9543 55.0684 43.5525 55.6667C44.1507 56.2649 45.1196 56.2649 45.7179 55.6667L50.5669 50.8177C50.8534 50.5292 51.0152 50.1397 51.0175 49.7331V40.7874C51.0176 40.5863 50.9781 40.3871 50.9012 40.2013C50.8243 40.0154 50.7115 39.8466 50.5693 39.7044C50.4271 39.5622 50.2582 39.4494 50.0724 39.3725C49.8865 39.2956 49.6874 39.256 49.4862 39.2562Z" fill="#0B0B0B"/>
</g>
</g>
</svg>
