<svg width="99" height="107" viewBox="0 0 99 107" fill="none" xmlns="http://www.w3.org/2000/svg">
<g id="Group">
<g id="Group_2">
<path id="Vector" fill-rule="evenodd" clip-rule="evenodd" d="M50.4747 9.92222C47.5376 9.92222 45.1501 12.3112 45.1501 15.2476C45.1501 18.1833 47.5376 20.5729 50.474 20.5729C53.409 20.5729 55.7987 18.184 55.7987 15.2476C55.7987 12.3112 53.409 9.92291 50.4747 9.92222ZM50.4747 22.8858C46.2629 22.8858 42.8365 19.4594 42.8365 15.2476C42.8365 11.0357 46.2629 7.60938 50.4747 7.60938C54.6859 7.60938 58.1115 11.0357 58.1115 15.2476C58.1115 19.4594 54.6859 22.8858 50.4747 22.8858ZM1.99982 92.3479C1.74496 92.3485 1.49705 92.2648 1.29465 92.11C1.09226 91.9551 0.946739 91.7376 0.880737 91.4914C0.814735 91.2453 0.831953 90.9842 0.929711 90.7488C1.02747 90.5135 1.20028 90.317 1.42127 90.19L97.2388 34.8694C97.5045 34.7161 97.8202 34.6747 98.1164 34.7542C98.4127 34.8337 98.6652 35.0276 98.8185 35.2932C98.9717 35.5589 99.0132 35.8746 98.9337 36.1708C98.8542 36.4671 98.6602 36.7196 98.3946 36.8729L2.57907 92.1929C2.40313 92.2943 2.20362 92.3478 2.00052 92.3479H1.99982Z" fill="#0B0B0B"/>
<path id="Vector_2" fill-rule="evenodd" clip-rule="evenodd" d="M17.012 83.6823C16.7185 83.6823 16.4265 83.5716 16.2002 83.3502L1.18816 68.5603C0.978122 68.3436 0.861174 68.0533 0.862313 67.7515C0.863452 67.4498 0.98259 67.1604 1.19426 66.9453C1.40593 66.7302 1.69335 66.6064 1.99507 66.6004C2.2968 66.5944 2.5889 66.7067 2.80895 66.9132L17.8237 81.7024C17.9871 81.8634 18.0989 82.0695 18.1449 82.2942C18.1908 82.519 18.1689 82.7523 18.0819 82.9646C17.9949 83.1769 17.8467 83.3585 17.6561 83.4863C17.4656 83.6141 17.2414 83.6823 17.012 83.6823ZM65.8779 93.1635C65.5817 93.1635 65.2848 93.0507 65.0612 92.8244L41.1633 68.9278C40.9464 68.7108 40.8246 68.4166 40.8247 68.1099C40.8247 67.8031 40.9466 67.509 41.1636 67.2921C41.3805 67.0752 41.6748 66.9534 41.9815 66.9535C42.2882 66.9536 42.5824 67.0755 42.7993 67.2924L66.6945 91.189C67.1478 91.641 67.1471 92.3725 66.6945 92.8251C66.4703 93.0507 66.1741 93.1635 65.8779 93.1635ZM97.8168 71.6136C97.5206 71.6136 97.2237 71.5008 96.9974 71.2745L75.0732 49.3503C74.9638 49.2433 74.8767 49.1158 74.817 48.9749C74.7573 48.8341 74.7261 48.6829 74.7252 48.5299C74.7243 48.3769 74.7538 48.2253 74.812 48.0838C74.8701 47.9424 74.9557 47.8138 75.0639 47.7057C75.1721 47.5975 75.3006 47.5119 75.4421 47.4537C75.5836 47.3956 75.7352 47.3661 75.8881 47.367C76.0411 47.3678 76.1924 47.399 76.3332 47.4588C76.474 47.5185 76.6016 47.6056 76.7085 47.7149L98.6335 69.6392C99.0867 70.0911 99.0867 70.8226 98.6335 71.2752C98.4072 71.5008 98.113 71.6143 97.8168 71.6136ZM53.8957 62.3879C53.6001 62.3879 53.3033 62.2751 53.0763 62.0488L33.1209 42.0927C33.0115 41.9858 32.9244 41.8582 32.8647 41.7174C32.805 41.5766 32.7738 41.4253 32.7729 41.2723C32.7721 41.1194 32.8015 40.9678 32.8597 40.8263C32.9178 40.6848 33.0034 40.5562 33.1116 40.4481C33.2198 40.3399 33.3483 40.2543 33.4898 40.1962C33.6313 40.138 33.7829 40.1085 33.9359 40.1094C34.0888 40.1103 34.2401 40.1415 34.3809 40.2012C34.5217 40.2609 34.6493 40.348 34.7562 40.4574L54.713 60.4141C55.1656 60.866 55.1656 61.5982 54.713 62.0501C54.486 62.2757 54.1919 62.3892 53.8963 62.3892L53.8957 62.3879Z" fill="#0B0B0B"/>
</g>
<path id="Vector_3" fill-rule="evenodd" clip-rule="evenodd" d="M1.99968 106.709C1.84785 106.709 1.69749 106.679 1.55719 106.621C1.41689 106.563 1.2894 106.478 1.18201 106.371C1.07462 106.263 0.989426 106.136 0.931302 105.996C0.873178 105.855 0.843262 105.705 0.843262 105.553V29.9054C0.843262 29.3794 1.19483 28.9213 1.70279 28.787L33.6431 20.382C33.8359 20.331 34.0386 20.331 34.2314 20.382L39.4737 21.7613C39.7704 21.8393 40.0239 22.032 40.1786 22.2969C40.3332 22.5619 40.3763 22.8774 40.2983 23.1741C40.2203 23.4708 40.0276 23.7244 39.7626 23.879C39.4977 24.0337 39.1821 24.0767 38.8854 23.9987L33.9373 22.6963L3.1561 30.7968V104.092L33.6743 96.9391C33.848 96.8982 34.0286 96.8989 34.2016 96.9391L65.8769 104.364L96.6601 97.1481V23.0008L66.1717 31.0244C65.979 31.0754 65.7763 31.0754 65.5835 31.0244L58.6962 29.2113C58.5491 29.173 58.4111 29.1061 58.29 29.0144C58.1688 28.9227 58.067 28.8079 57.9904 28.6767C57.9137 28.5456 57.8638 28.4005 57.8433 28.25C57.8229 28.0994 57.8324 27.9463 57.8712 27.7995C57.9098 27.6526 57.9769 27.5148 58.0687 27.3939C58.1605 27.273 58.2753 27.1714 58.4064 27.0949C58.5375 27.0183 58.6824 26.9684 58.8328 26.9478C58.9832 26.9273 59.1362 26.9366 59.283 26.9752L65.8783 28.7102L97.5218 20.3827C97.6929 20.3378 97.8721 20.3327 98.0456 20.3678C98.2191 20.4029 98.3822 20.4773 98.5224 20.5853C98.6626 20.6933 98.7762 20.832 98.8544 20.9908C98.9327 21.1495 98.9735 21.3241 98.9737 21.5011V98.0671C98.9737 98.6021 98.6027 99.0699 98.0802 99.1924L66.1406 106.678C65.9676 106.719 65.7883 106.719 65.6125 106.678L33.9373 99.2547L2.26266 106.678C2.17663 106.698 2.08868 106.709 2.00038 106.709L1.99968 106.709Z" fill="#0B0B0B"/>
<path id="Vector_4" fill-rule="evenodd" clip-rule="evenodd" d="M65.8775 106.708C65.5709 106.708 65.2768 106.586 65.0598 106.369C64.8429 106.153 64.7208 105.859 64.7204 105.552V29.9045C64.7204 29.5978 64.8423 29.3036 65.0591 29.0868C65.276 28.8699 65.5701 28.748 65.8768 28.748C66.1835 28.748 66.4777 28.8699 66.6945 29.0868C66.9114 29.3036 67.0333 29.5978 67.0333 29.9045V105.551C67.0333 106.19 66.5156 106.708 65.8775 106.707V106.708ZM33.9365 99.2226C33.63 99.2223 33.3361 99.1003 33.1194 98.8835C32.9027 98.6667 32.7809 98.3727 32.7808 98.0662V21.5002C32.7808 21.1935 32.9026 20.8993 33.1195 20.6825C33.3363 20.4656 33.6305 20.3438 33.9372 20.3438C34.2439 20.3438 34.538 20.4656 34.7549 20.6825C34.9718 20.8993 35.0936 21.1935 35.0936 21.5002V98.0662C35.0936 98.705 34.5753 99.2226 33.9372 99.2226H33.9365Z" fill="#0B0B0B"/>
<path id="Vector_5" fill-rule="evenodd" clip-rule="evenodd" d="M50.4746 3.08628C43.5554 3.08628 37.9242 8.71614 37.9242 15.636C37.9242 19.6596 44.6025 30.4342 48.5956 36.8716C49.2253 37.8856 49.8514 38.9018 50.4739 39.9201C51.031 39.0066 51.6642 37.9852 52.3535 36.8723C56.3439 30.4342 63.0243 19.6603 63.0243 15.636C63.0243 8.71614 57.3937 3.08628 50.4746 3.08628ZM50.4746 43.3278C50.2723 43.3279 50.0736 43.2751 49.8982 43.1746C49.7227 43.074 49.5767 42.9293 49.4745 42.7548C48.7513 41.5146 47.7666 39.9277 46.6288 38.0903C41.9789 30.5906 35.6113 20.3184 35.6113 15.636C35.6113 7.44068 42.2779 0.773438 50.4739 0.773438C58.6685 0.773438 65.3371 7.44068 65.3371 15.636C65.3371 20.3184 58.9695 30.5906 54.3196 38.091C53.1798 39.9277 52.1971 41.5153 51.4718 42.7548C51.3701 42.929 51.2245 43.0736 51.0495 43.1742C50.8746 43.2747 50.6763 43.3277 50.4746 43.3278Z" fill="#0B0B0B"/>
</g>
</svg>
