<svg width="98" height="100" viewBox="0 0 98 100" fill="none" xmlns="http://www.w3.org/2000/svg">
<g id="Group">
<path id="Vector" d="M37.2148 94.4424H42.4101L49.393 97.7942H63.049C68.2972 97.7942 72.8381 94.1415 73.9623 89.015L77.7254 71.857C78.6426 67.6754 75.4585 63.7172 71.1773 63.7172H60.8452V57.5721C60.8452 52.0186 56.3433 47.5165 50.7897 47.5165L46.5998 63.717H37.2146M48.7507 3.13281L54.4907 14.7631L67.3255 16.6281L58.0381 25.681L60.2307 38.4639L48.7507 32.4287L37.2709 38.4639L39.4634 25.681L30.176 16.6281L43.0109 14.7631L48.7507 3.13281ZM15.1207 19.7523L19.0479 27.7099L27.8297 28.9859L21.4752 35.1801L22.9754 43.9263L15.1207 39.7968L7.26608 43.9263L8.76614 35.1801L2.41162 28.9859L11.1934 27.7099L15.1207 19.7523ZM82.3808 19.7523L78.4535 27.7099L69.6718 28.9859L76.0263 35.1801L74.5262 43.9263L82.3808 39.7968L90.2356 43.9263L88.7353 35.1801L95.0898 28.9859L86.3081 27.7099L82.3808 19.7523Z" stroke="#0B0B0B" stroke-width="2" stroke-miterlimit="10"/>
<path id="Vector_2" d="M19.6177 59.8047H37.2148V98.3508H19.6177V59.8047Z" stroke="#0B0B0B" stroke-width="2" stroke-miterlimit="10"/>
</g>
</svg>
