<svg width="91" height="99" viewBox="0 0 91 99" fill="none" xmlns="http://www.w3.org/2000/svg">
<g id="Group">
<path id="Vector" d="M12.0248 52.173C11.6908 52.173 11.3346 52.0395 11.0896 51.7723C10.5775 51.2602 10.5775 50.4141 11.0896 49.8797L60.0518 0.939844C60.2967 0.694922 60.6529 0.539062 60.9869 0.539062C61.3432 0.539062 61.6772 0.672656 61.9221 0.939844L70.4275 9.44531C70.9396 9.95742 70.9396 10.8035 70.4275 11.3379C67.7557 14.0098 67.7557 18.3293 70.4275 21.0012C73.0994 23.673 77.4189 23.673 80.0908 21.0012C80.6029 20.4891 81.449 20.4891 81.9834 21.0012L90.4889 29.5066C90.7338 29.7516 90.8896 30.1078 90.8896 30.4418C90.8896 30.7758 90.7561 31.132 90.4889 31.377L70.0713 51.7945C69.5592 52.3066 68.7131 52.3066 68.1787 51.7945C67.6666 51.2824 67.6666 50.4363 68.1787 49.902L87.6611 30.4195L80.9814 23.7398C77.2631 26.5453 71.9416 26.2336 68.5572 22.8492C65.1728 19.4648 64.8834 14.1434 67.6889 10.425L61.0092 3.74531L12.9822 51.7723C12.715 52.0395 12.3811 52.173 12.0248 52.173Z" fill="#0B0B0B"/>
<path id="Vector_2" d="M56.1105 20.5536C55.7765 20.5536 55.4202 20.42 55.1753 20.1528L52.971 17.9485C52.4589 17.4364 52.4589 16.5903 52.971 16.056C53.4831 15.5438 54.3292 15.5438 54.8636 16.056L57.0679 18.2603C57.58 18.7724 57.58 19.6185 57.0679 20.1528C56.7784 20.42 56.4444 20.5536 56.1105 20.5536ZM62.189 26.6544C61.855 26.6544 61.4987 26.5208 61.2538 26.2536L59.0495 24.0493C58.5374 23.5372 58.5374 22.6911 59.0495 22.1567C59.5616 21.6446 60.4077 21.6446 60.9421 22.1567L63.1464 24.361C63.6585 24.8731 63.6585 25.7192 63.1464 26.2536C62.8792 26.5208 62.5452 26.6544 62.189 26.6544ZM68.2898 32.7552C67.9558 32.7552 67.5995 32.6216 67.3546 32.3544L65.1503 30.1501C64.6382 29.638 64.6382 28.7919 65.1503 28.2575C65.6624 27.7454 66.5085 27.7454 67.0429 28.2575L69.2472 30.4618C69.7593 30.9739 69.7593 31.82 69.2472 32.3544C68.98 32.6216 68.646 32.7552 68.2898 32.7552ZM74.3905 38.856C74.0565 38.856 73.7003 38.7224 73.4554 38.4552L71.2511 36.2509C70.739 35.7388 70.739 34.8927 71.2511 34.3583C71.7632 33.8462 72.6093 33.8462 73.1437 34.3583L75.3479 36.5626C75.8601 37.0747 75.8601 37.9208 75.3479 38.4552C75.0808 38.7224 74.7245 38.856 74.3905 38.856ZM33.2882 52.1708C32.9542 52.1708 32.5979 52.0372 32.353 51.77C31.8409 51.2579 31.8409 50.4118 32.353 49.8774L52.7706 29.4599C53.0155 29.2149 53.3718 29.0591 53.7058 29.0591C54.062 29.0591 54.396 29.1927 54.6409 29.4599L61.9218 36.7407C62.4339 37.2528 62.4339 38.0989 61.9218 38.6333L48.7851 51.77C48.273 52.2821 47.4269 52.2821 46.8925 51.77C46.3804 51.2579 46.3804 50.4118 46.8925 49.8774L59.094 37.6759L53.7058 32.2876L34.2233 51.77C33.9784 52.0372 33.6222 52.1708 33.2882 52.1708ZM22.9792 52.1708C22.6452 52.1708 22.289 52.0372 22.044 51.77C21.5319 51.2579 21.5319 50.4118 22.044 49.8774L47.6272 24.2942C48.1394 23.7821 48.9854 23.7821 49.5198 24.2942C50.0319 24.8063 50.0319 25.6524 49.5198 26.1868L23.9366 51.77C23.6694 52.0372 23.3354 52.1708 22.9792 52.1708ZM58.1589 52.1708C57.8249 52.1708 57.4687 52.0372 57.2237 51.77C56.7116 51.2579 56.7116 50.4118 57.2237 49.8774L65.2171 41.8841C65.7292 41.372 66.5753 41.372 67.1097 41.8841C67.6218 42.3962 67.6218 43.2423 67.1097 43.7767L59.1163 51.77C58.8491 52.0372 58.4929 52.1708 58.1589 52.1708ZM71.3179 62.3685C70.5831 62.3685 69.9819 61.7673 69.9819 61.0325V57.4255C69.9819 56.6907 70.5831 56.0896 71.3179 56.0896C72.0526 56.0896 72.6538 56.6907 72.6538 57.4255V61.0325C72.6538 61.7673 72.0526 62.3685 71.3179 62.3685ZM71.3179 72.3657C70.5831 72.3657 69.9819 71.7645 69.9819 71.0298V67.4228C69.9819 66.688 70.5831 66.0868 71.3179 66.0868C72.0526 66.0868 72.6538 66.688 72.6538 67.4228V71.0298C72.6538 71.7645 72.0526 72.3657 71.3179 72.3657ZM71.3179 82.363C70.5831 82.363 69.9819 81.7618 69.9819 81.027V77.42C69.9819 76.6852 70.5831 76.0841 71.3179 76.0841C72.0526 76.0841 72.6538 76.6852 72.6538 77.42V81.027C72.6538 81.7618 72.0526 82.363 71.3179 82.363ZM71.3179 92.3602C70.5831 92.3602 69.9819 91.7591 69.9819 91.0243V87.4173C69.9819 86.6825 70.5831 86.0813 71.3179 86.0813C72.0526 86.0813 72.6538 86.6825 72.6538 87.4173V91.0243C72.6538 91.7591 72.0526 92.3602 71.3179 92.3602ZM60.1851 81.5392H22.3335C21.5987 81.5392 20.9976 80.938 20.9976 80.2032V68.2688C20.9976 67.5341 21.5987 66.9329 22.3335 66.9329H60.1851C60.9198 66.9329 61.521 67.5341 61.521 68.2688V80.2032C61.521 80.938 60.9198 81.5392 60.1851 81.5392ZM23.6694 78.8673H58.8491V69.6048H23.6694V78.8673ZM60.1851 61.1438H22.3335C21.5987 61.1438 20.9976 60.5427 20.9976 59.8079C20.9976 59.0731 21.5987 58.472 22.3335 58.472H60.1851C60.9198 58.472 61.521 59.0731 61.521 59.8079C61.521 60.5427 60.9198 61.1438 60.1851 61.1438ZM60.1851 89.9778H22.3335C21.5987 89.9778 20.9976 89.3767 20.9976 88.6419C20.9976 87.9071 21.5987 87.306 22.3335 87.306H60.1851C60.9198 87.306 61.521 87.9071 61.521 88.6419C61.521 89.3767 60.9198 89.9778 60.1851 89.9778Z" fill="#0B0B0B"/>
<path id="Vector_3" d="M89.5314 98.952H1.76025C1.02549 98.952 0.424316 98.3508 0.424316 97.616V83.7C0.424316 82.9652 1.02549 82.3641 1.76025 82.3641C6.23564 82.3641 9.88721 78.7125 9.88721 74.2371C9.88721 69.7617 6.23564 66.1102 1.76025 66.1102C1.02549 66.1102 0.424316 65.509 0.424316 64.7742V50.8359C0.424316 50.1012 1.02549 49.5 1.76025 49.5H89.5314C90.2661 49.5 90.8673 50.1012 90.8673 50.8359V64.7742C90.8673 65.509 90.2661 66.1102 89.5314 66.1102C85.056 66.1102 81.4044 69.7617 81.4044 74.2371C81.4044 78.7125 85.056 82.3641 89.5314 82.3641C90.2661 82.3641 90.8673 82.9652 90.8673 83.7V97.616C90.8673 98.3508 90.2661 98.952 89.5314 98.952ZM3.09619 96.2801H88.1954V84.9469C82.8739 84.2789 78.7325 79.7367 78.7325 74.2371C78.7325 68.7375 82.8739 64.173 88.1954 63.5273V52.1941H3.09619V63.5273C8.41768 64.1953 12.5591 68.7375 12.5591 74.2371C12.5591 79.7367 8.41768 84.3012 3.09619 84.9469V96.2801Z" fill="#0B0B0B"/>
</g>
</svg>
