<svg width="25" height="25" viewBox="0 0 25 25" fill="none" xmlns="http://www.w3.org/2000/svg">
<path d="M16.6909 14.032L16.898 14.032L21.0087 14.032C21.5799 14.032 22.158 13.9061 22.6995 13.6559L23.0882 13.4508L23.0995 13.4449L23.1111 13.4395C23.4718 13.2723 23.6914 12.9281 23.6914 12.5322C23.6914 12.1313 23.4673 11.7902 23.1344 11.636L23.1233 11.6309L23.1125 11.6253L22.6785 11.398C22.1594 11.1588 21.5822 11.0323 21.0087 11.0323L16.8981 11.0323L16.691 11.0323L16.5445 10.8859L7.27723 1.6187L7.62642 1.26951L7.27723 1.61869C6.89898 1.24045 6.39918 1.0332 5.86393 1.0332L4.69292 1.0332L4.69304 1.03338L10.7315 10.4566L11.1907 11.1732L10.3412 11.2254C8.83921 11.3177 7.58526 11.4428 6.04773 11.5968L4.47324 11.7558L4.17248 11.7861L4.00584 11.5339L16.6909 14.032ZM16.6909 14.032L16.5445 14.1785M16.6909 14.032L16.5445 14.1785M16.5445 14.1785L7.27526 23.4487L16.5445 14.1785ZM4.6914 1.03086C4.69144 1.03091 4.69147 1.03097 4.69151 1.03102L4.6914 1.03086Z" fill="white" stroke="white"/>
</svg>
