<svg width="125" height="51" viewBox="0 0 125 51" fill="none" xmlns="http://www.w3.org/2000/svg">
<path d="M84.1815 42.5659L86.0982 38.784H88.195L85.1463 44.3926V47.9688H83.2167V44.4569L80.168 38.784H82.2776L84.1815 42.5659ZM95.6692 47.9688H90.3821V38.784H95.6692V40.3791H92.3246V42.3987H95.4376V43.9938H92.3246V46.3608H95.6692V47.9688ZM104.231 47.9688L103.562 45.7819H100.217L99.5485 47.9688H97.4517L100.693 38.7454H103.073L106.328 47.9688H104.231ZM102.43 42.0128C102.387 41.867 102.331 41.6826 102.263 41.4597C102.194 41.2367 102.126 41.0094 102.057 40.7779C101.988 40.5463 101.933 40.3448 101.89 40.1733C101.847 40.3448 101.787 40.5592 101.71 40.8165C101.641 41.0652 101.572 41.3053 101.504 41.5368C101.444 41.7598 101.397 41.9185 101.362 42.0128L100.706 44.1482H103.099L102.43 42.0128ZM111.196 38.784C112.028 38.784 112.714 38.8869 113.254 39.0927C113.794 39.29 114.197 39.5944 114.463 40.006C114.729 40.4091 114.862 40.9194 114.862 41.5368C114.862 41.9571 114.781 42.3258 114.618 42.6431C114.463 42.9519 114.253 43.2177 113.987 43.4407C113.73 43.6551 113.451 43.8309 113.151 43.9681L115.853 47.9688H113.691L111.505 44.4441H110.463V47.9688H108.52V38.784H111.196ZM111.054 40.3791H110.463V42.8618H111.093C111.522 42.8618 111.869 42.8146 112.135 42.7203C112.401 42.626 112.594 42.4845 112.714 42.2958C112.834 42.0986 112.894 41.8627 112.894 41.5883C112.894 41.2967 112.825 41.0652 112.688 40.8936C112.559 40.7136 112.358 40.5849 112.083 40.5077C111.818 40.422 111.475 40.3791 111.054 40.3791ZM123.457 45.4217C123.457 45.962 123.324 46.4337 123.058 46.8367C122.792 47.2398 122.407 47.5528 121.901 47.7758C121.403 47.9902 120.794 48.0974 120.074 48.0974C119.757 48.0974 119.444 48.0759 119.135 48.0331C118.835 47.9902 118.543 47.9302 118.26 47.853C117.986 47.7672 117.724 47.6643 117.475 47.5442V45.7304C117.913 45.9191 118.363 46.0949 118.826 46.2579C119.298 46.4122 119.765 46.4894 120.228 46.4894C120.546 46.4894 120.799 46.4465 120.987 46.3608C121.184 46.275 121.326 46.1592 121.412 46.0134C121.506 45.8677 121.553 45.7004 121.553 45.5118C121.553 45.2802 121.472 45.083 121.309 44.92C121.154 44.7571 120.944 44.607 120.678 44.4698C120.413 44.324 120.108 44.1696 119.765 44.0067C119.551 43.9038 119.319 43.7837 119.07 43.6465C118.822 43.5007 118.582 43.3249 118.35 43.1191C118.127 42.9047 117.943 42.6474 117.797 42.3473C117.651 42.0471 117.578 41.6869 117.578 41.2667C117.578 40.7178 117.703 40.2505 117.951 39.8645C118.209 39.47 118.569 39.1699 119.032 38.9641C119.504 38.7583 120.057 38.6553 120.691 38.6553C121.172 38.6553 121.626 38.7111 122.055 38.8226C122.492 38.9341 122.947 39.0927 123.418 39.2985L122.788 40.8165C122.368 40.6449 121.991 40.512 121.656 40.4177C121.322 40.3233 120.979 40.2762 120.627 40.2762C120.387 40.2762 120.181 40.3148 120.01 40.392C119.838 40.4691 119.705 40.5763 119.611 40.7136C119.525 40.8508 119.482 41.0137 119.482 41.2024C119.482 41.4168 119.546 41.6012 119.675 41.7555C119.804 41.9013 119.997 42.0428 120.254 42.18C120.511 42.3172 120.833 42.4802 121.219 42.6689C121.69 42.8918 122.089 43.1234 122.415 43.3635C122.75 43.6036 123.007 43.8866 123.187 44.2125C123.367 44.5384 123.457 44.9415 123.457 45.4217Z" fill="white"/>
<path d="M25.3149 12.4727C18.0603 12.472 12.7162 17.5334 10.9395 20.3869L20.4692 24.7477C21.4922 23.2941 24.2165 20.6776 26.93 21.8404C29.6436 23.0031 29.1375 25.6629 28.5452 26.8475L13.3623 40.8998V47.8452H41.9514V38.477H30.968C32.4217 37.4002 36.0398 34.2775 38.8825 30.401C42.436 25.5553 41.3053 20.3869 39.6901 17.6408C38.0749 14.8948 33.5237 12.4734 25.3149 12.4727Z" fill="white"/>
<path d="M72.6719 21.9507V13.0547H49.5043L47.1875 35.0174C51.5739 34.2142 60.6618 33.0898 61.9221 35.0174C63.4974 37.4268 61.9221 38.9095 58.6787 39.6509C56.084 40.244 50.987 37.921 48.7629 36.6854C48.2069 38.1064 46.5944 41.912 44.5928 45.7671C52.5624 49.3813 55.8059 48.9179 60.3467 48.9179C64.8876 48.9179 71.1891 45.8598 72.6719 44.0991C75.9131 40.2503 75.2666 36.8708 75.174 35.0174C75.0813 33.164 74.1405 29.4847 71.1891 27.4184C69.0845 25.9449 62.1075 24.7927 58.6787 24.6383L59.42 21.9507H72.6719Z" fill="white"/>
<path d="M0.615157 47.2826C0.866509 42.0882 10.215 35.1346 14.8578 32.3072C17.2389 30.7373 20.7386 28.5395 15.6884 32.3072C9.37569 37.0168 8.9932 38.904 4.69946 43.6167C1.26447 47.3868 17.5807 43.4421 26.1682 40.9985L82.0915 20.5781V21.4154L38.0021 39.4282C25.4351 44.2106 0.363805 52.4769 0.615157 47.2826Z" fill="#D9D9D9"/>
<path d="M97.3316 12.2572C98.1992 11.6624 98.8449 10.8116 99.1743 9.82956C99.2595 9.5815 99.2823 9.31666 99.2407 9.05706C99.1991 8.79747 99.0943 8.55062 98.9351 8.33705C98.7783 8.12208 98.5713 7.94595 98.3313 7.82329C98.0913 7.70063 97.8252 7.63497 97.5551 7.63176C96.4877 7.61184 95.4453 7.92387 94.5803 8.52219L91.8843 10.3793L90.5451 9.85354C90.6912 9.70044 90.778 9.50266 90.791 9.29343C90.8039 9.0842 90.7422 8.87628 90.6162 8.70459C90.4705 8.50737 90.2507 8.37346 90.005 8.33222C89.7593 8.29098 89.5079 8.34577 89.3057 8.48458L88.4904 9.04615L86.9036 8.42287L87.0369 8.33099C87.2386 8.19163 87.3743 7.97977 87.4143 7.74185C87.4542 7.50394 87.3951 7.25938 87.25 7.0618C86.9582 6.66421 86.3477 6.5613 85.9399 6.84185L84.8284 7.60749L81.544 6.3175C81.4172 6.26751 81.2797 6.2492 81.1444 6.26425C81.0091 6.2793 80.8802 6.32723 80.7697 6.40362L79.9728 6.95255C79.7635 7.09669 79.64 7.32312 79.6347 7.57354C79.6295 7.82395 79.7428 8.05744 79.946 8.21451L87.2242 13.8365L82.4559 17.4477L78.3091 16.9693L77.5688 17.4789C77.4909 17.5325 77.4282 17.6044 77.3866 17.688C77.3449 17.7715 77.3256 17.8641 77.3303 17.9572C77.3351 18.0503 77.3638 18.1411 77.4138 18.2211C77.4639 18.3012 77.5336 18.368 77.6167 18.4155L81.2667 20.5088L82.1205 24.5289C82.1439 24.6402 82.2016 24.7423 82.286 24.8215C82.3704 24.9007 82.4774 24.9532 82.5927 24.9721C82.7415 24.9971 82.8949 24.9645 83.0209 24.878L83.7603 24.3687L84.6476 20.4223L89.7352 17.2443L92.8497 25.7294C92.9365 25.9663 93.1277 26.1462 93.3741 26.2232C93.4945 26.2611 93.6221 26.2712 93.7467 26.2528C93.8712 26.2344 93.9893 26.188 94.0915 26.1172L94.8888 25.5683C94.9996 25.4924 95.0886 25.3903 95.1475 25.2716C95.2064 25.1529 95.2334 25.0214 95.2259 24.8892L95.0389 21.4695L96.1517 20.7033C96.3552 20.5632 96.4895 20.3539 96.5298 20.1139C96.5701 19.8739 96.5115 19.6322 96.365 19.4333C96.2192 19.2361 95.9994 19.1022 95.7537 19.0609C95.5081 19.0197 95.2566 19.0745 95.0544 19.2133L94.9205 19.3055L94.8302 17.6517L95.6459 17.0898C95.8494 16.9496 95.9837 16.7403 96.024 16.5003C96.0643 16.2604 96.0057 16.0187 95.8595 15.8203C95.6037 15.473 95.1058 15.3509 94.713 15.5114L94.6365 14.1137L97.3326 12.2566L97.3316 12.2572Z" fill="#D9D9D9"/>
</svg>
