<svg width="206" height="48" viewBox="0 0 206 48" fill="none" xmlns="http://www.w3.org/2000/svg">
<g style="mix-blend-mode:luminosity" clip-path="url(#clip0_2499_19859)">
<path d="M138.871 41.1067H132.957V18.3094H138.871V41.1067ZM124.866 18.3094L121.047 33.5875L116.587 18.3094H110.867L106.41 33.5875L102.591 18.3094H96.7931L103.086 41.1067H109.211L113.721 25.4738L118.237 41.1067H124.346L130.658 18.3094H124.866ZM96.3107 34.655C96.3107 30.2978 93.992 28.8195 88.9222 27.1669C86.5319 26.3888 84.3005 25.7882 84.3005 23.9301C84.3005 22.3024 85.9593 21.7516 87.198 21.7516C88.2468 21.7516 90.22 21.9725 90.3787 24.3908H95.9808C95.8843 19.7753 92.1309 17.7648 87.2976 17.7648C84.3036 17.7648 81.8293 18.6144 80.2701 20.1488C79.1458 21.2876 78.5171 22.8247 78.521 24.425C78.521 28.6701 81.3563 30.3694 84.5588 31.3435C88.1597 32.4422 90.5405 33.0989 90.5405 35.0783C90.5405 36.401 89.4886 37.7206 87.4283 37.7206C84.7953 37.7206 83.8398 36.1644 83.7776 34.6083H78.1133C78.1133 39.8618 82.542 41.7852 87.4283 41.7852C93.6528 41.7852 96.3231 38.231 96.3231 34.6457M159.813 34.6457C159.813 29.6194 156.156 28.2904 151.721 26.9677C149.589 26.3453 147.675 25.7788 147.675 23.9208C147.675 22.2931 149.331 21.7422 150.573 21.7422C151.628 21.7422 153.592 21.9632 153.75 24.3814H159.353C159.256 19.7659 155.506 17.7554 150.666 17.7554C147.675 17.7554 145.192 18.6051 143.642 20.1394C142.519 21.279 141.89 22.8156 141.893 24.4157C141.893 28.6608 144.722 30.3601 147.934 31.3342C151.531 32.4328 153.919 33.0895 153.919 35.0689C153.919 36.3916 152.87 37.7112 150.806 37.7112C148.167 37.7112 147.209 36.1551 147.152 34.599H141.488C141.488 39.8525 145.914 41.7758 150.806 41.7758C157.031 41.7758 159.81 38.2216 159.81 34.6363M180.177 34.6363C180.177 29.61 176.501 28.2811 172.085 26.9584C169.947 26.3359 168.039 25.7695 168.039 23.9115C168.039 22.2838 169.685 21.7329 170.927 21.7329C171.973 21.7329 173.949 21.9539 174.108 24.3721H179.71C179.613 19.7566 175.841 17.7461 171.017 17.7461C168.064 17.7803 165.574 18.63 164.018 20.1643C162.897 21.3052 162.27 22.8412 162.272 24.4406C162.272 28.6857 165.101 30.385 168.31 31.3591C171.911 32.4577 174.291 33.1144 174.291 35.0938C174.291 36.4165 173.246 37.7361 171.179 37.7361C168.54 37.7361 167.584 36.18 167.522 34.6239H161.839C161.839 39.8774 166.259 41.8132 171.176 41.8132C177.422 41.8132 180.202 38.259 180.202 34.6737" fill="white"/>
<path fill-rule="evenodd" clip-rule="evenodd" d="M26.4561 47.5604H65.4402L74.2168 11.9375H55.0297L26.4561 47.5604ZM59.474 18.793V26.4616H67.1457V33.0347H59.474H59.4709V40.7064H52.8947V33.0347H45.2323V26.4616H52.9009V18.793H59.474Z" fill="white"/>
</g>
<defs>
<clipPath id="clip0_2499_19859">
<rect width="204.961" height="47.4972" fill="white" transform="translate(0.832031 0.0625)"/>
</clipPath>
</defs>
</svg>
