<svg width="24" height="24" viewBox="0 0 24 24" fill="none" xmlns="http://www.w3.org/2000/svg">
<path d="M4.5 14.25V5.25C4.50119 4.2558 4.89666 3.30267 5.59966 2.59966C6.30267 1.89666 7.2558 1.50119 8.25 1.5H15.75C16.7442 1.50119 17.6973 1.89666 18.4003 2.59966C19.1033 3.30267 19.4988 4.2558 19.5 5.25V14.25C19.4986 15.1078 19.2034 15.9392 18.6638 16.6059C18.1241 17.2726 17.3724 17.7344 16.5338 17.9145L18.6398 21.3592C18.6947 21.4433 18.7322 21.5376 18.7501 21.6364C18.768 21.7352 18.7658 21.8366 18.7437 21.9346C18.7216 22.0326 18.6801 22.1251 18.6216 22.2068C18.563 22.2884 18.4887 22.3574 18.403 22.4098C18.3173 22.4621 18.2219 22.4967 18.1226 22.5115C18.0232 22.5263 17.9219 22.521 17.8247 22.4959C17.7274 22.4709 17.6362 22.4265 17.5564 22.3655C17.4766 22.3045 17.4099 22.228 17.3603 22.1407L16.662 21H7.33725L6.63975 22.1407C6.59007 22.228 6.52335 22.3045 6.44357 22.3655C6.36379 22.4265 6.27257 22.4709 6.17532 22.4959C6.07807 22.521 5.97677 22.5263 5.87743 22.5115C5.77808 22.4967 5.68273 22.4621 5.59702 22.4098C5.5113 22.3574 5.43698 22.2884 5.37845 22.2068C5.31992 22.1251 5.27839 22.0326 5.2563 21.9346C5.23422 21.8366 5.23204 21.7352 5.2499 21.6364C5.26775 21.5376 5.30528 21.4433 5.36025 21.3592L7.46625 17.9145C6.6276 17.7344 5.87591 17.2726 5.33623 16.6059C4.79656 15.9392 4.50144 15.1078 4.5 14.25ZM15.75 15C15.8983 15 16.0433 14.956 16.1667 14.8736C16.29 14.7912 16.3861 14.6741 16.4429 14.537C16.4997 14.4 16.5145 14.2492 16.4856 14.1037C16.4567 13.9582 16.3852 13.8246 16.2803 13.7197C16.1754 13.6148 16.0418 13.5433 15.8963 13.5144C15.7508 13.4855 15.6 13.5003 15.463 13.5571C15.3259 13.6139 15.2088 13.71 15.1264 13.8333C15.044 13.9567 15 14.1017 15 14.25C15 14.4489 15.079 14.6397 15.2197 14.7803C15.3603 14.921 15.5511 15 15.75 15ZM15.7448 19.5L14.8275 18H9.17175L8.2545 19.5H15.7448ZM9 14.25C9 14.1017 8.95601 13.9567 8.8736 13.8333C8.79119 13.71 8.67406 13.6139 8.53701 13.5571C8.39997 13.5003 8.24917 13.4855 8.10368 13.5144C7.9582 13.5433 7.82456 13.6148 7.71967 13.7197C7.61478 13.8246 7.54335 13.9582 7.51441 14.1037C7.48547 14.2492 7.50032 14.4 7.55709 14.537C7.61386 14.6741 7.70998 14.7912 7.83332 14.8736C7.95666 14.956 8.10166 15 8.25 15C8.44891 15 8.63968 14.921 8.78033 14.7803C8.92098 14.6397 9 14.4489 9 14.25ZM6.75 9.75C6.75 10.1478 6.90804 10.5294 7.18934 10.8107C7.47064 11.092 7.85218 11.25 8.25 11.25H15.75C16.1478 11.25 16.5294 11.092 16.8107 10.8107C17.092 10.5294 17.25 10.1478 17.25 9.75V5.25C17.25 4.85217 17.092 4.47064 16.8107 4.18934C16.5294 3.90804 16.1478 3.75 15.75 3.75H8.25C7.85218 3.75 7.47064 3.90804 7.18934 4.18934C6.90804 4.47064 6.75 4.85217 6.75 5.25V9.75Z" fill="#CC0000"/>
</svg>
