<svg width="18" height="20" viewBox="0 0 18 20" fill="none" xmlns="http://www.w3.org/2000/svg">
<path d="M0.4875 19.194H17.5127C17.5923 19.194 17.6686 19.1623 17.7248 19.1061C17.7811 19.0498 17.8127 18.9735 17.8127 18.894V11.0032C17.8127 10.9236 17.7811 10.8473 17.7248 10.791C17.6686 10.7348 17.5923 10.7032 17.5127 10.7032H15.7561V8.49476C15.7546 7.35859 15.4128 6.24893 14.7747 5.30888C14.1366 4.36883 13.2315 3.64152 12.1761 3.22076C12.1564 3.21022 12.1355 3.20197 12.1139 3.19616C11.6645 3.02266 11.1946 2.90765 10.7159 2.85396V2.32256C10.7159 1.86729 10.535 1.43066 10.2131 1.10874C9.89119 0.786813 9.45457 0.605957 8.9993 0.605957C8.54403 0.605957 8.10741 0.786813 7.78548 1.10874C7.46356 1.43066 7.2827 1.86729 7.2827 2.32256V2.85396C6.80396 2.90765 6.33411 3.02266 5.8847 3.19616C5.8631 3.20197 5.84223 3.21022 5.8225 3.22076C4.76712 3.64152 3.86201 4.36883 3.2239 5.30888C2.5858 6.24893 2.24397 7.35859 2.2425 8.49476V10.7032H0.4875C0.407935 10.7032 0.331629 10.7348 0.275368 10.791C0.219107 10.8473 0.1875 10.9236 0.1875 11.0032V18.894C0.1875 18.9735 0.219107 19.0498 0.275368 19.1061C0.331629 19.1623 0.407935 19.194 0.4875 19.194ZM12.7863 16.825H5.2139V15.425C5.21496 14.5584 5.55968 13.7277 6.17244 13.115C6.78521 12.5023 7.61597 12.1577 8.4825 12.1568H9.5177C10.3843 12.1577 11.2151 12.5024 11.8278 13.1151C12.4406 13.7278 12.7853 14.5586 12.7863 15.4252V16.825ZM5.2139 18.594V17.425H12.7863V18.594H5.2139ZM17.2127 11.3032V18.594H15.7561V11.3032H17.2127ZM6.2627 3.69676C6.6872 3.54966 7.12944 3.45994 7.5777 3.42996C7.57963 3.43006 7.58157 3.43006 7.5835 3.42996C7.59812 3.42961 7.6127 3.42814 7.6271 3.42556C7.7247 3.41996 7.8227 3.41636 7.9217 3.41636H10.0785C10.1775 3.41636 10.2755 3.41996 10.3731 3.42556C10.3875 3.42814 10.4021 3.42961 10.4167 3.42996C10.4186 3.43006 10.4206 3.43006 10.4225 3.42996C10.8708 3.45994 11.313 3.54966 11.7375 3.69676V4.61996C11.7375 5.34596 11.4491 6.04223 10.9357 6.55559C10.4224 7.06895 9.7261 7.35736 9.0001 7.35736C8.2741 7.35736 7.57783 7.06895 7.06447 6.55559C6.5511 6.04223 6.2627 5.34596 6.2627 4.61996V3.69676ZM7.8827 2.32256C7.8827 2.02642 8.00034 1.7424 8.20974 1.533C8.41915 1.3236 8.70316 1.20596 8.9993 1.20596C9.29544 1.20596 9.57945 1.3236 9.78886 1.533C9.99826 1.7424 10.1159 2.02642 10.1159 2.32256V2.81796C10.1031 2.81796 10.0905 2.81796 10.0777 2.81796H7.9217C7.9089 2.81796 7.8963 2.81796 7.8835 2.81796L7.8827 2.32256ZM2.8441 8.49476C2.84502 7.54996 3.10925 6.62411 3.60713 5.82114C4.10501 5.01817 4.81683 4.36985 5.6627 3.94896V4.61996C5.6627 5.50509 6.01432 6.35397 6.6402 6.97985C7.26609 7.60574 8.11497 7.95736 9.0001 7.95736C9.88523 7.95736 10.7341 7.60574 11.36 6.97985C11.9859 6.35397 12.3375 5.50509 12.3375 4.61996V3.94896C13.1834 4.36985 13.8952 5.01817 14.3931 5.82114C14.891 6.62411 15.1552 7.54996 15.1561 8.49476V18.5948H13.3863V15.4252C13.3851 14.3995 12.9771 13.4163 12.2519 12.6911C11.5266 11.9659 10.5433 11.5579 9.5177 11.5568H8.4825C7.45688 11.5579 6.47359 11.9659 5.74834 12.6911C5.0231 13.4163 4.61512 14.3995 4.6139 15.4252V18.594H2.8441V8.49476ZM0.7875 11.3032H2.2441V18.594H0.7875V11.3032Z" fill="#CC0000"/>
</svg>
