<svg width="20" height="20" viewBox="0 0 20 20" fill="none" xmlns="http://www.w3.org/2000/svg">
<path d="M17.37 2.20345H14.4228V0.781982C14.4228 0.701174 14.3907 0.623676 14.3336 0.566536C14.2765 0.509396 14.199 0.477295 14.1182 0.477295C14.0374 0.477295 13.9599 0.509396 13.9027 0.566536C13.8456 0.623676 13.8135 0.701174 13.8135 0.781982V2.20345H6.18714V0.781982C6.18714 0.701174 6.15504 0.623676 6.0979 0.566536C6.04076 0.509396 5.96326 0.477295 5.88245 0.477295C5.80165 0.477295 5.72415 0.509396 5.66701 0.566536C5.60987 0.623676 5.57777 0.701174 5.57777 0.781982V2.20345H2.63002C1.56605 2.20345 0.700329 3.06917 0.700329 4.13314V17.593C0.700329 18.657 1.56605 19.5227 2.63002 19.5227H17.37C18.434 19.5227 19.2997 18.657 19.2997 17.593V4.13314C19.2997 3.06917 18.434 2.20345 17.37 2.20345ZM2.63002 2.81283H5.57777V4.15487C5.57777 4.23568 5.60987 4.31318 5.66701 4.37032C5.72415 4.42746 5.80165 4.45956 5.88245 4.45956C5.96326 4.45956 6.04076 4.42746 6.0979 4.37032C6.15504 4.31318 6.18714 4.23568 6.18714 4.15487V2.81283H13.8137V4.15487C13.8137 4.23568 13.8458 4.31318 13.9029 4.37032C13.9601 4.42746 14.0376 4.45956 14.1184 4.45956C14.1992 4.45956 14.2767 4.42746 14.3338 4.37032C14.3909 4.31318 14.423 4.23568 14.423 4.15487V2.81283H17.3702C18.0982 2.81283 18.6905 3.40514 18.6905 4.13314V6.62812C18.6704 6.62403 18.6499 6.62198 18.6294 6.62203H1.37044C1.34952 6.62203 1.32941 6.62426 1.3097 6.62812V4.13314C1.3097 3.40514 1.90202 2.81283 2.63002 2.81283ZM17.37 18.9133H2.63002C2.27998 18.9129 1.9444 18.7737 1.69689 18.5261C1.44938 18.2786 1.31013 17.9431 1.3097 17.593V7.22531C1.32941 7.22937 1.34952 7.2314 1.37044 7.2314H18.6294C18.6505 7.2314 18.6706 7.22917 18.6905 7.22531V17.593C18.69 17.9431 18.5507 18.2786 18.3032 18.5262C18.0556 18.7737 17.72 18.9129 17.37 18.9133Z" fill="black"/>
</svg>
