<svg width="20" height="21" viewBox="0 0 20 21" fill="none" xmlns="http://www.w3.org/2000/svg">
<path d="M13.6077 15.1943C13.5333 15.1943 13.459 15.166 13.4024 15.1092L6.1163 7.82177C6.0029 7.70837 6.0029 7.52462 6.1163 7.41122C6.2297 7.29782 6.41345 7.29782 6.52665 7.41122L13.8125 14.6989C13.9259 14.8123 13.9259 14.996 13.8125 15.1094C13.7561 15.1658 13.6818 15.1943 13.6077 15.1943Z" fill="#CC0000"/>
<path d="M6.32158 15.1943C6.24724 15.1943 6.1731 15.166 6.1163 15.1094C6.0029 14.996 6.0029 14.8123 6.1163 14.6989L13.404 7.41122C13.5174 7.29782 13.7009 7.29782 13.8143 7.41122C13.9277 7.52462 13.9277 7.70837 13.8143 7.82177L6.52665 15.1094C6.47005 15.1658 6.39591 15.1943 6.32158 15.1943Z" fill="#CC0000"/>
<path d="M9.96642 20.8304C4.47082 20.8304 0 16.3605 0 10.8663C0 5.37092 4.47082 0.899902 9.96642 0.899902C15.4602 0.899902 19.9296 5.37092 19.9296 10.8663C19.9296 16.3603 15.4602 20.8304 9.96642 20.8304ZM9.96642 1.48025C4.79089 1.48025 0.580551 5.69079 0.580551 10.8661C0.580551 16.0403 4.79109 20.2496 9.96642 20.2496C15.1402 20.2496 19.3491 16.0401 19.3491 10.8661C19.3493 5.69079 15.1402 1.48025 9.96642 1.48025Z" fill="#CC0000"/>
</svg>
