<svg width="22" height="18" viewBox="0 0 22 18" fill="none" xmlns="http://www.w3.org/2000/svg">
<path d="M21.352 4.218C21.2353 4.07153 21.087 3.95335 20.9181 3.8723C20.7493 3.79126 20.5643 3.74945 20.377 3.75H6.215L5.896 2.156C5.81583 1.75996 5.60138 1.40375 5.2889 1.14757C4.97642 0.891386 4.58507 0.750952 4.181 0.75H1C0.801088 0.75 0.610322 0.829018 0.46967 0.96967C0.329018 1.11032 0.25 1.30109 0.25 1.5C0.25 1.69891 0.329018 1.88968 0.46967 2.03033C0.610322 2.17098 0.801088 2.25 1 2.25H4.18C4.23775 2.24995 4.29376 2.26981 4.33857 2.30624C4.38339 2.34268 4.41427 2.39345 4.426 2.45L7.104 15.844C7.18417 16.24 7.39862 16.5963 7.7111 16.8524C8.02358 17.1086 8.41493 17.249 8.819 17.25H18C18.1989 17.25 18.3897 17.171 18.5303 17.0303C18.671 16.8897 18.75 16.6989 18.75 16.5C18.75 16.3011 18.671 16.1103 18.5303 15.9697C18.3897 15.829 18.1989 15.75 18 15.75H8.82C8.76225 15.7501 8.70624 15.7302 8.66143 15.6938C8.61661 15.6573 8.58574 15.6065 8.574 15.55L8.314 14.25H17.797C18.3095 14.2523 18.8072 14.0785 19.207 13.7578C19.6067 13.4371 19.8842 12.9888 19.993 12.488L21.598 5.271C21.639 5.08829 21.6381 4.89868 21.5955 4.71635C21.5529 4.53401 21.4697 4.36365 21.352 4.218Z" fill="#CC0000"/>
</svg>
