<svg width="25" height="24" viewBox="0 0 25 24" fill="none" xmlns="http://www.w3.org/2000/svg">
<g clip-path="url(#clip0_1892_23232)">
<path d="M2.86888 9.5H5.36887C5.29294 9.49995 5.21801 9.48264 5.14976 9.44938C5.0815 9.41611 5.02171 9.36777 4.97488 9.308C4.87987 9.18702 4.84687 9.029 4.8839 8.879L5.19491 7.63602C5.2757 7.31135 5.46287 7.02308 5.72658 6.81719C5.99029 6.61129 6.31535 6.49963 6.64991 6.5H9.86891C10.6959 6.5 11.3689 7.17298 11.3689 8V8.99998C11.3689 9.27598 11.1449 9.5 10.8689 9.5H13.8689C13.5929 9.5 13.3689 9.27598 13.3689 8.99998V8C13.3689 7.17298 14.0419 6.5 14.8689 6.5H18.0879C18.4224 6.49963 18.7475 6.61129 19.0112 6.81719C19.2749 7.02308 19.4621 7.31135 19.5429 7.63602L19.8539 8.879C19.8725 8.9527 19.874 9.0297 19.8583 9.10407C19.8425 9.17845 19.8099 9.24821 19.7629 9.308C19.7161 9.36777 19.6563 9.41611 19.588 9.44937C19.5198 9.48263 19.4449 9.49995 19.3689 9.5H21.8689C22.1449 9.5 22.3689 9.27598 22.3689 8.99998V5.99998C22.3689 4.622 21.2469 3.5 19.8689 3.5H4.8689C3.49091 3.5 2.36891 4.622 2.36891 5.99998V8.99998C2.36891 9.27598 2.59288 9.5 2.86888 9.5ZM21.8689 10.5H2.86888C1.4909 10.5 0.368896 11.622 0.368896 13V20C0.368896 20.276 0.592912 20.5 0.868912 20.5C1.14491 20.5 1.36893 20.276 1.36893 20V18.5H23.3689V20C23.3689 20.276 23.5929 20.5 23.8689 20.5C24.1449 20.5 24.3689 20.276 24.3689 20V13C24.3689 11.622 23.2469 10.5 21.8689 10.5ZM23.3689 17.5H1.36888V16.5H23.3689V17.5H23.3689Z" fill="white"/>
</g>
<defs>
<clipPath id="clip0_1892_23232">
<rect width="24" height="24" fill="white" transform="translate(0.368896)"/>
</clipPath>
</defs>
</svg>
