<svg width="20" height="18" viewBox="0 0 20 18" fill="none" xmlns="http://www.w3.org/2000/svg">
<path d="M18.4375 4.1499H15.3125V3.5249C15.3125 3.44202 15.2796 3.36254 15.221 3.30393C15.1624 3.24533 15.0829 3.2124 15 3.2124H14.6875V2.8999C14.6868 2.31994 14.4562 1.76393 14.0461 1.35384C13.636 0.943745 13.08 0.713064 12.5 0.712402H7.5C6.92004 0.713064 6.36403 0.943745 5.95393 1.35384C5.54384 1.76393 5.31316 2.31994 5.3125 2.8999V3.2124H5C4.91712 3.2124 4.83763 3.24533 4.77903 3.30393C4.72042 3.36254 4.6875 3.44202 4.6875 3.5249V4.1499H1.5625C1.31409 4.15064 1.07606 4.24965 0.900407 4.42531C0.724752 4.60096 0.625742 4.83899 0.625 5.0874V16.3374C0.625742 16.5858 0.724752 16.8238 0.900407 16.9995C1.07606 17.1751 1.31409 17.2742 1.5625 17.2749H18.4375C18.6859 17.2742 18.9239 17.1751 19.0996 16.9995C19.2752 16.8238 19.3743 16.5858 19.375 16.3374V5.0874C19.3743 4.83899 19.2752 4.60096 19.0996 4.42531C18.9239 4.24965 18.6859 4.15064 18.4375 4.1499ZM7.5 3.2124H7.1875V2.5874H12.8125V3.2124H12.5C12.4171 3.2124 12.3376 3.24533 12.279 3.30393C12.2204 3.36254 12.1875 3.44202 12.1875 3.5249V4.1499H7.8125V3.5249C7.8125 3.44202 7.77958 3.36254 7.72097 3.30393C7.66237 3.24533 7.58288 3.2124 7.5 3.2124ZM12.8125 3.8374H14.6875V4.1499H12.8125V3.8374ZM5.9375 2.8999C5.9375 2.4855 6.10212 2.08807 6.39515 1.79505C6.68817 1.50202 7.0856 1.3374 7.5 1.3374H12.5C12.9144 1.3374 13.3118 1.50202 13.6049 1.79505C13.8979 2.08807 14.0625 2.4855 14.0625 2.8999V3.2124H13.4375V2.5874C13.437 2.42179 13.371 2.26311 13.2539 2.14601C13.1368 2.0289 12.9781 1.9629 12.8125 1.9624H7.1875C7.02189 1.9629 6.86321 2.0289 6.7461 2.14601C6.629 2.26311 6.56299 2.42179 6.5625 2.5874V3.2124H5.9375V2.8999ZM5.3125 3.8374H7.1875V4.1499H5.3125V3.8374ZM6.25 8.2124H7.8125C7.89538 8.2124 7.97487 8.24533 8.03347 8.30393C8.09208 8.36254 8.125 8.44202 8.125 8.5249V9.7749C8.125 9.85778 8.09208 9.93727 8.03347 9.99587C7.97487 10.0545 7.89538 10.0874 7.8125 10.0874H6.25V8.2124ZM1.25 5.0874C1.25 5.00452 1.28292 4.92504 1.34153 4.86643C1.40013 4.80783 1.47962 4.7749 1.5625 4.7749H2.46875C2.40713 5.07501 2.25882 5.35045 2.04218 5.56708C1.82555 5.78372 1.55011 5.93203 1.25 5.99365V5.0874ZM1.5625 16.6499C1.47962 16.6499 1.40013 16.617 1.34153 16.5584C1.28292 16.4998 1.25 16.4203 1.25 16.3374V15.4312C1.55011 15.4928 1.82555 15.6411 2.04218 15.8577C2.25882 16.0744 2.40713 16.3498 2.46875 16.6499H1.5625ZM3.75 10.0874H3.4375C3.35462 10.0874 3.27513 10.0545 3.21653 9.99587C3.15792 9.93727 3.125 9.85778 3.125 9.7749V8.5249C3.125 8.44202 3.15792 8.36254 3.21653 8.30393C3.27513 8.24533 3.35462 8.2124 3.4375 8.2124H3.75V10.0874ZM3.75 7.5874H3.4375C3.18909 7.58814 2.95106 7.68715 2.77541 7.86281C2.59975 8.03846 2.50074 8.27649 2.5 8.5249V9.7749C2.50074 10.0233 2.59975 10.2613 2.77541 10.437C2.95106 10.6126 3.18909 10.7117 3.4375 10.7124H3.75V16.6499H3.1C3.03217 16.1834 2.81542 15.7512 2.48206 15.4178C2.14869 15.0845 1.71654 14.8677 1.25 14.7999V6.6249C1.71654 6.55707 2.14869 6.34033 2.48206 6.00696C2.81542 5.67359 3.03217 5.24145 3.1 4.7749H3.75V7.5874ZM5.625 16.6499H4.375V4.7749H5.625V16.6499ZM13.75 16.6499H6.25V10.7124H7.8125C8.06091 10.7117 8.29894 10.6126 8.47459 10.437C8.65025 10.2613 8.74926 10.0233 8.75 9.7749V8.5249C8.74926 8.27649 8.65025 8.03846 8.47459 7.86281C8.29894 7.68715 8.06091 7.58814 7.8125 7.5874H6.25V4.7749H13.75V16.6499ZM15.625 16.6499H14.375V4.7749H15.625V16.6499ZM18.75 16.3374C18.75 16.4203 18.7171 16.4998 18.6585 16.5584C18.5999 16.617 18.5204 16.6499 18.4375 16.6499H17.5312C17.5929 16.3498 17.7412 16.0744 17.9578 15.8577C18.1745 15.6411 18.4499 15.4928 18.75 15.4312V16.3374ZM18.75 14.7999C18.2835 14.8677 17.8513 15.0845 17.5179 15.4178C17.1846 15.7512 16.9678 16.1834 16.9 16.6499H16.25V4.7749H16.9C16.9678 5.24145 17.1846 5.67359 17.5179 6.00696C17.8513 6.34033 18.2835 6.55707 18.75 6.6249V14.7999ZM18.75 5.99365C18.4499 5.93203 18.1745 5.78372 17.9578 5.56708C17.7412 5.35045 17.5929 5.07501 17.5312 4.7749H18.4375C18.5204 4.7749 18.5999 4.80783 18.6585 4.86643C18.7171 4.92504 18.75 5.00452 18.75 5.0874V5.99365Z" fill="#CC0000"/>
<path d="M12.6812 11.8624C12.5454 11.7779 12.3901 11.7297 12.2303 11.7226C12.0705 11.7155 11.9115 11.7496 11.7687 11.8218L10.0406 12.6874C9.88477 12.7649 9.75364 12.8844 9.66197 13.0323C9.5703 13.1803 9.52173 13.3509 9.52173 13.5249C9.52173 13.699 9.5703 13.8696 9.66197 14.0175C9.75364 14.1655 9.88477 14.2849 10.0406 14.3624L11.7687 15.2281C11.9118 15.2995 12.0708 15.3331 12.2305 15.3258C12.3903 15.3184 12.5455 15.2704 12.6814 15.1861C12.8173 15.1019 12.9294 14.9843 13.0071 14.8445C13.0847 14.7047 13.1253 14.5473 13.125 14.3874V12.6624C13.1258 12.5022 13.0854 12.3445 13.0077 12.2044C12.93 12.0643 12.8176 11.9465 12.6812 11.8624ZM12.5 14.3874C12.5012 14.4407 12.4882 14.4934 12.4624 14.54C12.4366 14.5867 12.3989 14.6257 12.3531 14.6531C12.3076 14.6815 12.2556 14.6979 12.202 14.7006C12.1484 14.7034 12.095 14.6924 12.0469 14.6687L10.3219 13.8031C10.2697 13.7779 10.2256 13.7385 10.1947 13.6895C10.1637 13.6405 10.1472 13.5838 10.1468 13.5259C10.1465 13.468 10.1624 13.4111 10.1928 13.3617C10.2232 13.3124 10.2669 13.2726 10.3187 13.2468L12.0469 12.3812C12.0904 12.3588 12.1386 12.347 12.1875 12.3468C12.2462 12.3482 12.3035 12.3654 12.3531 12.3968C12.3989 12.4242 12.4366 12.4632 12.4624 12.5098C12.4882 12.5565 12.5012 12.6091 12.5 12.6624V14.3874Z" fill="#CC0000"/>
<path d="M12.8125 6.3374H10.9375C10.8546 6.3374 10.7751 6.37033 10.7165 6.42893C10.6579 6.48754 10.625 6.56702 10.625 6.6499V8.5249C10.625 8.60778 10.6579 8.68727 10.7165 8.74587C10.7751 8.80448 10.8546 8.8374 10.9375 8.8374H12.8125C12.8954 8.8374 12.9749 8.80448 13.0335 8.74587C13.0921 8.68727 13.125 8.60778 13.125 8.5249V6.6499C13.125 6.56702 13.0921 6.48754 13.0335 6.42893C12.9749 6.37033 12.8954 6.3374 12.8125 6.3374ZM12.5 8.2124H11.25V6.9624H12.5V8.2124Z" fill="#CC0000"/>
</svg>
