<svg width="24" height="22" viewBox="0 0 24 22" fill="none" xmlns="http://www.w3.org/2000/svg">
<path d="M6.99495 14.4098C7.52125 14.4098 7.94791 13.9832 7.94791 13.4569C7.94791 12.9306 7.52125 12.5039 6.99495 12.5039C6.46865 12.5039 6.04199 12.9306 6.04199 13.4569C6.04199 13.9832 6.46865 14.4098 6.99495 14.4098Z" fill="#CC0000"/>
<path d="M17.0047 14.4098C17.531 14.4098 17.9577 13.9832 17.9577 13.4569C17.9577 12.9306 17.531 12.5039 17.0047 12.5039C16.4784 12.5039 16.0518 12.9306 16.0518 13.4569C16.0518 13.9832 16.4784 14.4098 17.0047 14.4098Z" fill="#CC0000"/>
<path d="M24 13.0534C24 11.673 22.9994 10.5227 21.6856 10.2877V9.87114C21.6856 4.53047 17.3406 0.185547 12 0.185547C6.65936 0.185547 2.31443 4.53047 2.31443 9.87114V10.2877C1.00058 10.5228 0 11.6731 0 13.0534C0 14.4457 1.01782 15.6041 2.34835 15.8252C2.53562 17.9592 3.51196 19.5355 5.25919 20.5164C6.81302 21.3887 9.01788 21.8128 12 21.8128C14.9821 21.8128 17.187 21.3887 18.7409 20.5164C20.488 19.5355 21.4644 17.9593 21.6516 15.8252C22.9822 15.6041 24 14.4457 24 13.0534ZM0.992148 13.0534C0.992148 12.2228 1.55222 11.521 2.31437 11.3044V14.8024C1.55222 14.5859 0.992148 13.8841 0.992148 13.0534ZM20.6934 15.0445C20.6934 17.2232 19.8959 18.7301 18.2552 19.6512C16.8536 20.4381 14.8075 20.8206 12 20.8206C9.19256 20.8206 7.14644 20.4381 5.74491 19.6512C4.10414 18.7301 3.30658 17.2232 3.30658 15.0445V9.87114C3.30658 5.9454 5.92244 2.61972 9.50242 1.54392C12.2298 1.5784 13.6823 3.54719 13.6823 4.97278C13.6823 6.06464 12.794 6.95299 11.7021 6.95299C10.8833 6.95299 10.2171 6.28682 10.2171 5.46805C10.2171 4.86774 10.7055 4.37929 11.3059 4.37929C11.4375 4.37929 11.5636 4.32703 11.6567 4.234C11.7497 4.14097 11.802 4.01479 11.802 3.88322C11.802 3.75165 11.7497 3.62548 11.6567 3.53244C11.5636 3.43941 11.4375 3.38715 11.3059 3.38715C10.1585 3.38715 9.22499 4.32063 9.22499 5.46805C9.22499 6.83393 10.3362 7.94514 11.7021 7.94514C13.341 7.94514 14.6744 6.61175 14.6744 4.97278C14.6744 3.94312 14.1571 2.83533 13.2906 2.00936C12.9439 1.67898 12.5496 1.40124 12.1192 1.17925C16.858 1.24336 20.6934 5.11745 20.6934 9.87114V15.0445ZM21.6856 14.8024V11.3045C22.4478 11.521 23.0079 12.2228 23.0079 13.0535C23.0079 13.8841 22.4477 14.5859 21.6856 14.8024Z" fill="#CC0000"/>
<path d="M13.9183 14.825C12.8605 15.883 11.1391 15.883 10.0812 14.825C9.98821 14.732 9.86203 14.6797 9.73046 14.6797C9.59889 14.6797 9.47271 14.732 9.37968 14.825C9.28664 14.918 9.23438 15.0442 9.23438 15.1758C9.23437 15.3074 9.28664 15.4335 9.37968 15.5266C10.102 16.2489 11.0509 16.6101 11.9998 16.6101C12.9487 16.6101 13.8975 16.2489 14.62 15.5266C14.713 15.4335 14.7653 15.3074 14.7652 15.1758C14.7652 15.0442 14.713 14.918 14.6199 14.825C14.5269 14.7319 14.4007 14.6797 14.2691 14.6797C14.1375 14.6797 14.0114 14.732 13.9183 14.825Z" fill="#CC0000"/>
</svg>
