<svg width="15" height="24" viewBox="0 0 15 24" fill="none" xmlns="http://www.w3.org/2000/svg">
<path d="M12.5716 5.12524H13.2106L13.2106 4.26879H12.5716C12.0094 4.27811 12.0138 5.11725 12.5716 5.12524ZM9.37213 4.26879C8.80412 4.27944 8.80944 5.11548 9.37213 5.12524H11.0983C11.6566 5.11681 11.6601 4.27811 11.0983 4.26879H9.37213ZM6.1682 4.26879C5.60552 4.27811 5.61084 5.11681 6.1682 5.12524H7.89885C8.4571 5.11681 8.46065 4.27811 7.89885 4.26879H6.1682ZM2.96871 4.26879C2.40603 4.27811 2.41135 5.11681 2.96871 5.12524H4.69493C5.2585 5.11548 5.26205 4.27944 4.69493 4.26879H2.96871ZM0.85643 4.26879V5.12524H1.49544C1.73063 5.12524 1.92145 4.93442 1.92145 4.69479C1.92145 4.4596 1.73063 4.26879 1.49544 4.26879H0.85643ZM9.31 18.8595L9.9712 17.1244L11.7063 16.4632C12.0391 16.3461 12.1496 15.8748 11.8838 15.6334L11.5199 15.2695L9.58513 15.163L7.94767 13.3702L11.4533 11.4355C11.8057 11.2562 11.8776 10.7299 11.5909 10.4592C11.3548 10.2236 11.0828 9.8659 10.699 9.97107L5.77326 11.0405L4.77037 10.0421C2.90171 8.26571 1.11203 10.0452 2.8844 11.928L3.88729 12.9265L2.8134 17.8566C2.7069 18.2316 3.07211 18.5152 3.30597 18.7486C3.58287 19.0384 4.09719 18.9607 4.28223 18.6066L6.21701 15.1009L8.00979 16.7428L8.11186 18.6731L8.48018 19.0415C8.72291 19.2975 9.19374 19.1928 9.31 18.8595ZM8.84406 16.3479L6.57202 14.2666C6.29245 14.0008 5.79323 14.0807 5.6135 14.4264L3.68316 17.9188C3.67074 17.9125 4.7504 12.9922 4.75262 12.9842C4.79699 12.7756 4.73487 12.5626 4.58399 12.4162L3.49235 11.3201C3.28822 11.1643 2.69669 10.161 3.21278 10.1619C3.57666 10.2196 3.90948 10.3838 4.16686 10.6456L5.26294 11.7372C5.40938 11.8881 5.62238 11.9502 5.82651 11.9058C5.83095 11.9147 10.7673 10.8107 10.7611 10.8408L7.26872 12.7712C7.17126 12.8234 7.09021 12.9017 7.03459 12.9973C6.97897 13.0929 6.95095 13.202 6.95365 13.3126C6.95365 13.4634 7.0069 13.6099 7.1134 13.7253L9.19019 16.0017L10.3573 16.0639C9.98274 16.24 9.33663 16.3292 9.20794 16.7206L8.90618 17.5105L8.84406 16.3479Z" fill="#0B0B0B"/>
<path d="M14.0671 22.383C14.0689 19.2652 14.0658 4.05409 14.0671 1.28238C14.0671 0.576805 13.4902 -7.82013e-05 12.7846 -7.82013e-05H1.28246C0.576885 -7.82013e-05 0 0.576805 0 1.28238L0 22.383C-2.02459e-06 22.7236 0.134972 23.0502 0.375353 23.2914C0.615733 23.5326 0.941922 23.6687 1.28246 23.6699H12.7846C13.1252 23.6687 13.4514 23.5326 13.6917 23.2914C13.9321 23.0502 14.0671 22.7236 14.0671 22.383ZM1.28246 22.8135C1.04727 22.8135 0.856451 22.6227 0.856451 22.383C0.863995 16.7522 0.850682 6.71707 0.856451 1.28238C0.856451 1.04719 1.04727 0.856373 1.28246 0.856373H12.7846C13.0198 0.856373 13.2106 1.04719 13.2106 1.28238V4.26886C13.2133 8.67892 13.2089 18.0426 13.2106 22.383C13.2106 22.6227 13.0198 22.8135 12.7846 22.8135H1.28246Z" fill="#0B0B0B"/>
</svg>
