<svg width="23" height="23" viewBox="0 0 23 23" fill="none" xmlns="http://www.w3.org/2000/svg">
<path d="M7.26554 22.1066L16.0713 13.2999L19.9764 13.2999C20.5929 13.2999 21.2141 13.1631 21.7936 12.8933L22.1736 12.6929C22.6837 12.4563 23 11.9614 23 11.4C23 10.8386 22.6837 10.3437 22.1954 10.1176L21.7727 9.89628C21.2142 9.63695 20.5939 9.50016 19.9764 9.50016L16.0713 9.50016L7.26741 0.696317C6.81906 0.24797 6.22346 0.000975829 5.5889 0.000975801L4.47558 0.000975753C4.30174 0.000975745 4.14216 0.0959529 4.05951 0.24797C3.97593 0.399942 3.98164 0.586156 4.07661 0.732429L9.81318 9.68446C8.37596 9.7728 7.17622 9.89249 5.71616 10.0388L4.22004 10.1898L2.02287 6.86413C1.93359 6.7302 1.7854 6.6504 1.62582 6.6504L0.675913 6.6504C0.532489 6.6504 0.395702 6.71595 0.305444 6.82802C0.214252 6.94108 0.180055 7.08829 0.211403 7.22792L1.13949 11.4L0.211402 15.572C0.203788 15.6062 0.2 15.6404 0.2 15.6746C0.2 15.782 0.236114 15.8864 0.304508 15.9719C0.3957 16.084 0.532489 16.1495 0.675912 16.1495L1.62582 16.1495C1.7854 16.1495 1.93453 16.0697 2.02193 15.9358L4.21625 12.6101L5.71714 12.7612C7.17528 12.9075 8.37405 13.0271 9.81131 13.1155L4.07666 22.0675C3.98168 22.2148 3.97691 22.4 4.05956 22.551C4.1422 22.704 4.30179 22.799 4.47562 22.799L5.58894 22.799C6.22346 22.7991 6.81906 22.553 7.26554 22.1066Z" fill="#CC0000"/>
</svg>
