<svg width="12" height="6" viewBox="0 0 12 6" fill="none" xmlns="http://www.w3.org/2000/svg">
<path d="M10.3091 0.145857C10.3556 0.0994016 10.4107 0.0625516 10.4714 0.0374104C10.5321 0.0122691 10.5972 -0.000671739 10.6629 -0.000671738C10.7286 -0.000671738 10.7936 0.0122691 10.8543 0.0374104C10.915 0.0625516 10.9702 0.0994016 11.0166 0.145857C11.0631 0.192311 11.0999 0.247462 11.1251 0.308159C11.1502 0.368855 11.1632 0.433909 11.1632 0.499607C11.1632 0.565304 11.1502 0.630358 11.1251 0.691055C11.0999 0.751752 11.0631 0.806902 11.0166 0.853357L6.01663 5.85336C5.97019 5.89985 5.91504 5.93672 5.85435 5.96189C5.79365 5.98705 5.72858 6 5.66288 6C5.59717 6 5.5321 5.98705 5.47141 5.96189C5.41071 5.93672 5.35556 5.89985 5.30913 5.85336L0.309126 0.853357C0.215305 0.759537 0.162598 0.632288 0.162598 0.499607C0.162598 0.366925 0.215305 0.239676 0.309126 0.145856C0.402946 0.0520363 0.530194 -0.000671859 0.662876 -0.000671858C0.795558 -0.000671856 0.922805 0.0520363 1.01663 0.145856L5.66288 4.79273L10.3091 0.145857Z" fill="#0B0B0B"/>
</svg>
