<svg width="24" height="20" viewBox="0 0 24 20" fill="none" xmlns="http://www.w3.org/2000/svg">
<path d="M21.5 20H2.5C1.8372 19.9992 1.20178 19.7356 0.73311 19.2669C0.264441 18.7982 0.000793929 18.1628 0 17.5L0 15.5C0 15.3674 0.0526784 15.2402 0.146447 15.1464C0.240215 15.0527 0.367392 15 0.5 15H1C2.103 15 3 14.103 3 13C3 11.897 2.103 11 1 11H0.5C0.367392 11 0.240215 10.9473 0.146447 10.8536C0.0526784 10.7598 0 10.6326 0 10.5V8.5C0 7.122 1.122 6 2.5 6H21.5C22.878 6 24 7.122 24 8.5V10.5C24 10.6326 23.9473 10.7598 23.8536 10.8536C23.7598 10.9473 23.6326 11 23.5 11H23C22.6049 11.001 22.219 11.1189 21.8908 11.3389C21.5626 11.5588 21.3068 11.8709 21.1556 12.2359C21.0044 12.6009 20.9646 13.0025 21.0412 13.3901C21.1178 13.7777 21.3074 14.1339 21.586 14.414C21.963 14.792 22.465 15 22.999 15H23.499C23.6316 15 23.7588 15.0527 23.8526 15.1464C23.9463 15.2402 23.999 15.3674 23.999 15.5V17.5C23.9985 18.1627 23.735 18.7981 23.2665 19.2668C22.798 19.7355 22.1627 19.9992 21.5 20ZM1 16V17.5C1 18.327 1.673 19 2.5 19H21.5C22.327 19 23 18.327 23 17.5V16C22.6061 16.0011 22.215 15.924 21.8511 15.7733C21.4872 15.6226 21.1568 15.4012 20.879 15.122C20.5995 14.844 20.3779 14.5133 20.227 14.149C20.0761 13.7848 19.999 13.3942 20 13C20 11.346 21.346 10 23 10V8.5C23 7.673 22.327 7 21.5 7H2.5C1.673 7 1 7.673 1 8.5V10C2.654 10 4 11.346 4 13C4 14.654 2.654 16 1 16Z" fill="#CC0000"/>
<path d="M8.5 8C8.36739 8 8.24021 7.94732 8.14645 7.85355C8.05268 7.75979 8 7.63261 8 7.5V6.5C8 6.36739 8.05268 6.24021 8.14645 6.14645C8.24021 6.05268 8.36739 6 8.5 6C8.63261 6 8.75979 6.05268 8.85355 6.14645C8.94732 6.24021 9 6.36739 9 6.5V7.5C9 7.63261 8.94732 7.75979 8.85355 7.85355C8.75979 7.94732 8.63261 8 8.5 8ZM8.5 16.461C8.36739 16.461 8.24021 16.4083 8.14645 16.3146C8.05268 16.2208 8 16.0936 8 15.961V14.27C8 14.1374 8.05268 14.0102 8.14645 13.9164C8.24021 13.8227 8.36739 13.77 8.5 13.77C8.63261 13.77 8.75979 13.8227 8.85355 13.9164C8.94732 14.0102 9 14.1374 9 14.27V15.962C8.99974 16.0944 8.94694 16.2214 8.8532 16.3149C8.75946 16.4085 8.63244 16.461 8.5 16.461ZM8.5 12.231C8.36739 12.231 8.24021 12.1783 8.14645 12.0846C8.05268 11.9908 8 11.8636 8 11.731V10.039C8 9.90639 8.05268 9.77922 8.14645 9.68545C8.24021 9.59168 8.36739 9.539 8.5 9.539C8.63261 9.539 8.75979 9.59168 8.85355 9.68545C8.94732 9.77922 9 9.90639 9 10.039V11.731C9 11.8636 8.94732 11.9908 8.85355 12.0846C8.75979 12.1783 8.63261 12.231 8.5 12.231ZM8.5 20C8.36739 20 8.24021 19.9473 8.14645 19.8536C8.05268 19.7598 8 19.6326 8 19.5V18.5C8 18.3674 8.05268 18.2402 8.14645 18.1464C8.24021 18.0527 8.36739 18 8.5 18C8.63261 18 8.75979 18.0527 8.85355 18.1464C8.94732 18.2402 9 18.3674 9 18.5V19.5C9 19.6326 8.94732 19.7598 8.85355 19.8536C8.75979 19.9473 8.63261 20 8.5 20Z" fill="#CC0000"/>
<path d="M2.49991 6.99934C2.38138 7.00188 2.26584 6.96207 2.17405 6.88704C2.08226 6.81202 2.02025 6.70671 1.99916 6.59005C1.97807 6.47339 1.99928 6.35303 2.059 6.25062C2.11871 6.14821 2.213 6.07045 2.32491 6.03134L18.2249 0.0943391C18.9979 -0.195661 19.9059 0.238339 20.1699 1.01734L21.9729 6.33834C22.0136 6.46343 22.0034 6.59952 21.9444 6.71712C21.8855 6.83472 21.7825 6.92434 21.658 6.96657C21.5334 7.0088 21.3972 7.00024 21.2789 6.94273C21.1605 6.88522 21.0697 6.7834 21.0259 6.65934L19.2229 1.33834C19.177 1.21193 19.0832 1.10871 18.9617 1.05105C18.8402 0.993393 18.7008 0.985951 18.5739 1.03034L2.67391 6.96734C2.61838 6.98865 2.55938 6.9995 2.49991 6.99934Z" fill="#CC0000"/>
</svg>
