<svg width="24" height="24" viewBox="0 0 24 24" fill="none" xmlns="http://www.w3.org/2000/svg">
<path d="M16.4995 13.5001L16.7066 13.5001L20.8173 13.5001C21.3885 13.5001 21.9665 13.3741 22.5081 13.1239L22.8968 12.9189L22.9081 12.9129L22.9197 12.9075C23.2804 12.7403 23.5 12.3961 23.5 12.0002C23.5 11.5994 23.2759 11.2582 22.943 11.104L22.9319 11.0989L22.9211 11.0933L22.4871 10.866C21.968 10.6269 21.3908 10.5004 20.8173 10.5004L16.7067 10.5004L16.4996 10.5004L16.3531 10.3539L7.08582 1.08671L7.43501 0.737523L7.08582 1.08671C6.70757 0.708465 6.20778 0.50122 5.67252 0.50122L4.50152 0.50122L4.50163 0.501397L10.5401 9.92459L10.9993 10.6412L10.1498 10.6934C8.64781 10.7857 7.39386 10.9108 5.85632 11.0648L4.28184 11.2238L3.98107 11.2541L3.81444 11.0019L16.4995 13.5001ZM16.4995 13.5001L16.3531 13.6465M16.4995 13.5001L16.3531 13.6465M16.3531 13.6465L7.08385 22.9167L16.3531 13.6465ZM4.5 0.498879C4.50003 0.498932 4.50007 0.498987 4.5001 0.499038L4.5 0.498879Z" fill="#CC0000" stroke="#CC0000"/>
</svg>
