<svg width="17" height="16" viewBox="0 0 17 16" fill="none" xmlns="http://www.w3.org/2000/svg">
<path d="M9.25 7.375V14.875C9.25 15.0408 9.18415 15.1997 9.06694 15.3169C8.94973 15.4342 8.79076 15.5 8.625 15.5C8.45924 15.5 8.30027 15.4342 8.18306 15.3169C8.06585 15.1997 8 15.0408 8 14.875V7.375C8 7.20924 8.06585 7.05027 8.18306 6.93306C8.30027 6.81585 8.45924 6.75 8.625 6.75C8.79076 6.75 8.94973 6.81585 9.06694 6.93306C9.18415 7.05027 9.25 7.20924 9.25 7.375ZM14.25 13C14.0842 13 13.9253 13.0658 13.8081 13.1831C13.6908 13.3003 13.625 13.4592 13.625 13.625V14.875C13.625 15.0408 13.6908 15.1997 13.8081 15.3169C13.9253 15.4342 14.0842 15.5 14.25 15.5C14.4158 15.5 14.5747 15.4342 14.6919 15.3169C14.8092 15.1997 14.875 15.0408 14.875 14.875V13.625C14.875 13.4592 14.8092 13.3003 14.6919 13.1831C14.5747 13.0658 14.4158 13 14.25 13ZM16.125 10.5H14.875V1.125C14.875 0.95924 14.8092 0.800269 14.6919 0.683058C14.5747 0.565848 14.4158 0.5 14.25 0.5C14.0842 0.5 13.9253 0.565848 13.8081 0.683058C13.6908 0.800269 13.625 0.95924 13.625 1.125V10.5H12.375C12.2092 10.5 12.0503 10.5658 11.9331 10.6831C11.8158 10.8003 11.75 10.9592 11.75 11.125C11.75 11.2908 11.8158 11.4497 11.9331 11.5669C12.0503 11.6842 12.2092 11.75 12.375 11.75H16.125C16.2908 11.75 16.4497 11.6842 16.5669 11.5669C16.6842 11.4497 16.75 11.2908 16.75 11.125C16.75 10.9592 16.6842 10.8003 16.5669 10.6831C16.4497 10.5658 16.2908 10.5 16.125 10.5ZM3 10.5C2.83424 10.5 2.67527 10.5658 2.55806 10.6831C2.44085 10.8003 2.375 10.9592 2.375 11.125V14.875C2.375 15.0408 2.44085 15.1997 2.55806 15.3169C2.67527 15.4342 2.83424 15.5 3 15.5C3.16576 15.5 3.32473 15.4342 3.44194 15.3169C3.55915 15.1997 3.625 15.0408 3.625 14.875V11.125C3.625 10.9592 3.55915 10.8003 3.44194 10.6831C3.32473 10.5658 3.16576 10.5 3 10.5ZM4.875 8H3.625V1.125C3.625 0.95924 3.55915 0.800269 3.44194 0.683058C3.32473 0.565848 3.16576 0.5 3 0.5C2.83424 0.5 2.67527 0.565848 2.55806 0.683058C2.44085 0.800269 2.375 0.95924 2.375 1.125V8H1.125C0.95924 8 0.800269 8.06585 0.683058 8.18306C0.565848 8.30027 0.5 8.45924 0.5 8.625C0.5 8.79076 0.565848 8.94973 0.683058 9.06694C0.800269 9.18415 0.95924 9.25 1.125 9.25H4.875C5.04076 9.25 5.19973 9.18415 5.31694 9.06694C5.43415 8.94973 5.5 8.79076 5.5 8.625C5.5 8.45924 5.43415 8.30027 5.31694 8.18306C5.19973 8.06585 5.04076 8 4.875 8ZM10.5 4.25H9.25V1.125C9.25 0.95924 9.18415 0.800269 9.06694 0.683058C8.94973 0.565848 8.79076 0.5 8.625 0.5C8.45924 0.5 8.30027 0.565848 8.18306 0.683058C8.06585 0.800269 8 0.95924 8 1.125V4.25H6.75C6.58424 4.25 6.42527 4.31585 6.30806 4.43306C6.19085 4.55027 6.125 4.70924 6.125 4.875C6.125 5.04076 6.19085 5.19973 6.30806 5.31694C6.42527 5.43415 6.58424 5.5 6.75 5.5H10.5C10.6658 5.5 10.8247 5.43415 10.9419 5.31694C11.0592 5.19973 11.125 5.04076 11.125 4.875C11.125 4.70924 11.0592 4.55027 10.9419 4.43306C10.8247 4.31585 10.6658 4.25 10.5 4.25Z" fill="white"/>
</svg>
