<svg width="104" height="25" viewBox="0 0 104 25" fill="none" xmlns="http://www.w3.org/2000/svg">
<path d="M75.9455 19.7991H71.9616V4.44007H75.9455V19.7991ZM66.5099 4.44007L63.9371 14.7333L60.9324 4.44007H57.0785L54.0758 14.7333L51.5031 4.44007H47.5967L51.8365 19.7991H55.963L59.0012 9.26691L62.0437 19.7991H66.1597L70.412 4.44007H66.5099ZM47.2717 15.4525C47.2717 12.5169 45.7096 11.521 42.2939 10.4076C40.6836 9.88337 39.1802 9.47868 39.1802 8.22689C39.1802 7.13026 40.2978 6.75913 41.1323 6.75913C41.8389 6.75913 43.1683 6.908 43.2752 8.53722H47.0495C46.9845 5.42766 44.4557 4.07313 41.1994 4.07313C39.1823 4.07313 37.5153 4.64555 36.4648 5.67928C35.7073 6.44656 35.2838 7.4821 35.2864 8.56028C35.2864 11.4203 37.1966 12.5652 39.3542 13.2215C41.7802 13.9616 43.3843 14.4041 43.3843 15.7376C43.3843 16.6288 42.6755 17.5178 41.2874 17.5178C39.5136 17.5178 38.8698 16.4694 38.8279 15.421H35.0117C35.0117 18.9604 37.9955 20.2562 41.2874 20.2562C45.4811 20.2562 47.2801 17.8617 47.2801 15.4462M90.0549 15.4462C90.0549 12.0598 87.5911 11.1645 84.6032 10.2734C83.1669 9.85401 81.8773 9.47239 81.8773 8.2206C81.8773 7.12397 82.9928 6.75284 83.8295 6.75284C84.5403 6.75284 85.8634 6.90171 85.9703 8.53093H89.7446C89.6796 5.42137 87.1529 4.06684 83.8924 4.06684C81.8773 4.06684 80.2041 4.63926 79.1599 5.67299C78.4032 6.44078 77.9798 7.47599 77.9815 8.55399C77.9815 11.414 79.8875 12.5589 82.0514 13.2152C84.4753 13.9554 86.0835 14.3978 86.0835 15.7313C86.0835 16.6225 85.3769 17.5115 83.9867 17.5115C82.2086 17.5115 81.5628 16.4631 81.5251 15.4147H77.7089C77.7089 18.9541 80.6906 20.25 83.9867 20.25C88.1803 20.25 90.0528 17.8554 90.0528 15.4399M103.774 15.4399C103.774 12.0536 101.298 11.1582 98.3226 10.2671C96.8821 9.84772 95.5967 9.4661 95.5967 8.21431C95.5967 7.11768 96.7059 6.74655 97.5426 6.74655C98.2471 6.74655 99.5786 6.89542 99.6855 8.52464H103.46C103.395 5.41508 100.853 4.06055 97.6034 4.06055C95.6135 4.08361 93.9361 4.65604 92.8877 5.68976C92.1325 6.4584 91.71 7.49324 91.7114 8.57077C91.7114 11.4308 93.6173 12.5757 95.7791 13.232C98.2051 13.9721 99.8092 14.4146 99.8092 15.7481C99.8092 16.6393 99.1047 17.5283 97.7124 17.5283C95.9343 17.5283 95.2906 16.4799 95.2487 15.4315H91.4199C91.4199 18.9709 94.3974 20.2751 97.7103 20.2751C101.919 20.2751 103.791 17.8806 103.791 15.4651" fill="white"/>
<path fill-rule="evenodd" clip-rule="evenodd" d="M0.208984 24.1426H26.4735L32.3865 0.142578H19.4597L0.208984 24.1426ZM22.4539 4.76758V9.9341H27.6225V14.3625H22.4539H22.4518V19.5312H18.0212V14.3625H12.8589V9.9341H18.0254V4.76758H22.4539Z" fill="white"/>
</svg>
