<svg width="124" height="51" viewBox="0 0 124 51" fill="none" xmlns="http://www.w3.org/2000/svg">
<path d="M83.6814 42.5659L85.5981 38.784H87.6949L84.6461 44.3926V47.9688H82.7166V44.4569L79.6678 38.784H81.7775L83.6814 42.5659ZM95.1691 47.9688H89.882V38.784H95.1691V40.3791H91.8245V42.3987H94.9375V43.9938H91.8245V46.3608H95.1691V47.9688ZM103.731 47.9688L103.062 45.7819H99.7173L99.0484 47.9688H96.9516L100.193 38.7454H102.573L105.828 47.9688H103.731ZM101.93 42.0128C101.887 41.867 101.831 41.6826 101.763 41.4597C101.694 41.2367 101.625 41.0094 101.557 40.7779C101.488 40.5463 101.433 40.3448 101.39 40.1733C101.347 40.3448 101.287 40.5592 101.21 40.8165C101.141 41.0652 101.072 41.3053 101.004 41.5368C100.944 41.7598 100.897 41.9185 100.862 42.0128L100.206 44.1482H102.599L101.93 42.0128ZM110.696 38.784C111.528 38.784 112.214 38.8869 112.754 39.0927C113.294 39.29 113.697 39.5944 113.963 40.006C114.229 40.4091 114.362 40.9194 114.362 41.5368C114.362 41.9571 114.28 42.3258 114.117 42.6431C113.963 42.9519 113.753 43.2177 113.487 43.4407C113.23 43.6551 112.951 43.8309 112.651 43.9681L115.352 47.9688H113.191L111.004 44.4441H109.962V47.9688H108.02V38.784H110.696ZM110.554 40.3791H109.962V42.8618H110.593C111.022 42.8618 111.369 42.8146 111.635 42.7203C111.901 42.626 112.094 42.4845 112.214 42.2958C112.334 42.0986 112.394 41.8627 112.394 41.5883C112.394 41.2967 112.325 41.0652 112.188 40.8936C112.059 40.7136 111.858 40.5849 111.583 40.5077C111.317 40.422 110.974 40.3791 110.554 40.3791ZM122.957 45.4217C122.957 45.962 122.824 46.4337 122.558 46.8367C122.292 47.2398 121.906 47.5528 121.4 47.7758C120.903 47.9902 120.294 48.0974 119.574 48.0974C119.256 48.0974 118.943 48.0759 118.635 48.0331C118.335 47.9902 118.043 47.9302 117.76 47.853C117.486 47.7672 117.224 47.6643 116.975 47.5442V45.7304C117.413 45.9191 117.863 46.0949 118.326 46.2579C118.798 46.4122 119.265 46.4894 119.728 46.4894C120.045 46.4894 120.298 46.4465 120.487 46.3608C120.684 46.275 120.826 46.1592 120.912 46.0134C121.006 45.8677 121.053 45.7004 121.053 45.5118C121.053 45.2802 120.972 45.083 120.809 44.92C120.654 44.7571 120.444 44.607 120.178 44.4698C119.912 44.324 119.608 44.1696 119.265 44.0067C119.051 43.9038 118.819 43.7837 118.57 43.6465C118.322 43.5007 118.082 43.3249 117.85 43.1191C117.627 42.9047 117.443 42.6474 117.297 42.3473C117.151 42.0471 117.078 41.6869 117.078 41.2667C117.078 40.7178 117.203 40.2505 117.451 39.8645C117.708 39.47 118.069 39.1699 118.532 38.9641C119.003 38.7583 119.557 38.6553 120.191 38.6553C120.671 38.6553 121.126 38.7111 121.555 38.8226C121.992 38.9341 122.447 39.0927 122.918 39.2985L122.288 40.8165C121.868 40.6449 121.49 40.512 121.156 40.4177C120.822 40.3233 120.478 40.2762 120.127 40.2762C119.887 40.2762 119.681 40.3148 119.509 40.392C119.338 40.4691 119.205 40.5763 119.111 40.7136C119.025 40.8508 118.982 41.0137 118.982 41.2024C118.982 41.4168 119.046 41.6012 119.175 41.7555C119.304 41.9013 119.497 42.0428 119.754 42.18C120.011 42.3172 120.333 42.4802 120.719 42.6689C121.19 42.8918 121.589 43.1234 121.915 43.3635C122.249 43.6036 122.507 43.8866 122.687 44.2125C122.867 44.5384 122.957 44.9415 122.957 45.4217Z" fill="white"/>
<path d="M24.8154 12.4727C17.5608 12.472 12.2167 17.5334 10.4399 20.3869L19.9697 24.7477C20.9926 23.2941 23.717 20.6776 26.4305 21.8404C29.144 23.0031 28.6379 25.6629 28.0457 26.8475L12.8628 40.8998V47.8452H41.4519V38.477H30.4685C31.9222 37.4002 35.5403 34.2775 38.383 30.401C41.9365 25.5553 40.8058 20.3869 39.1906 17.6408C37.5754 14.8948 33.0242 12.4734 24.8154 12.4727Z" fill="white"/>
<path d="M72.1715 21.9507V13.0547H49.0039L46.6871 35.0174C51.0735 34.2142 60.1614 33.0898 61.4217 35.0174C62.9971 37.4268 61.4217 38.9095 58.1783 39.6509C55.5836 40.244 50.4867 37.921 48.2625 36.6854C47.7065 38.1064 46.0941 41.912 44.0924 45.7671C52.0621 49.3813 55.3055 48.9179 59.8464 48.9179C64.3872 48.9179 70.6888 45.8598 72.1715 44.0991C75.4127 40.2503 74.7663 36.8708 74.6736 35.0174C74.5809 33.164 73.6402 29.4847 70.6888 27.4184C68.5841 25.9449 61.6071 24.7927 58.1783 24.6383L58.9196 21.9507H72.1715Z" fill="white"/>
<path d="M0.115157 47.2826C0.366509 42.0882 9.71496 35.1346 14.3578 32.3072C16.7389 30.7373 20.2386 28.5395 15.1884 32.3072C8.87569 37.0168 8.4932 38.904 4.19946 43.6167C0.76447 47.3868 17.0807 43.4421 25.6682 40.9985L81.5915 20.5781V21.4154L37.5021 39.4282C24.9351 44.2106 -0.136195 52.4769 0.115157 47.2826Z" fill="#D9D9D9"/>
<path d="M96.8319 12.2572C97.6995 11.6624 98.3452 10.8116 98.6745 9.82956C98.7598 9.5815 98.7825 9.31666 98.7409 9.05706C98.6993 8.79747 98.5945 8.55062 98.4353 8.33705C98.2785 8.12208 98.0715 7.94595 97.8315 7.82329C97.5916 7.70063 97.3255 7.63497 97.0554 7.63176C95.988 7.61184 94.9455 7.92387 94.0806 8.52219L91.3845 10.3793L90.0454 9.85354C90.1915 9.70044 90.2783 9.50266 90.2912 9.29343C90.3042 9.0842 90.2425 8.87628 90.1165 8.70459C89.9707 8.50737 89.7509 8.37346 89.5052 8.33222C89.2596 8.29098 89.0081 8.34577 88.8059 8.48458L87.9907 9.04615L86.4038 8.42287L86.5372 8.33099C86.7389 8.19163 86.8746 7.97977 86.9145 7.74185C86.9544 7.50394 86.8954 7.25938 86.7502 7.0618C86.4584 6.66421 85.8479 6.5613 85.4401 6.84185L84.3286 7.60749L81.0442 6.3175C80.9174 6.26751 80.78 6.2492 80.6447 6.26425C80.5093 6.2793 80.3804 6.32723 80.2699 6.40362L79.473 6.95255C79.2638 7.09669 79.1403 7.32312 79.135 7.57354C79.1297 7.82395 79.2431 8.05744 79.4462 8.21451L86.7245 13.8365L81.9561 17.4477L77.8094 16.9693L77.0691 17.4789C76.9911 17.5325 76.9285 17.6044 76.8868 17.688C76.8452 17.7715 76.8258 17.8641 76.8306 17.9572C76.8353 18.0503 76.864 18.1411 76.9141 18.2211C76.9641 18.3012 77.0338 18.368 77.117 18.4155L80.767 20.5088L81.6208 24.5289C81.6441 24.6402 81.7018 24.7423 81.7862 24.8215C81.8706 24.9007 81.9776 24.9532 82.093 24.9721C82.2418 24.9971 82.3951 24.9645 82.5212 24.878L83.2606 24.3687L84.1479 20.4223L89.2354 17.2443L92.35 25.7294C92.4367 25.9663 92.6279 26.1462 92.8744 26.2232C92.9948 26.2611 93.1224 26.2712 93.2469 26.2528C93.3715 26.2344 93.4896 26.188 93.5918 26.1172L94.3891 25.5683C94.4999 25.4924 94.5889 25.3903 94.6478 25.2716C94.7067 25.1529 94.7337 25.0214 94.7262 24.8892L94.5391 21.4695L95.652 20.7033C95.8554 20.5632 95.9897 20.3539 96.03 20.1139C96.0703 19.8739 96.0117 19.6322 95.8652 19.4333C95.7194 19.2361 95.4996 19.1022 95.254 19.0609C95.0083 19.0197 94.7568 19.0745 94.5546 19.2133L94.4208 19.3055L94.3305 17.6517L95.1462 17.0898C95.3496 16.9496 95.4839 16.7403 95.5242 16.5003C95.5645 16.2604 95.5059 16.0187 95.3597 15.8203C95.1039 15.473 94.606 15.3509 94.2133 15.5114L94.1368 14.1137L96.8328 12.2566L96.8319 12.2572Z" fill="#D9D9D9"/>
</svg>
