<svg width="206" height="48" viewBox="0 0 206 48" fill="none" xmlns="http://www.w3.org/2000/svg">
<g style="mix-blend-mode:luminosity" clip-path="url(#clip0_2443_13062)">
<path d="M138.371 41.1067H132.458V18.3094H138.371V41.1067ZM124.366 18.3094L120.547 33.5875L116.087 18.3094H110.367L105.91 33.5875L102.091 18.3094H96.2932L102.586 41.1067H108.711L113.221 25.4738L117.737 41.1067H123.846L130.158 18.3094H124.366ZM95.8108 34.655C95.8108 30.2978 93.4921 28.8195 88.4223 27.1669C86.0321 26.3888 83.8006 25.7882 83.8006 23.9301C83.8006 22.3024 85.4594 21.7516 86.6981 21.7516C87.7469 21.7516 89.7201 21.9725 89.8788 24.3908H95.4809C95.3844 19.7753 91.631 17.7648 86.7977 17.7648C83.8037 17.7648 81.3294 18.6144 79.7702 20.1488C78.6459 21.2876 78.0172 22.8247 78.0211 24.425C78.0211 28.6701 80.8564 30.3694 84.0589 31.3435C87.6598 32.4422 90.0407 33.0989 90.0407 35.0783C90.0407 36.401 88.9887 37.7206 86.9284 37.7206C84.2954 37.7206 83.34 36.1644 83.2777 34.6083H77.6134C77.6134 39.8618 82.0421 41.7852 86.9284 41.7852C93.1529 41.7852 95.8232 38.231 95.8232 34.6457M159.313 34.6457C159.313 29.6194 155.656 28.2904 151.221 26.9677C149.09 26.3453 147.175 25.7788 147.175 23.9208C147.175 22.2931 148.831 21.7422 150.073 21.7422C151.128 21.7422 153.092 21.9632 153.251 24.3814H158.853C158.756 19.7659 155.006 17.7554 150.166 17.7554C147.175 17.7554 144.692 18.6051 143.142 20.1394C142.019 21.279 141.39 22.8156 141.393 24.4157C141.393 28.6608 144.222 30.3601 147.434 31.3342C151.032 32.4328 153.419 33.0895 153.419 35.0689C153.419 36.3916 152.37 37.7112 150.306 37.7112C147.667 37.7112 146.709 36.1551 146.653 34.599H140.988C140.988 39.8525 145.414 41.7758 150.306 41.7758C156.531 41.7758 159.31 38.2216 159.31 34.6363M179.677 34.6363C179.677 29.61 176.001 28.2811 171.585 26.9584C169.447 26.3359 167.539 25.7695 167.539 23.9115C167.539 22.2838 169.185 21.7329 170.427 21.7329C171.473 21.7329 173.449 21.9539 173.608 24.3721H179.21C179.113 19.7566 175.341 17.7461 170.517 17.7461C167.564 17.7803 165.074 18.63 163.518 20.1643C162.397 21.3052 161.77 22.8412 161.772 24.4406C161.772 28.6857 164.601 30.385 167.81 31.3591C171.411 32.4577 173.792 33.1144 173.792 35.0938C173.792 36.4165 172.746 37.7361 170.679 37.7361C168.04 37.7361 167.085 36.18 167.022 34.6239H161.339C161.339 39.8774 165.759 41.8132 170.676 41.8132C176.922 41.8132 179.702 38.259 179.702 34.6737" fill="white"/>
<path fill-rule="evenodd" clip-rule="evenodd" d="M25.9563 47.5604H64.9404L73.717 11.9375H54.5299L25.9563 47.5604ZM58.9742 18.793V26.4616H66.646V33.0347H58.9742H58.9711V40.7064H52.3949V33.0347H44.7325V26.4616H52.4011V18.793H58.9742Z" fill="white"/>
</g>
<defs>
<clipPath id="clip0_2443_13062">
<rect width="204.961" height="47.4972" fill="white" transform="translate(0.332031 0.0625)"/>
</clipPath>
</defs>
</svg>
