<svg width="78" height="92" viewBox="0 0 78 92" fill="none" xmlns="http://www.w3.org/2000/svg">
<path d="M32.5635 70.1921C32.4457 69.8824 32.2363 69.6159 31.9632 69.4281C31.6901 69.2403 31.3663 69.1401 31.0349 69.1409H31.0333C30.7028 69.1405 30.3799 69.2405 30.1075 69.4276C29.835 69.6148 29.6258 69.8802 29.5076 70.1889L24.7101 82.7853C24.5829 83.1193 24.5936 83.4902 24.7398 83.8163C24.886 84.1424 25.1558 84.3971 25.4898 84.5244C25.6551 84.5874 25.8313 84.6173 26.0082 84.6122C26.1851 84.6071 26.3593 84.5673 26.5208 84.4949C26.6823 84.4225 26.828 84.3189 26.9494 84.1902C27.0709 84.0615 27.1658 83.9101 27.2288 83.7447L28.0931 81.4754H33.9408L34.7958 83.7407C34.8925 83.997 35.065 84.2178 35.2903 84.3736C35.5156 84.5294 35.7831 84.6129 36.057 84.6129C36.275 84.6129 36.4897 84.56 36.6828 84.4587C36.8759 84.3574 37.0415 84.2108 37.1654 84.0315C37.2894 83.8522 37.368 83.6454 37.3945 83.429C37.4209 83.2126 37.3945 82.9931 37.3175 82.7891L32.5635 70.1921ZM29.1194 78.7801L31.0302 73.7632L32.9236 78.7801H29.1194ZM46.3562 75.713C44.7467 75.1193 43.2513 74.4719 42.8357 74.2897C42.5028 74.0358 42.3423 73.6374 42.4043 73.2067C42.4435 72.9338 42.6379 72.268 43.5954 71.9796C45.5294 71.3969 47.2966 72.8023 47.3414 72.8384C47.616 73.0638 47.9686 73.1717 48.3224 73.1384C48.6762 73.1052 49.0026 72.9336 49.2304 72.6609C49.4583 72.3883 49.5693 72.0366 49.5392 71.6826C49.5091 71.3285 49.3404 71.0006 49.0698 70.7703C48.9534 70.6724 46.1802 68.3859 42.8179 69.399C41.1481 69.9019 39.9672 71.2144 39.7361 72.8238C39.5201 74.328 40.1718 75.7746 41.4368 76.5994C41.4965 76.6382 41.5589 76.6722 41.6239 76.7011C41.6976 76.734 43.4497 77.5138 45.4236 78.2419C46.7321 78.7246 47.4007 79.4599 47.258 80.2593C47.1125 81.0744 46.1459 81.9176 44.7805 81.9176C43.4414 81.9176 42.1504 81.3752 41.3269 80.4663C41.0853 80.2077 40.7516 80.0544 40.398 80.0397C40.0443 80.025 39.6991 80.15 39.4368 80.3877C39.1746 80.6253 39.0163 80.9566 38.9963 81.31C38.9762 81.6634 39.096 82.0105 39.3297 82.2763C40.6556 83.7393 42.6934 84.6128 44.7805 84.6128C47.3106 84.6128 49.5163 82.9447 49.9113 80.7329C50.2113 79.0509 49.4353 76.8488 46.3562 75.713ZM59.0868 75.713C57.4774 75.1193 55.982 74.4719 55.5664 74.2897C55.2334 74.036 55.073 73.6374 55.1348 73.2067C55.174 72.934 55.3684 72.2682 56.3259 71.9796C58.2576 71.398 60.023 72.7988 60.0717 72.8382C60.3464 73.0633 60.6988 73.1709 61.0524 73.1375C61.406 73.1042 61.7321 72.9326 61.9598 72.6602C62.1876 72.3877 62.2986 72.0363 62.2688 71.6824C62.2389 71.3286 62.0705 71.0008 61.8003 70.7703C61.6838 70.6724 58.9107 68.3859 55.5484 69.399C53.8786 69.9019 52.6977 71.2144 52.4666 72.8238C52.2508 74.328 52.9025 75.7746 54.1675 76.5994C54.227 76.6382 54.2895 76.6722 54.3544 76.7011C54.4281 76.734 56.18 77.5138 58.1539 78.2419C59.4624 78.7246 60.131 79.4599 59.9883 80.2593C59.8428 81.0744 58.8764 81.9176 57.511 81.9176C56.1718 81.9176 54.8807 81.3752 54.0572 80.4663C53.8156 80.2077 53.4819 80.0544 53.1283 80.0397C52.7747 80.025 52.4294 80.15 52.1672 80.3877C51.9049 80.6253 51.7467 80.9566 51.7266 81.31C51.7065 81.6634 51.8263 82.0105 52.06 82.2763C53.3859 83.7393 55.4237 84.6128 57.511 84.6128C60.041 84.6128 62.2466 82.9447 62.6416 80.7329C62.9422 79.0509 62.166 76.8488 59.0868 75.713ZM20.0057 69.1409H16.4482C16.0908 69.1409 15.748 69.2829 15.4953 69.5357C15.2426 69.7884 15.1006 70.1312 15.1006 70.4886V83.2651C15.1006 83.6225 15.2426 83.9653 15.4953 84.218C15.748 84.4708 16.0908 84.6128 16.4482 84.6128C16.8057 84.6128 17.1484 84.4708 17.4012 84.218C17.6539 83.9653 17.7959 83.6225 17.7959 83.2651V79.0557C18.5707 79.0516 19.4961 79.0473 20.0057 79.0473C22.7759 79.0473 25.0294 76.8253 25.0294 74.0942C25.0294 71.3631 22.7759 69.1409 20.0057 69.1409ZM20.0057 76.352C19.4997 76.352 18.5858 76.3561 17.8131 76.3602C17.809 75.5641 17.8022 72.6684 17.7999 71.8363H20.0057C21.2678 71.8363 22.3341 72.8702 22.3341 74.094C22.3341 75.3179 21.268 76.352 20.0057 76.352Z" fill="#0B0B0B"/>
<path d="M69.4489 34.5697H44.8694V31.5963C44.8694 31.3091 44.8256 31.0322 44.7447 30.7713L66.2059 2.15626C66.3121 2.01467 66.3893 1.85356 66.4333 1.68212C66.4772 1.51068 66.4869 1.33227 66.4619 1.15707C66.4368 0.981876 66.3775 0.813323 66.2874 0.66104C66.1972 0.508756 66.0779 0.375723 65.9363 0.269537C65.7948 0.163351 65.6337 0.0860909 65.4622 0.0421687C65.2908 -0.00175357 65.1124 -0.0114782 64.9372 0.0135501C64.762 0.0385784 64.5934 0.0978694 64.4411 0.188038C64.2888 0.278206 64.1558 0.397487 64.0496 0.539068L42.8014 28.8699L21.5535 0.539068C21.3391 0.253131 21.0198 0.0640971 20.666 0.0135502C20.3122 -0.0369967 19.9528 0.0550844 19.6668 0.269537C19.3809 0.483989 19.1918 0.803246 19.1413 1.15707C19.0908 1.5109 19.1828 1.87032 19.3973 2.15626L39.3861 28.808H36.3199C36.0786 28.808 35.8457 28.842 35.6222 28.8999L14.3515 0.539068C14.137 0.253131 13.8178 0.064097 13.4639 0.0135501C13.1101 -0.0369968 12.7507 0.0550844 12.4648 0.269537C12.1788 0.483989 11.9898 0.803246 11.9392 1.15707C11.8887 1.5109 11.9808 1.87032 12.1952 2.15626L33.6564 30.7711C33.5735 31.0383 33.5315 31.3164 33.5317 31.5961V34.5695H8.95205C4.23777 34.5695 0.402344 38.405 0.402344 43.1193V83.4505C0.402344 88.1648 4.23777 92.0002 8.95205 92.0002H69.4489C74.1632 92.0002 77.9986 88.1648 77.9986 83.4505V43.1193C77.9986 38.405 74.1632 34.5697 69.4489 34.5697ZM36.227 31.5961C36.227 31.5449 36.2685 31.5034 36.3197 31.5034H42.0816C42.1061 31.5035 42.1296 31.5133 42.147 31.5306C42.1643 31.548 42.1741 31.5715 42.1741 31.5961V40.2385C42.1741 40.2631 42.1643 40.2867 42.147 40.3041C42.1296 40.3215 42.106 40.3312 42.0814 40.3312H36.3199C36.2953 40.3312 36.2717 40.3215 36.2543 40.3041C36.2369 40.2867 36.2272 40.2631 36.2272 40.2385V31.5961H36.227ZM8.95205 37.265H33.5317V40.2385C33.5317 41.7759 34.7823 43.0265 36.3197 43.0265H42.0812C43.6186 43.0265 44.8693 41.7759 44.8693 40.2385V37.265H69.4489C72.677 37.265 75.3033 39.8913 75.3033 43.1194V57.3277L68.1683 52.9368C65.4043 51.2361 61.9705 51.2361 59.2065 52.9368L54.9549 55.5533L43.6815 48.6157C40.9176 46.915 37.4837 46.915 34.7198 48.6157L23.4464 55.5533L19.1948 52.9368C16.4308 51.2361 12.997 51.2361 10.233 52.9368L3.09784 57.3275V43.1193C3.09784 39.8912 5.72397 37.265 8.95205 37.265ZM3.09784 60.4922L11.6456 55.2322C13.5382 54.0676 15.8894 54.0678 17.7821 55.2322L20.8749 57.1354L3.09784 68.0751V60.4922ZM36.1323 50.911C38.0248 49.7463 40.3762 49.7463 42.2688 50.911L50.3916 55.9098L47.1522 58.3264C46.4633 58.8404 45.6394 59.142 44.7815 59.1944C43.9236 59.2467 43.0691 59.0474 42.3229 58.6209L39.3404 56.9167C38.5495 56.4651 37.6614 56.2107 36.7513 56.1748C35.8412 56.1389 34.9358 56.3227 34.1117 56.7106L27.0186 60.0526C26.305 60.3887 25.5145 60.5275 24.7292 60.4545C23.9439 60.3816 23.1924 60.0996 22.553 59.6379L22.2762 59.4381L36.1323 50.911ZM69.4489 89.3047H8.95205C5.72397 89.3047 3.09766 86.6784 3.09766 83.4503V71.2398L19.7906 60.9673L20.9749 61.8226C22.1867 62.6978 23.6435 63.1687 25.1383 63.1683C26.1856 63.1683 27.2199 62.9369 28.1673 62.4905L35.2606 59.1485C35.6929 58.945 36.1678 58.8486 36.6451 58.8674C37.1225 58.8863 37.5883 59.0198 38.0032 59.2566L40.9857 60.9608C42.1875 61.6479 43.5638 61.969 44.9456 61.8847C46.3274 61.8005 47.6546 61.3145 48.764 60.4864L52.8616 57.4294L57.9284 60.5475C58.0791 60.6403 58.2466 60.7024 58.4214 60.7305C58.5961 60.7585 58.7747 60.7518 58.9469 60.7108C59.119 60.6698 59.2814 60.5953 59.4248 60.4915C59.5682 60.3878 59.6897 60.2568 59.7824 60.106C59.9697 59.8016 60.0284 59.4353 59.9456 59.0876C59.8628 58.7399 59.6453 58.4393 59.3409 58.252L57.5263 57.1352L60.619 55.232C62.5117 54.0674 64.8631 54.0676 66.7556 55.232L75.3033 60.4922V68.0751L64.3937 61.3615C64.243 61.2678 64.0752 61.2049 63.9001 61.1763C63.725 61.1476 63.5459 61.1538 63.3732 61.1946C63.2005 61.2353 63.0375 61.3098 62.8936 61.4137C62.7498 61.5176 62.6278 61.6488 62.5348 61.8C62.4418 61.9511 62.3796 62.1191 62.3517 62.2944C62.3238 62.4696 62.3308 62.6487 62.3723 62.8212C62.4137 62.9938 62.4889 63.1564 62.5934 63.2998C62.6979 63.4433 62.8297 63.5646 62.9812 63.657L75.3035 71.2398V83.4503C75.3033 86.6786 72.677 89.3047 69.4489 89.3047Z" fill="#0B0B0B"/>
<path d="M41.9932 22.5914C42.2259 22.7666 42.5094 22.8612 42.8007 22.8609C43.0101 22.8612 43.2167 22.8127 43.4041 22.7191C43.5914 22.6255 43.7543 22.4895 43.8799 22.3219L59.004 2.15626C59.2185 1.87032 59.3105 1.5109 59.26 1.15707C59.2094 0.803246 59.0204 0.483989 58.7345 0.269537C58.4485 0.0550844 58.0891 -0.0369968 57.7353 0.0135501C57.3815 0.064097 57.0622 0.253132 56.8478 0.539068L41.7236 20.7047C41.5092 20.9906 41.4171 21.35 41.4677 21.7039C41.5182 22.0577 41.7072 22.3769 41.9932 22.5914Z" fill="#0B0B0B"/>
</svg>
