<svg width="90" height="90" viewBox="0 0 90 90" fill="none" xmlns="http://www.w3.org/2000/svg">
<path d="M42.8312 89.1892C40.3221 89.1892 37.8131 88.6317 35.304 87.5165L13.2797 76.5044C12.8615 76.2256 12.4434 75.8074 12.4434 75.2498V51.4135C12.4434 50.5771 13.0009 50.0195 13.8373 50.0195H24.4312C26.6615 50.0195 28.8918 50.4377 30.9828 51.4135C32.6555 52.1104 34.4676 53.2256 35.8615 54.7589L37.3949 56.2923H50.9161C55.2373 56.2923 59.1403 58.662 61.0919 62.7044C61.2312 63.1226 61.51 63.4014 61.6494 63.8195L78.9343 63.1226C80.1888 62.9832 81.304 62.8438 82.4191 62.7044H82.6979C85.4858 62.4256 88.2737 63.9589 89.2494 66.6074C89.5282 67.165 89.807 68.1407 89.807 68.9771C89.807 71.4862 88.2737 73.8559 86.0434 74.6923H85.7646L77.8191 76.365C71.1282 77.7589 64.5767 80.1286 58.0252 83.1953L54.1222 85.1468C53.2858 85.565 52.5888 85.9832 52.0312 86.4014C49.2434 88.2135 45.8979 89.1892 42.8312 89.1892ZM15.2312 74.4135L36.4191 85.0074C38.51 85.9832 40.6009 86.4014 42.8312 86.4014C45.3403 86.4014 48.2676 85.565 50.6373 84.0317C51.3343 83.6135 52.0312 83.1953 53.007 82.7771L56.91 80.8256C63.6009 77.6195 70.4312 75.2498 77.2615 73.7165L85.0676 72.0438C86.1828 71.4862 87.0191 70.3711 87.0191 68.9771C87.0191 68.5589 86.8797 68.1407 86.7403 67.7226C86.0434 66.0498 84.6494 65.2135 82.9767 65.3529H82.6979C81.5828 65.4923 80.3282 65.6317 79.0737 65.7711L62.207 66.468V67.5832C62.207 68.4195 61.6494 68.9771 60.8131 68.9771H37.2555C36.4191 68.9771 35.8615 68.4195 35.8615 67.5832C35.8615 66.7468 36.4191 66.1892 37.2555 66.1892H59.2797C59.2797 65.9104 59.2797 65.7711 59.1403 65.4923C59.1403 65.3529 59.1403 65.2135 59.0009 65.2135C58.8615 64.6559 58.7221 64.2377 58.4434 63.6801C56.91 60.7529 53.9828 58.9407 50.7767 58.9407H36.8373C36.4191 58.9407 36.1403 58.8014 35.8615 58.5226L33.91 56.571C32.6555 55.3165 31.2615 54.3407 29.8676 53.7832C28.0555 52.9468 26.2434 52.668 24.4312 52.668H15.2312V74.4135Z" fill="#0B0B0B"/>
<path d="M13.8372 79.7095H1.98867C1.1523 79.7095 0.594727 79.1519 0.594727 78.3155V49.3216C0.594727 48.4852 1.1523 47.9277 1.98867 47.9277H13.8372C14.6735 47.9277 15.2311 48.4852 15.2311 49.3216V78.3155C15.2311 79.1519 14.6735 79.7095 13.8372 79.7095ZM3.38261 76.9216H12.4432V50.7155H3.38261V76.9216ZM55.5159 38.0307C53.7038 38.0307 51.7523 37.1943 50.4978 35.9398L42.8311 28.1337C40.0432 25.3458 40.0432 21.0246 42.8311 18.2367C45.619 15.4489 49.9402 15.4489 52.7281 18.2367L55.5159 21.0246L73.7765 2.90341C75.1705 1.50947 76.8432 0.8125 78.7947 0.8125C80.7462 0.8125 82.419 1.50947 83.8129 2.90341C86.6008 5.69129 86.6008 10.0125 83.8129 12.8004L60.5341 35.9398C59.2796 37.1943 57.3281 38.0307 55.5159 38.0307ZM47.7099 18.9337C46.5947 18.9337 45.619 19.3519 44.7826 20.1883C43.1099 21.861 43.1099 24.5095 44.7826 26.1822L52.4493 33.9883C53.2856 34.8246 54.4008 35.2428 55.5159 35.2428C56.6311 35.2428 57.7462 34.8246 58.5826 33.9883L81.722 10.8489C83.3947 9.17614 83.3947 6.52765 81.722 4.85492C80.0493 3.1822 77.4008 3.1822 75.7281 4.85492L56.4917 23.9519C55.9341 24.5095 55.0978 24.5095 54.5402 23.9519L50.7765 20.1883C49.9402 19.3519 48.825 18.9337 47.7099 18.9337Z" fill="#0B0B0B"/>
<path d="M53.9822 52.8047C40.7397 52.8047 29.867 41.7926 29.867 28.4108C29.867 15.029 40.7397 4.15625 54.1216 4.15625C57.3276 4.15625 60.5337 4.85322 63.7397 6.10777C64.4367 6.38655 64.8549 7.22292 64.5761 7.91989C64.2973 8.61686 63.461 9.03504 62.764 8.75625C59.9761 7.6411 57.0488 7.08352 54.261 7.08352C42.2731 6.94413 32.6549 16.5623 32.6549 28.4108C32.6549 40.2593 42.2731 50.0169 53.9822 50.0169C65.8307 50.0169 75.5882 40.2593 75.5882 28.4108C75.5882 27.435 75.5882 26.4593 75.4488 25.4835C75.3094 24.7866 75.867 23.9502 76.564 23.9502C77.261 23.8108 78.0973 24.3684 78.0973 25.0653C78.2367 26.1805 78.2367 27.2956 78.2367 28.2714C78.3761 41.7926 67.364 52.8047 53.9822 52.8047ZM11.8852 22.1381C11.467 22.1381 11.1882 21.9987 10.9094 21.7199L8.26096 19.0714C7.70338 18.5138 7.70338 17.6775 8.26096 17.1199C8.81853 16.5623 9.65489 16.5623 10.2125 17.1199L11.8852 18.7926L17.6003 13.0775C18.1579 12.5199 18.9943 12.5199 19.5519 13.0775C20.1094 13.635 20.1094 14.4714 19.5519 15.029L12.861 21.7199C12.5822 21.9987 12.3034 22.1381 11.8852 22.1381Z" fill="#0B0B0B"/>
<path d="M13.8372 30.6411C6.58867 30.6411 0.594727 24.6472 0.594727 17.3987C0.594727 10.1502 6.58867 4.15625 13.8372 4.15625C21.0856 4.15625 27.0796 10.1502 27.0796 17.3987C27.0796 24.6472 21.0856 30.6411 13.8372 30.6411ZM13.8372 6.94413C8.122 6.94413 3.38261 11.6835 3.38261 17.3987C3.38261 23.1138 8.122 27.8532 13.8372 27.8532C19.5523 27.8532 24.2917 23.1138 24.2917 17.3987C24.2917 11.6835 19.5523 6.94413 13.8372 6.94413Z" fill="#0B0B0B"/>
</svg>
