<svg width="93" height="92" viewBox="0 0 93 92" fill="none" xmlns="http://www.w3.org/2000/svg">
<path d="M88.3179 46.3859V33.4554C88.3179 29.0709 84.917 25.5051 80.62 25.1593L68.6119 4.1852C67.4991 2.24539 65.7022 0.858945 63.552 0.283235C61.4121 -0.288554 59.1743 0.0117484 57.259 1.12651L16.0943 25.0919H8.86454C4.25201 25.0919 0.500977 28.8427 0.500977 33.4554V83.6364C0.500977 88.249 4.25181 92 8.86454 92H79.9544C84.5669 92 88.3179 88.2492 88.3179 83.6364V70.706C90.7464 69.84 92.4996 67.5409 92.4996 64.8186V52.2733C92.4996 49.551 90.7464 47.2519 88.3179 46.3859ZM75.7609 25.0919H57.5368L71.205 17.1342L75.7609 25.0919ZM69.1274 13.5053L49.2257 25.0919H40.9708L67.0633 9.90034L69.1274 13.5053ZM59.3641 4.74052C60.3095 4.18716 61.414 4.04015 62.4698 4.32202C63.5377 4.60782 64.428 5.298 64.9814 6.26379L64.9857 6.27144L32.6601 25.0919H24.4056L59.3641 4.74052ZM84.136 83.6364C84.136 85.9416 82.2595 87.8181 79.9544 87.8181H8.86454C6.55935 87.8181 4.68286 85.9416 4.68286 83.6364V33.4554C4.68286 31.1502 6.55935 29.2737 8.86454 29.2737H79.9544C82.2595 29.2737 84.136 31.1502 84.136 33.4554V46.0007H71.5908C64.6729 46.0007 59.0455 51.628 59.0455 58.5459C59.0455 65.4638 64.6729 71.0912 71.5908 71.0912H84.136V83.6364ZM88.3179 64.8186C88.3179 65.9721 87.3808 66.9095 86.227 66.9095H71.5908C66.9783 66.9095 63.2272 63.1587 63.2272 58.5459C63.2272 53.9334 66.9781 50.1824 71.5908 50.1824H86.227C87.3806 50.1824 88.3179 51.1195 88.3179 52.2733V64.8186Z" fill="#0B0B0B"/>
<path d="M71.5909 54.3652C69.2857 54.3652 67.4092 56.2417 67.4092 58.5469C67.4092 60.8521 69.2857 62.7286 71.5909 62.7286C73.8961 62.7286 75.7725 60.8521 75.7725 58.5469C75.7727 56.2417 73.8963 54.3652 71.5909 54.3652Z" fill="#0B0B0B"/>
</svg>
