<svg width="93" height="78" viewBox="0 0 93 78" fill="none" xmlns="http://www.w3.org/2000/svg">
<path d="M82.6169 77.3307H9.78353C7.2428 77.3277 4.80701 76.317 3.01045 74.5205C1.21389 72.7239 0.203239 70.2881 0.200195 67.7474L0.200195 60.0807C0.200195 59.5724 0.402129 59.0849 0.761574 58.7254C1.12102 58.366 1.60853 58.1641 2.11686 58.1641H4.03353C8.26169 58.1641 11.7002 54.7256 11.7002 50.4974C11.7002 46.2692 8.26169 42.8307 4.03353 42.8307H2.11686C1.60853 42.8307 1.12102 42.6288 0.761574 42.2694C0.402129 41.9099 0.200195 41.4224 0.200195 40.9141V33.2474C0.200195 27.9651 4.50119 23.6641 9.78353 23.6641H82.6169C87.8992 23.6641 92.2002 27.9651 92.2002 33.2474V40.9141C92.2002 41.4224 91.9983 41.9099 91.6388 42.2694C91.2794 42.6288 90.7919 42.8307 90.2835 42.8307H88.3669C86.8524 42.8347 85.373 43.2867 84.1149 44.1297C82.8568 44.9728 81.8762 46.1692 81.2967 47.5684C80.7172 48.9676 80.5646 50.507 80.8582 51.9927C81.1518 53.4785 81.8784 54.8441 82.9465 55.9177C84.3917 57.3667 86.316 58.1641 88.363 58.1641H90.2797C90.788 58.1641 91.2755 58.366 91.635 58.7254C91.9944 59.0849 92.1964 59.5724 92.1964 60.0807V67.7474C92.1943 70.2878 91.1845 72.7236 89.3886 74.5202C87.5926 76.3169 85.1572 77.3277 82.6169 77.3307ZM4.03353 61.9974V67.7474C4.03353 70.9176 6.61336 73.4974 9.78353 73.4974H82.6169C85.787 73.4974 88.3669 70.9176 88.3669 67.7474V61.9974C86.857 62.0015 85.3576 61.7061 83.9626 61.1284C82.5677 60.5507 81.3012 59.7021 80.2364 58.6317C79.1649 57.5659 78.3154 56.2982 77.737 54.902C77.1587 53.5058 76.8629 52.0087 76.8669 50.4974C76.8669 44.1571 82.0265 38.9974 88.3669 38.9974V33.2474C88.3669 30.0772 85.787 27.4974 82.6169 27.4974H9.78353C6.61336 27.4974 4.03353 30.0772 4.03353 33.2474V38.9974C10.3739 38.9974 15.5335 44.1571 15.5335 50.4974C15.5335 56.8377 10.3739 61.9974 4.03353 61.9974Z" fill="#0B0B0B"/>
<path d="M32.7839 31.3307C32.2755 31.3307 31.788 31.1288 31.4286 30.7694C31.0691 30.4099 30.8672 29.9224 30.8672 29.4141V25.5807C30.8672 25.0724 31.0691 24.5849 31.4286 24.2254C31.788 23.866 32.2755 23.6641 32.7839 23.6641C33.2922 23.6641 33.7797 23.866 34.1391 24.2254C34.4986 24.5849 34.7005 25.0724 34.7005 25.5807V29.4141C34.7005 29.9224 34.4986 30.4099 34.1391 30.7694C33.7797 31.1288 33.2922 31.3307 32.7839 31.3307ZM32.7839 63.7646C32.2755 63.7646 31.788 63.5626 31.4286 63.2032C31.0691 62.8437 30.8672 62.3562 30.8672 61.8479V55.3657C30.8672 54.8574 31.0691 54.3699 31.4286 54.0104C31.788 53.651 32.2755 53.4491 32.7839 53.4491C33.2922 53.4491 33.7797 53.651 34.1391 54.0104C34.4986 54.3699 34.7005 54.8574 34.7005 55.3657V61.8517C34.6995 62.3594 34.4971 62.8459 34.1378 63.2045C33.7785 63.5632 33.2915 63.7646 32.7839 63.7646ZM32.7839 47.5496C32.2755 47.5496 31.788 47.3476 31.4286 46.9882C31.0691 46.6287 30.8672 46.1412 30.8672 45.6329V39.1469C30.8672 38.6386 31.0691 38.1511 31.4286 37.7916C31.788 37.4322 32.2755 37.2302 32.7839 37.2302C33.2922 37.2302 33.7797 37.4322 34.1391 37.7916C34.4986 38.1511 34.7005 38.6386 34.7005 39.1469V45.6329C34.7005 46.1412 34.4986 46.6287 34.1391 46.9882C33.7797 47.3476 33.2922 47.5496 32.7839 47.5496ZM32.7839 77.3307C32.2755 77.3307 31.788 77.1288 31.4286 76.7694C31.0691 76.4099 30.8672 75.9224 30.8672 75.4141V71.5807C30.8672 71.0724 31.0691 70.5849 31.4286 70.2254C31.788 69.866 32.2755 69.6641 32.7839 69.6641C33.2922 69.6641 33.7797 69.866 34.1391 70.2254C34.4986 70.5849 34.7005 71.0724 34.7005 71.5807V75.4141C34.7005 75.9224 34.4986 76.4099 34.1391 76.7694C33.7797 77.1288 33.2922 77.3307 32.7839 77.3307Z" fill="#0B0B0B"/>
<path d="M9.78399 27.4994C9.32965 27.5092 8.88673 27.3565 8.53487 27.0689C8.18301 26.7814 7.94529 26.3777 7.86444 25.9305C7.78359 25.4833 7.86493 25.0219 8.09383 24.6293C8.32272 24.2367 8.68416 23.9387 9.11315 23.7888L70.0632 1.03025C73.0263 -0.0814138 76.507 1.58225 77.519 4.56842L84.4305 24.9656C84.5865 25.4451 84.5473 25.9668 84.3213 26.4176C84.0953 26.8684 83.7007 27.2119 83.2232 27.3738C82.7456 27.5357 82.2234 27.5029 81.7699 27.2824C81.3164 27.0619 80.968 26.6716 80.8003 26.1961L73.8888 5.79892C73.7129 5.31436 73.3531 4.91866 72.8874 4.69764C72.4217 4.47662 71.8876 4.4481 71.401 4.61825L10.451 27.3768C10.2381 27.4584 10.012 27.5 9.78399 27.4994Z" fill="#0B0B0B"/>
</svg>
