<svg width="25" height="25" viewBox="0 0 25 25" fill="none" xmlns="http://www.w3.org/2000/svg">
<path d="M12.5991 24.9688C19.2265 24.9688 24.5991 19.5962 24.5991 12.9688C24.5991 6.34133 19.2265 0.96875 12.5991 0.96875C5.9717 0.96875 0.599121 6.34133 0.599121 12.9688C0.599121 19.5962 5.9717 24.9688 12.5991 24.9688Z" fill="#0099FF"/>
<path d="M19.7689 13.9319V18.8792H16.9006V14.2635C16.9006 13.1045 16.4864 12.313 15.4479 12.313C14.6553 12.313 14.1845 12.8459 13.9766 13.3618C13.9011 13.5462 13.8816 13.8023 13.8816 14.0609V18.879H11.0131C11.0131 18.879 11.0516 11.0614 11.0131 10.2522H13.8818V11.4747C13.8761 11.4843 13.8679 11.4937 13.8628 11.5029H13.8818V11.4747C14.263 10.8881 14.9428 10.0496 16.467 10.0496C18.3541 10.0496 19.7689 11.2826 19.7689 13.9319ZM8.01232 6.09375C7.03111 6.09375 6.38916 6.73784 6.38916 7.58407C6.38916 8.41234 7.0125 9.07503 7.97467 9.07503H7.99328C8.99375 9.07503 9.6158 8.41234 9.6158 7.58407C9.59676 6.73784 8.99374 6.09375 8.01232 6.09375ZM6.55965 18.8792H9.42713V10.2522H6.55965V18.8792Z" fill="white"/>
</svg>
