<svg width="20" height="24" viewBox="0 0 20 24" fill="none" xmlns="http://www.w3.org/2000/svg">
<path d="M16.095 2.8678L15.8777 2.68992C14.8111 1.81657 13.564 1.19082 12.2262 0.857807C10.8888 0.524878 9.49421 0.492837 8.14294 0.763986C6.40609 1.12027 4.80823 1.96822 3.53962 3.20686C2.27076 4.44574 1.38477 6.02324 0.987189 7.75146C0.589603 9.47967 0.697179 11.2858 1.2971 12.9546C1.89641 14.6216 2.96181 16.0815 4.3666 17.1607C6.10898 18.4369 7.59259 20.033 8.7382 21.8639L8.74289 21.8714L8.74282 21.8715L9.50115 23.1325L9.50117 23.1325C9.55303 23.2187 9.62632 23.2901 9.71392 23.3396C9.80152 23.3892 9.90045 23.4152 10.0011 23.4152C10.1017 23.4152 10.2006 23.3892 10.2882 23.3396C10.3757 23.2902 10.4489 23.2189 10.5008 23.1328L16.095 2.8678ZM16.095 2.8678C17.0995 3.74638 17.9026 4.83296 18.4478 6.05344C19.0318 7.36052 19.304 8.78543 19.243 10.2157C19.182 11.646 18.7895 13.0426 18.0964 14.2952C17.4033 15.5478 16.4286 16.6223 15.2492 17.4337L15.2491 17.4336L15.2386 17.4412C13.5972 18.6342 12.2288 20.1633 11.2247 21.9266L10.501 23.1325L16.095 2.8678ZM7.31474 13.8521C8.10958 14.3832 9.04406 14.6666 10 14.6666C11.2819 14.6666 12.5113 14.1574 13.4177 13.251C14.3241 12.3446 14.8333 11.1152 14.8333 9.83331C14.8333 8.87736 14.5499 7.94289 14.0188 7.14805C13.4877 6.35321 12.7328 5.73371 11.8496 5.36789C10.9665 5.00206 9.99464 4.90635 9.05706 5.09284C8.11949 5.27934 7.25827 5.73967 6.58232 6.41562C5.90636 7.09158 5.44603 7.95279 5.25954 8.89037C5.07304 9.82794 5.16876 10.7998 5.53458 11.6829C5.90041 12.5661 6.51991 13.321 7.31474 13.8521Z" stroke="black"/>
</svg>
