<svg width="229" height="26" viewBox="0 0 229 26" fill="none" xmlns="http://www.w3.org/2000/svg">
<path d="M1.76839 20.2253C1.69766 20.0603 1.66229 19.8952 1.66229 19.7302C1.66229 19.5651 1.74481 19.4237 1.90986 19.3058C2.07491 19.1879 2.42859 19.07 2.9709 18.9521C3.5132 18.8106 4.04372 18.6927 4.56245 18.5984C5.08118 18.5041 5.52917 18.457 5.90643 18.457C6.09506 18.457 6.22474 18.5513 6.29547 18.7399C6.57842 19.3294 6.89673 19.8245 7.2504 20.2253C7.62766 20.6262 8.0285 20.9563 8.45291 21.2156C8.9009 21.4514 9.36068 21.6283 9.83226 21.7462C10.3038 21.8405 10.7754 21.8876 11.247 21.8876C12.308 21.8876 13.2158 21.6401 13.9703 21.1449C14.7484 20.6498 15.1374 19.8481 15.1374 18.7399C15.1374 17.7968 14.8073 17.0776 14.1471 16.5825C13.5105 16.0637 12.7088 15.6393 11.7421 15.3092C10.799 14.9791 9.76152 14.6726 8.62975 14.3897C7.49798 14.1067 6.44873 13.7295 5.48201 13.2579C4.53887 12.7627 3.7372 12.1143 3.077 11.3127C2.44038 10.4874 2.12207 9.37921 2.12207 7.98808C2.12207 6.8563 2.34607 5.85422 2.79406 4.98181C3.26563 4.1094 3.90225 3.37847 4.70392 2.78901C5.50559 2.17596 6.43694 1.71618 7.49798 1.40966C8.58259 1.10314 9.74973 0.949879 10.9994 0.949879C13.0507 0.949879 14.8663 1.38608 16.446 2.25849C18.0258 3.10732 19.1694 4.39235 19.8767 6.11358C19.9475 6.30221 19.9828 6.45547 19.9828 6.57336C19.9828 6.73841 19.8767 6.87988 19.6645 6.99778C19.4759 7.09209 19.1104 7.1982 18.5681 7.31609C18.0258 7.43398 17.4953 7.54008 16.9766 7.6344C16.4814 7.72871 16.057 7.77587 15.7033 7.77587C15.4675 7.77587 15.3025 7.64619 15.2082 7.38682C14.713 6.37295 14.0646 5.67738 13.2629 5.30012C12.4613 4.89929 11.6124 4.69887 10.7165 4.69887C9.72615 4.69887 8.87732 4.94644 8.16997 5.44159C7.46261 5.93674 7.10893 6.67947 7.10893 7.66977C7.10893 8.32996 7.29756 8.88406 7.67482 9.33205C8.05208 9.75647 8.53544 10.1219 9.1249 10.4285C9.73794 10.735 10.4335 10.9943 11.2116 11.2065C11.9897 11.4188 12.7796 11.6428 13.5812 11.8785C14.4065 12.1143 15.2082 12.3855 15.9863 12.692C16.7879 12.9985 17.4835 13.3876 18.073 13.8591C18.686 14.3307 19.1812 14.9084 19.5584 15.5922C19.9357 16.2759 20.1243 17.113 20.1243 18.1033C20.1243 19.2586 19.8885 20.2843 19.4169 21.1803C18.9454 22.0527 18.297 22.7836 17.4717 23.3731C16.67 23.9625 15.7151 24.4105 14.6069 24.7171C13.5223 25 12.3434 25.1415 11.0701 25.1415C10.0327 25.1415 9.04237 25.0354 8.09923 24.8232C7.15609 24.611 6.27189 24.3044 5.44665 23.9036C4.64497 23.5028 3.92583 22.9958 3.28921 22.3828C2.65259 21.7697 2.14565 21.0506 1.76839 20.2253ZM32.0162 21.251H32.1576L35.27 5.58306L35.8005 1.62187C35.8713 1.26819 36.1188 1.09135 36.5433 1.09135H41.0703C41.5419 1.09135 41.8131 1.26819 41.8838 1.62187L42.4497 5.58306L45.5974 21.251H45.7389L49.0988 5.51233L49.7354 1.5865C49.8062 1.23282 50.0302 1.05598 50.4074 1.05598C50.6196 1.05598 50.8554 1.05598 51.1148 1.05598C51.3977 1.05598 51.7514 1.07956 52.1758 1.12672L53.9796 1.19745C54.5219 1.26819 54.793 1.45682 54.793 1.76334C54.793 1.83407 54.7813 1.9166 54.7577 2.01091C54.7341 2.08165 54.6987 2.18775 54.6516 2.32922L53.8028 5.37086L49.7001 21.7815C49.5822 22.3474 49.4761 22.819 49.3818 23.1962C49.311 23.5499 49.2521 23.8447 49.2049 24.0804C49.1578 24.2926 49.0988 24.4577 49.0281 24.5756C48.9809 24.6699 48.922 24.7524 48.8513 24.8232C48.7334 24.9175 48.6037 24.9764 48.4622 25C48.3207 25 48.1203 25 47.861 25H43.5107C43.1099 25 42.8387 24.9411 42.6973 24.8232C42.6265 24.7524 42.5676 24.6699 42.5204 24.5756C42.4733 24.4577 42.4143 24.2926 42.3436 24.0804C42.2964 23.8682 42.2375 23.5853 42.1667 23.2316C42.1196 22.8544 42.0606 22.371 41.9899 21.7815L38.8422 6.6441H38.7007L35.553 21.7815C35.4822 22.371 35.4115 22.8544 35.3407 23.2316C35.2936 23.5853 35.2464 23.88 35.1993 24.1158C35.1521 24.328 35.0932 24.4813 35.0224 24.5756C34.9753 24.6699 34.9163 24.7524 34.8456 24.8232C34.7277 24.9175 34.598 24.9764 34.4565 25C34.3151 25 34.1147 25 33.8553 25H29.5051C29.1042 25 28.8331 24.9411 28.6916 24.8232C28.6209 24.7524 28.5619 24.6699 28.5148 24.5756C28.4676 24.4577 28.4087 24.2926 28.3379 24.0804C28.2908 23.8682 28.22 23.5853 28.1257 23.2316C28.055 22.8544 27.9607 22.371 27.8428 21.7815L23.7401 5.37086L22.9266 2.32922C22.8795 2.18775 22.8323 2.08165 22.7852 2.01091C22.7616 1.9166 22.7498 1.83407 22.7498 1.76334C22.7498 1.45682 23.021 1.26819 23.5633 1.19745L25.4378 1.12672C25.8622 1.07956 26.2041 1.05598 26.4634 1.05598C26.7464 1.05598 26.9939 1.05598 27.2061 1.05598C27.6306 1.05598 27.8781 1.23282 27.9489 1.5865L28.5855 5.51233L32.0162 21.251ZM63.4363 24.6817C63.4363 24.7524 63.401 24.8114 63.3302 24.8585C63.2831 24.8821 63.1652 24.9057 62.9766 24.9293C62.8115 24.9528 62.5639 24.9764 62.2338 25C61.9037 25 61.4557 25 60.8899 25C60.3475 25 59.9113 25 59.5812 25C59.2511 24.9764 58.9918 24.9528 58.8032 24.9293C58.6381 24.9057 58.5202 24.8821 58.4495 24.8585C58.4023 24.8114 58.3787 24.7524 58.3787 24.6817L58.5202 20.5083V3.35489L58.3787 1.40966C58.3787 1.3625 58.4023 1.31535 58.4495 1.26819C58.5202 1.22103 58.6381 1.18566 58.8032 1.16209C58.9918 1.13851 59.2511 1.12672 59.5812 1.12672C59.9113 1.10314 60.3475 1.09135 60.8899 1.09135C61.4557 1.09135 61.9037 1.10314 62.2338 1.12672C62.5639 1.12672 62.8115 1.13851 62.9766 1.16209C63.1652 1.18566 63.2831 1.22103 63.3302 1.26819C63.401 1.31535 63.4363 1.3625 63.4363 1.40966L63.2949 3.35489V20.5083L63.4363 24.6817ZM67.9007 20.2253C67.83 20.0603 67.7946 19.8952 67.7946 19.7302C67.7946 19.5651 67.8771 19.4237 68.0422 19.3058C68.2072 19.1879 68.5609 19.07 69.1032 18.9521C69.6455 18.8106 70.176 18.6927 70.6948 18.5984C71.2135 18.5041 71.6615 18.457 72.0387 18.457C72.2274 18.457 72.357 18.5513 72.4278 18.7399C72.7107 19.3294 73.029 19.8245 73.3827 20.2253C73.76 20.6262 74.1608 20.9563 74.5852 21.2156C75.0332 21.4514 75.493 21.6283 75.9646 21.7462C76.4361 21.8405 76.9077 21.8876 77.3793 21.8876C78.4403 21.8876 79.3481 21.6401 80.1026 21.1449C80.8807 20.6498 81.2697 19.8481 81.2697 18.7399C81.2697 17.7968 80.9396 17.0776 80.2794 16.5825C79.6428 16.0637 78.8411 15.6393 77.8744 15.3092C76.9313 14.9791 75.8938 14.6726 74.7621 14.3897C73.6303 14.1067 72.581 13.7295 71.6143 13.2579C70.6712 12.7627 69.8695 12.1143 69.2093 11.3127C68.5727 10.4874 68.2544 9.37921 68.2544 7.98808C68.2544 6.8563 68.4784 5.85422 68.9264 4.98181C69.3979 4.1094 70.0346 3.37847 70.8362 2.78901C71.6379 2.17596 72.5692 1.71618 73.6303 1.40966C74.7149 1.10314 75.882 0.949879 77.1317 0.949879C79.183 0.949879 80.9986 1.38608 82.5783 2.25849C84.1581 3.10732 85.3017 4.39235 86.009 6.11358C86.0798 6.30221 86.1151 6.45547 86.1151 6.57336C86.1151 6.73841 86.009 6.87988 85.7968 6.99778C85.6082 7.09209 85.2427 7.1982 84.7004 7.31609C84.1581 7.43398 83.6276 7.54008 83.1089 7.6344C82.6137 7.72871 82.1893 7.77587 81.8356 7.77587C81.5998 7.77587 81.4348 7.64619 81.3405 7.38682C80.8453 6.37295 80.1969 5.67738 79.3952 5.30012C78.5936 4.89929 77.7447 4.69887 76.8488 4.69887C75.8585 4.69887 75.0096 4.94644 74.3023 5.44159C73.5949 5.93674 73.2412 6.67947 73.2412 7.66977C73.2412 8.32996 73.4299 8.88406 73.8071 9.33205C74.1844 9.75647 74.6677 10.1219 75.2572 10.4285C75.8702 10.735 76.5658 10.9943 77.3439 11.2065C78.122 11.4188 78.9119 11.6428 79.7135 11.8785C80.5388 12.1143 81.3405 12.3855 82.1186 12.692C82.9202 12.9985 83.6158 13.3876 84.2053 13.8591C84.8183 14.3307 85.3135 14.9084 85.6907 15.5922C86.068 16.2759 86.2566 17.113 86.2566 18.1033C86.2566 19.2586 86.0208 20.2843 85.5492 21.1803C85.0777 22.0527 84.4293 22.7836 83.604 23.3731C82.8023 23.9625 81.8474 24.4105 80.7392 24.7171C79.6546 25 78.4757 25.1415 77.2024 25.1415C76.165 25.1415 75.1747 25.0354 74.2315 24.8232C73.2884 24.611 72.4042 24.3044 71.5789 23.9036C70.7773 23.5028 70.0581 22.9958 69.4215 22.3828C68.7849 21.7697 68.2779 21.0506 67.9007 20.2253ZM90.0139 20.2253C89.9431 20.0603 89.9078 19.8952 89.9078 19.7302C89.9078 19.5651 89.9903 19.4237 90.1553 19.3058C90.3204 19.1879 90.6741 19.07 91.2164 18.9521C91.7587 18.8106 92.2892 18.6927 92.8079 18.5984C93.3267 18.5041 93.7747 18.457 94.1519 18.457C94.3405 18.457 94.4702 18.5513 94.541 18.7399C94.8239 19.3294 95.1422 19.8245 95.4959 20.2253C95.8731 20.6262 96.274 20.9563 96.6984 21.2156C97.1464 21.4514 97.6062 21.6283 98.0777 21.7462C98.5493 21.8405 99.0209 21.8876 99.4925 21.8876C100.553 21.8876 101.461 21.6401 102.216 21.1449C102.994 20.6498 103.383 19.8481 103.383 18.7399C103.383 17.7968 103.053 17.0776 102.393 16.5825C101.756 16.0637 100.954 15.6393 99.9876 15.3092C99.0445 14.9791 98.007 14.6726 96.8752 14.3897C95.7435 14.1067 94.6942 13.7295 93.7275 13.2579C92.7844 12.7627 91.9827 12.1143 91.3225 11.3127C90.6859 10.4874 90.3676 9.37921 90.3676 7.98808C90.3676 6.8563 90.5915 5.85422 91.0395 4.98181C91.5111 4.1094 92.1477 3.37847 92.9494 2.78901C93.7511 2.17596 94.6824 1.71618 95.7435 1.40966C96.8281 1.10314 97.9952 0.949879 99.2449 0.949879C101.296 0.949879 103.112 1.38608 104.692 2.25849C106.271 3.10732 107.415 4.39235 108.122 6.11358C108.193 6.30221 108.228 6.45547 108.228 6.57336C108.228 6.73841 108.122 6.87988 107.91 6.99778C107.721 7.09209 107.356 7.1982 106.814 7.31609C106.271 7.43398 105.741 7.54008 105.222 7.6344C104.727 7.72871 104.302 7.77587 103.949 7.77587C103.713 7.77587 103.548 7.64619 103.454 7.38682C102.958 6.37295 102.31 5.67738 101.508 5.30012C100.707 4.89929 99.8579 4.69887 98.9619 4.69887C97.9716 4.69887 97.1228 4.94644 96.4155 5.44159C95.7081 5.93674 95.3544 6.67947 95.3544 7.66977C95.3544 8.32996 95.543 8.88406 95.9203 9.33205C96.2976 9.75647 96.7809 10.1219 97.3704 10.4285C97.9834 10.735 98.679 10.9943 99.4571 11.2065C100.235 11.4188 101.025 11.6428 101.827 11.8785C102.652 12.1143 103.454 12.3855 104.232 12.692C105.033 12.9985 105.729 13.3876 106.318 13.8591C106.931 14.3307 107.427 14.9084 107.804 15.5922C108.181 16.2759 108.37 17.113 108.37 18.1033C108.37 19.2586 108.134 20.2843 107.662 21.1803C107.191 22.0527 106.542 22.7836 105.717 23.3731C104.916 23.9625 103.961 24.4105 102.852 24.7171C101.768 25 100.589 25.1415 99.3156 25.1415C98.2782 25.1415 97.2879 25.0354 96.3447 24.8232C95.4016 24.611 94.5174 24.3044 93.6921 23.9036C92.8905 23.5028 92.1713 22.9958 91.5347 22.3828C90.8981 21.7697 90.3911 21.0506 90.0139 20.2253Z" fill="#D12026"/>
<path d="M111.455 10.3577C111.337 10.3577 111.255 10.2162 111.207 9.93331C111.184 9.62679 111.172 9.27311 111.172 8.87227C111.172 8.44786 111.184 8.09418 111.207 7.81124C111.255 7.52829 111.337 7.38682 111.455 7.38682H113.612V6.14895L113.471 3.46099C113.471 3.39026 113.495 3.3431 113.542 3.31952C113.589 3.27237 113.695 3.237 113.86 3.21342C114.025 3.18984 114.261 3.17805 114.567 3.17805C114.898 3.15447 115.334 3.14268 115.876 3.14268C116.442 3.14268 116.878 3.15447 117.185 3.17805C117.515 3.17805 117.762 3.18984 117.927 3.21342C118.092 3.237 118.199 3.27237 118.246 3.31952C118.293 3.3431 118.316 3.39026 118.316 3.46099L118.175 6.14895V7.38682H122.49C122.608 7.38682 122.678 7.54008 122.702 7.8466C122.726 8.12955 122.737 8.47144 122.737 8.87227C122.737 9.27311 122.726 9.62679 122.702 9.93331C122.678 10.2162 122.608 10.3577 122.49 10.3577H118.175V19.7656C118.175 20.0957 118.199 20.414 118.246 20.7205C118.293 21.027 118.375 21.2982 118.493 21.534C118.635 21.7462 118.823 21.923 119.059 22.0645C119.295 22.1824 119.601 22.2413 119.979 22.2413C120.262 22.2413 120.521 22.2059 120.757 22.1352C121.016 22.0645 121.311 21.9348 121.641 21.7462C121.782 21.6754 121.889 21.6401 121.959 21.6401C122.077 21.6401 122.172 21.7344 122.242 21.923C122.313 22.088 122.384 22.3828 122.454 22.8072C122.525 23.1609 122.572 23.4202 122.596 23.5853C122.643 23.7503 122.667 23.8918 122.667 24.0097C122.667 24.1512 122.608 24.2455 122.49 24.2926C121.924 24.552 121.311 24.7524 120.651 24.8939C120.014 25.0354 119.295 25.1061 118.493 25.1061C116.984 25.1061 115.794 24.7642 114.921 24.0804C114.049 23.3731 113.612 22.2177 113.612 20.6144V10.3577H111.455ZM133.569 10.6053C132.296 10.6053 131.341 11.1122 130.704 12.1261C130.091 13.14 129.785 14.5901 129.785 16.4764C129.785 18.3391 130.091 19.7891 130.704 20.8266C131.341 21.8405 132.296 22.3474 133.569 22.3474C134.866 22.3474 135.821 21.8405 136.434 20.8266C137.07 19.7891 137.389 18.3391 137.389 16.4764C137.389 14.5901 137.07 13.14 136.434 12.1261C135.821 11.1122 134.866 10.6053 133.569 10.6053ZM133.569 7.24535C135.031 7.24535 136.292 7.48114 137.353 7.95271C138.438 8.42428 139.322 9.07269 140.006 9.89794C140.713 10.6996 141.232 11.6428 141.562 12.7274C141.916 13.812 142.093 14.9673 142.093 16.1934C142.093 17.4195 141.916 18.5748 141.562 19.6595C141.232 20.7441 140.713 21.699 140.006 22.5243C139.322 23.3259 138.438 23.9625 137.353 24.4341C136.292 24.9057 135.031 25.1415 133.569 25.1415C132.107 25.1415 130.846 24.9057 129.785 24.4341C128.724 23.9625 127.839 23.3259 127.132 22.5243C126.448 21.699 125.93 20.7441 125.576 19.6595C125.246 18.5748 125.081 17.4195 125.081 16.1934C125.081 14.9673 125.246 13.812 125.576 12.7274C125.93 11.6428 126.448 10.6996 127.132 9.89794C127.839 9.07269 128.724 8.42428 129.785 7.95271C130.846 7.48114 132.107 7.24535 133.569 7.24535ZM145.998 7.70513C145.998 7.6344 146.022 7.58724 146.069 7.56366C146.116 7.5165 146.222 7.48114 146.387 7.45756C146.552 7.43398 146.8 7.42219 147.13 7.42219C147.46 7.39861 147.896 7.38682 148.439 7.38682C149.005 7.38682 149.441 7.39861 149.747 7.42219C150.077 7.42219 150.313 7.43398 150.455 7.45756C150.62 7.48114 150.726 7.5165 150.773 7.56366C150.82 7.58724 150.844 7.6344 150.844 7.70513L150.702 9.79184V17.3959C150.702 17.9854 150.726 18.5984 150.773 19.235C150.844 19.8717 151.032 20.4258 151.339 20.8973C151.575 21.251 151.869 21.5457 152.223 21.7815C152.6 21.9937 153.096 22.0998 153.709 22.0998C155.029 22.0998 155.972 21.6283 156.538 20.6851C157.104 19.742 157.387 18.3744 157.387 16.5825V9.79184L157.245 7.70513C157.245 7.6344 157.269 7.58724 157.316 7.56366C157.363 7.5165 157.469 7.48114 157.634 7.45756C157.799 7.43398 158.035 7.42219 158.342 7.42219C158.672 7.39861 159.12 7.38682 159.686 7.38682C160.252 7.38682 160.688 7.39861 160.994 7.42219C161.324 7.42219 161.572 7.43398 161.737 7.45756C161.902 7.48114 162.008 7.5165 162.055 7.56366C162.103 7.58724 162.126 7.6344 162.126 7.70513L161.985 9.79184V21.251L162.126 24.6817C162.126 24.7524 162.103 24.8114 162.055 24.8585C162.008 24.8821 161.902 24.9057 161.737 24.9293C161.596 24.9528 161.36 24.9764 161.03 25C160.723 25 160.287 25 159.721 25C159.179 25 158.743 25 158.412 25C158.106 24.9764 157.87 24.9528 157.705 24.9293C157.54 24.9057 157.434 24.8821 157.387 24.8585C157.363 24.8114 157.351 24.7524 157.351 24.6817L157.493 21.7462C157.092 22.7365 156.455 23.5499 155.583 24.1865C154.711 24.8232 153.602 25.1415 152.258 25.1415C151.197 25.1415 150.301 25 149.571 24.7171C148.84 24.4105 148.215 23.9979 147.696 23.4792C147.154 22.9133 146.753 22.2295 146.494 21.4278C146.258 20.6262 146.14 19.6948 146.14 18.6338V9.79184L145.998 7.70513ZM178.086 11.1712C178.086 11.6899 177.745 11.9493 177.061 11.9493C176.07 11.9493 175.233 12.0907 174.55 12.3737C173.889 12.6566 173.324 13.0575 172.852 13.5762C172.333 14.1421 171.968 14.8141 171.756 15.5922C171.543 16.3703 171.437 17.2898 171.437 18.3508V20.5083L171.579 24.6817C171.579 24.7524 171.555 24.8114 171.508 24.8585C171.461 24.8821 171.355 24.9057 171.19 24.9293C171.025 24.9528 170.777 24.9764 170.447 25C170.14 25 169.704 25 169.138 25C168.596 25 168.16 25 167.83 25C167.523 24.9764 167.287 24.9528 167.122 24.9293C166.957 24.9057 166.851 24.8821 166.804 24.8585C166.757 24.8114 166.733 24.7524 166.733 24.6817L166.875 20.5083V9.65036L166.733 7.70513C166.733 7.6344 166.745 7.58724 166.769 7.56366C166.816 7.5165 166.922 7.48114 167.087 7.45756C167.252 7.43398 167.488 7.42219 167.794 7.42219C168.101 7.39861 168.537 7.38682 169.103 7.38682C169.645 7.38682 170.07 7.39861 170.376 7.42219C170.706 7.42219 170.942 7.43398 171.084 7.45756C171.249 7.48114 171.355 7.5165 171.402 7.56366C171.449 7.58724 171.473 7.6344 171.473 7.70513L171.331 9.65036V12.1968C171.685 10.7114 172.416 9.52068 173.524 8.6247C174.632 7.70513 175.929 7.24535 177.414 7.24535C177.862 7.24535 178.086 7.46935 178.086 7.91734V11.1712ZM180.644 21.5693C180.526 21.4278 180.467 21.2746 180.467 21.1095C180.467 20.9681 180.538 20.862 180.68 20.7912C180.821 20.6969 181.175 20.5908 181.741 20.4729C182.495 20.3314 183.085 20.2136 183.509 20.1192C183.933 20.0249 184.24 19.9778 184.429 19.9778C184.57 19.9778 184.664 20.0013 184.712 20.0485C184.782 20.0957 184.853 20.2018 184.924 20.3668C185.584 21.6872 186.704 22.3474 188.284 22.3474C188.897 22.3474 189.463 22.1706 189.981 21.8169C190.524 21.4396 190.795 20.8738 190.795 20.1192C190.795 19.2704 190.465 18.6927 189.804 18.3862C189.168 18.0797 188.295 17.8203 187.187 17.6081C186.338 17.4667 185.525 17.3016 184.747 17.113C183.969 16.9243 183.285 16.6532 182.696 16.2995C182.106 15.9458 181.635 15.4978 181.281 14.9555C180.951 14.3897 180.786 13.6823 180.786 12.8335C180.786 11.9611 180.963 11.183 181.316 10.4992C181.67 9.79183 182.165 9.20237 182.802 8.7308C183.438 8.23565 184.193 7.87018 185.065 7.6344C185.961 7.37503 186.94 7.24535 188.001 7.24535C189.887 7.24535 191.408 7.58724 192.563 8.27102C193.742 8.9548 194.567 9.86257 195.039 10.9943C195.086 11.183 195.11 11.3009 195.11 11.348C195.11 11.4659 195.015 11.572 194.827 11.6663C194.662 11.7606 194.237 11.8785 193.553 12.02C192.94 12.1615 192.457 12.2676 192.103 12.3383C191.75 12.4091 191.502 12.4444 191.361 12.4444C191.148 12.4444 190.983 12.3383 190.866 12.1261C190.606 11.7489 190.241 11.407 189.769 11.1004C189.321 10.7703 188.72 10.6053 187.965 10.6053C187.282 10.6053 186.692 10.7703 186.197 11.1004C185.725 11.407 185.49 11.9021 185.49 12.5859C185.49 13.1518 185.702 13.5762 186.126 13.8591C186.574 14.1185 187.246 14.3425 188.142 14.5311C189.038 14.6962 189.922 14.8848 190.795 15.097C191.667 15.2856 192.445 15.5568 193.129 15.9105C193.836 16.2641 194.402 16.7357 194.827 17.3252C195.275 17.8911 195.499 18.6456 195.499 19.5887C195.499 20.4847 195.31 21.2746 194.933 21.9584C194.579 22.6421 194.072 23.2198 193.412 23.6914C192.752 24.163 191.962 24.5284 191.042 24.7878C190.146 25.0236 189.156 25.1415 188.071 25.1415C186.327 25.1415 184.818 24.8467 183.544 24.2573C182.271 23.6678 181.304 22.7718 180.644 21.5693Z" fill="#231F20"/>
<rect x="204.572" y="1.48549" width="23.6124" height="23.3078" fill="#CF0A2B"/>
<rect x="213.603" y="3.42775" width="5.54993" height="19.4232" fill="white"/>
<rect x="226.216" y="10.4003" width="5.47833" height="19.677" transform="rotate(90 226.216 10.4003)" fill="white"/>
</svg>
