<svg width="20" height="17" viewBox="0 0 20 17" fill="none" xmlns="http://www.w3.org/2000/svg">
<path d="M6.61288 2.70632C6.58062 2.67406 6.58062 2.67406 6.54836 2.64181C6.38707 2.48052 6.32256 2.416 6.32256 2.28697C6.32256 2.12568 6.38707 2.09342 6.54836 1.93213C6.61288 1.86761 6.70965 1.77084 6.77417 1.70632C6.87094 1.57729 6.87094 1.416 6.74191 1.31923C6.61288 1.22245 6.45159 1.22245 6.35482 1.35148C6.2903 1.416 6.22578 1.48052 6.16127 1.54503C5.96772 1.73858 5.77417 1.93213 5.77417 2.31923C5.77417 2.70632 5.96772 2.89987 6.16127 3.09342C6.19353 3.12568 6.19352 3.12568 6.22578 3.15794C6.41933 3.31923 6.54836 3.44826 6.54836 3.73858C6.54836 4.06116 6.38707 4.25471 6.19353 4.44826C6.16127 4.48052 6.16127 4.48052 6.12901 4.51277C6.03223 4.64181 6.03223 4.8031 6.16127 4.89987C6.22578 4.93213 6.2903 4.96439 6.35482 4.96439C6.41933 4.96439 6.51611 4.93213 6.58062 4.86761C6.61288 4.83536 6.61288 4.83535 6.64514 4.8031C6.87094 4.57729 7.16127 4.25471 7.16127 3.70632C7.12901 3.15794 6.83869 2.89987 6.61288 2.70632Z" fill="#CC0000"/>
<path d="M10.5482 1.44827C10.5159 1.41601 10.5159 1.41601 10.4837 1.38375C10.3224 1.22246 10.2579 1.15794 10.2579 1.02891C10.2579 0.867621 10.3224 0.835363 10.4837 0.674073C10.5482 0.609557 10.645 0.512782 10.7095 0.448266C10.8062 0.319234 10.8062 0.157944 10.6772 0.0611693C10.5482 -0.0356049 10.3869 -0.0356047 10.2901 0.0934275C10.2256 0.157944 10.1611 0.22246 10.0966 0.286976C9.90302 0.480524 9.70947 0.674073 9.70947 1.06117C9.70947 1.44827 9.90302 1.64181 10.0966 1.83536C10.1288 1.86762 10.1288 1.86762 10.1611 1.89988C10.3546 2.06117 10.4837 2.1902 10.4837 2.48052C10.4837 2.8031 10.3224 2.99665 10.1288 3.1902C10.0966 3.22246 10.0966 3.22246 10.0643 3.25472C9.96754 3.38375 9.96754 3.54504 10.0966 3.64181C10.1611 3.67407 10.2256 3.70633 10.2901 3.70633C10.3546 3.70633 10.4514 3.67407 10.5159 3.60956C10.5482 3.5773 10.5482 3.5773 10.5804 3.54504C10.8062 3.31923 11.0966 2.99665 11.0966 2.44827C11.0643 1.89988 10.774 1.64181 10.5482 1.44827Z" fill="#CC0000"/>
<path d="M14.516 2.70632C14.4837 2.67406 14.4837 2.67406 14.4514 2.64181C14.2901 2.48052 14.2256 2.416 14.2256 2.28697C14.2256 2.12568 14.2901 2.09342 14.4514 1.93213C14.516 1.86761 14.6127 1.77084 14.6772 1.70632C14.774 1.57729 14.774 1.416 14.645 1.31923C14.516 1.22245 14.3547 1.22245 14.2579 1.35148C14.1934 1.416 14.1289 1.48052 14.0643 1.54503C13.8708 1.73858 13.6772 1.93213 13.6772 2.31923C13.6772 2.70632 13.8708 2.89987 14.0643 3.09342C14.0966 3.12568 14.0966 3.12568 14.1289 3.15794C14.3224 3.31923 14.4514 3.44826 14.4514 3.73858C14.4514 4.06116 14.2901 4.25471 14.0966 4.44826C14.0643 4.48052 14.0643 4.48052 14.0321 4.51277C13.9353 4.64181 13.9353 4.8031 14.0643 4.89987C14.1289 4.93213 14.1934 4.96439 14.2579 4.96439C14.3224 4.96439 14.4192 4.93213 14.4837 4.86761C14.516 4.83536 14.516 4.83535 14.5482 4.8031C14.774 4.57729 15.0643 4.25471 15.0643 3.70632C14.9998 3.15794 14.7095 2.89987 14.516 2.70632Z" fill="#CC0000"/>
<path d="M19.6128 14.4482H1.16117C0.999882 14.4482 0.87085 14.5773 0.87085 14.7386V15.416C0.87085 16.1579 1.48375 16.7708 2.22569 16.7708H18.5483C19.2902 16.7708 19.9031 16.1579 19.9031 15.416V14.7386C19.9031 14.5773 19.7741 14.4482 19.6128 14.4482ZM19.3225 15.416C19.3225 15.8676 18.9676 16.2224 18.516 16.2224H2.22569C1.77408 16.2224 1.41924 15.8676 1.41924 15.416V15.0289H19.3225V15.416Z" fill="#CC0000"/>
<path d="M15.5159 8.38384C14.3869 7.28706 12.9353 6.60964 11.4191 6.38384L11.9675 5.83545C12.1288 5.67416 12.1933 5.41609 12.0966 5.19029C11.9998 4.96448 11.8062 4.83545 11.5482 4.83545H9.22559C8.99979 4.83545 8.77398 4.96448 8.67721 5.19029C8.58043 5.41609 8.64495 5.6419 8.80624 5.83545L9.35463 6.38384C7.80624 6.60964 6.38688 7.28706 5.22559 8.38384C3.8385 9.70642 3.03205 11.5129 2.96753 13.4161C2.96753 13.5774 3.09656 13.7064 3.22559 13.7064C3.38688 13.7064 3.51592 13.5774 3.51592 13.4484C3.58043 11.6742 4.32237 10.029 5.61269 8.80319C6.80624 7.6419 8.35463 6.99674 9.96753 6.89997C9.99979 6.89997 10.032 6.89997 10.0643 6.89997C10.0966 6.89997 10.1288 6.89997 10.1611 6.89997C10.1933 6.89997 10.1933 6.89997 10.2256 6.89997C10.2579 6.89997 10.3224 6.89997 10.3546 6.89997C10.3869 6.89997 10.4514 6.89997 10.4837 6.89997C10.5159 6.89997 10.5159 6.89997 10.5482 6.89997C10.5804 6.89997 10.6127 6.89997 10.6449 6.89997C10.6772 6.89997 10.7095 6.89997 10.7417 6.89997C12.3869 6.99674 13.903 7.6419 15.0966 8.80319C16.3869 10.029 17.1288 11.6742 17.1933 13.4484C17.1933 13.6096 17.3224 13.7387 17.4837 13.7064C17.6449 13.7064 17.774 13.5774 17.7417 13.4161C17.7095 11.4806 16.903 9.70642 15.5159 8.38384ZM10.6772 6.31932H10.6449C10.6127 6.31932 10.5804 6.31932 10.5482 6.31932C10.4837 6.31932 10.4514 6.31932 10.3869 6.31932C10.3224 6.31932 10.2901 6.31932 10.2256 6.31932C10.1933 6.31932 10.1611 6.31932 10.1288 6.31932H10.0966L9.22559 5.44835H11.5482L10.6772 6.31932Z" fill="#CC0000"/>
</svg>
