<svg width="24" height="14" viewBox="0 0 24 14" fill="none" xmlns="http://www.w3.org/2000/svg">
<path d="M0.351562 13.0156H23.6484" stroke="#CC0000" stroke-miterlimit="10" stroke-linecap="round" stroke-linejoin="round"/>
<path d="M1.10352 13.0156L6.00799 6.70988C6.11 6.57872 6.25261 6.48507 6.41351 6.44357C6.57441 6.40207 6.74452 6.41507 6.89725 6.48052L8.99438 7.3793L10.7574 5.9101C10.8946 5.79581 11.0679 5.73407 11.2464 5.73594C11.4249 5.73782 11.5969 5.80318 11.7316 5.92032L19.8913 13.0156" stroke="#CC0000" stroke-miterlimit="10" stroke-linecap="round" stroke-linejoin="round"/>
<path d="M7.16113 6.57071L11.4741 1.26241C11.7551 0.916566 12.2736 0.889801 12.5888 1.20489L15.7571 4.37326L16.6377 3.93296C16.9889 3.75737 17.4161 3.88178 17.6182 4.21848L22.8965 13.0156" stroke="#CC0000" stroke-miterlimit="10" stroke-linecap="round" stroke-linejoin="round"/>
<path d="M8.99414 7.3793L11.6244 13.0156" stroke="#CC0000" stroke-miterlimit="10" stroke-linecap="round" stroke-linejoin="round"/>
<path d="M15.1004 6.61841L14.5986 8.33398" stroke="#CC0000" stroke-miterlimit="10" stroke-linecap="round" stroke-linejoin="round"/>
<path d="M15.7574 4.37266L15.5322 5.14258" stroke="#CC0000" stroke-miterlimit="10" stroke-linecap="round" stroke-linejoin="round"/>
<path d="M4.10938 13.0156L5.98817 9.63384" stroke="#CC0000" stroke-miterlimit="10" stroke-linecap="round" stroke-linejoin="round"/>
</svg>
