<svg width="63" height="65" viewBox="0 0 63 65" fill="none" xmlns="http://www.w3.org/2000/svg">
<path d="M17.946 0.445312L0.24707 19.4453H17.946V0.445312Z" fill="#92071E"/>
<path d="M63 64.4453V0.445312H17.946V64.4453L40.6147 48.9476L63 64.4453Z" fill="#CC0000"/>
<g clip-path="url(#clip0_2405_15451)">
<path d="M46.4631 28.64L42.4749 21.0625L38.4867 28.64L32.1057 21.8602L36.0081 34.738C36.0329 34.8199 36.0834 34.8916 36.1521 34.9426C36.2208 34.9936 36.3041 35.0211 36.3897 35.0211H48.5601C48.6457 35.0211 48.729 34.9936 48.7977 34.9426C48.8665 34.8916 48.917 34.8199 48.9418 34.738L52.8441 21.8602L46.4631 28.64Z" fill="white"/>
<path d="M42.4751 19.8652C43.0257 19.8652 43.4721 19.4188 43.4721 18.8681C43.4721 18.3175 43.0257 17.8711 42.4751 17.8711C41.9244 17.8711 41.478 18.3175 41.478 18.8681C41.478 19.4188 41.9244 19.8652 42.4751 19.8652Z" fill="white"/>
<path d="M31.2373 21.0605C31.6779 21.0605 32.0351 20.7033 32.0351 20.2627C32.0351 19.822 31.6779 19.4648 31.2373 19.4648C30.7966 19.4648 30.4395 19.822 30.4395 20.2627C30.4395 20.7033 30.7966 21.0605 31.2373 21.0605Z" fill="white"/>
<path d="M53.6416 21.0605C54.0822 21.0605 54.4394 20.7033 54.4394 20.2627C54.4394 19.822 54.0822 19.4648 53.6416 19.4648C53.2009 19.4648 52.8438 19.822 52.8438 20.2627C52.8438 20.7033 53.2009 21.0605 53.6416 21.0605Z" fill="white"/>
</g>
<defs>
<clipPath id="clip0_2405_15451">
<rect width="24" height="24" fill="white" transform="translate(30.4395 14.4453)"/>
</clipPath>
</defs>
</svg>
