<svg width="18" height="22" viewBox="0 0 18 22" fill="none" xmlns="http://www.w3.org/2000/svg">
<path d="M13.4765 2.24927H16.7915V3.03333H13.4765V2.24927ZM4.15709 21.8346H14.7724C15.3338 21.8525 15.7401 21.2061 15.4915 20.7093L13.9802 17.4674H13.1149L14.7724 21.0505L4.14897 21.0383L5.62772 17.309C5.35959 17.244 4.89241 17.0408 4.89241 17.0408L3.42178 20.7499C3.20566 21.2471 3.61597 21.85 4.15709 21.8346Z" fill="#0B0B0B"/>
<path d="M17.5755 2.18028C17.5755 1.07122 16.6737 0.165283 15.5646 0.165283H14.7074C13.5983 0.165283 12.6924 1.07122 12.6924 2.18028V4.54466C12.6924 5.65372 13.5983 6.5556 14.7074 6.5556H15.5646C16.6737 6.5556 17.5755 5.65372 17.5755 4.54466V2.18028ZM16.7915 4.54466C16.7915 5.2231 16.239 5.77153 15.5646 5.77153H14.7074C14.029 5.77153 13.4765 5.2231 13.4765 4.54466C13.4793 4.03116 13.4744 2.747 13.4765 2.24935C13.4411 1.54775 14.0022 0.947315 14.7074 0.949346H15.5646C16.2654 0.947315 16.8268 1.54775 16.7915 2.24935V3.03341V4.54466ZM17.3805 14.8634C17.4159 13.3412 15.9639 12.0591 14.4596 12.2756L8.16678 13.0353C7.35672 13.1108 7.23688 12.3621 7.07803 11.7272L12.6233 10.8943C14.5364 10.5446 14.1171 7.74957 12.1846 7.98153L6.23303 8.87528C5.55053 6.78716 4.64053 4.43091 3.60866 2.94403C2.52234 1.39947 0.0616882 2.49188 0.464282 4.33747L2.59709 14.124C2.83394 15.2957 3.80244 16.6627 4.93669 17.01C4.92097 17.0189 4.90614 17.0292 4.89241 17.0409C4.89241 17.0409 5.35959 17.244 5.62772 17.309C6.27731 17.617 12.2918 17.4122 13.1149 17.4675C13.5252 17.4671 14.3629 17.4675 14.7724 17.4675C16.2105 17.4675 17.3805 16.2975 17.3805 14.8634ZM12.3024 8.75747C13.2035 8.63844 13.3997 9.97013 12.5055 10.1184L6.86678 10.9675C6.75303 10.5531 6.61897 10.1022 6.47272 9.63091L12.3024 8.75747ZM5.29175 16.7939L5.47334 16.6834C5.47334 16.685 5.3925 16.7334 5.29175 16.7939ZM12.4487 16.9678C12.4487 16.956 12.5563 16.9507 12.7168 16.9487C12.5937 16.9519 12.4974 16.958 12.4487 16.9678ZM13.8433 16.9584C14.0923 16.9633 14.2768 16.9678 14.2768 16.9678C14.2959 16.9706 14.1062 16.9645 13.8433 16.9584ZM14.7724 16.6834H6.74491C6.31834 16.6834 5.89991 16.6062 5.50584 16.4559C4.43578 16.0558 3.59769 15.082 3.36084 13.9575L1.23209 4.17091C1.13459 3.72403 1.35803 3.2731 1.77241 3.08216C2.20303 2.8831 2.70272 3.0131 2.96678 3.39091C4.62834 5.78372 5.99334 10.6425 6.50522 12.6168C6.70834 13.3968 7.45991 13.9087 8.26022 13.8112L14.553 13.0515C17.1136 12.8521 17.3147 16.5758 14.7724 16.6834Z" fill="#0B0B0B"/>
</svg>
