<svg width="25" height="24" viewBox="0 0 25 24" fill="none" xmlns="http://www.w3.org/2000/svg">
<path d="M23.6902 0H0.627686C0.368795 0 0.158936 0.35688 0.158936 0.796964V23.203C0.158936 23.6432 0.368795 24 0.627686 24H23.6902C23.949 24 24.1589 23.6432 24.1589 23.203V0.796964C24.1589 0.356801 23.949 0 23.6902 0ZM23.2214 22.406H1.09644V1.59393H23.2214V22.406Z" fill="white"/>
<path d="M4.39336 14.4381C4.6522 14.4381 4.86211 14.2282 4.86211 13.9694V12.744C5.10664 12.7426 5.35117 12.7417 5.5957 12.7413C6.53925 12.7412 7.30687 11.9947 7.30687 11.0771C7.30683 10.1595 6.5392 9.41298 5.59565 9.41298L4.39336 9.41303C4.13386 9.41303 3.92461 9.62425 3.92461 9.88178L3.92456 13.9693C3.92461 14.2282 4.13447 14.4381 4.39336 14.4381ZM5.59575 10.3505C6.01509 10.3505 6.36937 10.6833 6.36942 11.0772C6.36942 11.471 6.01509 11.8038 5.5957 11.8038C5.42817 11.8038 5.12644 11.8052 4.86783 11.8065C4.86408 11.0819 4.86614 11.2792 4.86356 10.3506L5.59575 10.3505ZM14.0804 14.5865C14.946 14.5865 15.6977 14.0227 15.8287 13.2751C15.9278 12.7097 15.6609 11.9709 14.6148 11.5923C14.072 11.3959 13.5677 11.1818 13.4262 11.1209C13.2772 11.0096 13.2808 10.8534 13.2899 10.789C13.3154 10.6089 13.4617 10.4626 13.6813 10.3977C14.3327 10.2053 14.9276 10.6701 14.9409 10.6806C15.1406 10.8433 15.4345 10.8144 15.5986 10.6154C15.7634 10.4156 15.735 10.1202 15.5352 9.95551C15.4957 9.92293 14.555 9.16183 13.4156 9.49867C12.8429 9.66789 12.439 10.1119 12.3617 10.6574C12.2898 11.1646 12.5139 11.6516 12.9466 11.9282C12.9672 11.9414 12.9888 11.953 13.0112 11.9627C13.0361 11.9736 13.6284 12.2323 14.2958 12.4738C14.4998 12.5477 14.9677 12.7577 14.9054 13.1131C14.8592 13.3765 14.538 13.6489 14.0804 13.6489C13.6299 13.6489 13.1961 13.4705 12.9199 13.1716C12.7441 12.9814 12.4476 12.9698 12.2575 13.1454C12.0674 13.3211 12.0556 13.6177 12.2313 13.8078C12.6817 14.2955 13.373 14.5865 14.0804 14.5865ZM18.626 14.5865C19.4916 14.5865 20.2432 14.0228 20.3743 13.2752C20.4734 12.7098 20.2066 11.9709 19.1604 11.5923C18.6177 11.3959 18.1133 11.1818 17.9719 11.1209C17.8228 11.0096 17.8264 10.8534 17.8356 10.789C17.8611 10.6089 18.0074 10.4627 18.2269 10.3978C18.8783 10.2054 19.4732 10.6701 19.4865 10.6806C19.6863 10.8433 19.9802 10.8144 20.1442 10.6154C20.309 10.4156 20.2806 10.1202 20.0809 9.95556C20.0414 9.92298 19.1008 9.16187 17.9612 9.49872C17.3885 9.66793 16.9847 10.1119 16.9074 10.6574C16.8355 11.1646 17.0596 11.6516 17.4923 11.9283C17.5129 11.9415 17.5345 11.953 17.5569 11.9628C17.5818 11.9737 18.1741 12.2324 18.8415 12.4738C19.0455 12.5476 19.5133 12.7577 19.4509 13.1132C19.4047 13.3765 19.0836 13.649 18.626 13.649C18.1754 13.649 17.7416 13.4705 17.4655 13.1717C17.2898 12.9815 16.9933 12.9698 16.8031 13.1455C16.6129 13.3211 16.6012 13.6177 16.7769 13.8079C17.2273 14.2955 17.9185 14.5865 18.626 14.5865ZM7.45547 14.3337C7.69772 14.4249 7.96809 14.3027 8.0594 14.0604L8.30569 13.4068H10.0746L10.3182 14.059C10.3516 14.1486 10.4116 14.2257 10.4901 14.2802C10.5686 14.3347 10.6618 14.3639 10.7574 14.364C11.0827 14.364 11.3112 14.0382 11.1965 13.7311C9.6232 9.51836 9.71789 9.77078 9.71151 9.75554C9.66904 9.65387 9.59739 9.56707 9.50561 9.50611C9.41382 9.44514 9.30603 9.41275 9.19584 9.41303C8.96044 9.41308 8.754 9.55895 8.67389 9.77139L7.18223 13.7298C7.09087 13.972 7.21322 14.2424 7.45547 14.3337ZM9.19415 11.0491L9.7245 12.4693H8.65898L9.19415 11.0491Z" fill="white"/>
</svg>
