<svg width="25" height="25" viewBox="0 0 25 25" fill="none" xmlns="http://www.w3.org/2000/svg">
<g clip-path="url(#clip0_2499_19740)">
<mask id="path-1-inside-1_2499_19740" fill="white">
<path d="M7.62881 23.8022L16.898 14.532L21.0087 14.532C21.6576 14.532 22.3115 14.3881 22.9215 14.1041L23.3215 13.8931C23.8584 13.6441 24.1914 13.1231 24.1914 12.5322C24.1914 11.9412 23.8584 11.4203 23.3445 11.1823L22.8995 10.9493C22.3116 10.6763 21.6586 10.5323 21.0087 10.5323L16.8981 10.5323L7.63078 1.26514C7.15884 0.793196 6.53189 0.533202 5.86393 0.533202L4.69201 0.533202C4.50903 0.533202 4.34104 0.633178 4.25405 0.793196C4.16607 0.953167 4.17207 1.14918 4.27205 1.30315L10.3105 10.7263C8.79768 10.8193 7.53479 10.9453 5.99789 11.0993L4.42302 11.2583L2.11021 7.75758C2.01624 7.61659 1.86025 7.5326 1.69226 7.5326L0.692363 7.5326C0.541393 7.5326 0.397405 7.60159 0.302398 7.71957C0.206405 7.83857 0.17041 7.99353 0.203407 8.14052L1.18034 12.5321L0.203407 16.9238C0.19539 16.9598 0.191406 16.9958 0.191406 17.0318C0.191406 17.1448 0.229417 17.2547 0.301412 17.3447C0.397403 17.4627 0.541393 17.5317 0.692363 17.5317L1.69226 17.5317C1.86025 17.5317 2.01722 17.4477 2.10923 17.3067L4.41903 13.806L5.99892 13.965C7.53381 14.119 8.79567 14.245 10.3086 14.3379L4.2721 23.7611C4.17212 23.9161 4.1671 24.1111 4.2541 24.2701C4.34109 24.4311 4.50907 24.5311 4.69206 24.5311L5.86398 24.5311C6.53189 24.5312 7.15884 24.2722 7.62881 23.8022Z"/>
</mask>
<path d="M7.62881 23.8022L16.898 14.532L21.0087 14.532C21.6576 14.532 22.3115 14.3881 22.9215 14.1041L23.3215 13.8931C23.8584 13.6441 24.1914 13.1231 24.1914 12.5322C24.1914 11.9412 23.8584 11.4203 23.3445 11.1823L22.8995 10.9493C22.3116 10.6763 21.6586 10.5323 21.0087 10.5323L16.8981 10.5323L7.63078 1.26514C7.15884 0.793196 6.53189 0.533202 5.86393 0.533202L4.69201 0.533202C4.50903 0.533202 4.34104 0.633178 4.25405 0.793196C4.16607 0.953167 4.17207 1.14918 4.27205 1.30315L10.3105 10.7263C8.79768 10.8193 7.53479 10.9453 5.99789 11.0993L4.42302 11.2583L2.11021 7.75758C2.01624 7.61659 1.86025 7.5326 1.69226 7.5326L0.692363 7.5326C0.541393 7.5326 0.397405 7.60159 0.302398 7.71957C0.206405 7.83857 0.17041 7.99353 0.203407 8.14052L1.18034 12.5321L0.203407 16.9238C0.19539 16.9598 0.191406 16.9958 0.191406 17.0318C0.191406 17.1448 0.229417 17.2547 0.301412 17.3447C0.397403 17.4627 0.541393 17.5317 0.692363 17.5317L1.69226 17.5317C1.86025 17.5317 2.01722 17.4477 2.10923 17.3067L4.41903 13.806L5.99892 13.965C7.53381 14.119 8.79567 14.245 10.3086 14.3379L4.2721 23.7611C4.17212 23.9161 4.1671 24.1111 4.2541 24.2701C4.34109 24.4311 4.50907 24.5311 4.69206 24.5311L5.86398 24.5311C6.53189 24.5312 7.15884 24.2722 7.62881 23.8022Z" fill="white" stroke="white" stroke-width="2" mask="url(#path-1-inside-1_2499_19740)"/>
</g>
<defs>
<clipPath id="clip0_2499_19740">
<rect width="24" height="24" fill="white" transform="translate(24.1914 0.53125) rotate(90)"/>
</clipPath>
</defs>
</svg>
