<svg width="17" height="17" viewBox="0 0 17 17" fill="none" xmlns="http://www.w3.org/2000/svg">
<g clip-path="url(#clip0_2328_31193)">
<path d="M11.3472 10.1728L8.68842 5.12109L6.02963 10.1728L1.77563 5.65287L4.3772 14.2381C4.39374 14.2927 4.42741 14.3405 4.47323 14.3745C4.51905 14.4085 4.57458 14.4268 4.63163 14.4268H12.7452C12.8023 14.4268 12.8578 14.4085 12.9036 14.3745C12.9495 14.3405 12.9831 14.2927 12.9997 14.2381L15.6012 5.65287L11.3472 10.1728Z" fill="#CC0000"/>
<path d="M8.68849 4.32352C9.05559 4.32352 9.35318 4.02592 9.35318 3.65883C9.35318 3.29173 9.05559 2.99414 8.68849 2.99414C8.32139 2.99414 8.0238 3.29173 8.0238 3.65883C8.0238 4.02592 8.32139 4.32352 8.68849 4.32352Z" fill="#CC0000"/>
<path d="M1.19667 5.12137C1.49042 5.12137 1.72854 4.88324 1.72854 4.58949C1.72854 4.29575 1.49042 4.05762 1.19667 4.05762C0.902923 4.05762 0.664795 4.29575 0.664795 4.58949C0.664795 4.88324 0.902923 5.12137 1.19667 5.12137Z" fill="#CC0000"/>
<path d="M16.1329 5.12137C16.4267 5.12137 16.6648 4.88324 16.6648 4.58949C16.6648 4.29575 16.4267 4.05762 16.1329 4.05762C15.8392 4.05762 15.6011 4.29575 15.6011 4.58949C15.6011 4.88324 15.8392 5.12137 16.1329 5.12137Z" fill="#CC0000"/>
</g>
<defs>
<clipPath id="clip0_2328_31193">
<rect width="16" height="16" fill="white" transform="translate(0.664795 0.710938)"/>
</clipPath>
</defs>
</svg>
