<svg width="45" height="25" viewBox="0 0 45 25" fill="none" xmlns="http://www.w3.org/2000/svg">
<path d="M41.4341 15.3418H0.308594L2.46193 1.66048C2.4941 1.4562 2.66282 1.26603 2.93481 1.12749C3.2068 0.988955 3.56231 0.912107 3.93121 0.912109H43.447C43.6515 0.912108 43.8538 0.935754 44.041 0.981544C44.2282 1.02733 44.3962 1.09427 44.5344 1.17809C44.6726 1.26192 44.7779 1.3608 44.8436 1.46846C44.9094 1.57612 44.9341 1.69021 44.9163 1.80347L42.9033 14.5934C42.8712 14.7977 42.7024 14.9879 42.4305 15.1264C42.1585 15.2649 41.803 15.3418 41.4341 15.3418Z" fill="#CC0000"/>
<path d="M0.308594 15.3418H10.6153V24.9125H9.14291L0.308594 15.3418Z" fill="#92071E"/>
</svg>
