<svg width="20" height="21" viewBox="0 0 20 21" fill="none" xmlns="http://www.w3.org/2000/svg">
<g clip-path="url(#clip0_1507_11418)">
<path d="M17.8125 4.0249H16.25V2.7749C16.25 2.08553 15.6894 1.5249 15 1.5249C14.3106 1.5249 13.75 2.08553 13.75 2.7749V4.0249H6.25V2.7749C6.25 2.08553 5.68937 1.5249 5 1.5249C4.31063 1.5249 3.75 2.08553 3.75 2.7749V4.0249H2.1875C1.32594 4.0249 0.625 4.72584 0.625 5.5874V18.7124C0.625 19.574 1.32594 20.2749 2.1875 20.2749H17.8125C18.6741 20.2749 19.375 19.574 19.375 18.7124V5.5874C19.375 4.72584 18.6741 4.0249 17.8125 4.0249ZM14.375 2.7749C14.375 2.43021 14.6553 2.1499 15 2.1499C15.3447 2.1499 15.625 2.43021 15.625 2.7749V5.2749C15.625 5.61959 15.3447 5.8999 15 5.8999C14.6553 5.8999 14.375 5.61959 14.375 5.2749V2.7749ZM4.375 2.7749C4.375 2.43021 4.65531 2.1499 5 2.1499C5.34469 2.1499 5.625 2.43021 5.625 2.7749V5.2749C5.625 5.61959 5.34469 5.8999 5 5.8999C4.65531 5.8999 4.375 5.61959 4.375 5.2749V2.7749ZM2.1875 4.6499H3.75V5.2749C3.75 5.96428 4.31063 6.5249 5 6.5249C5.68937 6.5249 6.25 5.96428 6.25 5.2749V4.6499H13.75V5.2749C13.75 5.96428 14.3106 6.5249 15 6.5249C15.6894 6.5249 16.25 5.96428 16.25 5.2749V4.6499H17.8125C18.3294 4.6499 18.75 5.07053 18.75 5.5874V7.7749H1.25V5.5874C1.25 5.07053 1.67062 4.6499 2.1875 4.6499ZM17.8125 19.6499H2.1875C1.67062 19.6499 1.25 19.2293 1.25 18.7124V8.3999H18.75V18.7124C18.75 19.2293 18.3294 19.6499 17.8125 19.6499Z" fill="#CC0000"/>
<path d="M10.3125 6.5249H9.6875V7.1499H10.3125V6.5249Z" fill="#CC0000"/>
<path d="M11.5625 6.5249H10.9375V7.1499H11.5625V6.5249Z" fill="#CC0000"/>
<path d="M9.0625 6.5249H8.4375V7.1499H9.0625V6.5249Z" fill="#CC0000"/>
<path d="M9.68742 18.4C7.68805 18.4 5.96023 17.0278 5.46367 15.134L6.77617 15.5715L6.97398 14.9787L5.09898 14.3537C4.98648 14.3162 4.86273 14.3456 4.7793 14.4293L3.5293 15.6793L3.97117 16.1212L4.8468 15.2456C5.39773 17.4343 7.38555 19.025 9.68742 19.025C12.1799 19.025 14.308 17.1618 14.6384 14.6912L14.019 14.6084C13.7299 16.77 11.868 18.4 9.68742 18.4Z" fill="#CC0000"/>
<path d="M14.5284 12.8046C13.9772 10.6155 11.9894 9.0249 9.68751 9.0249C7.19501 9.0249 5.06688 10.888 4.73657 13.3587L5.35595 13.4415C5.64501 11.2799 7.50688 9.6499 9.68751 9.6499C11.6869 9.6499 13.4147 11.0221 13.9113 12.9158L12.5988 12.4783L12.4009 13.0712L14.2759 13.6962C14.3084 13.7071 14.3422 13.7124 14.375 13.7124C14.4566 13.7124 14.5366 13.6802 14.5959 13.6208L15.8459 12.3708L15.4041 11.929L14.5284 12.8046Z" fill="#CC0000"/>
<path d="M9.59593 15.4958L11.7834 13.3083L11.3416 12.8665L9.37499 14.833L8.65843 14.1165L8.21655 14.5583L9.15405 15.4958C9.21499 15.5568 9.29499 15.5874 9.37499 15.5874C9.45499 15.5874 9.53499 15.5568 9.59593 15.4958Z" fill="#CC0000"/>
</g>
<defs>
<clipPath id="clip0_1507_11418">
<rect width="20" height="20" fill="white" transform="translate(0 0.899902)"/>
</clipPath>
</defs>
</svg>
