<svg width="19" height="19" viewBox="0 0 19 19" fill="none" xmlns="http://www.w3.org/2000/svg">
<g clip-path="url(#clip0_6418_12316)">
<path d="M0.692383 14.5258V15.6555C0.692383 15.9467 0.928492 16.1828 1.21973 16.1828C1.51096 16.1828 1.74707 15.9467 1.74707 15.6555V15.0531H17.6377V15.6555C17.6377 15.9467 17.8738 16.1828 18.165 16.1828C18.4563 16.1828 18.6924 15.9467 18.6924 15.6555V12.7938H0.692383V14.5258ZM16.753 8.35H2.63181C1.56243 8.35 0.692383 9.22005 0.692383 10.2895V11.7391H18.6924V10.2895C18.6924 9.22005 17.8223 8.35 16.753 8.35ZM7.71548 6.01562C7.22758 6.01562 6.83066 6.4125 6.83066 6.90037V7.29528H12.5541V6.90037C12.5541 6.4125 12.1572 6.01562 11.6694 6.01562H7.71548Z" fill="black"/>
<path d="M5.77583 6.90194C5.77583 5.83252 6.64588 4.96251 7.71533 4.96251H11.6692C12.7387 4.96251 13.6087 5.83252 13.6087 6.90194V7.29685H16.4329V4.64255C16.4329 3.57314 15.5629 2.70312 14.4934 2.70312H4.89109C3.82167 2.70312 2.95166 3.57314 2.95166 4.64255V7.29685H5.77583V6.90194Z" fill="black"/>
</g>
<defs>
<clipPath id="clip0_6418_12316">
<rect width="18" height="18" fill="white" transform="translate(0.692383 0.445312)"/>
</clipPath>
</defs>
</svg>
