<svg width="157" height="15" viewBox="0 0 157 15" fill="none" xmlns="http://www.w3.org/2000/svg">
<path d="M1 7C1 7 29.9408 7 78.5 6.99999C127.059 6.99999 156 6.99999 156 6.99999" stroke="#E0E0E0" stroke-width="1.15596" stroke-linecap="round" stroke-linejoin="round" stroke-dasharray="5.78 5.78"/>
<circle cx="46" cy="7.25684" r="2" fill="#CC0000"/>
<circle cx="111.872" cy="7.25684" r="2" fill="#CC0000"/>
<g clip-path="url(#clip0_1507_11461)">
<path d="M76.2987 13.7066L81.6561 8.34864L84.032 8.34864C84.4071 8.34864 84.7851 8.26542 85.1376 8.10128L85.3688 7.97934C85.6791 7.83544 85.8716 7.53432 85.8716 7.19276C85.8716 6.85121 85.6791 6.55009 85.3821 6.41256L85.1249 6.27789C84.7851 6.12011 84.4077 6.03689 84.032 6.03689L81.6562 6.03689L76.2998 0.680615C76.0271 0.40784 75.6647 0.257568 75.2786 0.257568L74.6013 0.257568C74.4955 0.257568 74.3984 0.315352 74.3482 0.407839C74.2973 0.5003 74.3008 0.613593 74.3586 0.702585L77.8487 6.14902C76.9743 6.20277 76.2444 6.27558 75.3561 6.36458L74.4458 6.45647L73.1091 4.43313C73.0547 4.35164 72.9646 4.30309 72.8675 4.30309L72.2896 4.30309C72.2023 4.30309 72.1191 4.34297 72.0642 4.41115C72.0087 4.47994 71.9879 4.5695 72.007 4.65446L72.5716 7.19274L72.007 9.73102C72.0023 9.75182 72 9.77263 72 9.79344C72 9.85875 72.022 9.92231 72.0636 9.97432C72.1191 10.0425 72.2023 10.0824 72.2896 10.0824L72.8675 10.0824C72.9646 10.0824 73.0553 10.0338 73.1085 9.95235L74.4435 7.92901L75.3567 8.0209C76.2438 8.10989 76.9731 8.18271 77.8476 8.23646L74.3586 13.6829C74.3008 13.7725 74.2979 13.8852 74.3482 13.9771C74.3985 14.0701 74.4956 14.1279 74.6013 14.1279L75.2787 14.1279C75.6647 14.128 76.0271 13.9783 76.2987 13.7066Z" fill="#CC0000"/>
</g>
<defs>
<clipPath id="clip0_1507_11461">
<rect width="13.8716" height="13.8716" fill="white" transform="translate(85.8716 0.256836) rotate(90)"/>
</clipPath>
</defs>
</svg>
