<svg width="89" height="21" viewBox="0 0 89 21" fill="none" xmlns="http://www.w3.org/2000/svg">
<g clip-path="url(#clip0_5166_15934)">
<path d="M64.8244 16.3968H61.4566V3.59752H64.8244V16.3968ZM56.8481 3.59752L54.6733 12.1752L52.1333 3.59752H48.8754L46.3372 12.1752L44.1624 3.59752H40.8602L44.4442 16.3968H47.9325L50.5008 7.61988L53.0727 16.3968H56.5521L60.1467 3.59752H56.8481ZM40.5855 12.7745C40.5855 10.3283 39.265 9.49827 36.3776 8.57043C35.0163 8.1336 33.7454 7.79636 33.7454 6.75321C33.7454 5.83935 34.6901 5.53007 35.3956 5.53007C35.9929 5.53007 37.1167 5.65413 37.2071 7.01181H40.3976C40.3426 4.42051 38.205 3.29173 35.4523 3.29173C33.7472 3.29173 32.338 3.76876 31.45 4.63019C30.8097 5.2696 30.4517 6.13254 30.4539 7.03103C30.4539 9.4144 32.0686 10.3684 33.8925 10.9154C35.9433 11.5322 37.2993 11.9009 37.2993 13.0122C37.2993 13.7548 36.7002 14.4956 35.5268 14.4956C34.0272 14.4956 33.4831 13.622 33.4476 12.7483H30.2217C30.2217 15.6978 32.7439 16.7777 35.5268 16.7777C39.0718 16.7777 40.5926 14.7822 40.5926 12.7693M76.7515 12.7693C76.7515 9.94733 74.6688 9.20122 72.143 8.4586C70.9288 8.10914 69.8388 7.79112 69.8388 6.74796C69.8388 5.83411 70.7817 5.52483 71.4889 5.52483C72.0898 5.52483 73.2083 5.64889 73.2987 7.00657H76.4892C76.4342 4.41527 74.2984 3.28649 71.5421 3.28649C69.8388 3.28649 68.4243 3.76351 67.5416 4.62495C66.9019 5.26478 66.544 6.12745 66.5455 7.02579C66.5455 9.40915 68.1567 10.3632 69.9859 10.9101C72.0349 11.5269 73.3944 11.8956 73.3944 13.0069C73.3944 13.7495 72.7971 14.4904 71.6219 14.4904C70.1188 14.4904 69.5729 13.6167 69.541 12.7431H66.315C66.315 15.6926 68.8355 16.7724 71.6219 16.7724C75.1669 16.7724 76.7497 14.777 76.7497 12.764M88.3489 12.764C88.3489 9.94209 86.2556 9.19598 83.7405 8.45336C82.5227 8.1039 81.4362 7.78588 81.4362 6.74272C81.4362 5.82886 82.3739 5.51959 83.0811 5.51959C83.6766 5.51959 84.8022 5.64365 84.8926 7.00133H88.0831C88.0281 4.41003 85.8799 3.28125 83.1325 3.28125C81.4504 3.30047 80.0324 3.77749 79.1461 4.63893C78.5078 5.27947 78.1506 6.14183 78.1518 7.03977C78.1518 9.42313 79.763 10.3772 81.5904 10.9241C83.6412 11.5409 84.9972 11.9096 84.9972 13.0209C84.9972 13.7635 84.4016 14.5044 83.2247 14.5044C81.7216 14.5044 81.1774 13.6307 81.142 12.7571H77.9054C77.9054 15.7066 80.4223 16.7934 83.2229 16.7934C86.7803 16.7934 88.3631 14.7979 88.3631 12.785" fill="#CF0A2C"/>
<path d="M23.0036 20.0156H0.80127L17.0746 0.015625H28.002L23.0036 20.0156Z" fill="#CF0A2C"/>
<path d="M19.6061 8.17262V3.86719H15.8625V8.17262H11.4951V11.863H15.859V16.1702H19.6043V11.863H19.6061H23.9753V8.17262H19.6061Z" fill="white"/>
</g>
<defs>
<clipPath id="clip0_5166_15934">
<rect width="87.5472" height="20" fill="white" transform="translate(0.80127 0.015625)"/>
</clipPath>
</defs>
</svg>
