<svg width="42" height="42" viewBox="0 0 42 42" fill="none" xmlns="http://www.w3.org/2000/svg">
<rect width="42" height="42" rx="10" fill="#CC0000"/>
<path fill-rule="evenodd" clip-rule="evenodd" d="M30.6686 21.7678C30.862 21.9366 30.9803 22.1752 30.9978 22.4312C31.0152 22.6872 30.9302 22.9396 30.7616 23.133L24.1936 30.6687C24.0643 30.8181 23.8924 30.9243 23.701 30.973C23.5095 31.0218 23.3077 31.0108 23.1227 30.9416C22.9377 30.8723 22.7783 30.7481 22.666 30.5856C22.5536 30.4231 22.4937 30.2301 22.4942 30.0326L22.4942 11.9675C22.4942 11.7108 22.5962 11.4647 22.7777 11.2832C22.9592 11.1017 23.2053 10.9997 23.462 10.9997C23.7187 10.9997 23.9648 11.1017 24.1463 11.2832C24.3278 11.4647 24.4298 11.7108 24.4298 11.9675L24.4298 27.4493L29.3022 21.862C29.4707 21.6685 29.7092 21.5499 29.9653 21.5322C30.2213 21.5146 30.4751 21.5993 30.6686 21.7678ZM11.3313 20.2323C11.138 20.0635 11.0197 19.8249 11.0022 19.5689C10.9848 19.3129 11.0698 19.0605 11.2384 18.8671L17.8064 11.3314C17.9357 11.182 18.1076 11.0758 18.299 11.027C18.4905 10.9783 18.6923 10.9892 18.8773 11.0585C19.0623 11.1277 19.2217 11.252 19.334 11.4145C19.4464 11.577 19.5063 11.77 19.5058 11.9675L19.5058 30.0326C19.5058 30.2892 19.4038 30.5354 19.2223 30.7169C19.0408 30.8984 18.7947 31.0003 18.538 31.0003C18.2813 31.0003 18.0352 30.8984 17.8537 30.7169C17.6722 30.5354 17.5702 30.2892 17.5702 30.0326L17.5702 14.5508L12.6978 20.1381C12.5293 20.3316 12.2908 20.4502 12.0347 20.4679C11.7787 20.4855 11.5249 20.4008 11.3313 20.2323Z" fill="white"/>
</svg>
