<svg width="41" height="40" viewBox="0 0 41 40" fill="none" xmlns="http://www.w3.org/2000/svg">
<path fill-rule="evenodd" clip-rule="evenodd" d="M20.8882 10.7921C21.0489 10.608 21.2762 10.4953 21.52 10.4787C21.7638 10.4621 22.0042 10.543 22.1884 10.7037L29.3653 16.9588C29.5075 17.082 29.6086 17.2457 29.6551 17.428C29.7016 17.6104 29.6911 17.8025 29.6252 17.9787C29.5592 18.1549 29.4409 18.3067 29.2861 18.4137C29.1314 18.5207 28.9476 18.5778 28.7594 18.5773L11.5546 18.5773C11.3102 18.5773 11.0757 18.4802 10.9029 18.3073C10.73 18.1345 10.6329 17.9001 10.6329 17.6556C10.6329 17.4112 10.73 17.1767 10.9029 17.0039C11.0757 16.831 11.3102 16.7339 11.5546 16.7339L26.2991 16.7339L20.9779 12.0936C20.7936 11.933 20.6807 11.7059 20.6638 11.462C20.647 11.2182 20.7277 10.9765 20.8882 10.7921ZM19.4258 29.2086C19.2651 29.3927 19.0378 29.5055 18.794 29.5221C18.5502 29.5386 18.3098 29.4577 18.1256 29.2971L10.9488 23.0419C10.8065 22.9188 10.7054 22.755 10.6589 22.5727C10.6125 22.3904 10.6229 22.1982 10.6889 22.022C10.7548 21.8458 10.8731 21.694 11.0279 21.587C11.1827 21.48 11.3665 21.4229 11.5546 21.4235L28.7594 21.4235C29.0039 21.4235 29.2383 21.5206 29.4111 21.6934C29.584 21.8663 29.6811 22.1007 29.6811 22.3451C29.6811 22.5896 29.584 22.824 29.4111 22.9969C29.2383 23.1697 29.0039 23.2668 28.7594 23.2668L14.0149 23.2668L19.3361 27.9072C19.5204 28.0677 19.6334 28.2949 19.6502 28.5387C19.667 28.7825 19.5863 29.0243 19.4258 29.2086Z" fill="#0B0B0B"/>
</svg>
