<svg width="18" height="18" viewBox="0 0 18 18" fill="none" xmlns="http://www.w3.org/2000/svg">
<path fill-rule="evenodd" clip-rule="evenodd" d="M11.1488 10.0522C10.8081 10.1914 10.5905 10.7248 10.3697 10.9972C10.2565 11.1368 10.1215 11.1586 9.94747 11.0886C8.66884 10.5792 7.68868 9.72598 6.98309 8.5493C6.86356 8.36684 6.88501 8.2227 7.02915 8.05324C7.24219 7.80223 7.51009 7.51711 7.56774 7.17891C7.69571 6.43078 6.71766 4.11012 5.42602 5.16164C1.7093 8.19035 11.6262 16.2232 13.416 11.8786C13.9222 10.6471 11.7134 9.8209 11.1488 10.0522ZM9.00001 16.4278C7.68551 16.4278 6.39212 16.0784 5.25973 15.4167C5.07798 15.3102 4.85825 15.2821 4.65505 15.3373L2.19446 16.0126L3.05157 14.1244C3.1089 13.9983 3.13187 13.8593 3.11816 13.7215C3.10446 13.5837 3.05456 13.452 2.97352 13.3397C2.05665 12.0688 1.57184 10.5683 1.57184 9C1.57184 4.90395 4.90395 1.57184 9.00001 1.57184C13.0961 1.57184 16.4278 4.90395 16.4278 9C16.4278 13.0957 13.0957 16.4278 9.00001 16.4278ZM9.00001 0C4.03735 0 7.05854e-06 4.03734 7.05854e-06 9C7.05854e-06 10.7459 0.49571 12.4225 1.43755 13.8776L0.0703196 16.8887C0.00853809 17.0247 -0.0132289 17.1755 0.00756592 17.3234C0.0283607 17.4714 0.090857 17.6103 0.187741 17.724C0.261633 17.8105 0.353381 17.88 0.456673 17.9276C0.559965 17.9752 0.672351 17.9999 0.786101 18C1.29305 18 4.05739 17.1313 4.76087 16.9383C6.0613 17.634 7.51993 18 9.00001 18C13.9623 18 18 13.9623 18 9C18 4.03734 13.9623 0 9.00001 0Z" fill="#39AE41"/>
</svg>
