<svg width="10" height="7" viewBox="0 0 10 7" fill="none" xmlns="http://www.w3.org/2000/svg">
<path d="M4.99999 6.63518C4.90599 6.63572 4.8128 6.6177 4.72578 6.58216C4.63875 6.54661 4.55959 6.49424 4.49285 6.42803L0.207136 2.14232C0.0726332 2.00782 -0.00292969 1.82539 -0.00292969 1.63518C-0.00292969 1.44496 0.0726332 1.26254 0.207136 1.12803C0.341639 0.993532 0.524063 0.917969 0.714279 0.917969C0.904494 0.917969 1.08692 0.993532 1.22142 1.12803L4.99999 4.91375L8.77857 1.13518C8.91521 1.01816 9.09098 0.957011 9.27075 0.963955C9.45052 0.970898 9.62104 1.04542 9.74825 1.17263C9.87546 1.29984 9.94999 1.47037 9.95693 1.65014C9.96387 1.82991 9.90273 2.00568 9.78571 2.14232L5.49999 6.42803C5.36695 6.56 5.18738 6.63439 4.99999 6.63518Z" fill="white"/>
</svg>
