<svg width="67" height="15" viewBox="0 0 67 15" fill="none" xmlns="http://www.w3.org/2000/svg">
<path d="M1.45508 7.65625C1.45508 7.65625 13.5638 7.63209 33.8809 7.59155C54.1979 7.551 66.3066 7.52684 66.3066 7.52684" stroke="#E0E0E0" stroke-width="1.15596" stroke-linecap="round" stroke-linejoin="round" stroke-dasharray="5.78 5.78"/>
<g clip-path="url(#clip0_4508_28202)">
<path d="M30.808 14.0414L36.1654 8.68336L38.5413 8.68336C38.9164 8.68336 39.2943 8.60013 39.6469 8.43599L39.8781 8.31406C40.1884 8.17015 40.3809 7.86904 40.3809 7.52748C40.3809 7.18592 40.1884 6.88481 39.8914 6.74727L39.6342 6.6126C39.2944 6.45483 38.917 6.37161 38.5413 6.37161L36.1655 6.37161L30.8091 1.01533C30.5363 0.742556 30.174 0.592285 29.7879 0.592285L29.1106 0.592285C29.0048 0.592285 28.9077 0.650069 28.8574 0.742556C28.8066 0.835017 28.8101 0.948309 28.8678 1.0373L32.358 6.48373C31.4836 6.53748 30.7536 6.6103 29.8653 6.69929L28.9551 6.79119L27.6183 4.76784C27.564 4.68635 27.4739 4.63781 27.3768 4.63781L26.7988 4.63781C26.7116 4.63781 26.6284 4.67768 26.5735 4.74587C26.518 4.81465 26.4972 4.90422 26.5162 4.98917L27.0809 7.52745L26.5162 10.0657C26.5116 10.0865 26.5093 10.1073 26.5093 10.1282C26.5093 10.1935 26.5313 10.257 26.5729 10.309C26.6284 10.3772 26.7116 10.4171 26.7988 10.4171L27.3768 10.4171C27.4739 10.4171 27.5646 10.3686 27.6178 10.2871L28.9528 8.26372L29.8659 8.35561C30.7531 8.44461 31.4824 8.51743 32.3568 8.57117L28.8679 14.0176C28.8101 14.1072 28.8072 14.2199 28.8575 14.3118C28.9077 14.4048 29.0048 14.4626 29.1106 14.4626L29.7879 14.4626C30.174 14.4627 30.5363 14.313 30.808 14.0414Z" fill="#CC0000"/>
</g>
<defs>
<clipPath id="clip0_4508_28202">
<rect width="13.8716" height="13.8716" fill="white" transform="translate(40.3809 0.591309) rotate(90)"/>
</clipPath>
</defs>
</svg>
