<svg width="201" height="22" viewBox="0 0 201 22" fill="none" xmlns="http://www.w3.org/2000/svg">
<path d="M2.02195 17.2541C1.96006 17.1096 1.92911 16.9652 1.92911 16.8208C1.92911 16.6764 2.00132 16.5526 2.14574 16.4494C2.29016 16.3463 2.59963 16.2431 3.07414 16.14C3.54866 16.0162 4.01287 15.913 4.46675 15.8305C4.92064 15.748 5.31263 15.7067 5.64273 15.7067C5.80778 15.7067 5.92126 15.7892 5.98315 15.9543C6.23072 16.4701 6.50925 16.9033 6.81871 17.2541C7.14881 17.6048 7.49954 17.8936 7.87091 18.1206C8.2629 18.3269 8.66521 18.4816 9.07783 18.5848C9.49046 18.6673 9.90308 18.7086 10.3157 18.7086C11.2441 18.7086 12.0384 18.4919 12.6986 18.0587C13.3794 17.6254 13.7199 16.924 13.7199 15.9543C13.7199 15.129 13.431 14.4998 12.8533 14.0665C12.2963 13.6126 11.5948 13.2413 10.749 12.9524C9.92371 12.6636 9.01594 12.3954 8.02564 12.1478C7.03534 11.9003 6.11725 11.5702 5.27137 11.1575C4.44612 10.7243 3.74466 10.1569 3.16699 9.45545C2.60994 8.73336 2.33142 7.76369 2.33142 6.54645C2.33142 5.55615 2.52742 4.67932 2.91941 3.91597C3.33204 3.15261 3.88908 2.51304 4.59054 1.99726C5.292 1.46085 6.10694 1.05854 7.03534 0.790334C7.98438 0.522129 9.00562 0.388027 10.0991 0.388027C11.894 0.388027 13.4826 0.769704 14.8649 1.53306C16.2472 2.27578 17.2478 3.40019 17.8667 4.90627C17.9286 5.07132 17.9596 5.20542 17.9596 5.30858C17.9596 5.45299 17.8667 5.57678 17.6811 5.67994C17.516 5.76246 17.1962 5.8553 16.7217 5.95846C16.2472 6.06162 15.783 6.15446 15.3291 6.23698C14.8958 6.31951 14.5245 6.36077 14.215 6.36077C14.0087 6.36077 13.8643 6.2473 13.7818 6.02035C13.3485 5.13321 12.7811 4.52459 12.0797 4.19449C11.3782 3.84376 10.6355 3.66839 9.8515 3.66839C8.98499 3.66839 8.24227 3.88502 7.62333 4.31828C7.00439 4.75153 6.69493 5.40142 6.69493 6.26793C6.69493 6.8456 6.85998 7.33044 7.19008 7.72243C7.52018 8.09379 7.94312 8.41358 8.4589 8.68178C8.99531 8.94999 9.60393 9.17693 10.2848 9.36261C10.9656 9.54829 11.6567 9.74429 12.3582 9.9506C13.0803 10.1569 13.7818 10.3942 14.4626 10.6624C15.164 10.9306 15.7727 11.271 16.2885 11.6836C16.8249 12.0963 17.2581 12.6017 17.5882 13.2C17.9183 13.7983 18.0834 14.5307 18.0834 15.3972C18.0834 16.4082 17.8771 17.3056 17.4644 18.0896C17.0518 18.853 16.4844 19.4925 15.7624 20.0083C15.0609 20.5241 14.2253 20.9161 13.2557 21.1843C12.3066 21.4319 11.2751 21.5557 10.161 21.5557C9.2532 21.5557 8.38669 21.4628 7.56144 21.2772C6.73619 21.0915 5.96252 20.8233 5.24042 20.4725C4.53896 20.1218 3.90971 19.6782 3.35267 19.1418C2.79562 18.6054 2.35205 17.9762 2.02195 17.2541ZM28.4888 18.1515H28.6126L31.3359 4.44206L31.8001 0.976017C31.862 0.666547 32.0786 0.511812 32.45 0.511812H36.4112C36.8238 0.511812 37.061 0.666547 37.1229 0.976017L37.6181 4.44206L40.3724 18.1515H40.4961L43.4361 4.38017L43.9931 0.945068C44.055 0.6356 44.251 0.480866 44.5811 0.480866C44.7668 0.480866 44.9731 0.480866 45.2001 0.480866C45.4476 0.480866 45.7571 0.501498 46.1285 0.542761L47.7068 0.604654C48.1813 0.666548 48.4185 0.831598 48.4185 1.0998C48.4185 1.1617 48.4082 1.23391 48.3876 1.31643C48.367 1.37833 48.336 1.47117 48.2947 1.59495L47.552 4.25638L43.9622 18.6157C43.859 19.1109 43.7662 19.5235 43.6837 19.8536C43.6218 20.1631 43.5702 20.421 43.5289 20.6273C43.4877 20.8129 43.4361 20.9574 43.3742 21.0605C43.3329 21.143 43.2814 21.2153 43.2195 21.2772C43.1163 21.3597 43.0028 21.4113 42.879 21.4319C42.7553 21.4319 42.5799 21.4319 42.353 21.4319H38.5465C38.1958 21.4319 37.9585 21.3803 37.8347 21.2772C37.7728 21.2153 37.7212 21.143 37.68 21.0605C37.6387 20.9574 37.5871 20.8129 37.5252 20.6273C37.484 20.4416 37.4324 20.194 37.3705 19.8845C37.3292 19.5544 37.2777 19.1315 37.2158 18.6157L34.4615 5.37047H34.3377L31.5834 18.6157C31.5216 19.1315 31.4597 19.5544 31.3978 19.8845C31.3565 20.194 31.3152 20.4519 31.274 20.6582C31.2327 20.8439 31.1811 20.978 31.1192 21.0605C31.078 21.143 31.0264 21.2153 30.9645 21.2772C30.8614 21.3597 30.7479 21.4113 30.6241 21.4319C30.5003 21.4319 30.3249 21.4319 30.098 21.4319H26.2915C25.9408 21.4319 25.7035 21.3803 25.5798 21.2772C25.5179 21.2153 25.4663 21.143 25.425 21.0605C25.3838 20.9574 25.3322 20.8129 25.2703 20.6273C25.229 20.4416 25.1671 20.194 25.0846 19.8845C25.0227 19.5544 24.9402 19.1315 24.837 18.6157L21.2472 4.25638L20.5354 1.59495C20.4942 1.47117 20.4529 1.37833 20.4116 1.31643C20.391 1.23391 20.3807 1.1617 20.3807 1.0998C20.3807 0.831598 20.6179 0.666548 21.0925 0.604654L22.7326 0.542761C23.104 0.501498 23.4032 0.480866 23.6301 0.480866C23.8777 0.480866 24.0943 0.480866 24.28 0.480866C24.6514 0.480866 24.868 0.6356 24.9299 0.945068L25.4869 4.38017L28.4888 18.1515ZM55.9814 21.1534C55.9814 21.2153 55.9505 21.2668 55.8886 21.3081C55.8473 21.3287 55.7442 21.3494 55.5791 21.37C55.4347 21.3906 55.2181 21.4113 54.9292 21.4319C54.6404 21.4319 54.2484 21.4319 53.7532 21.4319C53.2787 21.4319 52.897 21.4319 52.6082 21.4319C52.3194 21.4113 52.0924 21.3906 51.9274 21.37C51.783 21.3494 51.6798 21.3287 51.6179 21.3081C51.5766 21.2668 51.556 21.2153 51.556 21.1534L51.6798 17.5016V2.49241L51.556 0.790334C51.556 0.749072 51.5766 0.70781 51.6179 0.666548C51.6798 0.625285 51.783 0.594338 51.9274 0.573707C52.0924 0.553076 52.3194 0.542761 52.6082 0.542761C52.897 0.522129 53.2787 0.511812 53.7532 0.511812C54.2484 0.511812 54.6404 0.522129 54.9292 0.542761C55.2181 0.542761 55.4347 0.553076 55.5791 0.573707C55.7442 0.594338 55.8473 0.625285 55.8886 0.666548C55.9505 0.70781 55.9814 0.749072 55.9814 0.790334L55.8576 2.49241V17.5016L55.9814 21.1534ZM59.8877 17.2541C59.8258 17.1096 59.7949 16.9652 59.7949 16.8208C59.7949 16.6764 59.8671 16.5526 60.0115 16.4494C60.1559 16.3463 60.4654 16.2431 60.9399 16.14C61.4144 16.0162 61.8786 15.913 62.3325 15.8305C62.7864 15.748 63.1784 15.7067 63.5085 15.7067C63.6736 15.7067 63.787 15.7892 63.8489 15.9543C64.0965 16.4701 64.375 16.9033 64.6845 17.2541C65.0146 17.6048 65.3653 17.8936 65.7367 18.1206C66.1287 18.3269 66.531 18.4816 66.9436 18.5848C67.3562 18.6673 67.7689 18.7086 68.1815 18.7086C69.1099 18.7086 69.9042 18.4919 70.5644 18.0587C71.2452 17.6254 71.5856 16.924 71.5856 15.9543C71.5856 15.129 71.2968 14.4998 70.7191 14.0665C70.1621 13.6126 69.4606 13.2413 68.6147 12.9524C67.7895 12.6636 66.8817 12.3954 65.8914 12.1478C64.9011 11.9003 63.983 11.5702 63.1371 11.1575C62.3119 10.7243 61.6104 10.1569 61.0328 9.45545C60.4757 8.73336 60.1972 7.76369 60.1972 6.54645C60.1972 5.55615 60.3932 4.67932 60.7852 3.91597C61.1978 3.15261 61.7549 2.51304 62.4563 1.99726C63.1578 1.46085 63.9727 1.05854 64.9011 0.790334C65.8502 0.522129 66.8714 0.388027 67.9649 0.388027C69.7598 0.388027 71.3484 0.769704 72.7307 1.53306C74.113 2.27578 75.1136 3.40019 75.7325 4.90627C75.7944 5.07132 75.8254 5.20542 75.8254 5.30858C75.8254 5.45299 75.7325 5.57678 75.5468 5.67994C75.3818 5.76246 75.062 5.8553 74.5875 5.95846C74.113 6.06162 73.6488 6.15446 73.1949 6.23698C72.7616 6.31951 72.3903 6.36077 72.0808 6.36077C71.8745 6.36077 71.7301 6.2473 71.6475 6.02035C71.2143 5.13321 70.6469 4.52459 69.9455 4.19449C69.244 3.84376 68.5013 3.66839 67.7173 3.66839C66.8508 3.66839 66.108 3.88502 65.4891 4.31828C64.8702 4.75153 64.5607 5.40142 64.5607 6.26793C64.5607 6.8456 64.7258 7.33044 65.0559 7.72243C65.386 8.09379 65.8089 8.41358 66.3247 8.68178C66.8611 8.94999 67.4697 9.17693 68.1505 9.36261C68.8314 9.54829 69.5225 9.74429 70.224 9.9506C70.9461 10.1569 71.6475 10.3942 72.3284 10.6624C73.0298 10.9306 73.6384 11.271 74.1542 11.6836C74.6906 12.0963 75.1239 12.6017 75.454 13.2C75.7841 13.7983 75.9491 14.5307 75.9491 15.3972C75.9491 16.4082 75.7428 17.3056 75.3302 18.0896C74.9176 18.853 74.3502 19.4925 73.6281 20.0083C72.9267 20.5241 72.0911 20.9161 71.1214 21.1843C70.1724 21.4319 69.1408 21.5557 68.0268 21.5557C67.119 21.5557 66.2525 21.4628 65.4272 21.2772C64.602 21.0915 63.8283 20.8233 63.1062 20.4725C62.4047 20.1218 61.7755 19.6782 61.2184 19.1418C60.6614 18.6054 60.2178 17.9762 59.8877 17.2541ZM79.2368 17.2541C79.1749 17.1096 79.1439 16.9652 79.1439 16.8208C79.1439 16.6764 79.2161 16.5526 79.3606 16.4494C79.505 16.3463 79.8144 16.2431 80.289 16.14C80.7635 16.0162 81.2277 15.913 81.6816 15.8305C82.1355 15.748 82.5274 15.7067 82.8575 15.7067C83.0226 15.7067 83.1361 15.7892 83.198 15.9543C83.4455 16.4701 83.7241 16.9033 84.0335 17.2541C84.3636 17.6048 84.7144 17.8936 85.0857 18.1206C85.4777 18.3269 85.88 18.4816 86.2926 18.5848C86.7053 18.6673 87.1179 18.7086 87.5305 18.7086C88.4589 18.7086 89.2532 18.4919 89.9134 18.0587C90.5943 17.6254 90.9347 16.924 90.9347 15.9543C90.9347 15.129 90.6458 14.4998 90.0682 14.0665C89.5111 13.6126 88.8097 13.2413 87.9638 12.9524C87.1385 12.6636 86.2308 12.3954 85.2405 12.1478C84.2502 11.9003 83.3321 11.5702 82.4862 11.1575C81.6609 10.7243 80.9595 10.1569 80.3818 9.45545C79.8248 8.73336 79.5462 7.76369 79.5462 6.54645C79.5462 5.55615 79.7422 4.67932 80.1342 3.91597C80.5468 3.15261 81.1039 2.51304 81.8054 1.99726C82.5068 1.46085 83.3217 1.05854 84.2502 0.790334C85.1992 0.522129 86.2204 0.388027 87.3139 0.388027C89.1088 0.388027 90.6974 0.769704 92.0797 1.53306C93.462 2.27578 94.4626 3.40019 95.0816 4.90627C95.1434 5.07132 95.1744 5.20542 95.1744 5.30858C95.1744 5.45299 95.0816 5.57678 94.8959 5.67994C94.7308 5.76246 94.411 5.8553 93.9365 5.95846C93.462 6.06162 92.9978 6.15446 92.5439 6.23698C92.1107 6.31951 91.7393 6.36077 91.4298 6.36077C91.2235 6.36077 91.0791 6.2473 90.9966 6.02035C90.5633 5.13321 89.996 4.52459 89.2945 4.19449C88.593 3.84376 87.8503 3.66839 87.0663 3.66839C86.1998 3.66839 85.4571 3.88502 84.8381 4.31828C84.2192 4.75153 83.9097 5.40142 83.9097 6.26793C83.9097 6.8456 84.0748 7.33044 84.4049 7.72243C84.735 8.09379 85.1579 8.41358 85.6737 8.68178C86.2101 8.94999 86.8187 9.17693 87.4996 9.36261C88.1804 9.54829 88.8716 9.74429 89.573 9.9506C90.2951 10.1569 90.9966 10.3942 91.6774 10.6624C92.3789 10.9306 92.9875 11.271 93.5033 11.6836C94.0397 12.0963 94.4729 12.6017 94.803 13.2C95.1331 13.7983 95.2982 14.5307 95.2982 15.3972C95.2982 16.4082 95.0919 17.3056 94.6792 18.0896C94.2666 18.853 93.6993 19.4925 92.9772 20.0083C92.2757 20.5241 91.4401 20.9161 90.4705 21.1843C89.5214 21.4319 88.4899 21.5557 87.3758 21.5557C86.468 21.5557 85.6015 21.4628 84.7763 21.2772C83.951 21.0915 83.1773 20.8233 82.4552 20.4725C81.7538 20.1218 81.1245 19.6782 80.5675 19.1418C80.0104 18.6054 79.5669 17.9762 79.2368 17.2541Z" fill="#D12026"/>
<path d="M97.9978 8.61989C97.8946 8.61989 97.8224 8.4961 97.7812 8.24853C97.7605 7.98032 97.7502 7.67085 97.7502 7.32012C97.7502 6.94876 97.7605 6.63929 97.7812 6.39171C97.8224 6.14414 97.8946 6.02035 97.9978 6.02035H99.8856V4.93721L99.7618 2.58525C99.7618 2.52336 99.7824 2.4821 99.8237 2.46146C99.8649 2.4202 99.9578 2.38926 100.102 2.36862C100.247 2.34799 100.453 2.33768 100.721 2.33768C101.01 2.31705 101.392 2.30673 101.866 2.30673C102.361 2.30673 102.743 2.31705 103.011 2.33768C103.3 2.33768 103.517 2.34799 103.661 2.36862C103.805 2.38926 103.898 2.4202 103.94 2.46146C103.981 2.4821 104.001 2.52336 104.001 2.58525L103.878 4.93721V6.02035H107.653C107.756 6.02035 107.818 6.15446 107.839 6.42266C107.86 6.67024 107.87 6.96939 107.87 7.32012C107.87 7.67085 107.86 7.98032 107.839 8.24853C107.818 8.4961 107.756 8.61989 107.653 8.61989H103.878V16.8518C103.878 17.1406 103.898 17.4191 103.94 17.6873C103.981 17.9555 104.053 18.1928 104.156 18.3991C104.28 18.5848 104.445 18.7395 104.651 18.8633C104.858 18.9665 105.126 19.018 105.456 19.018C105.704 19.018 105.931 18.9871 106.137 18.9252C106.364 18.8633 106.622 18.7498 106.91 18.5848C107.034 18.5229 107.127 18.4919 107.189 18.4919C107.292 18.4919 107.375 18.5745 107.437 18.7395C107.498 18.8839 107.56 19.1418 107.622 19.5132C107.684 19.8226 107.725 20.0496 107.746 20.194C107.787 20.3384 107.808 20.4622 107.808 20.5654C107.808 20.6892 107.756 20.7717 107.653 20.8129C107.158 21.0399 106.622 21.2153 106.044 21.339C105.487 21.4628 104.858 21.5247 104.156 21.5247C102.836 21.5247 101.794 21.2256 101.031 20.6273C100.267 20.0083 99.8856 18.9974 99.8856 17.5945V8.61989H97.9978ZM117.348 8.83652C116.233 8.83652 115.398 9.28009 114.841 10.1672C114.304 11.0544 114.036 12.3232 114.036 13.9737C114.036 15.6036 114.304 16.8724 114.841 17.7802C115.398 18.6673 116.233 19.1109 117.348 19.1109C118.482 19.1109 119.318 18.6673 119.854 17.7802C120.411 16.8724 120.69 15.6036 120.69 13.9737C120.69 12.3232 120.411 11.0544 119.854 10.1672C119.318 9.28009 118.482 8.83652 117.348 8.83652ZM117.348 5.89657C118.627 5.89657 119.73 6.10288 120.659 6.5155C121.608 6.92813 122.382 7.49549 122.98 8.21758C123.599 8.91904 124.053 9.74429 124.342 10.6933C124.651 11.6424 124.806 12.6533 124.806 13.7261C124.806 14.7989 124.651 15.8099 124.342 16.7589C124.053 17.7079 123.599 18.5435 122.98 19.2656C122.382 19.9671 121.608 20.5241 120.659 20.9367C119.73 21.3494 118.627 21.5557 117.348 21.5557C116.068 21.5557 114.965 21.3494 114.036 20.9367C113.108 20.5241 112.334 19.9671 111.715 19.2656C111.117 18.5435 110.663 17.7079 110.354 16.7589C110.065 15.8099 109.92 14.7989 109.92 13.7261C109.92 12.6533 110.065 11.6424 110.354 10.6933C110.663 9.74429 111.117 8.91904 111.715 8.21758C112.334 7.49549 113.108 6.92813 114.036 6.5155C114.965 6.10288 116.068 5.89657 117.348 5.89657ZM128.223 6.29887C128.223 6.23698 128.244 6.19572 128.285 6.17509C128.326 6.13382 128.419 6.10288 128.564 6.08225C128.708 6.06162 128.925 6.0513 129.214 6.0513C129.502 6.03067 129.884 6.02035 130.359 6.02035C130.854 6.02035 131.235 6.03067 131.504 6.0513C131.792 6.0513 131.999 6.06162 132.123 6.08225C132.267 6.10288 132.36 6.13382 132.401 6.17509C132.442 6.19572 132.463 6.23698 132.463 6.29887L132.339 8.12474V14.7783C132.339 15.2941 132.36 15.8305 132.401 16.3875C132.463 16.9446 132.628 17.4294 132.896 17.8421C133.102 18.1515 133.36 18.4094 133.67 18.6157C134 18.8014 134.433 18.8942 134.97 18.8942C136.125 18.8942 136.95 18.4816 137.445 17.6564C137.941 16.8311 138.188 15.6345 138.188 14.0665V8.12474L138.064 6.29887C138.064 6.23698 138.085 6.19572 138.126 6.17509C138.167 6.13382 138.26 6.10288 138.405 6.08225C138.549 6.06162 138.755 6.0513 139.024 6.0513C139.312 6.03067 139.704 6.02035 140.2 6.02035C140.695 6.02035 141.076 6.03067 141.345 6.0513C141.634 6.0513 141.85 6.06162 141.995 6.08225C142.139 6.10288 142.232 6.13382 142.273 6.17509C142.314 6.19572 142.335 6.23698 142.335 6.29887L142.211 8.12474V18.1515L142.335 21.1534C142.335 21.2153 142.314 21.2668 142.273 21.3081C142.232 21.3287 142.139 21.3494 141.995 21.37C141.871 21.3906 141.664 21.4113 141.376 21.4319C141.107 21.4319 140.726 21.4319 140.231 21.4319C139.756 21.4319 139.374 21.4319 139.086 21.4319C138.817 21.4113 138.611 21.3906 138.467 21.37C138.322 21.3494 138.229 21.3287 138.188 21.3081C138.167 21.2668 138.157 21.2153 138.157 21.1534L138.281 18.5848C137.93 19.4513 137.373 20.1631 136.61 20.7201C135.846 21.2772 134.877 21.5557 133.701 21.5557C132.772 21.5557 131.988 21.4319 131.349 21.1843C130.709 20.9161 130.163 20.5551 129.709 20.1012C129.234 19.606 128.883 19.0077 128.656 18.3063C128.45 17.6048 128.347 16.7899 128.347 15.8615V8.12474L128.223 6.29887ZM156.3 9.33167C156.3 9.78555 156.001 10.0125 155.403 10.0125C154.536 10.0125 153.804 10.1363 153.206 10.3839C152.628 10.6314 152.133 10.9822 151.72 11.4361C151.266 11.9312 150.946 12.5192 150.761 13.2C150.575 13.8809 150.482 14.6855 150.482 15.6139V17.5016L150.606 21.1534C150.606 21.2153 150.585 21.2668 150.544 21.3081C150.503 21.3287 150.41 21.3494 150.266 21.37C150.121 21.3906 149.905 21.4113 149.616 21.4319C149.347 21.4319 148.966 21.4319 148.471 21.4319C147.996 21.4319 147.614 21.4319 147.326 21.4319C147.057 21.4113 146.851 21.3906 146.707 21.37C146.562 21.3494 146.469 21.3287 146.428 21.3081C146.387 21.2668 146.366 21.2153 146.366 21.1534L146.49 17.5016V8.00095L146.366 6.29887C146.366 6.23698 146.377 6.19572 146.397 6.17509C146.438 6.13382 146.531 6.10288 146.676 6.08225C146.82 6.06162 147.026 6.0513 147.295 6.0513C147.563 6.03067 147.945 6.02035 148.44 6.02035C148.914 6.02035 149.286 6.03067 149.554 6.0513C149.843 6.0513 150.049 6.06162 150.173 6.08225C150.317 6.10288 150.41 6.13382 150.451 6.17509C150.493 6.19572 150.513 6.23698 150.513 6.29887L150.389 8.00095V10.2291C150.699 8.92936 151.338 7.88748 152.308 7.10349C153.278 6.29887 154.412 5.89657 155.712 5.89657C156.104 5.89657 156.3 6.09256 156.3 6.48456V9.33167ZM158.538 18.43C158.435 18.3063 158.384 18.1721 158.384 18.0277C158.384 17.9039 158.445 17.8111 158.569 17.7492C158.693 17.6667 159.003 17.5738 159.498 17.4707C160.158 17.3469 160.674 17.2437 161.045 17.1612C161.416 17.0787 161.685 17.0374 161.85 17.0374C161.973 17.0374 162.056 17.0581 162.097 17.0993C162.159 17.1406 162.221 17.2334 162.283 17.3778C162.861 18.5332 163.841 19.1109 165.223 19.1109C165.759 19.1109 166.254 18.9561 166.708 18.6467C167.183 18.3166 167.42 17.8214 167.42 17.1612C167.42 16.4185 167.131 15.913 166.554 15.6448C165.996 15.3766 165.233 15.1497 164.263 14.964C163.521 14.8402 162.809 14.6958 162.128 14.5307C161.447 14.3657 160.849 14.1284 160.333 13.819C159.817 13.5095 159.405 13.1175 159.095 12.643C158.807 12.1478 158.662 11.5289 158.662 10.7862C158.662 10.0228 158.817 9.34198 159.126 8.74368C159.436 8.12474 159.869 7.60896 160.426 7.19633C160.983 6.76308 161.643 6.44329 162.407 6.23698C163.191 6.01004 164.047 5.89657 164.975 5.89657C166.626 5.89657 167.956 6.19572 168.967 6.79402C169.999 7.39233 170.721 8.18663 171.134 9.17693C171.175 9.34198 171.196 9.44514 171.196 9.4864C171.196 9.58956 171.113 9.6824 170.948 9.76492C170.804 9.84745 170.432 9.9506 169.834 10.0744C169.297 10.1982 168.875 10.291 168.565 10.3529C168.256 10.4148 168.039 10.4458 167.915 10.4458C167.73 10.4458 167.585 10.3529 167.482 10.1672C167.255 9.83713 166.935 9.53798 166.523 9.26977C166.131 8.98094 165.605 8.83652 164.944 8.83652C164.346 8.83652 163.83 8.98094 163.397 9.26977C162.984 9.53798 162.778 9.97123 162.778 10.5695C162.778 11.0647 162.964 11.4361 163.335 11.6836C163.727 11.9106 164.315 12.1066 165.099 12.2716C165.883 12.416 166.657 12.5811 167.42 12.7668C168.183 12.9318 168.864 13.1691 169.463 13.4785C170.081 13.788 170.577 14.2006 170.948 14.7164C171.34 15.2116 171.536 15.8718 171.536 16.697C171.536 17.481 171.371 18.1721 171.041 18.7705C170.731 19.3688 170.288 19.8742 169.71 20.2869C169.132 20.6995 168.441 21.0193 167.637 21.2462C166.853 21.4525 165.986 21.5557 165.037 21.5557C163.51 21.5557 162.19 21.2978 161.076 20.782C159.962 20.2662 159.116 19.4822 158.538 18.43Z" fill="#231F20"/>
<rect x="179.475" y="0.856689" width="20.6609" height="20.3943" fill="#CF0A2B"/>
<rect x="187.379" y="2.55615" width="4.85619" height="16.9953" fill="white"/>
<rect x="198.414" y="8.65723" width="4.79354" height="17.2174" transform="rotate(90 198.414 8.65723)" fill="white"/>
</svg>
