<svg width="35" height="35" viewBox="0 0 35 35" fill="none" xmlns="http://www.w3.org/2000/svg">
<path d="M23.1225 16.7428L18.7643 21.1021V9.90666C18.7643 9.32288 18.2905 8.84909 17.7067 8.84909C17.1229 8.84909 16.6492 9.32288 16.6492 9.90666V21.1021L12.2909 16.7438C11.8774 16.3303 11.208 16.3303 10.7955 16.7438C10.382 17.1573 10.382 17.8268 10.7955 18.2392L16.7782 24.2218C17.032 24.4757 17.3789 24.5539 17.7078 24.4957C18.0357 24.5539 18.3836 24.4746 18.6374 24.2218L24.6201 18.2392C25.0336 17.8257 25.0336 17.1563 24.6201 16.7438C24.2055 16.3303 23.536 16.3303 23.1225 16.7428ZM17.7067 0.38855C8.36209 0.38855 0.785645 7.96389 0.785645 17.3096C0.785645 26.6554 8.36209 34.2307 17.7067 34.2307C27.0514 34.2307 34.6278 26.6543 34.6278 17.3096C34.6278 7.96499 27.0525 0.38855 17.7067 0.38855ZM17.7067 32.1156C9.52959 32.1156 2.90078 25.4868 2.90078 17.3096C2.90078 9.13249 9.52959 2.50368 17.7067 2.50368C25.8839 2.50368 32.5127 9.13249 32.5127 17.3096C32.5127 25.4868 25.8839 32.1156 17.7067 32.1156Z" fill="#D80027"/>
</svg>
