<svg width="33" height="24" viewBox="0 0 33 24" fill="none" xmlns="http://www.w3.org/2000/svg">
<path d="M15.3533 8.40685H17.0554C17.0465 8.3484 17.0419 8.28863 17.0419 8.2279V6.87005C17.0419 5.47805 18.1589 4.33325 19.5483 4.33325L23.8535 4.33325C23.8535 4.33325 23.8536 4.33325 23.8537 4.33325H23.854V4.83325C24.3015 4.83274 24.7363 4.98437 25.0891 5.26395C25.4418 5.54353 25.6922 5.93495 25.8002 6.37581L15.3533 8.40685ZM15.3533 8.40685C15.3622 8.3484 15.3668 8.28863 15.3668 8.2279V6.87005C15.3668 5.47805 14.2498 4.33325 12.8604 4.33325L8.55529 4.33325C8.55522 4.33325 8.55515 4.33325 8.55507 4.33325H8.55473L15.3533 8.40685ZM28.9115 8.40685H26.7231L6.12292 6.25677L5.70706 7.94396L5.70669 7.94547C5.66965 8.09778 5.66308 8.25458 5.68604 8.40685H3.49727C3.41136 8.40685 3.32852 8.33371 3.32852 8.2279V4.15429C3.32852 2.55219 4.6125 1.25964 6.17247 1.25964H26.2364C27.7963 1.25964 29.0803 2.55219 29.0803 4.15429V8.2279C29.0803 8.33364 28.9975 8.40685 28.9115 8.40685ZM1.49095 20.6276H0.99095V21.1276V23.1644C0.99095 23.2701 0.908101 23.3434 0.822135 23.3434C0.73617 23.3434 0.65332 23.2701 0.65332 23.1644V13.6593C0.65332 12.0572 1.9373 10.7647 3.49727 10.7647H28.9115C30.4715 10.7647 31.7554 12.0572 31.7555 13.6593V23.1644C31.7555 23.2702 31.6726 23.3434 31.5867 23.3434C31.5007 23.3434 31.4179 23.2701 31.4179 23.1644V21.1276V20.6276H30.9179H1.49095ZM0.990888 19.7698V20.2698H1.49089H30.4178H30.9178H30.9179L30.9178 19.7698H31.4178V18.4119V17.9119H30.9178H1.49089H0.990888V18.4119V19.7698Z" stroke="black"/>
</svg>
