<svg width="41" height="41" viewBox="0 0 41 41" fill="none" xmlns="http://www.w3.org/2000/svg">
<g clip-path="url(#clip0_15_246)">
<path d="M36.4136 7.71392H31.0473L24.7973 1.46392C24.3906 1.07647 23.8503 0.860352 23.2886 0.860352C22.7268 0.860352 22.1866 1.07647 21.7798 1.46392L15.5298 7.71392H3.91357C3.08508 7.71492 2.2908 8.04447 1.70496 8.63031C1.11913 9.21615 0.789567 10.0104 0.788574 10.8389V29.5889C0.789567 30.4174 1.11913 31.2117 1.70496 31.7975C2.2908 32.3834 3.08508 32.7129 3.91357 32.7139H9.27982L15.5298 38.9639C15.93 39.3641 16.4727 39.5888 17.0386 39.5888C17.6045 39.5888 18.1472 39.3641 18.5473 38.9639L24.7973 32.7139H36.4136C37.2421 32.7129 38.0364 32.3834 38.6222 31.7975C39.208 31.2117 39.5376 30.4174 39.5386 29.5889V10.8389C39.5376 10.0104 39.208 9.21615 38.6222 8.63031C38.0364 8.04447 37.2421 7.71492 36.4136 7.71392ZM22.6636 2.34767C22.8331 2.18928 23.0565 2.10118 23.2886 2.10118C23.5206 2.10118 23.744 2.18928 23.9136 2.34767L29.2798 7.71392H17.2973L22.6636 2.34767ZM17.6636 38.0802C17.494 38.2386 17.2706 38.3267 17.0386 38.3267C16.8065 38.3267 16.5831 38.2386 16.4136 38.0802L11.0473 32.7139H23.0298L17.6636 38.0802ZM38.2886 29.5889C38.2886 30.0862 38.091 30.5631 37.7394 30.9147C37.3878 31.2664 36.9109 31.4639 36.4136 31.4639H3.91357C3.41629 31.4639 2.93938 31.2664 2.58775 30.9147C2.23612 30.5631 2.03857 30.0862 2.03857 29.5889V10.8389C2.03857 10.3416 2.23612 9.86473 2.58775 9.5131C2.93938 9.16147 3.41629 8.96392 3.91357 8.96392H36.4136C36.9109 8.96392 37.3878 9.16147 37.7394 9.5131C38.091 9.86473 38.2886 10.3416 38.2886 10.8389V29.5889Z" fill="black"/>
<path d="M3.91357 22.7139H10.1636C10.3293 22.7139 10.4883 22.6481 10.6055 22.5309C10.7227 22.4137 10.7886 22.2547 10.7886 22.0889V19.5889C10.7886 19.4232 10.7227 19.2642 10.6055 19.147C10.4883 19.0298 10.3293 18.9639 10.1636 18.9639H3.91357C3.74781 18.9639 3.58884 19.0298 3.47163 19.147C3.35442 19.2642 3.28857 19.4232 3.28857 19.5889V22.0889C3.28857 22.2547 3.35442 22.4137 3.47163 22.5309C3.58884 22.6481 3.74781 22.7139 3.91357 22.7139ZM4.53857 20.2139H9.53857V21.4639H4.53857V20.2139ZM36.4136 18.9639H30.1636C29.9978 18.9639 29.8388 19.0298 29.7216 19.147C29.6044 19.2642 29.5386 19.4232 29.5386 19.5889V22.0889C29.5386 22.2547 29.6044 22.4137 29.7216 22.5309C29.8388 22.6481 29.9978 22.7139 30.1636 22.7139H36.4136C36.5793 22.7139 36.7383 22.6481 36.8555 22.5309C36.9727 22.4137 37.0386 22.2547 37.0386 22.0889V19.5889C37.0386 19.4232 36.9727 19.2642 36.8555 19.147C36.7383 19.0298 36.5793 18.9639 36.4136 18.9639ZM35.7886 21.4639H30.7886V20.2139H35.7886V21.4639ZM13.9136 22.7139H26.4136C26.5793 22.7139 26.7383 22.6481 26.8555 22.5309C26.9727 22.4137 27.0386 22.2547 27.0386 22.0889V19.5889C27.0386 19.4232 26.9727 19.2642 26.8555 19.147C26.7383 19.0298 26.5793 18.9639 26.4136 18.9639H13.9136C13.7478 18.9639 13.5888 19.0298 13.4716 19.147C13.3544 19.2642 13.2886 19.4232 13.2886 19.5889V22.0889C13.2886 22.2547 13.3544 22.4137 13.4716 22.5309C13.5888 22.6481 13.7478 22.7139 13.9136 22.7139ZM14.5386 20.2139H25.7886V21.4639H14.5386V20.2139ZM17.0386 17.7139H23.2886C24.1171 17.7129 24.9114 17.3834 25.4972 16.7975C26.083 16.2117 26.4126 15.4174 26.4136 14.5889V13.3389C26.4126 12.5104 26.083 11.7162 25.4972 11.1303C24.9114 10.5445 24.1171 10.2149 23.2886 10.2139H17.0386C16.2101 10.2149 15.4158 10.5445 14.83 11.1303C14.2441 11.7162 13.9146 12.5104 13.9136 13.3389V14.5889C13.9146 15.4174 14.2441 16.2117 14.83 16.7975C15.4158 17.3834 16.2101 17.7129 17.0386 17.7139ZM15.1636 13.3389C15.1636 12.8416 15.3611 12.3647 15.7127 12.0131C16.0644 11.6615 16.5413 11.4639 17.0386 11.4639H23.2886C23.7859 11.4639 24.2628 11.6615 24.6144 12.0131C24.966 12.3647 25.1636 12.8416 25.1636 13.3389V14.5889C25.1636 15.0862 24.966 15.5631 24.6144 15.9148C24.2628 16.2664 23.7859 16.4639 23.2886 16.4639H17.0386C16.5413 16.4639 16.0644 16.2664 15.7127 15.9148C15.3611 15.5631 15.1636 15.0862 15.1636 14.5889V13.3389ZM5.78857 25.2139H13.2886V26.4639H5.78857V25.2139ZM3.28857 27.7139H15.7886V28.9639H3.28857V27.7139ZM27.0386 25.2139H34.5386V26.4639H27.0386V25.2139ZM24.5386 27.7139H37.0386V28.9639H24.5386V27.7139Z" fill="black"/>
</g>
<defs>
<clipPath id="clip0_15_246">
<rect width="40" height="40" fill="white" transform="translate(0.163574 0.213928)"/>
</clipPath>
</defs>
</svg>
