<svg width="25" height="25" viewBox="0 0 25 25" fill="none" xmlns="http://www.w3.org/2000/svg">
<g clip-path="url(#clip0_18_582)">
<path d="M6.78586 22.1287L7.63941 21.2751H6.43231C4.27052 21.2751 2.51123 19.5158 2.51123 17.354V5.35401C2.51123 4.35147 2.79479 3.59742 3.26788 3.0145C3.74741 2.42365 4.45086 1.97317 5.34468 1.63798C7.14691 0.962147 9.59222 0.801392 12.1165 0.801392C14.9115 0.801392 17.3506 0.963166 19.0817 1.63587C19.9369 1.9682 20.5886 2.41412 21.0281 2.99961C21.464 3.58019 21.7218 4.33846 21.7218 5.35401V17.354C21.7218 19.5158 19.9625 21.2751 17.8007 21.2751H16.5936L17.4472 22.1286L19.12 23.8014H17.3762L14.9964 21.4216L14.85 21.2751H14.6429H9.88073H9.67362L9.52718 21.4216L7.14729 23.8015H5.11307L6.78586 22.1287ZM4.03757 10.4067V10.9067H4.53757H10.8533H10.8534H11.3534V10.4067V5.35401V4.85401H10.8534H4.53757H4.03757V5.35401V10.4067ZM19.6955 10.9067H20.1955V10.4067V5.35401V4.85401H19.6955H13.3797H12.8797V5.35401V10.4067V10.9067H13.3797H19.6955ZM4.03757 17.354C4.03757 18.6786 5.10772 19.7488 6.43231 19.7488C7.75682 19.7488 8.82704 18.6786 8.82704 17.354C8.82704 16.0295 7.75689 14.9593 6.43231 14.9593C5.10772 14.9593 4.03757 16.0295 4.03757 17.354ZM15.406 17.354C15.406 18.6786 16.4762 19.7488 17.8007 19.7488C19.1252 19.7488 20.1955 18.6786 20.1955 17.354C20.1955 16.0295 19.1253 14.9593 17.8007 14.9593C16.4762 14.9593 15.406 16.0295 15.406 17.354Z" stroke="black"/>
</g>
<defs>
<clipPath id="clip0_18_582">
<rect width="24" height="24" fill="white" transform="translate(0.116699 0.301392)"/>
</clipPath>
</defs>
</svg>
