<svg width="33" height="33" viewBox="0 0 33 33" fill="none" xmlns="http://www.w3.org/2000/svg">
<g clip-path="url(#clip0_16_386)">
<path fill-rule="evenodd" clip-rule="evenodd" d="M16.2357 32.5958C16.2357 32.5958 15.9955 32.3172 15.5833 31.82C13.0926 28.8154 4.32275 17.8293 4.32275 12.1005C4.32275 5.42359 9.65849 0.00695801 16.2357 0.00695801C22.8129 0.00695801 28.1486 5.42359 28.1486 12.1005C28.1486 17.8293 19.3787 28.8154 16.8881 31.82C16.4759 32.3172 16.2357 32.5958 16.2357 32.5958ZM17.3154 29.7087C16.8954 30.2351 16.5287 30.6848 16.2357 31.0398C15.9426 30.6848 15.576 30.2351 15.156 29.7087C14.0483 28.3204 12.5734 26.4028 11.1006 24.2817C9.62533 22.157 8.16565 19.8474 7.07863 17.6726C5.97536 15.4653 5.32275 13.5252 5.32275 12.1005C5.32275 5.96163 10.2249 1.00696 16.2357 1.00696C22.2464 1.00696 27.1486 5.96163 27.1486 12.1005C27.1486 13.5252 26.496 15.4653 25.3927 17.6726C24.3057 19.8474 22.846 22.157 21.3707 24.2817C19.8979 26.4028 18.4231 28.3204 17.3154 29.7087ZM10.2792 12.2278C10.2792 15.5694 12.9439 18.2746 16.2357 18.2746C19.5274 18.2746 22.1921 15.5694 22.1921 12.2278C22.1921 8.88616 19.5274 6.18102 16.2357 6.18102C12.9439 6.18102 10.2792 8.88616 10.2792 12.2278Z" fill="black"/>
</g>
<defs>
<clipPath id="clip0_16_386">
<rect width="32.1022" height="32.5889" fill="white" transform="translate(0.18457 0.00695801)"/>
</clipPath>
</defs>
</svg>
