<svg width="44" height="41" viewBox="0 0 44 41" fill="none" xmlns="http://www.w3.org/2000/svg">
<path d="M3.62879 37.3175H24.1896C24.6025 37.3175 24.9372 36.9827 24.9372 36.5698C24.9372 36.1569 24.6025 35.8222 24.1896 35.8222H3.62879C2.80424 35.8222 2.13344 35.1514 2.13344 34.3269V3.6727C2.13344 2.84815 2.80424 2.17735 3.62879 2.17735H11.8532V14.5138C11.8532 14.6532 11.8921 14.7899 11.9657 14.9083C12.0393 15.0268 12.1445 15.1223 12.2695 15.1841C12.3945 15.2459 12.5343 15.2715 12.6731 15.258C12.8119 15.2445 12.9441 15.1925 13.0549 15.1078L15.7618 13.0383L18.4805 15.2778C18.6186 15.3916 18.7873 15.4484 18.9559 15.4484C19.1245 15.4484 19.2931 15.3916 19.4312 15.2779L22.1507 13.0383L24.8568 15.1077C25.0829 15.2805 25.3874 15.3101 25.6422 15.1841C25.7672 15.1223 25.8725 15.0268 25.9461 14.9084C26.0197 14.7899 26.0587 14.6533 26.0587 14.5138V2.17735H34.283C35.1076 2.17735 35.7784 2.84815 35.7784 3.6727C35.7784 4.0856 36.1131 4.42037 36.526 4.42037C36.9389 4.42037 37.2736 4.0856 37.2736 3.6727C37.2736 2.02365 35.932 0.682007 34.283 0.682007H3.62879C1.97978 0.682007 0.638184 2.02365 0.638184 3.6727V34.3269C0.638184 35.9759 1.97978 37.3175 3.62879 37.3175ZM24.5634 13.0008L22.5876 11.49C22.3115 11.2787 21.9263 11.2858 21.6582 11.5067L18.956 13.7321L16.2544 11.5068C15.9862 11.2858 15.6012 11.2787 15.325 11.4899L13.3484 13.001V2.17735H24.5634L24.5634 13.0008Z" fill="black"/>
<path d="M12.9747 26.8503H4.37654C3.96364 26.8503 3.62891 27.185 3.62891 27.5979C3.62891 28.0108 3.96363 28.3456 4.37654 28.3456H12.9747C13.3876 28.3456 13.7224 28.0108 13.7224 27.5979C13.7223 27.185 13.3876 26.8503 12.9747 26.8503ZM12.9747 30.9624H12.227C11.8141 30.9624 11.4794 31.2972 11.4794 31.7101C11.4794 32.123 11.8141 32.4577 12.227 32.4577H12.9747C13.3876 32.4577 13.7223 32.123 13.7223 31.7101C13.7223 31.2972 13.3876 30.9624 12.9747 30.9624ZM4.37654 30.9624C3.96364 30.9624 3.62891 31.2972 3.62891 31.7101C3.62891 32.123 3.96363 32.4577 4.37654 32.4577H9.23639C9.64929 32.4577 9.98403 32.123 9.98403 31.7101C9.98403 31.2972 9.6493 30.9624 9.23639 30.9624H4.37654ZM41.5728 23.8596C41.154 23.8596 40.7597 23.9661 40.4154 24.1534C40.0302 23.3189 39.1861 22.7382 38.2083 22.7382C37.7896 22.7382 37.3952 22.8446 37.051 23.0319C36.6658 22.1974 35.8217 21.6166 34.8438 21.6166C34.5128 21.6166 34.1971 21.6834 33.9092 21.8038V16.9437C33.9092 15.6038 32.8192 14.5138 31.4794 14.5138C31.3603 14.5138 31.2432 14.5228 31.1287 14.5394C30.9891 14.0445 30.9185 13.5327 30.9186 13.0185C30.9186 9.9265 33.4341 7.41101 36.5261 7.41101C39.6181 7.41101 42.1336 9.9265 42.1336 13.0185C42.1336 16.1104 39.6181 18.6259 36.5261 18.6259C36.4192 18.6259 36.3116 18.6229 36.2064 18.617C35.7944 18.593 35.4411 18.9093 35.418 19.3215C35.3948 19.7338 35.7103 20.0868 36.1225 20.1099C36.2556 20.1174 36.3913 20.1212 36.5261 20.1212C40.4425 20.1212 43.6288 16.9349 43.6288 13.0184C43.6288 9.10195 40.4425 5.91565 36.5261 5.91565C32.6096 5.91565 29.4233 9.10195 29.4233 13.0184C29.4233 13.7729 29.5417 14.5096 29.7721 15.2166C29.3263 15.6574 29.0494 16.2687 29.0494 16.9437V28.8644C29.0494 29.3802 28.642 29.5429 28.5171 29.5804C28.3923 29.618 27.9627 29.707 27.6782 29.2769L26.0509 26.8169C25.0274 25.2694 22.9359 24.8435 21.3887 25.8669C21.0556 26.0872 20.8282 26.424 20.7484 26.8154C20.6686 27.2068 20.7461 27.6058 20.9665 27.939L26.5779 36.4227C28.342 39.0897 31.3043 40.682 34.502 40.682C39.7407 40.682 44.0026 36.4201 44.0026 31.1813V26.2895C44.0027 24.9496 42.9126 23.8596 41.5728 23.8596ZM42.5074 31.1813C42.5074 35.5955 38.9162 39.1867 34.502 39.1867C31.8076 39.1867 29.3116 37.845 27.8251 35.5977L22.2137 27.114C23.0732 26.5454 24.2353 26.7821 24.8038 27.6418L26.4311 30.1019C26.99 30.9467 27.9777 31.3042 28.9479 31.0124C29.918 30.7206 30.5447 29.8775 30.5447 28.8645V16.9437C30.5447 16.4284 30.964 16.0091 31.4794 16.0091C31.9947 16.0091 32.414 16.4284 32.414 16.9437V27.2241C32.414 27.637 32.7487 27.9717 33.1616 27.9717C33.5745 27.9717 33.9092 27.637 33.9092 27.2241V24.0465C33.9092 23.5312 34.3285 23.1119 34.8439 23.1119C35.3592 23.1119 35.7785 23.5312 35.7785 24.0465V27.2241C35.7785 27.637 36.1132 27.9717 36.5261 27.9717C36.939 27.9717 37.2737 27.637 37.2737 27.2241V25.168C37.2737 24.6528 37.693 24.2334 38.2083 24.2334C38.7237 24.2334 39.143 24.6527 39.143 25.168V27.2241C39.143 27.637 39.4777 27.9717 39.8906 27.9717C40.3035 27.9717 40.6382 27.637 40.6382 27.2241V26.2895C40.6382 25.7742 41.0575 25.3549 41.5728 25.3549C42.0881 25.3549 42.5074 25.7742 42.5074 26.2895V31.1813H42.5074Z" fill="black"/>
<path d="M36.1524 15.6353C36.3437 15.6353 36.5351 15.5624 36.6811 15.4163L40.6063 11.4912C40.8983 11.1992 40.8983 10.7258 40.6063 10.4338C40.3144 10.1419 39.8408 10.1419 39.549 10.4338L36.1524 13.8304L34.625 12.303C34.3329 12.011 33.8595 12.011 33.5677 12.303C33.2756 12.5949 33.2756 13.0684 33.5677 13.3603L35.6238 15.4163C35.7698 15.5623 35.9611 15.6353 36.1524 15.6353Z" fill="black"/>
</svg>
