<svg width="13" height="17" viewBox="0 0 13 17" fill="none" xmlns="http://www.w3.org/2000/svg">
<path d="M12.1053 6.31855H7.29753C7.23783 6.31855 7.17994 6.29802 7.13357 6.26041C7.0872 6.22281 7.05517 6.1704 7.04284 6.11199L5.95003 0.912299C5.94109 0.869595 5.94302 0.825328 5.95566 0.783567C5.96829 0.741807 5.99122 0.703891 6.02233 0.673305C6.05345 0.64272 6.09175 0.620446 6.13372 0.608529C6.17569 0.596613 6.21999 0.595438 6.26253 0.605111L10.7728 1.64605C11.0081 1.70037 11.2226 1.82193 11.39 1.99592C11.5575 2.16992 11.6707 2.38885 11.716 2.62605L12.361 6.01074C12.3681 6.04834 12.3668 6.08706 12.3573 6.12413C12.3477 6.16119 12.3301 6.1957 12.3057 6.22518C12.2813 6.25467 12.2507 6.2784 12.2161 6.2947C12.1814 6.311 12.1436 6.31947 12.1053 6.31949V6.31855ZM7.50878 5.79917H11.79L11.205 2.7248C11.179 2.58644 11.1131 2.45868 11.0156 2.35712C10.9181 2.25556 10.7931 2.18461 10.656 2.15292L6.54315 1.20511L7.50878 5.79917Z" fill="#0B0B0B"/>
<path d="M7.29753 6.31854C7.24598 6.31854 7.19558 6.30322 7.15273 6.27454C7.10989 6.24586 7.07653 6.2051 7.05688 6.15743C7.03723 6.10977 7.03218 6.05734 7.04236 6.00679C7.05255 5.95625 7.07752 5.90987 7.1141 5.87354L10.9453 2.07135C10.9948 2.0251 11.0602 1.99992 11.1279 2.00114C11.1956 2.00236 11.2601 2.02989 11.3078 2.07789C11.3556 2.12589 11.3827 2.19059 11.3835 2.25826C11.3843 2.32594 11.3588 2.39127 11.3122 2.44041L7.48066 6.24416C7.43183 6.29215 7.366 6.31889 7.29753 6.31854Z" fill="#0B0B0B"/>
<path d="M9.36488 11.8373H2.51207C2.47247 11.8372 2.4334 11.8282 2.39784 11.8108C2.36227 11.7934 2.33115 11.7681 2.30683 11.7368C2.28251 11.7056 2.26564 11.6692 2.25751 11.6304C2.24937 11.5917 2.25018 11.5516 2.25988 11.5132L3.65613 5.99508C3.67037 5.93899 3.7029 5.88924 3.74857 5.8537C3.79424 5.81816 3.85045 5.79885 3.90832 5.79883H7.96863C8.0265 5.79885 8.08271 5.81816 8.12838 5.8537C8.17405 5.88924 8.20658 5.93899 8.22082 5.99508L9.61707 11.5132C9.62676 11.5516 9.62758 11.5917 9.61944 11.6304C9.6113 11.6692 9.59444 11.7056 9.57012 11.7368C9.5458 11.7681 9.51467 11.7934 9.47911 11.8108C9.44354 11.8282 9.40448 11.8372 9.36488 11.8373ZM2.84613 11.3182H9.0305L7.76613 6.3182H4.10988L2.84613 11.3182Z" fill="#0B0B0B"/>
<path d="M6.18242 8.34496H5.68805C5.14679 8.3443 4.6279 8.12899 4.24517 7.74627C3.86245 7.36355 3.64715 6.84465 3.64648 6.3034V6.05621C3.64648 5.98717 3.67391 5.92096 3.72273 5.87214C3.77155 5.82332 3.83776 5.7959 3.9068 5.7959H7.96367C8.03271 5.7959 8.09892 5.82332 8.14774 5.87214C8.19656 5.92096 8.22398 5.98717 8.22398 6.05621V6.3034C8.22332 6.84465 8.00802 7.36355 7.62529 7.74627C7.24257 8.12899 6.72367 8.3443 6.18242 8.34496ZM4.1668 6.31621C4.17058 6.71732 4.33248 7.10073 4.61731 7.38317C4.90215 7.66561 5.28692 7.82425 5.68805 7.82465H6.18242C6.58355 7.82425 6.96832 7.66561 7.25315 7.38317C7.53799 7.10073 7.69988 6.71732 7.70367 6.31621H4.1668Z" fill="#0B0B0B"/>
<path d="M1.81762 16.1041C1.77419 16.1041 1.73147 16.0931 1.69335 16.0724C1.65522 16.0516 1.6229 16.0216 1.59932 15.9851C1.57575 15.9487 1.56167 15.9069 1.55837 15.8636C1.55507 15.8203 1.56265 15.7769 1.58043 15.7372L5.08512 7.94068C5.1145 7.87944 5.16665 7.83211 5.23044 7.80879C5.29424 7.78547 5.36462 7.78801 5.42656 7.81586C5.48851 7.84372 5.53712 7.89468 5.56201 7.95788C5.58691 8.02107 5.58611 8.09149 5.5598 8.15411L2.05512 15.9507C2.03452 15.9964 2.00115 16.0352 1.95901 16.0625C1.91688 16.0897 1.86778 16.1041 1.81762 16.1041Z" fill="#0B0B0B"/>
<path d="M10.1443 16.1041C10.0941 16.1041 10.045 16.0897 10.0029 16.0625C9.96077 16.0352 9.9274 15.9964 9.90681 15.9507L6.40118 8.15411C6.37487 8.09149 6.37408 8.02107 6.39897 7.95788C6.42387 7.89468 6.47247 7.84372 6.53442 7.81586C6.59637 7.78801 6.66675 7.78547 6.73054 7.80879C6.79434 7.83211 6.84649 7.87944 6.87587 7.94068L10.3815 15.7372C10.3993 15.7769 10.4069 15.8203 10.4036 15.8636C10.4003 15.9069 10.3862 15.9487 10.3626 15.9851C10.339 16.0216 10.3067 16.0516 10.2686 16.0724C10.2304 16.0931 10.1877 16.1041 10.1443 16.1041Z" fill="#0B0B0B"/>
<path d="M3.6616 7.29223H0.389097C0.327279 7.2922 0.267487 7.27018 0.220422 7.2301C0.173357 7.19002 0.142092 7.1345 0.132222 7.07348C0.0984716 6.8691 0.0590965 6.67254 0.0153465 6.4891C-0.00433551 6.4067 -0.00509568 6.3209 0.0131232 6.23816C0.031342 6.15542 0.0680666 6.07788 0.12054 6.01137C0.173013 5.94485 0.239872 5.89109 0.316098 5.85411C0.392324 5.81713 0.475936 5.79789 0.560659 5.79785H3.90785C3.94744 5.79788 3.98651 5.80694 4.02207 5.82435C4.05764 5.84175 4.08877 5.86704 4.11308 5.89829C4.1374 5.92954 4.15427 5.96593 4.16241 6.00468C4.17054 6.04343 4.16973 6.08352 4.16003 6.12191L3.91378 7.09504C3.89972 7.1513 3.86727 7.20126 3.82158 7.23698C3.7759 7.2727 3.71959 7.29215 3.6616 7.29223ZM0.607534 6.77191H3.4591L3.57347 6.31816H0.561284C0.555238 6.31808 0.549257 6.31942 0.543827 6.32208C0.538397 6.32474 0.533671 6.32865 0.530034 6.33348C0.526085 6.33829 0.523344 6.34398 0.522039 6.35007C0.520735 6.35615 0.520904 6.36247 0.522534 6.36848C0.552534 6.49816 0.581284 6.63285 0.607534 6.77191Z" fill="#0B0B0B"/>
<path d="M2.5119 11.8378H0.736903C0.632334 11.8378 0.529088 11.8144 0.434734 11.7693C0.340381 11.7243 0.257314 11.6586 0.191626 11.5773C0.125938 11.4959 0.0792948 11.4009 0.0551174 11.2991C0.03094 11.1974 0.0298415 11.0915 0.0519025 10.9893C0.200784 10.2754 0.274105 9.54771 0.270653 8.8184C0.271784 8.23444 0.225276 7.65136 0.13159 7.07496C0.125476 7.03773 0.127527 6.99962 0.137601 6.96326C0.147676 6.9269 0.165533 6.89317 0.189937 6.8644C0.21434 6.83562 0.244706 6.8125 0.278932 6.79663C0.313157 6.78075 0.350425 6.77251 0.388152 6.77246H3.6619C3.7015 6.77249 3.74057 6.78155 3.77613 6.79896C3.8117 6.81636 3.84282 6.84165 3.86714 6.8729C3.89146 6.90415 3.90833 6.94053 3.91646 6.97929C3.9246 7.01804 3.92379 7.05813 3.91409 7.09652L2.76409 11.6415C2.74985 11.6976 2.71732 11.7474 2.67165 11.7829C2.62598 11.8184 2.56977 11.8377 2.5119 11.8378ZM0.69159 7.29277C0.759321 7.79859 0.793043 8.30838 0.792527 8.81871C0.795504 9.58516 0.717784 10.3498 0.560653 11.1C0.554902 11.1263 0.555138 11.1536 0.561344 11.1799C0.56755 11.2061 0.579567 11.2307 0.59651 11.2516C0.613453 11.2726 0.63489 11.2896 0.659242 11.3012C0.683594 11.3128 0.710239 11.3188 0.737215 11.3187H2.30815L3.32659 7.29402L0.69159 7.29277Z" fill="#0B0B0B"/>
<path d="M11.8278 7.29227H8.21437C8.1565 7.29224 8.10029 7.27293 8.05462 7.23739C8.00895 7.20185 7.97643 7.15211 7.96218 7.09602L7.71593 6.12289C7.70624 6.0845 7.70543 6.0444 7.71356 6.00565C7.7217 5.9669 7.73857 5.93052 7.76288 5.89927C7.7872 5.86802 7.81833 5.84273 7.85389 5.82533C7.88946 5.80792 7.92853 5.79886 7.96812 5.79883H12.0962C12.1385 5.7988 12.1801 5.80907 12.2175 5.82873C12.2549 5.8484 12.287 5.87687 12.3109 5.9117C12.3349 5.94652 12.35 5.98666 12.3549 6.02862C12.3599 6.07059 12.3545 6.11313 12.3394 6.15258C12.2315 6.45694 12.1458 6.76868 12.0828 7.08539C12.0705 7.14392 12.0385 7.19643 11.992 7.23411C11.9456 7.27178 11.8876 7.29232 11.8278 7.29227ZM8.41718 6.77195H11.6187C11.66 6.59445 11.7012 6.44227 11.7375 6.31914H8.3025L8.41718 6.77195Z" fill="#0B0B0B"/>
<path d="M11.5 11.8377H9.36441C9.30654 11.8376 9.25033 11.8183 9.20466 11.7828C9.15899 11.7472 9.12646 11.6975 9.11222 11.6414L7.96222 7.0964C7.95253 7.05804 7.95171 7.01797 7.95983 6.97924C7.96795 6.94051 7.98479 6.90415 8.00907 6.8729C8.03336 6.84166 8.06444 6.81636 8.09997 6.79894C8.13549 6.78151 8.17452 6.77242 8.21409 6.77234H11.8275C11.8661 6.77239 11.9042 6.78102 11.939 6.79759C11.9739 6.81417 12.0046 6.83829 12.029 6.8682C12.0534 6.8981 12.0708 6.93306 12.08 6.97052C12.0892 7.00799 12.09 7.04704 12.0822 7.08484C11.8116 8.36567 11.8444 9.69204 12.1778 10.958C12.205 11.0616 12.2081 11.1702 12.1868 11.2752C12.1654 11.3803 12.1203 11.479 12.0548 11.5639C11.9894 11.6487 11.9053 11.7175 11.8091 11.7648C11.713 11.8121 11.6072 11.8367 11.5 11.8367V11.8377ZM9.56691 11.3186H11.5C11.5276 11.3185 11.5549 11.3122 11.5796 11.3C11.6044 11.2877 11.626 11.27 11.6429 11.2481C11.6597 11.2263 11.6713 11.2008 11.6768 11.1737C11.6822 11.1467 11.6814 11.1187 11.6744 11.092C11.4813 10.35 11.3826 9.58658 11.3807 8.81984C11.3813 8.30845 11.4256 7.79805 11.5132 7.29421H8.54847L9.56691 11.3186ZM6.20472 16.5998C3.06284 16.5998 0.671282 16.2005 0.647532 16.1964C0.581023 16.1832 0.522271 16.1447 0.483772 16.0889C0.445273 16.0331 0.430065 15.9644 0.441382 15.8976C0.4527 15.8307 0.48965 15.7709 0.544373 15.7309C0.599096 15.6909 0.667275 15.6738 0.734407 15.6833C0.757844 15.6873 3.10941 16.0795 6.20316 16.0795C9.28972 16.0795 11.1338 15.6895 11.1522 15.6855C11.2184 15.6736 11.2867 15.6879 11.3426 15.7252C11.3986 15.7626 11.4379 15.8202 11.4523 15.8859C11.4668 15.9516 11.4552 16.0203 11.42 16.0777C11.3849 16.1351 11.3289 16.1766 11.2638 16.1936C11.1872 16.2108 9.35284 16.5998 6.20472 16.5998Z" fill="#0B0B0B"/>
</svg>
