<svg width="13" height="17" viewBox="0 0 13 17" fill="none" xmlns="http://www.w3.org/2000/svg">
<path d="M9.61031 7.67686C9.61243 7.67692 9.61459 7.67711 9.61671 7.67717C9.63674 7.67064 9.60249 7.67551 9.61031 7.67686ZM3.26796 7.67704C3.24478 7.66914 3.29374 7.67729 3.26796 7.67704V7.67704Z" fill="black"/>
<path d="M2.99391 8.14262V10.6678C2.99391 11.0772 3.32691 11.4102 3.73622 11.4102H7.24886C7.27974 11.4102 7.31032 11.4041 7.33885 11.3923C7.36738 11.3805 7.3933 11.3632 7.41513 11.3413C7.43697 11.3195 7.45429 11.2936 7.4661 11.2651C7.47791 11.2365 7.48399 11.2059 7.48399 11.1751C7.48399 11.1442 7.47791 11.1136 7.4661 11.0851C7.45429 11.0566 7.43697 11.0306 7.41513 11.0088C7.3933 10.987 7.36738 10.9696 7.33885 10.9578C7.31032 10.946 7.27974 10.9399 7.24886 10.9399H3.73619C3.60494 10.9399 3.4951 10.8465 3.46969 10.7226C3.46216 10.6859 3.46413 10.7159 3.46413 10.1281H9.41828V10.6678C9.41828 10.8178 9.29622 10.9399 9.14621 10.9399H8.07437C8.04349 10.9399 8.01291 10.946 7.98438 10.9578C7.95585 10.9696 7.92993 10.987 7.9081 11.0088C7.88626 11.0306 7.86895 11.0566 7.85713 11.0851C7.84532 11.1136 7.83924 11.1442 7.83924 11.1751C7.83924 11.2059 7.84532 11.2365 7.85713 11.2651C7.86895 11.2936 7.88626 11.3195 7.9081 11.3413C7.92993 11.3632 7.95585 11.3805 7.98438 11.3923C8.01291 11.4041 8.04349 11.4102 8.07437 11.4102H9.14621C9.55553 11.4102 9.88853 11.0772 9.88853 10.6678V8.14515C11.4756 8.02143 12.6726 6.66292 12.6498 5.15164C12.6499 5.14948 12.6499 5.14729 12.6499 5.14511C12.6499 3.28735 10.965 1.86506 9.12265 2.19606C7.98962 0.055429 4.93829 0.0776478 3.82076 2.20172C1.97228 1.84969 0.260742 3.2696 0.260742 5.14514C0.260742 5.14729 0.260836 5.14948 0.260836 5.15167C0.260836 5.15373 0.260742 5.15579 0.260742 5.15789C0.260742 6.72136 1.46453 8.00877 2.99391 8.14262ZM3.29357 2.62581C3.39454 2.62866 3.53132 2.63194 3.63079 2.64666C3.52853 2.9525 3.47651 3.27289 3.47675 3.59538C3.47675 3.65774 3.50153 3.71754 3.54562 3.76163C3.58971 3.80572 3.64951 3.83049 3.71187 3.83049C3.77422 3.83049 3.83402 3.80572 3.87811 3.76163C3.9222 3.71754 3.94698 3.65774 3.94698 3.59538C3.94698 1.69115 5.9608 0.505931 7.61674 1.34387C8.44765 1.76684 8.99953 2.62628 8.99953 3.59538C8.99953 3.65774 9.0243 3.71755 9.06839 3.76164C9.11249 3.80573 9.17229 3.83051 9.23465 3.83051C9.29701 3.83051 9.35682 3.80573 9.40091 3.76164C9.44501 3.71755 9.46978 3.65774 9.46978 3.59538C9.47005 3.27128 9.41752 2.94931 9.31428 2.6421C9.40271 2.63013 9.52806 2.62838 9.61712 2.62575C11.0079 2.62575 12.176 3.76138 12.1795 5.15145C12.1761 6.54152 11.0079 7.67715 9.617 7.67715C9.61375 7.67715 9.61175 7.67702 9.61059 7.67683C9.2639 7.6664 8.89456 7.5929 8.58199 7.4463C8.5257 7.42098 8.46172 7.41881 8.40384 7.44025C8.34596 7.46169 8.29883 7.50503 8.27262 7.56091C8.24642 7.61679 8.24323 7.68073 8.26375 7.73894C8.28427 7.79715 8.32685 7.84496 8.38231 7.87205C8.70816 8.0253 9.05922 8.11786 9.41828 8.14518V9.65781H8.23318V8.92081C8.23318 8.88993 8.22711 8.85935 8.21529 8.83082C8.20348 8.8023 8.18616 8.77637 8.16432 8.75454C8.14249 8.73271 8.11657 8.71539 8.08804 8.70357C8.05951 8.69176 8.02893 8.68568 7.99805 8.68568C7.96718 8.68568 7.9366 8.69176 7.90807 8.70357C7.87954 8.71539 7.85362 8.73271 7.83179 8.75454C7.80995 8.77637 7.79263 8.8023 7.78082 8.83082C7.769 8.85935 7.76292 8.88993 7.76293 8.92081V9.65781H6.62705V8.92081C6.62705 8.85845 6.60228 8.79864 6.55818 8.75455C6.51409 8.71045 6.45428 8.68568 6.39192 8.68568C6.32956 8.68568 6.26976 8.71045 6.22566 8.75455C6.18157 8.79864 6.1568 8.85845 6.1568 8.92081V9.65781H5.02098V8.92081C5.02098 8.85845 4.99621 8.79864 4.95211 8.75455C4.90802 8.71045 4.84821 8.68568 4.78585 8.68568C4.72349 8.68568 4.66369 8.71045 4.61959 8.75455C4.5755 8.79864 4.55073 8.85845 4.55073 8.92081V9.65781H3.46416V8.14709C3.83296 8.1226 4.19393 8.02932 4.52842 7.87205C4.58387 7.84496 4.62646 7.79715 4.64697 7.73894C4.66749 7.68073 4.66431 7.61679 4.6381 7.56091C4.61189 7.50503 4.56476 7.46169 4.50688 7.44025C4.449 7.41881 4.38502 7.42098 4.32873 7.4463C4.00676 7.5973 3.62576 7.67052 3.26825 7.67705C1.89169 7.66324 0.73465 6.52733 0.731213 5.15148C0.734682 3.76144 1.90275 2.62581 3.29357 2.62581Z" fill="black"/>
<path d="M3.29328 2.62576C3.2704 2.6332 3.31865 2.62576 3.29328 2.62576V2.62576ZM9.61686 2.62573C9.59146 2.62573 9.6398 2.6332 9.61686 2.62573V2.62573ZM12.6376 11.8756C11.944 10.6743 9.50861 11.4529 9.43711 12.8418L6.57588 14.4937L3.79834 12.8901L3.82875 12.8375C4.03337 12.483 3.91143 12.0281 3.55699 11.8235L1.68411 10.7421C1.65737 10.7267 1.62785 10.7167 1.59724 10.7126C1.56662 10.7086 1.53552 10.7106 1.50569 10.7186C1.47586 10.7266 1.4479 10.7404 1.4234 10.7592C1.39891 10.778 1.37835 10.8014 1.36291 10.8282C1.34747 10.8549 1.33745 10.8844 1.33341 10.9151C1.32938 10.9457 1.33142 10.9768 1.33941 11.0066C1.3474 11.0364 1.36119 11.0644 1.37998 11.0889C1.39878 11.1134 1.42222 11.1339 1.44896 11.1494L3.32187 12.2307C3.45178 12.3058 3.49646 12.4725 3.42146 12.6024L3.12693 13.1125L1.00895 11.8897C0.954949 11.8586 0.89077 11.8501 0.830535 11.8662C0.770301 11.8824 0.718945 11.9218 0.687765 11.9758C0.656585 12.0298 0.648136 12.094 0.664276 12.1542C0.680416 12.2145 0.719823 12.2658 0.773828 12.297L2.89177 13.5197L2.5973 14.0298C2.52224 14.1597 2.35549 14.2044 2.22558 14.1294L0.352701 13.0481C0.325962 13.0327 0.296442 13.0227 0.265828 13.0186C0.235214 13.0146 0.204106 13.0167 0.174279 13.0246C0.144453 13.0326 0.116493 13.0464 0.0919971 13.0652C0.0675009 13.084 0.046948 13.1075 0.0315125 13.1342C0.0160697 13.161 0.00604579 13.1905 0.00201331 13.2211C-0.00201916 13.2517 1.87783e-05 13.2828 0.00801076 13.3126C0.0160027 13.3425 0.0297922 13.3704 0.0485915 13.3949C0.0673909 13.4194 0.0908317 13.44 0.117575 13.4554C2.14577 14.6263 2.09661 14.636 2.3604 14.636C2.61712 14.636 2.86721 14.5028 3.00456 14.265L3.0349 14.2124L5.138 15.4266C4.81778 15.9389 5.18906 16.5958 5.78482 16.5958C6.03525 16.5958 6.14538 16.5053 6.57588 16.2568L6.98567 16.4934C7.66976 16.8884 8.43145 16.1023 8.01683 15.4304L8.86386 14.9588C8.89084 14.9438 8.9146 14.9236 8.93377 14.8994C8.95295 14.8752 8.96717 14.8474 8.97562 14.8177C8.98408 14.788 8.9866 14.757 8.98304 14.7263C8.97948 14.6956 8.96992 14.6659 8.95489 14.639C8.93987 14.612 8.91969 14.5882 8.89549 14.569C8.87129 14.5499 8.84354 14.5356 8.81384 14.5272C8.78415 14.5187 8.75307 14.5162 8.7224 14.5198C8.69172 14.5233 8.66205 14.5329 8.63508 14.5479L7.6346 15.105L7.0461 14.7652L9.7903 13.1808C9.82826 13.1589 9.85934 13.1268 9.88002 13.0882C9.9007 13.0495 9.91016 13.0058 9.90733 12.9621C9.84268 11.9586 11.7691 11.3118 12.2302 12.1107C12.6923 12.911 11.1665 14.2532 10.3315 13.6967C10.295 13.6724 10.2524 13.6588 10.2086 13.6573C10.1648 13.6559 10.1215 13.6668 10.0835 13.6887L9.31933 14.1299C9.26533 14.1611 9.22592 14.2124 9.20978 14.2726C9.19364 14.3329 9.20209 14.3971 9.23327 14.4511C9.26445 14.5051 9.3158 14.5445 9.37604 14.5606C9.43627 14.5768 9.50045 14.5683 9.55446 14.5371L10.2005 14.1642C11.4411 14.7976 13.3303 13.0752 12.6376 11.8756ZM5.93094 16.0862C5.6605 16.2425 5.36356 15.9183 5.54569 15.6621L6.1056 15.9854L5.93094 16.0862ZM7.6506 15.7565C7.70048 15.9423 7.56032 16.1256 7.36698 16.1256C7.26607 16.1256 7.26951 16.1143 6.69379 15.782C6.69379 15.782 5.6451 15.1765 5.63685 15.1717L5.63679 15.1717L3.26999 13.8052L3.56321 13.2974C7.88286 15.7914 7.60692 15.5933 7.6506 15.7565Z" fill="black"/>
</svg>
