<svg width="12" height="16" viewBox="0 0 12 16" fill="none" xmlns="http://www.w3.org/2000/svg">
<path d="M9.19743 15.1677H2.80176V11.4639H9.19743V15.1677ZM3.23419 14.7352H8.765V11.8963H3.23419V14.7352Z" fill="#0B0B0B"/>
<path d="M9.13689 15.1673H8.97257L8.98987 14.7349C10.9812 14.8149 11.2688 13.1673 11.2796 13.0982V13.0744C11.6861 11.5609 10.6569 11.2538 10.6137 11.243C9.93906 11.0268 9.13906 11.8246 9.13257 11.8333L8.82122 11.5306C8.8623 11.4895 9.80716 10.5317 10.7347 10.8279C11.0904 10.9415 11.3914 11.1825 11.5801 11.5046C11.8374 11.9371 11.8785 12.5057 11.7012 13.1782C11.6709 13.3598 11.2709 15.1673 9.13689 15.1673ZM2.8623 15.1673C0.728245 15.1673 0.328245 13.3598 0.29365 13.176C0.116353 12.5036 0.157434 11.9414 0.414731 11.5025C0.607309 11.1749 0.916037 10.9318 1.2796 10.8214C2.19635 10.5273 3.13906 11.4873 3.18014 11.5284L2.86879 11.8311C2.86879 11.8311 2.07095 11.0225 1.39852 11.2365C1.34446 11.2517 0.317434 11.55 0.721758 13.0722V13.096C0.732569 13.1652 1.01797 14.8127 3.01149 14.7327L3.02879 15.1652L2.8623 15.1673Z" fill="#0B0B0B"/>
<path d="M10.3999 11.0597C10.3718 10.9516 9.71883 8.38723 9.89397 6.1602V6.13426C9.93065 5.91927 9.92452 5.69916 9.87591 5.48655C9.8273 5.27394 9.73718 5.07303 9.61073 4.89534C9.32532 4.55588 8.83667 4.37858 8.16208 4.37858H3.83775C3.15883 4.37858 2.67018 4.55588 2.38262 4.90399C2.25765 5.08231 2.16908 5.28352 2.12196 5.4961C2.07484 5.70869 2.0701 5.92849 2.10802 6.14291V6.16885C2.28316 8.39588 1.63018 10.9602 1.60208 11.0683L1.18262 10.9602C1.18262 10.9343 1.84208 8.36561 1.67775 6.20345C1.63052 5.92838 1.63931 5.64661 1.70358 5.37503C1.76786 5.10344 1.8863 4.84762 2.05181 4.62291C2.42586 4.16885 3.0291 3.9375 3.84424 3.9375H8.16208C8.97721 3.9375 9.58045 4.16885 9.95451 4.62291C10.1204 4.84903 10.2387 5.10645 10.3023 5.3796C10.3658 5.65276 10.3733 5.93597 10.3242 6.21209C10.1599 8.37426 10.8107 10.9343 10.8194 10.9689L10.3999 11.0597Z" fill="#0B0B0B"/>
<path d="M8.39347 11.8962H3.60645V4.16211H4.03888V11.4637H7.96104V4.16211H8.39347V11.8962Z" fill="#0B0B0B"/>
<path d="M3.82233 7.14982H8.17692V7.58225H3.82233V7.14982ZM7.22557 4.37793H4.77368V3.02441H7.22557V4.37793ZM5.20611 3.9455H6.79314V3.45685H5.20611V3.9455Z" fill="#0B0B0B"/>
<path d="M7.65581 3.4571H4.34338C4.23374 3.45714 4.12533 3.43407 4.0252 3.38942C3.92507 3.34476 3.83547 3.27951 3.76224 3.19791C3.68901 3.11632 3.63379 3.02021 3.60018 2.91586C3.56657 2.8115 3.55532 2.70123 3.56716 2.59224L3.75311 0.730616C3.77297 0.538339 3.86367 0.360332 4.00755 0.231241C4.15142 0.102151 4.33819 0.0312141 4.53148 0.0322375H7.4677C7.66201 0.0313691 7.84962 0.10321 7.99366 0.233641C8.13769 0.364071 8.22773 0.543657 8.24608 0.737102L8.43202 2.59656C8.44387 2.70556 8.43262 2.81582 8.39901 2.92018C8.3654 3.02454 8.31018 3.12064 8.23695 3.20224C8.16372 3.28383 8.07412 3.34908 7.97399 3.39374C7.87386 3.4384 7.76545 3.46146 7.65581 3.46143V3.4571ZM4.53148 0.46467C4.44485 0.464241 4.36117 0.496131 4.2968 0.554107C4.23243 0.612083 4.19198 0.69198 4.18338 0.778183L3.99743 2.63981C3.99192 2.68841 3.99678 2.73763 4.01169 2.78422C4.02659 2.8308 4.05121 2.8737 4.08392 2.91008C4.1167 2.94632 4.15674 2.97525 4.20145 2.995C4.24615 3.01474 4.29451 3.02485 4.34338 3.02467H7.65581C7.70468 3.02485 7.75304 3.01474 7.79774 2.995C7.84244 2.97525 7.88249 2.94632 7.91527 2.91008C7.94797 2.8737 7.97259 2.8308 7.9875 2.78422C8.00241 2.73763 8.00727 2.68841 8.00175 2.63981L7.81581 0.780346C7.80771 0.693753 7.76748 0.613329 7.70306 0.554906C7.63863 0.496483 7.55467 0.464292 7.4677 0.46467H4.53148Z" fill="#0B0B0B"/>
</svg>
