<svg width="15" height="17" viewBox="0 0 15 17" fill="none" xmlns="http://www.w3.org/2000/svg">
<path d="M7.34376 0.599609C7.08486 0.599609 6.87501 0.809453 6.87501 1.06836V16.1309C6.87501 16.3898 7.08486 16.5996 7.34376 16.5996C7.60267 16.5996 7.81251 16.3898 7.81251 16.1309V1.06836C7.81251 0.809453 7.60267 0.599609 7.34376 0.599609ZM3.38807 6.51502C3.38745 6.51377 3.38673 6.51258 3.38601 6.51136C4.04554 6.32823 4.53126 5.72292 4.53126 5.00586C4.53126 4.1443 3.83032 3.44336 2.96876 3.44336C2.1072 3.44336 1.40626 4.1443 1.40626 5.00586C1.40626 5.72289 1.89198 6.32823 2.55151 6.51136C2.55089 6.51258 2.55007 6.5138 2.54945 6.51502L0.049448 11.515C0.0137256 11.5865 -0.00313121 11.6659 0.00047862 11.7457C0.00408845 11.8255 0.0280451 11.9031 0.070073 11.9711C0.112063 12.039 0.170736 12.0951 0.240517 12.1341C0.310297 12.173 0.388867 12.1934 0.468761 12.1934H2.50001V13.5996C2.50001 13.8585 2.70985 14.0684 2.96876 14.0684C3.22767 14.0684 3.43751 13.8585 3.43751 13.5996V12.1934H5.46876C5.63126 12.1934 5.7821 12.1093 5.86757 11.9711C5.90955 11.9031 5.93347 11.8255 5.93706 11.7457C5.94065 11.6659 5.92379 11.5865 5.88807 11.515L3.38807 6.51502ZM14.6176 6.47814C14.5755 6.41018 14.5169 6.35408 14.4471 6.31518C14.3773 6.27627 14.2987 6.25586 14.2188 6.25586H12.6552C13.035 5.97058 13.2813 5.51648 13.2813 5.00586C13.2813 4.1443 12.5803 3.44336 11.7188 3.44336C10.8572 3.44336 10.1563 4.1443 10.1563 5.00586C10.1563 5.51648 10.4025 5.97058 10.7824 6.25586H9.21876C9.05626 6.25586 8.90542 6.33995 8.82007 6.47814C8.77805 6.5461 8.75409 6.62367 8.75048 6.70349C8.74687 6.78331 8.76373 6.86273 8.79945 6.9342L11.25 11.8352V13.5996C11.25 13.8585 11.4599 14.0684 11.7188 14.0684C11.9777 14.0684 12.1875 13.8585 12.1875 13.5996V11.8352L14.6381 6.9342C14.6738 6.86273 14.6906 6.78332 14.6871 6.70351C14.6835 6.62369 14.6596 6.54612 14.6176 6.47814Z" fill="#0B0B0B"/>
</svg>
