<svg width="15" height="13" viewBox="0 0 15 13" fill="none" xmlns="http://www.w3.org/2000/svg">
<path d="M13.8637 3.09018H11.5995V2.63735C11.5995 2.5773 11.5757 2.51971 11.5332 2.47725C11.4907 2.43478 11.4332 2.41093 11.3731 2.41093H11.1467V2.18451C11.1462 1.76432 10.9791 1.36147 10.6819 1.06435C10.3848 0.767223 9.98198 0.600089 9.56178 0.599609H5.93914C5.51894 0.600089 5.1161 0.767223 4.81897 1.06435C4.52185 1.36147 4.35471 1.76432 4.35423 2.18451V2.41093H4.12782C4.06777 2.41093 4.01018 2.43478 3.96772 2.47725C3.92526 2.51971 3.9014 2.5773 3.9014 2.63735V3.09018H1.63725C1.45727 3.09071 1.28481 3.16245 1.15755 3.28972C1.03028 3.41698 0.958545 3.58944 0.958008 3.76942V11.9204C0.958545 12.1003 1.03028 12.2728 1.15755 12.4001C1.28481 12.5273 1.45727 12.5991 1.63725 12.5996H13.8637C14.0436 12.5991 14.2161 12.5273 14.3434 12.4001C14.4706 12.2728 14.5424 12.1003 14.5429 11.9204V3.76942C14.5424 3.58944 14.4706 3.41698 14.3434 3.28972C14.2161 3.16245 14.0436 3.09071 13.8637 3.09018ZM5.93914 2.41093H5.71272V1.9581H9.7882V2.41093H9.56178C9.50173 2.41093 9.44414 2.43478 9.40168 2.47725C9.35922 2.51971 9.33537 2.5773 9.33537 2.63735V3.09018H6.16556V2.63735C6.16556 2.5773 6.1417 2.51971 6.09924 2.47725C6.05678 2.43478 5.99919 2.41093 5.93914 2.41093ZM9.7882 2.86376H11.1467V3.09018H9.7882V2.86376ZM4.80706 2.18451C4.80706 1.88427 4.92634 1.59632 5.13864 1.38402C5.35095 1.17171 5.6389 1.05244 5.93914 1.05244H9.56178C9.86203 1.05244 10.15 1.17171 10.3623 1.38402C10.5746 1.59632 10.6939 1.88427 10.6939 2.18451V2.41093H10.241V1.9581C10.2407 1.83811 10.1928 1.72314 10.108 1.6383C10.0232 1.55345 9.90818 1.50563 9.7882 1.50527H5.71272C5.59274 1.50563 5.47777 1.55345 5.39292 1.6383C5.30808 1.72314 5.26025 1.83811 5.25989 1.9581V2.41093H4.80706V2.18451ZM4.35423 2.86376H5.71272V3.09018H4.35423V2.86376ZM5.03348 6.03357H6.16556C6.2256 6.03357 6.28319 6.05743 6.32565 6.09989C6.36812 6.14235 6.39197 6.19994 6.39197 6.25999V7.16565C6.39197 7.2257 6.36812 7.28329 6.32565 7.32575C6.28319 7.36821 6.2256 7.39206 6.16556 7.39206H5.03348V6.03357ZM1.41084 3.76942C1.41084 3.70937 1.43469 3.65178 1.47715 3.60932C1.51961 3.56686 1.5772 3.54301 1.63725 3.54301H2.29386C2.24921 3.76044 2.14175 3.96 1.9848 4.11696C1.82784 4.27392 1.62828 4.38138 1.41084 4.42602V3.76942ZM1.63725 12.1468C1.5772 12.1468 1.51961 12.1229 1.47715 12.0805C1.43469 12.038 1.41084 11.9804 1.41084 11.9204V11.2638C1.62828 11.3084 1.82784 11.4159 1.9848 11.5728C2.14175 11.7298 2.24921 11.9293 2.29386 12.1468H1.63725ZM3.22216 7.39206H2.99574C2.93569 7.39206 2.87811 7.36821 2.83564 7.32575C2.79318 7.28329 2.76933 7.2257 2.76933 7.16565V6.25999C2.76933 6.19994 2.79318 6.14235 2.83564 6.09989C2.87811 6.05743 2.93569 6.03357 2.99574 6.03357H3.22216V7.39206ZM3.22216 5.58074H2.99574C2.81576 5.58128 2.64331 5.65301 2.51604 5.78028C2.38877 5.90755 2.31704 6.08001 2.3165 6.25999V7.16565C2.31704 7.34563 2.38877 7.51809 2.51604 7.64535C2.64331 7.77262 2.81576 7.84436 2.99574 7.84489H3.22216V12.1468H2.75122C2.70207 11.8088 2.54503 11.4957 2.3035 11.2541C2.06197 11.0126 1.74886 10.8555 1.41084 10.8064V4.88338C1.74886 4.83424 2.06197 4.6772 2.3035 4.43567C2.54503 4.19413 2.70207 3.88103 2.75122 3.54301H3.22216V5.58074ZM4.58065 12.1468H3.67499V3.54301H4.58065V12.1468ZM10.4674 12.1468H5.03348V7.84489H6.16556C6.34554 7.84436 6.51799 7.77262 6.64526 7.64535C6.77253 7.51809 6.84426 7.34563 6.8448 7.16565V6.25999C6.84426 6.08001 6.77253 5.90755 6.64526 5.78028C6.51799 5.65301 6.34554 5.58128 6.16556 5.58074H5.03348V3.54301H10.4674V12.1468ZM11.8259 12.1468H10.9203V3.54301H11.8259V12.1468ZM14.0901 11.9204C14.0901 11.9804 14.0662 12.038 14.0238 12.0805C13.9813 12.1229 13.9237 12.1468 13.8637 12.1468H13.2071C13.2517 11.9293 13.3592 11.7298 13.5161 11.5728C13.6731 11.4159 13.8726 11.3084 14.0901 11.2638V11.9204ZM14.0901 10.8064C13.7521 10.8555 13.439 11.0126 13.1974 11.2541C12.9559 11.4957 12.7989 11.8088 12.7497 12.1468H12.2788V3.54301H12.7497C12.7989 3.88103 12.9559 4.19413 13.1974 4.43567C13.439 4.6772 13.7521 4.83424 14.0901 4.88338V10.8064ZM14.0901 4.42602C13.8726 4.38138 13.6731 4.27392 13.5161 4.11696C13.3592 3.96 13.2517 3.76044 13.2071 3.54301H13.8637C13.9237 3.54301 13.9813 3.56686 14.0238 3.60932C14.0662 3.65178 14.0901 3.70937 14.0901 3.76942V4.42602Z" fill="#0B0B0B"/>
<path d="M9.69346 8.67815C9.59506 8.61688 9.48254 8.582 9.36675 8.57684C9.25095 8.57168 9.13578 8.59644 9.03233 8.64871L7.78025 9.27588C7.66733 9.33203 7.57232 9.41857 7.5059 9.52577C7.43948 9.63296 7.4043 9.75657 7.4043 9.88268C7.4043 10.0088 7.43948 10.1324 7.5059 10.2396C7.57232 10.3468 7.66733 10.4333 7.78025 10.4895L9.03233 11.1166C9.13599 11.1684 9.25116 11.1928 9.3669 11.1874C9.48264 11.1821 9.59509 11.1473 9.69357 11.0863C9.79205 11.0252 9.87327 10.94 9.92953 10.8387C9.98578 10.7374 10.0152 10.6234 10.015 10.5076V9.25777C10.0156 9.1417 9.9863 9.02742 9.93 8.92592C9.8737 8.82442 9.79224 8.73909 9.69346 8.67815ZM9.56214 10.5076C9.56297 10.5462 9.55357 10.5844 9.53488 10.6182C9.51619 10.652 9.48887 10.6802 9.45572 10.7C9.42277 10.7207 9.38508 10.7325 9.34625 10.7345C9.30742 10.7365 9.26872 10.7285 9.23384 10.7114L7.98402 10.0842C7.94621 10.0659 7.91429 10.0374 7.89186 10.0019C7.86944 9.96644 7.85743 9.92537 7.8572 9.88338C7.85696 9.8414 7.86851 9.80019 7.89053 9.76444C7.91255 9.72869 7.94416 9.69984 7.98176 9.68117L9.23384 9.054C9.26535 9.03775 9.30027 9.02922 9.33572 9.02909C9.37827 9.03007 9.41974 9.04259 9.45572 9.06532C9.48887 9.08514 9.51619 9.11339 9.53488 9.1472C9.55357 9.181 9.56297 9.21915 9.56214 9.25777V10.5076Z" fill="#0B0B0B"/>
<path d="M9.78821 4.6748H8.42972C8.36967 4.6748 8.31208 4.69866 8.26962 4.74112C8.22716 4.78358 8.20331 4.84117 8.20331 4.90122V6.25971C8.20331 6.31976 8.22716 6.37735 8.26962 6.41981C8.31208 6.46227 8.36967 6.48613 8.42972 6.48613H9.78821C9.84826 6.48613 9.90585 6.46227 9.94831 6.41981C9.99077 6.37735 10.0146 6.31976 10.0146 6.25971V4.90122C10.0146 4.84117 9.99077 4.78358 9.94831 4.74112C9.90585 4.69866 9.84826 4.6748 9.78821 4.6748ZM9.5618 6.0333H8.65614V5.12763H9.5618V6.0333Z" fill="#0B0B0B"/>
</svg>
