<svg width="12" height="16" viewBox="0 0 12 16" fill="none" xmlns="http://www.w3.org/2000/svg">
<path d="M9.01189 15.1677H2.61621V11.4639H9.01189V15.1677ZM3.04864 14.7352H8.57945V11.8963H3.04864V14.7352Z" fill="white"/>
<path d="M8.95135 15.1673H8.78702L8.80432 14.7349C10.7957 14.8149 11.0832 13.1673 11.094 13.0982V13.0744C11.5005 11.5609 10.4713 11.2538 10.4281 11.243C9.75351 11.0268 8.95351 11.8246 8.94702 11.8333L8.63567 11.5306C8.67675 11.4895 9.62162 10.5317 10.5492 10.8279C10.9048 10.9415 11.2059 11.1825 11.3946 11.5046C11.6519 11.9371 11.693 12.5057 11.5157 13.1782C11.4854 13.3598 11.0854 15.1673 8.95135 15.1673ZM2.67675 15.1673C0.542698 15.1673 0.142698 13.3598 0.108103 13.176C-0.069194 12.5036 -0.0281129 11.9414 0.229184 11.5025C0.421762 11.1749 0.730491 10.9318 1.09405 10.8214C2.01081 10.5273 2.95351 11.4873 2.99459 11.5284L2.68324 11.8311C2.68324 11.8311 1.8854 11.0225 1.21297 11.2365C1.15891 11.2517 0.131887 11.55 0.536212 13.0722V13.096C0.547022 13.1652 0.832428 14.8127 2.82594 14.7327L2.84324 15.1652L2.67675 15.1673Z" fill="white"/>
<path d="M10.2144 11.0597C10.1863 10.9516 9.53329 8.38723 9.70842 6.1602V6.13426C9.74511 5.91927 9.73897 5.69916 9.69036 5.48655C9.64176 5.27394 9.55164 5.07303 9.42518 4.89534C9.13977 4.55588 8.65112 4.37858 7.97653 4.37858H3.65221C2.97329 4.37858 2.48464 4.55588 2.19707 4.90399C2.0721 5.08231 1.98353 5.28352 1.93641 5.4961C1.88929 5.70869 1.88456 5.92849 1.92248 6.14291V6.16885C2.09761 8.39588 1.44464 10.9602 1.41653 11.0683L0.99707 10.9602C0.99707 10.9343 1.65653 8.36561 1.49221 6.20345C1.44498 5.92838 1.45376 5.64661 1.51804 5.37503C1.58231 5.10344 1.70075 4.84762 1.86626 4.62291C2.24031 4.16885 2.84356 3.9375 3.65869 3.9375H7.97653C8.79166 3.9375 9.39491 4.16885 9.76896 4.62291C9.93486 4.84903 10.0532 5.10645 10.1167 5.3796C10.1803 5.65276 10.1877 5.93597 10.1387 6.21209C9.97437 8.37426 10.6252 10.9343 10.6338 10.9689L10.2144 11.0597Z" fill="white"/>
<path d="M8.20793 11.8962H3.4209V4.16211H3.85333V11.4637H7.77549V4.16211H8.20793V11.8962Z" fill="white"/>
<path d="M3.63678 7.14982H7.99137V7.58225H3.63678V7.14982ZM7.04002 4.37793H4.58813V3.02441H7.04002V4.37793ZM5.02056 3.9455H6.60759V3.45685H5.02056V3.9455Z" fill="white"/>
<path d="M7.47026 3.4571H4.15783C4.04819 3.45714 3.93978 3.43407 3.83965 3.38942C3.73952 3.34476 3.64992 3.27951 3.57669 3.19791C3.50346 3.11632 3.44824 3.02021 3.41463 2.91586C3.38102 2.8115 3.36977 2.70123 3.38161 2.59224L3.56756 0.730616C3.58742 0.538339 3.67812 0.360332 3.822 0.231241C3.96588 0.102151 4.15264 0.0312141 4.34594 0.0322375H7.28215C7.47647 0.0313691 7.66407 0.10321 7.80811 0.233641C7.95214 0.364071 8.04218 0.543657 8.06053 0.737102L8.24648 2.59656C8.25832 2.70556 8.24707 2.81582 8.21346 2.92018C8.17985 3.02454 8.12463 3.12064 8.0514 3.20224C7.97817 3.28383 7.88857 3.34908 7.78844 3.39374C7.68831 3.4384 7.5799 3.46146 7.47026 3.46143V3.4571ZM4.34594 0.46467C4.25931 0.464241 4.17563 0.496131 4.11125 0.554107C4.04688 0.612083 4.00644 0.69198 3.99783 0.778183L3.81188 2.63981C3.80637 2.68841 3.81123 2.73763 3.82614 2.78422C3.84105 2.8308 3.86567 2.8737 3.89837 2.91008C3.93115 2.94632 3.9712 2.97525 4.0159 2.995C4.0606 3.01474 4.10896 3.02485 4.15783 3.02467H7.47026C7.51913 3.02485 7.56749 3.01474 7.61219 2.995C7.6569 2.97525 7.69694 2.94632 7.72972 2.91008C7.76243 2.8737 7.78704 2.8308 7.80195 2.78422C7.81686 2.73763 7.82172 2.68841 7.81621 2.63981L7.63026 0.780346C7.62216 0.693753 7.58194 0.613329 7.51751 0.554906C7.45309 0.496483 7.36912 0.464292 7.28215 0.46467H4.34594Z" fill="white"/>
</svg>
