<svg width="25" height="34" viewBox="0 0 25 34" fill="none" xmlns="http://www.w3.org/2000/svg">
<path d="M19.2948 33.0554H5.70398V25.1848H19.2948V33.0554ZM6.6229 32.1364H18.3759V26.1037H6.6229V32.1364Z" fill="#0B0B0B"/>
<path d="M19.1661 33.057H18.817L18.8537 32.1381C23.0853 32.3081 23.6964 28.807 23.7194 28.66V28.6095C24.5832 25.3932 22.3961 24.7408 22.3043 24.7178C20.8707 24.2584 19.1707 25.9538 19.157 25.9722L18.4953 25.3289C18.5826 25.2416 20.5905 23.2062 22.5616 23.8357C23.3172 24.0771 23.9571 24.5893 24.358 25.2738C24.9048 26.1927 24.9921 27.4011 24.6153 28.83C24.551 29.2159 23.701 33.057 19.1661 33.057ZM5.83263 33.057C1.29776 33.057 0.447764 29.2159 0.374251 28.8254C-0.002506 27.3965 0.0847914 26.2019 0.631548 25.2692C1.04078 24.5732 1.69682 24.0565 2.46939 23.8219C4.41749 23.197 6.42074 25.237 6.50803 25.3243L5.84641 25.9676C5.84641 25.9676 4.15101 24.2492 2.72209 24.7041C2.60722 24.7362 0.424792 25.3703 1.28398 28.6049V28.6554C1.30695 28.8024 1.91344 32.3035 6.14966 32.1335L6.18641 33.0524L5.83263 33.057Z" fill="#0B0B0B"/>
<path d="M21.8495 24.327C21.7897 24.0972 20.4022 18.6481 20.7743 13.9156V13.8605C20.8523 13.4036 20.8392 12.9359 20.7359 12.4841C20.6327 12.0323 20.4411 11.6054 20.1724 11.2278C19.5659 10.5064 18.5276 10.1297 17.094 10.1297H7.90486C6.46215 10.1297 5.42378 10.5064 4.8127 11.2462C4.54714 11.6251 4.35892 12.0527 4.25879 12.5044C4.15867 12.9562 4.1486 13.4232 4.22918 13.8789V13.934C4.60134 18.6664 3.21378 24.1156 3.15405 24.3454L2.2627 24.1156C2.2627 24.0605 3.66405 18.6021 3.31486 14.0075C3.2145 13.423 3.23317 12.8243 3.36975 12.2471C3.50633 11.67 3.75802 11.1264 4.10972 10.6489C4.90459 9.684 6.18648 9.19238 7.91864 9.19238H17.094C18.8262 9.19238 20.1081 9.684 20.903 10.6489C21.2555 11.1294 21.5069 11.6764 21.6419 12.2569C21.777 12.8373 21.7929 13.4391 21.6886 14.0259C21.3395 18.6205 22.7224 24.0605 22.7408 24.134L21.8495 24.327Z" fill="#0B0B0B"/>
<path d="M17.5855 26.1048H7.41309V9.66992H8.332V25.1859H16.6666V9.66992H17.5855V26.1048Z" fill="#0B0B0B"/>
<path d="M7.87305 16.0194H17.1266V16.9383H7.87305V16.0194ZM15.1049 10.1291H9.89467V7.25293H15.1049V10.1291ZM10.8136 9.21023H14.186V8.17185H10.8136V9.21023Z" fill="#0B0B0B"/>
<path d="M16.0192 8.17142H8.98024C8.74727 8.17149 8.51689 8.12248 8.30411 8.02758C8.09134 7.93268 7.90094 7.79403 7.74533 7.62064C7.58971 7.44725 7.47237 7.24303 7.40095 7.02127C7.32952 6.79951 7.30561 6.56519 7.33078 6.33358L7.72592 2.37763C7.76813 1.96904 7.96086 1.59078 8.2666 1.31646C8.57234 1.04214 8.96921 0.891403 9.37997 0.893578H15.6194C16.0323 0.891733 16.431 1.04439 16.7371 1.32156C17.0432 1.59872 17.2345 1.98035 17.2735 2.39142L17.6686 6.34277C17.6938 6.57438 17.6699 6.8087 17.5985 7.03046C17.527 7.25222 17.4097 7.45644 17.2541 7.62983C17.0985 7.80321 16.9081 7.94187 16.6953 8.03677C16.4825 8.13167 16.2521 8.18068 16.0192 8.18061V8.17142ZM9.37997 1.8125C9.19588 1.81159 9.01806 1.87935 8.88127 2.00255C8.74448 2.12575 8.65854 2.29553 8.64024 2.47871L8.24511 6.43466C8.2334 6.53794 8.24372 6.64253 8.2754 6.74153C8.30708 6.84053 8.3594 6.93169 8.42889 7.00898C8.49855 7.086 8.58365 7.14749 8.67864 7.18944C8.77363 7.2314 8.8764 7.25288 8.98024 7.2525H16.0192C16.123 7.25288 16.2258 7.2314 16.3208 7.18944C16.4158 7.14749 16.5009 7.086 16.5705 7.00898C16.64 6.93169 16.6923 6.84053 16.724 6.74153C16.7557 6.64253 16.766 6.53794 16.7543 6.43466L16.3592 2.48331C16.3419 2.2993 16.2565 2.1284 16.1196 2.00425C15.9827 1.8801 15.8042 1.81169 15.6194 1.8125H9.37997Z" fill="#0B0B0B"/>
</svg>
