<svg width="16" height="15" viewBox="0 0 16 15" fill="none" xmlns="http://www.w3.org/2000/svg">
<path d="M13.299 0.488281C13.1353 0.488281 13.037 0.618312 13.037 0.781937V3.45125H10.9432C10.7796 3.45125 10.6667 3.59603 10.6667 3.75966V6.11791H8.26194C8.09831 6.11791 8 6.24619 8 6.40981V8.78456H5.61163C5.448 8.78456 5.33334 8.91472 5.33334 9.07837V11.4513H2.92859C2.76497 11.4513 2.66666 11.596 2.66666 11.7597V14.1179H0V14.7105H2.92859C3.09222 14.7105 3.25925 14.5899 3.25925 14.4263V12.0438H5.61159C5.77522 12.0438 5.92591 11.9233 5.92591 11.7596V9.37712H8.26191C8.42553 9.37712 8.59256 9.24197 8.59256 9.07834V6.71047H10.9432C11.1068 6.71047 11.2592 6.57344 11.2592 6.40978V4.04378H13.2989C13.4626 4.04378 13.6296 3.92322 13.6296 3.75959V1.08088H16V0.488281H13.299ZM13.299 8.78459H11.5212C11.3576 8.78459 11.2249 8.91725 11.2249 9.08091C11.2249 9.24456 11.3576 9.37722 11.5212 9.37722H12.4405L10.7191 11.0973C10.6916 11.1247 10.6698 11.1573 10.6549 11.1932C10.64 11.2291 10.6323 11.2676 10.6323 11.3064C10.6323 11.3453 10.64 11.3838 10.6549 11.4196C10.6698 11.4555 10.6916 11.4881 10.7191 11.5156C10.7466 11.5431 10.7793 11.5649 10.8152 11.5797C10.8512 11.5946 10.8897 11.6021 10.9286 11.602C11.0044 11.602 11.0974 11.5729 11.1553 11.5151L13.0371 9.65031V10.856C13.0379 10.9341 13.0694 11.0087 13.1249 11.0636C13.1804 11.1185 13.2553 11.1493 13.3334 11.1493C13.4114 11.1493 13.4863 11.1185 13.5418 11.0636C13.5973 11.0087 13.6289 10.9341 13.6297 10.856V9.07825C13.6296 8.91463 13.4626 8.78459 13.299 8.78459Z" fill="black"/>
</svg>
