<svg enable-background="new 0 0 512 512" height="512" viewBox="0 0 512 512" width="512" xmlns="http://www.w3.org/2000/svg"><g><g><path d="m36.837 10v464.52h109.97v-179.42c0-16.07 12.61-29.66 28.67-30.11 16.68-.45 30.35 12.93 30.35 29.51v56.09c0 7.27 5.9 13.16 13.16 13.16h13.54c10.6 0 16.86-11.88 10.85-20.61l-32.82-44.35c-11.68-16.97-.46-40.66 20.12-41.57 10.58-.46 20.94 4.31 27.45 12.65l43.99 54.61c10.01 12.84 11.66 30.32 4.22 44.79l-53.84 72.62c-4.37 5.9-5.89 13.45-4.14 20.58l2.96 12.05h152.11v-321.04c-39.63 0-71.75-32.12-71.75-71.74s32.12-71.74 71.75-71.74z" fill="#eaf0f0"/></g><g><path d="m146.812 502v-206.898c0-16.075 12.607-29.663 28.675-30.107 16.678-.458 30.347 12.927 30.347 29.503v56.092c0 7.268 5.892 13.159 13.16 13.159h13.535c10.608 0 16.86-11.88 10.855-20.612l-32.823-44.344c-11.676-16.976-.458-40.664 20.125-41.572 10.578-.465 20.939 4.311 27.453 12.651l43.986 54.608c10.011 12.84 11.654 30.318 4.217 44.793l-53.842 72.62c-4.374 5.9-5.892 13.442-4.141 20.575l9.704 39.532z" fill="#ffdad5"/></g><g><path d="m146.813 407.048c-32.454-.003-58.762-26.313-58.762-58.768v-12.419c0-32.459 26.314-58.771 58.773-58.768l5.88.001c-3.715 5.057-5.891 11.318-5.891 18.008z" fill="#e0a083"/></g><g><path d="m306.34 369.274-28.111 37.773h16.426c32.456 0 58.768-26.311 58.768-58.768v-12.419c0-32.457-26.311-58.768-58.768-58.768h-30.701l38.17 47.389c10.01 12.839 11.654 30.317 4.216 44.793z" fill="#e0a083"/></g><g><path d="m101.344 71.266h78.136v79.809h-78.136z" fill="#FFF"/></g><g><circle cx="403.422" cy="81.74" fill="#C00" r="71.74"/></g><g><path d="m91.344 71.267v79.81c0 5.522 4.477 10 10 10h78.136c5.523 0 10-4.478 10-10v-79.81c0-5.522-4.477-10-10-10h-78.136c-5.523 0-10 4.477-10 10zm20 10h58.136v59.81h-58.136z"/><path d="m233.723 81.267h51.671c5.522 0 10-4.478 10-10s-4.478-10-10-10h-51.671c-5.523 0-10 4.478-10 10s4.477 10 10 10z"/><path d="m91.344 209.26c0 5.522 4.477 10 10 10h235.721c5.522 0 10-4.478 10-10s-4.478-10-10-10h-235.721c-5.523 0-10 4.477-10 10z"/><path d="m233.723 127.546h51.671c5.522 0 10-4.478 10-10s-4.478-10-10-10h-51.671c-5.523 0-10 4.478-10 10s4.477 10 10 10z"/><path d="m485.163 81.74c0-45.068-36.664-81.735-81.73-81.74-.002 0-.003 0-.005 0h-150.743c-5.523 0-10 4.478-10 10s4.477 10 10 10h97.223c-17.762 15.413-28.23 38.218-28.23 61.74 0 40.667 31.359 76.184 71.75 81.132v301.648h-134.27c-1.576-5.731-2.449-11.514 1.373-16.669l22.838-30.804h11.285c37.919 0 68.769-30.85 68.769-68.769v-12.419c0-37.919-30.85-68.768-68.769-68.768h-25.916c-9.787-12.15-22.21-20.575-38.503-19.862-11.968.529-22.477 6.738-28.743 16.806-7.35-6.098-16.755-9.303-26.295-9.042-10.531.295-20.084 4.899-27.027 12.099h-1.345c-.002 0-.004 0-.006 0-18.367 0-35.635 7.152-48.624 20.14-12.99 12.988-20.144 30.259-20.144 48.628v12.42c0 34.517 25.567 63.168 58.756 68.031v48.208h-89.97v-444.519h117.851c5.523 0 10-4.478 10-10s-4.477-10-10-10h-127.851c-5.523 0-10 4.478-10 10v464.52c0 5.522 4.477 10 10 10h99.975v17.48c0 5.522 4.477 10 10 10s10-4.478 10-10l.001-206.898c0-10.399 8.356-19.818 18.948-20.111 10.826-.283 20.066 8.668 20.066 19.51v56.09c0 12.771 10.39 23.16 23.16 23.16h.006 13.534c18.012-.256 30.096-21.466 18.893-36.562l-32.711-44.193c-3.38-5.004-3.748-11.511-1.062-16.905 1.269-2.546 5.121-8.509 13.476-8.878 7.464-.316 14.574 3.164 19.216 8.932l43.935 54.541c7.083 9.129 9.773 24.775 2.527 34.655l-52.34 70.598c-7.329 9.896-7.776 21.509-4.793 33.079l8.684 35.368c1.289 5.25 6.84 8.615 12.096 7.327 5.363-1.317 8.644-6.732 7.327-12.097l-3.706-15.096h139.359c5.522 0 10-4.478 10-10v-311.674c40.365-4.952 71.735-39.423 71.735-81.106zm-200.315 205.352h9.806c26.891 0 48.769 21.877 48.769 48.768v12.419c0 25.665-19.928 46.763-45.124 48.632l16.075-21.681c11.896-16.051 7.094-42.407-4.462-57.022l-12.414-15.411zm-186.797 61.188v-12.42c0-13.027 5.073-25.274 14.285-34.485 6.958-6.957 15.647-11.554 25.096-13.386-.412 2.337-.625 4.739-.625 7.11v100.915c-22.105-4.63-38.756-24.274-38.756-47.734zm120.942 5.47c-1.742 0-3.16-1.418-3.16-3.16v-27.86l19.373 26.178c1.343 2.088-.213 4.842-2.679 4.842zm184.432-210.27c-33.592-.001-61.743-28.171-61.743-61.74 0-33.572 28.153-61.739 61.743-61.74 34.043.001 61.738 27.697 61.738 61.74s-27.695 61.739-61.738 61.74z"/><path d="m423.045 56.94-32.182 32.182-9.54-9.541c-3.905-3.903-10.235-3.904-14.143 0-3.905 3.905-3.905 10.236 0 14.143l16.611 16.612c1.875 1.875 4.419 2.929 7.071 2.929s5.195-1.054 7.071-2.929l39.253-39.253c3.905-3.905 3.905-10.237 0-14.143-3.905-3.904-10.235-3.904-14.141 0z"/><path d="m200.17 13.819c1.991 5.07 8.082 7.472 13.05 5.41 5.035-2.09 7.492-8.009 5.41-13.05-2.079-5.035-8.03-7.508-13.06-5.41-5.024 2.096-7.499 8.016-5.4 13.05z"/></g></g></svg>