<svg enable-background="new 0 0 512 512" height="512" viewBox="0 0 512 512" width="512" xmlns="http://www.w3.org/2000/svg"><g id="XMLID_1334_"><path id="XMLID_1371_" d="m502 30.005-164 73.557-164-73.557-164 73.558v364.432l164-73.557 164 73.557 164-73.557z" fill="#e2e9ee"/><g id="XMLID_1367_" fill="#FFF"><path id="XMLID_1370_" d="m54 132.051v267.986l120-53.823v-267.986z"/><path id="XMLID_1369_" d="m338 151.786v267.986l120-53.823v-267.986z"/><path id="XMLID_1368_" d="m174 78.228v267.986l164 73.558v-267.986z"/></g><path id="XMLID_1360_" d="m338 220.995-56.981-80.953c-19.501-27.706-16.248-65.423 7.709-89.38 27.212-27.212 71.332-27.212 98.544 0 23.957 23.957 27.21 61.674 7.709 89.38z" fill="#C00"/><circle id="XMLID_1264_" cx="174" cy="371.294" fill="#555" r="39.747"/><circle id="XMLID_1307_" cx="338" cy="99.934" fill="#fff" r="20"/><g id="XMLID_532_"><path id="XMLID_1098_" d="m338 131.934c17.645 0 32-14.355 32-32s-14.355-32-32-32-32 14.355-32 32 14.355 32 32 32zm0-44c6.617 0 12 5.383 12 12s-5.383 12-12 12-12-5.383-12-12 5.383-12 12-12z"/><path id="XMLID_1101_" d="m507.435 21.612c-2.848-1.844-6.435-2.118-9.527-.73l-90.186 40.45c-3.54-6.374-7.996-12.358-13.379-17.741-31.068-31.067-81.619-31.067-112.687 0-5.382 5.383-9.838 11.367-13.378 17.741l-90.185-40.45c-2.603-1.167-5.581-1.167-8.185 0l-164 73.558c-3.595 1.611-5.908 5.183-5.908 9.123v364.432c0 3.391 1.719 6.551 4.565 8.394 1.645 1.065 3.535 1.606 5.436 1.606 1.39 0 2.785-.29 4.092-.875l137.252-61.56c3.946 2.028 8.189 3.556 12.656 4.471v61.964c0 5.523 4.477 10 10 10s10-4.477 10-10v-61.964c4.467-.915 8.71-2.443 12.656-4.471l137.251 61.56c1.301.583 2.697.875 4.092.875s2.791-.292 4.092-.875l164-73.558c3.595-1.612 5.908-5.185 5.908-9.124v-364.432c0-3.392-1.719-6.552-4.565-8.394zm-211.636 36.121c11.635-11.636 26.918-17.452 42.201-17.452s30.566 5.817 42.201 17.453c20.57 20.569 23.347 52.765 6.603 76.553l-48.804 69.334-48.804-69.335c-16.744-23.788-13.967-55.984 6.603-76.553zm-275.799 52.304 154-69.072 86.835 38.947c-2.139 8.233-2.93 16.757-2.372 25.24l-80.371-36.048c-2.604-1.168-5.581-1.168-8.185 0l-120 53.823c-3.595 1.612-5.908 5.185-5.908 9.124v267.986c0 3.391 1.719 6.551 4.565 8.394 1.645 1.065 3.535 1.606 5.436 1.606 1.39 0 2.785-.29 4.092-.876l66.797-29.96c1.314 8.193 4.634 15.723 9.442 22.069l-114.331 51.28zm183.747 261.257c0 16.402-13.344 29.747-29.747 29.747s-29.747-13.344-29.747-29.747 13.344-29.747 29.747-29.747 29.747 13.345 29.747 29.747zm288.253 16.669-154 69.072-124.331-55.765c4.808-6.347 8.128-13.876 9.442-22.069l110.797 49.695c1.302.583 2.697.875 4.092.875s2.791-.292 4.092-.875l120-53.823c3.595-1.612 5.908-5.185 5.908-9.125v-71.948c0-5.523-4.477-10-10-10s-10 4.477-10 10v65.474l-110 49.337-116.479-52.242c-6.292-20.264-25.215-35.022-47.521-35.022s-41.229 14.758-47.521 35.021l-62.479 28.024v-246.066l110-49.337 90.02 40.376c2.265 5.629 5.194 11.081 8.821 16.234l56.981 80.953c1.873 2.661 4.923 4.244 8.177 4.244s6.305-1.583 8.177-4.244l56.981-80.953c3.627-5.153 6.556-10.604 8.821-16.234l36.022-16.157v90.592c0 5.523 4.477 10 10 10s10-4.477 10-10v-106.037c0-3.391-1.719-6.551-4.565-8.394-2.847-1.844-6.435-2.117-9.527-.73l-36.371 16.313c.558-8.483-.233-17.007-2.372-25.24l76.835-34.462z"/><path id="XMLID_1280_" d="m458 239c-2.63 0-5.21 1.07-7.07 2.93s-2.93 4.44-2.93 7.07 1.07 5.21 2.93 7.07 4.44 2.93 7.07 2.93 5.21-1.07 7.07-2.93 2.93-4.44 2.93-7.07-1.07-5.21-2.93-7.07-4.44-2.93-7.07-2.93z"/><path id="XMLID_1327_" d="m172.148 270.129c-5.457.852-9.189 5.966-8.337 11.423.126.805.189 1.626.189 2.442 0 5.523 4.477 10 10 10s10-4.477 10-10c0-1.846-.144-3.706-.429-5.528-.852-5.456-5.964-9.192-11.423-8.337z"/><path id="XMLID_1328_" d="m277.159 268.384-5.946-4.905c-4.259-3.514-10.563-2.909-14.078 1.35-3.515 4.26-2.91 10.563 1.35 14.078l5.946 4.905c1.863 1.537 4.117 2.287 6.358 2.287 2.882 0 5.742-1.24 7.719-3.637 3.516-4.261 2.911-10.564-1.349-14.078z"/><path id="XMLID_1329_" d="m214.173 184.989c-3.119-4.557-9.342-5.723-13.9-2.604-4.558 3.12-5.724 9.343-2.604 13.9l4.354 6.361c1.938 2.831 5.072 4.353 8.261 4.353 1.946 0 3.912-.567 5.639-1.749 4.558-3.12 5.724-9.343 2.604-13.9z"/><path id="XMLID_1330_" d="m242.47 226.334c-3.12-4.557-9.343-5.722-13.9-2.604-4.558 3.12-5.724 9.343-2.604 13.9l4.354 6.361c1.938 2.831 5.072 4.353 8.261 4.353 1.946 0 3.913-.567 5.639-1.749 4.558-3.12 5.724-9.343 2.604-13.9z"/><path id="XMLID_1331_" d="m311.846 288.064c-1.676.313-3.386.408-5.066.28-5.515-.427-10.313 3.698-10.736 9.205s3.699 10.313 9.205 10.736c.992.076 2 .115 2.995.115 2.432 0 4.883-.229 7.287-.679 5.428-1.017 9.004-6.243 7.987-11.671-1.018-5.429-6.244-9.003-11.672-7.986z"/><path id="XMLID_1429_" d="m184.3 149.716c-2.704-1.635-5.572-3.037-8.525-4.164-5.161-1.97-10.94.616-12.909 5.775-1.97 5.16.616 10.939 5.775 12.909 1.839.702 3.625 1.574 5.307 2.592 1.619.979 3.404 1.445 5.167 1.445 3.384 0 6.686-1.718 8.565-4.825 2.859-4.725 1.345-10.873-3.38-13.732z"/><path id="XMLID_1432_" d="m149.966 242.884-.667-.417c-1.646-1.028-3.252-2.157-4.775-3.356-4.34-3.417-10.627-2.668-14.043 1.671-3.417 4.339-2.668 10.626 1.671 14.043 2.089 1.645 4.292 3.194 6.548 4.604l.667.417c1.648 1.03 3.479 1.521 5.29 1.521 3.333 0 6.593-1.667 8.49-4.702 2.927-4.685 1.502-10.855-3.181-13.781z"/><path id="XMLID_1437_" d="m124.379 203.207c-.655-5.484-5.635-9.399-11.115-8.744-5.484.655-9.399 5.631-8.744 11.115.352 2.94.886 5.89 1.588 8.766 1.116 4.568 5.205 7.629 9.707 7.629.786 0 1.584-.093 2.381-.288 5.365-1.311 8.652-6.723 7.341-12.088-.513-2.096-.902-4.246-1.158-6.39z"/><path id="XMLID_1438_" d="m137.698 168.254c4.484-3.224 5.506-9.473 2.282-13.957-3.225-4.485-9.473-5.506-13.957-2.282-2.566 1.845-4.98 3.934-7.176 6.209-3.836 3.974-3.724 10.304.25 14.14 1.941 1.874 4.443 2.805 6.944 2.805 2.618 0 5.234-1.022 7.196-3.055 1.365-1.415 2.866-2.713 4.461-3.86z"/><path id="XMLID_1439_" d="m338 253.495c-5.523 0-10 4.477-10 10v4c0 5.523 4.477 10 10 10s10-4.477 10-10v-4c0-5.523-4.477-10-10-10z"/></g></g></svg>