<svg height="512" width="512" xmlns="http://www.w3.org/2000/svg" xmlns:xlink="http://www.w3.org/1999/xlink" x="0px" y="0px"
	 viewBox="0 0 512 512" style="enable-background:new 0 0 512 512;">
<g>
	<path style="fill:#FFF;" d="M120,388.031L120,388.031c-11.046,0-20-8.954-20-20v-20h40v20
		C140,379.077,131.046,388.031,120,388.031z"/>
	<path style="fill:#FFF;" d="M248.71,501.969L248.71,501.969c-11.046,0-20-8.954-20-20v-20h40v20
		C268.71,493.014,259.755,501.969,248.71,501.969z"/>
	<path style="fill:#FFF;" d="M435.29,501.969L435.29,501.969c-11.046,0-20-8.954-20-20v-20h40v20
		C455.29,493.014,446.336,501.969,435.29,501.969z"/>
</g>
<path style="fill:#FFF;" d="M346.333,10.031H73.667C58.387,10.031,46,22.418,46,37.698v258.333c0,28.719,23.281,52,52,52h224
	c28.719,0,52-23.281,52-52V37.698C374,22.418,361.613,10.031,346.333,10.031z"/>
<rect x="46" y="50.03" style="fill:#FFF;" width="328" height="183.03"/>
<g>
	<path style="fill:#FFFFFF;" d="M432.966,281.031H251.033c-7.504,0-14.496,3.802-18.575,10.1L182,369.031h320l-50.458-77.9
		C447.463,284.833,440.47,281.031,432.966,281.031z"/>
	<circle style="fill:#FFFFFF;" cx="113.42" cy="290.24" r="20"/>
</g>
<path style="fill:#C00;" d="M484.031,461.969H199.969c-9.924,0-17.969-8.045-17.969-17.969v-74.969h320V444
	C502,453.924,493.955,461.969,484.031,461.969z"/>
<path d="M194.452,280.24h-23.548c-5.523,0-10,4.478-10,10s4.477,10,10,10h23.548c5.523,0,10-4.478,10-10
	S199.975,280.24,194.452,280.24z"/>
<path d="M113.419,260.24c-16.542,0-30,13.458-30,30s13.458,30,30,30s30-13.458,30-30S129.961,260.24,113.419,260.24z
	 M113.419,300.24c-5.514,0-10-4.486-10-10s4.486-10,10-10s10,4.486,10,10S118.934,300.24,113.419,300.24z"/>
<path d="M220.12,147.149c-2.64,0-5.21,1.061-7.07,2.931c-1.86,1.859-2.93,4.439-2.93,7.069c0,2.631,1.07,5.21,2.93,7.07
	s4.43,2.93,7.07,2.93c2.63,0,5.21-1.069,7.07-2.93s2.93-4.439,2.93-7.07c0-2.63-1.07-5.21-2.93-7.069
	C225.33,148.21,222.75,147.149,220.12,147.149z"/>
<path d="M510.387,363.597c0.002-0.001,0.004-0.001,0.006-0.002l-50.458-77.9c-5.947-9.182-16.029-14.663-26.969-14.663H384v-55.969
	h14.516c11.847,0,21.484-9.638,21.484-21.484v-54.063c0-11.847-9.638-21.484-21.484-21.484H384V37.698
	c0-20.77-16.897-37.667-37.667-37.667H73.667C52.897,0.031,36,16.929,36,37.698v80.333H21.484C9.638,118.031,0,127.669,0,139.516
	v54.063c0,11.847,9.638,21.484,21.484,21.484H36v80.969c0,31.474,23.581,57.528,54,61.467v10.533c0,16.542,13.458,30,30,30
	s30-13.458,30-30v-10h27.21l-3.604,5.563c0.002,0.001,0.004,0.001,0.006,0.002c-1.017,1.565-1.613,3.429-1.613,5.435V444
	c0,15.422,12.547,27.969,27.969,27.969h18.741v10c0,16.542,13.458,30,30,30s30-13.458,30-30v-10H405.29v10c0,16.542,13.458,30,30,30
	s30-13.458,30-30v-10h18.741C499.453,471.969,512,459.422,512,444v-74.969C512,367.026,511.404,365.163,510.387,363.597z
	 M443.149,296.567l40.459,62.464H292.852l67.604-67.604c0.127-0.127,0.239-0.263,0.357-0.396h39.649l-23.533,23.533
	c-3.905,3.905-3.906,10.237,0,14.143c1.953,1.952,4.512,2.929,7.071,2.929c2.559,0,5.119-0.977,7.071-2.929l37.676-37.676h4.219
	C437.097,291.031,440.903,293.101,443.149,296.567z M200.392,359.031l40.459-62.464c2.246-3.467,6.052-5.536,10.183-5.536h81.534
	l-68.001,68H200.392z M56,60.031h148.889L56,208.92V60.031z M233.174,60.031h69.917l-62.795,62.795
	c-3.905,3.905-3.905,10.237,0,14.143c1.953,1.952,4.512,2.929,7.071,2.929s5.119-0.977,7.071-2.929l76.938-76.938H364v163.031
	H70.143L233.174,60.031z M398.516,138.031c0.818,0,1.484,0.666,1.484,1.484v54.063c0,0.818-0.666,1.484-1.484,1.484H384v-57.031
	H398.516z M73.667,20.031h272.667c9.741,0,17.667,7.926,17.667,17.667v2.333H56v-2.333C56,27.957,63.925,20.031,73.667,20.031z
	 M21.484,195.063c-0.818,0-1.484-0.666-1.484-1.484v-54.063c0-0.818,0.666-1.484,1.484-1.484H36v57.031L21.484,195.063
	L21.484,195.063z M130,368.031c0,5.514-4.486,10-10,10s-10-4.486-10-10v-10h20V368.031z M98,338.031c-23.159,0-42-18.841-42-42
	v-52.969h308v27.969H251.034c-10.94,0-21.022,5.481-26.969,14.663l-33.9,52.337H98z M258.709,481.969c0,5.514-4.486,10-10,10
	s-10-4.486-10-10v-10h20V481.969z M445.291,481.969c0,5.514-4.486,10-10,10s-10-4.486-10-10v-10h20V481.969z M492,444
	c0,4.394-3.575,7.969-7.969,7.969H199.969c-4.394,0-7.969-3.575-7.969-7.969v-64.969h300V444z"/>
<path d="M296.333,425.5h91.333c5.523,0,10-4.478,10-10s-4.477-10-10-10h-91.333c-5.523,0-10,4.478-10,10
	S290.811,425.5,296.333,425.5z"/>
<path d="M256,405.5c-2.63,0-5.21,1.069-7.07,2.93c-1.86,1.86-2.93,4.44-2.93,7.07s1.07,5.21,2.93,7.069
	c1.86,1.86,4.44,2.931,7.07,2.931s5.21-1.07,7.07-2.931c1.86-1.859,2.93-4.439,2.93-7.069s-1.07-5.21-2.93-7.07
	S258.63,405.5,256,405.5z"/>
<path d="M424.33,425.5c2.63,0,5.21-1.07,7.08-2.931c1.86-1.859,2.92-4.439,2.92-7.069s-1.06-5.21-2.92-7.07
	c-1.87-1.86-4.45-2.93-7.08-2.93c-2.63,0-5.2,1.069-7.07,2.93c-1.86,1.86-2.93,4.44-2.93,7.07s1.07,5.21,2.93,7.069
	C419.13,424.43,421.7,425.5,424.33,425.5z"/>
<g>
</g>
<g>
</g>
<g>
</g>
<g>
</g>
<g>
</g>
<g>
</g>
<g>
</g>
<g>
</g>
<g>
</g>
<g>
</g>
<g>
</g>
<g>
</g>
<g>
</g>
<g>
</g>
<g>
</g>
</svg>