<svg width="94" height="30" viewBox="0 0 94 30" fill="none" xmlns="http://www.w3.org/2000/svg">
<path fill-rule="evenodd" clip-rule="evenodd" d="M10.0537 15.1581L30.1185 15.1562L30.128 15.1701L20.0937 29.9769H20.0914L10.0537 15.1588V15.1581Z" fill="#D8232A"/>
<path fill-rule="evenodd" clip-rule="evenodd" d="M20.0931 0.34375L22.1098 3.32067L20.9566 4.54564L19.4012 3.1499L17.7405 3.81641L20.0931 0.34375ZM10.054 15.1627L12.0707 18.1396L10.9175 19.3644L9.36188 17.9689L7.70117 18.6354L10.5134 14.4844L14.4243 12.9853L11.3786 15.1627H10.054ZM22.5149 3.91858L30.12 15.1627L32.1345 18.1541L30.9825 19.3774L29.429 17.9833L27.7702 18.6492L30.12 15.1627H19.9248C22.1459 14.0162 24.2081 12.5489 22.6087 11.9235C20.7248 11.187 20.974 10.9868 21.1125 10.6795C21.278 10.3952 21.4282 10.1059 21.5123 9.87767C21.7339 9.27683 23.6736 8.15676 24.7047 7.87312C23.2192 6.36515 21.0437 8.06361 20.669 7.96333C20.0314 7.79277 19.0309 7.97151 18.2868 8.41123C17.1686 9.07207 16.6641 9.92025 15.5266 10.567L11.6882 12.7501L17.0341 4.85906L19.2579 3.96641L20.999 5.52851L22.5149 3.91858ZM16.9962 15.1627H16.165L18.3164 13.8177L16.9962 15.1627ZM14.6115 15.1627H13.2996L16.4371 13.4158L14.6115 15.1627ZM32.5389 18.7512L35.5043 23.1284H33.8514C33.7467 23.1284 33.6617 23.2134 33.6617 23.3181C33.6617 23.423 33.7467 23.5079 33.8514 23.5079H35.7615L35.9585 23.7989C35.2937 23.7937 34.6222 23.7937 33.9527 23.7985C31.6184 23.8155 29.3516 23.8875 27.4446 23.9921C27.3401 23.9978 27.2312 24.0889 27.2369 24.1933C27.2428 24.2976 27.3611 24.3758 27.4654 24.3702C29.3742 24.2653 31.6349 24.1933 33.9542 24.1765C34.7094 24.1713 35.4676 24.1717 36.2164 24.1793L36.5575 24.6832C35.3138 24.6775 34.1652 24.6998 32.4577 24.7424C32.3535 24.7449 32.2312 24.8399 32.2337 24.9444C32.236 25.0486 32.3623 25.1229 32.4668 25.1204C34.2311 25.0763 35.3971 25.0541 36.6836 25.0619L36.8147 25.0627L37.2202 25.6612C34.9777 25.6304 32.6625 25.6935 31.4231 25.7433C31.2926 25.7483 31.152 25.8607 31.157 25.9912C31.1621 26.1215 31.3112 26.221 31.4415 26.2159C32.7387 26.1637 35.2156 26.0972 37.5439 26.1391L37.7984 26.5149C36.363 26.5111 35.0587 26.5325 34.1203 26.5629C33.9196 26.5694 33.702 26.5604 33.5277 26.6651C33.4461 26.714 33.3901 26.7901 33.3928 26.8684C33.3966 26.9762 33.5103 27.0884 33.6408 27.1128C33.7905 27.1405 33.9657 27.1358 34.1142 27.131C35.1334 27.0975 36.5927 27.0746 38.184 27.0838L38.4731 27.5105C35.4435 27.5118 32.7185 27.5273 30.7417 27.7214C28.5546 27.9362 27.2346 28.4321 27.2346 28.9791C27.2346 29.329 27.7954 29.6928 28.7977 29.9814H25.1921C24.432 29.7255 23.8228 29.4494 23.8228 28.9568C23.7978 27.9209 27.4836 27.4979 28.5571 27.396C29.7124 27.2861 30.9829 27.2095 32.3335 27.1757C32.4842 27.1721 32.601 27.169 32.7827 27.1285C32.9174 27.0983 33.034 26.9852 33.0319 26.8805C33.0303 26.7958 32.951 26.7106 32.8454 26.6695C32.6478 26.5927 32.493 26.6044 32.2939 26.6093C29.4382 26.6817 26.9379 26.9433 25.1149 27.3051C23.0253 27.7199 21.7685 28.3195 21.7685 28.9791C21.7685 29.3498 22.166 29.6884 22.881 29.9814H20.0931L21.7916 27.4742C22.5382 27.2357 23.3962 26.994 24.3764 26.8258C26.0589 26.5375 28.0977 26.3191 30.5436 26.2631C30.6741 26.2606 30.8272 26.1526 30.8247 26.0221C30.8222 25.8918 30.6647 25.7879 30.5342 25.7905C28.0559 25.8473 25.9945 26.0678 24.2967 26.3588C23.5517 26.4865 22.876 26.6279 22.2653 26.775L22.8147 25.964C23.9774 25.7137 25.139 25.5484 26.3788 25.4386C28.4543 25.2544 30.504 25.1628 31.7302 25.151C31.8347 25.1504 31.9555 25.065 31.9547 24.9607C31.9538 24.8563 31.8317 24.7724 31.7272 24.7732C30.253 24.787 27.6049 24.9152 25.1463 25.1783C24.467 25.2509 23.8016 25.334 23.1781 25.4277L23.6713 24.6998C24.7374 24.5743 25.7937 24.4927 26.759 24.4256C26.8632 24.4186 26.9803 24.3284 26.9734 24.224C26.9665 24.1195 26.8381 24.0406 26.7336 24.0475C25.8653 24.1079 24.9208 24.1803 23.9507 24.2871L24.4786 23.5079H33.2682C33.3731 23.5079 33.458 23.423 33.458 23.3181C33.458 23.2134 33.3731 23.1284 33.2682 23.1284H24.7358L27.0649 19.6906L29.2859 18.799L31.0249 20.359L32.5389 18.7512ZM38.8585 28.0797L39.2818 28.7045H32.7137C32.485 28.7045 32.2016 28.694 31.9868 28.7502C31.8363 28.7896 31.6935 28.8891 31.6935 28.9891C31.6935 29.0875 31.8326 29.1813 31.9794 29.2254C32.2049 29.2931 32.4473 29.2738 32.6728 29.2738H39.6674L40.147 29.9814L33.3003 29.9817C32.2584 29.9477 31.3536 29.8572 30.5424 29.6393C29.9337 29.4758 29.4701 29.264 29.4648 28.9761C29.4529 28.3251 32.1703 28.1489 32.9021 28.1261C34.6115 28.0724 36.6607 28.078 38.8585 28.0797ZM12.4756 18.7375L20.0931 29.9814H12.6554C10.2098 30.0064 6.849 27.2819 7.6846 24.5269C8.3853 22.2165 12.0489 22.1418 12.4525 24.5233C12.5048 24.8435 12.4332 25.3776 12.2316 25.8192C12.1082 26.0898 12.0766 26.1289 12.0082 26.0091C11.9838 25.9667 11.9549 25.9042 11.9159 25.8249L11.8101 25.5555C11.3423 26.599 10.9091 27.0584 10.2126 27.4086C11.2355 27.4251 12.1066 27.3343 12.9944 26.3856L12.6277 26.3493C12.3008 26.317 12.3491 26.2749 12.4322 26.1681C12.8008 25.6948 13.046 25.0348 13.0871 24.481C13.123 23.9984 13.0091 23.5061 12.7055 23.0596C13.0242 22.5876 13.4104 21.8638 13.255 20.7767C13.1075 21.4302 12.5366 22.0006 11.8913 22.2817C11.7336 22.1802 11.5664 22.0923 11.3933 22.0193C10.3691 21.5871 9.1674 21.7132 8.1774 22.2605C7.55138 21.9727 7.00488 21.414 6.86075 20.7767C6.72145 21.7518 7.01788 22.4344 7.31033 22.9056C6.93795 23.2711 6.63523 23.7148 6.43928 24.2246C5.58124 26.4565 6.30334 28.7802 8.01208 29.9814H0.0146484L6.99481 19.678L9.2188 18.7854L10.9596 20.3472L12.4756 18.7375Z" fill="#6A6367"/>
<path fill-rule="evenodd" clip-rule="evenodd" d="M16.7979 19.4691H19.064V17.2031H21.1189V19.4691H23.3849V21.524H21.1189V23.7901H19.064V21.524H16.7979V19.4691Z" fill="white"/>
<path fill-rule="evenodd" clip-rule="evenodd" d="M35.6607 6.13175C35.4381 6.00315 35.2231 5.91902 35.0154 5.87958C34.8077 5.83993 34.5927 5.82021 34.3701 5.82021C34.0239 5.82021 33.7273 5.8758 33.4801 5.98699C33.2328 6.09839 33.0314 6.24671 32.8757 6.43217C32.7199 6.61741 32.6062 6.82762 32.5344 7.06259C32.4627 7.29734 32.427 7.53587 32.427 7.77818C32.427 8.01063 32.4616 8.21077 32.5308 8.37902C32.6001 8.54706 32.6976 8.68678 32.8237 8.79797C32.9498 8.90916 33.0994 8.99203 33.2724 9.04636C33.4455 9.10091 33.6358 9.12797 33.8435 9.12797C34.0957 9.12797 34.3317 9.10343 34.5518 9.05392C34.7718 9.00441 34.9734 8.93266 35.1562 8.83888L35.0078 9.95119C34.9239 9.98098 34.8262 10.007 34.715 10.029C34.6038 10.0515 34.4876 10.0724 34.3663 10.0922C34.2452 10.1121 34.1217 10.1268 33.9956 10.1366C33.8695 10.1465 33.747 10.1515 33.6285 10.1515C33.2131 10.1515 32.8422 10.0922 32.5159 9.97343C32.1895 9.8549 31.9138 9.69042 31.6889 9.48042C31.4641 9.27021 31.2935 9.01678 31.1773 8.72014C31.061 8.4235 31.0029 8.09706 31.0029 7.74105C31.0029 7.31098 31.0759 6.91531 31.2217 6.55448C31.3675 6.19343 31.5765 5.88315 31.8484 5.62364C32.1203 5.36413 32.4515 5.16126 32.8422 5.01545C33.2328 4.86965 33.6704 4.79664 34.155 4.79664C34.4022 4.79664 34.6235 4.8065 34.8188 4.82643C35.0141 4.84615 35.1872 4.86965 35.3378 4.89692C35.4887 4.92399 35.6173 4.95378 35.7236 4.98587C35.83 5.01797 35.9177 5.0465 35.9869 5.07105L35.6607 6.13175ZM80.8284 22.4599C80.8845 22.4711 80.9478 22.4776 81.0185 22.4794C81.0894 22.4813 81.1603 22.4822 81.231 22.4822C81.2982 22.4822 81.3773 22.4786 81.4687 22.4711C81.56 22.4637 81.6475 22.444 81.7314 22.4123C81.8153 22.3806 81.8871 22.3351 81.9466 22.2753C82.0062 22.2157 82.036 22.132 82.036 22.0238C82.036 21.9418 82.0175 21.8738 81.9802 21.8197C81.9429 21.7657 81.8936 21.7229 81.8321 21.6913C81.7706 21.6596 81.7016 21.6371 81.6252 21.6241C81.5487 21.6111 81.4733 21.6046 81.3989 21.6046C81.2535 21.6046 81.097 21.6222 80.9291 21.6577C80.7615 21.6932 80.6218 21.7349 80.51 21.7834L80.6105 20.9729C80.6814 20.9543 80.7624 20.9364 80.8536 20.9197C80.9451 20.9031 81.0391 20.888 81.136 20.875C81.2329 20.862 81.3317 20.8517 81.4324 20.8443C81.5329 20.8368 81.6298 20.833 81.723 20.833C81.8795 20.833 82.0389 20.8498 82.2009 20.8834C82.3631 20.9169 82.5085 20.9719 82.6371 21.0483C82.7657 21.1248 82.871 21.2245 82.953 21.3474C83.0348 21.4704 83.0759 21.6233 83.0759 21.8058C83.0759 21.9585 83.0497 22.0947 82.9977 22.2138C82.9454 22.3332 82.8737 22.4356 82.7824 22.5214C82.691 22.6072 82.5821 22.6752 82.4554 22.7255C82.3287 22.7757 82.1925 22.8084 82.0471 22.8233V22.8344C82.2708 22.8866 82.4451 22.9741 82.5699 23.0973C82.6947 23.2202 82.7573 23.3973 82.7573 23.6283C82.7573 23.8706 82.7031 24.0718 82.5951 24.232C82.4871 24.3923 82.3473 24.5199 82.1757 24.6149C82.0043 24.7099 81.8153 24.7762 81.6084 24.8134C81.4016 24.8507 81.1975 24.8694 80.9963 24.8694C80.7802 24.8694 80.5603 24.8497 80.3367 24.8106C80.1131 24.7714 79.9154 24.7091 79.744 24.6233L79.9398 23.8743C80.1112 23.9526 80.2769 24.0092 80.4372 24.0447C80.5975 24.0801 80.7726 24.0978 80.9627 24.0978C81.0521 24.0978 81.1417 24.0894 81.231 24.0726C81.3204 24.056 81.4016 24.0271 81.4742 23.9859C81.547 23.945 81.6057 23.8901 81.6504 23.8211C81.6951 23.7522 81.7173 23.6673 81.7173 23.5668C81.7173 23.4736 81.6959 23.399 81.6531 23.3431C81.6103 23.2873 81.5562 23.2454 81.491 23.2173C81.4257 23.1894 81.354 23.1718 81.2757 23.1642C81.1975 23.1569 81.123 23.1531 81.0521 23.1531C80.9963 23.1531 80.9357 23.1541 80.8704 23.1558C80.8054 23.1577 80.7447 23.1625 80.6887 23.1699L80.8284 22.4599ZM76.7352 23.8798C76.8546 23.9618 76.9878 24.0241 77.1351 24.0671C77.2824 24.1099 77.4286 24.1313 77.574 24.1313C77.7416 24.1313 77.884 24.1053 78.0015 24.0531C78.119 24.0011 78.2186 23.931 78.3007 23.8435C78.3827 23.7558 78.4469 23.6545 78.4935 23.5389C78.5401 23.4233 78.5782 23.3022 78.608 23.1755L78.5969 23.1642C78.5 23.2387 78.3947 23.2938 78.2812 23.3291C78.1675 23.3645 78.0508 23.3822 77.9317 23.3822C77.7676 23.3822 77.6168 23.3562 77.4789 23.3039C77.3409 23.2519 77.2236 23.1755 77.1267 23.0748C77.0298 22.9741 76.9542 22.8522 76.9003 22.7085C76.8462 22.5652 76.8191 22.402 76.8191 22.2195C76.8191 22.007 76.8537 21.8152 76.9226 21.6436C76.9916 21.4722 77.0885 21.326 77.2133 21.2048C77.3382 21.0837 77.489 20.9914 77.6661 20.928C77.8431 20.8649 78.0378 20.833 78.2503 20.833C78.7087 20.833 79.0618 20.9616 79.3098 21.2188C79.5575 21.476 79.6815 21.8264 79.6815 22.2699C79.6815 22.6051 79.6442 22.9286 79.5697 23.2397C79.4952 23.5511 79.3748 23.8278 79.2091 24.0699C79.0431 24.3122 78.8279 24.506 78.5633 24.6514C78.2988 24.7966 77.9782 24.8694 77.6019 24.8694C77.4118 24.8694 77.2217 24.845 77.0317 24.7966C76.8416 24.7481 76.6626 24.6755 76.495 24.5786L76.7352 23.8798ZM77.7695 22.1916C77.7695 22.3332 77.8068 22.4553 77.8813 22.5577C77.9558 22.6603 78.064 22.7115 78.2056 22.7115C78.3061 22.7115 78.3928 22.6901 78.4656 22.6473C78.5382 22.6043 78.598 22.5504 78.6445 22.4851C78.6911 22.4199 78.7247 22.3481 78.745 22.2699C78.7656 22.1916 78.7759 22.1169 78.7759 22.0462C78.7759 21.9753 78.7675 21.9073 78.7507 21.8421C78.7339 21.7769 78.7068 21.7192 78.6695 21.6688C78.6324 21.6185 78.5828 21.5784 78.5214 21.5486C78.4599 21.5188 78.3863 21.5039 78.3007 21.5039C78.2111 21.5039 78.1328 21.5253 78.0657 21.5681C77.9988 21.6111 77.9438 21.665 77.9008 21.7303C77.858 21.7955 77.8255 21.8692 77.8031 21.9512C77.7808 22.0332 77.7695 22.1134 77.7695 22.1916ZM73.9024 23.7512C73.9024 23.8743 73.9509 23.974 74.0478 24.0504C74.1447 24.1267 74.2658 24.1649 74.4112 24.1649C74.5677 24.1649 74.7019 24.1183 74.8135 24.0252C74.9254 23.932 74.9814 23.8127 74.9814 23.6673C74.9814 23.537 74.9394 23.429 74.8555 23.3431C74.7718 23.2573 74.6589 23.1829 74.5173 23.1195C74.4391 23.1457 74.3635 23.1783 74.2909 23.2173C74.2184 23.2565 74.1531 23.3022 74.0952 23.3543C74.0375 23.4065 73.9909 23.4661 73.9555 23.5332C73.9202 23.6004 73.9024 23.6729 73.9024 23.7512ZM74.3384 21.9512C74.3384 22.0592 74.3719 22.158 74.4391 22.2474C74.5062 22.3368 74.5826 22.4134 74.6684 22.4767C74.7391 22.4505 74.8108 22.4188 74.8834 22.3817C74.9562 22.3443 75.0204 22.3015 75.0764 22.2531C75.1322 22.2046 75.1779 22.1505 75.2134 22.0909C75.2486 22.0313 75.2665 21.9661 75.2665 21.8952C75.2665 21.7611 75.2245 21.6623 75.1406 21.599C75.0567 21.5356 74.9572 21.5039 74.8416 21.5039C74.7783 21.5039 74.7168 21.5161 74.657 21.5402C74.5975 21.5645 74.5435 21.5981 74.4951 21.6409C74.4464 21.6837 74.4084 21.7322 74.3803 21.7863C74.3524 21.8402 74.3384 21.8952 74.3384 21.9512ZM75.2665 22.8455C75.4714 22.9164 75.6336 23.0218 75.7528 23.1615C75.8721 23.3012 75.9317 23.4829 75.9317 23.7065C75.9317 23.7997 75.913 23.9125 75.8759 24.0447C75.8386 24.1771 75.7649 24.3046 75.655 24.4278C75.5451 24.5507 75.3894 24.655 75.1882 24.7408C74.9868 24.8264 74.7225 24.8694 74.3944 24.8694C74.2081 24.8694 74.0283 24.8461 73.8548 24.7995C73.6815 24.7529 73.5279 24.6848 73.3937 24.5954C73.2596 24.506 73.1524 24.3978 73.0723 24.2711C72.9921 24.1445 72.9521 24.0011 72.9521 23.8408C72.9521 23.6729 72.9781 23.5294 73.0303 23.4103C73.0826 23.2909 73.1524 23.1885 73.2399 23.1027C73.3276 23.0171 73.4281 22.9454 73.5418 22.8875C73.6555 22.8298 73.7738 22.7805 73.8967 22.7394C73.7402 22.6649 73.6165 22.5623 73.525 22.4318C73.4337 22.3015 73.388 22.1562 73.388 21.9959C73.388 21.8134 73.4245 21.6504 73.4971 21.5066C73.5699 21.3634 73.6704 21.2413 73.799 21.1406C73.9276 21.0399 74.0822 20.9635 74.263 20.9115C74.4437 20.8592 74.644 20.833 74.8639 20.833C75.0355 20.833 75.2021 20.8508 75.3642 20.8863C75.5264 20.9215 75.6707 20.9794 75.7975 21.0596C75.9244 21.1395 76.0257 21.244 76.1023 21.3726C76.1786 21.5012 76.2168 21.6585 76.2168 21.845C76.2168 21.9753 76.1908 22.0955 76.1386 22.2055C76.0863 22.3154 76.0165 22.4142 75.9288 22.5019C75.8413 22.5894 75.7408 22.6622 75.6271 22.7199C75.5134 22.7776 75.3932 22.8176 75.2665 22.8401V22.8455ZM69.4158 24.1259C69.7848 23.8649 70.1035 23.6377 70.3718 23.4439C70.6402 23.25 70.8609 23.0776 71.0342 22.9267C71.2074 22.7757 71.336 22.6397 71.42 22.5185C71.5039 22.3974 71.5458 22.2772 71.5458 22.158C71.5458 21.9604 71.4925 21.8188 71.3864 21.733C71.2802 21.6474 71.1506 21.6046 70.9979 21.6046C70.8414 21.6046 70.6783 21.6336 70.5088 21.6913C70.3391 21.749 70.1872 21.8152 70.0532 21.8897L70.1537 21.0063C70.3253 20.9543 70.5021 20.9123 70.6849 20.8806C70.8674 20.849 71.065 20.833 71.2773 20.833C71.4376 20.833 71.596 20.8536 71.7525 20.8947C71.9092 20.9356 72.0489 21.0008 72.1719 21.0902C72.2948 21.1798 72.3946 21.2952 72.471 21.4368C72.5474 21.5784 72.5856 21.75 72.5856 21.9512C72.5856 22.2008 72.5314 22.4264 72.4234 22.6276C72.3153 22.829 72.1775 23.0134 72.0097 23.181C71.8421 23.3488 71.6577 23.5043 71.4563 23.6478C71.2551 23.7913 71.0612 23.9264 70.8749 24.0531V24.0644H72.2501L72.0993 24.8022H69.2929L69.4158 24.1259ZM64.4404 23.0815C64.4404 23.1806 64.4528 23.2769 64.4776 23.3708C64.5023 23.4648 64.5407 23.5487 64.5925 23.623C64.6446 23.6971 64.71 23.7564 64.7891 23.8009C64.8682 23.8454 64.9647 23.8678 65.0784 23.8678C65.2366 23.8678 65.3776 23.833 65.5011 23.7638C65.6247 23.6948 65.7298 23.6043 65.8162 23.4932C65.9029 23.382 65.9696 23.2534 66.0166 23.1076C66.0636 22.9615 66.0871 22.8147 66.0871 22.6664C66.0871 22.4289 66.0338 22.2373 65.9276 22.0915C65.8213 21.9455 65.6618 21.8727 65.4491 21.8727C65.2909 21.8727 65.1499 21.9122 65.0264 21.9913C64.9028 22.0706 64.7977 22.1694 64.7113 22.2879C64.6246 22.4066 64.5579 22.5365 64.5109 22.6775C64.4639 22.8183 64.4404 22.9529 64.4404 23.0815ZM62.6457 24.8022C62.6901 24.6787 62.7346 24.5352 62.7791 24.372C62.8236 24.209 62.8683 24.0308 62.9127 23.838L63.9361 19.2397H65.249L64.7669 21.4053H64.7818C64.9498 21.2274 65.1365 21.0902 65.3417 20.9937C65.5469 20.8974 65.7755 20.8492 66.0277 20.8492C66.265 20.8492 66.4739 20.8911 66.6544 20.9752C66.8348 21.0594 66.9844 21.1743 67.1031 21.3201C67.2218 21.4659 67.312 21.6352 67.3737 21.828C67.4356 22.0211 67.4665 22.2262 67.4665 22.4438C67.4665 22.7601 67.4258 23.0654 67.3441 23.3597C67.2625 23.6538 67.139 23.9148 66.9732 24.1422C66.8077 24.3697 66.5962 24.5513 66.339 24.6873C66.082 24.8232 65.7804 24.8912 65.4344 24.8912C64.7767 24.8912 64.3292 24.6193 64.092 24.0755H64.0771L63.8843 24.8022H62.6457ZM61.4385 19.2397H62.7883L61.6313 24.8022H60.2815L61.4385 19.2397ZM56.812 23.6157C56.812 23.7046 56.8515 23.7911 56.9305 23.8752C57.0096 23.9593 57.121 24.0013 57.2643 24.0013C57.5511 24.0013 57.7785 23.9148 57.9468 23.7415C58.1148 23.5687 58.2235 23.3511 58.273 23.0889C58.2187 23.079 58.1555 23.0729 58.084 23.0704C58.0122 23.0679 57.9566 23.0666 57.917 23.0666C57.5958 23.0568 57.331 23.1025 57.1236 23.2041C56.9159 23.3054 56.812 23.4426 56.812 23.6157ZM58.1545 24.2608L58.1396 24.2461V24.2608C57.9961 24.4834 57.8096 24.6441 57.5796 24.7429C57.3497 24.8419 57.1036 24.8912 56.8416 24.8912C56.4214 24.8912 56.1012 24.7985 55.8812 24.6132C55.6611 24.4278 55.5512 24.1471 55.5512 23.7713C55.5512 23.5341 55.6068 23.3264 55.718 23.1483C55.8294 22.9704 55.9812 22.8233 56.174 22.7071C56.3671 22.5908 56.592 22.5031 56.8489 22.4438C57.1061 22.3844 57.3831 22.3546 57.6797 22.3546C57.8131 22.3546 57.943 22.3584 58.0691 22.3657C58.1952 22.3733 58.3051 22.3819 58.3991 22.3918C58.4089 22.367 58.414 22.3425 58.414 22.3177C58.414 22.2879 58.414 22.2608 58.414 22.2361C58.414 22.0976 58.351 21.9801 58.2248 21.8838C58.0987 21.7873 57.9245 21.7391 57.702 21.7391C57.4596 21.7391 57.2459 21.7613 57.0604 21.806C56.875 21.8505 56.671 21.9296 56.4487 22.0433L56.5821 21.0718C56.7799 21.0025 56.9899 20.948 57.2125 20.9085C57.4349 20.8689 57.6969 20.8492 57.9986 20.8492C58.226 20.8492 58.4425 20.8727 58.6475 20.9197C58.8529 20.9666 59.0308 21.0432 59.1816 21.1496C59.3324 21.2559 59.4522 21.3919 59.5412 21.5574C59.6303 21.7232 59.6748 21.9245 59.6748 22.1618C59.6748 22.3152 59.6564 22.4845 59.6192 22.6699C59.5821 22.8554 59.5376 23.0568 59.4856 23.2743C59.4338 23.4919 59.3794 23.7281 59.3226 23.9828C59.2657 24.2373 59.22 24.5106 59.1854 24.8022H58.0951L58.1545 24.2608ZM53.6538 22.5699C53.6538 22.3622 53.5945 22.1941 53.4759 22.0655C53.3572 21.9369 53.1791 21.8727 52.9418 21.8727C52.7738 21.8727 52.629 21.9099 52.508 21.9839C52.3869 22.0582 52.2866 22.152 52.2075 22.2657C52.1284 22.3794 52.0703 22.508 52.0332 22.6515C51.9963 22.7948 51.9776 22.9332 51.9776 23.0666C51.9776 23.2695 52.0407 23.4388 52.1666 23.5748C52.2929 23.7107 52.4622 23.7787 52.6747 23.7787C52.843 23.7787 52.9888 23.7392 53.1124 23.6601C53.2359 23.5811 53.3385 23.482 53.4201 23.3635C53.5017 23.2448 53.5611 23.1149 53.5982 22.9739C53.6354 22.8332 53.6538 22.6985 53.6538 22.5699ZM50.8577 25.1656C51.1989 25.3634 51.5721 25.4648 51.9776 25.4698C52.21 25.4746 52.4079 25.4536 52.5709 25.4066C52.7341 25.3597 52.8726 25.2843 52.9863 25.1805C53.1 25.0766 53.1927 24.9394 53.2645 24.7689C53.3362 24.5983 53.3991 24.3894 53.4535 24.1422L53.4388 24.1273C53.2905 24.3449 53.1101 24.5117 52.8973 24.6279C52.6848 24.7441 52.445 24.8022 52.178 24.8022C51.9109 24.8022 51.6784 24.759 51.4806 24.6724C51.283 24.5859 51.1185 24.4647 50.9876 24.309C50.8565 24.1534 50.7589 23.9679 50.6945 23.7527C50.6303 23.5376 50.5982 23.3016 50.5982 23.0444C50.5982 22.7478 50.6475 22.466 50.7465 22.199C50.8454 21.9319 50.9851 21.6984 51.1655 21.498C51.3459 21.2979 51.5637 21.1397 51.8182 21.0235C52.0728 20.9073 52.3559 20.8492 52.6674 20.8492C52.964 20.8492 53.2324 20.9111 53.4722 21.0346C53.7119 21.1582 53.8888 21.3611 54.0023 21.6428H54.0172L54.1877 20.9381H55.4263C55.4016 21.042 55.367 21.1706 55.3225 21.3239C55.278 21.4771 55.231 21.6575 55.1817 21.8652L54.5882 24.4983C54.5043 24.874 54.403 25.1866 54.2843 25.4364C54.1655 25.6861 54.0124 25.8862 53.8244 26.0371C53.6366 26.1879 53.4042 26.2943 53.1273 26.3559C52.8503 26.4178 52.5117 26.4487 52.111 26.4487C51.7749 26.4487 51.4907 26.4239 51.2582 26.3746C51.0258 26.3251 50.8057 26.2683 50.5982 26.2041L50.8577 25.1656ZM47.084 23.6157C47.084 23.7046 47.1237 23.7911 47.2028 23.8752C47.2819 23.9593 47.393 24.0013 47.5365 24.0013C47.8233 24.0013 48.0507 23.9148 48.2188 23.7415C48.3868 23.5687 48.4957 23.3511 48.5452 23.0889C48.4907 23.079 48.4277 23.0729 48.356 23.0704C48.2842 23.0679 48.2286 23.0666 48.1892 23.0666C47.8678 23.0568 47.6033 23.1025 47.3956 23.2041C47.1879 23.3054 47.084 23.4426 47.084 23.6157ZM48.4265 24.2608L48.4116 24.2461V24.2608C48.2683 24.4834 48.0816 24.6441 47.8516 24.7429C47.6217 24.8419 47.3756 24.8912 47.1138 24.8912C46.6934 24.8912 46.3733 24.7985 46.1532 24.6132C45.9331 24.4278 45.8232 24.1471 45.8232 23.7713C45.8232 23.5341 45.8788 23.3264 45.99 23.1483C46.1014 22.9704 46.2533 22.8233 46.4463 22.7071C46.6391 22.5908 46.864 22.5031 47.1212 22.4438C47.3782 22.3844 47.6551 22.3546 47.9517 22.3546C48.0851 22.3546 48.215 22.3584 48.3411 22.3657C48.4672 22.3733 48.5773 22.3819 48.6713 22.3918C48.6812 22.367 48.686 22.3425 48.686 22.3177C48.686 22.2879 48.686 22.2608 48.686 22.2361C48.686 22.0976 48.623 21.9801 48.497 21.8838C48.3709 21.7873 48.1965 21.7391 47.974 21.7391C47.7316 21.7391 47.5179 21.7613 47.3324 21.806C47.1472 21.8505 46.9433 21.9296 46.7207 22.0433L46.8541 21.0718C47.0519 21.0025 47.2619 20.948 47.4845 20.9085C47.7071 20.8689 47.9691 20.8492 48.2706 20.8492C48.4982 20.8492 48.7145 20.8727 48.9197 20.9197C49.1249 20.9666 49.3028 21.0432 49.4536 21.1496C49.6044 21.2559 49.7244 21.3919 49.8134 21.5574C49.9023 21.7232 49.9468 21.9245 49.9468 22.1618C49.9468 22.3152 49.9284 22.4845 49.8912 22.6699C49.8541 22.8554 49.8096 23.0568 49.7578 23.2743C49.7058 23.4919 49.6514 23.7281 49.5946 23.9828C49.5377 24.2373 49.492 24.5106 49.4574 24.8022H48.3671L48.4265 24.2608ZM42.5691 19.6255H43.9707L43.1106 23.7787H45.276L45.061 24.8022H41.4937L42.5691 19.6255ZM91.678 16.3009C91.678 16.4238 91.7264 16.5235 91.8234 16.5999C91.9201 16.6762 92.0413 16.7146 92.1867 16.7146C92.3432 16.7146 92.4775 16.668 92.5891 16.5747C92.7011 16.4815 92.7569 16.3624 92.7569 16.217C92.7569 16.0865 92.715 15.9785 92.6311 15.8927C92.5474 15.8071 92.4345 15.7324 92.2929 15.6692C92.2146 15.6952 92.1391 15.7278 92.0665 15.767C91.9939 15.806 91.9287 15.8517 91.8708 15.904C91.8131 15.9562 91.7665 16.0158 91.7311 16.0827C91.6956 16.1499 91.678 16.2224 91.678 16.3009ZM92.1139 14.5007C92.1139 14.6087 92.1475 14.7076 92.2146 14.7971C92.2818 14.8865 92.3581 14.9629 92.4439 15.0262C92.5146 15.0002 92.5864 14.9685 92.659 14.9312C92.7318 14.8941 92.796 14.8511 92.852 14.8026C92.9078 14.7541 92.9535 14.7002 92.989 14.6404C93.0244 14.5808 93.042 14.5156 93.042 14.4449C93.042 14.3106 93.0001 14.212 92.9162 14.1485C92.8325 14.0851 92.7326 14.0534 92.6172 14.0534C92.5539 14.0534 92.4924 14.0656 92.4326 14.0899C92.373 14.1141 92.3191 14.1476 92.2704 14.1904C92.2222 14.2334 92.1838 14.2819 92.1559 14.3358C92.128 14.3899 92.1139 14.4449 92.1139 14.5007ZM93.042 15.3952C93.247 15.4659 93.4092 15.5713 93.5283 15.711C93.6477 15.8509 93.7073 16.0326 93.7073 16.256C93.7073 16.3494 93.6886 16.462 93.6515 16.5944C93.6141 16.7266 93.5405 16.8543 93.4306 16.9773C93.3206 17.1002 93.165 17.2047 92.9638 17.2903C92.7624 17.3761 92.4978 17.4189 92.1699 17.4189C91.9837 17.4189 91.8039 17.3956 91.6304 17.349C91.4571 17.3024 91.3033 17.2345 91.1692 17.1449C91.0352 17.0555 90.928 16.9475 90.8478 16.8208C90.7677 16.6941 90.7276 16.5506 90.7276 16.3903C90.7276 16.2224 90.7536 16.0792 90.8059 15.9598C90.8581 15.8406 90.928 15.738 91.0155 15.6525C91.1032 15.5666 91.2039 15.4949 91.3174 15.437C91.4311 15.3793 91.5494 15.33 91.6723 15.2889C91.5158 15.2144 91.3918 15.112 91.3006 14.9815C91.2093 14.8511 91.1636 14.7057 91.1636 14.5454C91.1636 14.3629 91.2001 14.1999 91.2727 14.0564C91.3455 13.9129 91.446 13.7908 91.5746 13.6901C91.7032 13.5896 91.8578 13.5132 92.0386 13.461C92.2192 13.4087 92.4196 13.3827 92.6395 13.3827C92.8109 13.3827 92.9776 13.4004 93.1398 13.4358C93.302 13.4713 93.4463 13.529 93.573 13.6091C93.6997 13.6892 93.8015 13.7935 93.8779 13.9221C93.9542 14.0507 93.9924 14.2083 93.9924 14.3945C93.9924 14.525 93.9664 14.6452 93.9141 14.7552C93.8619 14.8651 93.792 14.9639 93.7046 15.0514C93.6169 15.1389 93.5162 15.2117 93.4027 15.2694C93.289 15.3273 93.1688 15.3671 93.042 15.3896V15.3952ZM90.4104 14.3331L88.4313 17.3518H87.2462L89.3594 14.1877H87.6152L87.7662 13.4499H90.6005L90.4104 14.3331ZM83.9459 16.4295C84.0651 16.5113 84.1983 16.5738 84.3456 16.6166C84.4929 16.6597 84.6391 16.6811 84.7843 16.6811C84.9521 16.6811 85.0948 16.655 85.212 16.6028C85.3295 16.5506 85.4292 16.4807 85.5112 16.393C85.5932 16.3055 85.6574 16.204 85.704 16.0884C85.7506 15.9728 85.7887 15.8518 85.8185 15.725L85.8074 15.7139C85.7105 15.7884 85.6052 15.8434 85.4915 15.8788C85.3778 15.9143 85.2613 15.9319 85.1422 15.9319C84.9781 15.9319 84.8273 15.9059 84.6892 15.8536C84.5514 15.8014 84.4341 15.725 84.3372 15.6243C84.2403 15.5238 84.1647 15.4017 84.1108 15.2583C84.0567 15.1148 84.0296 14.9518 84.0296 14.769C84.0296 14.5567 84.064 14.3648 84.1331 14.1934C84.2021 14.022 84.299 13.8755 84.4238 13.7545C84.5487 13.6332 84.6995 13.5411 84.8766 13.4778C85.0536 13.4144 85.2483 13.3827 85.4608 13.3827C85.9192 13.3827 86.2723 13.5113 86.5203 13.7683C86.768 14.0255 86.892 14.3759 86.892 14.8194C86.892 15.1548 86.8547 15.4781 86.7802 15.7892C86.7055 16.1006 86.5853 16.3773 86.4196 16.6196C86.2536 16.8617 86.0384 17.0555 85.7738 17.2009C85.5093 17.3463 85.1887 17.4189 84.8124 17.4189C84.6223 17.4189 84.4322 17.3948 84.2422 17.3463C84.0521 17.2978 83.8731 17.225 83.7055 17.1281L83.9459 16.4295ZM84.98 14.7411C84.98 14.8827 85.0173 15.0048 85.0918 15.1072C85.1663 15.2098 85.2743 15.261 85.4162 15.261C85.5166 15.261 85.6033 15.2396 85.6761 15.1968C85.7487 15.154 85.8082 15.0999 85.855 15.0346C85.9016 14.9694 85.935 14.8976 85.9555 14.8194C85.9761 14.7411 85.9864 14.6666 85.9864 14.5957C85.9864 14.525 85.978 14.4571 85.9612 14.3916C85.9444 14.3266 85.9173 14.2689 85.8802 14.2183C85.8429 14.1682 85.7936 14.1281 85.7319 14.0983C85.6704 14.0685 85.5968 14.0534 85.5112 14.0534C85.4216 14.0534 85.3434 14.075 85.2764 14.1178C85.2093 14.1606 85.1543 14.2148 85.1113 14.28C85.0685 14.345 85.036 14.4187 85.0136 14.5007C84.9913 14.5827 84.98 14.6629 84.98 14.7411ZM80.1233 16.6754C80.4924 16.4144 80.811 16.1872 81.0794 15.9934C81.3477 15.7995 81.5686 15.6273 81.7419 15.4762C81.9152 15.3254 82.0438 15.1894 82.1277 15.0682C82.2114 14.9471 82.2533 14.8269 82.2533 14.7076C82.2533 14.5101 82.2003 14.3685 82.0939 14.2827C81.9878 14.1969 81.8583 14.1541 81.7054 14.1541C81.5489 14.1541 81.3859 14.1831 81.2163 14.2408C81.0468 14.2987 80.895 14.3648 80.7607 14.4392L80.8614 13.556C81.0328 13.5038 81.2098 13.4618 81.3924 13.4301C81.5751 13.3985 81.7725 13.3827 81.985 13.3827C82.1453 13.3827 82.3037 13.4033 82.4602 13.4442C82.6167 13.4851 82.7564 13.5504 82.8794 13.6399C83.0025 13.7293 83.1022 13.8449 83.1785 13.9865C83.2549 14.1281 83.2931 14.2995 83.2931 14.5007C83.2931 14.7506 83.2392 14.9759 83.1311 15.1771C83.0229 15.3785 82.885 15.5629 82.7174 15.7307C82.5496 15.8983 82.3652 16.054 82.164 16.1975C81.9626 16.341 81.7689 16.4761 81.5824 16.6028V16.6139H82.9578L82.8068 17.3518H80.0004L80.1233 16.6754ZM75.4805 16.1652C75.4805 16.2541 75.5201 16.3408 75.5992 16.4247C75.6783 16.5088 75.7895 16.5508 75.9328 16.5508C76.2198 16.5508 76.4472 16.4643 76.6152 16.2913C76.7833 16.1182 76.8921 15.9006 76.9417 15.6386C76.8871 15.6287 76.8242 15.6225 76.7524 15.6199C76.6807 15.6176 76.6251 15.6164 76.5856 15.6164C76.2642 15.6065 75.9997 15.6522 75.792 15.7536C75.5843 15.8549 75.4805 15.9921 75.4805 16.1652ZM76.8229 16.8105L76.808 16.7956V16.8105C76.6647 17.0329 76.478 17.1936 76.2481 17.2926C76.0182 17.3914 75.7723 17.4409 75.51 17.4409C75.0898 17.4409 74.7697 17.3482 74.5496 17.1627C74.3295 16.9773 74.2196 16.6968 74.2196 16.3211C74.2196 16.0836 74.2752 15.8759 74.3864 15.698C74.4978 15.5199 74.6497 15.3728 74.8427 15.2566C75.0355 15.1404 75.2604 15.0527 75.5176 14.9933C75.7746 14.9339 76.0515 14.9043 76.3482 14.9043C76.4816 14.9043 76.6114 14.9081 76.7375 14.9155C76.8636 14.9228 76.9738 14.9314 77.0675 14.9415C77.0776 14.9167 77.0824 14.892 77.0824 14.8672C77.0824 14.8376 77.0824 14.8104 77.0824 14.7856C77.0824 14.6471 77.0195 14.5299 76.8934 14.4334C76.7673 14.3369 76.593 14.2888 76.3704 14.2888C76.1281 14.2888 75.9143 14.3111 75.7289 14.3555C75.5436 14.4 75.3395 14.4791 75.1171 14.5928L75.2505 13.6213C75.4484 13.552 75.6586 13.4977 75.881 13.458C76.1035 13.4186 76.3656 13.3987 76.667 13.3987C76.8947 13.3987 77.111 13.4222 77.3161 13.4692C77.5213 13.5162 77.6992 13.5929 77.85 13.6991C78.0009 13.8055 78.1207 13.9414 78.2098 14.1071C78.2988 14.2727 78.3433 14.4743 78.3433 14.7115C78.3433 14.8647 78.3248 15.0342 78.2877 15.2197C78.2505 15.4049 78.2061 15.6065 78.1542 15.8241C78.1022 16.0416 78.0479 16.2776 77.991 16.5323C77.9342 16.787 77.8884 17.0601 77.8538 17.3518H76.7635L76.8229 16.8105ZM70.209 16.3431L72.3153 14.4667H70.6616L70.8617 13.4878H74.1399L73.9322 14.4965L71.811 16.3729H73.5762L73.376 17.3518H70.0163L70.209 16.3431ZM66.1548 16.3431L68.2611 14.4667H66.6074L66.8075 13.4878H70.0857L69.878 14.4965L67.7568 16.3729H69.522L69.3218 17.3518H65.962L66.1548 16.3431ZM64.6288 15.0527C64.6288 14.9488 64.6177 14.8511 64.5955 14.7598C64.5732 14.6683 64.5361 14.5867 64.4843 14.515C64.4323 14.4432 64.3655 14.3876 64.2839 14.3482C64.2023 14.3085 64.0997 14.2888 63.9762 14.2888C63.8329 14.2888 63.7055 14.3111 63.5941 14.3555C63.4829 14.4 63.3864 14.4581 63.305 14.5299C63.2234 14.6016 63.1567 14.683 63.1047 14.7745C63.0529 14.8659 63.0145 14.9587 62.9897 15.0527H64.6288ZM64.9848 17.2257C64.7476 17.2949 64.5113 17.3482 64.2766 17.3851C64.0416 17.4222 63.8278 17.4409 63.635 17.4409C63.3136 17.4409 63.0294 17.3939 62.782 17.2999C62.5349 17.2059 62.3272 17.0799 62.1592 16.9217C61.9909 16.7635 61.8638 16.5768 61.7771 16.3618C61.6907 16.1465 61.6473 15.918 61.6473 15.6757C61.6473 15.4531 61.6869 15.2083 61.766 14.9415C61.8451 14.6744 61.9762 14.4273 62.1592 14.1999C62.3421 13.9722 62.5806 13.782 62.8748 13.6286C63.1691 13.4755 63.5312 13.3987 63.9613 13.3987C64.2134 13.3987 64.4484 13.432 64.666 13.499C64.8835 13.5657 65.0725 13.667 65.2332 13.8029C65.3939 13.9389 65.5188 14.1132 65.6079 14.3257C65.6969 14.5385 65.7413 14.7906 65.7413 15.0824C65.7413 15.1219 65.7388 15.1714 65.734 15.2308C65.729 15.2899 65.7216 15.3531 65.7118 15.4198C65.7019 15.4865 65.6918 15.5532 65.682 15.6199C65.6721 15.6869 65.6597 15.7498 65.6448 15.8092H62.9081C62.9132 15.913 62.9316 16.0106 62.9637 16.102C62.996 16.1935 63.0504 16.2728 63.1269 16.3395C63.2037 16.4062 63.3086 16.458 63.4422 16.4952C63.5757 16.5323 63.7437 16.5508 63.9466 16.5508C64.1245 16.5508 64.3236 16.5285 64.5436 16.4841C64.7635 16.4396 64.9676 16.3729 65.1554 16.2839L64.9848 17.2257ZM60.1653 11.7894H61.5151L60.3581 17.3518H59.0083L60.1653 11.7894ZM58.5569 15.1269C58.5569 15.5272 58.4952 15.8736 58.3716 16.1652C58.2478 16.457 58.0747 16.6978 57.8524 16.8883C57.6298 17.0786 57.3665 17.2183 57.0625 17.3073C56.7583 17.3962 56.4258 17.4409 56.065 17.4409C55.7089 17.4409 55.4035 17.3939 55.149 17.2999C54.8943 17.2059 54.6854 17.0799 54.5224 16.9217C54.3589 16.7635 54.2404 16.5768 54.1661 16.3618C54.0921 16.1465 54.055 15.918 54.055 15.6757C54.055 15.3344 54.1143 15.0241 54.2331 14.7449C54.3516 14.4655 54.5186 14.2257 54.7336 14.0255C54.9487 13.8252 55.2096 13.6708 55.5161 13.5619C55.8226 13.4532 56.1663 13.3987 56.5471 13.3987C56.8733 13.3987 57.1626 13.4431 57.4147 13.5323C57.6669 13.6213 57.8771 13.7436 58.0452 13.8994C58.2132 14.0551 58.3406 14.238 58.4272 14.4483C58.5136 14.6585 58.5569 14.8846 58.5569 15.1269ZM57.1775 15.112C57.1775 15.013 57.1651 14.9167 57.1403 14.8227C57.1156 14.7287 57.0759 14.6461 57.0216 14.5743C56.9673 14.5026 56.8955 14.4445 56.8066 14.4C56.7176 14.3555 56.6087 14.3333 56.4801 14.3333C56.3171 14.3333 56.1711 14.3727 56.0427 14.452C55.9141 14.5311 55.8052 14.6337 55.7163 14.7598C55.6273 14.8859 55.5581 15.0266 55.5086 15.1825C55.4593 15.3382 55.4345 15.4928 55.4345 15.6459C55.4345 15.908 55.4987 16.1182 55.6273 16.2764C55.7559 16.4345 55.9338 16.5113 56.1612 16.5063C56.4728 16.5063 56.7201 16.384 56.9029 16.1392C57.086 15.8945 57.1775 15.552 57.1775 15.112ZM51.8165 17.3518H50.2961L49.6657 13.4878H51.0082L51.2752 16.2392H51.2899L52.6473 13.4878H54.086L51.8165 17.3518ZM46.0319 16.1652C46.0319 16.2541 46.0716 16.3408 46.1507 16.4247C46.2298 16.5088 46.3409 16.5508 46.4844 16.5508C46.7712 16.5508 46.9986 16.4643 47.1667 16.2913C47.3347 16.1182 47.4436 15.9006 47.4931 15.6386C47.4388 15.6287 47.3756 15.6225 47.3039 15.6199C47.2321 15.6176 47.1765 15.6164 47.1371 15.6164C46.8157 15.6065 46.5512 15.6522 46.3435 15.7536C46.1358 15.8549 46.0319 15.9921 46.0319 16.1652ZM47.3744 16.8105L47.3595 16.7956V16.8105C47.2162 17.0329 47.0295 17.1936 46.7995 17.2926C46.5696 17.3914 46.3237 17.4409 46.0615 17.4409C45.6413 17.4409 45.3212 17.3482 45.1013 17.1627C44.8812 16.9773 44.7711 16.6968 44.7711 16.3211C44.7711 16.0836 44.8269 15.8759 44.9381 15.698C45.0493 15.5199 45.2014 15.3728 45.3942 15.2566C45.587 15.1404 45.8119 15.0527 46.0691 14.9933C46.3263 14.9339 46.603 14.9043 46.8998 14.9043C47.0333 14.9043 47.1631 14.9081 47.289 14.9155C47.4151 14.9228 47.5252 14.9314 47.6192 14.9415C47.6291 14.9167 47.6341 14.892 47.6341 14.8672C47.6341 14.8376 47.6341 14.8104 47.6341 14.7856C47.6341 14.6471 47.5709 14.5299 47.4449 14.4334C47.3188 14.3369 47.1444 14.2888 46.9221 14.2888C46.6795 14.2888 46.4658 14.3111 46.2805 14.3555C46.0951 14.4 45.8911 14.4791 45.6686 14.5928L45.802 13.6213C45.9998 13.552 46.21 13.4977 46.4324 13.458C46.655 13.4186 46.917 13.3987 47.2187 13.3987C47.4461 13.3987 47.6624 13.4222 47.8676 13.4692C48.0728 13.5162 48.2507 13.5929 48.4017 13.6991C48.5523 13.8055 48.6723 13.9414 48.7613 14.1071C48.8502 14.2727 48.8947 14.4743 48.8947 14.7115C48.8947 14.8647 48.8763 15.0342 48.8391 15.2197C48.802 15.4049 48.7575 15.6065 48.7057 15.8241C48.6537 16.0416 48.5993 16.2776 48.5425 16.5323C48.4856 16.787 48.4399 17.0601 48.4053 17.3518H47.315L47.3744 16.8105ZM43.393 11.8783H44.7428L44.5351 12.8574H43.1853L43.393 11.8783ZM43.0518 13.4878H44.4016L43.6007 17.3518H42.2509L43.0518 13.4878ZM37.8912 16.3284H38.4994C38.8405 16.3284 39.1298 16.2703 39.3671 16.1541C39.6046 16.0378 39.7986 15.8857 39.9492 15.698C40.1001 15.51 40.2102 15.2987 40.2795 15.0638C40.3487 14.8288 40.3833 14.5903 40.3833 14.3482C40.3833 14.1107 40.3449 13.9179 40.2683 13.7696C40.1916 13.6213 40.0865 13.5038 39.953 13.4173C39.8196 13.3307 39.6614 13.2726 39.4785 13.243C39.2953 13.2134 39.0977 13.1985 38.8852 13.1985H38.5439L37.8912 16.3284ZM37.372 12.175H39.1669C39.5773 12.175 39.9457 12.2182 40.2719 12.3048C40.5983 12.3915 40.8753 12.5211 41.1027 12.6942C41.3301 12.8673 41.5044 13.0836 41.6255 13.3431C41.7467 13.6028 41.8072 13.9055 41.8072 14.2517C41.8072 14.7955 41.7268 15.2629 41.5661 15.6535C41.4054 16.0441 41.1793 16.3655 40.8876 16.6175C40.5958 16.8697 40.2472 17.0551 39.8418 17.1738C39.4363 17.2926 38.9913 17.3518 38.5067 17.3518H36.2743L37.372 12.175ZM82.6973 7.72028C82.7533 7.7314 82.8166 7.7379 82.8873 7.73979C82.9582 7.74168 83.0289 7.74252 83.0999 7.74252C83.167 7.74252 83.2461 7.73874 83.3373 7.7314C83.4288 7.72385 83.5163 7.70434 83.6002 7.67266C83.6841 7.64098 83.7559 7.59525 83.8154 7.53566C83.875 7.47608 83.9048 7.39217 83.9048 7.28413C83.9048 7.2021 83.8864 7.13413 83.849 7.08C83.8117 7.02608 83.7624 6.98308 83.7009 6.95161C83.6392 6.91993 83.5704 6.89748 83.494 6.88448C83.4175 6.87147 83.3422 6.86497 83.2675 6.86497C83.1223 6.86497 82.9658 6.88259 82.798 6.91804C82.6303 6.95329 82.4904 6.99525 82.3786 7.04371L82.4793 6.23308C82.5502 6.21441 82.6312 6.19678 82.7224 6.18C82.8139 6.16322 82.9079 6.14832 83.0048 6.13531C83.1017 6.12231 83.2006 6.11203 83.301 6.10469C83.4017 6.09713 83.4987 6.09336 83.5918 6.09336C83.7483 6.09336 83.9075 6.11014 84.0697 6.14371C84.2319 6.17727 84.3773 6.23224 84.5059 6.3086C84.6345 6.38497 84.7398 6.48462 84.8216 6.60776C84.9036 6.7307 84.9445 6.88343 84.9445 7.06615C84.9445 7.21888 84.9185 7.35504 84.8663 7.4742C84.8143 7.59336 84.7425 7.69594 84.6513 7.78154C84.5598 7.86734 84.4509 7.93553 84.3242 7.98567C84.1975 8.03601 84.0613 8.06874 83.9159 8.08364V8.09476C84.1396 8.14699 84.3139 8.23448 84.4387 8.35741C84.5636 8.48035 84.6261 8.65741 84.6261 8.8886C84.6261 9.1307 84.572 9.3321 84.4639 9.49238C84.3559 9.65266 84.2161 9.78021 84.0445 9.87525C83.8731 9.97028 83.6841 10.0364 83.4773 10.0737C83.2704 10.1111 83.0663 10.1297 82.8651 10.1297C82.6488 10.1297 82.4289 10.11 82.2053 10.071C81.9817 10.0317 81.7843 9.96944 81.6129 9.88364L81.8084 9.13448C81.98 9.21273 82.1457 9.26958 82.306 9.30504C82.4663 9.34049 82.6415 9.35811 82.8315 9.35811C82.9209 9.35811 83.0103 9.34972 83.0999 9.33294C83.1892 9.31616 83.2704 9.28741 83.343 9.24629C83.4156 9.20539 83.4743 9.15042 83.5192 9.0814C83.5639 9.01238 83.5861 8.92762 83.5861 8.82713C83.5861 8.73399 83.5647 8.6593 83.5219 8.6035C83.4789 8.54769 83.425 8.50553 83.3598 8.47762C83.2945 8.44972 83.2228 8.4321 83.1445 8.42455C83.0663 8.4172 82.9918 8.41343 82.9209 8.41343C82.8651 8.41343 82.8045 8.41427 82.7392 8.41615C82.674 8.41804 82.6136 8.42266 82.5575 8.43021L82.6973 7.72028ZM78.2713 8.71532C78.2713 8.37986 78.3103 8.05469 78.3886 7.73979C78.4668 7.4249 78.5833 7.14525 78.7379 6.90126C78.8927 6.65706 79.0866 6.46133 79.3194 6.31427C79.5523 6.16699 79.8235 6.09336 80.1328 6.09336C80.5576 6.09336 80.8828 6.21441 81.1083 6.45671C81.3338 6.69902 81.4465 7.04937 81.4465 7.50776C81.4465 7.86189 81.4064 8.19713 81.3263 8.51392C81.2461 8.8307 81.1278 9.10846 80.9713 9.34699C80.8148 9.58553 80.6201 9.7756 80.387 9.9172C80.1542 10.0588 79.8869 10.1297 79.585 10.1297C79.16 10.1297 78.8348 10.0076 78.6095 9.76343C78.384 9.51923 78.2713 9.16993 78.2713 8.71532ZM80.4961 7.30091C80.4961 6.97301 80.3808 6.80518 80.1496 6.79783C80.0342 6.79783 79.9316 6.84063 79.8422 6.92643C79.7526 7.01203 79.6735 7.12196 79.6045 7.25622C79.5355 7.39028 79.477 7.54028 79.4283 7.70622C79.3801 7.87196 79.3408 8.03329 79.311 8.18979C79.2812 8.34629 79.2588 8.49063 79.2439 8.62301C79.229 8.75539 79.2217 8.85692 79.2217 8.92762C79.2217 9.2593 79.3484 9.42525 79.6016 9.42525C79.7134 9.42525 79.8141 9.38245 79.9037 9.29664C79.9931 9.21105 80.0703 9.10091 80.1355 8.96685C80.2007 8.83259 80.2568 8.68364 80.3033 8.51958C80.3499 8.35553 80.387 8.19441 80.4152 8.03601C80.4431 7.87762 80.4636 7.73329 80.4766 7.6028C80.4896 7.47231 80.4961 7.37182 80.4961 7.30091ZM75.5558 7.72028C75.6116 7.7314 75.6749 7.7379 75.7458 7.73979C75.8165 7.74168 75.8875 7.74252 75.9582 7.74252C76.0253 7.74252 76.1044 7.73874 76.1958 7.7314C76.2871 7.72385 76.3748 7.70434 76.4585 7.67266C76.5424 7.64098 76.6142 7.59525 76.6737 7.53566C76.7333 7.47608 76.7631 7.39217 76.7631 7.28413C76.7631 7.2021 76.7447 7.13413 76.7073 7.08C76.67 7.02608 76.6207 6.98308 76.5592 6.95161C76.4977 6.91993 76.4287 6.89748 76.3523 6.88448C76.2758 6.87147 76.2005 6.86497 76.126 6.86497C75.9806 6.86497 75.8241 6.88259 75.6563 6.91804C75.4886 6.95329 75.3489 6.99525 75.2371 7.04371L75.3376 6.23308C75.4085 6.21441 75.4895 6.19678 75.5809 6.18C75.6722 6.16322 75.7662 6.14832 75.8631 6.13531C75.96 6.12231 76.0589 6.11203 76.1596 6.10469C76.26 6.09713 76.357 6.09336 76.4501 6.09336C76.6066 6.09336 76.7661 6.11014 76.928 6.14371C77.0902 6.17727 77.2356 6.23224 77.3642 6.3086C77.4928 6.38497 77.5981 6.48462 77.6801 6.60776C77.7619 6.7307 77.8031 6.88343 77.8031 7.06615C77.8031 7.21888 77.7768 7.35504 77.7248 7.4742C77.6726 7.59336 77.6008 7.69594 77.5096 7.78154C77.4183 7.86734 77.3092 7.93553 77.1825 7.98567C77.0558 8.03601 76.9196 8.06874 76.7744 8.08364V8.09476C76.9981 8.14699 77.1722 8.23448 77.297 8.35741C77.4219 8.48035 77.4844 8.65741 77.4844 8.8886C77.4844 9.1307 77.4303 9.3321 77.3222 9.49238C77.2142 9.65266 77.0744 9.78021 76.903 9.87525C76.7314 9.97028 76.5424 10.0364 76.3356 10.0737C76.1287 10.1111 75.9246 10.1297 75.7234 10.1297C75.5073 10.1297 75.2875 10.11 75.0638 10.071C74.8402 10.0317 74.6426 9.96944 74.4712 9.88364L74.6669 9.13448C74.8383 9.21273 75.004 9.26958 75.1643 9.30504C75.3246 9.34049 75.4998 9.35811 75.6898 9.35811C75.7794 9.35811 75.8688 9.34972 75.9582 9.33294C76.0475 9.31616 76.1287 9.28741 76.2015 9.24629C76.2741 9.20539 76.3328 9.15042 76.3775 9.0814C76.4222 9.01238 76.4447 8.92762 76.4447 8.82713C76.4447 8.73399 76.423 8.6593 76.3803 8.6035C76.3375 8.54769 76.2833 8.50553 76.2181 8.47762C76.1531 8.44972 76.0813 8.4321 76.0028 8.42455C75.9246 8.4172 75.8501 8.41343 75.7794 8.41343C75.7234 8.41343 75.663 8.41427 75.5975 8.41615C75.5325 8.41804 75.4719 8.42266 75.4161 8.43021L75.5558 7.72028ZM72.0586 7.72028C72.1144 7.7314 72.1779 7.7379 72.2486 7.73979C72.3195 7.74168 72.3902 7.74252 72.4612 7.74252C72.5281 7.74252 72.6074 7.73874 72.6986 7.7314C72.7901 7.72385 72.8776 7.70434 72.9615 7.67266C73.0454 7.64098 73.117 7.59525 73.1767 7.53566C73.2363 7.47608 73.2661 7.39217 73.2661 7.28413C73.2661 7.2021 73.2474 7.13413 73.2103 7.08C73.173 7.02608 73.1237 6.98308 73.062 6.95161C73.0005 6.91993 72.9317 6.89748 72.8551 6.88448C72.7788 6.87147 72.7035 6.86497 72.6288 6.86497C72.4834 6.86497 72.3269 6.88259 72.1593 6.91804C71.9916 6.95329 71.8517 6.99525 71.7399 7.04371L71.8406 6.23308C71.9113 6.21441 71.9925 6.19678 72.0837 6.18C72.175 6.16322 72.2692 6.14832 72.3661 6.13531C72.463 6.12231 72.5616 6.11203 72.6623 6.10469C72.763 6.09713 72.86 6.09336 72.9531 6.09336C73.1096 6.09336 73.2688 6.11014 73.431 6.14371C73.5932 6.17727 73.7386 6.23224 73.867 6.3086C73.9958 6.38497 74.1009 6.48462 74.1829 6.60776C74.2649 6.7307 74.3058 6.88343 74.3058 7.06615C74.3058 7.21888 74.2798 7.35504 74.2276 7.4742C74.1756 7.59336 74.1036 7.69594 74.0126 7.78154C73.9211 7.86734 73.812 7.93553 73.6853 7.98567C73.5588 8.03601 73.4226 8.06874 73.2772 8.08364V8.09476C73.5009 8.14699 73.675 8.23448 73.8 8.35741C73.9249 8.48035 73.9872 8.65741 73.9872 8.8886C73.9872 9.1307 73.9333 9.3321 73.8252 9.49238C73.7172 9.65266 73.5772 9.78021 73.4058 9.87525C73.2344 9.97028 73.0454 10.0364 72.8384 10.0737C72.6315 10.1111 72.4276 10.1297 72.2264 10.1297C72.0101 10.1297 71.7902 10.11 71.5666 10.071C71.343 10.0317 71.1456 9.96944 70.9739 9.88364L71.1697 9.13448C71.3411 9.21273 71.507 9.26958 71.6673 9.30504C71.8274 9.34049 72.0028 9.35811 72.1926 9.35811C72.2822 9.35811 72.3716 9.34972 72.4612 9.33294C72.5505 9.31616 72.6315 9.28741 72.7043 9.24629C72.7769 9.20539 72.8356 9.15042 72.8803 9.0814C72.925 9.01238 72.9474 8.92762 72.9474 8.82713C72.9474 8.73399 72.926 8.6593 72.8832 8.6035C72.8402 8.54769 72.7861 8.50553 72.7211 8.47762C72.6558 8.44972 72.5841 8.4321 72.5058 8.42455C72.4276 8.4172 72.3529 8.41343 72.2822 8.41343C72.2264 8.41343 72.1658 8.41427 72.1005 8.41615C72.0353 8.41804 71.9746 8.42266 71.9188 8.43021L72.0586 7.72028ZM65.8494 4.5H67.1994L66.7246 6.76217H66.7395C66.878 6.57923 67.0584 6.42462 67.2808 6.29853C67.5034 6.17245 67.7704 6.10951 68.082 6.10951C68.2748 6.10951 68.4466 6.14413 68.5972 6.21336C68.7483 6.28259 68.8744 6.37636 68.9757 6.49511C69.077 6.61385 69.1536 6.75462 69.2054 6.91783C69.2574 7.08105 69.2835 7.25664 69.2835 7.44441C69.2835 7.50881 69.2822 7.56818 69.2797 7.62252C69.2772 7.67685 69.2723 7.73497 69.2648 7.79685C69.2574 7.85853 69.2463 7.92525 69.2314 7.99699C69.2165 8.06874 69.1993 8.15643 69.1796 8.26028L68.8236 10.0626H67.4442L67.8149 8.25294C67.8346 8.15392 67.8544 8.05636 67.8743 7.95986C67.894 7.86357 67.9039 7.7658 67.9039 7.66699C67.9039 7.55329 67.8632 7.44944 67.7816 7.35546C67.7 7.26147 67.5678 7.21699 67.3846 7.22203C67.2413 7.22203 67.114 7.25035 67.0028 7.3072C66.8916 7.36406 66.7951 7.44084 66.7135 7.53713C66.6319 7.63364 66.5639 7.74608 66.5096 7.87469C66.4553 8.00329 66.4156 8.13923 66.3909 8.28252L66.0126 10.0626H64.6777L65.8494 4.5ZM63.9231 10.0032C63.7894 10.0477 63.6313 10.0836 63.4483 10.1108C63.2654 10.1379 63.0428 10.1515 62.7808 10.1515C62.499 10.1515 62.2456 10.1045 62.0207 10.0106C61.7956 9.91657 61.6041 9.7907 61.4459 9.63231C61.2875 9.47413 61.1664 9.28741 61.0825 9.07238C60.9984 8.85734 60.9562 8.62867 60.9562 8.38636C60.9562 8.07 61.0169 7.77336 61.1381 7.49643C61.2592 7.21951 61.4285 6.97846 61.646 6.77329C61.8636 6.56811 62.1256 6.40615 62.4323 6.28741C62.7388 6.16888 63.0774 6.10951 63.4483 6.10951C63.6115 6.10951 63.8056 6.13175 64.0305 6.17622C64.2554 6.2207 64.4669 6.2849 64.6647 6.36902L64.3754 7.29608C64.2369 7.23189 64.096 7.18112 63.9527 7.14399C63.8092 7.10706 63.6634 7.08839 63.515 7.08839C63.1689 7.08839 62.8859 7.19601 62.6658 7.41105C62.4457 7.62608 62.3358 7.93385 62.3358 8.33455C62.3358 8.44825 62.3568 8.55567 62.3987 8.65699C62.4409 8.75853 62.5026 8.84748 62.5842 8.92406C62.6658 9.00063 62.7623 9.06126 62.8735 9.10574C62.9847 9.15021 63.112 9.17245 63.2555 9.17245C63.4236 9.17245 63.5732 9.15902 63.7041 9.13175C63.8352 9.10448 63.9724 9.06126 64.1159 9.00189L63.9231 10.0032ZM57.197 9.03902C57.5381 9.18734 57.8989 9.26161 58.2797 9.26161C58.3343 9.26161 58.4035 9.25909 58.4874 9.25406C58.5715 9.24923 58.6544 9.2356 58.7358 9.21336C58.8176 9.19112 58.8866 9.1565 58.9435 9.10951C59.0003 9.06252 59.0289 8.99958 59.0289 8.92028C59.0289 8.8265 58.9894 8.7535 58.9103 8.70168C58.831 8.64965 58.7322 8.60266 58.6135 8.5607C58.495 8.51853 58.3676 8.4728 58.2315 8.4235C58.0955 8.37399 57.9682 8.30727 57.8496 8.22315C57.7309 8.13923 57.6321 8.03035 57.553 7.89692C57.4739 7.76329 57.4343 7.59021 57.4343 7.37769C57.4343 7.15028 57.4936 6.95622 57.6124 6.79553C57.7309 6.63483 57.8843 6.50371 58.072 6.40238C58.26 6.30105 58.4702 6.22699 58.7024 6.18C58.9349 6.13301 59.1623 6.10951 59.3849 6.10951C59.5529 6.10951 59.7483 6.12797 59.9708 6.1651C60.1932 6.20224 60.4257 6.26035 60.668 6.33944L60.3862 7.21448C60.2129 7.14525 60.0424 7.09217 59.8743 7.05504C59.7063 7.01811 59.5208 6.99944 59.3182 6.99944C59.2439 6.99944 59.1699 7.00448 59.0956 7.01434C59.0215 7.0242 58.9546 7.0414 58.8954 7.06615C58.8361 7.09091 58.7878 7.12553 58.7507 7.17C58.7136 7.21448 58.6951 7.26881 58.6951 7.33322C58.6951 7.40748 58.7358 7.46916 58.8176 7.51867C58.899 7.56818 59.0018 7.61622 59.1254 7.66322C59.249 7.71021 59.3836 7.76098 59.5294 7.81532C59.6755 7.86965 59.8101 7.93511 59.9337 8.01189C60.0573 8.08846 60.1599 8.18245 60.2415 8.29364C60.3231 8.40504 60.364 8.54203 60.364 8.70525C60.364 8.94273 60.3168 9.15147 60.223 9.33189C60.129 9.51252 60.0004 9.6621 59.8372 9.78063C59.6742 9.89937 59.4824 9.98958 59.2624 10.0515C59.0425 10.1131 58.8063 10.1465 58.5541 10.1515C58.2575 10.1566 57.9646 10.1392 57.6753 10.0997C57.386 10.0601 57.1376 10.0106 56.9299 9.95119L57.197 9.03902ZM53.9358 6.19846H54.6998L54.8853 5.3679L56.2945 4.98965L56.0274 6.19846H56.9471L56.7839 7.13287H55.8122L55.5824 8.20825C55.5526 8.35175 55.5266 8.47532 55.5046 8.57916C55.4822 8.68301 55.471 8.78203 55.471 8.87581C55.471 9.00441 55.5107 9.10825 55.5898 9.18734C55.6689 9.26643 55.7752 9.30608 55.9087 9.30608C55.9779 9.30608 56.0496 9.29371 56.1237 9.26895C56.198 9.2442 56.2697 9.21944 56.3389 9.19469L56.1906 10.0773C56.0471 10.102 55.9061 10.1207 55.7677 10.1329C55.6292 10.1452 55.4935 10.1515 55.3598 10.1515C55.1868 10.1515 55.0261 10.1306 54.8777 10.0886C54.7294 10.0464 54.6008 9.97846 54.4922 9.88448C54.3833 9.7907 54.2968 9.67196 54.2324 9.52846C54.1682 9.38518 54.1361 9.2121 54.1361 9.00944C54.1361 8.91042 54.1447 8.80552 54.1621 8.69413C54.1794 8.58294 54.2102 8.4235 54.2547 8.21581L54.4846 7.13287H53.7726L53.9358 6.19846ZM50.2651 8.87581C50.2651 8.96497 50.3045 9.0514 50.3836 9.13553C50.4627 9.21944 50.5741 9.26161 50.7174 9.26161C51.0042 9.26161 51.2316 9.17497 51.3998 9.00189C51.5679 8.82881 51.6766 8.61126 51.7261 8.34923C51.6717 8.33937 51.6086 8.33329 51.537 8.33077C51.4653 8.32825 51.4097 8.32699 51.37 8.32699C51.0486 8.31713 50.7843 8.36287 50.5766 8.4642C50.3689 8.56553 50.2651 8.70273 50.2651 8.87581ZM51.6075 9.52112L51.5926 9.50622V9.52112C51.4493 9.74371 51.2626 9.9042 51.0327 10.0032C50.8028 10.102 50.5567 10.1515 50.2947 10.1515C49.8744 10.1515 49.5543 10.0588 49.3342 9.87336C49.1142 9.68811 49.0042 9.40741 49.0042 9.03168C49.0042 8.79441 49.0598 8.5865 49.171 8.4086C49.2824 8.2307 49.4343 8.08364 49.6271 7.9672C49.8199 7.85119 50.045 7.76329 50.302 7.70413C50.5592 7.64476 50.8361 7.61497 51.1328 7.61497C51.2662 7.61497 51.3961 7.61874 51.5221 7.62608C51.6482 7.63364 51.7582 7.64224 51.8521 7.6521C51.862 7.62734 51.867 7.60259 51.867 7.57804C51.867 7.54825 51.867 7.52119 51.867 7.49643C51.867 7.35797 51.8041 7.24049 51.6778 7.14399C51.5517 7.04769 51.3776 6.99944 51.155 6.99944C50.9127 6.99944 50.6989 7.02168 50.5135 7.06615C50.328 7.11063 50.1241 7.18972 49.9017 7.30364L50.0352 6.33189C50.233 6.26287 50.443 6.20832 50.6656 6.16888C50.8879 6.12923 51.15 6.10951 51.4517 6.10951C51.6791 6.10951 51.8956 6.13301 52.1007 6.18C52.3059 6.22699 52.4838 6.30357 52.6347 6.40993C52.7855 6.51608 52.9053 6.65203 52.9942 6.81776C53.0834 6.98329 53.1279 7.1849 53.1279 7.42217C53.1279 7.57552 53.1094 7.74483 53.0723 7.93028C53.0352 8.11573 52.9907 8.31713 52.9387 8.53469C52.8868 8.75224 52.8325 8.98825 52.7756 9.24294C52.7188 9.49762 52.6731 9.77077 52.6384 10.0626H51.5482L51.6075 9.52112ZM46.9581 10.0626H45.4378L44.8072 6.19846H46.1496L46.4167 8.95007H46.4316L47.7887 6.19846H49.2277L46.9581 10.0626ZM42.866 6.19846L42.7176 6.9921H42.7325C42.7869 6.87839 42.8536 6.76825 42.9327 6.66189C43.0118 6.55573 43.102 6.46175 43.2033 6.38014C43.3046 6.29853 43.416 6.23308 43.5371 6.18357C43.6584 6.13427 43.788 6.10951 43.9265 6.10951C44.0156 6.10951 44.1094 6.11559 44.2084 6.12797C44.3072 6.14035 44.4012 6.16636 44.4902 6.2058L44.1862 7.38504C44.1021 7.31601 44.0106 7.27133 43.9116 7.25161C43.8128 7.23189 43.699 7.22203 43.5704 7.22203C43.4272 7.22203 43.2998 7.25035 43.1884 7.3072C43.0772 7.36406 42.9809 7.44084 42.8993 7.53713C42.8177 7.63364 42.7497 7.74608 42.6954 7.87469C42.6411 8.00329 42.6014 8.13923 42.5767 8.28252L42.1984 10.0626H40.8635L41.4641 7.20713C41.4988 7.03909 41.5298 6.8721 41.5569 6.70636C41.5841 6.54084 41.6076 6.37154 41.6274 6.19846H42.866ZM40.4053 7.83755C40.4053 8.23804 40.3437 8.5842 40.2201 8.87581C40.0963 9.16762 39.9234 9.40867 39.7009 9.59895C39.4783 9.78944 39.215 9.92895 38.911 10.0181C38.6068 10.1071 38.2745 10.1515 37.9134 10.1515C37.5574 10.1515 37.2522 10.1045 36.9975 10.0106C36.7428 9.91657 36.5339 9.7907 36.3708 9.63231C36.2076 9.47413 36.0889 9.28741 36.0148 9.07238C35.9406 8.85734 35.9034 8.62867 35.9034 8.38636C35.9034 8.04525 35.9628 7.73497 36.0815 7.45553C36.2001 7.17629 36.3671 6.9365 36.5821 6.73615C36.7971 6.5358 37.0581 6.3814 37.3646 6.27273C37.6711 6.16385 38.0148 6.10951 38.3955 6.10951C38.7218 6.10951 39.0111 6.15399 39.2632 6.24294C39.5154 6.33189 39.7256 6.45441 39.8937 6.61007C40.0617 6.76594 40.189 6.94888 40.2757 7.15888C40.3621 7.36909 40.4053 7.59525 40.4053 7.83755ZM39.026 7.82266C39.026 7.72385 39.0136 7.62734 38.9888 7.53336C38.9641 7.43958 38.9246 7.35671 38.8703 7.28497C38.8157 7.21322 38.744 7.15511 38.655 7.11063C38.5661 7.06615 38.4574 7.04392 38.3288 7.04392C38.1656 7.04392 38.0198 7.08357 37.8912 7.16266C37.7626 7.24175 37.6539 7.34434 37.5648 7.47042C37.4758 7.5965 37.4066 7.73748 37.3571 7.89315C37.3078 8.04881 37.283 8.20343 37.283 8.35678C37.283 8.61881 37.3472 8.82881 37.4758 8.9872C37.6044 9.14539 37.7823 9.22196 38.0099 9.21692C38.3213 9.21692 38.5686 9.09462 38.7516 8.85C38.9345 8.60518 39.026 8.2628 39.026 7.82266Z" fill="#D82237"/>
</svg>
