<svg width="56" height="48" viewBox="0 0 56 48" fill="none" xmlns="http://www.w3.org/2000/svg">
<path d="M41.1736 13.9453C41.1736 21.1784 35.3116 27.0404 28.0785 27.0404C20.8454 27.0404 14.9834 21.1784 14.9834 13.9453C14.9834 6.71214 20.8546 0.859375 28.0785 0.859375C35.3116 0.859375 41.1736 6.72134 41.1736 13.9453Z" fill="#3F414F"/>
<path d="M25.2621 9.25L20.9922 19.7224H28.7038L29.1364 18.7469L25.2621 9.25Z" fill="#AED9E2"/>
<path d="M31.1985 14.0553L27.8672 6.08594L25.8887 10.7976L29.1371 18.7485L31.1985 14.0553Z" fill="white"/>
<path d="M28.7041 19.7236L31.925 12.3984L35.155 19.7236H28.7041Z" fill="#7CA5B1"/>
<path d="M8.71691 46.458L9.01139 44.9304H7.81507L7.52059 46.458H7.1709L7.79667 43.2188H8.14636L7.88869 44.5807H9.07581L9.34268 43.2188H9.69237L9.0666 46.458H8.71691Z" fill="#3F414F"/>
<path d="M10.327 43.6752L10.419 43.1875H10.8331L10.7411 43.6752H10.327ZM9.83008 46.4544L10.2902 44.0709H10.6307L10.1706 46.4544H9.83008Z" fill="#3F414F"/>
<path d="M12.6921 44.8963C12.7382 44.657 12.7474 44.3717 12.2688 44.3717C11.9375 44.3717 11.6983 44.565 11.6339 44.8963L11.4866 45.6417C11.4406 45.8809 11.4314 46.1662 11.9191 46.1662C12.2504 46.1662 12.4897 45.973 12.5541 45.6417L12.6921 44.8963ZM12.4253 46.2674C12.2964 46.4147 12.094 46.4975 11.8547 46.4975C11.3118 46.4975 11.0357 46.1662 11.1461 45.6325L11.2934 44.8871C11.3946 44.3625 11.7627 44.0312 12.3333 44.0312C12.5265 44.0312 12.7566 44.1141 12.821 44.2521L12.8578 44.0681H13.1983L12.6921 46.6447C12.5633 47.2981 12.1492 47.4822 11.6615 47.4822C11.2198 47.4822 10.9253 47.2245 10.9621 46.7828H11.3026C11.3026 47.022 11.413 47.1417 11.7259 47.1417C11.9652 47.1417 12.2596 47.0957 12.3517 46.6447L12.4253 46.2674Z" fill="#3F414F"/>
<path d="M14.781 46.458L15.0847 44.8936C15.1307 44.6543 15.1767 44.3691 14.6982 44.3691C14.3761 44.3691 14.0724 44.5807 14.0172 44.8844L13.7135 46.458H13.373L13.9988 43.2188H14.3393L14.1276 44.2954C14.2841 44.1298 14.5142 44.0286 14.7626 44.0286C15.3056 44.0286 15.5264 44.3506 15.4252 44.8844L15.1215 46.4488H14.781V46.458Z" fill="#3F414F"/>
<path d="M17.4407 43.1875H17.7812L17.2658 45.8562C17.229 46.0587 17.2842 46.1231 17.4683 46.1231H17.5787L17.5143 46.4636H17.3855C17.0726 46.4636 16.8425 46.2887 16.9345 45.847L17.4407 43.1875Z" fill="#3F414F"/>
<path d="M19.7037 44.8949C19.7498 44.6556 19.7406 44.3704 19.262 44.3704C18.9215 44.3704 18.6731 44.5636 18.6086 44.8949L18.581 45.0421H19.6761L19.7037 44.8949ZM19.9614 45.3734H18.5258L18.4798 45.6403C18.4338 45.8796 18.443 46.1648 18.9307 46.1648C19.2436 46.1648 19.4737 45.99 19.5657 45.6771H19.9062C19.7682 46.1832 19.4093 46.5053 18.8663 46.5053C18.3234 46.5053 18.0381 46.174 18.1393 45.6403L18.2866 44.8949C18.3878 44.3703 18.7743 44.0391 19.3448 44.0391C19.8786 44.0391 20.1731 44.3703 20.0626 44.8949L19.9614 45.3734Z" fill="#3F414F"/>
<path d="M21.1402 46.1239L22.1064 44.0625H22.4837L21.3426 46.4551H20.8089L20.6064 44.0625H20.9469L21.1126 46.1239H21.1402Z" fill="#3F414F"/>
<path d="M24.1768 44.8949C24.2228 44.6556 24.2136 44.3704 23.7351 44.3704C23.3946 44.3704 23.1461 44.5636 23.0817 44.8949L23.0541 45.0421H24.1492L24.1768 44.8949ZM24.4253 45.3734H22.9897L22.9437 45.6403C22.8977 45.8796 22.9069 46.1648 23.3946 46.1648C23.7075 46.1648 23.9375 45.99 24.0296 45.6771H24.3701C24.232 46.1832 23.8731 46.5053 23.3302 46.5053C22.7872 46.5053 22.502 46.174 22.6032 45.6403L22.7504 44.8949C22.8517 44.3703 23.2382 44.0391 23.8087 44.0391C24.3425 44.0391 24.6369 44.3703 24.5265 44.8949L24.4253 45.3734Z" fill="#3F414F"/>
<path d="M25.4465 43.1875H25.787L25.2717 45.8562C25.2349 46.0587 25.2901 46.1231 25.4741 46.1231H25.5846L25.5202 46.4636H25.3913C25.0784 46.4636 24.8484 46.2887 24.9404 45.847L25.4465 43.1875Z" fill="#3F414F"/>
<path d="M28.7135 44.8949C28.7595 44.6556 28.7503 44.3704 28.2718 44.3704C27.9313 44.3704 27.6828 44.5636 27.6276 44.8949L27.6 45.0421H28.6951L28.7135 44.8949ZM28.962 45.3734H27.5264L27.4804 45.6403C27.4344 45.8796 27.4436 46.1648 27.9313 46.1648C28.2442 46.1648 28.4742 45.99 28.5663 45.6771H28.916C28.7779 46.1832 28.419 46.5053 27.8761 46.5053C27.3331 46.5053 27.0479 46.174 27.1491 45.6403L27.2963 44.8949C27.3976 44.3703 27.7841 44.0391 28.3546 44.0391C28.8884 44.0391 29.1828 44.3703 29.0724 44.8949L28.962 45.3734Z" fill="#3F414F"/>
<path d="M30.6823 46.4551L30.305 45.5533L29.5688 46.4551H29.1455L30.1394 45.2496L29.6056 44.0625H29.9829L30.3694 44.9827L31.1056 44.0625H31.5197L30.5259 45.268L31.0688 46.4551H30.6823Z" fill="#3F414F"/>
<path d="M33.2964 44.8949C33.3608 44.5636 33.2411 44.3704 32.8638 44.3704C32.4221 44.3704 32.2749 44.6556 32.2289 44.8949L32.0816 45.6403C32.0172 45.9624 32.1276 46.1648 32.5142 46.1648C32.9559 46.1648 33.1031 45.8796 33.1583 45.6403L33.2964 44.8949ZM32.4405 46.5053C32.2381 46.5053 32.0172 46.4133 31.9528 46.2753L31.7135 47.49H31.373L32.0356 44.0759H32.3761L32.3393 44.2599C32.5234 44.1035 32.6614 44.0391 32.9191 44.0391C33.4528 44.0391 33.7289 44.3703 33.6276 44.8949L33.4804 45.6403C33.3792 46.174 33.0295 46.5053 32.4405 46.5053Z" fill="#3F414F"/>
<path d="M35.6608 44.8949C35.7068 44.6556 35.6976 44.3704 35.2191 44.3704C34.8786 44.3704 34.6301 44.5636 34.5749 44.8949L34.5473 45.0421H35.6424L35.6608 44.8949ZM35.9092 45.3734H34.4737L34.4276 45.6403C34.3816 45.8796 34.3908 46.1648 34.8786 46.1648C35.1914 46.1648 35.4215 45.99 35.5135 45.6771H35.8632C35.7252 46.1832 35.3663 46.5053 34.8233 46.5053C34.2804 46.5053 33.9951 46.174 34.0964 45.6403L34.2436 44.8949C34.3448 44.3703 34.7313 44.0391 35.3019 44.0391C35.8356 44.0391 36.1301 44.3703 36.0197 44.8949L35.9092 45.3734Z" fill="#3F414F"/>
<path d="M37.5199 44.4108C37.3358 44.4108 37.0689 44.5488 36.9953 44.9353L36.7008 46.4537H36.3604L36.8205 44.0703H37.161L37.1242 44.2912C37.2622 44.1531 37.4094 44.0703 37.5935 44.0703H37.7867L37.7223 44.4108H37.5199Z" fill="#3F414F"/>
<path d="M38.3114 43.6752L38.4034 43.1875H38.8175L38.7255 43.6752H38.3114ZM37.8145 46.4544L38.2746 44.0709H38.6151L38.1549 46.4544H37.8145Z" fill="#3F414F"/>
<path d="M40.6583 44.8949C40.7043 44.6556 40.6951 44.3704 40.2165 44.3704C39.876 44.3704 39.6276 44.5636 39.5632 44.8949L39.5356 45.0421H40.6307L40.6583 44.8949ZM40.9067 45.3734H39.4711L39.4251 45.6403C39.3791 45.8796 39.3883 46.1648 39.876 46.1648C40.1889 46.1648 40.419 45.99 40.511 45.6771H40.8515C40.7135 46.1832 40.3546 46.5053 39.8116 46.5053C39.2687 46.5053 38.9834 46.174 39.0846 45.6403L39.2319 44.8949C39.3331 44.3703 39.7196 44.0391 40.2902 44.0391C40.8239 44.0391 41.1184 44.3703 41.008 44.8949L40.9067 45.3734Z" fill="#3F414F"/>
<path d="M42.7654 46.4593L43.0691 44.8949C43.1151 44.6556 43.1611 44.3704 42.6826 44.3704C42.3605 44.3704 42.0568 44.582 42.0016 44.8857L41.6979 46.4593H41.3574L41.8175 44.0759H42.158L42.112 44.2967C42.2593 44.1311 42.4893 44.0391 42.747 44.0391C43.2899 44.0391 43.52 44.3611 43.4096 44.8949L43.1059 46.4593H42.7654Z" fill="#3F414F"/>
<path d="M45.8576 44.8675H45.5079C45.5355 44.6282 45.4987 44.3706 45.0661 44.3706C44.7257 44.3706 44.4772 44.5638 44.4128 44.8951L44.2655 45.6405C44.2195 45.8798 44.2287 46.165 44.7165 46.165C45.0293 46.165 45.2594 45.9902 45.3514 45.6773H45.7011C45.5631 46.1834 45.2042 46.5055 44.6612 46.5055C44.1183 46.5055 43.833 46.1742 43.9342 45.6405L44.0815 44.8951C44.1827 44.3705 44.5692 44.0393 45.1398 44.0393C45.6551 44.0301 45.9312 44.3429 45.8576 44.8675Z" fill="#3F414F"/>
<path d="M47.8453 44.8949C47.8914 44.6556 47.8822 44.3704 47.4036 44.3704C47.0631 44.3704 46.8147 44.5636 46.7595 44.8949L46.7318 45.0421H47.8269L47.8453 44.8949ZM48.0938 45.3734H46.6582L46.6122 45.6403C46.5662 45.8796 46.5754 46.1648 47.0631 46.1648C47.376 46.1648 47.6061 45.99 47.6981 45.6771H48.0478C47.9098 46.1832 47.5509 46.5053 47.0079 46.5053C46.465 46.5053 46.1797 46.174 46.2809 45.6403L46.4282 44.8949C46.5294 44.3703 46.9159 44.0391 47.4864 44.0391C48.0202 44.0391 48.3147 44.3703 48.2042 44.8949L48.0938 45.3734Z" fill="#3F414F"/>
<path d="M48.6182 46.4606L48.7102 45.9453H49.2255L49.1243 46.4606H48.6182Z" fill="#3F414F"/>
<path d="M39.1671 36.6054C39.664 36.3293 39.9953 35.7864 39.9953 35.1974C39.9953 34.1667 39.2775 33.4766 38.2008 33.4766C37.6487 33.4766 37.2253 33.5778 36.7652 33.8171C36.6548 33.8631 36.5904 33.9735 36.5904 34.1023C36.5904 34.2956 36.7284 34.4428 36.9217 34.4428C36.9677 34.4428 37.0137 34.4336 37.0689 34.4152C37.4922 34.2128 37.7775 34.1483 38.1824 34.1483C38.8634 34.1483 39.2867 34.5532 39.2867 35.2158C39.2867 35.8508 38.8082 36.3201 38.1456 36.3201H37.9523C37.7591 36.3201 37.621 36.4582 37.621 36.6514C37.621 36.8447 37.7591 36.9827 37.9523 36.9827H38.1456C38.9094 36.9827 39.4707 37.4796 39.4707 38.1698C39.4707 38.9244 39.0106 39.3661 38.2468 39.3661C37.6947 39.3661 37.3726 39.2649 37.0137 39.0993C36.9585 39.0809 36.9217 39.0717 36.8664 39.0717C36.6824 39.0717 36.5352 39.2189 36.5352 39.4029C36.5352 39.5318 36.6088 39.6514 36.7376 39.7158C37.1517 39.9275 37.6487 40.0379 38.2376 40.0379C39.4155 40.0379 40.1701 39.3109 40.1701 38.1882C40.1701 37.4888 39.7744 36.8815 39.1671 36.6054Z" fill="#3F414F"/>
<path d="M42.1119 35.2789C42.1119 34.5611 42.5352 34.1469 43.2714 34.1469C44.0076 34.1469 44.4309 34.5611 44.4309 35.2789V38.2144C44.4309 38.9322 44.0076 39.3463 43.2714 39.3463C42.5352 39.3463 42.1119 38.9322 42.1119 38.2144V35.2789ZM43.2714 33.4844C42.1211 33.4844 41.4033 34.193 41.4033 35.3341V38.1684C41.4033 39.3095 42.1211 40.0181 43.2714 40.0181C44.4125 40.0181 45.1395 39.2911 45.1395 38.1684V35.3341C45.1395 34.1746 44.4401 33.4844 43.2714 33.4844Z" fill="#3F414F"/>
<path d="M47.3394 35.2789C47.3394 34.5611 47.7628 34.1469 48.499 34.1469C49.2352 34.1469 49.6585 34.5611 49.6585 35.2789V38.2144C49.6585 38.9322 49.2352 39.3463 48.499 39.3463C47.7628 39.3463 47.3394 38.9322 47.3394 38.2144V35.2789ZM48.499 33.4844C47.3486 33.4844 46.6309 34.193 46.6309 35.3341V38.1684C46.6309 39.3095 47.3486 40.0181 48.499 40.0181C49.6401 40.0181 50.3671 39.2911 50.3671 38.1684V35.3341C50.3763 34.1746 49.6769 33.4844 48.499 33.4844Z" fill="#3F414F"/>
<path d="M52.5758 35.2789C52.5758 34.5611 52.9991 34.1469 53.7353 34.1469C54.4715 34.1469 54.8948 34.5611 54.8948 35.2789V38.2144C54.8948 38.9322 54.4715 39.3463 53.7353 39.3463C52.9991 39.3463 52.5758 38.9322 52.5758 38.2144V35.2789ZM53.7353 33.4844C52.585 33.4844 51.8672 34.193 51.8672 35.3341V38.1684C51.8672 39.3095 52.585 40.0181 53.7353 40.0181C54.8764 40.0181 55.6034 39.2911 55.6034 38.1684V35.3341C55.6034 34.1746 54.904 33.4844 53.7353 33.4844Z" fill="#3F414F"/>
<path d="M4.04163 36.4752H2.7901C2.58765 36.4752 2.44041 36.6132 2.44041 36.8249C2.44041 37.0273 2.58765 37.1838 2.7901 37.1838H3.74715V39.1531C3.42507 39.2727 2.99255 39.3463 2.61525 39.3463C1.6582 39.3463 1.11525 38.8034 1.11525 37.8555V35.6654C1.11525 34.7175 1.6674 34.1746 2.61525 34.1746C2.90053 34.1746 3.25022 34.2666 3.66433 34.4506C3.71955 34.4782 3.81157 34.5058 3.87599 34.5058C4.07844 34.5058 4.23488 34.3678 4.23488 34.1746C4.23488 34.0365 4.15206 33.9169 4.02323 33.8433C3.59992 33.6132 3.07538 33.4844 2.62445 33.4844C1.22568 33.4844 0.397461 34.3034 0.397461 35.6838V37.8187C0.397461 39.1991 1.23488 40.0181 2.62445 40.0181C3.13979 40.0181 3.74715 39.8985 4.21648 39.7144C4.37292 39.6408 4.48335 39.4844 4.48335 39.3095V36.9077C4.47415 36.6684 4.2809 36.4752 4.04163 36.4752Z" fill="#3F414F"/>
<path d="M9.19535 39.2267H6.7475V33.8433C6.7475 33.6408 6.59106 33.4844 6.3794 33.4844C6.17695 33.4844 6.02051 33.6408 6.02051 33.8433V39.4936C6.02051 39.7328 6.22296 39.9261 6.46223 39.9261H9.19535C9.39781 39.9261 9.54505 39.7789 9.54505 39.5672C9.54505 39.3739 9.39781 39.2267 9.19535 39.2267Z" fill="#3F414F"/>
<path d="M18.9218 34.1654C19.2715 34.1654 19.5567 34.2482 19.8972 34.4414C19.9617 34.4782 20.0261 34.515 20.1181 34.515C20.3206 34.515 20.4678 34.3402 20.4678 34.1746C20.4678 33.9997 20.3482 33.9077 20.2193 33.8341C19.9064 33.6684 19.4831 33.4844 18.931 33.4844C17.6058 33.4844 16.75 34.331 16.75 35.6285V37.8739C16.75 39.1807 17.6058 40.0181 18.931 40.0181C19.4555 40.0181 19.9248 39.8893 20.2929 39.6316C20.4218 39.5488 20.477 39.4476 20.477 39.3187C20.477 39.1347 20.3206 38.9782 20.1273 38.9782C20.0445 38.9782 19.9709 39.0151 19.8604 39.0611C19.5383 39.2359 19.2439 39.3187 18.931 39.3187C18.0291 39.3187 17.477 38.7666 17.477 37.8923V35.5825C17.4678 34.7083 18.0291 34.1654 18.9218 34.1654Z" fill="#3F414F"/>
<path d="M22.5942 33.4844C22.3918 33.4844 22.2354 33.6408 22.2354 33.8341V39.6592C22.2354 39.8617 22.3918 40.0181 22.5942 40.0181C22.7967 40.0181 22.9623 39.8617 22.9623 39.6592V33.8341C22.9531 33.6316 22.7967 33.4844 22.5942 33.4844Z" fill="#3F414F"/>
<path d="M28.0694 39.2234H25.6215V36.978H27.8945C28.097 36.978 28.2442 36.8216 28.2442 36.6191C28.2442 36.4167 28.097 36.2694 27.8945 36.2694H25.6215V34.2541H28.005C28.2074 34.2541 28.3455 34.1068 28.3455 33.9044C28.3455 33.7111 28.1982 33.5547 28.005 33.5547H25.3362C25.0878 33.5547 24.8945 33.7479 24.8945 33.9872V39.4811C24.8945 39.7295 25.0878 39.9136 25.3362 39.9136H28.0694C28.2718 39.9136 28.4191 39.7663 28.4191 39.5547C28.4191 39.3706 28.2626 39.2234 28.0694 39.2234Z" fill="#3F414F"/>
<path d="M33.0112 35.3952C33.0112 36.0762 32.5879 36.4811 31.8793 36.4811H30.5541V34.2541H31.8793C32.5787 34.2449 33.0112 34.6866 33.0112 35.3952ZM33.729 39.4351L32.367 37.0608C33.2229 36.9044 33.729 36.2786 33.729 35.3768C33.729 34.2725 33.002 33.5547 31.8793 33.5547H30.2689C30.0204 33.5547 29.8271 33.7479 29.8271 33.9872V39.6375C29.8271 39.8492 29.9836 40.0056 30.1952 40.0056C30.4069 40.0056 30.5541 39.8492 30.5541 39.6375V37.1436H31.5756L33.1492 39.84C33.2136 39.9412 33.3241 39.9964 33.4437 39.9964C33.637 39.9964 33.8026 39.8308 33.8026 39.6283C33.8026 39.5823 33.775 39.5179 33.729 39.4351Z" fill="#3F414F"/>
<path d="M13.373 33.7434C13.3178 33.587 13.1522 33.4766 12.9865 33.4766C12.8117 33.4766 12.646 33.587 12.5908 33.7434L10.6399 39.5134C10.6215 39.5686 10.6123 39.6238 10.6123 39.6698C10.6123 39.8723 10.7595 40.0195 10.9712 40.0195C11.1276 40.0195 11.2657 39.9183 11.3117 39.7802L11.6982 38.6023L11.8086 38.271L12.0295 37.5993L12.1399 37.2496V37.2404L12.9865 34.6361L13.778 37.0839L14.1645 38.2618L14.6522 39.771C14.6982 39.9183 14.8362 40.0103 14.9927 40.0103C15.1951 40.0103 15.3516 39.8631 15.3516 39.6606C15.3516 39.6146 15.3424 39.5594 15.324 39.5042L13.373 33.7434Z" fill="#3F414F"/>
</svg>
