<svg width="280" height="61" viewBox="0 0 280 61" fill="none" xmlns="http://www.w3.org/2000/svg">
<path d="M38.4495 28.8581H53.3892C53.541 28.084 53.79 27.3531 54.1119 26.6719H35C36.0749 27.4584 37.241 28.1831 38.4495 28.8581Z" fill="#D6D1C4"/>
<path d="M53.2067 30.759C53.2067 30.3935 53.231 30.0343 53.2674 29.6875H40.0039C41.6315 30.5174 43.2894 31.242 44.8806 31.8738H53.2735C53.2371 31.5084 53.2067 31.1368 53.2067 30.759Z" fill="#D6D1C4"/>
<path d="M47.2432 32.767C50.6805 33.9994 53.4134 34.6993 54.0996 34.8665C53.7899 34.1976 53.5531 33.4916 53.4012 32.7422L47.2432 32.7608V32.767Z" fill="#D6D1C4"/>
<path d="M225.888 26.6719C226.21 27.3593 226.459 28.084 226.61 28.8581H241.55C242.753 28.1831 243.919 27.4584 245 26.6719H225.888Z" fill="#D6D1C4"/>
<path d="M226.798 30.759C226.798 31.1368 226.774 31.5084 226.731 31.8738H235.124C236.709 31.242 238.373 30.5112 240.001 29.6875H226.738C226.774 30.0405 226.798 30.3935 226.798 30.759Z" fill="#D6D1C4"/>
<path d="M225.905 34.876C226.592 34.7087 229.324 34.0027 232.762 32.7764L226.604 32.7578C226.458 33.5072 226.215 34.2133 225.905 34.8821V34.876Z" fill="#D6D1C4"/>
<path d="M99.6777 50.0111V50.7296H94.2119V42.8516H99.5076V43.57H95.0257V46.3756H99.0218V47.0817H95.0257V50.0111H99.6716H99.6777Z" fill="#D6D1C4"/>
<path d="M114.289 50.7296L111.793 47.2613L109.309 50.7296H108.374L111.307 46.6791L108.556 42.8516H109.498L111.824 46.0721L114.143 42.8516H115.024L112.285 46.6543L115.23 50.7296H114.283H114.289Z" fill="#D6D1C4"/>
<path d="M129.582 43.57C130.14 44.0469 130.42 44.7096 130.42 45.5519C130.42 46.3942 130.14 47.0507 129.582 47.5276C129.023 48.0045 128.252 48.2398 127.262 48.2398H125.185V50.7296H124.371V42.8516H127.262C128.246 42.8516 129.023 43.0931 129.582 43.57ZM128.999 46.9949C129.406 46.6543 129.606 46.1712 129.606 45.5457C129.606 44.9202 129.406 44.4185 128.999 44.0779C128.592 43.7372 128.009 43.5638 127.244 43.5638H125.191V47.5028H127.244C128.009 47.5028 128.592 47.3294 128.999 46.9888V46.9949Z" fill="#D6D1C4"/>
<path d="M145.407 50.7296L143.64 48.1965C143.44 48.2212 143.233 48.2336 143.021 48.2336H140.944V50.7296H140.13V42.8516H143.021C144.004 42.8516 144.782 43.0931 145.341 43.57C145.899 44.0469 146.179 44.7096 146.179 45.5519C146.179 46.165 146.027 46.6853 145.723 47.1126C145.42 47.5338 144.982 47.8434 144.417 48.0292L146.306 50.7296H145.413H145.407ZM144.758 47.0011C145.164 46.6543 145.365 46.1712 145.365 45.5519C145.365 44.9325 145.164 44.4247 144.758 44.0841C144.351 43.7434 143.768 43.57 143.002 43.57H140.95V47.5214H143.002C143.768 47.5214 144.351 47.348 144.758 47.0011Z" fill="#D6D1C4"/>
<path d="M161.526 50.0111V50.7296H156.061V42.8516H161.356V43.57H156.874V46.3756H160.87V47.0817H156.874V50.0111H161.52H161.526Z" fill="#D6D1C4"/>
<path d="M171.874 50.5168C171.346 50.331 170.939 50.0833 170.653 49.7736L170.975 49.1295C171.255 49.4144 171.625 49.6435 172.093 49.8231C172.554 50.0028 173.034 50.0895 173.526 50.0895C174.218 50.0895 174.734 49.9594 175.081 49.6993C175.427 49.4392 175.597 49.1047 175.597 48.6898C175.597 48.3739 175.506 48.1262 175.317 47.9342C175.129 47.7484 174.898 47.5997 174.625 47.5006C174.352 47.4015 173.975 47.29 173.489 47.1662C172.906 47.0175 172.445 46.8751 172.099 46.7326C171.753 46.5964 171.455 46.3796 171.212 46.0947C170.963 45.8098 170.842 45.4258 170.842 44.9366C170.842 44.5402 170.945 44.1748 171.151 43.8527C171.358 43.5245 171.674 43.2643 172.099 43.0723C172.524 42.8803 173.058 42.7812 173.69 42.7812C174.133 42.7812 174.564 42.8432 174.989 42.9671C175.415 43.0909 175.779 43.2643 176.089 43.4811L175.815 44.1438C175.494 43.927 175.147 43.766 174.777 43.6545C174.406 43.543 174.048 43.4935 173.696 43.4935C173.016 43.4935 172.512 43.6297 172.166 43.8961C171.819 44.1624 171.655 44.503 171.655 44.9242C171.655 45.24 171.746 45.494 171.935 45.686C172.123 45.878 172.36 46.0204 172.639 46.1257C172.925 46.2248 173.301 46.3363 173.781 46.4601C174.346 46.6026 174.807 46.745 175.153 46.8813C175.5 47.0175 175.797 47.2281 176.04 47.513C176.283 47.7917 176.404 48.1757 176.404 48.6526C176.404 49.049 176.301 49.4144 176.089 49.7364C175.876 50.0647 175.554 50.3186 175.123 50.5106C174.686 50.7026 174.157 50.7955 173.52 50.7955C172.949 50.7955 172.396 50.7026 171.868 50.5168H171.874Z" fill="#D6D1C4"/>
<path d="M186.607 50.5168C186.079 50.331 185.672 50.0833 185.387 49.7736L185.709 49.1295C185.988 49.4144 186.358 49.6435 186.826 49.8231C187.288 50.0028 187.767 50.0895 188.259 50.0895C188.952 50.0895 189.468 49.9594 189.814 49.6993C190.16 49.4392 190.33 49.1047 190.33 48.6898C190.33 48.3739 190.239 48.1262 190.051 47.9342C189.863 47.7484 189.632 47.5997 189.358 47.5006C189.085 47.4015 188.709 47.29 188.223 47.1662C187.64 47.0175 187.178 46.8751 186.832 46.7326C186.486 46.5964 186.188 46.3796 185.945 46.0947C185.696 45.8098 185.575 45.4258 185.575 44.9366C185.575 44.5402 185.678 44.1748 185.885 43.8527C186.091 43.5245 186.407 43.2643 186.832 43.0723C187.257 42.8803 187.792 42.7812 188.423 42.7812C188.867 42.7812 189.298 42.8432 189.723 42.9671C190.148 43.0909 190.512 43.2643 190.822 43.4811L190.549 44.1438C190.227 43.927 189.881 43.766 189.51 43.6545C189.14 43.543 188.782 43.4935 188.429 43.4935C187.749 43.4935 187.245 43.6297 186.899 43.8961C186.553 44.1624 186.389 44.503 186.389 44.9242C186.389 45.24 186.48 45.494 186.668 45.686C186.856 45.878 187.093 46.0204 187.373 46.1257C187.658 46.2248 188.035 46.3363 188.514 46.4601C189.079 46.6026 189.541 46.745 189.887 46.8813C190.233 47.0175 190.531 47.2281 190.774 47.513C191.016 47.7917 191.138 48.1757 191.138 48.6526C191.138 49.049 191.035 49.4144 190.822 49.7364C190.61 50.0647 190.288 50.3186 189.856 50.5106C189.419 50.7026 188.891 50.7955 188.253 50.7955C187.682 50.7955 187.13 50.7026 186.601 50.5168H186.607Z" fill="#D6D1C4"/>
<path d="M64.7941 30.4695H67.612V35.2384C66.9683 35.7091 66.2274 36.0683 65.3893 36.3222C64.5512 36.5762 63.7131 36.7 62.875 36.7C61.6908 36.7 60.628 36.4461 59.6867 35.9382C58.7393 35.4304 57.9984 34.7181 57.464 33.8077C56.9235 32.8973 56.6562 31.8692 56.6562 30.7172C56.6562 29.5652 56.9235 28.5371 57.464 27.6267C57.9984 26.7163 58.7454 26.0102 59.7049 25.4962C60.6584 24.9883 61.7394 24.7344 62.9419 24.7344C63.9925 24.7344 64.9399 24.914 65.778 25.2794C66.616 25.6386 67.3144 26.1589 67.8732 26.8401L65.8448 28.7105C65.0796 27.8558 64.1686 27.4285 63.1058 27.4285C62.1402 27.4285 61.3629 27.7258 60.7677 28.3265C60.1786 28.9211 59.881 29.7201 59.881 30.7172C59.881 31.3551 60.0146 31.9187 60.2819 32.4204C60.5491 32.9159 60.9256 33.306 61.4114 33.5847C61.8973 33.8634 62.4499 34.0059 63.0694 34.0059C63.6888 34.0059 64.2536 33.882 64.7941 33.6281V30.4695Z" fill="#D6D1C4"/>
<path d="M77.5967 35.9337C76.6433 35.4196 75.8963 34.7074 75.3558 33.7969C74.8153 32.8865 74.542 31.8646 74.542 30.725C74.542 29.5854 74.8153 28.5635 75.3558 27.6531C75.8963 26.7427 76.6433 26.0304 77.5967 25.5164C78.5502 25.0023 79.6191 24.7422 80.8094 24.7422C81.9997 24.7422 83.0746 25.0023 84.022 25.5164C84.9755 26.0304 85.7225 26.7427 86.263 27.6531C86.8035 28.5635 87.0768 29.5854 87.0768 30.725C87.0768 31.8646 86.8035 32.8865 86.263 33.7969C85.7225 34.7074 84.9755 35.4196 84.022 35.9337C83.0685 36.4477 81.9997 36.7078 80.8094 36.7078C79.6191 36.7078 78.5441 36.4477 77.5967 35.9337ZM82.358 33.5988C82.8196 33.3262 83.1839 32.9361 83.4511 32.4406C83.7184 31.9389 83.852 31.3691 83.852 30.725C83.852 30.0809 83.7184 29.5049 83.4511 29.0094C83.1839 28.514 82.8196 28.1238 82.358 27.8513C81.8965 27.5788 81.3802 27.4425 80.8094 27.4425C80.2385 27.4425 79.7223 27.5788 79.2607 27.8513C78.7992 28.1238 78.4348 28.514 78.1676 29.0094C77.9004 29.5111 77.7668 30.0809 77.7668 30.725C77.7668 31.3691 77.9004 31.9451 78.1676 32.4406C78.4348 32.9361 78.7992 33.3262 79.2607 33.5988C79.7223 33.8713 80.2385 34.0075 80.8094 34.0075C81.3802 34.0075 81.8965 33.8713 82.358 33.5988Z" fill="#D6D1C4"/>
<path d="M94.2365 24.9609H97.4249V33.8856H102.806V36.4683H94.2305V24.9609H94.2365Z" fill="#D6D1C4"/>
<path d="M109.547 24.9609H114.879C116.118 24.9609 117.211 25.1963 118.165 25.667C119.118 26.1377 119.865 26.8066 120.387 27.6736C120.916 28.5407 121.177 29.5502 121.177 30.7146C121.177 31.879 120.916 32.8885 120.387 33.7556C119.859 34.6226 119.118 35.2915 118.165 35.7622C117.211 36.2329 116.112 36.4683 114.879 36.4683H109.547V24.9609ZM114.751 33.867C115.717 33.867 116.494 33.5883 117.077 33.0309C117.66 32.4735 117.958 31.6994 117.958 30.7146C117.958 29.7299 117.667 28.9557 117.077 28.3983C116.494 27.8409 115.717 27.5622 114.751 27.5622H112.735V33.8732H114.751V33.867Z" fill="#D6D1C4"/>
<path d="M137.398 33.9538V36.4683H128.343V24.9609H137.191V27.4755H131.501V29.414H136.511V31.848H131.501V33.9538H137.398Z" fill="#D6D1C4"/>
<path d="M155.386 24.9609V36.4683H152.763L147.783 30.3368V36.4683H144.655V24.9609H147.279L152.259 31.0924V24.9609H155.386Z" fill="#D6D1C4"/>
<path d="M170.94 25.4812C171.693 25.828 172.27 26.3173 172.683 26.9614C173.09 27.6055 173.296 28.3549 173.296 29.222C173.296 30.0891 173.09 30.8385 172.683 31.4764C172.276 32.1143 171.693 32.6036 170.94 32.9504C170.187 33.2973 169.3 33.4707 168.28 33.4707H166.312V36.4807H163.124V24.9609H168.28C169.3 24.9609 170.187 25.1344 170.94 25.4812ZM169.568 30.4607C169.902 30.1696 170.066 29.7546 170.066 29.222C170.066 28.6894 169.902 28.2682 169.568 27.9709C169.234 27.6736 168.742 27.525 168.086 27.525H166.312V30.8942H168.086C168.742 30.8942 169.234 30.7518 169.568 30.4607Z" fill="#D6D1C4"/>
<path d="M187.312 34.2325H182.538L181.652 36.4683H178.396L183.376 24.9609H186.516L191.514 36.4683H188.192L187.306 34.2325H187.312ZM186.376 31.8356L184.925 28.1505L183.474 31.8356H186.376Z" fill="#D6D1C4"/>
<path d="M199.202 36.361C198.339 36.1319 197.641 35.8222 197.106 35.4382L198.151 33.0413C198.655 33.382 199.244 33.6545 199.906 33.8651C200.574 34.0756 201.23 34.1747 201.874 34.1747C203.101 34.1747 203.708 33.8651 203.708 33.2395C203.708 32.9113 203.532 32.6697 203.186 32.5087C202.839 32.3477 202.275 32.1805 201.503 32.007C200.653 31.8212 199.943 31.6231 199.378 31.4063C198.807 31.1957 198.321 30.8489 197.908 30.3782C197.501 29.9075 197.295 29.2696 197.295 28.4706C197.295 27.7708 197.483 27.139 197.86 26.5754C198.236 26.0118 198.795 25.5659 199.542 25.2377C200.289 24.9094 201.206 24.7422 202.287 24.7422C203.028 24.7422 203.756 24.8289 204.479 24.9961C205.202 25.1695 205.833 25.4173 206.38 25.7455L205.396 28.1609C204.321 27.5664 203.277 27.2753 202.269 27.2753C201.637 27.2753 201.175 27.3744 200.884 27.5664C200.592 27.7584 200.447 28.0061 200.447 28.3158C200.447 28.6255 200.617 28.8546 200.963 29.0032C201.309 29.1581 201.862 29.3129 202.621 29.4801C203.483 29.6659 204.194 29.8641 204.758 30.0809C205.323 30.2915 205.809 30.6321 206.228 31.0966C206.647 31.5611 206.848 32.1928 206.848 32.9918C206.848 33.6793 206.659 34.3048 206.283 34.8684C205.906 35.4258 205.341 35.8717 204.588 36.2062C203.835 36.5406 202.924 36.7078 201.849 36.7078C200.939 36.7078 200.052 36.5902 199.19 36.361H199.202Z" fill="#D6D1C4"/>
<path d="M215.115 36.361C214.252 36.1319 213.554 35.8222 213.02 35.4382L214.064 33.0413C214.568 33.382 215.157 33.6545 215.819 33.8651C216.487 34.0756 217.143 34.1747 217.787 34.1747C219.014 34.1747 219.621 33.8651 219.621 33.2395C219.621 32.9113 219.445 32.6697 219.099 32.5087C218.752 32.3477 218.188 32.1805 217.416 32.007C216.566 31.8212 215.856 31.6231 215.291 31.4063C214.72 31.1957 214.234 30.8489 213.821 30.3782C213.414 29.9075 213.208 29.2696 213.208 28.4706C213.208 27.7708 213.396 27.139 213.773 26.5754C214.149 26.0118 214.708 25.5659 215.455 25.2377C216.202 24.9094 217.119 24.7422 218.2 24.7422C218.941 24.7422 219.67 24.8289 220.392 24.9961C221.115 25.1695 221.747 25.4173 222.293 25.7455L221.309 28.1609C220.234 27.5664 219.19 27.2753 218.182 27.2753C217.55 27.2753 217.088 27.3744 216.797 27.5664C216.505 27.7584 216.36 28.0061 216.36 28.3158C216.36 28.6255 216.53 28.8546 216.876 29.0032C217.222 29.1581 217.775 29.3129 218.534 29.4801C219.396 29.6659 220.107 29.8641 220.672 30.0809C221.236 30.2915 221.722 30.6321 222.141 31.0966C222.56 31.5611 222.761 32.1928 222.761 32.9918C222.761 33.6793 222.572 34.3048 222.196 34.8684C221.819 35.4258 221.255 35.8717 220.502 36.2062C219.748 36.5406 218.838 36.7078 217.763 36.7078C216.852 36.7078 215.965 36.5902 215.103 36.361H215.115Z" fill="#D6D1C4"/>
<path d="M38.4495 28.6642H53.3892C53.541 27.8978 53.79 27.1744 54.1119 26.5H35C36.0749 27.2786 37.241 27.9959 38.4495 28.6642Z" fill="#D6D1C4"/>
<path d="M53.2067 30.5528C53.2067 30.1911 53.231 29.8355 53.2674 29.4922H40.0039C41.6315 30.3137 43.2894 31.031 44.8806 31.6564H53.2735C53.2371 31.2947 53.2067 30.9268 53.2067 30.5528Z" fill="#D6D1C4"/>
<path d="M47.2432 32.5401C50.6805 33.7602 53.4134 34.453 54.0996 34.6185C53.7899 33.9564 53.5531 33.2575 53.4012 32.5156L47.2432 32.534V32.5401Z" fill="#D6D1C4"/>
<path d="M225.888 26.5C226.21 27.1805 226.459 27.8978 226.61 28.6642H241.55C242.753 27.9959 243.919 27.2786 245 26.5H225.888Z" fill="#D6D1C4"/>
<path d="M226.798 30.5528C226.798 30.9268 226.774 31.2947 226.731 31.6564H235.124C236.709 31.031 238.373 30.3076 240.001 29.4922H226.738C226.774 29.8416 226.798 30.1911 226.798 30.5528Z" fill="#D6D1C4"/>
<path d="M225.905 34.6202C226.592 34.4547 229.324 33.7557 232.762 32.5418L226.604 32.5234C226.458 33.2653 226.215 33.9642 225.905 34.6263V34.6202Z" fill="#D6D1C4"/>
<path d="M99.6777 49.6107V50.3219H94.2119V42.5234H99.5076V43.2346H95.0257V46.0119H99.0218V46.7108H95.0257V49.6107H99.6716H99.6777Z" fill="#D6D1C4"/>
<path d="M114.289 50.3219L111.793 46.8886L109.309 50.3219H108.374L111.307 46.3123L108.556 42.5234H109.498L111.824 45.7115L114.143 42.5234H115.024L112.285 46.2878L115.23 50.3219H114.283H114.289Z" fill="#D6D1C4"/>
<path d="M129.582 43.2346C130.14 43.7067 130.42 44.3627 130.42 45.1965C130.42 46.0303 130.14 46.6802 129.582 47.1523C129.023 47.6243 128.252 47.8573 127.262 47.8573H125.185V50.3219H124.371V42.5234H127.262C128.246 42.5234 129.023 42.7625 129.582 43.2346ZM128.999 46.625C129.406 46.2878 129.606 45.8096 129.606 45.1904C129.606 44.5712 129.406 44.0746 128.999 43.7374C128.592 43.4002 128.009 43.2285 127.244 43.2285H125.191V47.1277H127.244C128.009 47.1277 128.592 46.9561 128.999 46.6189V46.625Z" fill="#D6D1C4"/>
<path d="M145.407 50.3219L143.64 47.8144C143.44 47.8389 143.233 47.8512 143.021 47.8512H140.944V50.3219H140.13V42.5234H143.021C144.004 42.5234 144.782 42.7625 145.341 43.2346C145.899 43.7067 146.179 44.3627 146.179 45.1965C146.179 45.8035 146.027 46.3185 145.723 46.7415C145.42 47.1584 144.982 47.4649 144.417 47.6489L146.306 50.3219H145.413H145.407ZM144.758 46.6311C145.164 46.2878 145.365 45.8096 145.365 45.1965C145.365 44.5834 145.164 44.0807 144.758 43.7435C144.351 43.4063 143.768 43.2346 143.002 43.2346H140.95V47.1461H143.002C143.768 47.1461 144.351 46.9745 144.758 46.6311Z" fill="#D6D1C4"/>
<path d="M161.526 49.6107V50.3219H156.061V42.5234H161.356V43.2346H156.874V46.0119H160.87V46.7108H156.874V49.6107H161.52H161.526Z" fill="#D6D1C4"/>
<path d="M171.874 50.1106C171.346 49.9267 170.939 49.6814 170.653 49.3749L170.975 48.7373C171.255 49.0193 171.625 49.2461 172.093 49.4239C172.554 49.6017 173.034 49.6876 173.526 49.6876C174.218 49.6876 174.734 49.5588 175.081 49.3013C175.427 49.0438 175.597 48.7128 175.597 48.302C175.597 47.9893 175.506 47.7441 175.317 47.554C175.129 47.3701 174.898 47.223 174.625 47.1249C174.352 47.0268 173.975 46.9164 173.489 46.7938C172.906 46.6467 172.445 46.5056 172.099 46.3646C171.753 46.2298 171.455 46.0152 171.212 45.7331C170.963 45.4511 170.842 45.071 170.842 44.5867C170.842 44.1943 170.945 43.8326 171.151 43.5138C171.358 43.1888 171.674 42.9313 172.099 42.7413C172.524 42.5512 173.058 42.4531 173.69 42.4531C174.133 42.4531 174.564 42.5144 174.989 42.6371C175.415 42.7597 175.779 42.9313 176.089 43.1459L175.815 43.8019C175.494 43.5873 175.147 43.4279 174.777 43.3176C174.406 43.2072 174.048 43.1582 173.696 43.1582C173.016 43.1582 172.512 43.2931 172.166 43.5567C171.819 43.8203 171.655 44.1575 171.655 44.5744C171.655 44.8871 171.746 45.1385 171.935 45.3285C172.123 45.5186 172.36 45.6596 172.639 45.7638C172.925 45.8619 173.301 45.9723 173.781 46.0949C174.346 46.2359 174.807 46.3769 175.153 46.5118C175.5 46.6467 175.797 46.8551 176.04 47.1371C176.283 47.413 176.404 47.7931 176.404 48.2652C176.404 48.6576 176.301 49.0193 176.089 49.3381C175.876 49.663 175.554 49.9144 175.123 50.1045C174.686 50.2945 174.157 50.3865 173.52 50.3865C172.949 50.3865 172.396 50.2945 171.868 50.1106H171.874Z" fill="#D6D1C4"/>
<path d="M186.607 50.1106C186.079 49.9267 185.672 49.6814 185.387 49.3749L185.709 48.7373C185.988 49.0193 186.358 49.2461 186.826 49.4239C187.288 49.6017 187.767 49.6876 188.259 49.6876C188.952 49.6876 189.468 49.5588 189.814 49.3013C190.16 49.0438 190.33 48.7128 190.33 48.302C190.33 47.9893 190.239 47.7441 190.051 47.554C189.863 47.3701 189.632 47.223 189.358 47.1249C189.085 47.0268 188.709 46.9164 188.223 46.7938C187.64 46.6467 187.178 46.5056 186.832 46.3646C186.486 46.2298 186.188 46.0152 185.945 45.7331C185.696 45.4511 185.575 45.071 185.575 44.5867C185.575 44.1943 185.678 43.8326 185.885 43.5138C186.091 43.1888 186.407 42.9313 186.832 42.7413C187.257 42.5512 187.792 42.4531 188.423 42.4531C188.867 42.4531 189.298 42.5144 189.723 42.6371C190.148 42.7597 190.512 42.9313 190.822 43.1459L190.549 43.8019C190.227 43.5873 189.881 43.4279 189.51 43.3176C189.14 43.2072 188.782 43.1582 188.429 43.1582C187.749 43.1582 187.245 43.2931 186.899 43.5567C186.553 43.8203 186.389 44.1575 186.389 44.5744C186.389 44.8871 186.48 45.1385 186.668 45.3285C186.856 45.5186 187.093 45.6596 187.373 45.7638C187.658 45.8619 188.035 45.9723 188.514 46.0949C189.079 46.2359 189.541 46.3769 189.887 46.5118C190.233 46.6467 190.531 46.8551 190.774 47.1371C191.016 47.413 191.138 47.7931 191.138 48.2652C191.138 48.6576 191.035 49.0193 190.822 49.3381C190.61 49.663 190.288 49.9144 189.856 50.1045C189.419 50.2945 188.891 50.3865 188.253 50.3865C187.682 50.3865 187.13 50.2945 186.601 50.1106H186.607Z" fill="#D6D1C4"/>
<path d="M64.7941 30.2631H67.612V34.9839C66.9683 35.4499 66.2274 35.8055 65.3893 36.0568C64.5512 36.3082 63.7131 36.4308 62.875 36.4308C61.6908 36.4308 60.628 36.1794 59.6867 35.6767C58.7393 35.174 57.9984 34.4689 57.464 33.5677C56.9235 32.6664 56.6562 31.6487 56.6562 30.5084C56.6562 29.368 56.9235 28.3503 57.464 27.4491C57.9984 26.5478 58.7454 25.8489 59.7049 25.34C60.6584 24.8373 61.7394 24.5859 62.9419 24.5859C63.9925 24.5859 64.9399 24.7637 65.778 25.1255C66.616 25.481 67.3144 25.996 67.8732 26.6704L65.8448 28.522C65.0796 27.6759 64.1686 27.2529 63.1058 27.2529C62.1402 27.2529 61.3629 27.5472 60.7677 28.1419C60.1786 28.7304 59.881 29.5213 59.881 30.5084C59.881 31.1399 60.0146 31.6978 60.2819 32.1944C60.5491 32.6848 60.9256 33.0711 61.4114 33.347C61.8973 33.6229 62.4499 33.7639 63.0694 33.7639C63.6888 33.7639 64.2536 33.6413 64.7941 33.3899V30.2631Z" fill="#D6D1C4"/>
<path d="M77.5967 35.6723C76.6433 35.1634 75.8963 34.4583 75.3558 33.5571C74.8153 32.6559 74.542 31.6443 74.542 30.5162C74.542 29.3881 74.8153 28.3765 75.3558 27.4753C75.8963 26.574 76.6433 25.869 77.5967 25.3601C78.5502 24.8512 79.6191 24.5938 80.8094 24.5938C81.9997 24.5938 83.0746 24.8512 84.022 25.3601C84.9755 25.869 85.7225 26.574 86.263 27.4753C86.8035 28.3765 87.0768 29.3881 87.0768 30.5162C87.0768 31.6443 86.8035 32.6559 86.263 33.5571C85.7225 34.4583 84.9755 35.1634 84.022 35.6723C83.0685 36.1811 81.9997 36.4386 80.8094 36.4386C79.6191 36.4386 78.5441 36.1811 77.5967 35.6723ZM82.358 33.3609C82.8196 33.0912 83.1839 32.7049 83.4511 32.2144C83.7184 31.7178 83.852 31.1538 83.852 30.5162C83.852 29.8786 83.7184 29.3084 83.4511 28.8179C83.1839 28.3275 82.8196 27.9412 82.358 27.6715C81.8965 27.4017 81.3802 27.2668 80.8094 27.2668C80.2385 27.2668 79.7223 27.4017 79.2607 27.6715C78.7992 27.9412 78.4348 28.3275 78.1676 28.8179C77.9004 29.3145 77.7668 29.8786 77.7668 30.5162C77.7668 31.1538 77.9004 31.724 78.1676 32.2144C78.4348 32.7049 78.7992 33.0912 79.2607 33.3609C79.7223 33.6307 80.2385 33.7656 80.8094 33.7656C81.3802 33.7656 81.8965 33.6307 82.358 33.3609Z" fill="#D6D1C4"/>
<path d="M94.2365 24.8047H97.4249V33.6393H102.806V36.1959H94.2305V24.8047H94.2365Z" fill="#D6D1C4"/>
<path d="M109.547 24.8047H114.879C116.118 24.8047 117.211 25.0377 118.165 25.5036C119.118 25.9696 119.865 26.6317 120.387 27.49C120.916 28.3483 121.177 29.3477 121.177 30.5003C121.177 31.6529 120.916 32.6522 120.387 33.5105C119.859 34.3689 119.118 35.031 118.165 35.497C117.211 35.9629 116.112 36.1959 114.879 36.1959H109.547V24.8047ZM114.751 33.6209C115.717 33.6209 116.494 33.345 117.077 32.7932C117.66 32.2415 117.958 31.4751 117.958 30.5003C117.958 29.5255 117.667 28.7591 117.077 28.2073C116.494 27.6556 115.717 27.3797 114.751 27.3797H112.735V33.627H114.751V33.6209Z" fill="#D6D1C4"/>
<path d="M137.398 33.7067V36.1959H128.343V24.8047H137.191V27.2938H131.501V29.2128H136.511V31.6222H131.501V33.7067H137.398Z" fill="#D6D1C4"/>
<path d="M155.386 24.8047V36.1959H152.763L147.783 30.1263V36.1959H144.655V24.8047H147.279L152.259 30.8743V24.8047H155.386Z" fill="#D6D1C4"/>
<path d="M170.94 25.3197C171.693 25.663 172.27 26.1474 172.683 26.785C173.09 27.4226 173.296 28.1644 173.296 29.0227C173.296 29.8811 173.09 30.6229 172.683 31.2544C172.276 31.8859 171.693 32.3702 170.94 32.7135C170.187 33.0569 169.3 33.2285 168.28 33.2285H166.312V36.2081H163.124V24.8047H168.28C169.3 24.8047 170.187 24.9764 170.94 25.3197ZM169.568 30.2489C169.902 29.9608 170.066 29.55 170.066 29.0227C170.066 28.4955 169.902 28.0786 169.568 27.7843C169.234 27.49 168.742 27.3429 168.086 27.3429H166.312V30.6781H168.086C168.742 30.6781 169.234 30.5371 169.568 30.2489Z" fill="#D6D1C4"/>
<path d="M187.312 33.9826H182.538L181.652 36.1959H178.396L183.376 24.8047H186.516L191.514 36.1959H188.192L187.306 33.9826H187.312ZM186.376 31.61L184.925 27.9621L183.474 31.61H186.376Z" fill="#D6D1C4"/>
<path d="M199.202 36.0953C198.339 35.8685 197.641 35.5619 197.106 35.1818L198.151 32.8091C198.655 33.1463 199.244 33.4161 199.906 33.6245C200.574 33.833 201.23 33.9311 201.874 33.9311C203.101 33.9311 203.708 33.6245 203.708 33.0053C203.708 32.6804 203.532 32.4413 203.186 32.2819C202.839 32.1225 202.275 31.9569 201.503 31.7853C200.653 31.6014 199.943 31.4052 199.378 31.1906C198.807 30.9821 198.321 30.6388 197.908 30.1729C197.501 29.7069 197.295 29.0754 197.295 28.2845C197.295 27.5918 197.483 26.9664 197.86 26.4085C198.236 25.8506 198.795 25.4092 199.542 25.0842C200.289 24.7593 201.206 24.5938 202.287 24.5938C203.028 24.5938 203.756 24.6796 204.479 24.8451C205.202 25.0168 205.833 25.262 206.38 25.587L205.396 27.978C204.321 27.3894 203.277 27.1013 202.269 27.1013C201.637 27.1013 201.175 27.1994 200.884 27.3894C200.592 27.5795 200.447 27.8247 200.447 28.1313C200.447 28.4378 200.617 28.6647 200.963 28.8118C201.309 28.9651 201.862 29.1183 202.621 29.2839C203.483 29.4678 204.194 29.664 204.758 29.8786C205.323 30.087 205.809 30.4242 206.228 30.884C206.647 31.3439 206.848 31.9692 206.848 32.7601C206.848 33.4406 206.659 34.0598 206.283 34.6178C205.906 35.1695 205.341 35.611 204.588 35.942C203.835 36.2731 202.924 36.4386 201.849 36.4386C200.939 36.4386 200.052 36.3221 199.19 36.0953H199.202Z" fill="#D6D1C4"/>
<path d="M215.115 36.0953C214.252 35.8685 213.554 35.5619 213.02 35.1818L214.064 32.8091C214.568 33.1463 215.157 33.4161 215.819 33.6245C216.487 33.833 217.143 33.9311 217.787 33.9311C219.014 33.9311 219.621 33.6245 219.621 33.0053C219.621 32.6804 219.445 32.4413 219.099 32.2819C218.752 32.1225 218.188 31.9569 217.416 31.7853C216.566 31.6014 215.856 31.4052 215.291 31.1906C214.72 30.9821 214.234 30.6388 213.821 30.1729C213.414 29.7069 213.208 29.0754 213.208 28.2845C213.208 27.5918 213.396 26.9664 213.773 26.4085C214.149 25.8506 214.708 25.4092 215.455 25.0842C216.202 24.7593 217.119 24.5938 218.2 24.5938C218.941 24.5938 219.67 24.6796 220.392 24.8451C221.115 25.0168 221.747 25.262 222.293 25.587L221.309 27.978C220.234 27.3894 219.19 27.1013 218.182 27.1013C217.55 27.1013 217.088 27.1994 216.797 27.3894C216.505 27.5795 216.36 27.8247 216.36 28.1313C216.36 28.4378 216.53 28.6647 216.876 28.8118C217.222 28.9651 217.775 29.1183 218.534 29.2839C219.396 29.4678 220.107 29.664 220.672 29.8786C221.236 30.087 221.722 30.4242 222.141 30.884C222.56 31.3439 222.761 31.9692 222.761 32.7601C222.761 33.4406 222.572 34.0598 222.196 34.6178C221.819 35.1695 221.255 35.611 220.502 35.942C219.748 36.2731 218.838 36.4386 217.763 36.4386C216.852 36.4386 215.965 36.3221 215.103 36.0953H215.115Z" fill="#D6D1C4"/>
<path d="M136.704 18.4935H144.355V10.7689C144.349 10.0962 143.811 9.54688 143.139 9.54688H135.488V17.2714C135.488 17.9441 136.032 18.4935 136.699 18.4935H136.704Z" fill="#36A9E1"/>
<path d="M139.035 16.6689V14.9088H137.303V13.1318H139.035V11.3828H140.789V13.143H142.538V14.92L140.795 14.9088V16.6689H139.041H139.035Z" fill="#36A9E1"/>
<path d="M136.704 18.4935H144.355V10.7689C144.349 10.0962 143.811 9.54688 143.139 9.54688H135.488V17.2714C135.488 17.9441 136.032 18.4935 136.699 18.4935H136.704Z" fill="#B91B1B"/>
<path d="M139.035 16.6689V14.9088H137.303V13.1318H139.035V11.3828H140.789V13.143H142.538V14.92L140.795 14.9088V16.6689H139.041H139.035Z" fill="white"/>
</svg>
