<svg width="140" height="29" viewBox="0 0 140 29" fill="none" xmlns="http://www.w3.org/2000/svg">
<mask id="mask0_5545_18595" style="mask-type:luminance" maskUnits="userSpaceOnUse" x="0" y="10" width="53" height="2">
<path d="M0.000976562 10.0781H52.1074V11.9077H0.000976562V10.0781Z" fill="white"/>
</mask>
<g mask="url(#mask0_5545_18595)">
<path fill-rule="evenodd" clip-rule="evenodd" d="M-0.03125 11.9077H52.1075V10.0781H-0.03125V11.9077Z" fill="#004B86"/>
</g>
<path fill-rule="evenodd" clip-rule="evenodd" d="M86.9482 11.8962H140.001V10.0859H86.9482V11.8962Z" fill="#004B86"/>
<path fill-rule="evenodd" clip-rule="evenodd" d="M58.2726 11.8975H55.1538L51.2256 0.320312H54.1056L56.1477 6.65023C56.3526 7.28429 56.5753 8.00441 56.7812 8.81326H56.8011C56.97 8.07432 57.1077 7.5064 57.4336 6.4948L59.4553 0.320312H62.1842L58.2726 11.8975Z" fill="#004B86"/>
<path fill-rule="evenodd" clip-rule="evenodd" d="M63.1787 11.8975H65.8543V0.320312H63.1787V11.8975Z" fill="#004B86"/>
<path fill-rule="evenodd" clip-rule="evenodd" d="M68.2197 11.8975V0.320312H74.7348V2.56671H70.8927V4.86473H74.5283V7.04551H70.8927V9.6006H74.7348V11.8975H68.2197Z" fill="#004B86"/>
<path fill-rule="evenodd" clip-rule="evenodd" d="M85.3487 11.8971L82.8968 8.17608C82.623 7.74853 82.3143 7.31829 82.0045 6.87191C83.5481 6.49437 84.5608 5.22516 84.5608 3.66393C84.5608 1.21102 82.9129 0.234375 80.1867 0.234375C78.7981 0.234375 77.546 0.251585 76.5693 0.319885V11.8971H79.2444V7.36991H79.3472L82.0916 11.8971H85.3487ZM81.7657 3.88658C81.7657 4.8643 81.0456 5.46449 79.9129 5.46449C79.6553 5.46449 79.3816 5.44728 79.2444 5.4306V2.4641C79.3993 2.44689 79.708 2.42968 79.9807 2.42968C81.2328 2.42968 81.7657 2.97877 81.7657 3.88658Z" fill="#004B86"/>
<path fill-rule="evenodd" clip-rule="evenodd" d="M36.1717 28.1834L32.1079 16.6094H29.073L25.1631 28.1834H27.8199L28.5255 26.0386H32.5199L33.2422 28.1834H36.1717ZM31.8508 23.9299H29.1763L29.9292 21.7518C30.1702 21.0495 30.3584 20.3299 30.4783 19.6958H30.5144C30.6322 20.381 30.8204 20.9629 31.0452 21.6141L31.8508 23.9299Z" fill="#004B86"/>
<path fill-rule="evenodd" clip-rule="evenodd" d="M37.1152 28.1834V16.6094H39.7903V25.8181H43.2888V28.1834H37.1152Z" fill="#004B86"/>
<mask id="mask1_5545_18595" style="mask-type:luminance" maskUnits="userSpaceOnUse" x="44" y="16" width="19" height="13">
<path d="M44.4893 16.4062H62.8197V28.3594H44.4893V16.4062Z" fill="white"/>
</mask>
<g mask="url(#mask1_5545_18595)">
<path fill-rule="evenodd" clip-rule="evenodd" d="M54.2298 22.1707C54.2298 18.0559 51.9155 16.5469 48.4337 16.5469C46.8724 16.5469 45.3988 16.5969 44.4883 16.6485V28.1736C45.5532 28.2241 46.7014 28.2774 47.9185 28.2774C51.6918 28.2774 54.2298 26.1337 54.2298 22.1707ZM51.3637 22.3756C51.3637 24.8441 49.9939 25.9783 48.1589 25.9783C47.7475 25.9783 47.3882 25.9417 47.1634 25.9121V18.8271C47.457 18.7922 47.8158 18.7922 48.2611 18.7922C50.664 18.7922 51.3637 20.1991 51.3637 22.3756Z" fill="#004B86"/>
</g>
<mask id="mask2_5545_18595" style="mask-type:luminance" maskUnits="userSpaceOnUse" x="44" y="16" width="19" height="13">
<path d="M44.4893 16.4062H62.8197V28.3594H44.4893V16.4062Z" fill="white"/>
</mask>
<g mask="url(#mask2_5545_18595)">
<path fill-rule="evenodd" clip-rule="evenodd" d="M58.0709 28.3917C57.2647 28.3917 56.4424 28.3067 55.7051 28.1341L55.8401 25.6661C56.493 25.9086 57.4363 26.0947 58.2764 26.0947C59.2536 26.0947 59.9565 25.6838 59.9565 24.8594C59.9565 22.8878 55.3447 23.9 55.3447 20.024C55.3447 17.8459 57.0415 16.4062 59.9398 16.4062C60.5578 16.4062 61.3301 16.4746 62.0508 16.6128L61.8953 18.9264C61.2462 18.7376 60.5228 18.6188 59.836 18.6188C58.7217 18.6188 58.207 19.0979 58.207 19.7492C58.207 21.5492 62.8193 20.8668 62.8193 24.484C62.8193 26.7293 61.0203 28.3917 58.0709 28.3917Z" fill="#004B86"/>
</g>
<path fill-rule="evenodd" clip-rule="evenodd" d="M68.5123 18.8891V28.1834H65.855V18.8891H63.0771V16.6094H71.2923V18.8891H68.5123Z" fill="#004B86"/>
<path fill-rule="evenodd" clip-rule="evenodd" d="M75.3722 14.4948C75.3722 13.758 74.7726 13.1406 74.0169 13.1406C73.2801 13.1406 72.6643 13.758 72.6643 14.4948C72.6643 15.2499 73.2801 15.8495 74.0169 15.8495C74.7726 15.8495 75.3722 15.2499 75.3722 14.4948ZM78.9568 14.4948C78.9568 13.758 78.3561 13.1406 77.601 13.1406C76.8641 13.1406 76.2473 13.758 76.2473 14.4948C76.2473 15.2499 76.8641 15.8495 77.601 15.8495C78.3561 15.8495 78.9568 15.2499 78.9568 14.4948ZM81.3915 28.1791L77.3283 16.6051H74.2934L70.3818 28.1791H73.0419L73.7437 26.0344H77.7386L78.4572 28.1791H81.3915ZM77.0696 23.9257H74.3956L75.1496 21.7476C75.39 21.0452 75.5793 20.3256 75.6976 19.6916H75.7331C75.8547 20.3767 76.0407 20.9586 76.2645 21.6099L77.0696 23.9257Z" fill="#004B86"/>
<path fill-rule="evenodd" clip-rule="evenodd" d="M85.7461 18.8891V28.1834H83.0871V18.8891H80.3125V16.6094H88.5255V18.8891H85.7461Z" fill="#004B86"/>
<path fill-rule="evenodd" clip-rule="evenodd" d="M94.4406 18.8891V28.1834H91.7827V18.8891H89.0049V16.6094H97.2184V18.8891H94.4406Z" fill="#004B86"/>
<path fill-rule="evenodd" clip-rule="evenodd" d="M98.3145 28.1834V16.6094H104.831V18.8542H100.991V21.1516H104.626V23.3297H100.991V25.8843H104.831V28.1834H98.3145Z" fill="#004B86"/>
<mask id="mask3_5545_18595" style="mask-type:luminance" maskUnits="userSpaceOnUse" x="106" y="16" width="18" height="13">
<path d="M106.667 16.4062H123.54V28.3594H106.667V16.4062Z" fill="white"/>
</mask>
<g mask="url(#mask3_5545_18595)">
<path fill-rule="evenodd" clip-rule="evenodd" d="M115.446 28.1846L112.993 24.4619C112.72 24.0333 112.41 23.6068 112.103 23.1599C113.647 22.7824 114.657 21.5142 114.657 19.9514C114.657 17.5001 113.011 16.5234 110.285 16.5234C108.895 16.5234 107.644 16.5412 106.667 16.6106V28.1846H109.342V23.6568H109.443L112.188 28.1846H115.446ZM111.862 20.1778C111.862 21.1528 111.142 21.753 110.012 21.753C109.755 21.753 109.48 21.7374 109.342 21.7197V18.7537C109.495 18.7354 109.806 18.7193 110.078 18.7193C111.332 18.7193 111.862 19.2684 111.862 20.1778Z" fill="#004B86"/>
</g>
<mask id="mask4_5545_18595" style="mask-type:luminance" maskUnits="userSpaceOnUse" x="106" y="16" width="18" height="13">
<path d="M106.667 16.4062H123.54V28.3594H106.667V16.4062Z" fill="white"/>
</mask>
<g mask="url(#mask4_5545_18595)">
<path fill-rule="evenodd" clip-rule="evenodd" d="M118.79 28.3917C117.985 28.3917 117.16 28.3067 116.424 28.1341L116.562 25.6661C117.211 25.9086 118.157 26.0947 118.995 26.0947C119.975 26.0947 120.677 25.6838 120.677 24.8594C120.677 22.8878 116.062 23.9 116.062 20.024C116.062 17.8459 117.761 16.4062 120.66 16.4062C121.278 16.4062 122.048 16.4746 122.769 16.6128L122.615 18.9264C121.96 18.7376 121.243 18.6188 120.555 18.6188C119.44 18.6188 118.927 19.0979 118.927 19.7492C118.927 21.5492 123.54 20.8668 123.54 24.484C123.54 26.7293 121.739 28.3917 118.79 28.3917Z" fill="#004B86"/>
</g>
<path fill-rule="evenodd" clip-rule="evenodd" d="M125.136 28.1834V16.6094H131.652V18.8542H127.81V21.1516H131.445V23.3297H127.81V25.8843H131.652V28.1834H125.136Z" fill="#004B86"/>
<path fill-rule="evenodd" clip-rule="evenodd" d="M133.487 28.1834V16.6094H140.001V18.8542H136.161V21.1516H139.797V23.3297H136.161V25.8843H140.001V28.1834H133.487Z" fill="#004B86"/>
<path fill-rule="evenodd" clip-rule="evenodd" d="M22.8458 28.1834H19.6049L18.2324 22.7295C18.0431 21.96 17.9065 21.05 17.8027 20.0889H17.786C17.7 20.9812 17.5634 21.8212 17.3563 22.6446L15.9687 28.1834H12.9172L10.0527 16.6094H12.8817L14.2359 22.2509C14.408 22.9882 14.5451 23.8471 14.6134 24.6689H14.6306C14.75 23.8627 14.871 23.0909 15.077 22.3187L16.5867 16.6094H19.3468L20.8564 22.2159C21.0264 22.8678 21.199 23.7256 21.3184 24.5995H21.3361C21.4561 23.7078 21.5921 22.9022 21.7648 22.1649L23.0679 16.6094H25.7436L22.8458 28.1834Z" fill="#004B86"/>
<mask id="mask5_5545_18595" style="mask-type:luminance" maskUnits="userSpaceOnUse" x="0" y="16" width="26" height="13">
<path d="M0.000976562 16.6094H25.7436V28.1834H0.000976562V16.6094Z" fill="white"/>
</mask>
<g mask="url(#mask5_5545_18595)">
<path fill-rule="evenodd" clip-rule="evenodd" d="M22.8458 28.1834H19.6049L18.2324 22.7295C18.0431 21.96 17.9065 21.05 17.8027 20.0889H17.786C17.7 20.9812 17.5634 21.8212 17.3563 22.6446L15.9687 28.1834H12.9172L10.0527 16.6094H12.8817L14.2359 22.2509C14.408 22.9882 14.5451 23.8471 14.6134 24.6689H14.6306C14.75 23.8627 14.871 23.0909 15.077 22.3187L16.5867 16.6094H19.3468L20.8564 22.2159C21.0264 22.8678 21.199 23.7256 21.3184 24.5995H21.3361C21.4561 23.7078 21.5921 22.9022 21.7648 22.1649L23.0679 16.6094H25.7436L22.8458 28.1834Z" fill="#004B86"/>
</g>
<mask id="mask6_5545_18595" style="mask-type:luminance" maskUnits="userSpaceOnUse" x="0" y="16" width="26" height="13">
<path d="M0.000976562 16.6094H25.7436V28.1834H0.000976562V16.6094Z" fill="white"/>
</mask>
<g mask="url(#mask6_5545_18595)">
<path fill-rule="evenodd" clip-rule="evenodd" d="M7.7343 16.6172L10.6213 28.153H-0.03125V16.6172H7.7343Z" fill="#FFFFFE"/>
</g>
<mask id="mask7_5545_18595" style="mask-type:luminance" maskUnits="userSpaceOnUse" x="0" y="16" width="26" height="13">
<path d="M0.000976562 16.6094H25.7436V28.1834H0.000976562V16.6094Z" fill="white"/>
</mask>
<g mask="url(#mask7_5545_18595)">
<path fill-rule="evenodd" clip-rule="evenodd" d="M-0.03125 16.6172H7.73806L8.8976 21.2364H6.955V18.5597H4.61442V21.2337H1.91242V23.5763H4.61442V26.2766H6.955V23.5763H9.47951L10.6213 28.1643H-0.03125V16.6172Z" fill="#DC3E37"/>
</g>
</svg>
