<svg width="73" height="17" viewBox="0 0 73 17" fill="none" xmlns="http://www.w3.org/2000/svg">
<path d="M1.506 3.44329H1.33889L1.32397 3.52396V15.863L1.2255 15.8809H0.30941H0.210938V15.7823V0.81415V0.596051L0.381026 0.578125H2.66379H2.81896L2.88759 0.72452C4.80332 4.50889 6.71905 8.29327 8.63478 12.0776L8.73624 12.2718H8.90931L8.95109 12.1882L14.0537 1.94946C14.2537 1.54314 14.4596 1.13383 14.6505 0.72452L14.7162 0.593063C14.8445 0.575137 17.1034 0.57215 17.2765 0.593063L17.2974 0.676718V15.6509V15.8511L17.2765 15.872H17.184H14.8236H14.7788L14.755 15.857V15.7764V3.37458H14.6535L14.5879 3.50006L11.774 9.08699C10.6699 11.2998 9.5638 13.5127 8.45574 15.7256L8.37518 15.8779C8.2021 15.8779 8.03201 15.8779 7.85297 15.8779L7.77241 15.7256L5.32851 10.9453C4.08119 8.49344 2.83587 6.04555 1.59253 3.60164L1.506 3.44329Z" fill="#002E5A"/>
<path d="M37.3562 8.09724C37.3631 10.5415 36.2501 12.8539 34.3363 14.3713C33.291 15.2048 32.0643 15.78 30.7555 16.0504C30.0052 16.2064 29.238 16.2646 28.4728 16.2237C27.1163 16.172 25.7921 15.7949 24.6114 15.1242C23.037 14.2451 21.8048 12.8598 21.1142 11.1925C20.8508 10.5736 20.6702 9.92264 20.5771 9.25645C20.2189 6.77526 21.0921 4.27512 22.9165 2.55811C24.0423 1.48334 25.446 0.745442 26.9688 0.427908C27.434 0.329915 27.9058 0.266009 28.3802 0.236698C28.8252 0.202351 29.2721 0.202351 29.7171 0.236698C31.7581 0.391486 33.6748 1.27834 35.1151 2.73438C36.1844 3.801 36.9116 5.16264 37.2039 6.64523C37.3049 7.12244 37.352 7.6095 37.3442 8.09724M26.005 8.26455L26.0647 8.29442C26.393 8.56349 26.7577 8.78477 27.1479 8.95171C27.7241 9.20808 28.3236 9.40818 28.9383 9.54924C29.4165 9.66093 29.9007 9.74572 30.3885 9.80319C30.7674 9.84502 31.1494 9.88983 31.5284 9.91672C31.9073 9.94361 32.3549 9.95258 32.7697 9.9705C33.1845 9.98843 33.6649 9.9705 34.1036 9.95556L34.202 9.93465L34.2199 9.86593C34.2831 9.4243 34.321 8.97941 34.3333 8.53344C34.3612 7.76783 34.3142 7.00134 34.1931 6.24489C34.1012 5.66653 33.9543 5.09829 33.7544 4.54789C33.53 3.91771 33.2045 3.32838 32.7906 2.8031C31.9591 1.73257 30.7029 1.07805 29.35 1.0105C28.9059 0.976666 28.4594 0.993613 28.0192 1.06129C27.5889 1.12589 27.1693 1.2485 26.7719 1.42579C25.9473 1.80465 25.2476 2.41091 24.7547 3.17357C24.4197 3.69119 24.1567 4.25204 23.9729 4.84069C23.6938 5.74256 23.5392 6.67839 23.5133 7.6222C23.4769 8.47147 23.5259 9.32225 23.6596 10.1617C23.7492 10.7196 23.888 11.2685 24.0743 11.8019C24.2958 12.4469 24.6192 13.0521 25.0322 13.5945C25.5276 14.2681 26.1943 14.7963 26.9628 15.1242C27.4041 15.3079 27.8712 15.4218 28.3474 15.4618C28.8829 15.5142 29.423 15.493 29.9528 15.3991C31.1089 15.1758 32.1365 14.5198 32.8264 13.5647L32.8622 13.487L32.6026 13.4631C32.3609 13.4631 32.1192 13.4392 31.8745 13.4183C31.3822 13.3734 30.8868 13.3197 30.4004 13.245C29.7764 13.1493 29.1586 13.0166 28.5503 12.8476C27.9138 12.6746 27.2969 12.4363 26.7092 12.1366C26.1844 11.8766 25.7057 11.5324 25.2918 11.1178C24.695 10.5179 24.332 9.72427 24.2683 8.88C24.2358 8.43904 24.2711 7.99571 24.3727 7.56543C24.496 7.02995 24.6833 6.51132 24.9307 6.02081C25.4462 5.02223 26.0826 4.09103 26.8256 3.24826L26.8644 3.21241L26.7928 3.34685C26.4942 3.72676 26.2211 4.12598 25.9751 4.54192C25.6093 5.15046 25.3272 5.8057 25.1366 6.48987C24.943 7.18616 24.9063 7.91682 25.0292 8.62904C25.1067 9.09586 25.3041 9.53448 25.6021 9.90179L25.9005 10.2334C26.1179 10.4486 26.3592 10.638 26.6197 10.7981C26.9912 11.037 27.3861 11.2372 27.7984 11.3956C28.8291 11.7735 29.9025 12.0224 30.9942 12.1366C31.3553 12.1814 31.7134 12.2083 32.0744 12.2381C32.534 12.283 32.9935 12.2949 33.4531 12.3039L33.5545 12.2889C33.7464 11.8679 33.8982 11.4298 34.0081 10.9803L34.029 10.7891L33.9096 10.7742C33.5277 10.7742 33.1457 10.7443 32.7637 10.7055C32.4385 10.6696 32.1043 10.6427 31.779 10.5979C31.3374 10.5382 30.8987 10.4665 30.4631 10.3918C29.8456 10.2833 29.2356 10.1356 28.6369 9.94959C28.1412 9.80004 27.6622 9.59981 27.2075 9.35205C26.9711 9.22227 26.7481 9.06913 26.5421 8.89494C26.3346 8.7104 26.1583 8.49349 26.0199 8.2526L26.005 8.26455Z" fill="#002E5A"/>
<path d="M49.4528 7.97982L49.6289 8.01567C50.1643 8.11293 50.6809 8.29444 51.1597 8.55345C51.8534 8.92184 52.4031 9.51327 52.7203 10.2325C52.8618 10.5541 52.9524 10.8958 52.9889 11.2453C53.0247 11.554 53.0247 11.8658 52.9889 12.1745C52.9251 12.7648 52.7125 13.3292 52.3712 13.8147C52.0184 14.3292 51.553 14.7563 51.0105 15.0636C50.442 15.3936 49.8213 15.624 49.1753 15.7448C48.6977 15.8386 48.2118 15.8837 47.7251 15.8792H40.7395H40.5635V15.7836V15.676C40.5635 10.7145 40.5635 5.75301 40.5635 0.791501V0.594315L40.659 0.579377H46.4539C46.8622 0.573477 47.2706 0.588435 47.6773 0.624192C48.5449 0.700289 49.3912 0.934165 50.175 1.31434C50.599 1.52093 50.9846 1.79883 51.3148 2.13595C51.7069 2.52414 51.9908 3.00821 52.1384 3.54015C52.201 3.78122 52.2341 4.02903 52.2369 4.2781C52.2443 4.63028 52.2112 4.98214 52.1384 5.32677C52.0262 5.82413 51.7795 6.28099 51.4252 6.64732C51.1854 6.89041 50.9192 7.10587 50.6315 7.28967C50.2906 7.5098 49.9369 7.70933 49.5722 7.8872L49.4528 7.98878M43.1148 8.42498V14.6632V14.7618H45.7735C46.0719 14.7618 46.3703 14.7618 46.6867 14.7319C47.1248 14.6998 47.5587 14.6238 47.9817 14.5049C48.3717 14.398 48.7438 14.2339 49.0858 14.0179C49.5548 13.7241 49.9087 13.2779 50.0884 12.7541C50.1737 12.5201 50.221 12.274 50.2287 12.0251C50.2376 11.8499 50.2376 11.6744 50.2287 11.4993C50.2115 11.1031 50.1257 10.7128 49.975 10.346C49.7463 9.81939 49.3566 9.37899 48.862 9.08824C48.515 8.88201 48.1416 8.7242 47.7519 8.61918C47.2017 8.47382 46.635 8.40051 46.066 8.40107C45.129 8.40107 44.192 8.40107 43.258 8.40107L43.1148 8.42498ZM43.1327 7.47191H46.3704C46.5777 7.47438 46.7851 7.4634 46.991 7.43905C47.4323 7.38396 47.8583 7.24179 48.2443 7.02078C48.8311 6.70163 49.2701 6.16558 49.4677 5.52695C49.6414 4.98123 49.661 4.39808 49.5244 3.8419C49.3965 3.26981 49.0631 2.76475 48.5875 2.42276C48.3125 2.22511 48.0112 2.0672 47.6923 1.9537C47.0857 1.74124 46.4489 1.62824 45.8064 1.61908C44.9619 1.60116 44.1115 1.61908 43.264 1.60116H43.1446L43.1267 1.64896V7.38826L43.1327 7.47191Z" fill="#002E5A"/>
<path d="M72.0982 0.5625H56.1904V15.8444H72.0982V0.5625Z" fill="#BF252B"/>
<path d="M65.6467 6.48825V2.76562H62.6448V6.48825H58.9268V9.49384H62.6448V13.2165H65.6467V9.49384H69.3648V6.48825H65.6467Z" fill="white"/>
</svg>
