<svg width="116" height="61" viewBox="0 0 116 61" fill="none" xmlns="http://www.w3.org/2000/svg">
<path d="M115.164 0.3125H0.836914V60.0346H115.164V0.3125Z" fill="white"/>
<path d="M23.506 25.4433H23.3389L23.324 25.524V37.863L23.2255 37.8809H22.3094H22.2109V37.7823V22.8142V22.5961L22.381 22.5781H24.6638H24.819L24.8876 22.7245C26.8033 26.5089 28.7191 30.2933 30.6348 34.0776L30.7362 34.2718H30.9093L30.9511 34.1882L36.0537 23.9495C36.2537 23.5431 36.4596 23.1338 36.6505 22.7245L36.7162 22.5931C36.8445 22.5751 39.1034 22.5721 39.2765 22.5931L39.2974 22.6767V37.6509V37.8511L39.2765 37.872H39.184H36.8236H36.7788L36.755 37.857V37.7764V25.3746H36.6535L36.5879 25.5001L33.774 31.087C32.6699 33.2998 31.5638 35.5127 30.4557 37.7256L30.3752 37.8779C30.2021 37.8779 30.032 37.8779 29.853 37.8779L29.7724 37.7256L27.3285 32.9453C26.0812 30.4934 24.8359 28.0455 23.5925 25.6016L23.506 25.4433Z" fill="#002E5A"/>
<path d="M59.3562 30.0972C59.3631 32.5415 58.2501 34.8539 56.3363 36.3713C55.291 37.2048 54.0643 37.78 52.7555 38.0504C52.0052 38.2064 51.238 38.2646 50.4728 38.2237C49.1163 38.172 47.7921 37.7949 46.6114 37.1242C45.037 36.2451 43.8048 34.8598 43.1142 33.1925C42.8508 32.5736 42.6702 31.9226 42.5771 31.2564C42.2189 28.7753 43.0921 26.2751 44.9165 24.5581C46.0423 23.4833 47.446 22.7454 48.9688 22.4279C49.434 22.3299 49.9058 22.266 50.3802 22.2367C50.8252 22.2024 51.2721 22.2024 51.7171 22.2367C53.7581 22.3915 55.6748 23.2783 57.1151 24.7344C58.1844 25.801 58.9116 27.1626 59.2039 28.6452C59.3049 29.1224 59.352 29.6095 59.3442 30.0972M48.005 30.2645L48.0647 30.2944C48.393 30.5635 48.7577 30.7848 49.1479 30.9517C49.7241 31.2081 50.3236 31.4082 50.9383 31.5492C51.4165 31.6609 51.9007 31.7457 52.3885 31.8032C52.7674 31.845 53.1494 31.8898 53.5284 31.9167C53.9073 31.9436 54.3549 31.9526 54.7697 31.9705C55.1845 31.9884 55.6649 31.9705 56.1036 31.9556L56.202 31.9346L56.2199 31.8659C56.2831 31.4243 56.321 30.9794 56.3333 30.5334C56.3612 29.7678 56.3142 29.0013 56.1931 28.2449C56.1012 27.6665 55.9543 27.0983 55.7544 26.5479C55.53 25.9177 55.2045 25.3284 54.7906 24.8031C53.9591 23.7326 52.7029 23.0781 51.35 23.0105C50.9059 22.9767 50.4594 22.9936 50.0192 23.0613C49.5889 23.1259 49.1693 23.2485 48.7719 23.4258C47.9473 23.8047 47.2476 24.4109 46.7547 25.1736C46.4197 25.6912 46.1567 26.252 45.9729 26.8407C45.6938 27.7426 45.5392 28.6784 45.5133 29.6222C45.4769 30.4715 45.5259 31.3223 45.6596 32.1617C45.7492 32.7196 45.888 33.2685 46.0743 33.8019C46.2958 34.4469 46.6192 35.0521 47.0322 35.5945C47.5276 36.2681 48.1943 36.7963 48.9628 37.1242C49.4041 37.3079 49.8712 37.4218 50.3474 37.4618C50.8829 37.5142 51.423 37.493 51.9528 37.3991C53.1089 37.1758 54.1365 36.5198 54.8264 35.5647L54.8622 35.487L54.6026 35.4631C54.3609 35.4631 54.1192 35.4392 53.8745 35.4183C53.3822 35.3734 52.8868 35.3197 52.4004 35.245C51.7764 35.1493 51.1586 35.0166 50.5503 34.8476C49.9138 34.6746 49.2969 34.4363 48.7092 34.1366C48.1844 33.8766 47.7057 33.5324 47.2918 33.1178C46.695 32.5179 46.332 31.7243 46.2683 30.88C46.2358 30.439 46.2711 29.9957 46.3727 29.5654C46.496 29.03 46.6833 28.5113 46.9307 28.0208C47.4462 27.0222 48.0826 26.091 48.8256 25.2483L48.8644 25.2124L48.7928 25.3469C48.4942 25.7268 48.2211 26.126 47.9751 26.5419C47.6093 27.1505 47.3272 27.8057 47.1366 28.4899C46.943 29.1862 46.9063 29.9168 47.0292 30.629C47.1067 31.0959 47.3041 31.5345 47.6021 31.9018L47.9005 32.2334C48.1179 32.4486 48.3592 32.638 48.6197 32.7981C48.9912 33.037 49.3861 33.2372 49.7984 33.3956C50.8291 33.7735 51.9025 34.0224 52.9942 34.1366C53.3553 34.1814 53.7134 34.2083 54.0744 34.2381C54.534 34.283 54.9935 34.2949 55.4531 34.3039L55.5545 34.2889C55.7464 33.8679 55.8982 33.4298 56.0081 32.9803L56.029 32.7891L55.9096 32.7742C55.5277 32.7742 55.1457 32.7443 54.7637 32.7055C54.4385 32.6696 54.1043 32.6427 53.779 32.5979C53.3374 32.5382 52.8987 32.4665 52.4631 32.3918C51.8456 32.2833 51.2356 32.1356 50.6369 31.9496C50.1412 31.8 49.6622 31.5998 49.2075 31.3521C48.9711 31.2223 48.7481 31.0691 48.5421 30.8949C48.3346 30.7104 48.1583 30.4935 48.0199 30.2526L48.005 30.2645Z" fill="#002E5A"/>
<path d="M71.4528 29.9798L71.6289 30.0157C72.1643 30.1129 72.6809 30.2944 73.1597 30.5534C73.8534 30.9218 74.4031 31.5133 74.7203 32.2325C74.8618 32.5541 74.9524 32.8958 74.9889 33.2453C75.0247 33.554 75.0247 33.8658 74.9889 34.1745C74.9251 34.7648 74.7125 35.3292 74.3712 35.8147C74.0184 36.3292 73.553 36.7563 73.0105 37.0636C72.442 37.3936 71.8213 37.624 71.1753 37.7448C70.6977 37.8386 70.2118 37.8837 69.7251 37.8792H62.7395H62.5635V37.7836V37.676C62.5635 32.7145 62.5635 27.753 62.5635 22.7915V22.5943L62.659 22.5794H68.4539C68.8622 22.5735 69.2706 22.5884 69.6773 22.6242C70.5449 22.7003 71.3912 22.9342 72.175 23.3143C72.599 23.5209 72.9846 23.7988 73.3148 24.1359C73.7069 24.5241 73.9908 25.0082 74.1384 25.5402C74.201 25.7812 74.2341 26.029 74.2369 26.2781C74.2443 26.6303 74.2112 26.9821 74.1384 27.3268C74.0262 27.8241 73.7795 28.281 73.4252 28.6473C73.1854 28.8904 72.9192 29.1059 72.6315 29.2897C72.2906 29.5098 71.9369 29.7093 71.5722 29.8872L71.4528 29.9888M65.1148 30.425V36.6632V36.7618H67.7735C68.0719 36.7618 68.3703 36.7618 68.6867 36.7319C69.1248 36.6998 69.5587 36.6238 69.9817 36.5049C70.3717 36.398 70.7438 36.2339 71.0858 36.0179C71.5548 35.7241 71.9087 35.2779 72.0884 34.7541C72.1737 34.5201 72.221 34.274 72.2287 34.0251C72.2376 33.8499 72.2376 33.6744 72.2287 33.4993C72.2115 33.1031 72.1257 32.7128 71.975 32.346C71.7463 31.8194 71.3566 31.379 70.862 31.0882C70.515 30.882 70.1416 30.7242 69.7519 30.6192C69.2017 30.4738 68.635 30.4005 68.066 30.4011C67.129 30.4011 66.192 30.4011 65.258 30.4011L65.1148 30.425ZM65.1327 29.4719H68.3704C68.5777 29.4744 68.7851 29.4634 68.991 29.439C69.4323 29.384 69.8583 29.2418 70.2443 29.0208C70.8311 28.7016 71.2701 28.1656 71.4677 27.5269C71.6414 26.9812 71.661 26.3981 71.5244 25.8419C71.3965 25.2698 71.0631 24.7648 70.5875 24.4228C70.3125 24.2251 70.0112 24.0672 69.6923 23.9537C69.0857 23.7412 68.4489 23.6282 67.8064 23.6191C66.9619 23.6012 66.1115 23.6191 65.264 23.6012H65.1446L65.1267 23.649V29.3883L65.1327 29.4719Z" fill="#002E5A"/>
<path d="M94.0982 22.5625H78.1904V37.8444H94.0982V22.5625Z" fill="#BF252B"/>
<path d="M87.6467 28.4883V24.7656H84.6448V28.4883H80.9268V31.4938H84.6448V35.2165H87.6467V31.4938H91.3648V28.4883H87.6467Z" fill="white"/>
</svg>
