<svg width="115" height="14" viewBox="0 0 115 14" fill="none" xmlns="http://www.w3.org/2000/svg">
<path d="M1.04814 10.6128C1.01254 10.5297 0.994743 10.4467 0.994743 10.3636C0.994743 10.2806 1.03627 10.2094 1.11933 10.15C1.20239 10.0907 1.38038 10.0314 1.6533 9.97204C1.92621 9.90085 2.19319 9.84152 2.45424 9.79406C2.71529 9.74659 2.94074 9.72286 3.13059 9.72286C3.22551 9.72286 3.29078 9.77033 3.32637 9.86525C3.46876 10.1619 3.62895 10.4111 3.80694 10.6128C3.99679 10.8145 4.19851 10.9806 4.4121 11.1112C4.63755 11.2298 4.86893 11.3188 5.10625 11.3781C5.34356 11.4256 5.58088 11.4493 5.81819 11.4493C6.35216 11.4493 6.80899 11.3247 7.1887 11.0756C7.58027 10.8264 7.77605 10.4229 7.77605 9.86525C7.77605 9.39062 7.60993 9.02871 7.27769 8.77953C6.95731 8.51848 6.55387 8.3049 6.06738 8.13878C5.59274 7.97266 5.07065 7.8184 4.50109 7.67601C3.93153 7.53362 3.4035 7.34377 2.917 7.10645C2.44237 6.85727 2.03893 6.53096 1.70669 6.12752C1.38631 5.71222 1.22613 5.15453 1.22613 4.45444C1.22613 3.88488 1.33885 3.38059 1.5643 2.94155C1.80162 2.50252 2.12199 2.13468 2.52543 1.83803C2.92887 1.52952 3.39757 1.29814 3.93153 1.14388C4.47736 0.989627 5.06472 0.9125 5.6936 0.9125C6.72593 0.9125 7.6396 1.13202 8.43461 1.57105C9.22961 1.99822 9.80511 2.64491 10.1611 3.51111C10.1967 3.60604 10.2145 3.68317 10.2145 3.74249C10.2145 3.82556 10.1611 3.89675 10.0543 3.95608C9.95936 4.00354 9.77544 4.05694 9.50253 4.11627C9.22961 4.1756 8.96263 4.22899 8.70159 4.27646C8.4524 4.32392 8.23882 4.34765 8.06083 4.34765C7.94217 4.34765 7.85911 4.28239 7.81165 4.15187C7.56247 3.64164 7.23616 3.29159 6.83272 3.10174C6.42928 2.90002 6.00211 2.79916 5.55121 2.79916C5.05285 2.79916 4.62568 2.92375 4.26971 3.17294C3.91373 3.42212 3.73574 3.79589 3.73574 4.29426C3.73574 4.6265 3.83067 4.90534 4.02052 5.13079C4.21038 5.34438 4.45363 5.5283 4.75027 5.68255C5.05878 5.83681 5.40882 5.96733 5.8004 6.07413C6.19197 6.18092 6.58947 6.29364 6.99291 6.4123C7.40821 6.53096 7.81165 6.66742 8.20322 6.82167C8.60666 6.97593 8.9567 7.17171 9.25335 7.40903C9.56186 7.64635 9.81104 7.93706 10.0009 8.28117C10.1907 8.62528 10.2857 9.04651 10.2857 9.54488C10.2857 10.1263 10.167 10.6425 9.9297 11.0934C9.69238 11.5324 9.36607 11.9002 8.95077 12.1969C8.54733 12.4935 8.06677 12.719 7.50907 12.8732C6.96324 13.0156 6.36995 13.0868 5.7292 13.0868C5.20711 13.0868 4.70874 13.0334 4.23411 12.9266C3.75948 12.8198 3.31451 12.6656 2.89921 12.4639C2.49577 12.2621 2.13386 12.007 1.81348 11.6985C1.49311 11.39 1.23799 11.0281 1.04814 10.6128ZM16.2702 11.129H16.3414L17.9077 3.24413L18.1747 1.25068C18.2103 1.07269 18.3349 0.983694 18.5484 0.983694H20.8267C21.064 0.983694 21.2005 1.07269 21.2361 1.25068L21.5208 3.24413L23.1049 11.129H23.1761L24.867 3.20853L25.1874 1.23288C25.223 1.05489 25.3357 0.965895 25.5255 0.965895C25.6323 0.965895 25.751 0.965895 25.8815 0.965895C26.0239 0.965895 26.2019 0.977761 26.4155 1.00149L27.3232 1.03709C27.5961 1.07269 27.7326 1.16761 27.7326 1.32187C27.7326 1.35747 27.7266 1.399 27.7148 1.44646C27.7029 1.48206 27.6851 1.53545 27.6614 1.60665L27.2342 3.13734L25.1696 11.3959C25.1102 11.6807 25.0568 11.918 25.0094 12.1079C24.9738 12.2859 24.9441 12.4342 24.9204 12.5529C24.8967 12.6597 24.867 12.7427 24.8314 12.802C24.8077 12.8495 24.778 12.891 24.7424 12.9266C24.6831 12.9741 24.6178 13.0038 24.5466 13.0156C24.4754 13.0156 24.3746 13.0156 24.244 13.0156H22.0548C21.8531 13.0156 21.7166 12.986 21.6454 12.9266C21.6098 12.891 21.5802 12.8495 21.5564 12.802C21.5327 12.7427 21.503 12.6597 21.4674 12.5529C21.4437 12.4461 21.414 12.3037 21.3784 12.1257C21.3547 11.9358 21.325 11.6926 21.2894 11.3959L19.7054 3.77809H19.6342L18.0501 11.3959C18.0145 11.6926 17.9789 11.9358 17.9433 12.1257C17.9196 12.3037 17.8958 12.452 17.8721 12.5707C17.8484 12.6774 17.8187 12.7546 17.7831 12.802C17.7594 12.8495 17.7297 12.891 17.6941 12.9266C17.6348 12.9741 17.5695 13.0038 17.4983 13.0156C17.4271 13.0156 17.3263 13.0156 17.1957 13.0156H15.0065C14.8048 13.0156 14.6683 12.986 14.5971 12.9266C14.5615 12.891 14.5319 12.8495 14.5081 12.802C14.4844 12.7427 14.4547 12.6597 14.4191 12.5529C14.3954 12.4461 14.3598 12.3037 14.3124 12.1257C14.2768 11.9358 14.2293 11.6926 14.17 11.3959L12.1053 3.13734L11.6959 1.60665C11.6722 1.53545 11.6485 1.48206 11.6247 1.44646C11.6129 1.399 11.6069 1.35747 11.6069 1.32187C11.6069 1.16761 11.7434 1.07269 12.0163 1.03709L12.9596 1.00149C13.1732 0.977761 13.3453 0.965895 13.4758 0.965895C13.6182 0.965895 13.7428 0.965895 13.8496 0.965895C14.0632 0.965895 14.1878 1.05489 14.2234 1.23288L14.5437 3.20853L16.2702 11.129ZM32.0823 12.8554C32.0823 12.891 32.0645 12.9207 32.0289 12.9444C32.0052 12.9563 31.9458 12.9682 31.8509 12.98C31.7678 12.9919 31.6432 13.0038 31.4771 13.0156C31.311 13.0156 31.0856 13.0156 30.8008 13.0156C30.5279 13.0156 30.3083 13.0156 30.1422 13.0156C29.9761 13.0038 29.8456 12.9919 29.7506 12.98C29.6676 12.9682 29.6083 12.9563 29.5727 12.9444C29.5489 12.9207 29.5371 12.891 29.5371 12.8554L29.6083 10.7552V2.12281L29.5371 1.14388C29.5371 1.12015 29.5489 1.09642 29.5727 1.07269C29.6083 1.04896 29.6676 1.03116 29.7506 1.01929C29.8456 1.00743 29.9761 1.00149 30.1422 1.00149C30.3083 0.989627 30.5279 0.983694 30.8008 0.983694C31.0856 0.983694 31.311 0.989627 31.4771 1.00149C31.6432 1.00149 31.7678 1.00743 31.8509 1.01929C31.9458 1.03116 32.0052 1.04896 32.0289 1.07269C32.0645 1.09642 32.0823 1.12015 32.0823 1.14388L32.0111 2.12281V10.7552L32.0823 12.8554ZM34.329 10.6128C34.2934 10.5297 34.2756 10.4467 34.2756 10.3636C34.2756 10.2806 34.3171 10.2094 34.4001 10.15C34.4832 10.0907 34.6612 10.0314 34.9341 9.97204C35.207 9.90085 35.474 9.84152 35.735 9.79406C35.9961 9.74659 36.2215 9.72286 36.4114 9.72286C36.5063 9.72286 36.5716 9.77033 36.6072 9.86525C36.7496 10.1619 36.9098 10.4111 37.0878 10.6128C37.2776 10.8145 37.4793 10.9806 37.6929 11.1112C37.9184 11.2298 38.1497 11.3188 38.3871 11.3781C38.6244 11.4256 38.8617 11.4493 39.099 11.4493C39.633 11.4493 40.0898 11.3247 40.4695 11.0756C40.8611 10.8264 41.0569 10.4229 41.0569 9.86525C41.0569 9.39062 40.8907 9.02871 40.5585 8.77953C40.2381 8.51848 39.8347 8.3049 39.3482 8.13878C38.8736 7.97266 38.3515 7.8184 37.7819 7.67601C37.2123 7.53362 36.6843 7.34377 36.1978 7.10645C35.7232 6.85727 35.3197 6.53096 34.9875 6.12752C34.6671 5.71222 34.5069 5.15453 34.5069 4.45444C34.5069 3.88488 34.6197 3.38059 34.8451 2.94155C35.0824 2.50252 35.4028 2.13468 35.8062 1.83803C36.2097 1.52952 36.6784 1.29814 37.2123 1.14388C37.7582 0.989627 38.3455 0.9125 38.9744 0.9125C40.0067 0.9125 40.9204 1.13202 41.7154 1.57105C42.5104 1.99822 43.0859 2.64491 43.4419 3.51111C43.4775 3.60604 43.4953 3.68317 43.4953 3.74249C43.4953 3.82556 43.4419 3.89675 43.3351 3.95608C43.2402 4.00354 43.0563 4.05694 42.7833 4.11627C42.5104 4.1756 42.2434 4.22899 41.9824 4.27646C41.7332 4.32392 41.5196 4.34765 41.3416 4.34765C41.223 4.34765 41.1399 4.28239 41.0925 4.15187C40.8433 3.64164 40.517 3.29159 40.1135 3.10174C39.7101 2.90002 39.2829 2.79916 38.832 2.79916C38.3337 2.79916 37.9065 2.92375 37.5505 3.17294C37.1945 3.42212 37.0166 3.79589 37.0166 4.29426C37.0166 4.6265 37.1115 4.90534 37.3013 5.13079C37.4912 5.34438 37.7344 5.5283 38.0311 5.68255C38.3396 5.83681 38.6896 5.96733 39.0812 6.07413C39.4728 6.18092 39.8703 6.29364 40.2737 6.4123C40.689 6.53096 41.0925 6.66742 41.484 6.82167C41.8875 6.97593 42.2375 7.17171 42.5342 7.40903C42.8427 7.64635 43.0919 7.93706 43.2817 8.28117C43.4716 8.62528 43.5665 9.04651 43.5665 9.54488C43.5665 10.1263 43.4478 10.6425 43.2105 11.0934C42.9732 11.5324 42.6469 11.9002 42.2316 12.1969C41.8281 12.4935 41.3476 12.719 40.7899 12.8732C40.2441 13.0156 39.6508 13.0868 39.01 13.0868C38.4879 13.0868 37.9896 13.0334 37.5149 12.9266C37.0403 12.8198 36.5953 12.6656 36.18 12.4639C35.7766 12.2621 35.4147 12.007 35.0943 11.6985C34.7739 11.39 34.5188 11.0281 34.329 10.6128ZM45.4573 10.6128C45.4217 10.5297 45.4039 10.4467 45.4039 10.3636C45.4039 10.2806 45.4455 10.2094 45.5285 10.15C45.6116 10.0907 45.7896 10.0314 46.0625 9.97204C46.3354 9.90085 46.6024 9.84152 46.8634 9.79406C47.1245 9.74659 47.3499 9.72286 47.5398 9.72286C47.6347 9.72286 47.7 9.77033 47.7356 9.86525C47.8779 10.1619 48.0381 10.4111 48.2161 10.6128C48.406 10.8145 48.6077 10.9806 48.8213 11.1112C49.0467 11.2298 49.2781 11.3188 49.5154 11.3781C49.7527 11.4256 49.9901 11.4493 50.2274 11.4493C50.7613 11.4493 51.2182 11.3247 51.5979 11.0756C51.9894 10.8264 52.1852 10.4229 52.1852 9.86525C52.1852 9.39062 52.0191 9.02871 51.6869 8.77953C51.3665 8.51848 50.9631 8.3049 50.4766 8.13878C50.0019 7.97266 49.4798 7.8184 48.9103 7.67601C48.3407 7.53362 47.8127 7.34377 47.3262 7.10645C46.8516 6.85727 46.4481 6.53096 46.1159 6.12752C45.7955 5.71222 45.6353 5.15453 45.6353 4.45444C45.6353 3.88488 45.748 3.38059 45.9735 2.94155C46.2108 2.50252 46.5312 2.13468 46.9346 1.83803C47.338 1.52952 47.8067 1.29814 48.3407 1.14388C48.8865 0.989627 49.4739 0.9125 50.1028 0.9125C51.1351 0.9125 52.0488 1.13202 52.8438 1.57105C53.6388 1.99822 54.2143 2.64491 54.5703 3.51111C54.6059 3.60604 54.6237 3.68317 54.6237 3.74249C54.6237 3.82556 54.5703 3.89675 54.4635 3.95608C54.3685 4.00354 54.1846 4.05694 53.9117 4.11627C53.6388 4.1756 53.3718 4.22899 53.1108 4.27646C52.8616 4.32392 52.648 4.34765 52.47 4.34765C52.3514 4.34765 52.2683 4.28239 52.2208 4.15187C51.9716 3.64164 51.6453 3.29159 51.2419 3.10174C50.8385 2.90002 50.4113 2.79916 49.9604 2.79916C49.462 2.79916 49.0349 2.92375 48.6789 3.17294C48.3229 3.42212 48.1449 3.79589 48.1449 4.29426C48.1449 4.6265 48.2399 4.90534 48.4297 5.13079C48.6196 5.34438 48.8628 5.5283 49.1595 5.68255C49.468 5.83681 49.818 5.96733 50.2096 6.07413C50.6011 6.18092 50.9987 6.29364 51.4021 6.4123C51.8174 6.53096 52.2208 6.66742 52.6124 6.82167C53.0158 6.97593 53.3659 7.17171 53.6625 7.40903C53.971 7.64635 54.2202 7.93706 54.4101 8.28117C54.5999 8.62528 54.6949 9.04651 54.6949 9.54488C54.6949 10.1263 54.5762 10.6425 54.3389 11.0934C54.1016 11.5324 53.7753 11.9002 53.3599 12.1969C52.9565 12.4935 52.4759 12.719 51.9183 12.8732C51.3724 13.0156 50.7791 13.0868 50.1384 13.0868C49.6163 13.0868 49.1179 13.0334 48.6433 12.9266C48.1687 12.8198 47.7237 12.6656 47.3084 12.4639C46.9049 12.2621 46.543 12.007 46.2227 11.6985C45.9023 11.39 45.6472 11.0281 45.4573 10.6128Z" fill="#D12026"/>
<path d="M56.2475 5.64696C56.1882 5.64696 56.1467 5.57576 56.1229 5.43337C56.1111 5.27912 56.1051 5.10113 56.1051 4.89941C56.1051 4.68583 56.1111 4.50784 56.1229 4.36545C56.1467 4.22306 56.1882 4.15187 56.2475 4.15187H57.3332V3.52891L57.262 2.17621C57.262 2.14061 57.2739 2.11688 57.2976 2.10501C57.3214 2.08128 57.3748 2.06348 57.4578 2.05162C57.5409 2.03975 57.6595 2.03382 57.8138 2.03382C57.9799 2.02195 58.1994 2.01602 58.4724 2.01602C58.7571 2.01602 58.9766 2.02195 59.1309 2.03382C59.297 2.03382 59.4216 2.03975 59.5047 2.05162C59.5877 2.06348 59.6411 2.08128 59.6649 2.10501C59.6886 2.11688 59.7005 2.14061 59.7005 2.17621L59.6293 3.52891V4.15187H61.8007C61.86 4.15187 61.8956 4.22899 61.9075 4.38325C61.9194 4.52564 61.9253 4.69769 61.9253 4.89941C61.9253 5.10113 61.9194 5.27912 61.9075 5.43337C61.8956 5.57576 61.86 5.64696 61.8007 5.64696H59.6293V10.3814C59.6293 10.5475 59.6411 10.7077 59.6649 10.862C59.6886 11.0162 59.7301 11.1527 59.7895 11.2714C59.8607 11.3781 59.9556 11.4671 60.0742 11.5383C60.1929 11.5977 60.3471 11.6273 60.537 11.6273C60.6794 11.6273 60.8099 11.6095 60.9286 11.5739C61.0591 11.5383 61.2074 11.4731 61.3735 11.3781C61.4447 11.3425 61.4981 11.3247 61.5337 11.3247C61.5931 11.3247 61.6405 11.3722 61.6761 11.4671C61.7117 11.5502 61.7473 11.6985 61.7829 11.9121C61.8185 12.0901 61.8422 12.2206 61.8541 12.3037C61.8778 12.3867 61.8897 12.4579 61.8897 12.5173C61.8897 12.5885 61.86 12.6359 61.8007 12.6597C61.5159 12.7902 61.2074 12.891 60.8752 12.9622C60.5548 13.0334 60.1929 13.069 59.7895 13.069C59.03 13.069 58.4308 12.897 57.9918 12.5529C57.5528 12.1969 57.3332 11.6155 57.3332 10.8086V5.64696H56.2475ZM67.3763 5.77155C66.7355 5.77155 66.255 6.02666 65.9346 6.53689C65.6261 7.04712 65.4718 7.77687 65.4718 8.72613C65.4718 9.66353 65.6261 10.3933 65.9346 10.9154C66.255 11.4256 66.7355 11.6807 67.3763 11.6807C68.0289 11.6807 68.5095 11.4256 68.818 10.9154C69.1384 10.3933 69.2986 9.66353 69.2986 8.72613C69.2986 7.77687 69.1384 7.04712 68.818 6.53689C68.5095 6.02666 68.0289 5.77155 67.3763 5.77155ZM67.3763 4.08067C68.112 4.08067 68.7468 4.19933 69.2808 4.43664C69.8266 4.67396 70.2716 5.00027 70.6157 5.41557C70.9716 5.81901 71.2327 6.29364 71.3988 6.83947C71.5768 7.3853 71.6658 7.96672 71.6658 8.58375C71.6658 9.20077 71.5768 9.78219 71.3988 10.328C71.2327 10.8738 70.9716 11.3544 70.6157 11.7697C70.2716 12.1732 69.8266 12.4935 69.2808 12.7308C68.7468 12.9682 68.112 13.0868 67.3763 13.0868C66.6406 13.0868 66.0058 12.9682 65.4718 12.7308C64.9379 12.4935 64.4929 12.1732 64.1369 11.7697C63.7928 11.3544 63.5318 10.8738 63.3538 10.328C63.1877 9.78219 63.1046 9.20077 63.1046 8.58375C63.1046 7.96672 63.1877 7.3853 63.3538 6.83947C63.5318 6.29364 63.7928 5.81901 64.1369 5.41557C64.4929 5.00027 64.9379 4.67396 65.4718 4.43664C66.0058 4.19933 66.6406 4.08067 67.3763 4.08067ZM73.6313 4.31205C73.6313 4.27646 73.6432 4.25272 73.6669 4.24086C73.6906 4.21713 73.744 4.19933 73.8271 4.18746C73.9101 4.1756 74.0347 4.16966 74.2009 4.16966C74.367 4.1578 74.5865 4.15187 74.8594 4.15187C75.1442 4.15187 75.3637 4.1578 75.518 4.16966C75.6841 4.16966 75.8027 4.1756 75.8739 4.18746C75.957 4.19933 76.0104 4.21713 76.0341 4.24086C76.0579 4.25272 76.0697 4.27646 76.0697 4.31205L75.9985 5.36218V9.1889C75.9985 9.48555 76.0104 9.79406 76.0341 10.1144C76.0697 10.4348 76.1646 10.7137 76.3189 10.951C76.4376 11.129 76.5859 11.2773 76.7639 11.3959C76.9537 11.5027 77.2029 11.5561 77.5114 11.5561C78.1759 11.5561 78.6505 11.3188 78.9353 10.8442C79.2201 10.3695 79.3625 9.68133 79.3625 8.77953V5.36218L79.2913 4.31205C79.2913 4.27646 79.3032 4.25272 79.3269 4.24086C79.3506 4.21713 79.404 4.19933 79.4871 4.18746C79.5701 4.1756 79.6888 4.16966 79.843 4.16966C80.0092 4.1578 80.2346 4.15187 80.5194 4.15187C80.8042 4.15187 81.0237 4.1578 81.1779 4.16966C81.3441 4.16966 81.4687 4.1756 81.5517 4.18746C81.6348 4.19933 81.6882 4.21713 81.7119 4.24086C81.7356 4.25272 81.7475 4.27646 81.7475 4.31205L81.6763 5.36218V11.129L81.7475 12.8554C81.7475 12.891 81.7356 12.9207 81.7119 12.9444C81.6882 12.9563 81.6348 12.9682 81.5517 12.98C81.4805 12.9919 81.3619 13.0038 81.1957 13.0156C81.0415 13.0156 80.822 13.0156 80.5372 13.0156C80.2643 13.0156 80.0448 13.0156 79.8786 13.0156C79.7244 13.0038 79.6057 12.9919 79.5227 12.98C79.4396 12.9682 79.3862 12.9563 79.3625 12.9444C79.3506 12.9207 79.3447 12.891 79.3447 12.8554L79.4159 11.3781C79.2142 11.8765 78.8938 12.2859 78.4547 12.6063C78.0157 12.9266 77.458 13.0868 76.7817 13.0868C76.2477 13.0868 75.7968 13.0156 75.429 12.8732C75.0611 12.719 74.7467 12.5113 74.4856 12.2503C74.2127 11.9655 74.011 11.6214 73.8805 11.218C73.7618 10.8145 73.7025 10.3458 73.7025 9.81186V5.36218L73.6313 4.31205ZM89.7795 6.05633C89.7795 6.31738 89.6074 6.4479 89.2633 6.4479C88.7649 6.4479 88.3437 6.51909 87.9996 6.66148C87.6673 6.80387 87.3826 7.00559 87.1452 7.26664C86.8842 7.55142 86.7003 7.8896 86.5935 8.28117C86.4867 8.67274 86.4333 9.13551 86.4333 9.66947V10.7552L86.5045 12.8554C86.5045 12.891 86.4926 12.9207 86.4689 12.9444C86.4452 12.9563 86.3918 12.9682 86.3087 12.98C86.2256 12.9919 86.1011 13.0038 85.9349 13.0156C85.7807 13.0156 85.5612 13.0156 85.2764 13.0156C85.0035 13.0156 84.7839 13.0156 84.6178 13.0156C84.4636 13.0038 84.3449 12.9919 84.2619 12.98C84.1788 12.9682 84.1254 12.9563 84.1017 12.9444C84.0779 12.9207 84.0661 12.891 84.0661 12.8554L84.1373 10.7552V5.29098L84.0661 4.31205C84.0661 4.27646 84.072 4.25272 84.0839 4.24086C84.1076 4.21713 84.161 4.19933 84.2441 4.18746C84.3271 4.1756 84.4458 4.16966 84.6 4.16966C84.7543 4.1578 84.9738 4.15187 85.2586 4.15187C85.5315 4.15187 85.7451 4.1578 85.8993 4.16966C86.0655 4.16966 86.1841 4.1756 86.2553 4.18746C86.3384 4.19933 86.3918 4.21713 86.4155 4.24086C86.4392 4.25272 86.4511 4.27646 86.4511 4.31205L86.3799 5.29098V6.57249C86.5579 5.82494 86.9257 5.22572 87.4834 4.77482C88.0411 4.31205 88.6937 4.08067 89.4413 4.08067C89.6667 4.08067 89.7795 4.1934 89.7795 4.41885V6.05633ZM91.0667 11.2891C91.0073 11.218 90.9777 11.1408 90.9777 11.0578C90.9777 10.9866 91.0133 10.9332 91.0845 10.8976C91.1557 10.8501 91.3336 10.7967 91.6184 10.7374C91.9981 10.6662 92.2948 10.6069 92.5084 10.5594C92.7219 10.5119 92.8762 10.4882 92.9711 10.4882C93.0423 10.4882 93.0898 10.5001 93.1135 10.5238C93.1491 10.5475 93.1847 10.6009 93.2203 10.684C93.5525 11.3485 94.1162 11.6807 94.9112 11.6807C95.2197 11.6807 95.5045 11.5917 95.7655 11.4137C96.0384 11.2239 96.1749 10.9391 96.1749 10.5594C96.1749 10.1322 96.0088 9.84152 95.6765 9.68727C95.3562 9.53301 94.9171 9.40249 94.3594 9.29569C93.9323 9.2245 93.5229 9.14144 93.1313 9.04651C92.7397 8.95159 92.3956 8.81513 92.099 8.63714C91.8023 8.45915 91.565 8.2337 91.387 7.96079C91.2209 7.67601 91.1379 7.32004 91.1379 6.89287C91.1379 6.45383 91.2268 6.06226 91.4048 5.71815C91.5828 5.36218 91.832 5.06553 92.1524 4.82822C92.4728 4.57903 92.8525 4.39511 93.2915 4.27646C93.7424 4.14593 94.2348 4.08067 94.7688 4.08067C95.7181 4.08067 96.4834 4.25272 97.0648 4.59683C97.6581 4.94094 98.0734 5.39777 98.3107 5.96733C98.3345 6.06226 98.3463 6.12159 98.3463 6.14532C98.3463 6.20465 98.2989 6.25805 98.2039 6.30551C98.1209 6.35297 97.9073 6.4123 97.5632 6.4835C97.2547 6.55469 97.0114 6.60809 96.8334 6.64369C96.6555 6.67928 96.5309 6.69708 96.4597 6.69708C96.3529 6.69708 96.2698 6.64369 96.2105 6.53689C96.08 6.34704 95.896 6.17499 95.6587 6.02073C95.4333 5.85461 95.1307 5.77155 94.751 5.77155C94.4069 5.77155 94.1102 5.85461 93.8611 6.02073C93.6237 6.17499 93.5051 6.42417 93.5051 6.76828C93.5051 7.05306 93.6119 7.26664 93.8255 7.40903C94.0509 7.53955 94.3891 7.65228 94.84 7.74721C95.2909 7.83027 95.7359 7.92519 96.1749 8.03199C96.6139 8.12691 97.0055 8.26337 97.3496 8.44136C97.7056 8.61934 97.9904 8.85666 98.2039 9.1533C98.4294 9.43808 98.5421 9.81779 98.5421 10.2924C98.5421 10.7433 98.4472 11.1408 98.2573 11.4849C98.0794 11.829 97.8242 12.1198 97.492 12.3571C97.1598 12.5944 96.7622 12.7783 96.2995 12.9088C95.8486 13.0275 95.3502 13.0868 94.8044 13.0868C93.9263 13.0868 93.1669 12.9385 92.5262 12.6419C91.8854 12.3452 91.3989 11.8943 91.0667 11.2891Z" fill="#231F20"/>
<rect x="103.107" y="1.26562" width="11.8829" height="11.7295" fill="#CF0A2B"/>
<rect x="107.652" y="2.24219" width="2.79298" height="9.77462" fill="white"/>
<rect x="114" y="5.75" width="2.75695" height="9.90238" transform="rotate(90 114 5.75)" fill="white"/>
</svg>
