<svg width="9" height="19" viewBox="0 0 9 19" fill="none" xmlns="http://www.w3.org/2000/svg">
<path d="M4.81011 4.63367C5.74163 4.63367 6.48684 3.79989 6.48684 2.80341C6.48684 1.7866 5.723 0.973145 4.81011 0.973145C3.89723 0.973145 3.13339 1.80693 3.13339 2.80341C3.11476 3.79989 3.8786 4.63367 4.81011 4.63367Z" fill="#C4C4C4"/>
<path d="M7.45201 5.20306C6.48323 5.20306 3.11115 5.20306 2.14237 5.20306C0.689209 5.20306 0.689209 6.7893 0.689209 6.7893V10.9989C0.689209 10.9989 0.689209 12.0564 1.65798 12.0564C2.14237 12.0564 2.14237 10.9989 2.14237 10.9989V7.2977H2.62676V17.8726C2.62676 17.8726 2.62676 18.9301 3.59554 18.9301C4.56431 18.9301 4.56431 17.8726 4.56431 17.8726V10.9989H5.0487V17.8726C5.0487 17.8726 5.0487 18.9301 6.01748 18.9301C6.98625 18.9301 6.98625 17.8726 6.98625 17.8726V7.2977H7.47064V10.9989C7.47064 10.9989 7.47064 12.0564 7.95503 12.0564C8.90517 12.0564 8.90517 10.9989 8.90517 10.9989V6.76896C8.90517 6.76896 8.90517 5.20306 7.45201 5.20306Z" fill="#C4C4C4"/>
</svg>
