<svg width="17" height="16" viewBox="0 0 17 16" fill="none" xmlns="http://www.w3.org/2000/svg">
<g clip-path="url(#clip0)">
<path d="M8.47785 2.78672C8.60277 2.78672 8.72258 2.74019 8.81091 2.65737C8.89924 2.57454 8.94887 2.46221 8.94887 2.34508V0.843521C8.94887 0.726392 8.89924 0.614061 8.81091 0.531238C8.72258 0.448415 8.60277 0.401886 8.47785 0.401886C8.35293 0.401886 8.23313 0.448415 8.14479 0.531238C8.05646 0.614061 8.00684 0.726392 8.00684 0.843521V2.34508C8.00684 2.46221 8.05646 2.57454 8.14479 2.65737C8.23313 2.74019 8.35293 2.78672 8.47785 2.78672Z" fill="black"/>
<path d="M8.47785 13.1122C8.35293 13.1122 8.23313 13.1587 8.14479 13.2415C8.05646 13.3244 8.00684 13.4367 8.00684 13.5538V15.0554C8.00684 15.1725 8.05646 15.2848 8.14479 15.3677C8.23313 15.4505 8.35293 15.497 8.47785 15.497C8.60277 15.497 8.72258 15.4505 8.81091 15.3677C8.89924 15.2848 8.94887 15.1725 8.94887 15.0554V13.5538C8.94887 13.4367 8.89924 13.3244 8.81091 13.2415C8.72258 13.1587 8.60277 13.1122 8.47785 13.1122Z" fill="black"/>
<path d="M3.9185 4.30151C4.00608 4.37616 4.12043 4.41715 4.23879 4.41634C4.30078 4.41667 4.36223 4.40553 4.41961 4.38355C4.477 4.36158 4.5292 4.32919 4.57321 4.28826C4.61735 4.24721 4.6524 4.19836 4.67631 4.14454C4.70022 4.09073 4.71253 4.033 4.71253 3.9747C4.71253 3.9164 4.70022 3.85868 4.67631 3.80486C4.6524 3.75104 4.61735 3.7022 4.57321 3.66114L3.45219 2.61446C3.36209 2.54211 3.24618 2.50431 3.12764 2.5086C3.0091 2.51289 2.89665 2.55897 2.81276 2.63762C2.72888 2.71628 2.67973 2.82171 2.67516 2.93286C2.67058 3.04401 2.7109 3.15268 2.78806 3.23717L3.9185 4.30151Z" fill="black"/>
<path d="M13.0378 11.5973C12.9939 11.5562 12.9418 11.5235 12.8844 11.5012C12.827 11.4789 12.7655 11.4675 12.7034 11.4675C12.6413 11.4675 12.5798 11.4789 12.5224 11.5012C12.465 11.5235 12.4129 11.5562 12.369 11.5973C12.3251 11.6385 12.2902 11.6874 12.2665 11.7412C12.2427 11.795 12.2305 11.8527 12.2305 11.9109C12.2305 11.9691 12.2427 12.0268 12.2665 12.0806C12.2902 12.1344 12.3251 12.1833 12.369 12.2245L13.5041 13.2844C13.5478 13.3261 13.5998 13.3593 13.6572 13.3821C13.7146 13.4048 13.7762 13.4166 13.8386 13.4169C13.9628 13.4152 14.0813 13.3676 14.1683 13.2844C14.256 13.2016 14.3052 13.0897 14.3052 12.973C14.3052 12.8564 14.256 12.7444 14.1683 12.6617L13.0378 11.5973Z" fill="black"/>
<path d="M2.97219 7.94942C2.97219 7.83229 2.92257 7.71996 2.83423 7.63713C2.7459 7.55431 2.6261 7.50778 2.50117 7.50778H0.899725C0.774805 7.50778 0.655 7.55431 0.566668 7.63713C0.478336 7.71996 0.428711 7.83229 0.428711 7.94942C0.428711 8.06655 0.478336 8.17888 0.566668 8.2617C0.655 8.34452 0.774805 8.39105 0.899725 8.39105H2.50117C2.6261 8.39105 2.7459 8.34452 2.83423 8.2617C2.92257 8.17888 2.97219 8.06655 2.97219 7.94942Z" fill="black"/>
<path d="M16.0568 7.50778H14.4554C14.3305 7.50778 14.2107 7.55431 14.1223 7.63713C14.034 7.71996 13.9844 7.83229 13.9844 7.94942C13.9844 8.06655 14.034 8.17888 14.1223 8.2617C14.2107 8.34452 14.3305 8.39105 14.4554 8.39105H16.0568C16.1818 8.39105 16.3016 8.34452 16.3899 8.2617C16.4782 8.17888 16.5278 8.06655 16.5278 7.94942C16.5278 7.83229 16.4782 7.71996 16.3899 7.63713C16.3016 7.55431 16.1818 7.50778 16.0568 7.50778Z" fill="black"/>
<path d="M3.91918 11.5973L2.78874 12.6617C2.7226 12.7232 2.6774 12.8017 2.65885 12.8873C2.6403 12.9729 2.64923 13.0617 2.68452 13.1426C2.71981 13.2234 2.77988 13.2926 2.85712 13.3414C2.93435 13.3902 3.0253 13.4165 3.11845 13.4169C3.18077 13.4166 3.24242 13.4048 3.29983 13.3821C3.35723 13.3593 3.40925 13.3261 3.45287 13.2844L4.58802 12.2245C4.67671 12.1413 4.72654 12.0285 4.72654 11.9109C4.72654 11.7933 4.67671 11.6805 4.58802 11.5973C4.49933 11.5142 4.37903 11.4675 4.2536 11.4675C4.12817 11.4675 4.00787 11.5142 3.91918 11.5973Z" fill="black"/>
<path d="M12.7169 4.41638C12.7789 4.41672 12.8403 4.40558 12.8977 4.3836C12.9551 4.36162 13.0073 4.32924 13.0513 4.28831L14.1818 3.22397C14.2695 3.14122 14.3187 3.02929 14.3187 2.91262C14.3187 2.79594 14.2695 2.68401 14.1818 2.60126C14.0935 2.51901 13.9741 2.47284 13.8497 2.47284C13.7253 2.47284 13.6059 2.51901 13.5176 2.60126L12.3825 3.66119C12.3383 3.70224 12.3033 3.75109 12.2794 3.80491C12.2555 3.85872 12.2432 3.91645 12.2432 3.97475C12.2432 4.03305 12.2555 4.09077 12.2794 4.14459C12.3033 4.19841 12.3383 4.24725 12.3825 4.28831C12.4265 4.32924 12.4787 4.36162 12.5361 4.3836C12.5935 4.40558 12.6549 4.41672 12.7169 4.41638Z" fill="black"/>
<path d="M8.53964 3.42267C7.59344 3.41128 6.665 3.66396 5.87233 4.14857C5.07967 4.63318 4.45859 5.32784 4.08805 6.14424C3.71751 6.96065 3.61424 7.86192 3.79137 8.7335C3.9685 9.60507 4.41803 10.4076 5.08282 11.039C5.74761 11.6704 6.59762 12.1022 7.52481 12.2796C8.452 12.4569 9.41448 12.3717 10.2899 12.0349C11.1653 11.698 11.9142 11.1247 12.4412 10.3878C12.9683 9.65089 13.2497 8.78369 13.2498 7.89644C13.2561 6.71805 12.7638 5.58541 11.8809 4.74679C10.9979 3.90818 9.79639 3.43201 8.53964 3.42267ZM8.53964 11.4825C7.77958 11.4939 7.0331 11.2929 6.39525 10.9052C5.75741 10.5175 5.25708 9.96053 4.95797 9.30527C4.65886 8.65002 4.57451 7.92613 4.71566 7.22578C4.85681 6.52543 5.21708 5.88031 5.75057 5.37259C6.28407 4.86486 6.96666 4.5175 7.71142 4.37474C8.45618 4.23198 9.2294 4.30029 9.93262 4.57095C10.6358 4.84162 11.2372 5.3024 11.6602 5.89462C12.0832 6.48684 12.3086 7.18369 12.3078 7.89644C12.3128 8.8398 11.9192 9.74665 11.2131 10.4187C10.5069 11.0907 9.54573 11.4732 8.53964 11.4825Z" fill="black"/>
</g>
<defs>
<clipPath id="clip0">
<rect width="16.9565" height="15.8989" fill="white"/>
</clipPath>
</defs>
</svg>
