<svg width="19" height="19" viewBox="0 0 19 19" fill="none" xmlns="http://www.w3.org/2000/svg">
<g clip-path="url(#clip0)">
<path d="M7.19661 13.2263C8.21467 13.2263 9.0436 12.3868 9.0436 11.3557C9.0436 10.3247 8.21467 9.48523 7.19661 9.48523H5.90371C5.59785 9.48523 5.34961 9.73663 5.34961 10.0464C5.34961 10.3561 5.59785 10.6075 5.90371 10.6075H7.19661C7.60368 10.6075 7.93541 10.9435 7.93541 11.3557C7.93541 11.768 7.60368 12.104 7.19661 12.104C6.17854 12.104 5.34961 12.9434 5.34961 13.9745V14.9097C5.34961 15.2195 5.59785 15.4709 5.90371 15.4709H8.4895C8.79537 15.4709 9.0436 15.2195 9.0436 14.9097C9.0436 14.6 8.79537 14.3486 8.4895 14.3486H6.45781V13.9745C6.45781 13.5615 6.78953 13.2263 7.19661 13.2263Z" fill="#C4C4C4"/>
<path d="M13.661 10.6075C13.9669 10.6075 14.2151 10.3561 14.2151 10.0464C14.2151 9.73663 13.9669 9.48523 13.661 9.48523H10.8905C10.5847 9.48523 10.3364 9.73663 10.3364 10.0464V12.291C10.3364 12.6008 10.5847 12.8522 10.8905 12.8522H12.3681C12.7752 12.8522 13.1069 13.1881 13.1069 13.6004C13.1069 14.0126 12.7752 14.3486 12.3681 14.3486H10.8905C10.5847 14.3486 10.3364 14.6 10.3364 14.9097C10.3364 15.2195 10.5847 15.4709 10.8905 15.4709H12.3681C13.3862 15.4709 14.2151 14.6314 14.2151 13.6004C14.2151 12.5693 13.3862 11.7299 12.3681 11.7299H11.4446V10.6075H13.661Z" fill="#C4C4C4"/>
<path d="M16.4315 2.74462H15.6927V1.24821C15.6927 0.835197 15.3617 0.5 14.9539 0.5H14.2151C13.8073 0.5 13.4763 0.835197 13.4763 1.24821V2.74462H6.08834V1.24821C6.08834 0.835197 5.75736 0.5 5.34954 0.5H4.61074C4.20293 0.5 3.87194 0.835197 3.87194 1.24821V2.74462H3.13314C1.91117 2.74462 0.916748 3.75171 0.916748 4.98925V7.2638V16.2124C0.916748 17.4499 1.91117 18.457 3.13314 18.457H16.4315C17.6535 18.457 18.6479 17.4499 18.6479 16.2124V7.2638V4.98925C18.6479 3.75171 17.6535 2.74462 16.4315 2.74462ZM16.4315 16.9606H3.13314C2.72607 16.9606 2.39435 16.6246 2.39435 16.2124V8.01201H17.1703V16.2124C17.1703 16.6246 16.8386 16.9606 16.4315 16.9606Z" fill="#C4C4C4"/>
</g>
<defs>
<clipPath id="clip0">
<rect width="17.7312" height="17.957" fill="white" transform="translate(0.916748 0.5)"/>
</clipPath>
</defs>
</svg>
