<svg width="13" height="19" viewBox="0 0 13 19" fill="none" xmlns="http://www.w3.org/2000/svg">
<path d="M6.49611 0.973145C7.81638 0.973145 8.87259 2.15491 8.87259 3.56726C8.87259 4.97961 7.78997 6.16137 6.49611 6.16137C5.20225 6.16137 4.11963 4.97961 4.11963 3.56726C4.11963 2.15491 5.17584 0.973145 6.49611 0.973145Z" fill="#C4C4C4"/>
<path d="M0.660645 8.40961C0.660645 6.9108 2.03373 6.9108 2.03373 6.9108H10.9588C10.9588 6.9108 12.3319 6.85315 12.3319 8.40961C12.3319 9.96608 10.9588 9.93726 10.9588 9.93726H9.58569V17.4313C9.58569 17.4313 9.58569 18.9302 8.21261 18.9302C6.83953 18.9302 6.83952 17.4313 6.83952 17.4313V12.9349H6.15298V17.4025C6.15298 17.4025 6.15298 18.9013 4.7799 18.9013C3.40681 18.9013 3.40681 17.4025 3.40681 17.4025V9.93726H2.03373C2.03373 9.93726 0.660645 9.93726 0.660645 8.40961Z" fill="#C4C4C4"/>
</svg>
