<svg width="56" height="48" viewBox="0 0 56 48" fill="none" xmlns="http://www.w3.org/2000/svg">
<path d="M30.9967 10.5959C29.5491 10.5959 28.3911 11.754 28.3911 13.2015V24.029C28.3911 25.4765 29.5491 26.6345 30.9967 26.6345H39.6239C41.0715 26.6345 42.2295 25.4765 42.2295 24.029C42.2295 22.5815 41.0715 21.4235 39.6239 21.4235H33.6022V13.2015C33.6022 11.754 32.4442 10.5959 30.9967 10.5959Z" fill="white"/>
<path d="M30.9964 0C21.906 0 13.9735 5.0953 9.86255 12.5645C10.0363 12.5645 10.1521 12.5645 10.3258 12.5645C12.0049 12.5645 13.684 13.1435 15.0157 14.2437C18.3161 8.85886 24.222 5.269 30.9964 5.269C41.3607 5.269 49.7564 13.6647 49.7564 24.0289C49.7564 34.3932 41.3028 42.7889 30.9964 42.7889C27.0592 42.7889 23.4114 41.573 20.3426 39.4885L17.8529 44.1206C21.6165 46.5525 26.1328 48 30.9964 48C44.2558 48 55.0254 37.2304 55.0254 23.9711C55.0254 10.7696 44.2558 0 30.9964 0Z" fill="white"/>
<path d="M16.8687 28.14L13.163 28.719C12.7577 28.7769 12.3524 28.4295 12.3524 28.0242V19.8601C12.3524 17.7757 9.51524 17.023 8.53092 18.8758L0.251063 34.4512C-0.559552 35.8987 0.714272 37.6358 2.3355 37.4042L6.04117 36.8252C6.44648 36.7673 6.85179 37.1147 6.85179 37.52V45.684C6.85179 47.7685 9.68894 48.5212 10.6733 46.6683L19.011 31.093C19.7637 29.5875 18.5478 27.8505 16.8687 28.14Z" fill="white"/>
</svg>
