<svg width="49" height="48" viewBox="0 0 49 48" fill="none" xmlns="http://www.w3.org/2000/svg">
<path d="M44.6815 20.2109C43.2353 22.8399 40.5074 24.6469 37.3008 24.6469H36.1063V26.5567V29.5037C36.1063 30.4255 35.2888 31.1732 34.3669 31.1732C33.445 31.1732 32.6282 30.4255 32.6282 29.5037V24.6469H16.0656V29.5037C16.0656 30.4255 15.2483 31.1732 14.3267 31.1732C13.4049 31.1732 12.5875 30.4255 12.5875 29.5037V26.5567V24.6469H11.5066C8.29997 24.6469 5.51565 22.8399 4.06924 20.2109C1.68789 21.202 0 23.6657 0 26.5569V34.5991C0 38.3545 2.84296 41.3752 6.34775 41.3752C6.34792 41.3752 6.29376 41.3752 6.29376 41.3752V41.1236V38.0627H42.4V41.1236V41.3752H42.4593C45.9641 41.3752 48.6938 38.3545 48.6938 34.5991V26.5569C48.6938 23.6659 47.0627 21.2024 44.6815 20.2109Z" fill="white"/>
<path d="M13.1761 48H35.6312C39.2849 48 42.291 45.0188 42.4513 41.375H6.35596C6.51628 45.0188 9.52238 48 13.1761 48Z" fill="white"/>
<path d="M18.7893 5.59995H11.5066C8.66198 5.59995 6.2937 7.93312 6.2937 10.7777V16.1082C6.2937 18.9528 8.66198 21.3345 11.5066 21.3345H12.5875V14.8743C12.5875 13.9521 13.4048 13.2048 14.3267 13.2048C15.2482 13.2048 16.0656 13.9521 16.0656 14.8743V21.3343H32.6281V14.8743C32.6281 13.9521 33.445 13.2048 34.3668 13.2048C35.2887 13.2048 36.1062 13.9521 36.1062 14.8743V21.3343H37.3007C40.1453 21.3343 42.4 18.9527 42.4 16.108V10.7777C42.4 7.93312 40.1453 5.59995 37.3007 5.59995H30.0179C30.0179 4.44058 29.6073 3.20518 28.9145 2.27138C27.8906 0.89156 26.2497 0 24.4033 0C22.5571 0 20.9164 0.889242 19.8927 2.2689C19.1999 3.20303 18.7893 4.44058 18.7893 5.59995ZM26.6798 5.59995H22.1275C22.1275 4.44058 23.1484 3.3241 24.4033 3.3241C25.6586 3.3241 26.6798 4.44058 26.6798 5.59995Z" fill="white"/>
</svg>
