<svg width="31" height="48" viewBox="0 0 31 48" fill="none" xmlns="http://www.w3.org/2000/svg">
<path d="M30.0749 9.18927C31.2454 10.4069 31.2034 12.3441 29.9811 13.5097L19.4553 23.5471C20.6573 22.4121 22.6461 22.4671 23.7983 23.7045C24.8495 24.8334 24.7247 26.5557 23.6084 27.6098L22.1768 28.9617C23.5713 27.6448 26.025 27.9297 27.0025 29.8047C27.6808 31.106 27.3398 32.6731 26.2617 33.691L24.6998 35.166C25.8556 34.0745 27.739 34.0834 28.9064 35.1859L28.9101 35.1894C30.1829 36.3913 30.1915 38.3319 28.9294 39.5237L23.0538 45.0722C18.8953 48.9992 12.1246 48.9724 7.93104 45.0122L3.16416 40.5108C-0.110231 37.4188 -0.934316 32.7093 1.11959 28.8269C2.63525 26.0742 3.04991 23.3337 2.48931 20.2542C2.29598 19.2731 2.62233 18.271 3.36303 17.5716C5.14125 15.8923 8.20724 16.7425 8.78867 19.0759L9.71173 24.4035L10.7854 23.3896L25.7717 9.09594C26.9871 7.93679 28.9109 7.97853 30.0749 9.18927Z" fill="white"/>
<path d="M10.6338 1.81198e-05L10.5769 8.24939L13.5504 8.26991L13.6073 0.0205351L10.6338 1.81198e-05Z" fill="white"/>
<path d="M20.4504 3.43536L15.1289 8.75079L17.2303 10.8546L22.5518 5.53917L20.4504 3.43536Z" fill="white"/>
<path d="M3.69189 3.65224L1.59521 5.7608L6.84703 10.983L8.9437 8.87443L3.69189 3.65224Z" fill="white"/>
</svg>
