<svg width="14" height="14" viewBox="0 0 14 14" fill="none" xmlns="http://www.w3.org/2000/svg">
<path d="M7 14C10.8656 14 14 10.8656 14 7C14 3.13438 10.8656 6.79659e-07 7 3.41715e-07C3.13437 3.77109e-09 -9.57446e-07 3.13437 -1.29539e-06 7C-1.63333e-06 10.8656 3.13437 14 7 14ZM4.11719 8.47344L6.89844 4.62969C6.90995 4.61372 6.92508 4.60071 6.94261 4.59174C6.96013 4.58276 6.97953 4.57809 6.99922 4.57809C7.0189 4.57809 7.03831 4.58276 7.05583 4.59174C7.07335 4.60071 7.08849 4.61372 7.1 4.62969L9.88125 8.47344C9.94062 8.55625 9.88125 8.67188 9.77969 8.67188L9.04687 8.67188C8.8875 8.67188 8.73594 8.59531 8.64219 8.46562L7 6.19375L5.35625 8.46562C5.2625 8.59531 5.1125 8.67187 4.95156 8.67187L4.21875 8.67187C4.11719 8.67187 4.05781 8.55625 4.11719 8.47344Z" fill="#707070"/>
</svg>
