<svg width="38" height="36" viewBox="0 0 38 36" fill="none" xmlns="http://www.w3.org/2000/svg">
<path d="M37.125 17.9961C37.125 19.8933 34.4219 21.3336 33.8798 23.045C33.3148 24.8183 34.6434 27.5905 33.582 29.0618C32.513 30.5486 29.4969 30.1227 28.0232 31.2068C26.5648 32.2832 26.0455 35.3264 24.2969 35.9072C22.6094 36.4648 20.4333 34.3275 18.5625 34.3275C16.6917 34.3275 14.5156 36.4648 12.8281 35.9072C11.0795 35.3342 10.5602 32.2832 9.10181 31.2068C7.63575 30.1227 4.61199 30.5563 3.54299 29.0618C2.48162 27.5828 3.81787 24.8183 3.24519 23.045C2.70305 21.3336 0 19.8933 0 17.9961C0 16.0989 2.70305 14.6586 3.24519 12.9473C3.81024 11.174 2.48162 8.40173 3.54299 6.93044C4.61199 5.44366 7.62811 5.86956 9.10181 4.78544C10.5526 3.71682 11.0795 0.665817 12.8204 0.0927864C14.5079 -0.464757 16.6917 1.67249 18.5625 1.67249C20.4333 1.67249 22.6094 -0.464757 24.2969 0.0927864C26.0455 0.665817 26.5648 3.71682 28.0232 4.79319C29.4893 5.8773 32.513 5.44366 33.582 6.93818C34.6434 8.41722 33.3071 11.1817 33.8798 12.955C34.4219 14.6664 37.125 16.0989 37.125 17.9961Z" fill="url(#paint0_linear)"/>
<path d="M18.5851 7.54718C13.2903 7.54718 8.99976 11.8382 8.99976 17.1334C8.99976 20.7397 11.0081 23.8895 13.975 25.5328L13.8381 29.4586L18.3569 26.674C18.4025 26.674 18.4938 26.674 18.5394 26.674C23.8342 26.674 28.1248 22.383 28.1248 17.0878C28.1248 11.8382 23.8342 7.54718 18.5851 7.54718ZM17.3527 22.7026V14.8053H19.8175V22.7026H17.3527ZM18.5394 13.8467C17.7635 13.8467 17.2614 13.2989 17.2614 12.6142C17.2614 11.9295 17.7635 11.3817 18.5394 11.3817C19.3154 11.3817 19.8175 11.9295 19.8631 12.6142C19.8631 13.2989 19.361 13.8467 18.5394 13.8467Z" fill="white"/>
<defs>
<linearGradient id="paint0_linear" x1="18.5625" y1="0" x2="18.5625" y2="36" gradientUnits="userSpaceOnUse">
<stop stop-color="#E97901"/>
<stop offset="1" stop-color="#FEB101"/>
</linearGradient>
</defs>
</svg>
