<svg width="39" height="36" viewBox="0 0 39 36" fill="none" xmlns="http://www.w3.org/2000/svg">
<path d="M38.25 17.9961C38.25 19.8933 35.465 21.3336 34.9065 23.045C34.3243 24.8183 35.6932 27.5905 34.5997 29.0618C33.4983 30.5486 30.3907 30.1227 28.8724 31.2068C27.3698 32.2832 26.8348 35.3264 25.0332 35.9072C23.2946 36.4648 21.0525 34.3275 19.125 34.3275C17.1976 34.3275 14.9554 36.4648 13.2168 35.9072C11.4152 35.3342 10.8802 32.2832 9.37762 31.2068C7.86713 30.1227 4.75175 30.5563 3.65035 29.0618C2.55682 27.5828 3.93357 24.8183 3.34353 23.045C2.78497 21.3336 0 19.8933 0 17.9961C0 16.0989 2.78497 14.6586 3.34353 12.9473C3.9257 11.174 2.55682 8.40173 3.65035 6.93044C4.75175 5.44366 7.85927 5.86956 9.37762 4.78544C10.8724 3.71682 11.4152 0.665817 13.2089 0.0927865C14.9476 -0.464757 17.1976 1.67249 19.125 1.67249C21.0525 1.67249 23.2946 -0.464757 25.0332 0.0927865C26.8348 0.665817 27.3698 3.71682 28.8724 4.79319C30.3829 5.8773 33.4983 5.44366 34.5997 6.93818C35.6932 8.41722 34.3164 11.1817 34.9065 12.955C35.465 14.6664 38.25 16.0989 38.25 17.9961Z" fill="url(#paint0_linear)"/>
<path d="M29.4027 15.8584C29.7324 15.8584 30.0255 15.5658 30.0255 15.2366V11.8717C30.0255 11.5425 29.7324 11.2499 29.4027 11.2499H15.5539V14.3954C15.5539 14.7245 15.2608 15.0171 14.9311 15.0171C14.6014 15.0171 14.3083 14.7245 14.3083 14.3954V11.2499H8.84939C8.51966 11.2499 8.22656 11.5425 8.22656 11.8717V15.2C8.22656 15.5658 8.51966 15.8218 8.84939 15.8218C9.87522 15.8218 10.7545 16.663 10.7545 17.6871C10.7545 18.7112 9.91186 19.589 8.84939 19.589C8.51966 19.589 8.22656 19.8816 8.22656 20.2108V23.5391C8.22656 23.9048 8.51966 24.1608 8.84939 24.1608H14.3083V21.0154C14.3083 20.6497 14.6014 20.3936 14.9311 20.3936C15.2608 20.3936 15.5539 20.6862 15.5539 21.0154V24.1608H29.4027C29.7324 24.1608 30.0255 23.8682 30.0255 23.5391V20.2108C30.0255 19.845 29.7324 19.589 29.4027 19.589C28.3768 19.589 27.4975 18.7478 27.4975 17.6871C27.4975 16.6996 28.3402 15.8584 29.4027 15.8584ZM15.5539 18.5649C15.5539 18.8941 15.2608 19.1867 14.9311 19.1867C14.6014 19.1867 14.3083 18.9306 14.3083 18.5649V16.8825C14.3083 16.5167 14.6014 16.2607 14.9311 16.2607C15.2608 16.2607 15.5539 16.5533 15.5539 16.8825V18.5649Z" fill="white"/>
<defs>
<linearGradient id="paint0_linear" x1="19.125" y1="0" x2="19.125" y2="36" gradientUnits="userSpaceOnUse">
<stop stop-color="#E97901"/>
<stop offset="1" stop-color="#FEB101"/>
</linearGradient>
</defs>
</svg>
