<svg width="48" height="48" viewBox="0 0 48 48" fill="none" xmlns="http://www.w3.org/2000/svg">
<path d="M0 48H22.6875V28.2188H0V48ZM7.125 36.074L9.9375 38.8865L15.6562 33.2615L17.6448 35.25L9.9375 42.8635L5.13647 38.0625L7.125 36.074Z" fill="white"/>
<path d="M15.5588 18.2346L16.4391 15.5648C17.4759 12.4145 19.6773 9.85603 22.6395 8.36334L22.6875 8.33916V5.625H0V25.4062H22.6875V19.7114C21.2346 19.7768 19.8637 19.653 18.2298 19.1149L15.5588 18.2346Z" fill="white"/>
<path d="M41.1077 2.19816L43.6407 7.22091L48.0001 5.02209L45.4664 0L41.1077 2.19816Z" fill="white"/>
<path d="M26.0415 9.8053L38.6002 3.47675L41.1318 8.50063L28.5731 14.8292L26.0415 9.8053Z" fill="white"/>
<path d="M19.1101 16.4437C21.3745 17.1901 23.815 17.0557 26.0449 16.0496L23.5486 11.1C21.4494 12.2762 19.8674 14.1433 19.1101 16.4437Z" fill="white"/>
</svg>
