<svg width="19" height="19" viewBox="0 0 19 19" fill="none" xmlns="http://www.w3.org/2000/svg">
<path d="M8.33986 0.838745C4.67394 0.838745 1.69067 3.88096 1.69067 7.62125C1.69067 12.9358 7.71484 18.4231 7.9712 18.6536C8.07685 18.7486 8.20836 18.7957 8.33986 18.7957C8.47137 18.7957 8.60288 18.7486 8.70852 18.6543C8.96489 18.4231 14.9891 12.9358 14.9891 7.62125C14.9891 3.88096 12.0058 0.838745 8.33986 0.838745ZM8.33986 11.3137C6.303 11.3137 4.64587 9.63542 4.64587 7.57262C4.64587 5.50981 6.303 3.83158 8.33986 3.83158C10.3767 3.83158 12.0339 5.50981 12.0339 7.57262C12.0339 9.63542 10.3767 11.3137 8.33986 11.3137Z" fill="#C4C4C4"/>
</svg>
