<svg width="16" height="8" viewBox="0 0 16 8" fill="none" xmlns="http://www.w3.org/2000/svg">
<path d="M7.60019 2.4C7.70019 2.4 7.8002 2.4 7.9002 2.3C8.0002 2.2 8.0002 2.1 8.0002 2V0.4C8.0002 0.3 8.0002 0.2 7.9002 0.1C7.8002 1.41561e-07 7.70019 0 7.60019 0C7.50019 0 7.4002 1.41561e-07 7.3002 0.1C7.2002 0.2 7.2002 0.3 7.2002 0.4V1.9C7.2002 2 7.2002 2.1 7.3002 2.2C7.3002 2.3 7.40019 2.4 7.60019 2.4Z" fill="#303030"/>
<path d="M3.30059 3.90001C3.40059 4.00001 3.50059 4.00001 3.60059 4.00001C3.70059 4.00001 3.70059 4.00001 3.80059 4.00001C3.90059 4.00001 3.90059 3.90001 3.90059 3.90001L4.00059 3.80001C4.00059 3.70001 4.00059 3.70001 4.00059 3.60001C4.00059 3.50001 4.00059 3.50001 4.00059 3.40001C4.00059 3.30001 3.90059 3.30001 3.90059 3.30001L2.80059 2.20001C2.80059 2.10001 2.60059 2.10001 2.50059 2.10001C2.40059 2.10001 2.30059 2.10001 2.20059 2.20001C2.20059 2.30001 2.10059 2.40001 2.10059 2.50001C2.10059 2.60001 2.10059 2.70001 2.20059 2.80001L3.30059 3.90001Z" fill="#303030"/>
<path d="M2.4 7.60001C2.4 7.50001 2.4 7.40001 2.3 7.30001C2.2 7.20001 2.1 7.20001 2 7.20001H0.4C0.3 7.20001 0.2 7.20001 0.0999999 7.30001C-9.68575e-08 7.40001 0 7.50001 0 7.60001C0 7.70001 -9.68575e-08 7.80001 0.0999999 7.90001C0.2 8.00001 0.3 8.00001 0.4 8.00001H1.9C2 8.00001 2.1 8.00001 2.2 7.90001C2.3 7.90001 2.4 7.80001 2.4 7.60001Z" fill="#303030"/>
<path d="M14.6998 7.20001H13.1998C13.0998 7.20001 12.9998 7.20001 12.8998 7.30001C12.7998 7.40001 12.7998 7.50001 12.7998 7.60001C12.7998 7.70001 12.7998 7.80001 12.8998 7.90001C12.9998 8.00001 13.0998 8.00001 13.1998 8.00001H14.6998C14.7998 8.00001 14.8998 8.00001 14.9998 7.90001C15.0998 7.80001 15.0998 7.70001 15.0998 7.60001C15.0998 7.50001 15.0998 7.40001 14.9998 7.30001C14.8998 7.20001 14.7998 7.20001 14.6998 7.20001Z" fill="#303030"/>
<path d="M11.5006 4.00001C11.6006 4.00001 11.6006 4.00001 11.7006 4.00001C11.8006 4.00001 11.8006 3.90001 11.8006 3.90001L12.9006 2.80001C13.0006 2.70001 13.0006 2.60001 13.0006 2.50001C13.0006 2.40001 13.0006 2.30001 12.9006 2.20001C12.8006 2.10001 12.7006 2.10001 12.6006 2.10001C12.5006 2.10001 12.4006 2.10001 12.3006 2.20001L11.2006 3.30001L11.1006 3.40001C11.1006 3.50001 11.1006 3.50001 11.1006 3.60001C11.1006 3.70001 11.1006 3.70001 11.1006 3.80001C11.1006 3.90001 11.2006 3.90001 11.2006 3.90001L11.3006 4.00001C11.4006 4.00001 11.5006 4.00001 11.5006 4.00001Z" fill="#303030"/>
<path d="M8.90059 4.20002C9.60059 4.50002 10.1006 4.90001 10.5006 5.60001C10.8006 6.10001 11.0006 6.60002 11.1006 7.20002C11.3006 7.20002 11.4006 7.20002 11.6006 7.20002C11.7006 7.20002 11.9006 7.20002 12.0006 7.20002C11.9006 6.10002 11.5006 5.20001 10.8006 4.40001C10.0006 3.50001 8.80059 3.10002 7.70059 3.00002C6.80059 3.00002 5.90059 3.20002 5.20059 3.70002C4.50059 4.20002 3.90059 4.90002 3.50059 5.70002C3.20059 6.30001 3.20059 6.70002 3.10059 7.20002C3.30059 7.20002 3.40059 7.20002 3.50059 7.20002C3.70059 7.20002 3.80059 7.20002 4.00059 7.20002C4.00059 7.10002 4.00059 7.00001 4.00059 6.90001C4.10059 6.20001 4.50059 5.50002 5.00059 5.00002C5.50059 4.50002 6.10059 4.10002 6.80059 4.00002C7.50059 3.90002 8.20059 3.90002 8.90059 4.20002Z" fill="#303030"/>
<path d="M14.1004 7.30002H0.900391V8.00002H14.1004V7.30002Z" fill="#303030"/>
</svg>
