<svg width="21" height="19" viewBox="0 0 21 19" fill="none" xmlns="http://www.w3.org/2000/svg">
<path d="M10.7306 13.2581C10.6372 13.2581 10.5417 13.264 10.4467 13.2748L9.87753 13.3408L9.80162 12.735C9.61282 11.2217 8.38974 10.0809 6.95709 10.0809C5.3746 10.0809 4.08736 11.4555 4.08736 13.145C4.08736 13.3178 4.10111 13.492 4.12815 13.6624L4.27357 14.5755L3.42565 14.3793C3.27855 14.3454 3.1284 14.3284 2.97977 14.3284C1.82604 14.3284 0.887695 15.33 0.887695 16.5619C0.887695 17.7936 1.82604 18.7957 2.97977 18.7957H10.7306C12.1609 18.7957 13.324 17.5536 13.324 16.027C13.324 14.5003 12.1609 13.2581 10.7306 13.2581Z" fill="#C4C4C4"/>
<path d="M19.7216 11.6426C19.6063 11.6497 19.4913 11.653 19.3772 11.653C17.2674 11.653 15.3408 10.4625 14.2911 8.48507C13.1845 6.40014 13.2815 3.87278 14.5445 1.88896L15.2129 0.838745L14.0259 0.911477C12.9449 0.977849 11.9165 1.30188 10.9696 1.87477C9.33704 2.86269 8.16254 4.46948 7.66228 6.40014C7.45194 7.21226 7.37175 8.03987 7.41834 8.85672C9.05582 9.05747 10.4263 10.3169 10.8586 12.008C12.8376 12.0789 14.4349 13.7872 14.4956 15.9016C15.676 15.8925 16.8411 15.5626 17.896 14.9238C18.8432 14.3509 19.6317 13.5758 20.2404 12.6197L20.9091 11.57L19.7216 11.6426Z" fill="#C4C4C4"/>
</svg>
