<svg width="19" height="18" viewBox="0 0 19 18" fill="none" xmlns="http://www.w3.org/2000/svg">
<rect x="0.81543" y="0.375" width="17.25" height="17.25" rx="8.625" fill="white"/>
<rect x="0.81543" y="0.375" width="17.25" height="17.25" rx="8.625" stroke="#0B0B0B" stroke-width="0.75"/>
<path fill-rule="evenodd" clip-rule="evenodd" d="M14.3073 6.40653C14.3926 6.49185 14.4404 6.60752 14.4404 6.72812C14.4404 6.84871 14.3926 6.96438 14.3073 7.04971L9.75654 11.6005C9.67122 11.6857 9.55555 11.7336 9.43495 11.7336C9.31436 11.7336 9.19869 11.6857 9.11336 11.6005L4.56257 7.04971C4.48218 6.96344 4.43842 6.84934 4.4405 6.73144C4.44258 6.61354 4.49034 6.50106 4.57372 6.41768C4.6571 6.3343 4.76958 6.28654 4.88748 6.28446C5.00538 6.28238 5.11948 6.32614 5.20575 6.40653L9.43495 10.6357L13.6642 6.40653C13.7495 6.32131 13.8652 6.27344 13.9858 6.27344C14.1063 6.27344 14.222 6.32131 14.3073 6.40653Z" fill="black"/>
</svg>
