<svg width="24" height="25" viewBox="0 0 24 25" fill="none" xmlns="http://www.w3.org/2000/svg">
<g clip-path="url(#clip0_49_2258)">
<path d="M24 12.3261C24 5.69878 18.6275 0.326233 12.0001 0.326232C5.37271 0.326232 -5.74553e-05 5.69878 -5.7745e-05 12.3261C-5.80347e-05 18.9535 5.37271 24.3263 12.0001 24.3263C18.6244 24.3188 23.9926 18.9507 24 12.3261ZM1.20009 12.3261C1.20009 6.36146 6.03534 1.52616 12.0001 1.52616C17.9648 1.52616 22.8001 6.36146 22.8001 12.3261C22.8001 18.2909 17.9648 23.1261 12.0001 23.1261C6.03826 23.1193 1.2069 18.288 1.20009 12.3261Z" fill="black"/>
<path d="M16.6517 10.9212C16.8699 10.6716 16.8444 10.2926 16.595 10.0744C16.3454 9.85646 15.9664 9.88194 15.7482 10.1314L12.0001 14.4151L8.25175 10.1311C8.03356 9.88149 7.65455 9.85624 7.40519 10.0742C7.15555 10.2924 7.13007 10.6714 7.34827 10.921L11.5483 15.721C11.6047 15.7854 11.6741 15.837 11.752 15.8724C11.83 15.9077 11.9145 15.926 12.0001 15.926C12.0857 15.926 12.1703 15.9077 12.2482 15.8724C12.3261 15.837 12.3955 15.7854 12.4519 15.721L16.6517 10.9212Z" fill="black"/>
</g>
<defs>
<clipPath id="clip0_49_2258">
<rect width="24" height="24" fill="white" transform="translate(24 0.326233) rotate(90)"/>
</clipPath>
</defs>
</svg>
