<svg width="19" height="19" viewBox="0 0 19 19" fill="none" xmlns="http://www.w3.org/2000/svg">
<g clip-path="url(#clip0_7276_22771)">
<path d="M16.0815 11.2727C15.9381 11.1887 15.7544 11.2367 15.671 11.3798L12.231 17.2469C11.9825 17.6769 11.4313 17.8251 11.0145 17.5845L10.3444 17.1502C10.2051 17.0599 10.0194 17.0995 9.92933 17.2387C9.83899 17.3777 9.8789 17.5638 10.0178 17.6538L10.7011 18.0961C10.9284 18.2278 11.1863 18.297 11.449 18.2969C11.9678 18.2969 12.4726 18.0283 12.7495 17.5487L16.1883 11.6832C16.2721 11.5403 16.2244 11.3564 16.0815 11.2727ZM16.9893 0.296875H12.1879C11.2594 0.296875 10.5677 0.592452 9.87507 1.28506C9.84718 1.31291 9.82505 1.34598 9.80996 1.38238C9.79486 1.41879 9.78709 1.45781 9.78709 1.49722C9.78709 1.53664 9.79486 1.57566 9.80996 1.61206C9.82505 1.64847 9.84718 1.68154 9.87507 1.70939C9.90291 1.73728 9.93598 1.75942 9.97238 1.77452C10.0088 1.78962 10.0478 1.7974 10.0872 1.7974C10.1266 1.7974 10.1657 1.78962 10.2021 1.77452C10.2385 1.75942 10.2716 1.73728 10.2994 1.70939C10.884 1.12481 11.4136 0.897032 12.1879 0.897032H16.9893C17.4856 0.897032 17.8896 1.30096 17.8896 1.7973V6.59877C17.8896 7.37332 17.6618 7.90265 17.0769 8.48723L8.16484 17.4119C7.82453 17.7516 7.23154 17.7519 6.89187 17.4119L1.37469 11.8948C1.20455 11.7246 1.1109 11.4986 1.1109 11.258C1.1109 11.0176 1.20451 10.7916 1.37437 10.6217L9.4294 2.57815C9.55333 2.60966 9.67757 2.64117 9.80632 2.67566C11.0271 3.00275 11.9904 3.34067 12.7085 3.64226C12.5672 3.90394 12.4879 4.19712 12.4879 4.49812C12.4879 5.49112 13.2955 6.29866 14.2885 6.29866C15.2815 6.29866 16.089 5.49112 16.089 4.49812C16.089 3.50511 15.2815 2.69757 14.2885 2.69757C14.1225 2.69757 13.9884 2.83202 13.9884 2.99765C13.9884 3.16329 14.1225 3.29773 14.2885 3.29773C14.9505 3.29773 15.4888 3.8361 15.4888 4.49808C15.4888 5.1601 14.9505 5.69843 14.2885 5.69843C13.6265 5.69843 13.0881 5.16006 13.0881 4.49808C13.0883 4.28313 13.1464 4.0722 13.2562 3.88741C13.7759 4.13618 14.1009 4.34595 14.2294 4.47979C14.1745 4.49541 14.0895 4.51281 13.9614 4.52389C13.7964 4.53859 13.6742 4.68415 13.6889 4.84919C13.7028 5.00522 13.8336 5.12317 13.9875 5.12317C13.9962 5.12317 14.0052 5.12257 14.0142 5.12197C14.1988 5.10548 14.7603 5.05597 14.8683 4.65352C15.1639 3.54949 10.8327 2.32931 9.96151 2.09583C8.62879 1.73871 7.34893 1.49445 6.35712 1.40804C5.13845 1.30152 4.54487 1.44015 4.43325 1.85726C4.37983 2.05743 4.2373 2.58887 6.67042 3.54826C6.82438 3.60917 6.99902 3.53356 7.05965 3.37932C7.12028 3.22508 7.04463 3.05072 6.89039 2.99009C5.71494 2.52645 5.22788 2.18674 5.07184 2.0268C5.44187 1.91817 6.70735 1.94968 8.74527 2.413L0.950363 10.1971C0.666777 10.4807 0.510742 10.8573 0.510742 11.258C0.510742 11.6589 0.666777 12.0358 0.950363 12.3191L6.46751 17.8362C6.7505 18.1195 7.12742 18.2756 7.52804 18.2756C7.92897 18.2756 8.30557 18.1195 8.58916 17.8359L17.5015 8.91155C18.1944 8.21894 18.4897 7.52724 18.4897 6.59877V1.79734C18.4897 0.969968 17.8167 0.296875 16.9893 0.296875Z" fill="black"/>
<path d="M10.3259 8.18957C10.2981 8.16167 10.265 8.13954 10.2286 8.12444C10.1922 8.10934 10.1532 8.10156 10.1138 8.10156C10.0743 8.10156 10.0353 8.10934 9.99891 8.12444C9.9625 8.13954 9.92943 8.16167 9.90159 8.18957L9.73954 8.35162C9.50217 8.19439 9.2189 8.10166 8.9134 8.10166C8.08607 8.10166 7.41294 8.77475 7.41294 9.60212C7.41294 10.0493 7.5975 10.4028 7.75835 10.6611C7.90841 10.9021 8.01313 11.2454 8.01313 11.4027C8.01313 11.899 7.60921 12.3029 7.11286 12.3029C6.61652 12.3029 6.21259 11.899 6.21259 11.4027C6.21259 11.2205 6.26689 11.0449 6.36954 10.8949C6.46315 10.7584 6.42806 10.5714 6.2915 10.4778C6.15467 10.3845 5.96801 10.4193 5.87439 10.5558C5.70333 10.8051 5.61198 11.1004 5.6124 11.4027C5.6124 11.7082 5.70513 11.9915 5.86236 12.2288L5.70032 12.3909C5.67242 12.4187 5.65028 12.4518 5.63518 12.4882C5.62008 12.5246 5.6123 12.5636 5.6123 12.603C5.6123 12.6425 5.62008 12.6815 5.63518 12.7179C5.65028 12.7543 5.67242 12.7874 5.70032 12.8152C5.72815 12.8431 5.76122 12.8652 5.79763 12.8803C5.83404 12.8954 5.87307 12.9032 5.91248 12.9031C5.95189 12.9032 5.99092 12.8954 6.02733 12.8803C6.06374 12.8652 6.09681 12.8431 6.12464 12.8152L6.28669 12.6532C6.52406 12.8104 6.80733 12.9031 7.11283 12.9031C7.94016 12.9031 8.61329 12.23 8.61329 11.4027C8.61329 11.1104 8.46805 10.665 8.26788 10.3436C8.08934 10.0571 8.0131 9.83531 8.0131 9.60212C8.0131 9.10577 8.41702 8.70185 8.91337 8.70185C9.15405 8.70185 9.37159 8.79789 9.53304 8.95241C9.53814 8.95783 9.53993 8.965 9.54503 8.97042C9.55045 8.97552 9.55762 8.97731 9.56304 8.98241C9.7176 9.14386 9.8136 9.36144 9.8136 9.60208C9.8136 9.84273 9.71967 10.0693 9.54922 10.2398C9.43187 10.3568 9.43187 10.5468 9.5489 10.6641C9.66562 10.7814 9.85591 10.7811 9.97323 10.6644C10.2571 10.3805 10.4138 10.0033 10.4138 9.60208C10.4138 9.29659 10.321 9.01332 10.1638 8.77595L10.3258 8.6139C10.3538 8.58607 10.3759 8.553 10.391 8.5166C10.4061 8.48019 10.4139 8.44117 10.4139 8.40175C10.4139 8.36233 10.4062 8.3233 10.3911 8.28689C10.376 8.25049 10.3538 8.21741 10.3259 8.18957Z" fill="black"/>
</g>
<defs>
<clipPath id="clip0_7276_22771">
<rect width="18" height="18" fill="white" transform="translate(0.5 0.296875)"/>
</clipPath>
</defs>
</svg>
