<svg width="19" height="18" viewBox="0 0 19 18" fill="none" xmlns="http://www.w3.org/2000/svg">
<g clip-path="url(#clip0_6123_17732)">
<path d="M0.692383 14.0805V15.2102C0.692383 15.5014 0.928492 15.7375 1.21973 15.7375C1.51096 15.7375 1.74707 15.5014 1.74707 15.2102V14.6078H17.6377V15.2102C17.6377 15.5014 17.8738 15.7375 18.165 15.7375C18.4563 15.7375 18.6924 15.5014 18.6924 15.2102V12.3484H0.692383V14.0805ZM16.753 7.90469H2.63181C1.56243 7.90469 0.692383 8.77473 0.692383 9.84415V11.2938H18.6924V9.84415C18.6924 8.77473 17.8223 7.90469 16.753 7.90469ZM7.71548 5.57031C7.22758 5.57031 6.83066 5.96719 6.83066 6.45505V6.84996H12.5541V6.45505C12.5541 5.96719 12.1572 5.57031 11.6694 5.57031H7.71548Z" fill="black"/>
<path d="M5.77595 6.45663C5.77595 5.38721 6.646 4.5172 7.71545 4.5172H11.6694C12.7388 4.5172 13.6088 5.38721 13.6088 6.45663V6.85154H16.433V4.19724C16.433 3.12782 15.563 2.25781 14.4935 2.25781H4.89121C3.82179 2.25781 2.95178 3.12782 2.95178 4.19724V6.85154H5.77595V6.45663Z" fill="black"/>
</g>
<defs>
<clipPath id="clip0_6123_17732">
<rect width="18" height="18" fill="white" transform="translate(0.692383)"/>
</clipPath>
</defs>
</svg>
