<svg width="15" height="15" viewBox="0 0 15 15" fill="none" xmlns="http://www.w3.org/2000/svg">
<rect x="1.26685" y="1.13281" width="12.75" height="12.75" rx="6.375" stroke="black" stroke-width="0.75"/>
<path d="M7.63285 5.02481C7.47685 5.02481 7.34485 4.97081 7.23685 4.86281C7.12885 4.75481 7.07485 4.62281 7.07485 4.46681C7.07485 4.31081 7.12885 4.17881 7.23685 4.07081C7.34485 3.96281 7.47685 3.90881 7.63285 3.90881C7.78285 3.90881 7.90885 3.96281 8.01085 4.07081C8.11885 4.17881 8.17285 4.31081 8.17285 4.46681C8.17285 4.62281 8.11885 4.75481 8.01085 4.86281C7.90885 4.97081 7.78285 5.02481 7.63285 5.02481ZM8.02885 5.82581V10.7578H7.20985V5.82581H8.02885Z" fill="#0B0B0B"/>
</svg>
