<svg width="201" height="211" viewBox="0 0 201 211" fill="none" xmlns="http://www.w3.org/2000/svg">
<g style="mix-blend-mode:multiply">
<path d="M192.963 139.703L129.393 196.293C139.671 192.614 142.959 192.409 161.876 179.672C177.102 169.419 188.945 148.754 192.963 139.703Z" fill="#747474"/>
</g>
<path d="M0.932495 100.194C0.932495 155.409 45.6931 200.17 100.908 200.17C110.946 200.17 120.639 198.691 129.78 195.938L192.749 139.76C197.984 127.626 200.884 114.249 200.884 100.194C200.884 44.9793 156.123 0.21875 100.908 0.21875C45.6931 0.21875 0.932495 44.9793 0.932495 100.194Z" fill="white"/>
<path d="M130.147 194.255C129.921 194.807 129.694 195.359 129.468 195.911C134.871 192.324 140.805 188.108 147.208 183.117C156.104 171.168 164.555 157.947 173.7 146.644C167.171 148.258 159.542 151.596 152.938 156.928C144.27 166.552 136.265 179.351 130.147 194.255ZM152.938 156.928C159.542 151.596 167.171 148.258 173.7 146.644C175.838 144.015 178.455 141.763 180.302 138.591C173.854 139.935 166.993 143.831 160.276 149.66C157.778 151.84 155.347 154.228 152.938 156.928ZM147.208 183.117C151.618 179.666 156.254 175.885 161.108 171.649C161.185 171.56 161.263 171.491 161.343 171.444C170.883 163.084 179.514 154.654 187.171 146.61C183.06 145.649 178.235 145.543 173.7 146.644C164.555 157.947 156.104 171.168 147.208 183.117ZM173.7 146.644C178.235 145.543 183.06 145.649 187.171 146.61C188.925 144.791 190.63 142.971 192.284 141.151C192.511 140.599 192.729 140.043 192.938 139.484C189.056 137.891 184.773 137.644 180.302 138.591C178.455 141.763 175.838 144.015 173.7 146.644Z" fill="#CC0000"/>
</svg>
