<svg width="64" height="87" viewBox="0 0 64 87" fill="none" xmlns="http://www.w3.org/2000/svg">
<g style="mix-blend-mode:multiply">
<path d="M63.5766 15.7031L0.00601196 72.293C10.2838 68.6141 13.5718 68.4092 32.4892 55.6716C47.7157 45.419 59.5585 24.7541 63.5766 15.7031Z" fill="#747474"/>
</g>
<path d="M18.2447 55.3602C22.7768 52.2016 27.5731 48.5468 32.556 44.3638C39.5438 38.4641 45.8301 32.5789 51.575 26.8341C47.3776 27.4091 40.6375 26.517 33.4008 27.7189C23.239 38.8463 14.3261 54.9611 4.38723 66.7243C8.61958 62.2333 13.2413 58.9301 18.2447 55.3602ZM4.38723 66.7243C14.3261 54.9611 23.239 38.8463 33.4008 27.7189C29.9825 28.3112 25.1672 30.0232 21.7945 31.9042C8.28832 46.9801 2.18526 67.8159 0.0598987 71.9624C1.91347 70.9092 2.29461 68.9492 4.38723 66.7243ZM51.575 26.8341C56.104 22.2835 59.3167 20.2764 63.2571 15.9074C60.3347 15.0707 57.718 10.2476 52.2167 10.8315C45.9086 15.0752 39.528 21.0427 33.4008 27.7189C40.6375 26.517 47.3776 27.4091 51.575 26.8341ZM33.4008 27.7189C39.528 21.0427 45.9086 15.0752 52.2167 10.8315C49.606 11.1507 46.5898 12.0895 43.0287 14.1349C42.7884 14.2782 42.5325 14.4352 42.2608 14.6058C35.1099 18.9873 27.4459 25.5769 21.7945 31.9042C25.1672 30.0232 29.9825 28.3112 33.4008 27.7189Z" fill="#FEE7EB"/>
<path d="M0.760416 70.254C0.533839 70.806 0.307271 71.358 0.0806935 71.91C5.4842 68.323 11.418 64.1071 17.821 59.1163C26.7175 47.1671 35.1681 33.9465 44.3133 22.6436C37.7845 24.257 30.1547 27.5953 23.5512 32.9271C14.8833 42.5514 6.87801 55.3502 0.760416 70.254ZM23.5512 32.9271C30.1547 27.5953 37.7845 24.257 44.3133 22.6436C46.4511 20.0139 49.0686 17.7625 50.9151 14.59C44.4667 15.9341 37.6059 19.8299 30.8888 25.6593C28.3914 27.8391 25.9597 30.2271 23.5512 32.9271ZM17.821 59.1163C22.2311 55.6657 26.8675 51.8848 31.721 47.6487C31.798 47.5594 31.8765 47.4908 31.9566 47.4431C41.4962 39.0837 50.1274 30.6537 57.7838 22.6097C53.6728 21.6479 48.8478 21.5419 44.3133 22.6436C35.1681 33.9465 26.7175 47.1671 17.821 59.1163ZM44.3133 22.6436C48.8478 21.5419 53.6728 21.6479 57.7838 22.6097C59.5385 20.7903 61.2431 18.9705 62.8975 17.1502C63.1241 16.5982 63.342 16.0426 63.5513 15.4835C59.6695 13.8902 55.3859 13.6436 50.9151 14.59C49.0686 17.7625 46.4511 20.0139 44.3133 22.6436Z" fill="#CC0000"/>
</svg>
