<svg width="14" height="16" viewBox="0 0 14 16" fill="none" xmlns="http://www.w3.org/2000/svg">
<path d="M7.03637 7.70725C8.09518 7.70725 9.01205 7.32747 9.7612 6.57819C10.5104 5.82907 10.8901 4.91245 10.8901 3.85352C10.8901 2.7949 10.5104 1.87818 9.76108 1.12878C9.0118 0.379748 8.09505 0 7.03637 0C5.9774 0 5.06075 0.379749 4.31163 1.1289C3.56251 1.87806 3.1826 2.7948 3.1826 3.85352C3.1826 4.91245 3.56248 5.8292 4.31175 6.57835C5.06103 7.32738 5.97778 7.70725 7.03637 7.70725ZM13.7794 12.3032C13.7577 11.9914 13.7141 11.6513 13.6497 11.2922C13.5848 10.9304 13.5012 10.5883 13.4011 10.2757C13.2977 9.95259 13.1571 9.63352 12.9833 9.32771C12.8028 9.01034 12.5909 8.73397 12.3531 8.50656C12.1044 8.26865 11.8 8.07737 11.4479 7.93781C11.0971 7.79906 10.7083 7.72875 10.2924 7.72875C10.1291 7.72875 9.97117 7.79575 9.66611 7.99437C9.44926 8.13558 9.23177 8.27579 9.01364 8.415C8.80405 8.54856 8.52011 8.67368 8.16939 8.78697C7.82724 8.89768 7.47984 8.95384 7.13693 8.95384C6.79406 8.95384 6.44674 8.89768 6.10421 8.78697C5.7539 8.67378 5.46997 8.54869 5.26059 8.41512C5.01778 8.25997 4.7981 8.11837 4.60753 7.99422C4.30285 7.79563 4.14475 7.72859 3.98144 7.72859C3.56541 7.72859 3.17676 7.79903 2.82604 7.93797C2.47423 8.07725 2.16967 8.26853 1.92076 8.50669C1.68311 8.73422 1.47108 9.01043 1.29089 9.32771C1.1172 9.63349 0.976579 9.95246 0.873048 10.2758C0.773049 10.5885 0.689455 10.9304 0.624518 11.2922C0.560174 11.6508 0.516487 11.991 0.494862 12.3035C0.47335 12.618 0.462688 12.9331 0.462894 13.2484C0.462894 14.0836 0.728393 14.7597 1.25195 15.2583C1.76904 15.7504 2.45323 16.0001 3.28526 16.0001H10.9894C11.8214 16.0001 12.5053 15.7506 13.0225 15.2584C13.5462 14.7601 13.8117 14.0838 13.8117 13.2482C13.8116 12.9259 13.8007 12.6079 13.7794 12.3032Z" fill="black"/>
</svg>
