<svg width="13" height="13" viewBox="0 0 13 13" fill="none" xmlns="http://www.w3.org/2000/svg">
<g clip-path="url(#clip0_4336_17861)">
<path d="M12.0671 6.66928C12.0671 9.98155 9.38194 12.6667 6.06967 12.6667C2.75739 12.6667 0.0722656 9.98155 0.0722656 6.66928C0.0722656 3.357 2.75739 0.671875 6.06967 0.671875C9.38194 0.671875 12.0671 3.357 12.0671 6.66928Z" fill="#CC0000"/>
<path fill-rule="evenodd" clip-rule="evenodd" d="M6.1638 2.07031L2.43152 5.79315C2.2815 5.94369 2.19727 6.14755 2.19727 6.36008C2.19727 6.5726 2.2815 6.77647 2.43152 6.92701C2.58206 7.07703 2.78592 7.16126 2.99845 7.16126C3.21098 7.16126 3.41484 7.07703 3.56538 6.92701L7.29766 3.19472L6.1638 2.07031Z" fill="white"/>
<path fill-rule="evenodd" clip-rule="evenodd" d="M6.16316 2.07031L9.88127 5.79315C10.0313 5.94369 10.1155 6.14755 10.1155 6.36008C10.1155 6.5726 10.0313 6.77647 9.88127 6.92701C9.73073 7.07703 9.52686 7.16126 9.31434 7.16126C9.10181 7.16126 8.89795 7.07703 8.74741 6.92701L5.0293 3.19472L6.16316 2.07031Z" fill="white"/>
<path fill-rule="evenodd" clip-rule="evenodd" d="M5.36133 3.67969V10.4923C5.37684 10.694 5.46793 10.8825 5.6164 11.02C5.76487 11.1575 5.95976 11.2339 6.16212 11.2339C6.36447 11.2339 6.55936 11.1575 6.70783 11.02C6.8563 10.8825 6.94739 10.694 6.9629 10.4923V3.67969H5.36133Z" fill="white"/>
</g>
<defs>
<clipPath id="clip0_4336_17861">
<rect width="12" height="12" fill="white" transform="translate(0.0703125 0.671875)"/>
</clipPath>
</defs>
</svg>
