<svg width="13" height="13" viewBox="0 0 13 13" fill="none" xmlns="http://www.w3.org/2000/svg">
<g clip-path="url(#clip0_4336_17875)">
<path d="M0.0735559 6.67447C0.0735559 3.3622 2.75868 0.677072 6.07096 0.677072C9.38323 0.677072 12.0684 3.3622 12.0684 6.67447C12.0684 9.98675 9.38323 12.6719 6.07096 12.6719C2.75868 12.6719 0.0735559 9.98675 0.0735559 6.67447Z" fill="#29CC6A"/>
<path fill-rule="evenodd" clip-rule="evenodd" d="M5.97682 11.2734L9.7091 7.5506C9.85912 7.40006 9.94336 7.1962 9.94336 6.98367C9.94336 6.77115 9.85912 6.56728 9.7091 6.41674C9.55856 6.26672 9.3547 6.18249 9.14217 6.18249C8.92965 6.18249 8.72578 6.26672 8.57525 6.41674L4.84296 10.149L5.97682 11.2734Z" fill="white"/>
<path fill-rule="evenodd" clip-rule="evenodd" d="M5.97747 11.2734L2.25936 7.5506C2.10934 7.40006 2.0251 7.1962 2.0251 6.98367C2.0251 6.77115 2.10934 6.56728 2.25936 6.41674C2.4099 6.26672 2.61376 6.18249 2.82629 6.18249C3.03882 6.18249 3.24268 6.26672 3.39322 6.41674L7.11133 10.149L5.97747 11.2734Z" fill="white"/>
<path fill-rule="evenodd" clip-rule="evenodd" d="M6.7793 9.66406L6.7793 2.85146C6.76379 2.64971 6.67269 2.46124 6.52423 2.32374C6.37576 2.18625 6.18086 2.10987 5.97851 2.10987C5.77616 2.10987 5.58126 2.18625 5.43279 2.32374C5.28433 2.46124 5.19323 2.64971 5.17772 2.85146L5.17772 9.66406H6.7793Z" fill="white"/>
</g>
<defs>
<clipPath id="clip0_4336_17875">
<rect width="12" height="12" fill="white" transform="matrix(-1 0 0 -1 12.0703 12.6719)"/>
</clipPath>
</defs>
</svg>
