<svg width="25" height="25" viewBox="0 0 25 25" fill="none" xmlns="http://www.w3.org/2000/svg">
<path d="M16.7017 14.2566L16.9088 14.2566L21.0194 14.2566C21.5906 14.2566 22.1687 14.1307 22.7103 13.8805L23.0989 13.6755L23.1103 13.6695L23.1219 13.6641C23.4825 13.4969 23.7021 13.1527 23.7021 12.7568C23.7021 12.356 23.4781 12.0148 23.1452 11.8606L23.1341 11.8555L23.1233 11.8499L22.6892 11.6226C22.1701 11.3834 21.593 11.257 21.0195 11.257L16.9088 11.257L16.7017 11.257L16.5553 11.1105L7.28797 1.84331L7.63716 1.49412L7.28797 1.8433C6.90972 1.46506 6.40992 1.25781 5.87467 1.25781L4.70366 1.25781L4.70378 1.25799L10.7423 10.6812L11.2015 11.3978L10.352 11.45C8.84995 11.5423 7.59601 11.6674 6.05847 11.8214L4.48398 11.9804L4.18322 12.0107L4.01659 11.7585L16.7017 14.2566ZM16.7017 14.2566L16.5552 14.4031M16.7017 14.2566L16.5552 14.4031M16.5552 14.4031L7.286 23.6733L16.5552 14.4031ZM4.70214 1.25547C4.70218 1.25552 4.70222 1.25558 4.70225 1.25563L4.70214 1.25547Z" stroke="#0B0B0B"/>
</svg>
