<svg width="18" height="18" viewBox="0 0 18 18" fill="none" xmlns="http://www.w3.org/2000/svg">
<path fill-rule="evenodd" clip-rule="evenodd" d="M3.78401 2.29289C3.39348 1.90237 2.76032 1.90237 2.3698 2.2929C1.97927 2.68342 1.97927 3.31659 2.3698 3.70711L7.58804 8.92532L2.36983 14.1436C1.97931 14.5341 1.97931 15.1672 2.36983 15.5578C2.76036 15.9483 3.39352 15.9483 3.78405 15.5578L9.00225 10.3395L14.2204 15.5577C14.611 15.9482 15.2441 15.9482 15.6347 15.5577C16.0252 15.1672 16.0252 14.534 15.6347 14.1435L10.4165 8.92531L15.6346 3.70711C16.0252 3.31659 16.0252 2.68342 15.6346 2.2929C15.2441 1.90238 14.6109 1.90238 14.2204 2.2929L9.00225 7.5111L3.78401 2.29289Z" fill="#CC0000"/>
</svg>
