<svg width="18" height="19" viewBox="0 0 18 19" fill="none" xmlns="http://www.w3.org/2000/svg">
<path d="M14.3431 3.06272H13.2022C13.2022 2.43373 12.6904 1.92188 12.0614 1.92188C11.4324 1.92188 10.9205 2.43373 10.9205 3.06272H6.35715C6.35715 2.43373 5.84529 1.92188 5.2163 1.92188C4.58732 1.92188 4.07546 2.43373 4.07546 3.06272H2.93461C1.88618 3.06272 1.0332 3.91569 1.0332 4.96413V15.9923C1.0332 17.0407 1.88618 17.8937 2.93461 17.8937H14.3431C15.3915 17.8937 16.2445 17.0407 16.2445 15.9923V4.96413C16.2445 3.91569 15.3915 3.06272 14.3431 3.06272ZM11.6811 3.06272C11.6855 2.96481 11.7275 2.87235 11.7983 2.80461C11.8691 2.73687 11.9634 2.69907 12.0614 2.69907C12.1594 2.69907 12.2536 2.73687 12.3245 2.80461C12.3953 2.87235 12.4373 2.96481 12.4417 3.06272V3.82328C12.4373 3.9212 12.3953 4.01365 12.3245 4.08139C12.2536 4.14913 12.1594 4.18693 12.0614 4.18693C11.9634 4.18693 11.8691 4.14913 11.7983 4.08139C11.7275 4.01365 11.6855 3.9212 11.6811 3.82328V3.06272ZM4.83602 3.06272C4.8404 2.96481 4.88238 2.87235 4.95322 2.80461C5.02405 2.73687 5.11829 2.69907 5.2163 2.69907C5.31432 2.69907 5.40855 2.73687 5.47939 2.80461C5.55023 2.87235 5.5922 2.96481 5.59658 3.06272V3.82328C5.5922 3.9212 5.55023 4.01365 5.47939 4.08139C5.40855 4.14913 5.31432 4.18693 5.2163 4.18693C5.11829 4.18693 5.02405 4.14913 4.95322 4.08139C4.88238 4.01365 4.8404 3.9212 4.83602 3.82328V3.06272ZM1.79377 4.96413C1.79377 4.33514 2.30563 3.82328 2.93461 3.82328H4.07546C4.07546 4.45227 4.58732 4.96413 5.2163 4.96413C5.84529 4.96413 6.35715 4.45227 6.35715 3.82328H10.9205C10.9205 4.45227 11.4324 4.96413 12.0614 4.96413C12.6904 4.96413 13.2022 4.45227 13.2022 3.82328H14.3431C14.9721 3.82328 15.4839 4.33514 15.4839 4.96413V6.48526H1.79377V4.96413ZM15.4839 15.9923C15.4839 16.6213 14.9721 17.1331 14.3431 17.1331H2.93461C2.30563 17.1331 1.79377 16.6213 1.79377 15.9923V7.24582H15.4839V15.9923Z" fill="black"/>
<path d="M4.07697 11.4276H5.21781C5.63727 11.4276 5.97838 11.0865 5.97838 10.667V9.52619C5.97838 9.10674 5.63727 8.76562 5.21781 8.76562H4.07697C3.65752 8.76562 3.31641 9.10674 3.31641 9.52619V10.667C3.31641 11.0865 3.65752 11.4276 4.07697 11.4276ZM4.07697 9.52619H5.21781L5.21858 10.667H4.07697V9.52619ZM8.06993 11.4276H9.21077C9.63022 11.4276 9.97134 11.0865 9.97134 10.667V9.52619C9.97134 9.10674 9.63022 8.76562 9.21077 8.76562H8.06993C7.65048 8.76562 7.30936 9.10674 7.30936 9.52619V10.667C7.30936 11.0865 7.65048 11.4276 8.06993 11.4276ZM8.06993 9.52619H9.21077L9.21153 10.667H8.06993V9.52619ZM12.0629 11.4276H13.2037C13.6232 11.4276 13.9643 11.0865 13.9643 10.667V9.52619C13.9643 9.10674 13.6232 8.76562 13.2037 8.76562H12.0629C11.6434 8.76562 11.3023 9.10674 11.3023 9.52619V10.667C11.3023 11.0865 11.6434 11.4276 12.0629 11.4276ZM12.0629 9.52619H13.2037L13.2045 10.667H12.0629V9.52619ZM4.07697 15.6107H5.21781C5.63727 15.6107 5.97838 15.2696 5.97838 14.8501V13.7093C5.97838 13.2898 5.63727 12.9487 5.21781 12.9487H4.07697C3.65752 12.9487 3.31641 13.2898 3.31641 13.7093V14.8501C3.31641 15.2696 3.65752 15.6107 4.07697 15.6107ZM4.07697 13.7093H5.21781L5.21858 14.8501H4.07697V13.7093ZM8.06993 15.6107H9.21077C9.63022 15.6107 9.97134 15.2696 9.97134 14.8501V13.7093C9.97134 13.2898 9.63022 12.9487 9.21077 12.9487H8.06993C7.65048 12.9487 7.30936 13.2898 7.30936 13.7093V14.8501C7.30936 15.2696 7.65048 15.6107 8.06993 15.6107ZM8.06993 13.7093H9.21077L9.21153 14.8501H8.06993V13.7093ZM12.0629 15.6107H13.2037C13.6232 15.6107 13.9643 15.2696 13.9643 14.8501V13.7093C13.9643 13.2898 13.6232 12.9487 13.2037 12.9487H12.0629C11.6434 12.9487 11.3023 13.2898 11.3023 13.7093V14.8501C11.3023 15.2696 11.6434 15.6107 12.0629 15.6107ZM12.0629 13.7093H13.2037L13.2045 14.8501H12.0629V13.7093Z" fill="black"/>
</svg>
