<svg width="25" height="25" viewBox="0 0 25 25" fill="none" xmlns="http://www.w3.org/2000/svg">
<g clip-path="url(#clip0_4060_21466)">
<path d="M17.6774 6.57289C17.6185 8.27592 17.1719 9.94307 16.3718 11.4476C15.5716 12.9521 14.4389 14.2543 13.0598 15.2553C11.6807 16.2562 10.0916 16.9295 8.41316 17.2239C6.73475 17.5184 5.01129 17.4262 3.37385 16.9545C3.21891 16.9091 3.05393 16.9111 2.90016 16.9603C2.74638 17.0095 2.61086 17.1036 2.51105 17.2305C2.41304 17.3536 2.35421 17.5032 2.34215 17.6601C2.3301 17.817 2.36539 17.9739 2.44345 18.1105C3.5221 20.0196 5.10438 21.5958 7.01765 22.6671C8.93093 23.7383 11.1017 24.2635 13.293 24.1853C18.807 23.9973 23.4822 20.0733 24.6242 14.6757C25.7662 9.27809 23.0798 3.79689 18.1142 1.39209C17.9729 1.32313 17.814 1.29816 17.6583 1.3204C17.5026 1.34265 17.3571 1.4111 17.2406 1.51689C17.1211 1.62435 17.0364 1.76509 16.9974 1.92103C16.9584 2.07698 16.9669 2.24102 17.0218 2.39209C17.5055 3.73101 17.728 5.1502 17.6774 6.57289ZM24.0658 12.8385C23.7022 18.6033 19.0378 23.1585 13.2658 23.3857C11.2227 23.4603 9.19845 22.9715 7.41452 21.9727C5.6306 20.9739 4.15578 19.5037 3.15145 17.7229C4.90594 18.2284 6.75262 18.3272 8.55103 18.0117C10.3494 17.6962 12.0522 16.9748 13.5299 15.9022C15.0075 14.8297 16.2212 13.4343 17.0784 11.8222C17.9357 10.2101 18.414 8.42368 18.477 6.59889C18.5309 5.0713 18.2887 3.54771 17.7638 2.11209C19.7581 3.07534 21.4216 4.60889 22.5435 6.51843C23.6654 8.42797 24.1952 10.6276 24.0658 12.8385Z" fill="black"/>
<path d="M22.288 10.2784C22.6728 12.2161 22.4739 14.2244 21.7164 16.0488C21.6764 16.1471 21.6771 16.2573 21.7183 16.3551C21.7595 16.4528 21.8379 16.5302 21.9362 16.5702C22.0345 16.6102 22.1446 16.6095 22.2424 16.5683C22.3402 16.5271 22.4176 16.4487 22.4576 16.3504C23.2747 14.3797 23.4885 12.2108 23.072 10.1184C23.0615 10.067 23.0409 10.0181 23.0115 9.97452C22.9821 9.93098 22.9444 9.89365 22.9006 9.86468C22.8568 9.83571 22.8077 9.81566 22.7561 9.80566C22.7045 9.79567 22.6515 9.79593 22.6 9.80644C22.5485 9.81694 22.4996 9.83749 22.4561 9.86689C22.4125 9.8963 22.3752 9.93399 22.3462 9.97782C22.3173 10.0216 22.2972 10.0708 22.2872 10.1223C22.2772 10.1739 22.2775 10.227 22.288 10.2784ZM21.686 8.35844C21.73 8.45349 21.8096 8.52746 21.9076 8.56446C22.0056 8.60146 22.1143 8.59853 22.2101 8.5563C22.306 8.51407 22.3815 8.43592 22.4204 8.33864C22.4592 8.24135 22.4584 8.1327 22.418 8.03604C22.2194 7.58198 21.9885 7.14272 21.7272 6.72164C21.6994 6.67699 21.6631 6.63825 21.6203 6.60763C21.5776 6.57702 21.5292 6.55512 21.478 6.5432C21.4268 6.53127 21.3737 6.52956 21.3218 6.53814C21.2699 6.54673 21.2202 6.56545 21.1756 6.59324C21.1309 6.62103 21.0922 6.65734 21.0616 6.70009C21.031 6.74285 21.0091 6.79122 20.9971 6.84244C20.9852 6.89367 20.9835 6.94673 20.9921 6.99862C21.0007 7.0505 21.0194 7.10019 21.0472 7.14484C21.2888 7.53363 21.5022 7.9392 21.686 8.35844ZM8.48398 12.1984C10.914 12.1984 12.884 10.2284 12.884 7.79844C12.884 5.36844 10.914 3.39844 8.48398 3.39844C6.05398 3.39844 4.08398 5.36844 4.08398 7.79844C4.08678 10.2272 6.05518 12.1956 8.48398 12.1984ZM8.48398 4.19844C9.196 4.19844 9.89202 4.40957 10.484 4.80515C11.0761 5.20072 11.5375 5.76296 11.81 6.42078C12.0824 7.07859 12.1537 7.80243 12.0148 8.50076C11.8759 9.19909 11.533 9.84055 11.0296 10.344C10.5261 10.8475 9.88464 11.1904 9.18631 11.3293C8.48798 11.4682 7.76414 11.3969 7.10632 11.1244C6.44851 10.8519 5.88627 10.3905 5.49069 9.79849C5.09512 9.20647 4.88398 8.51045 4.88398 7.79844C4.88515 6.84402 5.26481 5.92902 5.93969 5.25414C6.61456 4.57926 7.52956 4.1996 8.48398 4.19844Z" fill="black"/>
<path d="M6.08379 8.19531C6.18988 8.19531 6.29162 8.15317 6.36663 8.07816C6.44165 8.00314 6.48379 7.9014 6.48379 7.79531C6.48442 7.26507 6.69534 6.75674 7.07028 6.3818C7.44521 6.00687 7.95355 5.79595 8.48379 5.79531C8.58988 5.79531 8.69162 5.75317 8.76663 5.67816C8.84165 5.60314 8.88379 5.5014 8.88379 5.39531C8.88379 5.28923 8.84165 5.18748 8.76663 5.11247C8.69162 5.03746 8.58988 4.99531 8.48379 4.99531C7.74144 4.99616 7.02974 5.29143 6.50483 5.81635C5.97991 6.34127 5.68464 7.05297 5.68379 7.79531C5.68379 7.9014 5.72593 8.00314 5.80095 8.07816C5.87596 8.15317 5.9777 8.19531 6.08379 8.19531ZM8.48379 2.59531C8.58988 2.59531 8.69162 2.55317 8.76663 2.47816C8.84165 2.40314 8.88379 2.3014 8.88379 2.19531V0.595313C8.88379 0.489226 8.84165 0.387484 8.76663 0.31247C8.69162 0.237455 8.58988 0.195313 8.48379 0.195312C8.3777 0.195313 8.27596 0.237455 8.20095 0.31247C8.12593 0.387484 8.08379 0.489226 8.08379 0.595313V2.19531C8.08379 2.3014 8.12593 2.40314 8.20095 2.47816C8.27596 2.55317 8.3777 2.59531 8.48379 2.59531ZM8.88379 14.9953V13.3953C8.88379 13.2892 8.84165 13.1875 8.76663 13.1125C8.69162 13.0375 8.58988 12.9953 8.48379 12.9953C8.3777 12.9953 8.27596 13.0375 8.20095 13.1125C8.12593 13.1875 8.08379 13.2892 8.08379 13.3953V14.9953C8.08379 15.1014 8.12593 15.2031 8.20095 15.2782C8.27596 15.3532 8.3777 15.3953 8.48379 15.3953C8.58988 15.3953 8.69162 15.3532 8.76663 15.2782C8.84165 15.2031 8.88379 15.1014 8.88379 14.9953ZM13.6838 7.79531C13.6838 7.9014 13.7259 8.00314 13.8009 8.07816C13.876 8.15317 13.9777 8.19531 14.0838 8.19531H15.6838C15.7899 8.19531 15.8916 8.15317 15.9666 8.07816C16.0416 8.00314 16.0838 7.9014 16.0838 7.79531C16.0838 7.68923 16.0416 7.58748 15.9666 7.51247C15.8916 7.43746 15.7899 7.39531 15.6838 7.39531H14.0838C13.9777 7.39531 13.876 7.43746 13.8009 7.51247C13.7259 7.58748 13.6838 7.68923 13.6838 7.79531ZM1.28379 8.19531H2.88379C2.98988 8.19531 3.09162 8.15317 3.16663 8.07816C3.24165 8.00314 3.28379 7.9014 3.28379 7.79531C3.28379 7.68923 3.24165 7.58748 3.16663 7.51247C3.09162 7.43746 2.98988 7.39531 2.88379 7.39531H1.28379C1.1777 7.39531 1.07596 7.43746 1.00095 7.51247C0.925932 7.58748 0.883789 7.68923 0.883789 7.79531C0.883789 7.9014 0.925932 8.00314 1.00095 8.07816C1.07596 8.15317 1.1777 8.19531 1.28379 8.19531ZM4.24139 4.11851C4.31683 4.19138 4.41787 4.23169 4.52275 4.23078C4.62763 4.22987 4.72795 4.1878 4.80212 4.11364C4.87628 4.03948 4.91835 3.93915 4.91926 3.83427C4.92017 3.72939 4.87985 3.62835 4.80699 3.55291L3.67539 2.42131C3.59995 2.34845 3.49891 2.30813 3.39403 2.30904C3.28915 2.30995 3.18882 2.35202 3.11466 2.42619C3.0405 2.50035 2.99843 2.60067 2.99752 2.70555C2.99661 2.81043 3.03693 2.91147 3.10979 2.98691L4.24139 4.11851ZM13.575 13.2865C13.6541 13.2865 13.7314 13.263 13.7972 13.2191C13.8629 13.1751 13.9142 13.1127 13.9445 13.0396C13.9747 12.9665 13.9826 12.8861 13.9672 12.8085C13.9518 12.7309 13.9137 12.6597 13.8578 12.6037L12.7262 11.4721C12.6507 11.3992 12.5497 11.3589 12.4448 11.3598C12.34 11.3608 12.2396 11.4028 12.1655 11.477C12.0913 11.5511 12.0492 11.6515 12.0483 11.7564C12.0474 11.8612 12.0877 11.9623 12.1606 12.0377L13.2922 13.1693C13.3672 13.2443 13.4689 13.2865 13.575 13.2865ZM12.4438 4.23531C12.5499 4.23529 12.6516 4.19313 12.7266 4.11811L13.8582 2.98651C13.8964 2.94961 13.9269 2.90548 13.9478 2.85667C13.9688 2.80787 13.9798 2.75538 13.9803 2.70227C13.9808 2.64916 13.9706 2.59649 13.9505 2.54733C13.9304 2.49817 13.9007 2.45351 13.8631 2.41595C13.8256 2.3784 13.7809 2.3487 13.7318 2.32858C13.6826 2.30847 13.6299 2.29835 13.5768 2.29881C13.5237 2.29927 13.4712 2.31031 13.4224 2.33127C13.3736 2.35224 13.3295 2.38271 13.2926 2.42091L12.1606 3.55291C12.1048 3.6089 12.0668 3.68017 12.0515 3.75772C12.0361 3.83527 12.0441 3.91562 12.0744 3.98864C12.1047 4.06165 12.156 4.12405 12.2217 4.16795C12.2875 4.21186 12.3647 4.2353 12.4438 4.23531ZM3.67539 13.1693L4.80699 12.0377C4.87985 11.9623 4.92017 11.8612 4.91926 11.7564C4.91835 11.6515 4.87628 11.5511 4.80212 11.477C4.72795 11.4028 4.62763 11.3608 4.52275 11.3598C4.41787 11.3589 4.31683 11.3992 4.24139 11.4721L3.10979 12.6037C3.07158 12.6406 3.04111 12.6847 3.02015 12.7336C2.99918 12.7824 2.98815 12.8348 2.98769 12.888C2.98723 12.9411 2.99735 12.9937 3.01746 13.0429C3.03757 13.0921 3.06727 13.1367 3.10483 13.1743C3.14239 13.2118 3.18705 13.2415 3.23621 13.2616C3.28537 13.2818 3.33804 13.2919 3.39115 13.2914C3.44426 13.291 3.49675 13.2799 3.54555 13.259C3.59435 13.238 3.63849 13.2075 3.67539 13.1693Z" fill="black"/>
</g>
<defs>
<clipPath id="clip0_4060_21466">
<rect width="24" height="24" fill="white" transform="translate(0.883789 0.195312)"/>
</clipPath>
</defs>
</svg>
