<svg width="35" height="35" viewBox="0 0 35 35" fill="none" xmlns="http://www.w3.org/2000/svg">
<rect x="0.612305" y="0.664062" width="34" height="34" rx="17" fill="#F5F5F5"/>
<g clip-path="url(#clip0_4060_21585)">
<path fill-rule="evenodd" clip-rule="evenodd" d="M22.9753 11.1164C21.3966 9.53584 19.297 8.66499 17.0602 8.66406C12.4511 8.66406 8.69991 12.4151 8.69807 17.0254C8.69743 18.4992 9.08242 19.9379 9.81422 21.206L8.62793 25.5391L13.0608 24.3762C14.2822 25.0425 15.6574 25.3936 17.0568 25.394H17.0603C21.6689 25.394 25.4204 21.6427 25.4222 17.0321C25.4231 14.7977 24.5541 12.6969 22.9753 11.1164ZM17.0602 23.9818H17.0573C15.8102 23.9813 14.5871 23.6462 13.5198 23.013L13.2662 22.8623L10.6356 23.5524L11.3377 20.9877L11.1724 20.7248C10.4767 19.6181 10.1093 18.3392 10.1099 17.0259C10.1114 13.1939 13.2293 10.0763 17.0629 10.0763C18.9194 10.0769 20.6644 10.8008 21.9766 12.1145C23.2888 13.4282 24.011 15.1745 24.0104 17.0316C24.0087 20.8639 20.891 23.9818 17.0602 23.9818ZM20.8725 18.7765C20.6636 18.6718 19.6363 18.1665 19.4447 18.0967C19.2533 18.027 19.1139 17.9922 18.9748 18.2013C18.8354 18.4104 18.435 18.8811 18.3131 19.0205C18.1911 19.1599 18.0694 19.1774 17.8604 19.0728C17.6515 18.9682 16.9783 18.7475 16.1801 18.0357C15.5591 17.4817 15.1398 16.7975 15.0178 16.5884C14.8961 16.3791 15.0168 16.277 15.1095 16.162C15.3357 15.8811 15.5622 15.5867 15.6318 15.4473C15.7015 15.3078 15.6666 15.1858 15.6143 15.0813C15.5622 14.9767 15.1443 13.9483 14.9702 13.5298C14.8005 13.1226 14.6284 13.1775 14.5001 13.1712C14.3783 13.1651 14.239 13.1639 14.0996 13.1639C13.9603 13.1639 13.734 13.2161 13.5424 13.4254C13.3509 13.6346 12.8112 14.14 12.8112 15.1684C12.8112 16.1968 13.5599 17.1903 13.6644 17.3298C13.7688 17.4692 15.1377 19.5796 17.2336 20.4846C17.7321 20.7 18.1212 20.8285 18.4248 20.9248C18.9253 21.0838 19.3807 21.0614 19.7407 21.0076C20.1422 20.9475 20.9768 20.5021 21.1511 20.0141C21.3251 19.526 21.3251 19.1077 21.2728 19.0205C21.2207 18.9333 21.0814 18.8811 20.8725 18.7765Z" fill="black"/>
</g>
<defs>
<clipPath id="clip0_4060_21585">
<rect width="18" height="18" fill="white" transform="translate(8.6123 8.66406)"/>
</clipPath>
</defs>
</svg>
