<svg width="25" height="25" viewBox="0 0 25 25" fill="none" xmlns="http://www.w3.org/2000/svg">
<g clip-path="url(#clip0_4060_21486)">
<path d="M12.2021 18.3047C13.3887 18.3047 14.5488 17.9528 15.5355 17.2935C16.5222 16.6342 17.2912 15.6971 17.7453 14.6008C18.1995 13.5044 18.3183 12.298 18.0868 11.1341C17.8553 9.97026 17.2838 8.90116 16.4447 8.06205C15.6056 7.22293 14.5365 6.65149 13.3726 6.41998C12.2087 6.18846 11.0023 6.30728 9.90596 6.76141C8.8096 7.21554 7.87253 7.98457 7.21324 8.97127C6.55395 9.95796 6.20206 11.118 6.20206 12.3047C6.20385 13.8954 6.83656 15.4205 7.96139 16.5454C9.08622 17.6702 10.6113 18.3029 12.2021 18.3047ZM12.2021 7.05469C13.2404 7.05469 14.2554 7.36259 15.1188 7.93947C15.9822 8.51635 16.6551 9.33629 17.0524 10.2956C17.4498 11.2549 17.5538 12.3105 17.3512 13.3289C17.1486 14.3473 16.6486 15.2828 15.9144 16.017C15.1801 16.7512 14.2447 17.2512 13.2263 17.4538C12.2079 17.6564 11.1523 17.5524 10.193 17.1551C9.23366 16.7577 8.41372 16.0848 7.83684 15.2214C7.25997 14.3581 6.95206 13.343 6.95206 12.3047C6.95365 10.9128 7.50728 9.57835 8.4915 8.59413C9.47573 7.60991 10.8102 7.05628 12.2021 7.05469ZM12.2021 5.04581C12.3015 5.04581 12.3969 5.0063 12.4672 4.93598C12.5376 4.86565 12.5771 4.77027 12.5771 4.67081V1.05469C12.5771 0.955231 12.5376 0.859849 12.4672 0.789522C12.3969 0.719196 12.3015 0.679688 12.2021 0.679688C12.1026 0.679688 12.0072 0.719196 11.9369 0.789522C11.8666 0.859849 11.8271 0.955231 11.8271 1.05469V4.67081C11.8271 4.77027 11.8666 4.86565 11.9369 4.93598C12.0072 5.0063 12.1026 5.04581 12.2021 5.04581ZM8.06019 5.88094C8.10991 5.96712 8.19184 6.03001 8.28794 6.05579C8.38404 6.08156 8.48644 6.0681 8.57262 6.01837C8.6588 5.96865 8.7217 5.88672 8.74747 5.79062C8.77325 5.69452 8.75979 5.59212 8.71006 5.50594L7.66794 3.70144C7.64349 3.65845 7.61079 3.62071 7.5717 3.59041C7.53262 3.56011 7.48792 3.53784 7.4402 3.52488C7.39247 3.51193 7.34265 3.50854 7.29361 3.51491C7.24456 3.52129 7.19727 3.5373 7.15444 3.56203C7.11161 3.58675 7.07409 3.61971 7.04405 3.659C7.01401 3.69828 6.99204 3.74312 6.9794 3.79093C6.96676 3.83874 6.9637 3.88859 6.9704 3.93758C6.9771 3.98658 6.99342 4.03377 7.01844 4.07644L8.06019 5.88094ZM2.27169 7.00444L5.40331 8.81231C5.44597 8.83732 5.49316 8.85365 5.54216 8.86035C5.59116 8.86705 5.641 8.86399 5.68882 8.85135C5.73663 8.83871 5.78147 8.81674 5.82075 8.7867C5.86004 8.75665 5.89299 8.71914 5.91772 8.67631C5.94245 8.63348 5.95846 8.58618 5.96484 8.53714C5.97121 8.4881 5.96782 8.43828 5.95486 8.39055C5.94191 8.34283 5.91964 8.29813 5.88934 8.25905C5.85904 8.21996 5.8213 8.18726 5.77831 8.16281L2.64669 6.35494C2.60402 6.32993 2.55683 6.3136 2.50783 6.3069C2.45883 6.3002 2.40899 6.30326 2.36118 6.3159C2.31337 6.32854 2.26853 6.35051 2.22924 6.38056C2.18996 6.4106 2.157 6.44811 2.13227 6.49094C2.10755 6.53377 2.09153 6.58107 2.08516 6.63011C2.07878 6.67915 2.08217 6.72897 2.09513 6.7767C2.10809 6.82442 2.13036 6.86912 2.16066 6.9082C2.19096 6.94729 2.22869 6.97999 2.27169 7.00444ZM2.48431 11.9297C2.38485 11.9297 2.28947 11.9692 2.21915 12.0395C2.14882 12.1098 2.10931 12.2052 2.10931 12.3047C2.10931 12.4041 2.14882 12.4995 2.21915 12.5699C2.28947 12.6402 2.38485 12.6797 2.48431 12.6797H4.56819C4.66764 12.6797 4.76302 12.6402 4.83335 12.5699C4.90368 12.4995 4.94319 12.4041 4.94319 12.3047C4.94319 12.2052 4.90368 12.1098 4.83335 12.0395C4.76302 11.9692 4.66764 11.9297 4.56819 11.9297H2.48431ZM2.64669 18.2544L5.77831 16.4466C5.82098 16.4219 5.85839 16.3892 5.88839 16.3501C5.91839 16.311 5.9404 16.2664 5.95316 16.2188C5.96592 16.1712 5.96919 16.1216 5.96277 16.0727C5.95635 16.0239 5.94037 15.9768 5.91575 15.9341C5.89113 15.8915 5.85834 15.854 5.81926 15.824C5.78018 15.794 5.73558 15.772 5.68799 15.7593C5.64041 15.7465 5.59078 15.7432 5.54193 15.7497C5.49309 15.7561 5.44598 15.7721 5.40331 15.7967L2.27169 17.6049C2.18626 17.655 2.12411 17.7369 2.0988 17.8326C2.07349 17.9283 2.08707 18.0302 2.13658 18.1159C2.1861 18.2017 2.26752 18.2644 2.36309 18.2903C2.45865 18.3163 2.5606 18.3034 2.64669 18.2544ZM8.06019 18.7284L7.01844 20.5333C6.99342 20.576 6.9771 20.6232 6.9704 20.6722C6.9637 20.7212 6.96676 20.771 6.9794 20.8188C6.99204 20.8666 7.01401 20.9115 7.04405 20.9508C7.07409 20.99 7.11161 21.023 7.15444 21.0477C7.19727 21.0725 7.24456 21.0885 7.29361 21.0948C7.34265 21.1012 7.39247 21.0978 7.4402 21.0849C7.48792 21.0719 7.53262 21.0496 7.5717 21.0193C7.61079 20.989 7.64349 20.9513 7.66794 20.9083L8.70969 19.1034C8.75863 19.0174 8.77154 18.9154 8.74559 18.8198C8.71965 18.7243 8.65695 18.6428 8.5712 18.5933C8.48544 18.5438 8.38358 18.5302 8.28784 18.5555C8.19211 18.5809 8.11027 18.643 8.06019 18.7284ZM11.8271 19.9386V23.5547C11.8271 23.6541 11.8666 23.7495 11.9369 23.8199C12.0072 23.8902 12.1026 23.9297 12.2021 23.9297C12.3015 23.9297 12.3969 23.8902 12.4672 23.8199C12.5376 23.7495 12.5771 23.6541 12.5771 23.5547V19.9386C12.5771 19.8391 12.5376 19.7437 12.4672 19.6734C12.3969 19.6031 12.3015 19.5636 12.2021 19.5636C12.1026 19.5636 12.0072 19.6031 11.9369 19.6734C11.8666 19.7437 11.8271 19.8391 11.8271 19.9386ZM15.8317 18.5912C15.789 18.6158 15.7516 18.6485 15.7216 18.6876C15.6916 18.7266 15.6695 18.7712 15.6568 18.8188C15.644 18.8664 15.6407 18.916 15.6471 18.9648C15.6535 19.0137 15.6695 19.0608 15.6941 19.1034L16.7362 20.9079C16.7863 20.9934 16.8681 21.0555 16.9638 21.0808C17.0596 21.1061 17.1614 21.0926 17.2472 21.043C17.333 20.9935 17.3956 20.9121 17.4216 20.8165C17.4475 20.721 17.4346 20.619 17.3857 20.5329L16.3439 18.7284C16.2942 18.6423 16.2123 18.5795 16.1162 18.5537C16.0202 18.528 15.9178 18.5415 15.8317 18.5912ZM18.6258 16.4466L21.7574 18.2544C21.8001 18.2794 21.8473 18.2958 21.8963 18.3025C21.9453 18.3092 21.9951 18.3061 22.0429 18.2935C22.0908 18.2808 22.1356 18.2589 22.1749 18.2288C22.2142 18.1988 22.2471 18.1613 22.2718 18.1184C22.2966 18.0756 22.3126 18.0283 22.319 17.9793C22.3253 17.9302 22.3219 17.8804 22.309 17.8327C22.296 17.785 22.2738 17.7403 22.2435 17.7012C22.2132 17.6621 22.1754 17.6294 22.1324 17.6049L19.0008 15.7971C18.9147 15.7481 18.8128 15.7352 18.7172 15.7612C18.6216 15.7871 18.5402 15.8498 18.4907 15.9356C18.4412 16.0213 18.4276 16.1232 18.4529 16.2189C18.4782 16.3146 18.5404 16.3965 18.6258 16.4466ZM21.9198 11.9297H19.8359C19.7365 11.9297 19.6411 11.9692 19.5708 12.0395C19.5004 12.1098 19.4609 12.2052 19.4609 12.3047C19.4609 12.4041 19.5004 12.4995 19.5708 12.5699C19.6411 12.6402 19.7365 12.6797 19.8359 12.6797H21.9198C22.0193 12.6797 22.1147 12.6402 22.185 12.5699C22.2553 12.4995 22.2948 12.4041 22.2948 12.3047C22.2948 12.2052 22.2553 12.1098 22.185 12.0395C22.1147 11.9692 22.0193 11.9297 21.9198 11.9297ZM19.0008 8.81269L22.1324 7.00444C22.1754 6.97999 22.2132 6.94729 22.2435 6.9082C22.2738 6.86912 22.296 6.82442 22.309 6.7767C22.3219 6.72897 22.3253 6.67915 22.319 6.63011C22.3126 6.58107 22.2966 6.53377 22.2718 6.49094C22.2471 6.44811 22.2142 6.4106 22.1749 6.38056C22.1356 6.35051 22.0908 6.32854 22.0429 6.3159C21.9951 6.30326 21.9453 6.3002 21.8963 6.3069C21.8473 6.3136 21.8001 6.32993 21.7574 6.35494L18.6258 8.16281C18.5831 8.18744 18.5457 8.22022 18.5157 8.2593C18.4857 8.29838 18.4637 8.34298 18.451 8.39057C18.4382 8.43815 18.4349 8.48778 18.4414 8.53663C18.4478 8.58548 18.4638 8.63258 18.4884 8.67525C18.513 8.71792 18.5458 8.75532 18.5849 8.78533C18.6239 8.81533 18.6685 8.83734 18.7161 8.8501C18.7637 8.86286 18.8133 8.86613 18.8622 8.85971C18.911 8.85329 18.9581 8.83731 19.0008 8.81269ZM15.8317 6.01819C15.9178 6.06791 16.0202 6.08139 16.1162 6.05565C16.2123 6.02991 16.2942 5.96706 16.3439 5.88094L17.3857 4.07644C17.4107 4.03377 17.427 3.98658 17.4337 3.93758C17.4404 3.88859 17.4374 3.83874 17.4247 3.79093C17.4121 3.74312 17.3901 3.69828 17.3601 3.659C17.33 3.61971 17.2925 3.58675 17.2497 3.56203C17.2069 3.5373 17.1596 3.52129 17.1105 3.51491C17.0615 3.50854 17.0117 3.51193 16.9639 3.52488C16.9162 3.53784 16.8715 3.56011 16.8324 3.59041C16.7933 3.62071 16.7606 3.65845 16.7362 3.70144L15.6944 5.50594C15.6447 5.59207 15.6312 5.69442 15.657 5.79049C15.6827 5.88655 15.7456 5.96846 15.8317 6.01819Z" fill="black"/>
</g>
<defs>
<clipPath id="clip0_4060_21486">
<rect width="24" height="24" fill="white" transform="translate(0.202148 0.304688)"/>
</clipPath>
</defs>
</svg>
