<svg width="19" height="19" viewBox="0 0 19 19" fill="none" xmlns="http://www.w3.org/2000/svg">
<g clip-path="url(#clip0_4211_25715)">
<path d="M16.342 17.2612V7.63281H11.3921C11.0677 7.63281 10.7662 7.79745 10.5941 8.0685L9.64228 9.56781C9.47019 9.83887 9.16865 10.0035 8.84427 10.0035H1.69531V17.2613C1.69531 17.934 2.24857 18.4794 2.93109 18.4794H15.1063C15.7888 18.4794 16.342 17.934 16.342 17.2612Z" fill="white"/>
<path d="M9.05469 15.3594L9.06313 15.6542L9.05469 15.3594Z" fill="white"/>
<path d="M1.42969 4.02027V17.2649C1.42969 18.0834 2.10356 18.7492 2.93184 18.7492H15.1071C15.9353 18.7492 16.6091 18.0834 16.6091 17.2649V6.60654C16.6091 5.94384 16.064 5.40479 15.3938 5.40479H14.1744V2.40171C14.1744 1.72358 13.6164 1.17188 12.9307 1.17188H5.10812C4.42236 1.17188 3.8644 1.72358 3.8644 2.40171V3.03407H2.42633C1.87677 3.03407 1.42969 3.47654 1.42969 4.02027ZM16.0765 17.2649C16.0765 17.7897 15.6416 18.2166 15.1071 18.2166H2.93184C2.39729 18.2166 1.96234 17.7897 1.96234 17.2649V10.2733H8.84498C9.26303 10.2733 9.64553 10.0644 9.86796 9.71418L10.8195 8.2149C10.9436 8.0195 11.1581 7.90282 11.3929 7.90282H16.0765V17.2649ZM15.3938 5.93745C15.7702 5.93745 16.0765 6.23757 16.0765 6.60654V7.37013H14.1744V5.93745H15.3938ZM5.10812 1.70453H12.9307C13.3227 1.70453 13.6418 2.01731 13.6418 2.40171V7.37013H11.3929C11.1168 7.36987 10.849 7.46416 10.6339 7.63732H6.40539C6.25836 7.63732 6.13908 7.75661 6.13908 7.90363C6.13908 8.05065 6.25836 8.16994 6.40539 8.16994H10.2172L9.41835 9.42857C9.29421 9.62396 9.07972 9.74065 8.84495 9.74065H4.39705V2.40171C4.39705 2.01731 4.71609 1.70453 5.10812 1.70453ZM3.8644 9.74068H1.96234V4.02027C1.96234 3.77024 2.1705 3.56668 2.42633 3.56668H3.8644V9.74068Z" fill="black"/>
<path d="M5.67842 3.98574H12.362C12.509 3.98574 12.6283 3.86646 12.6283 3.71943C12.6283 3.57241 12.509 3.45312 12.362 3.45312H5.67842C5.53139 3.45312 5.41211 3.57241 5.41211 3.71943C5.41211 3.86646 5.53139 3.98574 5.67842 3.98574ZM9.26478 5.54468H6.30937C6.16234 5.54468 6.04306 5.66396 6.04306 5.81098C6.04306 5.95801 6.16234 6.07729 6.30937 6.07729H9.26478C9.3354 6.07727 9.40313 6.04921 9.45307 5.99927C9.503 5.94933 9.53107 5.88161 9.53109 5.81098C9.53106 5.74036 9.50299 5.67264 9.45306 5.62271C9.40312 5.57277 9.3354 5.5447 9.26478 5.54468ZM11.7309 5.54468H10.2349C10.0879 5.54468 9.96857 5.66396 9.96857 5.81098C9.96857 5.95801 10.0879 6.07729 10.2349 6.07729H11.7309C11.8015 6.07727 11.8692 6.04921 11.9192 5.99927C11.9691 5.94933 11.9972 5.88161 11.9972 5.81098C11.9972 5.74036 11.9691 5.67264 11.9192 5.62271C11.8692 5.57277 11.8015 5.5447 11.7309 5.54468ZM9.021 10.8367C7.21742 10.8367 5.75003 12.3032 5.75003 14.1059C5.75003 15.9086 7.21742 17.3753 9.021 17.3753C10.8237 17.3753 12.2902 15.9086 12.2902 14.1059C12.2902 12.3032 10.8237 10.8367 9.021 10.8367ZM9.021 16.8426C7.51115 16.8426 6.28268 15.6149 6.28268 14.1059C6.28268 12.5969 7.51115 11.3693 9.021 11.3693C10.53 11.3693 11.7576 12.5969 11.7576 14.1059C11.7576 15.6149 10.53 16.8426 9.021 16.8426Z" fill="black"/>
</g>
<defs>
<clipPath id="clip0_4211_25715">
<rect width="18" height="18" fill="white" transform="translate(0.0195312 0.960938)"/>
</clipPath>
</defs>
</svg>
