<svg width="17" height="17" viewBox="0 0 17 17" fill="none" xmlns="http://www.w3.org/2000/svg">
<g clip-path="url(#clip0_4228_28632)">
<path d="M11.4508 15.8015H4.61841C4.33723 15.8011 4.06677 15.6936 3.86213 15.5007C3.65748 15.3079 3.53406 15.0443 3.517 14.7636L2.90273 4.57294C2.90096 4.54347 2.90524 4.51396 2.91531 4.48621C2.92538 4.45846 2.94103 4.43307 2.96129 4.41159C2.98154 4.39012 3.00598 4.37303 3.0331 4.36136C3.06021 4.34969 3.08943 4.3437 3.11895 4.34375H12.9507C12.9803 4.3437 13.0095 4.34969 13.0366 4.36136C13.0637 4.37303 13.0881 4.39012 13.1084 4.41159C13.1287 4.43307 13.1443 4.45846 13.1544 4.48621C13.1644 4.51396 13.1687 4.54347 13.167 4.57294L12.5514 14.7636C12.5343 15.0442 12.411 15.3076 12.2066 15.5004C12.0021 15.6932 11.7319 15.8009 11.4508 15.8015ZM3.34814 4.77618L3.94944 14.7386C3.95998 14.909 4.035 15.069 4.15925 15.1861C4.2835 15.3032 4.44767 15.3686 4.61841 15.369H11.4508C11.6218 15.3689 11.7864 15.3036 11.9109 15.1864C12.0354 15.0693 12.1106 14.909 12.1211 14.7383L12.7224 4.77597L3.34814 4.77618Z" fill="#CC0000"/>
<path d="M13.5798 4.7731H2.48965C2.43231 4.7731 2.37731 4.75032 2.33677 4.70977C2.29622 4.66922 2.27344 4.61423 2.27344 4.55689V3.64078C2.2739 3.23062 2.43703 2.83739 2.72706 2.54737C3.01708 2.25734 3.41031 2.09421 3.82046 2.09375H12.2492C12.6594 2.09421 13.0526 2.25734 13.3426 2.54737C13.6327 2.83739 13.7958 3.23062 13.7962 3.64078V4.55689C13.7962 4.5853 13.7906 4.61343 13.7798 4.63968C13.7689 4.66592 13.7529 4.68977 13.7328 4.70985C13.7127 4.72993 13.6889 4.74585 13.6626 4.75671C13.6364 4.76756 13.6082 4.77313 13.5798 4.7731ZM2.70565 4.34067H13.3636V3.64078C13.3633 3.34527 13.2457 3.06197 13.0368 2.85302C12.8278 2.64407 12.5445 2.52653 12.249 2.52618H3.82025C3.52474 2.52653 3.24144 2.64407 3.03249 2.85302C2.82354 3.06197 2.706 3.34527 2.70565 3.64078V4.34067Z" fill="#CC0000"/>
<path d="M10.0311 2.52698H6.0389C5.98156 2.52698 5.92656 2.5042 5.88601 2.46365C5.84547 2.4231 5.82269 2.36811 5.82269 2.31077V1.54558C5.82297 1.31187 5.91594 1.08782 6.08119 0.922568C6.24645 0.757314 6.4705 0.664349 6.7042 0.664062H9.36582C9.59953 0.664349 9.82358 0.757314 9.98883 0.922568C10.1541 1.08782 10.247 1.31187 10.2473 1.54558V2.31077C10.2473 2.36811 10.2246 2.4231 10.184 2.46365C10.1435 2.5042 10.0885 2.52698 10.0311 2.52698ZM6.25512 2.09455H9.8149V1.54558C9.81479 1.42651 9.76744 1.31235 9.68324 1.22815C9.59905 1.14396 9.48489 1.09661 9.36582 1.09649H6.7042C6.58513 1.09661 6.47097 1.14396 6.38678 1.22815C6.30258 1.31235 6.25523 1.42651 6.25512 1.54558V2.09455ZM10.2112 13.5806C10.1539 13.5806 10.0989 13.5578 10.0583 13.5173C10.0178 13.4767 9.99501 13.4217 9.99501 13.3644V6.96936C9.99501 6.91202 10.0178 6.85702 10.0583 6.81647C10.0989 6.77592 10.1539 6.75314 10.2112 6.75314C10.2686 6.75314 10.3236 6.77592 10.3641 6.81647C10.4047 6.85702 10.4274 6.91202 10.4274 6.96936V13.3644C10.4274 13.4217 10.4047 13.4767 10.3641 13.5173C10.3236 13.5578 10.2686 13.5806 10.2112 13.5806ZM8.03501 13.5806C7.97767 13.5806 7.92267 13.5578 7.88212 13.5173C7.84157 13.4767 7.81879 13.4217 7.81879 13.3644V6.96936C7.81879 6.91202 7.84157 6.85702 7.88212 6.81647C7.92267 6.77592 7.97767 6.75314 8.03501 6.75314C8.09235 6.75314 8.14735 6.77592 8.1879 6.81647C8.22845 6.85702 8.25123 6.91202 8.25123 6.96936V13.3644C8.25123 13.4217 8.22845 13.4767 8.1879 13.5173C8.14735 13.5578 8.09235 13.5806 8.03501 13.5806ZM5.85879 13.5806C5.80145 13.5806 5.74646 13.5578 5.70591 13.5173C5.66536 13.4767 5.64258 13.4217 5.64258 13.3644V6.96936C5.64258 6.91202 5.66536 6.85702 5.70591 6.81647C5.74646 6.77592 5.80145 6.75314 5.85879 6.75314C5.91614 6.75314 5.97113 6.77592 6.01168 6.81647C6.05223 6.85702 6.07501 6.91202 6.07501 6.96936V13.3644C6.07501 13.4217 6.05223 13.4767 6.01168 13.5173C5.97113 13.5578 5.91614 13.5806 5.85879 13.5806Z" fill="#CC0000"/>
</g>
<defs>
<clipPath id="clip0_4228_28632">
<rect width="16" height="16" fill="white" transform="translate(0.0351562 0.234375)"/>
</clipPath>
</defs>
</svg>
