<svg width="26" height="26" viewBox="0 0 26 26" fill="none" xmlns="http://www.w3.org/2000/svg">
<rect x="7.5" y="7.5" width="11" height="11" rx="5.5" stroke="#0B0B0B"/>
<path d="M12.6136 16V11.6364H13.2841V16H12.6136ZM12.9545 10.9091C12.8239 10.9091 12.7112 10.8646 12.6165 10.7756C12.5237 10.6866 12.4773 10.5795 12.4773 10.4545C12.4773 10.3295 12.5237 10.2225 12.6165 10.1335C12.7112 10.0445 12.8239 10 12.9545 10C13.0852 10 13.197 10.0445 13.2898 10.1335C13.3845 10.2225 13.4318 10.3295 13.4318 10.4545C13.4318 10.5795 13.3845 10.6866 13.2898 10.7756C13.197 10.8646 13.0852 10.9091 12.9545 10.9091Z" fill="#0B0B0B"/>
</svg>
