<svg width="35" height="35" viewBox="0 0 35 35" fill="none" xmlns="http://www.w3.org/2000/svg">
<rect x="0.612305" y="0.664062" width="34" height="34" rx="17" fill="#F5F5F5"/>
<g clip-path="url(#clip0_4060_21580)">
<path d="M25.168 20.479C24.066 20.479 22.9839 20.3066 21.9585 19.9678C21.4561 19.7964 20.8384 19.9536 20.5317 20.2686L18.5078 21.7964C16.1606 20.5435 14.7148 19.0982 13.479 16.7686L14.9619 14.7974C15.3472 14.4127 15.4854 13.8506 15.3198 13.3233C14.9795 12.2925 14.8066 11.211 14.8066 10.1085C14.8066 9.31202 14.1587 8.66406 13.3623 8.66406H10.0567C9.26026 8.66406 8.6123 9.31202 8.6123 10.1084C8.6123 19.2373 16.0391 26.6641 25.168 26.6641C25.9644 26.6641 26.6124 26.0161 26.6124 25.2197V21.9233C26.6123 21.127 25.9644 20.479 25.168 20.479Z" fill="black"/>
</g>
<defs>
<clipPath id="clip0_4060_21580">
<rect width="18" height="18" fill="white" transform="translate(8.6123 8.66406)"/>
</clipPath>
</defs>
</svg>
