<svg width="16" height="22" viewBox="0 0 16 22" fill="none" xmlns="http://www.w3.org/2000/svg">
<path fill-rule="evenodd" clip-rule="evenodd" d="M15.3305 18.8082C15.7592 18.3796 16 17.7982 16 17.192V5.19196C15.9995 4.88123 15.9358 4.57379 15.8128 4.28839C15.6898 4.00305 15.5101 3.74561 15.2846 3.53186C15.059 3.31805 14.7924 3.1524 14.5008 3.0448C14.2093 2.93732 13.8989 2.89014 13.5886 2.90625L13.2337 1.48682C13.172 1.23944 13.0294 1.01984 12.8285 0.862854C12.6277 0.705933 12.3801 0.620605 12.1251 0.620544H3.87485C3.61993 0.620605 3.37234 0.705933 3.17148 0.862854C2.97061 1.01984 2.82797 1.23944 2.7663 1.48682L2.41144 2.90625C2.10107 2.89008 1.79065 2.93713 1.49908 3.04468C1.20749 3.15216 0.940796 3.31787 0.71524 3.53168C0.489685 3.74548 0.309967 4.00293 0.187012 4.28833C0.0640564 4.57373 0.000427246 4.88116 0 5.19196V17.192C0 17.7982 0.240814 18.3796 0.669464 18.8082C1.09814 19.2369 1.6795 19.4777 2.28571 19.4777H2.85715V20.6205C2.85715 20.7721 2.91736 20.9174 3.02451 21.0246C3.13168 21.1318 3.27701 21.192 3.42856 21.192C3.58011 21.192 3.72546 21.1318 3.83264 21.0246C3.93979 20.9174 4 20.7721 4 20.6205V19.4777H12V20.6205C12 20.7721 12.0602 20.9174 12.1674 21.0246C12.2745 21.1318 12.4199 21.192 12.5714 21.192C12.723 21.192 12.8683 21.1318 12.9755 21.0246C13.0827 20.9174 13.1429 20.7721 13.1429 20.6205V19.4777H13.7143C14.3205 19.4777 14.9019 19.2369 15.3305 18.8082ZM12.4106 2.90851L12.1254 1.76562H3.87457L3.58887 2.90851H12.4106ZM1.14258 6.90851H7.42828V10.3371H1.14258V6.90851ZM3.99973 14.3326V14.904C3.99973 15.0556 3.93951 15.2009 3.83234 15.3081C3.72519 15.4152 3.57983 15.4754 3.42828 15.4754H1.14258V13.7612H3.42828C3.57983 13.7612 3.72519 13.8214 3.83234 13.9285C3.93951 14.0357 3.99973 14.181 3.99973 14.3326ZM11.9997 14.3326V14.904C11.9997 15.0556 12.0599 15.2009 12.1671 15.3081C12.2743 15.4152 12.4196 15.4754 12.5711 15.4754H14.8569V13.7612H12.5711C12.4196 13.7612 12.2743 13.8214 12.1671 13.9285C12.0599 14.0357 11.9997 14.181 11.9997 14.3326ZM2.28543 4.04688H13.714C14.0171 4.04688 14.3078 4.1673 14.5221 4.38159C14.7365 4.59595 14.8569 4.8866 14.8569 5.1897V5.76117H1.14258V5.1897C1.14258 4.8866 1.263 4.59595 1.47729 4.38159C1.69165 4.1673 1.98233 4.04688 2.28543 4.04688ZM1.14258 12.6205H3.42828C3.88293 12.6205 4.31897 12.8011 4.64047 13.1226C4.96198 13.4441 5.14258 13.8802 5.14258 14.3348V14.9062C5.14258 15.3609 4.96198 15.7969 4.64047 16.1184C4.31897 16.4399 3.88293 16.6205 3.42828 16.6205H1.14258V17.192C1.14258 17.4951 1.263 17.7858 1.47729 18.0001C1.69165 18.2144 1.98233 18.3348 2.28543 18.3348H13.714C14.0171 18.3348 14.3078 18.2144 14.5221 18.0001C14.7365 17.7858 14.8569 17.4951 14.8569 17.192V16.6205H12.5711C12.1165 16.6205 11.6805 16.4399 11.359 16.1184C11.0375 15.7969 10.8569 15.3609 10.8569 14.9062V14.3348C10.8569 13.8802 11.0375 13.4441 11.359 13.1226C11.6805 12.8011 12.1165 12.6205 12.5711 12.6205H14.8569V11.4777H1.14258V12.6205ZM14.8569 6.90625H8.57111V10.3348H14.8569V6.90625Z" fill="white"/>
</svg>
