<svg width="35" height="35" viewBox="0 0 35 35" fill="none" xmlns="http://www.w3.org/2000/svg">
<rect x="0.612305" y="0.664062" width="34" height="34" rx="17" fill="#F5F5F5"/>
<g clip-path="url(#clip0_4060_21590)">
<path d="M25.0303 11.3359H10.1943C9.32025 11.3359 8.6123 12.0483 8.6123 12.918V22.4102C8.6123 23.285 9.32545 23.9922 10.1943 23.9922H25.0303C25.8971 23.9922 26.6123 23.288 26.6123 22.4102V12.918C26.6123 12.0498 25.9072 11.3359 25.0303 11.3359ZM24.8087 12.3906L18.731 18.4363C18.4321 18.7352 18.0349 18.8997 17.6123 18.8997C17.1897 18.8997 16.7925 18.7351 16.4926 18.4354L10.4159 12.3906H24.8087ZM9.66699 22.1955V13.1333L14.2246 17.6669L9.66699 22.1955ZM10.4166 22.9375L14.9724 18.4107L15.7479 19.1821C16.2459 19.6801 16.908 19.9544 17.6123 19.9544C18.3166 19.9544 18.9787 19.6801 19.4758 19.1831L20.2523 18.4107L24.8081 22.9375H10.4166ZM25.5576 22.1955L21 17.6669L25.5576 13.1333V22.1955Z" fill="black"/>
</g>
<defs>
<clipPath id="clip0_4060_21590">
<rect width="18" height="18" fill="white" transform="translate(8.6123 8.66406)"/>
</clipPath>
</defs>
</svg>
