<svg width="56" height="56" viewBox="0 0 56 56" fill="none" xmlns="http://www.w3.org/2000/svg">
<path d="M9.55078 8.42188C6.22672 8.42188 3.53516 17.2683 3.53516 28.1875C3.53516 39.105 6.22672 47.9531 9.55078 47.9531H12.9883V8.42188H9.55078Z" fill="#CC0000"/>
<path d="M12.9883 47.9531C16.3106 47.9531 19.0039 39.1038 19.0039 28.1875C19.0039 17.2712 16.3106 8.42188 12.9883 8.42188C9.66594 8.42188 6.97266 17.2712 6.97266 28.1875C6.97266 39.1038 9.66594 47.9531 12.9883 47.9531Z" fill="#D9D9D9"/>
<path d="M19.2359 17.0156H8.02625C7.36281 20.1953 6.97266 24.0402 6.97266 28.1875C6.97266 33.9848 7.7375 39.1806 8.94578 42.7969H49.082C50.2216 42.7969 51.3146 42.3442 52.1204 41.5383C52.9262 40.7325 53.3789 39.6396 53.3789 38.5C50.2908 32.0653 45.4471 26.6343 39.4063 22.8331C33.3654 19.0319 26.3733 17.0153 19.2359 17.0156Z" fill="#ECEFF1"/>
<path d="M24.1602 38.5H7.83203C7.60411 38.5 7.38553 38.4095 7.22436 38.2483C7.0632 38.0871 6.97266 37.8685 6.97266 37.6406C6.97266 37.4127 7.0632 37.1941 7.22436 37.033C7.38553 36.8718 7.60411 36.7812 7.83203 36.7812H24.1602C24.3881 36.7812 24.6067 36.8718 24.7678 37.033C24.929 37.1941 25.0195 37.4127 25.0195 37.6406C25.0195 37.8685 24.929 38.0871 24.7678 38.2483C24.6067 38.4095 24.3881 38.5 24.1602 38.5Z" fill="#F63C5B"/>
<path d="M49.082 40.2184H8.94578C7.84234 36.9219 7.11875 32.3053 6.99672 27.125C6.99328 27.4808 6.97266 27.8245 6.97266 28.1872C6.97266 33.9845 7.7375 39.1803 8.94578 42.7966H49.082C50.2216 42.7966 51.3146 42.3439 52.1204 41.538C52.9262 40.7322 53.3789 39.6393 53.3789 38.4997C53.2517 38.235 53.1039 37.9841 52.9716 37.7228C52.6289 38.4665 52.0806 39.0966 51.3914 39.5388C50.7022 39.9811 49.9009 40.2169 49.082 40.2184Z" fill="#D9D9D9"/>
<path d="M19.236 17.0156H8.02633C7.84355 17.9061 7.68821 18.802 7.56055 19.702H8.00914L8.02633 19.5938H19.2343C20.1848 19.5938 21.1284 19.6316 22.0634 19.7038V17.1239C21.1226 17.0523 20.1795 17.0162 19.236 17.0156Z" fill="white"/>
<path d="M20.7266 17.0703C20.7558 28.4381 29.9752 37.642 41.3481 37.642H52.9291C49.8691 31.6645 45.2738 26.6088 39.6147 22.9936C33.9557 19.3785 27.4366 17.3341 20.7266 17.0703Z" fill="#CC0000"/>
<path d="M20.7266 17.0703C20.7266 17.2164 20.7472 17.3591 20.7506 17.5052C26.6586 18.4203 32.2657 20.7223 37.1124 24.2225C41.959 27.7227 45.9074 32.3215 48.6339 37.642H52.9308C49.8702 31.6646 45.2746 26.609 39.6153 22.9939C33.956 19.3788 27.4368 17.3343 20.7266 17.0703Z" fill="#610514"/>
<path d="M17.0463 14.4564C16.866 14.4563 16.6903 14.3994 16.5441 14.2939C16.3979 14.1884 16.2885 14.0396 16.2316 13.8686C15.288 11.0378 14.047 9.28125 12.9883 9.28125C12.7604 9.28125 12.5418 9.19071 12.3806 9.02954C12.2194 8.86838 12.1289 8.6498 12.1289 8.42188C12.1289 8.19395 12.2194 7.97537 12.3806 7.81421C12.5418 7.65304 12.7604 7.5625 12.9883 7.5625C14.9219 7.5625 16.6063 9.55453 17.8627 13.3255C17.9053 13.4547 17.9167 13.5923 17.8959 13.7268C17.8752 13.8613 17.8228 13.989 17.7431 14.0993C17.6635 14.2097 17.5588 14.2996 17.4376 14.3617C17.3165 14.4237 17.1824 14.4562 17.0463 14.4564ZM8.02625 17.875C7.89827 17.8752 7.77186 17.8468 7.65626 17.7919C7.54065 17.737 7.43878 17.6569 7.35807 17.5576C7.27736 17.4583 7.21985 17.3422 7.18974 17.2178C7.15964 17.0934 7.1577 16.9638 7.18406 16.8386C7.62406 14.7331 8.17406 12.9353 8.81859 11.495C8.86464 11.392 8.93053 11.299 9.0125 11.2214C9.09447 11.1439 9.19091 11.0832 9.29633 11.0429C9.40175 11.0026 9.51407 10.9835 9.62688 10.9866C9.7397 10.9897 9.85079 11.015 9.95383 11.061C10.0569 11.1071 10.1498 11.1729 10.2274 11.2549C10.305 11.3369 10.3656 11.4333 10.4059 11.5388C10.4462 11.6442 10.4654 11.7565 10.4623 11.8693C10.4592 11.9821 10.4339 12.0932 10.3878 12.1962C9.79313 13.5266 9.28094 15.2058 8.86672 17.1927C8.82553 17.3852 8.7197 17.5579 8.56682 17.682C8.41393 17.8062 8.22318 17.8743 8.02625 17.875ZM12.9883 48.8125C8.52297 48.8125 6.11328 38.1855 6.11328 28.1875C6.11328 26.7352 6.16141 25.2708 6.25766 23.8339C6.27442 23.6071 6.3797 23.396 6.55077 23.2461C6.72185 23.0963 6.94499 23.0197 7.17203 23.033C7.39934 23.0484 7.61127 23.1533 7.76139 23.3247C7.91151 23.4961 7.98759 23.72 7.97297 23.9473C7.87859 25.3588 7.83158 26.7729 7.83203 28.1875C7.83203 39.9008 10.8347 47.0938 12.9883 47.0938C13.2162 47.0938 13.4348 47.1843 13.596 47.3455C13.7571 47.5066 13.8477 47.7252 13.8477 47.9531C13.8477 48.181 13.7571 48.3996 13.596 48.5608C13.4348 48.722 13.2162 48.8125 12.9883 48.8125ZM41.3477 52.25H3.53516C3.30724 52.25 3.08865 52.1595 2.92749 51.9983C2.76632 51.8371 2.67578 51.6185 2.67578 51.3906C2.67578 51.1627 2.76632 50.9441 2.92749 50.783C3.08865 50.6218 3.30724 50.5312 3.53516 50.5312H41.3477C41.5756 50.5312 41.7942 50.6218 41.9553 50.783C42.1165 50.9441 42.207 51.1627 42.207 51.3906C42.207 51.6185 42.1165 51.8371 41.9553 51.9983C41.7942 52.1595 41.5756 52.25 41.3477 52.25ZM53.3789 48.8125H53.207C52.9791 48.8125 52.7605 48.722 52.5994 48.5608C52.4382 48.3996 52.3477 48.181 52.3477 47.9531C52.3477 47.7252 52.4382 47.5066 52.5994 47.3455C52.7605 47.1843 52.9791 47.0938 53.207 47.0938H53.3789C53.6068 47.0938 53.8254 47.1843 53.9866 47.3455C54.1477 47.5066 54.2383 47.7252 54.2383 47.9531C54.2383 48.181 54.1477 48.3996 53.9866 48.5608C53.8254 48.722 53.6068 48.8125 53.3789 48.8125Z" fill="#0B0B0B"/>
<path d="M49.9409 48.8125H12.9878C12.7599 48.8125 12.5413 48.722 12.3801 48.5608C12.219 48.3996 12.1284 48.181 12.1284 47.9531C12.1284 47.7252 12.219 47.5066 12.3801 47.3455C12.5413 47.1843 12.7599 47.0938 12.9878 47.0938H49.9409C50.1689 47.0938 50.3874 47.1843 50.5486 47.3455C50.7098 47.5066 50.8003 47.7252 50.8003 47.9531C50.8003 48.181 50.7098 48.3996 50.5486 48.5608C50.3874 48.722 50.1689 48.8125 49.9409 48.8125ZM49.0816 43.6562H9.80469C9.57677 43.6562 9.35818 43.5657 9.19702 43.4045C9.03585 43.2434 8.94531 43.0248 8.94531 42.7969C8.94531 42.569 9.03585 42.3504 9.19702 42.1892C9.35818 42.028 9.57677 41.9375 9.80469 41.9375H49.0816C50.9137 41.9375 52.4159 40.4955 52.5139 38.6856C46.3556 26.0373 33.3155 17.875 19.2355 17.875H11.2691C11.0411 17.875 10.8226 17.7845 10.6614 17.6233C10.5002 17.4621 10.4097 17.2435 10.4097 17.0156C10.4097 16.7877 10.5002 16.5691 10.6614 16.408C10.8226 16.2468 11.0411 16.1562 11.2691 16.1562H19.2355C34.0408 16.1562 47.7478 24.7809 54.1536 38.127C54.2096 38.2434 54.2384 38.3709 54.2378 38.5C54.2378 41.3428 51.9244 43.6562 49.0816 43.6562Z" fill="#0B0B0B"/>
<path d="M52.9286 38.5H41.3477C29.533 38.5 19.8959 28.887 19.8667 17.0706C19.8664 16.9547 19.8895 16.8399 19.9348 16.7331C19.98 16.6263 20.0463 16.5298 20.1298 16.4493C20.2133 16.3689 20.3122 16.3062 20.4206 16.265C20.529 16.2237 20.6446 16.2049 20.7605 16.2095C34.7133 16.7595 47.3323 24.8205 53.6951 37.2487C53.8326 37.5134 53.8206 37.8331 53.6642 38.0875C53.5078 38.3419 53.2294 38.5 52.9286 38.5ZM21.6078 17.9764C22.1114 28.4264 30.7825 36.7812 41.3477 36.7812H51.4934C48.4709 31.4069 44.1545 26.8722 38.9357 23.5884C33.7169 20.3046 27.7608 18.3756 21.6078 17.9764ZM17.2852 21.3125H3.53516C3.30724 21.3125 3.08865 21.222 2.92749 21.0608C2.76632 20.8996 2.67578 20.681 2.67578 20.4531C2.67578 20.2252 2.76632 20.0066 2.92749 19.8455C3.08865 19.6843 3.30724 19.5938 3.53516 19.5938H17.2852C17.5131 19.5938 17.7317 19.6843 17.8928 19.8455C18.054 20.0066 18.1445 20.2252 18.1445 20.4531C18.1445 20.681 18.054 20.8996 17.8928 21.0608C17.7317 21.222 17.5131 21.3125 17.2852 21.3125ZM4.58875 17.875C4.46077 17.8752 4.33436 17.8468 4.21876 17.7919C4.10315 17.737 4.00128 17.6569 3.92057 17.5576C3.83985 17.4583 3.78235 17.3422 3.75224 17.2178C3.72214 17.0934 3.7202 16.9638 3.74656 16.8386C4.47016 13.3753 6.18719 7.5625 9.55078 7.5625H12.9883C13.2162 7.5625 13.4348 7.65304 13.5959 7.81421C13.7571 7.97537 13.8477 8.19395 13.8477 8.42188C13.8477 8.6498 13.7571 8.86838 13.5959 9.02954C13.4348 9.19071 13.2162 9.28125 12.9883 9.28125H9.55078C8.32187 9.28125 6.57047 11.727 5.42922 17.1927C5.38862 17.3855 5.28295 17.5586 5.12993 17.6828C4.97692 17.807 4.78585 17.8749 4.58875 17.875ZM12.9883 48.8125H9.55078C5.08547 48.8125 2.67578 38.1855 2.67578 28.1875C2.67578 26.7352 2.72391 25.2708 2.82016 23.8339C2.83735 23.6073 2.94276 23.3964 3.11373 23.2467C3.2847 23.0969 3.5076 23.0202 3.73453 23.033C3.96184 23.0484 4.17377 23.1533 4.32389 23.3247C4.47401 23.4961 4.55009 23.72 4.53547 23.9473C4.44109 25.3588 4.39408 26.7729 4.39453 28.1875C4.39453 39.9008 7.39719 47.0938 9.55078 47.0938H12.9883C13.2162 47.0938 13.4348 47.1843 13.5959 47.3455C13.7571 47.5066 13.8477 47.7252 13.8477 47.9531C13.8477 48.181 13.7571 48.3996 13.5959 48.5608C13.4348 48.722 13.2162 48.8125 12.9883 48.8125Z" fill="#0B0B0B"/>
</svg>
