<svg width="14" height="18" viewBox="0 0 14 18" fill="none" xmlns="http://www.w3.org/2000/svg">
<path d="M1.27283 7.36356H12.7272C12.9488 7.36356 13.1406 7.28265 13.3025 7.12069C13.4643 6.95878 13.5455 6.76705 13.5455 6.54545C13.5455 6.32385 13.4643 6.13221 13.3025 5.97007L7.57528 0.242867C7.41346 0.0811347 7.22177 0 7.00004 0C6.77831 0 6.58662 0.0811347 6.42466 0.242867L0.697457 5.97007C0.535501 6.13203 0.45459 6.32385 0.45459 6.54545C0.45459 6.767 0.535501 6.95878 0.697457 7.12069C0.859592 7.28265 1.05128 7.36356 1.27283 7.36356ZM12.7272 10.6366H1.27283C1.0511 10.6366 0.859413 10.7175 0.697457 10.8793C0.535501 11.0413 0.45459 11.233 0.45459 11.4545C0.45459 11.6761 0.535501 11.868 0.697457 12.0298L6.42466 17.757C6.5868 17.9189 6.77849 18 7.00004 18C7.22159 18 7.41346 17.9189 7.57528 17.757L13.3025 12.0298C13.4643 11.868 13.5455 11.6761 13.5455 11.4545C13.5455 11.233 13.4643 11.0413 13.3025 10.8793C13.1407 10.7174 12.9488 10.6366 12.7272 10.6366Z" fill="black"/>
</svg>
