<svg width="16" height="16" viewBox="0 0 16 16" fill="none" xmlns="http://www.w3.org/2000/svg">
<path d="M15.8313 6.72233L12.3275 10.1378L13.1549 14.9618C13.1727 15.0653 13.1611 15.1716 13.1215 15.2688C13.082 15.366 13.016 15.4502 12.9311 15.5119C12.8462 15.5736 12.7457 15.6103 12.641 15.6179C12.5364 15.6254 12.4316 15.6035 12.3388 15.5547L8.00638 13.2771L3.67456 15.5541C3.58167 15.603 3.47696 15.6249 3.37228 15.6173C3.2676 15.6097 3.16713 15.573 3.08221 15.5114C2.9973 15.4497 2.93133 15.3655 2.89178 15.2683C2.85222 15.1711 2.84065 15.0647 2.85838 14.9613L3.68582 10.1373L0.18144 6.72233C0.106221 6.64904 0.05302 6.55617 0.0278585 6.45421C0.00269711 6.35225 0.00658036 6.24528 0.0390687 6.14542C0.071557 6.04555 0.131353 5.95678 0.211688 5.88914C0.292022 5.8215 0.389688 5.7777 0.493627 5.7627L5.33619 5.05958L7.50181 0.670953C7.69138 0.286766 8.32138 0.286766 8.51094 0.670953L10.6766 5.05958L15.5191 5.7627C15.6228 5.7781 15.7202 5.82211 15.8003 5.8898C15.8803 5.95748 15.9399 6.04616 15.9723 6.14585C16.0048 6.24555 16.0088 6.35232 15.9838 6.45416C15.9589 6.55599 15.9061 6.64886 15.8313 6.72233Z" fill="black"/>
</svg>
