<svg width="99" height="97" viewBox="0 0 99 97" fill="none" xmlns="http://www.w3.org/2000/svg">
<path d="M83.348 69.1219C84.785 66.3109 85.5346 63.205 85.5361 60.0547C85.5361 55.3781 84.9867 50.6984 83.9053 46.1469L80.3247 31.0875C79.9227 29.3704 78.9436 27.8392 77.5477 26.7447C76.1518 25.6501 74.4218 25.057 72.6409 25.0625H71.2863C69.8433 23.1766 67.5794 21.9375 65.0123 21.9375H60.276V18.8125H61.8548C64.466 18.8125 66.591 16.7094 66.591 14.125V4.75C66.591 2.16562 64.466 0.0625 61.8548 0.0625H36.5946C33.9834 0.0625 31.8584 2.16562 31.8584 4.75V14.125C31.8584 16.7094 33.9834 18.8125 36.5946 18.8125H38.1734V21.9375H33.4371C30.8685 21.9375 28.6045 23.1766 27.1631 25.0625H25.8086C24.0281 25.0569 22.2984 25.6495 20.9025 26.7434C19.5067 27.8374 18.5273 29.3678 18.1248 31.0844L14.5441 46.1453C13.4614 50.7042 12.9142 55.3716 12.9133 60.0547C12.9133 63.2281 13.6727 66.3172 15.1014 69.1219C10.2515 70.3156 6.59824 74.8516 6.59824 80.1437V84.1844C6.59824 85.5563 6.82084 86.9125 7.25974 88.2172C8.11307 90.7576 9.75339 92.9674 11.9478 94.5328C14.1422 96.0982 16.7791 96.9396 19.4841 96.9375H78.9654C80.6581 96.9394 82.3345 96.6107 83.8988 95.9705C85.463 95.3302 86.8842 94.3909 88.0812 93.2063C89.2781 92.0217 90.2272 90.6151 90.8741 89.067C91.521 87.5189 91.8531 85.8597 91.8512 84.1844V80.1437C91.8512 74.8516 88.1979 70.3156 83.348 69.1219ZM35.0159 14.125V4.75C35.0159 4.3356 35.1822 3.93817 35.4783 3.64515C35.7744 3.35212 36.1759 3.1875 36.5946 3.1875H61.8548C62.2735 3.1875 62.6751 3.35212 62.9711 3.64515C63.2672 3.93817 63.4335 4.3356 63.4335 4.75V14.125C63.4335 14.5394 63.2672 14.9368 62.9711 15.2299C62.6751 15.5229 62.2735 15.6875 61.8548 15.6875H36.5946C36.1759 15.6875 35.7744 15.5229 35.4783 15.2299C35.1822 14.9368 35.0159 14.5394 35.0159 14.125ZM41.3309 18.8125H57.1185V21.9375H41.3309V18.8125ZM17.618 46.8609L21.1986 31.8C21.4367 30.7889 22.0088 29.8853 22.8244 29.2324C23.64 28.5794 24.6524 28.2145 25.7012 28.1953C25.5986 28.6984 25.5433 29.2188 25.5433 29.75V37.5625H28.7009V29.75C28.7009 27.1656 30.8259 25.0625 33.4371 25.0625H65.0123C67.6236 25.0625 69.7486 27.1656 69.7486 29.75V37.5625H72.9061V29.75C72.9061 29.2188 72.8508 28.6984 72.7466 28.1969C73.7957 28.2159 74.8084 28.5809 75.6241 29.2342C76.4398 29.8875 77.0117 30.7916 77.2492 31.8031L80.8299 46.8641C81.8561 51.1812 82.3771 55.6203 82.3771 60.0547C82.3771 63.1734 81.5119 66.1984 79.8889 68.8562C77.3373 69.057 74.9367 70.1336 73.1019 71.9C71.2685 73.6505 70.1095 75.979 69.8243 78.4844C68.2174 77.558 66.5127 76.8087 64.7407 76.25C63.8794 70.6427 63.4424 64.9795 63.4335 59.3078V28.1875H60.276V59.3078C60.276 64.6953 60.6802 70.1062 61.4348 75.4453C60.01 75.1943 58.5658 75.0662 57.1185 75.0625H41.3309C39.8816 75.0625 38.4371 75.1984 37.0146 75.4453C37.7692 70.1062 38.1734 64.6953 38.1734 59.3078V28.1875H35.0159V59.3078C35.0159 64.9672 34.5612 70.6547 33.7055 76.25C31.9336 76.8087 30.2289 77.558 28.6219 78.4844C28.3372 75.9789 27.178 73.6503 25.3444 71.9C23.5108 70.1355 21.1116 69.0611 18.5621 68.8625C16.933 66.2075 16.0713 63.1609 16.0708 60.0547C16.0708 55.6188 16.5918 51.1797 17.618 46.8609ZM88.6937 84.1844C88.6949 85.4491 88.4441 86.7017 87.9557 87.8704C87.4672 89.0391 86.7507 90.1009 85.8471 90.9952C84.9435 91.8895 83.8705 92.5987 82.6897 93.0821C81.5088 93.5655 80.2432 93.8137 78.9654 93.8125H19.4841C18.2061 93.8139 16.9404 93.5659 15.7595 93.0825C14.5785 92.5992 13.5055 91.89 12.6019 90.9957C11.6982 90.1014 10.9817 89.0394 10.4933 87.8706C10.0049 86.7018 9.7543 85.4492 9.75575 84.1844V80.1437C9.75575 75.7469 13.188 72.0672 17.4064 71.9422C18.4638 71.9058 19.5177 72.082 20.5043 72.4601C21.491 72.8383 22.3899 73.4105 23.1468 74.1422C23.908 74.8684 24.5128 75.7397 24.9247 76.7035C25.3366 77.6672 25.547 78.7036 25.5433 79.75V82.875C25.5433 87.1828 29.0845 90.6875 33.4371 90.6875H36.5946V87.5625H33.4371C30.8259 87.5625 28.7009 85.4594 28.7009 82.875V82.1312C32.4087 79.578 36.814 78.2025 41.3309 78.1875H57.1185C61.6132 78.1875 66.0606 79.5922 69.7486 82.1312V82.875C69.7486 85.4594 67.6236 87.5625 65.0123 87.5625H61.8548V90.6875H65.0123C69.3649 90.6875 72.9061 87.1828 72.9061 82.875V79.75C72.9061 77.6188 73.757 75.6266 75.3042 74.1422C76.0619 73.4117 76.961 72.8402 77.9475 72.4622C78.9339 72.0841 79.9874 71.9072 81.0446 71.9422C85.2614 72.0672 88.6937 75.7469 88.6937 80.1437V84.1844ZM96.5875 7.875C93.1047 7.875 90.2724 5.07188 90.2724 1.625C90.2724 1.2106 90.1061 0.813171 89.81 0.520146C89.5139 0.22712 89.1124 0.0625 88.6937 0.0625C88.2749 0.0625 87.8734 0.22712 87.5773 0.520146C87.2812 0.813171 87.1149 1.2106 87.1149 1.625C87.1149 5.07188 84.2826 7.875 80.7999 7.875C80.3812 7.875 79.9796 8.03962 79.6835 8.33265C79.3874 8.62567 79.2211 9.0231 79.2211 9.4375C79.2211 9.8519 79.3874 10.2493 79.6835 10.5424C79.9796 10.8354 80.3812 11 80.7999 11C84.2826 11 87.1149 13.8031 87.1149 17.25C87.1149 17.6644 87.2812 18.0618 87.5773 18.3549C87.8734 18.6479 88.2749 18.8125 88.6937 18.8125C89.1124 18.8125 89.5139 18.6479 89.81 18.3549C90.1061 18.0618 90.2724 17.6644 90.2724 17.25C90.2724 13.8031 93.1047 11 96.5875 11C97.0062 11 97.4077 10.8354 97.7038 10.5424C97.9999 10.2493 98.1662 9.8519 98.1662 9.4375C98.1662 9.0231 97.9999 8.62567 97.7038 8.33265C97.4077 8.03962 97.0062 7.875 96.5875 7.875ZM88.6937 12.0734C87.9915 11.0285 87.0861 10.1324 86.0303 9.4375C87.0861 8.74256 87.9915 7.84649 88.6937 6.80156C89.3958 7.84649 90.3012 8.74256 91.357 9.4375C90.3012 10.1324 89.3958 11.0285 88.6937 12.0734ZM9.75575 32.875C10.1745 32.875 10.576 32.7104 10.8721 32.4174C11.1682 32.1243 11.3345 31.7269 11.3345 31.3125C11.3345 27.8656 14.1668 25.0625 17.6495 25.0625C18.0683 25.0625 18.4698 24.8979 18.7659 24.6049C19.062 24.3118 19.2283 23.9144 19.2283 23.5C19.2283 23.0856 19.062 22.6882 18.7659 22.3951C18.4698 22.1021 18.0683 21.9375 17.6495 21.9375C14.1668 21.9375 11.3345 19.1344 11.3345 15.6875C11.3345 15.2731 11.1682 14.8757 10.8721 14.5826C10.576 14.2896 10.1745 14.125 9.75575 14.125C9.33704 14.125 8.93548 14.2896 8.6394 14.5826C8.34333 14.8757 8.17699 15.2731 8.17699 15.6875C8.17699 19.1344 5.3447 21.9375 1.86196 21.9375C1.44325 21.9375 1.04169 22.1021 0.745611 22.3951C0.449536 22.6882 0.283203 23.0856 0.283203 23.5C0.283203 23.9144 0.449536 24.3118 0.745611 24.6049C1.04169 24.8979 1.44325 25.0625 1.86196 25.0625C5.3447 25.0625 8.17699 27.8656 8.17699 31.3125C8.17699 31.7269 8.34333 32.1243 8.6394 32.4174C8.93548 32.7104 9.33704 32.875 9.75575 32.875ZM9.75575 20.8641C10.4579 21.909 11.3633 22.8051 12.4191 23.5C11.3633 24.1949 10.4579 25.091 9.75575 26.1359C9.05358 25.091 8.14818 24.1949 7.09239 23.5C8.14818 22.8051 9.05358 21.909 9.75575 20.8641Z" fill="#0B0B0B"/>
</svg>
