<svg width="153" height="121" viewBox="0 0 153 121" fill="none" xmlns="http://www.w3.org/2000/svg">
<path d="M144.942 101.08H117.607C114.986 101.08 112.72 99.8037 111.395 97.8338C110.07 99.8037 107.804 101.08 105.182 101.08H8.27014C4.09041 101.08 0.81543 97.8412 0.81543 93.7021V27.2998C0.81543 23.1631 4.0907 19.9219 8.27014 19.9219H105.182C107.804 19.9219 110.07 21.1982 111.395 23.1681C112.72 21.1982 114.986 19.9219 117.607 19.9219H144.942C149.124 19.9219 152.396 23.1634 152.396 27.2998V93.7021C152.396 97.8412 149.124 101.08 144.942 101.08ZM112.637 93.7018C112.637 96.4587 114.822 98.6206 117.607 98.6206H144.942C147.727 98.6206 149.912 96.4587 149.912 93.7018V27.2998C149.912 24.5406 147.727 22.3811 144.942 22.3811H117.607C114.822 22.3811 112.637 24.5403 112.637 27.2998C112.63 27.6213 112.496 27.9273 112.264 28.1522C112.032 28.3771 111.72 28.503 111.395 28.503C111.07 28.503 110.758 28.3771 110.526 28.1522C110.294 27.9273 110.159 27.6213 110.152 27.2998C110.152 24.5406 107.968 22.3811 105.182 22.3811H8.27014C5.48217 22.3811 3.30023 24.5403 3.30023 27.2998V93.7021C3.30023 96.459 5.48187 98.6208 8.27014 98.6208H105.182C107.968 98.6208 110.152 96.459 110.152 93.7021C110.159 93.3806 110.293 93.0746 110.526 92.8497C110.758 92.6248 111.07 92.4988 111.395 92.4988C111.72 92.4987 112.032 92.6246 112.264 92.8495C112.496 93.0744 112.63 93.3803 112.637 93.7018Z" fill="#0B0B0B"/>
<path d="M111.395 39.5921C111.065 39.5921 110.749 39.4625 110.516 39.2319C110.283 39.0013 110.152 38.6885 110.152 38.3624V33.4437C110.159 33.1222 110.293 32.8162 110.526 32.5913C110.758 32.3664 111.07 32.2405 111.395 32.2405C111.72 32.2405 112.032 32.3664 112.264 32.5913C112.496 32.8162 112.63 33.1222 112.637 33.4437V38.3624C112.637 38.6885 112.506 39.0013 112.273 39.2319C112.04 39.4625 111.724 39.5921 111.395 39.5921ZM111.395 51.8888C111.065 51.8887 110.749 51.7591 110.516 51.5285C110.283 51.2979 110.152 50.9852 110.152 50.659V45.7403C110.159 45.4188 110.293 45.1129 110.526 44.888C110.758 44.6631 111.07 44.5371 111.395 44.5371C111.72 44.5371 112.032 44.6631 112.264 44.888C112.496 45.1129 112.63 45.4188 112.637 45.7403V50.659C112.637 50.9852 112.506 51.2979 112.273 51.5285C112.04 51.7591 111.724 51.8887 111.395 51.8888ZM111.395 64.1855C111.065 64.1854 110.749 64.0558 110.516 63.8252C110.283 63.5946 110.152 63.2818 110.152 62.9557V58.037C110.159 57.7155 110.293 57.4095 110.526 57.1846C110.758 56.9597 111.07 56.8338 111.395 56.8338C111.72 56.8338 112.032 56.9597 112.264 57.1846C112.496 57.4095 112.63 57.7155 112.637 58.037V62.9557C112.637 63.2818 112.506 63.5946 112.273 63.8252C112.04 64.0558 111.724 64.1854 111.395 64.1855ZM111.395 76.4821C111.065 76.482 110.749 76.3525 110.516 76.1218C110.283 75.8912 110.152 75.5785 110.152 75.2524V70.3336C110.159 70.0121 110.293 69.7062 110.526 69.4813C110.758 69.2564 111.07 69.1304 111.395 69.1304C111.72 69.1304 112.032 69.2564 112.264 69.4813C112.496 69.7062 112.63 70.0121 112.637 70.3336V75.2524C112.637 75.5785 112.506 75.8912 112.273 76.1218C112.04 76.3525 111.724 76.482 111.395 76.4821ZM111.395 88.7791C111.065 88.779 110.749 88.6494 110.516 88.4188C110.283 88.1882 110.152 87.8755 110.152 87.5493V82.6306C110.159 82.3091 110.293 82.0031 110.526 81.7782C110.758 81.5533 111.07 81.4274 111.395 81.4274C111.72 81.4274 112.032 81.5533 112.264 81.7782C112.496 82.0031 112.63 82.3091 112.637 82.6306V87.5493C112.637 87.8754 112.506 88.1881 112.273 88.4187C112.04 88.6493 111.724 88.7789 111.395 88.7791ZM98.9703 42.0514H76.6059C76.281 42.0443 75.9719 41.9117 75.7446 41.6818C75.5174 41.452 75.3901 41.1432 75.3901 40.8216C75.3901 40.5 75.5174 40.1912 75.7446 39.9614C75.9719 39.7315 76.281 39.5989 76.6059 39.5918H98.9703C99.2951 39.5989 99.6043 39.7315 99.8315 39.9614C100.059 40.1912 100.186 40.5 100.186 40.8216C100.186 41.1432 100.059 41.452 99.8315 41.6818C99.6043 41.9117 99.2951 42.0443 98.9703 42.0514ZM98.9703 51.8888H76.6059C76.281 51.8818 75.9719 51.7491 75.7446 51.5193C75.5174 51.2894 75.3901 50.9806 75.3901 50.659C75.3901 50.3375 75.5174 50.0287 75.7446 49.7988C75.9719 49.569 76.281 49.4363 76.6059 49.4293H98.9703C99.2951 49.4363 99.6043 49.569 99.8315 49.7988C100.059 50.0287 100.186 50.3375 100.186 50.659C100.186 50.9806 100.059 51.2894 99.8315 51.5193C99.6043 51.7491 99.2951 51.8818 98.9703 51.8888ZM98.9703 61.7262H76.6059C76.281 61.7192 75.9719 61.5866 75.7446 61.3567C75.5174 61.1269 75.3901 60.8181 75.3901 60.4965C75.3901 60.1749 75.5174 59.8661 75.7446 59.6363C75.9719 59.4064 76.281 59.2738 76.6059 59.2667H98.9703C99.2951 59.2738 99.6043 59.4064 99.8315 59.6363C100.059 59.8661 100.186 60.1749 100.186 60.4965C100.186 60.8181 100.059 61.1269 99.8315 61.3567C99.6043 61.5866 99.2951 61.7192 98.9703 61.7262ZM121.335 44.5109C121.005 44.5108 120.689 44.3812 120.456 44.1506C120.223 43.92 120.092 43.6072 120.092 43.2811V30.9845C120.099 30.663 120.233 30.357 120.466 30.1321C120.698 29.9072 121.01 29.7812 121.335 29.7812C121.66 29.7812 121.972 29.9072 122.204 30.1321C122.436 30.357 122.57 30.663 122.577 30.9845V43.2811C122.577 43.6072 122.446 43.9199 122.213 44.1505C121.98 44.3811 121.664 44.5107 121.335 44.5109ZM131.274 44.5109C130.945 44.5108 130.629 44.3812 130.396 44.1506C130.163 43.92 130.032 43.6072 130.032 43.2811V30.9845C130.039 30.663 130.173 30.357 130.405 30.1321C130.638 29.9072 130.95 29.7812 131.274 29.7812C131.599 29.7812 131.911 29.9072 132.144 30.1321C132.376 30.357 132.51 30.663 132.517 30.9845V43.2811C132.517 43.6072 132.386 43.9198 132.153 44.1504C131.92 44.381 131.604 44.5106 131.274 44.5109ZM141.214 44.5109C140.884 44.5108 140.568 44.3812 140.335 44.1506C140.102 43.92 139.972 43.6072 139.971 43.2811V30.9845C139.979 30.663 140.113 30.357 140.345 30.1321C140.577 29.9072 140.889 29.7812 141.214 29.7812C141.539 29.7812 141.851 29.9072 142.083 30.1321C142.315 30.357 142.449 30.663 142.457 30.9845V43.2811C142.456 43.6072 142.325 43.9199 142.092 44.1505C141.859 44.3811 141.544 44.5107 141.214 44.5109ZM126.305 40.8216C125.975 40.8215 125.659 40.6919 125.426 40.4613C125.193 40.2307 125.062 39.918 125.062 39.5918V32.2139C125.069 31.8924 125.203 31.5864 125.435 31.3615C125.668 31.1366 125.98 31.0107 126.305 31.0107C126.63 31.0107 126.942 31.1366 127.174 31.3615C127.406 31.5864 127.54 31.8924 127.547 32.2139V39.5918C127.547 39.918 127.416 40.2307 127.183 40.4612C126.95 40.6918 126.634 40.8214 126.305 40.8216ZM136.244 40.8216C135.915 40.8215 135.599 40.6919 135.366 40.4613C135.133 40.2307 135.002 39.918 135.002 39.5918V32.2139C135.009 31.8924 135.143 31.5864 135.375 31.3615C135.607 31.1366 135.919 31.0107 136.244 31.0107C136.569 31.0107 136.881 31.1366 137.114 31.3615C137.346 31.5864 137.48 31.8924 137.487 32.2139V39.5918C137.487 39.9179 137.356 40.2306 137.123 40.4612C136.89 40.6917 136.574 40.8214 136.244 40.8216Z" fill="#0B0B0B"/>
<path d="M144.942 101.079H117.607C114.986 101.079 112.72 99.8031 111.395 97.8332C110.07 99.8031 107.804 101.079 105.183 101.079H8.27014C4.09041 101.079 0.81543 97.8405 0.81543 93.7015V80.1751C0.815508 79.8489 0.946445 79.5362 1.17945 79.3056C1.41246 79.075 1.72846 78.9454 2.05798 78.9453H151.154C151.484 78.9454 151.8 79.075 152.033 79.3056C152.266 79.5362 152.397 79.8489 152.397 80.1751V93.7015C152.396 97.8405 149.124 101.079 144.942 101.079ZM111.395 92.4717C111.724 92.4718 112.04 92.6014 112.273 92.832C112.507 93.0626 112.637 93.3754 112.638 93.7015C112.638 96.4584 114.822 98.6202 117.607 98.6202H144.942C147.727 98.6202 149.912 96.4584 149.912 93.7015V81.4048H3.30023V93.7015C3.30023 96.4584 5.48188 98.6202 8.27014 98.6202H105.183C107.968 98.6202 110.152 96.4584 110.152 93.7015C110.153 93.3754 110.284 93.0627 110.517 92.8321C110.75 92.6015 111.065 92.4719 111.395 92.4717Z" fill="#0B0B0B"/>
<path d="M54.2418 86.32H29.3926C25.9137 86.32 23.1802 83.6146 23.1802 80.1715V55.5782C23.1802 52.135 25.9137 49.4297 29.3926 49.4297H54.2418C57.7208 49.4297 60.4543 52.135 60.4543 55.5782V80.1715C60.4543 83.6146 57.7208 86.32 54.2418 86.32Z" fill="white"/>
<path d="M54.2414 87.5523H29.3922C25.2125 87.5523 21.9375 84.3134 21.9375 80.1744V55.5811C21.9375 51.4444 25.2128 48.2031 29.3922 48.2031H54.2414C58.4212 48.2031 61.6961 51.4447 61.6961 55.5811V80.1744C61.6961 84.3134 58.4212 87.5523 54.2414 87.5523ZM29.3922 50.662C26.6042 50.662 24.4223 52.8212 24.4223 55.5808V80.1741C24.4223 82.931 26.6039 85.0928 29.3922 85.0928H54.2414C57.0294 85.0928 59.2113 82.931 59.2113 80.1741V55.5808C59.2113 52.8215 57.0297 50.662 54.2414 50.662H29.3922Z" fill="#0B0B0B"/>
<path d="M23.1802 55.5703H60.4543V69.0967H23.1802V55.5703Z" fill="white"/>
<path d="M60.4537 70.3297H23.1796C22.85 70.3296 22.534 70.2 22.301 69.9694C22.068 69.7388 21.9371 69.426 21.937 69.0999V55.5735C21.9371 55.2474 22.068 54.9346 22.301 54.704C22.534 54.4734 22.85 54.3438 23.1796 54.3438H60.4537C60.7832 54.3438 61.0992 54.4734 61.3322 54.704C61.5652 54.9346 61.6962 55.2474 61.6962 55.5735V69.0999C61.696 69.426 61.565 69.7386 61.332 69.9692C61.0991 70.1998 60.7832 70.3294 60.4537 70.3297ZM24.4221 67.8702H59.2111V56.8033H24.4221V67.8702Z" fill="#0B0B0B"/>
<path d="M31.8768 81.4014C33.9353 81.4014 35.6041 79.7498 35.6041 77.7124C35.6041 75.675 33.9353 74.0234 31.8768 74.0234C29.8182 74.0234 28.1494 75.675 28.1494 77.7124C28.1494 79.7498 29.8182 81.4014 31.8768 81.4014Z" fill="white"/>
<path d="M31.8771 82.6265C29.1362 82.6265 26.9072 80.4204 26.9072 77.7078C26.9072 74.9951 29.1362 72.7891 31.8771 72.7891C34.618 72.7891 36.847 74.9951 36.847 77.7078C36.847 80.4204 34.618 82.6265 31.8771 82.6265ZM31.8771 75.2486C30.5079 75.2486 29.3923 76.3503 29.3923 77.7078C29.3923 79.0653 30.5082 80.167 31.8771 80.167C33.2464 80.167 34.3619 79.0653 34.3619 77.7078C34.3619 76.3503 33.2464 75.2486 31.8771 75.2486Z" fill="#0B0B0B"/>
<path d="M51.7566 81.4014C53.8152 81.4014 55.484 79.7498 55.484 77.7124C55.484 75.675 53.8152 74.0234 51.7566 74.0234C49.6981 74.0234 48.0293 75.675 48.0293 77.7124C48.0293 79.7498 49.6981 81.4014 51.7566 81.4014Z" fill="white"/>
<path d="M51.7568 82.6304C49.0159 82.6304 46.7869 80.4244 46.7869 77.7117C46.7869 74.999 49.0159 72.793 51.7568 72.793C54.4977 72.793 56.7267 74.999 56.7267 77.7117C56.7264 80.4244 54.4977 82.6304 51.7568 82.6304ZM51.7568 75.2525C50.3875 75.2525 49.272 76.3542 49.272 77.7117C49.272 79.0692 50.3878 80.1709 51.7568 80.1709C53.1261 80.1709 54.2416 79.0692 54.2416 77.7117C54.2416 76.3542 53.1258 75.2525 51.7568 75.2525ZM23.1799 93.6973C22.8983 93.6971 22.625 93.6026 22.4045 93.4292C22.1478 93.225 21.9833 92.9284 21.947 92.6043C21.9106 92.2803 22.0054 91.9552 22.2106 91.7002L27.1805 85.5517C27.3873 85.2982 27.6869 85.1357 28.0141 85.0998C28.3413 85.0639 28.6697 85.1573 28.9276 85.3598C29.1843 85.5641 29.3488 85.8607 29.3852 86.1847C29.4215 86.5087 29.3267 86.8338 29.1215 87.0888L24.1516 93.2373C24.0347 93.381 23.8867 93.4969 23.7186 93.5766C23.5504 93.6562 23.3663 93.6974 23.1799 93.6973ZM60.454 93.6973C60.2673 93.6978 60.0829 93.6565 59.9147 93.5764C59.7464 93.4963 59.5986 93.3796 59.4824 93.235L54.5125 87.0865C54.3072 86.8315 54.2123 86.5064 54.2487 86.1823C54.285 85.8583 54.4496 85.5617 54.7064 85.3574C54.9643 85.1549 55.2926 85.0615 55.6198 85.0974C55.9471 85.1334 56.2467 85.2958 56.4534 85.5494L61.4233 91.6979C61.6286 91.9529 61.7235 92.278 61.6871 92.602C61.6508 92.9261 61.4862 93.2227 61.2294 93.4269C61.0099 93.6022 60.7362 93.6977 60.454 93.6973ZM61.6963 115.831H59.2115C58.8867 115.824 58.5775 115.692 58.3503 115.462C58.123 115.232 57.9958 114.923 57.9958 114.602C57.9958 114.28 58.123 113.971 58.3503 113.741C58.5775 113.512 58.8867 113.379 59.2115 113.372H61.6963C62.0212 113.379 62.3303 113.512 62.5575 113.741C62.7848 113.971 62.912 114.28 62.912 114.602C62.912 114.923 62.7848 115.232 62.5575 115.462C62.3303 115.692 62.0212 115.824 61.6963 115.831ZM111.395 115.831H66.6662C66.3414 115.824 66.0322 115.692 65.805 115.462C65.5777 115.232 65.4505 114.923 65.4505 114.602C65.4505 114.28 65.5777 113.971 65.805 113.741C66.0322 113.512 66.3414 113.379 66.6662 113.372H111.395C111.72 113.379 112.029 113.512 112.256 113.741C112.484 113.971 112.611 114.28 112.611 114.602C112.611 114.923 112.484 115.232 112.256 115.462C112.029 115.692 111.72 115.824 111.395 115.831ZM94.0005 7.62042H91.5157C91.1909 7.6134 90.8817 7.48075 90.6545 7.25089C90.4272 7.02104 90.3 6.71224 90.3 6.39066C90.3 6.06909 90.4272 5.76029 90.6545 5.53043C90.8817 5.30058 91.1909 5.16793 91.5157 5.16091H94.0005C94.3254 5.16793 94.6345 5.30058 94.8618 5.53043C95.089 5.76029 95.2162 6.06909 95.2162 6.39066C95.2162 6.71224 95.089 7.02104 94.8618 7.25089C94.6345 7.48075 94.3254 7.6134 94.0005 7.62042ZM86.5458 7.62042H41.817C41.4921 7.6134 41.183 7.48075 40.9557 7.25089C40.7285 7.02104 40.6013 6.71224 40.6013 6.39066C40.6013 6.06909 40.7285 5.76029 40.9557 5.53043C41.183 5.30058 41.4921 5.16793 41.817 5.16091H86.5458C86.8707 5.16793 87.1798 5.30058 87.4071 5.53043C87.6343 5.76029 87.7615 6.06909 87.7615 6.39066C87.7615 6.71224 87.6343 7.02104 87.4071 7.25089C87.1798 7.48075 86.8707 7.6134 86.5458 7.62042ZM26.9073 12.5391C23.4831 12.5391 20.6948 9.77989 20.6948 6.39066C20.6948 3.00144 23.4828 0.242188 26.9073 0.242188C30.3318 0.242188 33.1197 3.00144 33.1197 6.39066C33.1197 9.77989 30.3315 12.5391 26.9073 12.5391ZM26.9073 2.7017C24.8523 2.7017 23.1799 4.3569 23.1799 6.39066C23.1799 8.42443 24.8523 10.0796 26.9073 10.0796C28.9622 10.0796 30.6346 8.42443 30.6346 6.39066C30.6346 4.3569 28.9625 2.7017 26.9073 2.7017ZM126.305 120.75C122.878 120.75 120.092 117.993 120.092 114.602C120.092 111.21 122.878 108.453 126.305 108.453C129.732 108.453 132.517 111.21 132.517 114.602C132.517 117.993 129.731 120.75 126.305 120.75ZM126.305 110.913C124.25 110.913 122.577 112.568 122.577 114.602C122.577 116.636 124.25 118.291 126.305 118.291C128.36 118.291 130.032 116.636 130.032 114.602C130.032 112.568 128.36 110.913 126.305 110.913Z" fill="#0B0B0B"/>
</svg>
