<svg width="58" height="97" viewBox="0 0 58 97" fill="none" xmlns="http://www.w3.org/2000/svg">
<path d="M39.5322 46.1561C40.5426 44.4842 41.4425 42.4374 42.2003 40.2811L49.9362 45.1249C50.1888 45.2811 50.4887 45.3749 50.7729 45.3749C51.0413 45.3749 51.2939 45.3124 51.5307 45.1874C52.0359 44.9061 52.3517 44.3905 52.3517 43.8124V31.3124C52.3523 31.0658 52.294 30.8226 52.1815 30.6027C52.069 30.3827 51.9055 30.1922 51.7044 30.0467L44.1579 24.6092C42.2003 11.1249 30.2333 0.906109 29.6807 0.437359C29.3977 0.195546 29.0363 0.0625 28.6624 0.0625C28.2885 0.0625 27.9271 0.195546 27.6441 0.437359C27.0916 0.906109 15.1246 11.1249 13.1669 24.6092L5.62044 30.0467C5.41931 30.1922 5.25582 30.3827 5.14332 30.6027C5.03082 30.8226 4.9725 31.0658 4.97315 31.3124V43.8124C4.97315 44.3749 5.2889 44.9061 5.7941 45.1874C6.03092 45.3124 6.29931 45.3749 6.55191 45.3749C6.85187 45.3749 7.13605 45.2967 7.38865 45.1249L15.1246 40.2811C15.8824 42.453 16.7823 44.4842 17.7927 46.1561C18.0768 46.6249 18.5978 46.9217 19.1504 46.9217H38.1586C38.7112 46.9217 39.2322 46.6249 39.5164 46.1561H39.5322ZM44.4421 28.6561L49.1942 32.0936V40.953L43.1475 37.1717C43.9211 34.2499 44.3947 31.2655 44.4421 28.6561ZM8.14645 40.953V32.0936L12.8985 28.6561C12.9459 31.2811 13.4037 34.2499 14.1931 37.1717L8.14645 40.953ZM20.0819 43.7967C17.7137 39.453 16.0402 33.078 16.0402 28.2342C16.0402 16.6874 25.497 6.73423 28.6703 3.71861C31.8436 6.71861 41.3004 16.6717 41.3004 28.2342C41.3004 33.078 39.6269 39.453 37.2588 43.7967H20.0819Z" fill="#0B0B0B"/>
<path d="M28.6706 20.3594C24.3132 20.3594 20.7768 23.8594 20.7768 28.1719C20.7768 32.4844 24.3132 35.9844 28.6706 35.9844C33.028 35.9844 36.5644 32.4844 36.5644 28.1719C36.5644 23.8594 33.028 20.3594 28.6706 20.3594ZM28.6706 32.8594C26.0656 32.8594 23.9343 30.75 23.9343 28.1719C23.9343 25.5938 26.0656 23.4844 28.6706 23.4844C31.2755 23.4844 33.4069 25.5938 33.4069 28.1719C33.4069 30.75 31.2755 32.8594 28.6706 32.8594ZM47.6157 82.8594C47.6157 85.4375 49.747 87.5469 52.352 87.5469C54.9569 87.5469 57.0882 85.4375 57.0882 82.8594C57.0882 80.8281 55.7621 79.1094 53.9307 78.4531V71.9219C53.9307 71.3438 53.615 70.8281 53.1098 70.5469L36.5644 61.6094V51.5938H33.4069V62.5313C33.4069 63.1094 33.7226 63.625 34.2278 63.9062L50.7732 72.8438V78.4531C48.9418 79.0938 47.6157 80.8125 47.6157 82.8594ZM52.352 81.2969C53.2203 81.2969 53.9307 82 53.9307 82.8594C53.9307 83.7188 53.2203 84.4219 52.352 84.4219C51.4836 84.4219 50.7732 83.7188 50.7732 82.8594C50.7732 82 51.4836 81.2969 52.352 81.2969ZM9.72548 82.8594C9.72548 80.8281 8.39932 79.1094 6.56796 78.4531V72.8438L20.7768 65.1719V72.8281L16.4984 77.0625C16.3513 77.208 16.2351 77.381 16.1565 77.5715C16.0779 77.762 16.0384 77.9661 16.0405 78.1719V86.2656C14.2092 86.9062 12.883 88.625 12.883 90.6719C12.883 93.25 15.0143 95.3594 17.6193 95.3594C20.2242 95.3594 22.3555 93.25 22.3555 90.6719C22.3555 88.6406 21.0294 86.9219 19.198 86.2656V78.8125L23.4765 74.5781C23.6235 74.4326 23.7397 74.2596 23.8183 74.0691C23.897 73.8786 23.9364 73.6745 23.9343 73.4688V51.5938H20.7768V61.6094L4.2314 70.5469C3.7262 70.8125 3.41045 71.3438 3.41045 71.9219V78.4531C1.57909 79.0938 0.25293 80.8125 0.25293 82.8594C0.25293 85.4375 2.38425 87.5469 4.9892 87.5469C7.59416 87.5469 9.72548 85.4375 9.72548 82.8594ZM17.6193 92.2344C16.751 92.2344 16.0405 91.5312 16.0405 90.6719C16.0405 89.8125 16.751 89.1094 17.6193 89.1094C18.4876 89.1094 19.198 89.8125 19.198 90.6719C19.198 91.5312 18.4876 92.2344 17.6193 92.2344ZM3.41045 82.8594C3.41045 82 4.12089 81.2969 4.9892 81.2969C5.85752 81.2969 6.56796 82 6.56796 82.8594C6.56796 83.7188 5.85752 84.4219 4.9892 84.4219C4.12089 84.4219 3.41045 83.7188 3.41045 82.8594Z" fill="#0B0B0B"/>
<path d="M39.7219 87.8281V73.4844C39.7219 72.9688 39.4535 72.4688 39.0114 72.1875L30.2493 66.4063V50.0625H27.0918V67.25C27.0918 67.7656 27.3602 68.2656 27.8022 68.5469L36.5643 74.3281V87.8438C34.733 88.4844 33.4068 90.2031 33.4068 92.25C33.4068 94.8281 35.5382 96.9375 38.1431 96.9375C40.7481 96.9375 42.8794 94.8281 42.8794 92.25C42.8794 90.2188 41.5532 88.5 39.7219 87.8438V87.8281ZM38.1431 93.7969C37.2748 93.7969 36.5643 93.0938 36.5643 92.2344C36.5643 91.375 37.2748 90.6719 38.1431 90.6719C39.0114 90.6719 39.7219 91.375 39.7219 92.2344C39.7219 93.0938 39.0114 93.7969 38.1431 93.7969Z" fill="#0B0B0B"/>
</svg>
