<svg width="25" height="24" viewBox="0 0 25 24" fill="none" xmlns="http://www.w3.org/2000/svg">
<g clip-path="url(#clip0_6701_22031)">
<path d="M12.4998 0C7.44715 0 2.39453 0.631599 2.39453 5.05262V17.0526C2.39453 19.4905 4.37767 21.4737 6.81561 21.4737L4.92087 23.3685V24.0001H7.73769L10.264 21.4737H15.0262L17.5524 24H20.0788V23.3684L18.184 21.4737C20.6219 21.4737 22.6051 19.4905 22.6051 17.0526V5.05262C22.6051 0.631599 18.083 0 12.4998 0ZM6.81561 18.9474C5.76717 18.9474 4.92087 18.1011 4.92087 17.0526C4.92087 16.0042 5.76717 15.1579 6.81561 15.1579C7.86405 15.1579 8.71035 16.0042 8.71035 17.0526C8.71035 18.1011 7.86399 18.9474 6.81561 18.9474ZM11.2366 10.1053H4.92087V5.05262H11.2367V10.1053H11.2366ZM18.184 18.9474C17.1356 18.9474 16.2893 18.1011 16.2893 17.0526C16.2893 16.0042 17.1356 15.1579 18.184 15.1579C19.2325 15.1579 20.0788 16.0042 20.0788 17.0526C20.0788 18.1011 19.2324 18.9474 18.184 18.9474ZM20.0788 10.1053H13.763V5.05262H20.0788V10.1053Z" fill="#CC0000"/>
</g>
<defs>
<clipPath id="clip0_6701_22031">
<rect width="24" height="24" fill="white" transform="translate(0.5)"/>
</clipPath>
</defs>
</svg>
