<svg xmlns="http://www.w3.org/2000/svg" viewBox="0 0 210 100.5">
  <defs>
    <style>
      .cls-1, .cls-3, .cls-4, .cls-5 {
        fill-rule: evenodd;
      }

      .cls-2, .cls-5 {
        fill: #fff;
      }

      .cls-3 {
        fill: #007143;
      }

      .cls-4 {
        fill: #fe000d;
      }
    </style>
  </defs>
  <title>logo</title>
  <g id="Calque_2" data-name="Calque 2">
    <g id="Calque_2-2" data-name="Calque 2">
      <g>
        <path d="M82.1,84.2c-5.3,1.2-12.2,1.6-17.1-.7a13.2,13.2,0,0,1-7.4-10.6,13.8,13.8,0,0,1,5.7-13.1c4.9-3.5,12.8-3.4,18.2-.9v5.4c-4.1-1.9-10.2-3-14.2,0a8.5,8.5,0,0,0-2.9,9,8.4,8.4,0,0,0,5.4,6,14,14,0,0,0,6.1.5V75.4H73.3V70.1h8.8V84.2h0"/>
        <polyline points="16.7 84.5 16.7 62.3 26.5 62.3 26.5 57.2 0 57.2 0 62.3 9.8 62.3 9.8 84.5 16.7 84.5"/>
        <path d="M36.5,74.4l3.9-10.2,4.2,10.2H36.5m7.8-17h-8L25.2,84.7h7.3l2.1-5.4H46.8L49,84.7h7.3Z"/>
        <polyline points="108.8 69.1 93.4 69.1 93.4 57.4 89.2 57.4 89.2 84.6 93.4 84.6 93.4 72.7 108.8 72.7 108.8 84.6 112.9 84.6 112.9 57.4 108.8 57.4 108.8 69.1"/>
        <path d="M158.7,76.9a7.4,7.4,0,0,1-6.9,4.6c-4.8,0-5.5-3.7-5.5-6V61h-4.2V75c0,9.4,7.1,10.1,9.3,10.1a10.1,10.1,0,0,0,7.3-2.8v2.3h4.2V61h-4.2V76.9"/>
        <path d="M210,63.5c-.1-.1-2.7-3-6-3s-5.7,2.8-7.4,4.8V61h-4.2V84.6h4.1V70.5c1.1-1.8,4.1-5.9,6.6-5.9s4.2,2.3,4.3,2.3l2.5-3.4"/>
        <path d="M127.6,60.5c-6.5,0-11.4,4.9-11.4,12.2,0,5.1,3.4,12.4,12.6,12.4a14.9,14.9,0,0,0,9.5-3.3l.3-.3V76.7l-1.3,1.2a13,13,0,0,1-8.2,3.3c-5.1,0-8.6-2.9-8.6-8.4H139V72c0-5.8-3.6-11.5-11.4-11.5m-6.5,8.6c1-3.3,3.4-4.6,6.4-4.6,5,0,6.4,2.9,6.8,4.6Z"/>
        <g>
          <path d="M177.7,60.5c-6.5,0-11.4,4.9-11.4,12.2,0,5.1,3.4,12.4,12.6,12.4a15.4,15.4,0,0,0,9.6-3.3l.2-.3V76.7l-1.3,1.2a12.7,12.7,0,0,1-8.2,3.3c-5,0-8.6-2.9-8.6-8.4h18.5V72c0-5.8-3.5-11.5-11.4-11.5m-6.5,8.6c1.1-3.3,3.4-4.6,6.5-4.6,4.9,0,6.3,2.9,6.7,4.6Z"/>
          <path d="M11.2,97.4l-.8-.5A3.5,3.5,0,0,1,9.3,96,1.9,1.9,0,0,1,9,95a1.7,1.7,0,0,1,.6-1.4,2,2,0,0,1,1.5-.6,3.4,3.4,0,0,1,1.7.5v1.2a2.3,2.3,0,0,0-1.7-.7,1.1,1.1,0,0,0-.8.2.9.9,0,0,0-.3.6.7.7,0,0,0,.2.6l.8.6.8.5a2.2,2.2,0,0,1,1.3,2,1.7,1.7,0,0,1-.6,1.4,2,2,0,0,1-1.5.6,3.1,3.1,0,0,1-2-.7V98.5a2.6,2.6,0,0,0,2,1.1,1.1,1.1,0,0,0,.8-.3.9.9,0,0,0,.3-.7q0-.6-.9-1.2"/>
        </g>
        <polyline points="24.7 93.1 25.8 93.1 22.8 100.4 22.6 100.4 20.2 94.5 17.8 100.4 17.6 100.4 14.6 93.1 15.7 93.1 17.7 98.2 19.7 93.1 20.7 93.1 22.7 98.2 24.7 93.1"/>
        <g>
          <rect x="27.8" y="93.1" width="1" height="7.28"/>
          <path d="M33.4,97.4l-.8-.5a3,3,0,0,1-1-.9,1.9,1.9,0,0,1-.3-1,1.7,1.7,0,0,1,.6-1.4,2,2,0,0,1,1.5-.6,3.4,3.4,0,0,1,1.7.5v1.2a2.3,2.3,0,0,0-1.7-.7,1.1,1.1,0,0,0-.8.2.7.7,0,0,0-.4.6.9.9,0,0,0,.3.6,2.2,2.2,0,0,0,.7.6l.8.5a2.3,2.3,0,0,1,1.4,2,1.7,1.7,0,0,1-.6,1.4,2,2,0,0,1-1.5.6,2.9,2.9,0,0,1-2-.7V98.5a2.6,2.6,0,0,0,2,1.1,1.1,1.1,0,0,0,.8-.3.9.9,0,0,0,.3-.7c0-.4-.3-.8-1-1.2"/>
          <path d="M39.5,97.4l-.8-.5a3,3,0,0,1-1-.9,2.1,2.1,0,0,1-.4-1,2,2,0,0,1,.6-1.4,2.3,2.3,0,0,1,1.6-.6,3.4,3.4,0,0,1,1.7.5v1.2a2.5,2.5,0,0,0-1.7-.7,1.3,1.3,0,0,0-.9.2.7.7,0,0,0,0,1.2,2.2,2.2,0,0,0,.7.6l.8.5a2.3,2.3,0,0,1,1.4,2,1.7,1.7,0,0,1-.6,1.4,2.1,2.1,0,0,1-1.6.6,2.8,2.8,0,0,1-1.9-.7V98.5a2.4,2.4,0,0,0,1.9,1.1,1.4,1.4,0,0,0,.9-.3.9.9,0,0,0,.3-.7c0-.4-.3-.8-1-1.2"/>
        </g>
        <path d="M50.3,93.1H51l3.3,7.3H53.2l-1-2.1H49.1l-.9,2.1h-1l3.1-7.3m1.5,4.2-1.2-2.6-1.1,2.6Z"/>
        <polyline points="60 93.1 61.1 93.1 58 100.4 57.7 100.4 54.6 93.1 55.7 93.1 57.9 98.2 60 93.1"/>
        <path d="M64.5,93.1h.8l3.2,7.3h-1l-1-2.1H63.4l-.9,2.1H61.4l3.1-7.3m1.6,4.2-1.2-2.6-1.1,2.6Z"/>
        <polyline points="76.3 93.1 77.3 93.1 77.3 100.4 76.4 100.4 71.5 94.8 71.5 100.4 70.6 100.4 70.6 93.1 71.4 93.1 76.3 98.8 76.3 93.1"/>
        <polyline points="79.4 93.1 85.5 93.1 85.5 94.1 83 94.1 83 100.4 81.9 100.4 81.9 94.1 79.4 94.1 79.4 93.1"/>
        <g>
          <rect x="85.5" y="97.5" width="2.6" height="1.01"/>
          <path d="M94.5,96.8h2.4v3.1a6.5,6.5,0,0,1-2.6.6,4,4,0,0,1-2.9-1.1,3.5,3.5,0,0,1-1.1-2.6,3.7,3.7,0,0,1,1.1-2.7A4.1,4.1,0,0,1,94.2,93l1.2.2a3.4,3.4,0,0,1,1.4.5v1a5.2,5.2,0,0,0-2.6-.8,2.5,2.5,0,0,0-2,.9,2.9,2.9,0,0,0,0,4,2.9,2.9,0,0,0,2.1.8l1.5-.3h.1V97.7H94.5v-.9"/>
        </g>
        <path d="M101.5,93.1h.8l3.2,7.3h-1l-1-2.1h-3.1l-.9,2.1H98.4l3.1-7.3m1.6,4.2-1.2-2.6-1.1,2.6Z"/>
        <path d="M107.1,100.4V93.1H109a2.4,2.4,0,0,1,1.7.6,1.6,1.6,0,0,1,.7,1.5,1.7,1.7,0,0,1-.4,1.1,2.2,2.2,0,0,1-.9.7,1.3,1.3,0,0,1,.7.6,7.3,7.3,0,0,1,1,1.4,3.5,3.5,0,0,0,.6.9l.4.5h-1.3l-.3-.5h-.1l-.2-.2-.3-.6-.3-.5-.6-.8-.5-.3-.7-.2h-.3v3.2h-1.1m1.4-6.4h-.3v2.3h1.5a.8.8,0,0,0,.4-.4,1.4,1.4,0,0,0,.2-.7,1.4,1.4,0,0,0-.2-.6,1,1,0,0,0-.5-.4Z"/>
        <path d="M114.3,100.4V93.1h2.5a4.6,4.6,0,0,1,2.3.5,2.9,2.9,0,0,1,1.4,1.3,3.2,3.2,0,0,1,.5,1.9,6.8,6.8,0,0,1-.2,1.4l-.8,1.2a3.3,3.3,0,0,1-1.3.7l-.7.3h-3.7m2.4-6.3h-1.3v5.4h2.5l.8-.3.5-.4a2.8,2.8,0,0,0,.8-2,2.6,2.6,0,0,0-.8-1.9l-.7-.5-.7-.2Z"/>
        <g>
          <polyline points="123.5 93.1 127.7 93.1 127.7 94.1 124.6 94.1 124.6 96.3 127.6 96.3 127.6 97.2 124.6 97.2 124.6 99.5 127.8 99.5 127.8 100.4 123.5 100.4 123.5 93.1"/>
          <path d="M136,97.4l-.7-.5a3.5,3.5,0,0,1-1.1-.9,1.9,1.9,0,0,1-.3-1,1.7,1.7,0,0,1,.6-1.4A2,2,0,0,1,136,93a3.4,3.4,0,0,1,1.7.5v1.2A2.3,2.3,0,0,0,136,94a1.1,1.1,0,0,0-.8.2.7.7,0,0,0-.4.6.9.9,0,0,0,.3.6,1.8,1.8,0,0,0,.8.6l.8.5a2.4,2.4,0,0,1,1.3,2,1.7,1.7,0,0,1-.6,1.4,2,2,0,0,1-1.5.6,3.1,3.1,0,0,1-2-.7V98.5a2.6,2.6,0,0,0,2,1.1,1.1,1.1,0,0,0,.8-.3.9.9,0,0,0,.3-.7c0-.4-.3-.8-1-1.2"/>
        </g>
        <rect x="140.3" y="93.1" width="1" height="7.28"/>
        <g>
          <polyline points="150 93.1 151 93.1 151 100.4 150.1 100.4 145.2 94.8 145.2 100.4 144.2 100.4 144.2 93.1 145.1 93.1 150 98.8 150 93.1"/>
          <path d="M160,98.7v1.2a5.5,5.5,0,0,1-2.6.6,4.1,4.1,0,0,1-2.1-.5,3.8,3.8,0,0,1-1.4-1.4,3.6,3.6,0,0,1,.7-4.5,3.9,3.9,0,0,1,2.8-1.1,6.5,6.5,0,0,1,2.5.6v1.1a5.9,5.9,0,0,0-2.5-.7,2.8,2.8,0,0,0-2,.8,2.5,2.5,0,0,0-.9,2,3,3,0,0,0,.8,2,3.1,3.1,0,0,0,2.1.7,4.2,4.2,0,0,0,2.6-.8"/>
        </g>
        <polyline points="162.5 93.1 166.6 93.1 166.6 94.1 163.5 94.1 163.5 96.3 166.5 96.3 166.5 97.2 163.5 97.2 163.5 99.5 166.7 99.5 166.7 100.4 162.5 100.4 162.5 93.1"/>
        <g>
          <rect x="174.5" y="93.1" width="1" height="7.28"/>
          <path d="M179.4,95.1a1.8,1.8,0,0,1,.7-1.5,2,2,0,0,1,1.5-.6,2.3,2.3,0,0,1,1.6.6,2,2,0,0,1,.6,1.5,1.9,1.9,0,0,1-.9,1.6,1.8,1.8,0,0,1,1,1.7,2,2,0,0,1-.6,1.5,2.7,2.7,0,0,1-3.4,0,2,2,0,0,1-.6-1.5,1.9,1.9,0,0,1,1-1.7l-.7-.8a1.9,1.9,0,0,1-.2-.8m3.5,3.4v-.2a1.4,1.4,0,0,0-2.2-.8,1,1,0,0,0-.4.9.9.9,0,0,0,.4.8,1.5,1.5,0,0,0,1.8,0A1,1,0,0,0,182.9,98.5Zm-.1-3.4a.9.9,0,0,0-.4-.8,1.1,1.1,0,1,0,0,1.6A.9.9,0,0,0,182.8,95.1Z"/>
          <path d="M188.7,93.1h.1l.7.8a5.8,5.8,0,0,0-1.4,1.2,3.8,3.8,0,0,0-.9,1.5,2.7,2.7,0,0,1,1.2-.3,1.8,1.8,0,0,1,1.4.6,2,2,0,0,1,.6,1.5,2.5,2.5,0,0,1-.6,1.6,2.3,2.3,0,0,1-1.6.6,1.9,1.9,0,0,1-1.6-.7,2.5,2.5,0,0,1-.7-1.9,5.7,5.7,0,0,1,.3-1.8,14,14,0,0,1,1-1.6,6.7,6.7,0,0,1,1.5-1.4M187,97.6v.5a1.5,1.5,0,0,0,.3,1,1.2,1.2,0,0,0,.9.4,1.4,1.4,0,0,0,.9-.3,1.2,1.2,0,0,0,.3-.9.9.9,0,0,0-.4-.8,1.2,1.2,0,0,0-.9-.3h-.5Z"/>
          <path d="M194.7,93a1.8,1.8,0,0,1,1.6,1.1,4.4,4.4,0,0,1,.7,2.6,4.3,4.3,0,0,1-.7,2.7,1.8,1.8,0,0,1-3.3.1,5.6,5.6,0,0,1,0-5.4,2,2,0,0,1,1.7-1.1m0,1h0a1.2,1.2,0,0,0-1,.7,5.4,5.4,0,0,0-.4,2,5.6,5.6,0,0,0,.4,2.1.9.9,0,0,0,.9.7,1,1,0,0,0,1-.7,5.6,5.6,0,0,0,.3-2,5.3,5.3,0,0,0-.3-2C195.4,94.3,195.1,94,194.7,94Z"/>
        </g>
        <polyline class="cls-1" points="80 28.9 80 0 130 0 130 29 105 43.3 80 28.9"/>
        <polyline class="cls-2" points="81.3 1.3 81.2 1.3 81.2 28.2 105 41.9 105 41.9 105 41.9 128.7 28.2 128.8 28.2 128.8 1.3 81.3 1.3"/>
        <polyline class="cls-3" points="82.5 2.5 82.5 17.1 127.4 17.1 127.4 2.5 82.5 2.5"/>
        <polyline class="cls-4" points="82.5 18.4 82.5 27.5 105 40.4 127.4 27.5 127.4 18.4 82.5 18.4"/>
        <polyline class="cls-5" points="93.5 15.4 93.5 6.6 98.2 6.6 98.2 4.3 85.5 4.3 85.5 6.6 90.2 6.6 90.2 15.4 93.5 15.4"/>
        <path class="cls-5" d="M123.9,15.2a15.8,15.8,0,0,1-8.1-.3,5.7,5.7,0,0,1-3.6-4.3A5.5,5.5,0,0,1,115,5.2c2.3-1.4,6.1-1.4,8.6-.4V7.2c-1.9-.7-4.8-1.4-6.7-.2a3.2,3.2,0,0,0-1.4,3.7,3.6,3.6,0,0,0,2.6,2.5,9,9,0,0,0,2.9.2V11.6h-1.3V9.4h4.2v5.8"/>
        <path class="cls-5" d="M101.3,13.2l-1.1,2.2H96.9l5.4-11.1h3.8l5.6,11.1h-3.4l-1.2-2.2h-5.8m3-6.2-2,4h3.8Z"/>
        <path class="cls-2" d="M108.7,36V20.1h-1.8v15l-1.9,1-1.9-1v-15h-1.8V36a.1.1,0,0,0,.1.1l3.6,2h0l3.6-2h.1"/>
        <path class="cls-2" d="M98.7,34.6h.1V32.8h0l-3.4-1.9V26.7l3,.8a.1.1,0,0,0,.1-.1V25.7h-.1l-3-.7V21.6h3.3c.1,0,.1,0,.1-.1V20.1H93.6V31.6h.1l5,2.9"/>
        <path class="cls-2" d="M116.7,31.4V29.8h0c0-.1-.1-.1-.1,0l-3.4,1.8V27l3.2-.8h0V24.6h0c0-.1,0-.1-.1-.1l-3.1.7V21.6h3.4c.1,0,.1,0,.1-.1V20.1h-5.2V34.3h.1l5.1-2.9h0"/>
        <path class="cls-2" d="M89.4,29.2l1.4.8h.1V20.1H89.3v3.5L86,22.9V20.1H84.4v6.2h.1l1.4.8H86V24.3l3.3.8v4h.1"/>
        <path class="cls-2" d="M119.4,29.9h0l1.5-.8h0V25.1l.8-.2,2.5,2.2h.1l1.3-.7h0l-2.2-1.8L125,24c.5-.1.6-.3.6-.9V20.6a.8.8,0,0,0-.8-.5h-5.5v9.6h.1m1.5-8.3h2.9a.2.2,0,0,1,.2.2v.8c0,.2,0,.3-.2.3l-2.9.6Z"/>
      </g>
    </g>
  </g>
</svg>
