<svg width="20" height="20" viewBox="0 0 20 20" fill="none" xmlns="http://www.w3.org/2000/svg">
<path d="M7.7839 8.77985L8.00032 8.56343L7.90602 8.27225C7.2202 6.15455 7.77065 3.82123 9.35347 2.23842C11.6713 -0.0794495 15.4437 -0.0794807 17.7615 2.23838C20.0794 4.55624 20.0794 8.32867 17.7616 10.6465L17.7614 10.6466C16.1826 12.2265 13.8946 12.7377 11.7722 12.0497L11.4831 11.9559L11.2668 12.1694L9.76419 13.6521L9.76418 13.6521L9.76177 13.6545C9.74554 13.6708 9.7239 13.6797 9.70113 13.6797H8.62995H8.12995V14.1797V15.2702C8.12994 15.2825 8.12733 15.2947 8.1223 15.3059C8.11739 15.3169 8.11028 15.3267 8.10142 15.3348C8.07716 15.3559 8.05415 15.3585 8.04336 15.3571L8.04337 15.357L8.03428 15.3559L7.14393 15.2524L6.63628 15.1933L6.58837 15.7022L6.4722 16.9358L6.47215 16.9363C6.47031 16.956 6.46164 16.9745 6.44764 16.9885C6.43363 17.0025 6.41516 17.0112 6.39544 17.013L6.39495 17.0131L5.16128 17.1292L4.65277 17.1771L4.71147 17.6845L4.81448 18.5748L4.8145 18.575C4.81599 18.5879 4.81455 18.6009 4.81029 18.6132C4.80603 18.6254 4.79905 18.6365 4.78989 18.6457L4.78983 18.6458L3.96134 19.4748L3.96128 19.4749C3.94506 19.4911 3.92344 19.5 3.9007 19.5H0.585937C0.538213 19.5 0.5 19.4618 0.5 19.4141V16.0993V16.0992C0.499998 16.088 0.50221 16.0769 0.50651 16.0665C0.510811 16.0561 0.517116 16.0467 0.525063 16.0387L0.525234 16.0386L7.7839 8.77985ZM5.70607 17.5801L6.44183 17.5109L5.70607 17.5801ZM16.811 6.38173L16.4575 6.02818L16.8111 6.38172C17.6918 5.50097 17.6918 4.06974 16.811 3.18896C15.9303 2.30819 14.499 2.30819 13.6183 3.18896C12.7375 4.06973 12.7375 5.50096 13.6183 6.38173C14.499 7.2625 15.9303 7.2625 16.811 6.38173Z" stroke="#1F1449"/>
</svg>
