<svg width="22" height="21" viewBox="0 0 22 21" fill="none" xmlns="http://www.w3.org/2000/svg">
<path d="M20.961 4.5296L20.9631 4.53221L8.82 15.75V16.25H8.82047H18C18.0663 16.25 18.1299 16.2763 18.1768 16.3232C18.2237 16.3701 18.25 16.4337 18.25 16.5C18.25 16.5663 18.2237 16.6299 18.1768 16.6768C18.1299 16.7237 18.0663 16.75 18 16.75L8.82018 16.75C8.81994 16.75 8.8197 16.75 8.81946 16.75C8.53083 16.7492 8.25132 16.6488 8.0281 16.4658C7.80485 16.2827 7.65159 16.0283 7.59418 15.7454C7.59414 15.7452 7.5941 15.745 7.59406 15.7448L4.9163 2.35197L4.91631 2.35197L4.91557 2.34841C4.88046 2.17921 4.78807 2.02729 4.65399 1.91828C4.52003 1.80937 4.35264 1.74995 4.18 1.75C4.17995 1.75 4.17991 1.75 4.17986 1.75H1C0.933696 1.75 0.870107 1.72366 0.823223 1.67678C0.776339 1.62989 0.75 1.5663 0.75 1.5C0.75 1.4337 0.776339 1.37011 0.823223 1.32322C0.870107 1.27634 0.933696 1.25 1 1.25H4.18037C4.46906 1.25081 4.74864 1.3512 4.9719 1.53423C5.19514 1.71725 5.3484 1.97169 5.40581 2.25458C5.40586 2.25479 5.4059 2.25499 5.40594 2.2552L5.72472 3.84812L5.80515 4.25H6.215L20.377 4.25L20.3785 4.25C20.4904 4.24967 20.6009 4.27465 20.7017 4.32306C20.8026 4.37148 20.8912 4.44209 20.961 4.5296Z" stroke="#0B0B0B"/>
<path d="M10.5 19.5C10.5 20.0523 10.0523 20.5 9.5 20.5C8.94772 20.5 8.5 20.0523 8.5 19.5C8.5 18.9477 8.94772 18.5 9.5 18.5C10.0523 18.5 10.5 18.9477 10.5 19.5Z" stroke="#0B0B0B"/>
<path d="M18 19.5C18 20.0523 17.5523 20.5 17 20.5C16.4477 20.5 16 20.0523 16 19.5C16 18.9477 16.4477 18.5 17 18.5C17.5523 18.5 18 18.9477 18 19.5Z" stroke="#0B0B0B"/>
</svg>
