<svg width="24" height="24" viewBox="0 0 24 24" fill="none" xmlns="http://www.w3.org/2000/svg">
<path d="M23.2876 9.07832L23.2877 9.07834C23.3332 9.08528 23.3759 9.10462 23.4111 9.13424L23.7331 8.75176L23.4111 9.13425C23.4463 9.16387 23.4726 9.20263 23.4872 9.24626C23.5018 9.28989 23.504 9.33669 23.4937 9.38152L23.981 9.4936L23.4937 9.38153C23.4834 9.42635 23.4609 9.46747 23.4287 9.50034L23.4282 9.50089L18.0682 14.9949L17.892 15.1755L17.9326 15.4246L19.1996 23.1914C19.2071 23.2377 19.2015 23.2852 19.1833 23.3285C19.1652 23.3717 19.1352 23.409 19.0968 23.436C19.0585 23.463 19.0133 23.4787 18.9665 23.4812C18.9196 23.4838 18.873 23.4731 18.8319 23.4504L12.242 19.8075L12.0001 19.6738L11.7582 19.8074L5.16826 23.4494C5.16826 23.4494 5.16825 23.4494 5.16824 23.4494C5.12718 23.4721 5.08057 23.4828 5.03374 23.4802C4.9869 23.4777 4.94172 23.462 4.90337 23.435C4.86502 23.408 4.83504 23.3707 4.81686 23.3275C4.79871 23.2843 4.79306 23.2368 4.80057 23.1906C4.80058 23.1905 4.80059 23.1905 4.80059 23.1904L6.06757 15.4236L6.1082 15.1745L5.93199 14.9939L0.572017 9.49992C0.539937 9.46704 0.517541 9.42595 0.507286 9.38117C0.49703 9.33639 0.499312 9.28964 0.513881 9.24608C0.52845 9.20251 0.554742 9.16379 0.589872 9.13419C0.625 9.10459 0.667608 9.08523 0.713017 9.07826L8.0906 7.95132L8.35436 7.91103L8.46772 7.66949L11.7737 0.625581C11.7947 0.580731 11.8638 0.518555 11.9996 0.518555C12.1354 0.518555 12.2045 0.580731 12.2255 0.625581L15.5325 7.66954L15.6459 7.91104L15.9096 7.95132L23.2876 9.07832Z" stroke="#1F1449"/>
</svg>
