<svg width="20" height="24" viewBox="0 0 20 24" fill="none" xmlns="http://www.w3.org/2000/svg">
<mask id="path-1-inside-1_2463_5943" fill="white">
<path fill-rule="evenodd" clip-rule="evenodd" d="M0.187744 3C0.187744 3 6.31224 3.87525 9.99999 0C13.6877 3.87525 19.8122 3 19.8122 3V13.5C19.8122 19.6875 9.99999 24 9.99999 24C9.99999 24 0.187744 19.6875 0.187744 13.5V3ZM4.9397 13.2726L9.2912 16.6716L15.2049 7.96188L13.9644 7.11963L8.95145 14.5019L5.8622 12.0906L4.9397 13.2726Z"/>
</mask>
<path d="M9.99999 0L10.7244 -0.689365L9.99999 -1.45061L9.27558 -0.689365L9.99999 0ZM0.187744 3L0.329216 2.01006L-0.812256 1.84693V3H0.187744ZM19.8122 3H20.8122V1.84693L19.6708 2.01006L19.8122 3ZM9.99999 24L9.59764 24.9155L9.99999 25.0923L10.4024 24.9155L9.99999 24ZM9.2912 16.6716L8.67562 17.4597L9.51805 18.1177L10.1185 17.2334L9.2912 16.6716ZM4.9397 13.2726L4.15137 12.6574L3.53636 13.4454L4.32412 14.0607L4.9397 13.2726ZM15.2049 7.96188L16.0323 8.52361L16.594 7.69628L15.7667 7.13455L15.2049 7.96188ZM13.9644 7.11963L14.5262 6.2923L13.6989 5.73062L13.1372 6.55785L13.9644 7.11963ZM8.95145 14.5019L8.33616 15.2902L9.17847 15.9476L9.77874 15.0637L8.95145 14.5019ZM5.8622 12.0906L6.47749 11.3023L5.68915 10.687L5.07387 11.4754L5.8622 12.0906ZM9.27558 -0.689365C7.65084 1.01798 5.45371 1.71202 3.57881 1.96199C2.64976 2.08585 1.8261 2.09686 1.23634 2.07679C0.942236 2.06678 0.708454 2.04911 0.551385 2.0344C0.472908 2.02705 0.413761 2.02045 0.376004 2.01594C0.357131 2.01368 0.343621 2.01196 0.335733 2.01092C0.331789 2.0104 0.329252 2.01006 0.328155 2.0099C0.327606 2.00983 0.327418 2.0098 0.327593 2.00983C0.327681 2.00984 0.32786 2.00987 0.32813 2.0099C0.328265 2.00992 0.328537 2.00996 0.328604 2.00997C0.328899 2.01001 0.329216 2.01006 0.187744 3C0.0462719 3.98994 0.0466363 3.98999 0.0470239 3.99005C0.0471845 3.99007 0.0475965 3.99013 0.0479178 3.99018C0.048561 3.99027 0.0492985 3.99037 0.0501297 3.99049C0.0517923 3.99072 0.0538303 3.991 0.0562395 3.99133C0.0610577 3.992 0.0673618 3.99285 0.0751187 3.99387C0.0906313 3.9959 0.111962 3.99862 0.138847 4.00183C0.192605 4.00825 0.26864 4.01667 0.364833 4.02568C0.557102 4.04369 0.830608 4.06413 1.1683 4.07563C1.84212 4.09856 2.78007 4.08618 3.84312 3.94445C5.9524 3.66323 8.6614 2.85727 10.7244 0.689365L9.27558 -0.689365ZM19.8122 3C19.6708 2.01006 19.6711 2.01001 19.6714 2.00997C19.6715 2.00996 19.6717 2.00992 19.6719 2.0099C19.6721 2.00987 19.6723 2.00984 19.6724 2.00983C19.6726 2.0098 19.6724 2.00983 19.6718 2.0099C19.6707 2.01006 19.6682 2.0104 19.6643 2.01092C19.6564 2.01196 19.6429 2.01368 19.624 2.01594C19.5862 2.02045 19.5271 2.02705 19.4486 2.0344C19.2915 2.04911 19.0578 2.06678 18.7637 2.07679C18.1739 2.09686 17.3502 2.08585 16.4212 1.96199C14.5463 1.71202 12.3491 1.01798 10.7244 -0.689365L9.27558 0.689365C11.3386 2.85727 14.0476 3.66323 16.1569 3.94445C17.2199 4.08618 18.1579 4.09856 18.8317 4.07563C19.1694 4.06413 19.4429 4.04369 19.6352 4.02568C19.7313 4.01667 19.8074 4.00825 19.8611 4.00183C19.888 3.99862 19.9094 3.9959 19.9249 3.99387C19.9326 3.99285 19.9389 3.992 19.9437 3.99133C19.9462 3.991 19.9482 3.99072 19.9499 3.99049C19.9507 3.99037 19.9514 3.99027 19.9521 3.99018C19.9524 3.99013 19.9528 3.99007 19.953 3.99005C19.9534 3.98999 19.9537 3.98994 19.8122 3ZM20.8122 13.5V3H18.8122V13.5H20.8122ZM9.99999 24C10.4024 24.9155 10.4026 24.9154 10.4029 24.9152C10.4031 24.9152 10.4034 24.915 10.4037 24.9149C10.4044 24.9146 10.4051 24.9143 10.406 24.9139C10.4079 24.913 10.4103 24.912 10.4133 24.9106C10.4193 24.908 10.4276 24.9042 10.4383 24.8995C10.4595 24.8899 10.4898 24.8762 10.5285 24.8584C10.6059 24.8227 10.7173 24.7706 10.8577 24.7025C11.1383 24.5666 11.5358 24.3667 12.0114 24.1077C12.9602 23.591 14.2315 22.8324 15.5086 21.8685C17.9873 19.9976 20.8122 17.1096 20.8122 13.5H18.8122C18.8122 16.0779 16.7311 18.4399 14.3037 20.2722C13.1277 21.1598 11.9459 21.8661 11.0549 22.3513C10.6106 22.5933 10.2415 22.7787 9.98556 22.9027C9.85765 22.9647 9.75818 23.0112 9.69189 23.0417C9.65876 23.057 9.63394 23.0683 9.61803 23.0754C9.61007 23.079 9.60434 23.0815 9.60092 23.0831C9.59921 23.0838 9.59807 23.0843 9.59752 23.0846C9.59725 23.0847 9.59712 23.0847 9.59714 23.0847C9.59715 23.0847 9.59727 23.0847 9.59728 23.0847C9.59744 23.0846 9.59764 23.0845 9.99999 24ZM-0.812256 13.5C-0.812256 17.1096 2.01273 19.9976 4.49142 21.8685C5.76853 22.8324 7.03975 23.591 7.98856 24.1077C8.46415 24.3667 8.86168 24.5666 9.14232 24.7025C9.28271 24.7706 9.39405 24.8227 9.4715 24.8584C9.51023 24.8762 9.54051 24.8899 9.56173 24.8995C9.57234 24.9042 9.58069 24.908 9.5867 24.9106C9.5897 24.912 9.59212 24.913 9.59395 24.9139C9.59486 24.9143 9.59563 24.9146 9.59624 24.9149C9.59655 24.915 9.5969 24.9152 9.59705 24.9152C9.59736 24.9154 9.59764 24.9155 9.99999 24C10.4024 23.0845 10.4025 23.0846 10.4027 23.0847C10.4027 23.0847 10.4028 23.0847 10.4029 23.0847C10.4029 23.0847 10.4027 23.0847 10.4025 23.0846C10.4019 23.0843 10.4008 23.0838 10.3991 23.0831C10.3956 23.0815 10.3899 23.079 10.382 23.0754C10.366 23.0683 10.3412 23.057 10.3081 23.0417C10.2418 23.0112 10.1423 22.9647 10.0144 22.9027C9.75846 22.7787 9.38941 22.5933 8.9451 22.3513C8.05412 21.8661 6.87227 21.1598 5.69632 20.2722C3.26888 18.4399 1.18774 16.0779 1.18774 13.5H-0.812256ZM-0.812256 3V13.5H1.18774V3H-0.812256ZM9.90677 15.8836L5.55527 12.4846L4.32412 14.0607L8.67562 17.4597L9.90677 15.8836ZM14.3776 7.40015L8.46388 16.1099L10.1185 17.2334L16.0323 8.52361L14.3776 7.40015ZM13.4027 7.94696L14.6432 8.78921L15.7667 7.13455L14.5262 6.2923L13.4027 7.94696ZM9.77874 15.0637L14.7917 7.68141L13.1372 6.55785L8.12416 13.9401L9.77874 15.0637ZM5.24691 12.8789L8.33616 15.2902L9.56674 13.7136L6.47749 11.3023L5.24691 12.8789ZM5.72802 13.8879L6.65052 12.7059L5.07387 11.4754L4.15137 12.6574L5.72802 13.8879Z" fill="#1F1449" mask="url(#path-1-inside-1_2463_5943)"/>
</svg>
