<svg width="22" height="24" viewBox="0 0 22 24" fill="none" xmlns="http://www.w3.org/2000/svg">
<path d="M5.6694 21.8273L6.52296 20.9737H5.31585C3.15406 20.9737 1.39478 19.2144 1.39478 17.0526V5.05262C1.39478 4.05008 1.67833 3.29603 2.15142 2.71311C2.63096 2.12226 3.3344 1.67178 4.22823 1.33659C6.03046 0.660756 8.47576 0.5 11.0001 0.5C13.7951 0.5 16.2342 0.661774 17.9653 1.33447C18.8205 1.66681 19.4721 2.11273 19.9117 2.69822C20.3475 3.2788 20.6053 4.03707 20.6054 5.05262V17.0526C20.6054 19.2144 18.846 20.9737 16.6843 20.9737H15.4772L16.3307 21.8272L18.0035 23.5H16.2598L13.88 21.1202L13.7335 20.9737H13.5264H8.76427H8.55717L8.41072 21.1202L6.03083 23.5001H3.99662L5.6694 21.8273ZM2.92111 10.1053V10.6053H3.42111H9.73687H9.73693H10.2369V10.1053V5.05262V4.55262H9.73693H3.42111H2.92111V5.05262V10.1053ZM18.579 10.6053H19.079V10.1053V5.05262V4.55262H18.579H12.2632H11.7632V5.05262V10.1053V10.6053H12.2632H18.579ZM2.92111 17.0526C2.92111 18.3772 3.99127 19.4474 5.31585 19.4474C6.64037 19.4474 7.71059 18.3772 7.71059 17.0526C7.71059 15.7281 6.64043 14.6579 5.31585 14.6579C3.99127 14.6579 2.92111 15.7281 2.92111 17.0526ZM14.2895 17.0526C14.2895 18.3772 15.3597 19.4474 16.6843 19.4474C18.0088 19.4474 19.079 18.3772 19.079 17.0526C19.079 15.7281 18.0089 14.6579 16.6843 14.6579C15.3597 14.6579 14.2895 15.7281 14.2895 17.0526Z" stroke="#1F1449"/>
</svg>
