<svg width="24" height="18" viewBox="0 0 24 18" fill="none" xmlns="http://www.w3.org/2000/svg">
<mask id="path-1-inside-1_2463_5503" fill="white">
<path d="M2.49998 6.5H4.99997C4.92404 6.49995 4.84912 6.48264 4.78086 6.44938C4.71261 6.41611 4.65281 6.36777 4.60598 6.308C4.51097 6.18702 4.47797 6.029 4.515 5.879L4.82602 4.63602C4.9068 4.31135 5.09398 4.02308 5.35768 3.81719C5.62139 3.61129 5.94645 3.49963 6.28102 3.5H9.50002C10.327 3.5 11 4.17298 11 5V5.99998C11 6.27598 10.776 6.5 10.5 6.5H13.5C13.224 6.5 13 6.27598 13 5.99998V5C13 4.17298 13.673 3.5 14.5 3.5H17.719C18.0536 3.49963 18.3786 3.61129 18.6423 3.81719C18.906 4.02308 19.0932 4.31135 19.174 4.63602L19.485 5.879C19.5036 5.9527 19.5051 6.0297 19.4894 6.10407C19.4736 6.17845 19.441 6.24821 19.394 6.308C19.3472 6.36777 19.2874 6.41611 19.2191 6.44937C19.1509 6.48263 19.076 6.49995 19 6.5H21.5C21.776 6.5 22 6.27598 22 5.99998V2.99998C22 1.622 20.878 0.5 19.5 0.5H4.5C3.12202 0.5 2.00002 1.622 2.00002 2.99998V5.99998C2.00002 6.27598 2.22398 6.5 2.49998 6.5ZM21.5 7.49998H2.49998C1.122 7.49998 0 8.62199 0 9.99997V17C0 17.276 0.224016 17.5 0.500016 17.5C0.776016 17.5 1.00003 17.276 1.00003 17V15.5H23V17C23 17.276 23.224 17.5 23.5 17.5C23.776 17.5 24 17.276 24 17V9.99997C24 8.62199 22.878 7.49998 21.5 7.49998ZM23 14.5H0.999984V13.5H23V14.5H23Z"/>
</mask>
<path d="M4.99997 6.5V7.5L5.00063 5.5L4.99997 6.5ZM4.60598 6.308L5.39319 5.69131L5.39244 5.69035L4.60598 6.308ZM4.515 5.879L3.5449 5.63627L3.54415 5.63932L4.515 5.879ZM4.82602 4.63602L5.79611 4.87875L5.79642 4.87749L4.82602 4.63602ZM6.28102 3.5L6.27991 4.5H6.28102V3.5ZM17.719 3.5V4.5L17.7201 4.5L17.719 3.5ZM19.174 4.63602L18.2036 4.87749L18.2039 4.87875L19.174 4.63602ZM19.485 5.879L18.5149 6.12173L18.5155 6.12425L19.485 5.879ZM19.394 6.308L18.6076 5.69034L18.6068 5.69127L19.394 6.308ZM19 6.5L18.9993 5.5L19 7.5V6.5ZM1.00003 15.5V14.5H3.12328e-05V15.5H1.00003ZM23 15.5H24V14.5H23V15.5ZM24 9.99997H25V9.99994L24 9.99997ZM0.999984 14.5H-1.56164e-05V15.5H0.999984V14.5ZM0.999984 13.5V12.5H-1.56164e-05V13.5H0.999984ZM23 13.5H24V12.5H23V13.5ZM23 14.5H22V15.5H23V14.5ZM2.49998 7.5H4.99997V5.5H2.49998V7.5ZM5.00063 5.5C5.07628 5.50005 5.15094 5.5173 5.21894 5.55044L4.34278 7.34831C4.5473 7.44798 4.7718 7.49985 4.99931 7.5L5.00063 5.5ZM5.21894 5.55044C5.28695 5.58358 5.34653 5.63175 5.39319 5.69131L3.81878 6.92469C3.95909 7.10379 4.13827 7.24865 4.34278 7.34831L5.21894 5.55044ZM5.39244 5.69035C5.49098 5.81582 5.5213 5.97511 5.48585 6.11868L3.54415 5.63932C3.43464 6.08289 3.53096 6.55821 3.81953 6.92565L5.39244 5.69035ZM5.48509 6.12173L5.79611 4.87875L3.85592 4.39328L3.54491 5.63627L5.48509 6.12173ZM5.79642 4.87749C5.82327 4.7696 5.88546 4.67382 5.97309 4.6054L4.74228 3.02898C4.30249 3.37235 3.99034 3.8531 3.85561 4.39454L5.79642 4.87749ZM5.97309 4.6054C6.06072 4.53698 6.16873 4.49988 6.27991 4.5L6.28212 2.5C5.72417 2.49938 5.18207 2.68561 4.74228 3.02898L5.97309 4.6054ZM6.28102 4.5H9.50002V2.5H6.28102V4.5ZM9.50002 4.5C9.77475 4.5 10 4.72527 10 5H12C12 3.6207 10.8793 2.5 9.50002 2.5V4.5ZM10 5V5.99998H12V5H10ZM10 5.99998C10 5.7237 10.2237 5.5 10.5 5.5V7.5C11.3283 7.5 12 6.82827 12 5.99998H10ZM10.5 7.5H13.5V5.5H10.5V7.5ZM13.5 5.5C13.7763 5.5 14 5.7237 14 5.99998H12C12 6.82827 12.6717 7.5 13.5 7.5V5.5ZM14 5.99998V5H12V5.99998H14ZM14 5C14 4.72527 14.2253 4.5 14.5 4.5V2.5C13.1207 2.5 12 3.6207 12 5H14ZM14.5 4.5H17.719V2.5H14.5V4.5ZM17.7201 4.5C17.8313 4.49988 17.9393 4.53698 18.0269 4.6054L19.2577 3.02898C18.8179 2.68561 18.2758 2.49938 17.7179 2.5L17.7201 4.5ZM18.0269 4.6054C18.1145 4.67382 18.1767 4.7696 18.2036 4.87749L20.1444 4.39454C20.0097 3.85309 19.6975 3.37235 19.2577 3.02898L18.0269 4.6054ZM18.2039 4.87875L18.5149 6.12173L20.4551 5.63627L20.1441 4.39328L18.2039 4.87875ZM18.5155 6.12425C18.4967 6.0497 18.4952 5.97182 18.5111 5.8966L20.4676 6.31154C20.5151 6.08758 20.5106 5.8557 20.4545 5.63375L18.5155 6.12425ZM18.5111 5.8966C18.5271 5.82139 18.5601 5.75083 18.6076 5.69035L20.1805 6.92565C20.3219 6.74559 20.4201 6.5355 20.4676 6.31154L18.5111 5.8966ZM18.6068 5.69127C18.6535 5.63173 18.7131 5.58357 18.7811 5.55044L19.6572 7.34831C19.8617 7.24865 20.0409 7.10381 20.1812 6.92473L18.6068 5.69127ZM18.7811 5.55044C18.8491 5.5173 18.9237 5.50005 18.9993 5.5L19.0007 7.5C19.2282 7.49984 19.4527 7.44797 19.6572 7.34831L18.7811 5.55044ZM19 7.5H21.5V5.5H19V7.5ZM21.5 7.5C22.3283 7.5 23 6.82827 23 5.99998H21C21 5.7237 21.2237 5.5 21.5 5.5V7.5ZM23 5.99998V2.99998H21V5.99998H23ZM23 2.99998C23 1.06972 21.4303 -0.5 19.5 -0.5V1.5C20.3257 1.5 21 2.17428 21 2.99998H23ZM19.5 -0.5H4.5V1.5H19.5V-0.5ZM4.5 -0.5C2.56973 -0.5 1.00002 1.06972 1.00002 2.99998H3.00002C3.00002 2.17428 3.6743 1.5 4.5 1.5V-0.5ZM1.00002 2.99998V5.99998H3.00002V2.99998H1.00002ZM1.00002 5.99998C1.00002 6.82815 1.67158 7.5 2.49998 7.5V5.5C2.77639 5.5 3.00002 5.72382 3.00002 5.99998H1.00002ZM21.5 6.49998H2.49998V8.49998H21.5V6.49998ZM2.49998 6.49998C0.569715 6.49998 -1 8.0697 -1 9.99997H1C1 9.17427 1.67428 8.49998 2.49998 8.49998V6.49998ZM-1 9.99997V17H1V9.99997H-1ZM-1 17C-1 17.8282 -0.328272 18.5 0.500016 18.5V16.5C0.776303 16.5 1 16.7237 1 17H-1ZM0.500016 18.5C1.3283 18.5 2.00003 17.8282 2.00003 17H3.12328e-05C3.12328e-05 16.7237 0.223728 16.5 0.500016 16.5V18.5ZM2.00003 17V15.5H3.12328e-05V17H2.00003ZM1.00003 16.5H23V14.5H1.00003V16.5ZM22 15.5V17H24V15.5H22ZM22 17C22 17.8282 22.6717 18.5 23.5 18.5V16.5C23.7763 16.5 24 16.7237 24 17H22ZM23.5 18.5C24.3283 18.5 25 17.8282 25 17H23C23 16.7237 23.2237 16.5 23.5 16.5V18.5ZM25 17V9.99997H23V17H25ZM25 9.99994C25 8.0697 23.4303 6.49998 21.5 6.49998V8.49998C22.3257 8.49998 23 9.17427 23 10L25 9.99994ZM23 13.5H0.999984V15.5H23V13.5ZM1.99998 14.5V13.5H-1.56164e-05V14.5H1.99998ZM0.999984 14.5H23V12.5H0.999984V14.5ZM22 13.5V14.5H24V13.5H22ZM23 15.5H23V13.5H23V15.5Z" fill="#1F1449" mask="url(#path-1-inside-1_2463_5503)"/>
</svg>
