<svg width="20" height="24" viewBox="0 0 20 24" fill="none" xmlns="http://www.w3.org/2000/svg">
<g filter="url(#filter0_d_242_11052)">
<path d="M10.0025 1.6694L15.2602 6.96397V22.54H4.74023V6.96409L10.0025 1.6694Z" stroke="#1F1449" shape-rendering="crispEdges"/>
</g>
<mask id="path-2-inside-1_242_11052" fill="white">
<path d="M9.63418 12.5222C9.63418 11.4998 8.80762 10.6685 7.79146 10.6685C6.7753 10.6685 5.94922 11.4998 5.94922 12.5222C5.94922 13.5441 6.77578 14.3755 7.79146 14.3755C8.80714 14.3755 9.63418 13.5441 9.63418 12.5222ZM7.79146 13.8955C7.04026 13.8955 6.42922 13.2797 6.42922 12.5222C6.42922 11.7648 7.04026 11.1485 7.79146 11.1485C8.54266 11.1485 9.15418 11.7648 9.15418 12.5222C9.15418 13.2797 8.54314 13.8955 7.79146 13.8955ZM12.2094 14.4614C11.1932 14.4614 10.3667 15.2928 10.3667 16.3147C10.3667 17.3371 11.1932 18.1685 12.2094 18.1685C13.2255 18.1685 14.0516 17.3371 14.0516 16.3147C14.0516 15.2928 13.2251 14.4614 12.2094 14.4614ZM12.2094 17.6889C11.4582 17.6889 10.8467 17.0726 10.8467 16.3152C10.8467 15.5577 11.4577 14.9419 12.2094 14.9419C12.9606 14.9419 13.5716 15.5577 13.5716 16.3152C13.5716 17.0726 12.9606 17.6889 12.2094 17.6889ZM11.6291 10.6881C11.6001 10.6757 11.569 10.669 11.5374 10.6686C11.5059 10.6682 11.4746 10.674 11.4453 10.6857C11.416 10.6974 11.3893 10.7147 11.3668 10.7367C11.3442 10.7587 11.3261 10.7849 11.3137 10.8139L8.29834 17.8344C8.28592 17.8633 8.27932 17.8944 8.27892 17.9259C8.27852 17.9574 8.28433 17.9886 8.29601 18.0179C8.30768 18.0471 8.32501 18.0738 8.34698 18.0963C8.36896 18.1188 8.39517 18.1368 8.4241 18.1493C8.45303 18.1617 8.48413 18.1683 8.51561 18.1687C8.54709 18.1691 8.57835 18.1633 8.60758 18.1516C8.63682 18.1399 8.66348 18.1226 8.68602 18.1006C8.70857 18.0786 8.72656 18.0524 8.73898 18.0235L11.7543 11.003C11.7669 10.9741 11.7737 10.943 11.7742 10.9115C11.7747 10.88 11.769 10.8487 11.7573 10.8195C11.7457 10.7902 11.7283 10.7635 11.7063 10.741C11.6843 10.7184 11.6581 10.7005 11.6291 10.6881Z"/>
</mask>
<path d="M11.6291 10.6881L11.2339 11.6068L11.2376 11.6083L11.6291 10.6881ZM11.3137 10.8139L12.2325 11.2085L12.2325 11.2085L11.3137 10.8139ZM8.29834 17.8344L7.37951 17.4397L7.3794 17.44L8.29834 17.8344ZM8.73898 18.0235L7.82015 17.6288L7.82004 17.6291L8.73898 18.0235ZM11.7543 11.003L10.8377 10.6033L10.8355 10.6084L11.7543 11.003ZM10.6342 12.5222C10.6342 10.9531 9.36547 9.66846 7.79146 9.66846V11.6685C8.24976 11.6685 8.63418 12.0465 8.63418 12.5222H10.6342ZM7.79146 9.66846C6.21711 9.66846 4.94922 10.9535 4.94922 12.5222H6.94922C6.94922 12.0462 7.33349 11.6685 7.79146 11.6685V9.66846ZM4.94922 12.5222C4.94922 14.0908 6.21792 15.3755 7.79146 15.3755V13.3755C7.33363 13.3755 6.94922 12.9974 6.94922 12.5222H4.94922ZM7.79146 15.3755C9.36466 15.3755 10.6342 14.0912 10.6342 12.5222H8.63418C8.63418 12.9971 8.24962 13.3755 7.79146 13.3755V15.3755ZM7.79146 12.8955C7.60007 12.8955 7.42922 12.7349 7.42922 12.5222H5.42922C5.42922 13.8244 6.48045 14.8955 7.79146 14.8955V12.8955ZM7.42922 12.5222C7.42922 12.3091 7.60052 12.1485 7.79146 12.1485V10.1485C6.48 10.1485 5.42922 11.2205 5.42922 12.5222H7.42922ZM7.79146 12.1485C7.98285 12.1485 8.15418 12.3095 8.15418 12.5222H10.1542C10.1542 11.22 9.10246 10.1485 7.79146 10.1485V12.1485ZM8.15418 12.5222C8.15418 12.7347 7.98356 12.8955 7.79146 12.8955V14.8955C9.10272 14.8955 10.1542 13.8246 10.1542 12.5222H8.15418ZM12.2094 13.4614C10.6355 13.4614 9.36666 14.7459 9.36666 16.3147H11.3667C11.3667 15.8396 11.7509 15.4614 12.2094 15.4614V13.4614ZM9.36666 16.3147C9.36666 17.8838 10.6354 19.1685 12.2094 19.1685V17.1685C11.7511 17.1685 11.3667 16.7904 11.3667 16.3147H9.36666ZM12.2094 19.1685C13.7837 19.1685 15.0516 17.8835 15.0516 16.3147H13.0516C13.0516 16.7907 12.6673 17.1685 12.2094 17.1685V19.1685ZM15.0516 16.3147C15.0516 14.7461 13.7829 13.4614 12.2094 13.4614V15.4614C12.6672 15.4614 13.0516 15.8395 13.0516 16.3147H15.0516ZM12.2094 16.6889C12.018 16.6889 11.8467 16.5279 11.8467 16.3152H9.84666C9.84666 17.6174 10.8984 18.6889 12.2094 18.6889V16.6889ZM11.8467 16.3152C11.8467 16.1027 12.0173 15.9419 12.2094 15.9419V13.9419C10.8981 13.9419 9.84666 15.0128 9.84666 16.3152H11.8467ZM12.2094 15.9419C12.4008 15.9419 12.5716 16.1025 12.5716 16.3152H14.5716C14.5716 15.013 13.5204 13.9419 12.2094 13.9419V15.9419ZM12.5716 16.3152C12.5716 16.5283 12.4003 16.6889 12.2094 16.6889V18.6889C13.5208 18.6889 14.5716 17.6169 14.5716 16.3152H12.5716ZM12.0242 9.76952C11.8746 9.70515 11.7137 9.6709 11.5508 9.66872L11.524 11.6685C11.4242 11.6672 11.3256 11.6462 11.2339 11.6068L12.0242 9.76952ZM11.5508 9.66872C11.3879 9.66653 11.2262 9.69647 11.0749 9.75681L11.8157 11.6145C11.723 11.6515 11.6239 11.6699 11.524 11.6685L11.5508 9.66872ZM11.0749 9.75681C10.9236 9.81715 10.7857 9.90671 10.669 10.0204L12.0645 11.453C11.993 11.5227 11.9085 11.5776 11.8157 11.6145L11.0749 9.75681ZM10.669 10.0204C10.5523 10.134 10.4591 10.2696 10.3949 10.4193L12.2325 11.2085C12.1931 11.3003 12.136 11.3833 12.0645 11.453L10.669 10.0204ZM10.3949 10.4192L7.37951 17.4397L9.21717 18.229L12.2325 11.2085L10.3949 10.4192ZM7.3794 17.44C7.31519 17.5896 7.28107 17.7504 7.279 17.9132L9.27884 17.9386C9.27757 18.0384 9.25665 18.137 9.21728 18.2288L7.3794 17.44ZM7.279 17.9132C7.27693 18.076 7.30695 18.2376 7.36733 18.3888L9.22468 17.647C9.26171 17.7397 9.28011 17.8388 9.27884 17.9386L7.279 17.9132ZM7.36733 18.3888C7.42772 18.5399 7.51729 18.6778 7.63094 18.7944L9.06303 17.3982C9.13273 17.4697 9.18765 17.5543 9.22468 17.647L7.36733 18.3888ZM7.63094 18.7944C7.74459 18.9109 7.88008 19.004 8.0297 19.0682L8.8185 17.2303C8.91025 17.2697 8.99334 17.3268 9.06303 17.3982L7.63094 18.7944ZM8.0297 19.0682C8.17932 19.1324 8.34012 19.1665 8.50289 19.1686L8.52833 17.1688C8.62814 17.17 8.72674 17.1909 8.8185 17.2303L8.0297 19.0682ZM8.50289 19.1686C8.66568 19.1707 8.82729 19.1406 8.97849 19.0803L8.23668 17.2229C8.3294 17.1859 8.4285 17.1675 8.52833 17.1688L8.50289 19.1686ZM8.97849 19.0803C9.12967 19.0199 9.26749 18.9303 9.38408 18.8167L7.98797 17.3846C8.05946 17.3149 8.14398 17.2599 8.23668 17.2229L8.97849 19.0803ZM9.38408 18.8167C9.50066 18.703 9.59371 18.5675 9.65792 18.4179L7.82004 17.6291C7.85941 17.5374 7.91647 17.4543 7.98797 17.3846L9.38408 18.8167ZM9.65781 18.4181L12.6732 11.3977L10.8355 10.6084L7.82015 17.6288L9.65781 18.4181ZM12.671 11.4028C12.7364 11.2528 12.7714 11.0914 12.7741 10.9278L10.7743 10.8953C10.776 10.7947 10.7975 10.6955 10.8377 10.6033L12.671 11.4028ZM12.7741 10.9278C12.7767 10.7643 12.747 10.6018 12.6865 10.4498L10.8282 11.1891C10.791 11.0957 10.7727 10.9958 10.7743 10.8953L12.7741 10.9278ZM12.6865 10.4498C12.626 10.2978 12.536 10.1593 12.4217 10.0422L10.9909 11.4397C10.9207 11.3678 10.8654 11.2826 10.8282 11.1891L12.6865 10.4498ZM12.4217 10.0422C12.3074 9.92522 12.1711 9.83199 12.0205 9.76795L11.2376 11.6083C11.145 11.569 11.0612 11.5116 10.9909 11.4397L12.4217 10.0422Z" fill="#1F1449" mask="url(#path-2-inside-1_242_11052)"/>
<path d="M10.331 5.10823C10.331 5.30229 10.1766 5.44791 10.0005 5.44791C9.82435 5.44791 9.66992 5.30229 9.66992 5.10823C9.66992 4.91418 9.82435 4.76855 10.0005 4.76855C10.1766 4.76855 10.331 4.91418 10.331 5.10823Z" stroke="#1F1449" stroke-width="2"/>
<defs>
<filter id="filter0_d_242_11052" x="0.240234" y="0.959961" width="19.5195" height="30.0801" filterUnits="userSpaceOnUse" color-interpolation-filters="sRGB">
<feFlood flood-opacity="0" result="BackgroundImageFix"/>
<feColorMatrix in="SourceAlpha" type="matrix" values="0 0 0 0 0 0 0 0 0 0 0 0 0 0 0 0 0 0 127 0" result="hardAlpha"/>
<feOffset dy="4"/>
<feGaussianBlur stdDeviation="2"/>
<feComposite in2="hardAlpha" operator="out"/>
<feColorMatrix type="matrix" values="0 0 0 0 0 0 0 0 0 0 0 0 0 0 0 0 0 0 0.25 0"/>
<feBlend mode="normal" in2="BackgroundImageFix" result="effect1_dropShadow_242_11052"/>
<feBlend mode="normal" in="SourceGraphic" in2="effect1_dropShadow_242_11052" result="shape"/>
</filter>
</defs>
</svg>
