<svg width="24" height="24" viewBox="0 0 24 24" fill="none" xmlns="http://www.w3.org/2000/svg">
<g clip-path="url(#clip0_250_11891)">
<path d="M13.5001 7.50049V7.29337V3.18273C13.5001 2.61151 13.3741 2.03346 13.1239 1.49187L12.9189 1.1032L12.9129 1.09188L12.9075 1.08026C12.7403 0.71963 12.3961 0.5 12.0002 0.5C11.5994 0.5 11.2582 0.724061 11.104 1.057L11.0989 1.06806L11.0933 1.07886L10.866 1.51292C10.6269 2.03201 10.5004 2.60918 10.5004 3.18269V7.29332V7.50043L10.3539 7.64688L1.08671 16.9142L0.737524 16.565L1.08671 16.9142C0.708465 17.2924 0.501221 17.7922 0.501221 18.3275V19.4985L0.501397 19.4984L9.92459 13.4599L10.6412 13.0007L10.6934 13.8502C10.7857 15.3522 10.9108 16.6061 11.0648 18.1437L11.2238 19.7182L11.2541 20.0189L11.0019 20.1856L13.5001 7.50049ZM13.5001 7.50049L13.6465 7.64694M13.5001 7.50049L13.6465 7.64694M13.6465 7.64694L22.9167 16.9161L13.6465 7.64694ZM0.49888 19.5C0.498933 19.5 0.498988 19.4999 0.499039 19.4999L0.49888 19.5Z" fill="white" stroke="white"/>
</g>
<defs>
<clipPath id="clip0_250_11891">
<rect width="24" height="24" fill="white"/>
</clipPath>
</defs>
</svg>
