<svg width="18" height="24" viewBox="0 0 18 24" fill="none" xmlns="http://www.w3.org/2000/svg">
<mask id="path-1-inside-1_2463_5615" fill="white">
<path fill-rule="evenodd" clip-rule="evenodd" d="M0.09375 8.90625C0.09375 3.98906 4.08281 0 9 0C13.9172 0 17.9062 3.98906 17.9062 8.90625C17.9062 13.8234 9 24 9 24C9 24 0.09375 13.8234 0.09375 8.90625ZM4.54688 9C4.54688 11.4609 6.53906 13.4531 9 13.4531C11.4609 13.4531 13.4531 11.4609 13.4531 9C13.4531 6.53906 11.4609 4.54688 9 4.54688C6.53906 4.54688 4.54688 6.53906 4.54688 9Z"/>
</mask>
<path d="M9 24L8.24749 24.6586L9 25.5184L9.75251 24.6586L9 24ZM9 -1C3.53053 -1 -0.90625 3.43678 -0.90625 8.90625H1.09375C1.09375 4.54135 4.6351 1 9 1V-1ZM18.9062 8.90625C18.9062 3.43678 14.4695 -1 9 -1V1C13.3649 1 16.9062 4.54135 16.9062 8.90625H18.9062ZM9 24C9.75251 24.6586 9.75262 24.6585 9.75277 24.6583C9.75286 24.6582 9.75304 24.658 9.75323 24.6578C9.7536 24.6573 9.75411 24.6567 9.75475 24.656C9.75604 24.6545 9.75786 24.6525 9.76021 24.6498C9.76492 24.6444 9.77173 24.6365 9.78059 24.6263C9.7983 24.6059 9.82419 24.576 9.85772 24.5371C9.92476 24.4593 10.0224 24.3453 10.1461 24.199C10.3937 23.9064 10.7462 23.4841 11.1687 22.9625C12.0129 21.9202 13.1407 20.4761 14.2705 18.8732C15.3978 17.2739 16.541 15.4971 17.4064 13.7916C18.255 12.1193 18.9062 10.3837 18.9062 8.90625H16.9062C16.9062 9.88741 16.4443 11.2678 15.6229 12.8866C14.8184 14.4722 13.735 16.1614 12.6358 17.7209C11.539 19.2769 10.4402 20.6842 9.61452 21.7037C9.20208 22.2129 8.85877 22.6241 8.61924 22.9073C8.49949 23.0488 8.40574 23.1583 8.34232 23.2319C8.31062 23.2687 8.2865 23.2966 8.27051 23.315C8.26252 23.3242 8.25656 23.331 8.2527 23.3355C8.25077 23.3377 8.24936 23.3393 8.24849 23.3403C8.24805 23.3408 8.24775 23.3411 8.24759 23.3413C8.2475 23.3414 8.24748 23.3414 8.24744 23.3415C8.24744 23.3415 8.24749 23.3414 9 24ZM-0.90625 8.90625C-0.90625 10.3837 -0.254959 12.1193 0.593583 13.7916C1.45898 15.4971 2.60223 17.2739 3.72952 18.8732C4.85935 20.4761 5.9871 21.9202 6.83131 22.9625C7.25384 23.4841 7.60633 23.9064 7.85386 24.199C7.97764 24.3453 8.07524 24.4593 8.14228 24.5371C8.17581 24.576 8.2017 24.6059 8.21941 24.6263C8.22827 24.6365 8.23508 24.6444 8.23979 24.6498C8.24214 24.6525 8.24396 24.6545 8.24525 24.656C8.24589 24.6567 8.2464 24.6573 8.24677 24.6578C8.24696 24.658 8.24714 24.6582 8.24723 24.6583C8.24738 24.6585 8.24749 24.6586 9 24C9.75251 23.3414 9.75256 23.3415 9.75256 23.3415C9.75252 23.3414 9.7525 23.3414 9.75241 23.3413C9.75225 23.3411 9.75195 23.3408 9.75151 23.3403C9.75064 23.3393 9.74923 23.3377 9.7473 23.3355C9.74344 23.331 9.73748 23.3242 9.72949 23.315C9.7135 23.2966 9.68938 23.2687 9.65768 23.2319C9.59426 23.1583 9.50051 23.0488 9.38076 22.9073C9.14123 22.6241 8.79792 22.2129 8.38548 21.7037C7.55978 20.6842 6.46096 19.2769 5.36423 17.7209C4.26496 16.1614 3.18165 14.4722 2.37712 12.8866C1.55574 11.2678 1.09375 9.88741 1.09375 8.90625H-0.90625ZM9 12.4531C7.09135 12.4531 5.54688 10.9087 5.54688 9H3.54688C3.54688 12.0132 5.98678 14.4531 9 14.4531V12.4531ZM12.4531 9C12.4531 10.9087 10.9087 12.4531 9 12.4531V14.4531C12.0132 14.4531 14.4531 12.0132 14.4531 9H12.4531ZM9 5.54688C10.9087 5.54688 12.4531 7.09135 12.4531 9H14.4531C14.4531 5.98678 12.0132 3.54688 9 3.54688V5.54688ZM5.54688 9C5.54688 7.09135 7.09135 5.54688 9 5.54688V3.54688C5.98678 3.54688 3.54688 5.98678 3.54688 9H5.54688Z" fill="#1F1449" mask="url(#path-1-inside-1_2463_5615)"/>
</svg>
