<svg width="35" height="42" viewBox="0 0 35 42" fill="none" xmlns="http://www.w3.org/2000/svg">
<path d="M15.5106 8.84251C16.6364 8.8647 17.5297 9.79773 17.503 10.9234L17.2728 20.617C17.3044 19.5153 18.2678 18.6037 19.3943 18.6439C20.422 18.6805 21.175 19.5513 21.1457 20.5744L21.1082 21.8865C21.1448 20.6083 22.4358 19.586 23.7804 20.0091C24.7136 20.3027 25.2916 21.2022 25.2633 22.1903L25.2223 23.6219C25.2526 22.5625 26.1446 21.6789 27.2147 21.6483L27.218 21.6482C28.3846 21.6148 29.3035 22.5255 29.2704 23.6823L29.1162 29.0677C29.0071 32.8792 25.8026 36.0583 21.959 36.1683L17.5898 36.2935C14.5887 36.3794 11.9801 34.5478 11.1182 31.7495C10.535 29.7373 9.43862 28.25 7.72264 27.0625C7.16901 26.6912 6.85049 26.065 6.86993 25.3861C6.91658 23.7562 8.76266 22.7116 10.1368 23.5376L13.0833 25.6139L13.1115 24.6297L13.438 10.8271C13.4645 9.7077 14.3911 8.82046 15.5106 8.84251Z" fill="#D12026"/>
<path d="M14.9809 9.48906e-05L14.943 5.49968L16.9253 5.51335L16.9633 0.0137729L14.9809 9.48906e-05Z" fill="#D12026"/>
<path d="M21.5253 2.29036L17.9777 5.83398L19.3786 7.23652L22.9262 3.6929L21.5253 2.29036Z" fill="#D12026"/>
<path d="M10.353 2.43479L8.9552 3.8405L12.4564 7.32196L13.8542 5.91625L10.353 2.43479Z" fill="#D12026"/>
</svg>
