<svg width="39" height="38" viewBox="0 0 39 38" fill="none" xmlns="http://www.w3.org/2000/svg">
<path d="M38.125 18.9961C38.125 20.8933 35.4219 22.3336 34.8798 24.045C34.3148 25.8183 35.6434 28.5905 34.582 30.0618C33.513 31.5486 30.4969 31.1227 29.0232 32.2068C27.5648 33.2832 27.0455 36.3264 25.2969 36.9072C23.6094 37.4648 21.4333 35.3275 19.5625 35.3275C17.6917 35.3275 15.5156 37.4648 13.8281 36.9072C12.0795 36.3342 11.5602 33.2832 10.1018 32.2068C8.63575 31.1227 5.61199 31.5563 4.54299 30.0618C3.48162 28.5828 4.81787 25.8183 4.24519 24.045C3.70305 22.3336 1 20.8933 1 18.9961C1 17.0989 3.70305 15.6586 4.24519 13.9473C4.81024 12.174 3.48162 9.40173 4.54299 7.93044C5.61199 6.44366 8.62811 6.86956 10.1018 5.78544C11.5526 4.71682 12.0795 1.66582 13.8204 1.09279C15.5079 0.535243 17.6917 2.67249 19.5625 2.67249C21.4333 2.67249 23.6094 0.535243 25.2969 1.09279C27.0455 1.66582 27.5648 4.71682 29.0232 5.79319C30.4893 6.8773 33.513 6.44366 34.582 7.93818C35.6434 9.41722 34.3071 12.1817 34.8798 13.955C35.4219 15.6664 38.125 17.0989 38.125 18.9961Z" fill="url(#paint0_linear)"/>
<path d="M26.6029 22.0771C26.5804 22.9484 26.2544 23.7873 25.66 24.4415C25.5113 24.5956 25.3612 24.6739 25.1719 24.6773C24.9826 24.6806 24.792 24.6082 24.6758 24.4588C24.3676 24.1613 24.3596 23.7071 24.6571 23.3989C24.9918 23.0522 25.1731 22.5946 25.1644 22.1025C25.1929 21.5718 24.9578 21.1216 24.6111 20.7869C24.457 20.6381 24.3786 20.488 24.3753 20.2988C24.3719 20.1095 24.4443 19.9189 24.593 19.7648C24.8905 19.4566 25.3827 19.4479 25.6523 19.7082C26.2315 20.3418 26.5869 21.1686 26.6029 22.0771Z" fill="white"/>
<path d="M29.2117 21.9931C29.2019 23.5837 28.6216 25.0329 27.506 26.1885C27.3572 26.3426 27.2071 26.421 27.0179 26.4244C26.8286 26.4277 26.638 26.3553 26.4839 26.2066C26.3298 26.0578 26.2514 25.9077 26.2474 25.6806C26.2441 25.4913 26.3164 25.3007 26.4659 25.1845C27.284 24.337 27.7189 23.2312 27.7361 22.057C27.7214 21.2242 27.4796 20.3954 27.0511 19.7213C26.8572 19.4597 26.6632 19.198 26.4321 18.9749C26.3551 18.9005 26.3159 18.8255 26.276 18.7126C26.2368 18.6375 26.2355 18.5618 26.2342 18.4861C26.2328 18.4104 26.2322 18.3725 26.2308 18.2968C26.2302 18.259 26.2295 18.2211 26.2667 18.1826C26.266 18.1447 26.3032 18.1062 26.3404 18.0677C26.3776 18.0292 26.4148 17.9907 26.4519 17.9521C26.4891 17.9136 26.5263 17.8751 26.5642 17.8744C26.6764 17.7967 26.8272 17.7562 26.9407 17.7542C27.0164 17.7528 27.13 17.7508 27.2064 17.7874C27.2828 17.8239 27.3591 17.8604 27.4362 17.9348C27.4747 17.972 27.5132 18.0092 27.5517 18.0463C27.6288 18.1207 27.668 18.1958 27.745 18.2701C27.7836 18.3073 27.8221 18.3445 27.8606 18.3817C27.9376 18.4561 27.9768 18.5311 28.0154 18.5683C28.7905 19.577 29.1897 20.7439 29.2117 21.9931Z" fill="white"/>
<path d="M31.788 21.9855C31.7902 24.2575 30.919 26.3934 29.3572 28.0114C29.2084 28.1655 29.0583 28.2439 28.8312 28.2479C28.6419 28.2512 28.4513 28.1788 28.2972 28.0301C28.1803 27.8428 28.1019 27.6927 28.0986 27.5034C28.0953 27.3142 28.1676 27.1235 28.3164 26.9695C29.6186 25.659 30.345 23.9043 30.3116 22.0116C30.2856 20.5352 29.8445 19.1419 28.9903 17.9452C28.8349 17.7208 28.6802 17.5342 28.5254 17.3476C28.4869 17.3104 28.4484 17.2732 28.4098 17.236C28.3328 17.1616 28.2943 17.1244 28.2172 17.0501C27.909 16.7526 27.901 16.2983 28.1985 15.9901C28.3845 15.7975 28.6481 15.7171 28.8766 15.7888C28.9908 15.8247 29.1051 15.8605 29.2206 15.9721C29.568 16.3446 29.9154 16.7172 30.1877 17.1289C30.2262 17.1661 30.2262 17.1661 30.2269 17.204C31.2365 18.6251 31.7573 20.2442 31.788 21.9855Z" fill="white"/>
<path d="M27.4626 12.9737L27.4813 14.0336L8.55372 14.3673L8.53503 13.3074C8.51768 12.3232 9.29862 11.5142 10.2829 11.4968L25.6521 11.2259C26.5985 11.2092 27.4453 11.9894 27.4626 12.9737Z" fill="white"/>
<path d="M24.8898 17.2981C24.7802 17.5272 24.7092 17.7935 24.6747 17.9835C24.5611 17.9855 24.4482 18.0253 24.3732 18.0645C24.0345 18.1841 23.735 18.3787 23.5119 18.6099C23.0656 19.0721 22.8106 19.6446 22.8213 20.2503C22.832 20.856 23.0691 21.4198 23.4935 21.8667C23.5321 21.9039 23.5713 21.979 23.5726 22.0547C23.5746 22.1683 23.5374 22.2068 23.5002 22.2453C22.9796 22.7846 22.7645 23.47 22.8522 24.1501L10.5492 24.367C9.56501 24.3843 8.75604 23.6034 8.73868 22.6192L8.62541 18.3422L8.61206 17.5851L18.4923 17.4109L24.8898 17.2981Z" fill="white"/>
<defs>
<linearGradient id="paint0_linear" x1="19.5625" y1="1" x2="19.5625" y2="37" gradientUnits="userSpaceOnUse">
<stop stop-color="#E97901"/>
<stop offset="1" stop-color="#FEB101"/>
</linearGradient>
</defs>
</svg>
