<svg width="38" height="36" viewBox="0 0 38 36" fill="none" xmlns="http://www.w3.org/2000/svg">
<path d="M37.125 17.9961C37.125 19.8933 34.4219 21.3336 33.8798 23.045C33.3148 24.8183 34.6434 27.5905 33.582 29.0618C32.513 30.5486 29.4969 30.1227 28.0232 31.2068C26.5648 32.2832 26.0455 35.3264 24.2969 35.9072C22.6094 36.4648 20.4333 34.3275 18.5625 34.3275C16.6917 34.3275 14.5156 36.4648 12.8281 35.9072C11.0795 35.3342 10.5602 32.2832 9.10181 31.2068C7.63575 30.1227 4.61199 30.5563 3.54299 29.0618C2.48162 27.5828 3.81787 24.8183 3.24519 23.045C2.70305 21.3336 0 19.8933 0 17.9961C0 16.0989 2.70305 14.6586 3.24519 12.9473C3.81024 11.174 2.48162 8.40173 3.54299 6.93044C4.61199 5.44365 7.62811 5.86956 9.10181 4.78544C10.5526 3.71682 11.0795 0.665817 12.8204 0.0927865C14.5079 -0.464757 16.6917 1.67249 18.5625 1.67249C20.4333 1.67249 22.6094 -0.464757 24.2969 0.0927865C26.0455 0.665817 26.5648 3.71682 28.0232 4.79319C29.4893 5.8773 32.513 5.44366 33.582 6.93818C34.6434 8.41722 33.3071 11.1817 33.8798 12.955C34.4219 14.6664 37.125 16.0989 37.125 17.9961Z" fill="url(#paint0_linear)"/>
<path d="M29.2379 16.8988C29.1934 16.6319 29.1044 16.5429 29.0155 16.4095C28.9265 16.2761 28.8376 16.1871 28.7486 16.0537C28.5707 15.8313 28.3038 15.6089 28.0814 15.342C27.859 15.1196 27.5921 14.8972 27.4142 14.6748C27.3252 14.5858 27.2362 14.4524 27.1918 14.4079C27.1918 14.3189 27.1473 14.1855 27.1473 14.052C27.1473 13.7851 27.1028 13.4738 27.1028 13.1179C27.1028 12.7621 27.0583 12.4507 27.0138 12.1394C27.0138 12.0059 26.9694 11.8725 26.9249 11.6945C26.8804 11.5611 26.8804 11.4277 26.7025 11.2053C26.5246 10.9829 26.3911 10.9829 26.2577 10.8939C26.1242 10.8494 25.9908 10.8049 25.8573 10.7605C25.5905 10.6715 25.2346 10.627 24.9232 10.538C24.6119 10.4491 24.256 10.4046 24.0336 10.3601C23.9002 10.3156 23.7667 10.2712 23.7223 10.2712C23.6778 10.2267 23.5888 10.1377 23.4999 10.0043C23.3664 9.78187 23.144 9.51499 22.9661 9.2481C22.7882 8.98122 22.5658 8.71434 22.3878 8.44745C22.2989 8.31401 22.2099 8.22505 22.121 8.13609C22.032 8.04712 21.943 7.91368 21.6762 7.8692C21.4537 7.95816 21.3648 7.95816 21.2758 7.95816C21.1869 7.95816 21.1424 7.95816 21.0534 8.00264C20.92 8.04712 20.7865 8.04712 20.6531 8.13609C20.3862 8.22505 20.0748 8.35849 19.7635 8.49193C19.4521 8.62537 19.1408 8.75882 18.9183 8.8033C18.7849 8.8033 18.6515 8.84778 18.5625 8.84778C18.4735 8.84778 18.3401 8.8033 18.2511 8.75882C18.0287 8.66986 17.7174 8.53641 17.406 8.40297C17.0946 8.26953 16.7833 8.13609 16.4719 8.04712C16.3385 8.00264 16.205 7.95816 16.0716 7.95816C15.9381 7.91368 15.8047 7.8692 15.5378 7.95816C15.2709 8.04712 15.182 8.13609 15.093 8.22505C15.004 8.31401 14.9151 8.44745 14.8261 8.53641C14.6482 8.75882 14.4258 9.0257 14.2479 9.33707C14.0699 9.60395 13.8475 9.87084 13.7141 10.0932C13.6251 10.1822 13.5362 10.2712 13.4917 10.3601C13.4027 10.4046 13.3138 10.4491 13.1803 10.4491C12.9134 10.4936 12.6021 10.5825 12.2907 10.627C11.8904 10.716 11.5345 10.8049 11.2677 10.8939C11.1342 10.9384 11.0008 10.9829 10.8673 11.0273C10.7339 11.0718 10.6004 11.1163 10.4225 11.2942C10.2446 11.5166 10.2446 11.6501 10.2001 11.7835C10.1556 11.9169 10.1556 12.0504 10.1112 12.2283C10.0667 12.5397 10.0667 12.851 10.0222 13.2069C10.0222 13.5627 9.97772 13.8741 9.97772 14.141C9.97772 14.2744 9.93324 14.4079 9.93324 14.4968C9.88876 14.5413 9.79979 14.6748 9.71083 14.7637C9.53291 14.9416 9.26603 15.164 9.04362 15.4309C8.82122 15.6533 8.55433 15.9202 8.37641 16.1426C8.28745 16.2316 8.19849 16.365 8.10953 16.454C8.02057 16.5874 7.9316 16.6764 7.88712 16.9433C7.84264 17.2102 7.9316 17.3436 7.97608 17.477C8.02057 17.6105 8.06505 17.7439 8.15401 17.8774C8.28745 18.1443 8.46537 18.4556 8.59881 18.767C8.77674 19.0783 8.91018 19.3452 9.04362 19.5676C9.0881 19.7011 9.13258 19.8345 9.17706 19.879C9.17706 19.968 9.17706 20.1014 9.13258 20.2348C9.0881 20.5017 8.99914 20.8131 8.91018 21.1245C8.82122 21.4358 8.77674 21.7917 8.68778 22.103C8.68778 22.2365 8.6433 22.3699 8.6433 22.5478C8.6433 22.6813 8.59881 22.8147 8.73226 23.0816C8.82122 23.3485 8.95466 23.393 9.0881 23.4819C9.22155 23.4375 9.31051 23.5264 9.44395 23.6154C9.71083 23.7933 9.97772 23.9268 10.2891 24.1047C10.6004 24.2381 10.8673 24.416 11.0897 24.5495C11.1787 24.594 11.3121 24.6829 11.3566 24.7274C11.4011 24.7719 11.4456 24.9053 11.4901 25.0388C11.579 25.2612 11.7125 25.617 11.8014 25.9284C11.8904 26.2397 12.0238 26.5511 12.1573 26.8625C12.2018 26.9959 12.2907 27.1294 12.3352 27.2628C12.4242 27.3963 12.4686 27.4852 12.691 27.6631C12.9134 27.7966 13.0469 27.7966 13.1803 27.7966C13.3138 27.7966 13.4472 27.7966 13.6251 27.7966C13.9365 27.7966 14.2479 27.7521 14.6037 27.7521C14.9596 27.7521 15.2709 27.7076 15.5378 27.6631C15.6713 27.6631 15.8047 27.6631 15.8937 27.6631C15.9826 27.7076 16.0716 27.7521 16.205 27.8411C16.4274 27.9745 16.6498 28.1969 16.9167 28.4193C17.1836 28.6417 17.4505 28.8196 17.7174 28.9976C17.8508 29.0865 17.9398 29.131 18.0732 29.22C18.2067 29.2644 18.2956 29.3534 18.5625 29.3534C18.8294 29.3534 18.9183 29.2644 19.0518 29.22C19.1852 29.1755 19.2742 29.0865 19.4076 28.9976C19.6745 28.8196 19.9414 28.6417 20.2083 28.4193C20.4752 28.1969 20.7421 28.019 20.92 27.8411C21.0089 27.7521 21.1424 27.7076 21.2313 27.6631C21.3203 27.6631 21.4537 27.6631 21.5872 27.6631C21.8541 27.6631 22.1654 27.7076 22.5213 27.7521C22.8771 27.7966 23.1885 27.7966 23.4999 27.7966C23.6333 27.7966 23.7667 27.7966 23.9002 27.7966C24.0336 27.7966 24.1671 27.7966 24.3895 27.6631C24.6119 27.5297 24.6564 27.3963 24.7453 27.2628C24.8343 27.1294 24.8788 27.0404 24.9232 26.8625C25.0567 26.5956 25.1457 26.2842 25.2791 25.9284C25.3681 25.617 25.5015 25.3057 25.5905 25.0388C25.6349 24.9053 25.6794 24.8164 25.7239 24.7274C25.7684 24.6829 25.9018 24.594 25.9908 24.5495C26.2132 24.416 26.5246 24.2826 26.7914 24.1047C27.1028 23.9712 27.3697 23.7933 27.6366 23.6154C27.77 23.5264 27.859 23.4819 27.9924 23.393C28.0814 23.304 28.2148 23.2595 28.3483 22.9927C28.4372 22.7258 28.4372 22.5923 28.4372 22.4589C28.4372 22.3254 28.3927 22.192 28.3927 22.0141C28.3483 21.7027 28.2593 21.3913 28.2148 21.0355C28.1259 20.6797 28.0814 20.3683 27.9924 20.1459C27.9479 20.0124 27.9479 19.879 27.9479 19.79C27.9924 19.7011 28.0369 19.6121 28.0814 19.4787C28.2148 19.2563 28.3483 18.9449 28.5262 18.678C28.7041 18.3667 28.8376 18.0998 28.971 17.7884C29.0155 17.655 29.1044 17.5215 29.1489 17.3881C29.1934 17.2991 29.2824 17.1657 29.2379 16.8988ZM21.4093 21.4803C21.1424 21.8806 20.7865 22.192 20.2972 22.4144C19.9859 22.5478 19.63 22.6368 19.2297 22.6813V23.5264H17.8953V22.6368C17.2726 22.5478 16.7833 22.3699 16.3829 22.0586C15.8492 21.6138 15.4933 20.8131 15.3154 19.968L15.2709 19.7456H16.8722V19.9235C16.9612 20.3683 17.0946 20.7241 17.406 20.9465C17.6729 21.1689 18.0732 21.3024 18.607 21.3024C19.1408 21.3024 19.5411 21.2134 19.7635 20.991C19.9859 20.7686 20.1193 20.5462 20.1193 20.3238C20.1193 20.1014 20.0304 19.9235 19.8524 19.79C19.719 19.7011 19.3187 19.5676 18.6515 19.3897C17.7174 19.1673 17.0946 18.9449 16.7388 18.767C16.3829 18.5891 16.0716 18.3222 15.8492 18.0108C15.6713 17.655 15.5378 17.2991 15.5378 16.8988C15.5378 16.5429 15.6268 16.1871 15.7602 15.9202C15.9381 15.6089 16.1605 15.342 16.4274 15.164C16.6498 14.9861 16.9167 14.8972 17.2726 14.7637C17.4505 14.7192 17.6284 14.6748 17.8063 14.6303V14.4524V13.7851H19.1407V14.6748C19.4076 14.7192 19.6745 14.7637 19.9414 14.8972C20.3862 15.0751 20.7421 15.2975 21.0089 15.6533C21.2313 16.0092 21.4093 16.5429 21.4982 17.0322L21.5427 17.2546H19.9414V17.1212C19.8969 16.7654 19.7635 16.5429 19.5411 16.3205C19.3187 16.1426 19.0073 16.0537 18.518 16.0537C17.9843 16.0537 17.5839 16.1426 17.406 16.3205C17.1836 16.4985 17.0946 16.6764 17.0946 16.8543C17.0946 16.9878 17.1391 17.0767 17.2281 17.1657C17.317 17.2546 17.4505 17.3436 17.6284 17.4326C17.7174 17.477 18.1177 17.566 18.6959 17.7439C19.5856 17.9663 20.2083 18.1887 20.5641 18.3222C20.92 18.5001 21.2313 18.7225 21.4537 19.0339C21.6762 19.3452 21.8096 19.7456 21.8096 20.1904C21.8096 20.6352 21.6762 21.08 21.4093 21.4803Z" fill="white"/>
<defs>
<linearGradient id="paint0_linear" x1="18.5625" y1="0" x2="18.5625" y2="36" gradientUnits="userSpaceOnUse">
<stop stop-color="#E97901"/>
<stop offset="1" stop-color="#FEB101"/>
</linearGradient>
</defs>
</svg>
