<svg width="39" height="34" viewBox="0 0 39 34" fill="none" xmlns="http://www.w3.org/2000/svg">
<path d="M26.7394 13.3975C27.4299 13.4111 27.9779 13.9834 27.9615 14.6739L27.8203 20.6196C27.8397 19.9439 28.4306 19.3847 29.1215 19.4094C29.7519 19.4319 30.2138 19.9659 30.1958 20.5935L30.1728 21.3983C30.1953 20.6143 30.9871 19.9872 31.8119 20.2468C32.3843 20.4269 32.7388 20.9786 32.7214 21.5847L32.6963 22.4627C32.7149 21.813 33.262 21.271 33.9183 21.2522L33.9204 21.2521C34.636 21.2316 35.1996 21.7903 35.1792 22.4998L35.0847 25.803C35.0177 28.1409 33.0522 30.0909 30.6946 30.1584L28.0148 30.2351C26.1739 30.2878 24.5739 29.1644 24.0452 27.448C23.6875 26.2138 23.015 25.3015 21.9625 24.5731C21.6229 24.3454 21.4276 23.9613 21.4395 23.5448C21.4681 22.5451 22.6004 21.9044 23.4433 22.411L25.2506 23.6846L25.2679 23.0809L25.4682 14.6148C25.4844 13.9282 26.0528 13.384 26.7394 13.3975Z" fill="#D12026"/>
<path d="M2.59877 4.59756L3.89175 3.33481V12.9419C3.89175 15.079 4.76095 17.1286 6.30813 18.6398C7.85531 20.151 9.95374 21 12.1418 21C14.3298 21 16.4283 20.151 17.9754 18.6398C19.5226 17.1286 20.3918 15.079 20.3918 12.9419V8.54651C20.3918 7.83413 20.6815 7.15092 21.1973 6.64719C21.713 6.14346 22.4125 5.86047 23.1418 5.86047C23.8712 5.86047 24.5707 6.14346 25.0864 6.64719C25.6021 7.15092 25.8918 7.83413 25.8918 8.54651V10.7442C25.8918 11.0032 25.9972 11.2517 26.1847 11.4348C26.3723 11.618 26.6266 11.7209 26.8918 11.7209C27.1571 11.7209 27.4114 11.618 27.599 11.4348C27.7865 11.2517 27.8918 11.0032 27.8918 10.7442V8.54651C27.8918 7.31603 27.3914 6.13595 26.5006 5.26587C25.6098 4.39578 24.4016 3.90698 23.1418 3.90698C21.882 3.90698 20.6739 4.39578 19.7831 5.26587C18.8923 6.13595 18.3918 7.31603 18.3918 8.54651V12.9419C18.3918 14.5609 17.7333 16.1137 16.5612 17.2585C15.3891 18.4033 13.7994 19.0465 12.1418 19.0465C10.4842 19.0465 8.89445 18.4033 7.72235 17.2585C6.55024 16.1137 5.89176 14.5609 5.89176 12.9419V3.33481L7.18473 4.59756C7.37225 4.78072 7.62658 4.88361 7.89177 4.88361C8.15695 4.88361 8.41128 4.78072 8.5988 4.59756C8.78632 4.41441 8.89166 4.166 8.89166 3.90698C8.89166 3.64796 8.78632 3.39954 8.5988 3.21639L5.59879 0.286156C5.50595 0.195437 5.39573 0.123471 5.27442 0.0743716C5.1531 0.0252718 5.02307 0 4.89175 0C4.76044 0 4.6304 0.0252718 4.50909 0.0743716C4.38777 0.123471 4.27755 0.195437 4.18472 0.286156L1.18471 3.21639C0.997191 3.39954 0.891846 3.64796 0.891846 3.90698C0.891846 4.166 0.997191 4.41441 1.18471 4.59756C1.37223 4.78072 1.62655 4.88361 1.89174 4.88361C2.15693 4.88361 2.41126 4.78072 2.59877 4.59756Z" fill="#D12026"/>
</svg>
