<svg width="25" height="27" viewBox="0 0 25 27" fill="none" xmlns="http://www.w3.org/2000/svg">
<path d="M12.9205 0C6.27609 0 0.891846 5.2875 0.891846 11.8125C0.891846 16.2563 3.41213 20.1375 7.13528 22.1625L6.96344 27L12.6341 23.5688C12.6914 23.5688 12.8059 23.5688 12.8632 23.5688C19.5076 23.5688 24.8918 18.2812 24.8918 11.7562C24.8918 5.2875 19.5076 0 12.9205 0ZM11.3739 18.675V8.94375H14.467V18.675H11.3739ZM12.8632 7.7625C11.8895 7.7625 11.2594 7.0875 11.2594 6.24375C11.2594 5.4 11.8895 4.725 12.8632 4.725C13.837 4.725 14.467 5.4 14.5243 6.24375C14.5243 7.0875 13.8942 7.7625 12.8632 7.7625Z" fill="#D12026"/>
</svg>
