<svg width="19" height="14" viewBox="0 0 19 14" fill="none" xmlns="http://www.w3.org/2000/svg">
<path d="M0.268555 11.9867V13.1164C0.268555 13.4077 0.504664 13.6438 0.795898 13.6438C1.08713 13.6438 1.32324 13.4077 1.32324 13.1164V12.5141H17.2139V13.1164C17.2139 13.4077 17.45 13.6438 17.7412 13.6438C18.0324 13.6438 18.2686 13.4077 18.2686 13.1164V10.2547H0.268555V11.9867ZM16.3291 5.81094H2.20798C1.1386 5.81094 0.268555 6.68098 0.268555 7.7504V9.2H18.2686V7.7504C18.2686 6.68098 17.3985 5.81094 16.3291 5.81094ZM7.29165 3.47656C6.80375 3.47656 6.40684 3.87344 6.40684 4.3613V4.75621H12.1303V4.3613C12.1303 3.87344 11.7334 3.47656 11.2455 3.47656H7.29165Z" fill="#CC0000"/>
<path d="M5.352 4.36288C5.352 3.29346 6.22205 2.42345 7.2915 2.42345H11.2454C12.3148 2.42345 13.1849 3.29346 13.1849 4.36288V4.75779H16.0091V2.10349C16.0091 1.03407 15.139 0.164062 14.0696 0.164062H4.46726C3.39784 0.164062 2.52783 1.03407 2.52783 2.10349V4.75779H5.352V4.36288Z" fill="#CC0000"/>
</svg>
