<svg width="26" height="26" viewBox="0 0 26 26" fill="none" xmlns="http://www.w3.org/2000/svg">
<path d="M19.0952 3.86783L18.878 3.68995C17.8114 2.8166 16.5642 2.19085 15.2265 1.85784C13.8891 1.52491 12.4944 1.49287 11.1432 1.76402C9.40633 2.1203 7.80847 2.96825 6.53986 4.20689C5.271 5.44577 4.38502 7.02327 3.98743 8.75149C3.58984 10.4797 3.69742 12.2858 4.29734 13.9546C4.89665 15.6217 5.96205 17.0815 7.36684 18.1607C9.10922 19.4369 10.5928 21.033 11.7384 22.864L11.7431 22.8714L11.7431 22.8715L12.5014 24.1325L12.5014 24.1325C12.5533 24.2188 12.6266 24.2901 12.7142 24.3397C12.8018 24.3892 12.9007 24.4152 13.0013 24.4152C13.102 24.4152 13.2009 24.3892 13.2885 24.3397C13.376 24.2902 13.4492 24.219 13.501 24.1329L19.0952 3.86783ZM19.0952 3.86783C20.0997 4.74642 20.9028 5.83299 21.4481 7.05347C22.032 8.36055 22.3042 9.78546 22.2433 11.2158C22.1823 12.646 21.7897 14.0426 21.0966 15.2952C20.4035 16.5479 19.4288 17.6223 18.2494 18.4337L18.2493 18.4336L18.2389 18.4412C16.5974 19.6342 15.229 21.1633 14.225 22.9266L13.5012 24.1325L19.0952 3.86783ZM10.315 14.8521C11.1098 15.3832 12.0443 15.6667 13.0002 15.6667C14.2821 15.6667 15.5115 15.1574 16.4179 14.251C17.3243 13.3446 17.8336 12.1152 17.8336 10.8333C17.8336 9.87739 17.5501 8.94292 17.019 8.14808C16.4879 7.35324 15.7331 6.73374 14.8499 6.36792C13.9667 6.00209 12.9949 5.90638 12.0573 6.09287C11.1197 6.27937 10.2585 6.7397 9.58256 7.41565C8.9066 8.09161 8.44627 8.95282 8.25978 9.8904C8.07328 10.828 8.169 11.7998 8.53482 12.683C8.90065 13.5661 9.52015 14.321 10.315 14.8521Z" stroke="black"/>
</svg>
