<?xml version="1.0" encoding="utf-8"?>
<!-- Generator: Adobe Illustrator 26.0.1, SVG Export Plug-In . SVG Version: 6.00 Build 0)  -->
<svg version="1.1" id="Layer_1" xmlns="http://www.w3.org/2000/svg" xmlns:xlink="http://www.w3.org/1999/xlink" x="0px" y="0px"
	 viewBox="0 0 1000 1000" style="enable-background:new 0 0 1000 1000;" xml:space="preserve">
<style type="text/css">
	.st0{display:none;fill:url(#SVGID_1_);}
	.st1{fill:url(#SVGID_00000096042629756695481100000016517125789693502111_);}
	.st2{fill:url(#SVGID_00000114069384837229182540000006132982489323090355_);}
	.st3{display:none;}
	.st4{display:inline;fill:url(#SVGID_00000156565288198237571750000005853764022858918335_);}
	.st5{display:inline;fill:url(#SVGID_00000127002800053707617090000002906257826360302754_);}
	.st6{fill:#494949;stroke:#7F7F7F;stroke-miterlimit:10;}
	.st7{fill:url(#SVGID_00000107553190416894673330000012895364595330161802_);}
	
		.st8{fill:url(#SVGID_00000046306397235004827050000000236741205609503675_);stroke:#808080;stroke-width:0.25;stroke-miterlimit:10;}
	.st9{fill:url(#SVGID_00000147221450469306177780000008589444235344481408_);}
	.st10{fill:url(#SVGID_00000102506871916115455080000014086142099683555254_);stroke:#000000;stroke-miterlimit:10;}
	.st11{clip-path:url(#SVGID_00000175313062317954047110000008736142862823399103_);}
	.st12{fill:#FFFFFF;stroke:#808080;stroke-width:0.25;stroke-miterlimit:10;}
	.st13{fill:#FFFFFF;}
	.st14{display:inline;fill-rule:evenodd;clip-rule:evenodd;fill:#D0262D;}
	.st15{display:inline;fill-rule:evenodd;clip-rule:evenodd;fill:#FFFFFF;}
	.st16{display:inline;fill:#D0262D;}
	.st17{display:inline;fill:#2B2829;}
	.st18{display:inline;fill:none;stroke:#D0262D;stroke-width:0.5;stroke-miterlimit:2.6131;}
	.st19{display:inline;fill:none;stroke:#2B2829;stroke-width:0.5;stroke-miterlimit:2.6131;}
	.st20{display:inline;}
	.st21{opacity:0.88;fill:url(#SVGID_00000165951213231028054400000011900606958481756831_);}
	.st22{opacity:0.57;fill:url(#SVGID_00000093881810315145130080000006355402633156238474_);}
	.st23{opacity:0.88;fill:url(#SVGID_00000072271227451988202960000007197267016970392480_);}
	.st24{opacity:0.57;fill:url(#SVGID_00000044139991189385041220000011980303628736090527_);}
	.st25{opacity:0.57;fill:url(#SVGID_00000093888116695959184150000015071327181442030526_);}
	.st26{opacity:0.88;fill:url(#SVGID_00000096042584173010745870000017081376182585223833_);}
	.st27{opacity:0.57;fill:url(#SVGID_00000173843390587417123980000004078143484886184873_);}
	.st28{opacity:0.88;fill:url(#SVGID_00000112630151311917840300000005389024685181012643_);}
	.st29{opacity:0.57;fill:url(#SVGID_00000159458064025778976310000008129143051639205052_);}
</style>
<radialGradient id="SVGID_1_" cx="560" cy="284.5" r="395.4409" gradientTransform="matrix(1.4925 0 0 1.7202 -335.8209 10.6051)" gradientUnits="userSpaceOnUse">
	<stop  offset="0" style="stop-color:#FFFFFF"/>
	<stop  offset="8.563513e-02" style="stop-color:#F8F8F8"/>
	<stop  offset="0.2146" style="stop-color:#E3E3E3"/>
	<stop  offset="0.3699" style="stop-color:#C1C1C1"/>
	<stop  offset="0.5136" style="stop-color:#9C9C9C"/>
	<stop  offset="0.6276" style="stop-color:#888888"/>
	<stop  offset="0.8594" style="stop-color:#555555"/>
	<stop  offset="1" style="stop-color:#333333"/>
</radialGradient>
<rect class="st0" width="1000" height="1000"/>
<g>
	
		<linearGradient id="SVGID_00000165946875317267951210000003649502619631172798_" gradientUnits="userSpaceOnUse" x1="712.2795" y1="298.9188" x2="456.7256" y2="615.5306">
		<stop  offset="1.364087e-03" style="stop-color:#908C92;stop-opacity:0.8"/>
		<stop  offset="3.016982e-02" style="stop-color:#8F8B91;stop-opacity:0.825"/>
		<stop  offset="0.2321" style="stop-color:#8B878D"/>
		<stop  offset="0.3041" style="stop-color:#A09DA2"/>
		<stop  offset="0.4535" style="stop-color:#D6D6D8"/>
		<stop  offset="0.5263" style="stop-color:#F3F4F4"/>
		<stop  offset="0.5736" style="stop-color:#DADADB"/>
		<stop  offset="0.6574" style="stop-color:#B3B1B4"/>
		<stop  offset="0.7337" style="stop-color:#979397"/>
		<stop  offset="0.7993" style="stop-color:#868186"/>
		<stop  offset="0.8464" style="stop-color:#807B80"/>
		<stop  offset="1" style="stop-color:#B2B2B2"/>
	</linearGradient>
	<path style="fill:url(#SVGID_00000165946875317267951210000003649502619631172798_);" d="M725,581.9c-1-1.8-1.9-3.7-3.1-5.5
		c-1.2-1.8-2.7-3.3-4.3-4.7c-1.6-1.4-9.2-4.7-10.8-6c-3.2-2.7-6.5-5.2-9.5-8c-3.1-2.7-6-5.7-8.8-8.6c-11.3-12-20.7-25.7-30.3-39.3
		c-9.7-13.6-19.2-27.2-29-40.7l-14.5-20.3c-2.3-3.3-4.5-6.7-6.1-10.1c-0.8-1.7-1.5-3.5-1.9-5.2c-0.5-1.8-0.7-3.5-0.8-5.4
		c-0.1-3.8,0.3-7.8,0.6-12c0.1-2.2,0.2-4.4,0.1-6.7c-0.1-2.3-0.4-4.6-0.9-6.9c-1-4.5-2.8-8.7-4.9-12.6c-2.1-3.9-4.4-7.5-6.8-11
		c-2.4-3.5-4.8-6.8-7.2-10.2l-7.2-10.2c-4.8-6.8-9.7-13.5-14.5-20.3l-29.1-40.5c-2.4-3.4-5-7-8.3-10.3c-3.2-3.3-7.2-6.2-11.8-8
		c-4.4-1.7-8.5-2.6-12.3-3.7l-0.7-0.2l-0.9-0.3c-0.6-0.2-1.3-0.3-1.9-0.4c-1.3-0.2-2.6-0.3-3.9-0.3c-1.3,0-2.6,0.1-3.9,0.4
		c-1.2,0.2-2.3,0.5-3.4,0.9l-2.3,1c-3.1,1.1-5.3,3.6-6.8,6.2c-4,7-8.2,13.8-12.6,20.7c-11.9,18.7-24.9,36.9-38.5,55
		c-0.1,0.1-0.2,0.3-0.3,0.4c-10.4,13.9-21.1,27.6-31.8,41.4c-9.3,12-18.7,24-28,36c-7.3,9.4-14.6,18.8-23.8,27.1
		c-3.5,3.2-7.3,6.1-10.9,9.2c-3.6,3-7,6-10,9.4c-6.5,7.2-10.7,15.5-14.5,23.9c-4.2,9.1-8,18.4-14.1,26.8
		c-8.6,11.6-21.2,20.8-34.7,29.2c0,0,0,0-0.1,0.1c-4.2,2.6-8.4,5.1-12.7,7.6c-1.5,0.9-3.2,1.6-4.6,2.7c-6.5,5.5,2.8,14.1,9.5,14.5
		c15.7,0.9,34.4-0.6,71-4c69.7-6.5,58.8,19.8,127.3-6.5c70.7-27.2,16-17,36.5-48.5c5.8-9,9-15.8,10.6-21.2l-0.1-1
		c-2.9-0.2-5.7-2.1-5.9-5.8c0-0.2,0-0.3,0-0.4c-0.1-0.4-0.1-0.8-0.2-1.2c0-0.1,0-0.2-0.1-0.3c-0.1-0.3-0.2-0.6-0.2-0.9
		c0-0.2-0.1-0.4-0.1-0.5c-0.8-0.1-1.6-0.2-2.5-0.3c-3.3-0.5-6.5-2.3-7.4-5.7c-1.2-4.5,1.9-8.6,6.3-9.5c0.9-0.2,1.9-0.2,2.8-0.3
		c-0.1,0,1.3-0.4,1.5-0.5c1.6-0.4,3.1-0.6,4.6-0.6l0-0.6c0.7-12.4-12.9-8.5,1.3-30.6s24-27,20-48c-12.8-67.4,6.2-24.5-1-69
		c-4-24.6-9.2-38.6-13.1-46.3c3.1,0.9,6.1,1.6,8.6,2.6c3.2,1.3,7.1,3.3,9.7,5.9c2.6,2.6,5,5.8,7.4,9.2l29.3,40.4
		c4.9,6.7,9.8,13.5,14.7,20.2l7.4,10.1c2.5,3.4,5,6.7,7.3,10c4.7,6.6,11,13.5,12.7,20.7c0.4,1.8,0.7,3.6,0.8,5.5
		c0.1,1.9,0.1,3.8,0,5.8c-0.2,4-0.7,8.3-0.4,12.9c0.1,2.3,0.5,4.6,1.1,6.9c0.6,2.3,1.5,4.4,2.5,6.4c2,4,4.5,7.7,7,11.1l15,20
		c6.3,8.4,12.6,16.8,19,25.2c3.7,4.9,7.4,9.8,11.1,14.7c10,13.2,17,26.8,29,38.6c3,2.9,6.1,5.8,9.3,8.5c3.2,2.7,6.6,5.2,10.1,7.5
		c1.7,1.2,9.4,4.4,11,5.6c1.7,1.2,3.2,2.5,4.5,4.1c1.3,1.6,2.4,3.4,3.5,5.1c1.1,1.7,2.3,3.5,3.5,5.2
		C726.9,585.6,725.9,583.7,725,581.9z"/>
	
		<linearGradient id="SVGID_00000034797001504653261860000010994458682340596154_" gradientUnits="userSpaceOnUse" x1="240.8141" y1="431.5119" x2="728.0439" y2="431.5119">
		<stop  offset="0" style="stop-color:#E5E2DF"/>
		<stop  offset="0" style="stop-color:#DED9D6"/>
		<stop  offset="3.813257e-02" style="stop-color:#CFCCC9"/>
		<stop  offset="0.1113" style="stop-color:#A8A8A8"/>
		<stop  offset="0.2112" style="stop-color:#6A7072"/>
		<stop  offset="0.264" style="stop-color:#465053"/>
		<stop  offset="0.3722" style="stop-color:#878D8F"/>
		<stop  offset="0.4638" style="stop-color:#B7BABB"/>
		<stop  offset="0.5335" style="stop-color:#D5D6D6"/>
		<stop  offset="0.573" style="stop-color:#E0E0E0"/>
		<stop  offset="0.632" style="stop-color:#D6D7D8"/>
		<stop  offset="0.7314" style="stop-color:#BCBFC2"/>
		<stop  offset="0.8582" style="stop-color:#92989E"/>
		<stop  offset="0.8764" style="stop-color:#8B9298"/>
		<stop  offset="1" style="stop-color:#D1D3D4"/>
		<stop  offset="1" style="stop-color:#A7A9AC"/>
	</linearGradient>
	<path style="fill:url(#SVGID_00000034797001504653261860000010994458682340596154_);" d="M401.5,588.6c-7.7,0-14-1.3-21.2-2.7
		c-12.3-2.4-27.7-5.5-56.7-2.8c-37.4,3.5-55.4,4.9-71,4c-4.7-0.3-10.1-4.3-11.5-8.3c-0.6-1.7-0.7-4.2,1.9-6.4c0.9-0.8,2-1.3,3-1.9
		c0.5-0.3,1-0.5,1.5-0.8c4.3-2.6,8.5-5.1,12.7-7.6c0.1,0,0.1-0.1,0.1-0.1c12-7.5,25.5-16.8,34.6-29.1c5.3-7.2,8.9-15.3,12.5-23
		c0.6-1.2,1.1-2.5,1.7-3.7c3.7-8,7.8-16.5,14.5-24c3.2-3.6,6.9-6.7,10.1-9.4c1.1-0.9,2.2-1.8,3.3-2.7c2.5-2.1,5.2-4.3,7.6-6.5
		c9.2-8.3,16.6-17.8,23.8-27.1c4.6-5.9,9.1-11.7,13.7-17.6c4.8-6.1,9.5-12.3,14.3-18.4l1.1-1.4c10.1-13.1,20.6-26.6,30.7-40
		c0.1-0.1,0.2-0.3,0.3-0.4c15.6-20.9,27.8-38.3,38.4-54.9c4.5-7,8.7-14,12.6-20.7c1.8-3.2,4.2-5.3,6.9-6.3l2.3-1
		c1.3-0.4,2.4-0.7,3.5-0.9c1.3-0.2,2.6-0.4,3.9-0.4c1.3,0,2.6,0.1,3.9,0.3c0.7,0.1,1.4,0.3,1.9,0.4l1.6,0.5c1.2,0.4,2.5,0.7,3.8,1
		c2.7,0.7,5.6,1.5,8.6,2.7c4.2,1.6,8.3,4.4,11.8,8c3.3,3.3,5.8,6.8,8.3,10.3l29.1,40.5c4.8,6.6,9.6,13.4,14.5,20.3l7.2,10.2
		c0.6,0.9,1.3,1.8,1.9,2.7c1.8,2.5,3.6,5,5.3,7.6c2.2,3.1,4.6,6.9,6.8,11c2.3,4.4,3.9,8.5,4.9,12.6c0.5,2.3,0.8,4.6,0.9,6.9
		c0.1,2,0,4.1-0.1,6.7c-0.1,1.1-0.2,2.2-0.2,3.3c-0.2,3.1-0.5,6-0.4,8.7c0.1,2,0.3,3.7,0.8,5.4c0.4,1.7,1.1,3.5,1.9,5.2
		c1.7,3.7,4,7.2,6.1,10.1l14.5,20.3c6.4,8.9,12.9,18,19.1,26.8c3.3,4.6,6.6,9.3,9.9,13.9c1.2,1.7,2.4,3.4,3.7,5.1
		c8.3,11.6,16.8,23.6,26.7,34.1c3.3,3.5,6.1,6.2,8.8,8.6c2.5,2.2,5,4.3,7.6,6.4c0.6,0.5,1.3,1,1.9,1.5c0.8,0.6,2.9,1.7,5.1,2.8
		c2.4,1.2,4.9,2.5,5.7,3.2c2,1.7,3.3,3.2,4.3,4.8c1,1.5,1.8,3,2.6,4.5c0.2,0.3,0.3,0.7,0.5,1l0,0c0.9,1.6,1.8,3.4,3,5.5l-0.2,0.1
		c-1.2-1.8-2.4-3.5-3.5-5.2c-0.2-0.3-0.4-0.6-0.6-0.9c-0.9-1.4-1.9-2.9-2.9-4.2c-1.1-1.4-2.5-2.7-4.4-4.1c-0.9-0.6-3.4-1.8-5.8-3
		c-2.3-1.1-4.4-2.1-5.2-2.6c-3.2-2.1-6.5-4.6-10.1-7.5c-2.9-2.4-6-5.2-9.3-8.5c-7.9-7.8-13.5-16.2-19.5-25c-3-4.5-6.1-9.1-9.5-13.6
		c-2.8-3.7-5.6-7.4-8.4-11.1l-4.4-5.9c-5.7-7.5-11.5-15.2-17.2-22.9l-15-20c-2.4-3.3-4.9-7-7-11.1c-1.1-2.2-1.9-4.3-2.5-6.5
		c-0.6-2.1-1-4.4-1.1-6.9c-0.2-3.5,0-6.9,0.2-10.1c0.1-0.9,0.1-1.9,0.2-2.8c0.1-1.7,0.2-3.8,0-5.8c-0.1-1.9-0.4-3.7-0.8-5.4
		c-1.3-5.5-5.4-10.8-9.3-16c-1.2-1.5-2.4-3.1-3.5-4.7c-1.6-2.3-3.3-4.6-5-6.8c-0.8-1.1-1.6-2.1-2.4-3.2l-7.4-10.1
		c-4.7-6.5-9.7-13.2-14.7-20.2L529.5,303c-2.6-3.6-4.8-6.6-7.4-9.1c-3-3-7.4-5-9.7-5.9c-2.2-0.9-4.7-1.5-7.3-2.2
		c-0.4-0.1-0.7-0.2-1.1-0.3c3.8,7.5,9,21.5,13,46.1c3.2,19.9,1.2,22.4-0.9,25c-2.6,3.2-5.2,6.6,1.9,44c3,15.9-1.8,22.5-10.6,34.5
		c-2.8,3.8-6,8.2-9.5,13.6c-9.1,14.2-6.8,17.6-4.1,21.5c1.5,2.2,3.1,4.6,2.8,9.1l0,0.8h-0.1c0,0,0,0,0,0c-1.5,0-3,0.2-4.5,0.6
		c-0.4,0.1-0.9,0.3-1.2,0.4l0.1,0.1l-0.4,0.1c-0.4,0-0.7,0.1-1.1,0.1c-0.5,0-1.1,0.1-1.6,0.2c-2.2,0.5-4.2,1.8-5.4,3.7
		c-1.1,1.7-1.4,3.7-0.8,5.7c1.1,4.2,5.5,5.3,7.3,5.6c0.8,0.1,1.6,0.2,2.5,0.3l0.1,0l0,0.1c0,0.1,0,0.1,0,0.2c0,0.1,0,0.2,0.1,0.3
		c0,0.3,0.1,0.6,0.2,0.9l0.1,0.3c0.1,0.4,0.2,0.8,0.2,1.2c0,0.1,0,0.2,0,0.4c0.2,3.7,3.1,5.5,5.8,5.7l0.1,0l0.1,1.1l0,0
		c-1.8,6-5.3,13-10.7,21.3c-8.3,12.8-4.2,18.7-1.2,23c1.5,2.1,2.7,3.9,2.1,6c-1.1,3.6-7.8,8.2-37.5,19.6
		C427.1,585.8,412.9,588.6,401.5,588.6z M344.9,581.8c16.1,0,26.5,2.1,35.4,3.9c17.8,3.5,30.6,6.1,70.5-9.2
		c25.9-10,36.1-15.2,37.4-19.5c0.6-1.9-0.6-3.6-2.1-5.7c-3.1-4.4-7.2-10.3,1.2-23.3c5.4-8.3,8.9-15.2,10.6-21.2l0-0.9
		c-2.8-0.2-5.7-2.1-5.9-5.9c0-0.2,0-0.3,0-0.4c-0.1-0.3-0.1-0.7-0.2-1.1l-0.1-0.3c-0.1-0.3-0.2-0.6-0.2-0.9c0-0.1,0-0.2-0.1-0.3
		c0,0,0-0.1,0-0.1c-0.9-0.1-1.6-0.2-2.4-0.3c-4-0.6-6.7-2.8-7.5-5.8c-0.5-2-0.2-4.1,0.9-5.9c1.2-1.9,3.2-3.3,5.5-3.8
		c0.6-0.1,1.1-0.2,1.7-0.2c0.3,0,0.7,0,1.1-0.1c0.1-0.1,0.5-0.2,1.5-0.5c1.5-0.4,3-0.6,4.5-0.6l0-0.5c0.3-4.4-1.3-6.7-2.8-8.9
		c-1.3-2-2.6-3.9-2.4-7c0.2-3.5,2.3-8.2,6.5-14.7c3.5-5.4,6.7-9.8,9.5-13.6c8.7-11.9,13.5-18.5,10.5-34.3
		c-7.1-37.5-4.4-40.9-1.8-44.2c2.1-2.6,4-5.1,0.8-24.8c-4-24.8-9.3-38.9-13.1-46.3l-0.1-0.3l0.3,0.1c0.5,0.1,0.9,0.2,1.3,0.4
		c2.6,0.7,5.1,1.4,7.3,2.3c2.4,0.9,6.8,2.9,9.8,5.9c2.6,2.6,4.8,5.5,7.4,9.2l29.3,40.4c5,6.9,10,13.7,14.7,20.2l7.4,10.1
		c0.8,1.1,1.6,2.1,2.4,3.2c1.6,2.2,3.4,4.6,5,6.8c1.1,1.5,2.3,3.1,3.5,4.7c3.9,5.2,7.9,10.5,9.3,16.1c0.4,1.8,0.7,3.6,0.8,5.5
		c0.1,2,0,4.1,0,5.8c0,0.9-0.1,1.9-0.2,2.8c-0.2,3.2-0.4,6.5-0.2,10.1c0.2,2.5,0.5,4.8,1.1,6.9c0.6,2.1,1.4,4.2,2.5,6.4
		c2,4.1,4.5,7.7,6.9,11.1l15,20c5.7,7.7,11.6,15.4,17.2,22.9l4.4,5.9c2.8,3.7,5.6,7.4,8.4,11.1c3.4,4.5,6.5,9.2,9.5,13.6
		c6,8.8,11.6,17.2,19.5,25c3.4,3.3,6.4,6.1,9.3,8.5c3.6,2.9,6.9,5.4,10,7.5c0.8,0.6,2.9,1.5,5.2,2.6c2.5,1.2,5,2.4,5.9,3
		c1.9,1.4,3.3,2.7,4.5,4.1c1.1,1.3,2,2.8,2.9,4.2c0.2,0.3,0.4,0.6,0.6,0.9c0.6,1,1.3,2,2,3c-0.6-1.1-1.2-2.2-1.7-3.2l0,0
		c-0.2-0.3-0.3-0.7-0.5-1c-0.8-1.5-1.6-3-2.6-4.5c-1-1.5-2.3-3-4.3-4.7c-0.8-0.7-3.3-2-5.7-3.2c-2.2-1.1-4.4-2.2-5.1-2.9
		c-0.6-0.5-1.3-1-1.9-1.5c-2.7-2.1-5.2-4.2-7.6-6.4c-2.7-2.4-5.5-5.2-8.8-8.6c-9.9-10.5-18.4-22.5-26.7-34.1
		c-1.2-1.7-2.4-3.4-3.7-5.1c-3.3-4.6-6.6-9.3-9.9-13.9c-6.2-8.8-12.7-17.9-19.1-26.8l-14.5-20.3c-2.1-3-4.4-6.5-6.1-10.2
		c-0.8-1.8-1.5-3.5-1.9-5.3c-0.4-1.7-0.7-3.4-0.8-5.4c-0.1-2.8,0.1-5.7,0.4-8.8c0.1-1.1,0.2-2.2,0.2-3.3c0.2-2.6,0.2-4.7,0.1-6.6
		c-0.1-2.3-0.4-4.6-0.9-6.9c-0.9-4.1-2.5-8.2-4.9-12.5c-2.2-4.1-4.7-7.9-6.8-11c-1.8-2.6-3.6-5.1-5.3-7.6c-0.6-0.9-1.3-1.8-1.9-2.7
		l-7.2-10.2c-4.9-6.9-9.8-13.7-14.5-20.3l-29.1-40.5c-2.5-3.4-5-7-8.2-10.2c-3.5-3.6-7.5-6.3-11.7-7.9c-3-1.2-5.8-1.9-8.5-2.7
		c-1.3-0.4-2.5-0.7-3.8-1l-1.6-0.5c-0.6-0.1-1.2-0.3-1.9-0.4c-1.3-0.2-2.6-0.3-3.8-0.3c-1.3,0-2.6,0.1-3.8,0.4
		c-1,0.2-2.2,0.5-3.4,0.9l-2.3,1c-2.7,1-5,3.1-6.8,6.2c-3.9,6.7-8.1,13.7-12.6,20.7c-10.6,16.6-22.8,34.1-38.5,55
		c-0.1,0.1-0.2,0.3-0.3,0.4c-10.1,13.4-20.6,26.9-30.7,40l-1.1,1.4c-4.8,6.1-9.5,12.3-14.3,18.4c-4.6,5.9-9.1,11.7-13.7,17.6
		c-7.2,9.2-14.6,18.8-23.8,27.1c-2.5,2.2-5.1,4.4-7.6,6.5c-1.1,0.9-2.2,1.8-3.3,2.7c-3.2,2.6-6.8,5.8-10,9.4
		c-6.7,7.4-10.8,15.9-14.5,23.9c-0.6,1.2-1.1,2.5-1.7,3.7c-3.5,7.8-7.2,15.9-12.5,23.1c-9.1,12.3-22.6,21.7-34.7,29.2
		c0,0,0,0-0.1,0.1c-4.1,2.6-8.4,5.1-12.7,7.7c-0.5,0.3-1,0.6-1.6,0.8c-1,0.5-2.1,1.1-3,1.9c-2,1.7-2.6,3.8-1.8,6.1
		c1.3,4,6.7,7.9,11.3,8.2c15.5,0.9,33.5-0.5,70.9-4C331.7,582.1,338.7,581.8,344.9,581.8z"/>
</g>
<g class="st3">
	
		<linearGradient id="SVGID_00000126312329877589868210000007688285822289069219_" gradientUnits="userSpaceOnUse" x1="499.2267" y1="447.7467" x2="486.3277" y2="463.7277">
		<stop  offset="1.364087e-03" style="stop-color:#908C92;stop-opacity:0.8"/>
		<stop  offset="3.016982e-02" style="stop-color:#8F8B91;stop-opacity:0.825"/>
		<stop  offset="0.2321" style="stop-color:#8B878D"/>
		<stop  offset="0.3041" style="stop-color:#A09DA2"/>
		<stop  offset="0.4535" style="stop-color:#D6D6D8"/>
		<stop  offset="0.5263" style="stop-color:#F3F4F4"/>
		<stop  offset="0.5736" style="stop-color:#DADADB"/>
		<stop  offset="0.6574" style="stop-color:#B3B1B4"/>
		<stop  offset="0.7337" style="stop-color:#979397"/>
		<stop  offset="0.7993" style="stop-color:#868186"/>
		<stop  offset="0.8464" style="stop-color:#807B80"/>
		<stop  offset="1" style="stop-color:#B2B2B2"/>
	</linearGradient>
	<path style="display:inline;fill:url(#SVGID_00000126312329877589868210000007688285822289069219_);" d="M488.6,446.1
		c-0.5,8.9,5.5,13.9,1.4,27.6"/>
	
		<radialGradient id="SVGID_00000066496156657178233450000014490605624617563793_" cx="490.0639" cy="459.9751" r="9.8535" gradientUnits="userSpaceOnUse">
		<stop  offset="0" style="stop-color:#666666"/>
		<stop  offset="8.490046e-02" style="stop-color:#818181"/>
		<stop  offset="0.2377" style="stop-color:#ADADAD"/>
		<stop  offset="0.3751" style="stop-color:#CCCCCC"/>
		<stop  offset="0.4909" style="stop-color:#DFDFDF"/>
		<stop  offset="0.5712" style="stop-color:#E6E6E6"/>
		<stop  offset="0.6517" style="stop-color:#D5D5D5"/>
		<stop  offset="0.8826" style="stop-color:#AAAAAA"/>
		<stop  offset="1" style="stop-color:#999999"/>
	</radialGradient>
	<path style="display:inline;fill:url(#SVGID_00000066496156657178233450000014490605624617563793_);" d="M490.2,473.8l-0.2-0.1
		c2.5-8.5,1.2-13.6-0.1-18.5c-0.8-3-1.5-5.8-1.3-9.1l0.2,0c-0.2,3.3,0.5,6.1,1.3,9.1C491.4,460.1,492.7,465.3,490.2,473.8z"/>
</g>
<g>
	<path class="st6" d="M240,636.8v9.6h-2v-9.6l-11.3-18.4h2.2l10.1,16.5l10.1-16.5h2.1L240,636.8z"/>
	<path class="st6" d="M277.3,644.6v1.8h-19.3v-28h18.7v1.8H260v11h14.9v1.8H260v11.5H277.3z"/>
	<path class="st6" d="M304.3,638.6h-16.2l-3.6,7.9h-2.2l12.9-28h2l12.9,28h-2.2L304.3,638.6z M303.5,636.8l-7.4-16.2l-7.3,16.2
		H303.5z"/>
	<path class="st6" d="M336.9,646.4l-6.7-9.4c-0.9,0.1-1.8,0.2-2.7,0.2h-8v9.2h-2v-28h10c7,0,11.3,3.5,11.3,9.4
		c0,4.4-2.4,7.5-6.6,8.8l7,9.8H336.9z M327.5,635.5c6,0,9.2-2.8,9.2-7.6c0-4.8-3.2-7.6-9.2-7.6h-8v15.2H327.5z"/>
	<path class="st6" d="M345.7,642.8l0.9-1.5c1.9,2,5.5,3.5,9.2,3.5c5.6,0,8.1-2.4,8.1-5.5c0-8.4-17.5-3.4-17.5-13.7
		c0-4,3-7.4,9.9-7.4c3.1,0,6.3,1,8.4,2.5l-0.8,1.6c-2.3-1.6-5.2-2.4-7.7-2.4c-5.4,0-7.9,2.5-7.9,5.6c0,8.4,17.5,3.4,17.5,13.6
		c0,4-3.2,7.4-10.1,7.4C351.7,646.6,347.7,645.1,345.7,642.8z"/>
	<path class="st6" d="M385.1,632.4c0-8.1,6.2-14.2,14.6-14.2c8.3,0,14.6,6,14.6,14.2c0,8.2-6.2,14.2-14.6,14.2
		C391.3,646.6,385.1,640.6,385.1,632.4z M412.1,632.4c0-7.1-5.4-12.3-12.5-12.3c-7.2,0-12.5,5.2-12.5,12.3c0,7.1,5.4,12.3,12.5,12.3
		C406.7,644.8,412.1,639.5,412.1,632.4z"/>
	<path class="st6" d="M425.6,620.3v12h14.9v1.8h-14.9v12.4h-2v-28h18.7v1.8H425.6z"/>
	<path class="st6" d="M482.9,644.6v1.8h-19.3v-28h18.7v1.8h-16.7v11h14.9v1.8h-14.9v11.5H482.9z"/>
	<path class="st6" d="M509.9,646.4l-9.6-13l-9.6,13h-2.4L499,632l-10-13.6h2.4l8.9,12l8.9-12h2.3l-10,13.5l10.8,14.5H509.9z"/>
	<path class="st6" d="M516.6,632.4c0-8.2,6.2-14.2,14.5-14.2c4,0,7.5,1.3,10,3.9l-1.3,1.3c-2.4-2.4-5.3-3.3-8.6-3.3
		c-7.2,0-12.6,5.3-12.6,12.3c0,7,5.4,12.3,12.6,12.3c3.3,0,6.2-1,8.6-3.4l1.3,1.3c-2.4,2.6-6,3.9-10,3.9
		C522.8,646.6,516.6,640.6,516.6,632.4z"/>
	<path class="st6" d="M569.5,644.6v1.8h-19.3v-28h18.7v1.8h-16.7v11h14.9v1.8h-14.9v11.5H569.5z"/>
	<path class="st6" d="M579.2,618.4h2v26.2h16.1v1.8h-18.2V618.4z"/>
	<path class="st6" d="M604.9,618.4h2v26.2h16.1v1.8h-18.2V618.4z"/>
	<path class="st6" d="M649.9,644.6v1.8h-19.3v-28h18.7v1.8h-16.7v11h14.9v1.8h-14.9v11.5H649.9z"/>
	<path class="st6" d="M682.4,618.4v28h-1.7l-19.1-24.3v24.3h-2v-28h1.7l19,24.3v-24.3H682.4z"/>
	<path class="st6" d="M691.8,632.4c0-8.2,6.2-14.2,14.5-14.2c4,0,7.5,1.3,10,3.9l-1.3,1.3c-2.4-2.4-5.3-3.3-8.6-3.3
		c-7.2,0-12.6,5.3-12.6,12.3c0,7,5.4,12.3,12.6,12.3c3.3,0,6.2-1,8.6-3.4l1.3,1.3c-2.4,2.6-6,3.9-10,3.9
		C698,646.6,691.8,640.6,691.8,632.4z"/>
	<path class="st6" d="M744.7,644.6v1.8h-19.3v-28h18.7v1.8h-16.7v11h14.9v1.8h-14.9v11.5H744.7z"/>
</g>
<g>
	
		<radialGradient id="SVGID_00000017491467718429901460000005771506529779579823_" cx="665.8873" cy="532.4384" r="60.637" gradientUnits="userSpaceOnUse">
		<stop  offset="0" style="stop-color:#666666"/>
		<stop  offset="8.066081e-02" style="stop-color:#818181"/>
		<stop  offset="0.2258" style="stop-color:#ADADAD"/>
		<stop  offset="0.3564" style="stop-color:#CCCCCC"/>
		<stop  offset="0.4664" style="stop-color:#DFDFDF"/>
		<stop  offset="0.5426" style="stop-color:#E6E6E6"/>
		<stop  offset="0.6286" style="stop-color:#D5D5D5"/>
		<stop  offset="0.8748" style="stop-color:#AAAAAA"/>
		<stop  offset="1" style="stop-color:#999999"/>
	</radialGradient>
	<path style="fill:url(#SVGID_00000017491467718429901460000005771506529779579823_);" d="M604.8,475.9c5.3,5.1,10.2,10.6,15.1,16.1
		l3.6,4.2l3.5,4.2c2.4,2.8,4.6,5.7,6.8,8.7c4.3,5.9,8.4,12.4,11.1,19.4c0.7,1.7,1.2,3.6,1.6,5.4c0.5,1.8,0.6,3.7,0.8,5.6
		c0.1,1.8,0.3,3.6,0.8,5.2c0.5,1.6,1.4,3,2.6,4.2c2.4,2.4,5.6,4,8.8,5.9c3.2,1.8,6.3,3.6,9.5,5.4c6.4,3.5,12.9,6.7,19.4,9.9
		c6.5,3.2,13.1,6.3,19.8,9.2c6.7,2.9,13.5,5.7,20.3,8.5l-0.1,0.5c-7.3-1.2-14.5-3.1-21.5-5.3c-7.1-2.3-14-5-20.7-8.1
		c-6.7-3.1-13.2-6.8-19.5-10.7c-3.1-2-6.3-3.9-9.3-6.1c-1.5-1.1-3-2.1-4.5-3.3c-1.5-1.2-2.9-2.5-4.2-4.1c-1.2-1.6-2.2-3.4-2.6-5.4
		c-0.4-2-0.4-3.9-0.5-5.7c0-3.6-0.8-7.1-2.2-10.4c-1.4-3.3-3.5-6.3-5.7-9.1c-2.3-2.8-4.7-5.5-7.1-8.2c-2.4-2.8-4.8-5.6-7-8.5
		l-3.4-4.4l-3.3-4.4c-4.3-5.9-8.6-11.9-12.4-18.2L604.8,475.9z"/>
</g>
<linearGradient id="SVGID_00000015314798887194615920000001200059488511484058_" gradientUnits="userSpaceOnUse" x1="506.7308" y1="566.5775" x2="648.1418" y2="395.2336">
	<stop  offset="3.617990e-02" style="stop-color:#CCCCCC"/>
	<stop  offset="8.127789e-02" style="stop-color:#BAB9BB"/>
	<stop  offset="0.1609" style="stop-color:#A09EA2"/>
	<stop  offset="0.2312" style="stop-color:#918D92"/>
	<stop  offset="0.2841" style="stop-color:#8B878D"/>
	<stop  offset="0.3146" style="stop-color:#918D93"/>
	<stop  offset="0.3565" style="stop-color:#A29FA4"/>
	<stop  offset="0.405" style="stop-color:#BDBCBF"/>
	<stop  offset="0.4581" style="stop-color:#E4E4E5"/>
	<stop  offset="0.4769" style="stop-color:#F3F4F4"/>
	<stop  offset="0.5616" style="stop-color:#CDCCCE"/>
	<stop  offset="0.6521" style="stop-color:#ACA9AC"/>
	<stop  offset="0.7374" style="stop-color:#949094"/>
	<stop  offset="0.8145" style="stop-color:#858085"/>
	<stop  offset="0.8764" style="stop-color:#807B80"/>
</linearGradient>
<path style="fill:url(#SVGID_00000015314798887194615920000001200059488511484058_);stroke:#808080;stroke-width:0.25;stroke-miterlimit:10;" d="
	M542,488.3c0,0.8-0.2,2.3-0.5,5c7-5.1,15.1-7.5,25.3-7.5c13.9,0,25.3,4.4,33.5,12.8c7.8,8,11.7,18.1,11.7,31.2
	c0,30-19.7,47.7-52.7,47.7c-19.7,0-35.1-6.7-44.2-19.2c-3.6-4.8-5.5-9.4-7.8-17.5l31.4-4.8c2.7,10.3,9.2,15.1,20.4,15.1
	c13.1,0,21.8-8.3,21.8-20.7c0-12.5-8.4-20.6-21.5-20.6c-9.8,0-16.2,3.9-19.7,11.5l-29-2.8c0.6-4.7,1.1-8.4,1.6-12.8l4.2-48.7
	c0.3-3.3,0.5-7,0.6-12.9c6.6,0.3,8.1,0.3,15.6,0.3h46.6c13.7,0,19.5-0.3,25.7-1.1v27.3c-8.3-0.8-22.4-1.1-32.4-1.1h-29.2L542,488.3z
	"/>
<g>
	
		<linearGradient id="SVGID_00000001662736606729720610000009875967297058922632_" gradientUnits="userSpaceOnUse" x1="645.1641" y1="519.3887" x2="651.7343" y2="519.3887">
		<stop  offset="0" style="stop-color:#666666"/>
		<stop  offset="8.066081e-02" style="stop-color:#818181"/>
		<stop  offset="0.2258" style="stop-color:#ADADAD"/>
		<stop  offset="0.3564" style="stop-color:#CCCCCC"/>
		<stop  offset="0.4664" style="stop-color:#DFDFDF"/>
		<stop  offset="0.5426" style="stop-color:#E6E6E6"/>
		<stop  offset="0.6286" style="stop-color:#D5D5D5"/>
		<stop  offset="0.8748" style="stop-color:#AAAAAA"/>
		<stop  offset="1" style="stop-color:#999999"/>
	</linearGradient>
	<path style="fill:url(#SVGID_00000001662736606729720610000009875967297058922632_);" d="M646.9,539.7c0.3-3.4,0.6-6.8,0.6-10.2
		c0.1-3.4,0-6.8-0.2-10.1c-0.2-3.4-1-6.6-0.9-10.1c0-1.8,0.2-3.6,0.7-5.4c0.5-1.8,1.4-3.5,2.7-4.8l0.4,0.2c-0.5,3.5-0.1,6.5,0.3,9.8
		c0.2,1.6,0.3,3.3,0.3,5.1c0,1.7-0.1,3.5-0.2,5.2c-0.1,1.7-0.2,3.5-0.3,5.2c-0.2,1.7-0.4,3.4-0.7,5.1c-0.6,3.4-1.2,6.8-2.2,10.1
		L646.9,539.7z"/>
</g>
<linearGradient id="SVGID_00000129914292942306812380000003954944909836808836_" gradientUnits="userSpaceOnUse" x1="477.289" y1="307.6384" x2="477.289" y2="307.6384">
	<stop  offset="0" style="stop-color:#A3A3A3"/>
	<stop  offset="0.2589" style="stop-color:#C4C4C4"/>
	<stop  offset="0.5332" style="stop-color:#E6E6E6"/>
	<stop  offset="0.5708" style="stop-color:#DFDFDF"/>
	<stop  offset="0.8357" style="stop-color:#B4B4B4"/>
	<stop  offset="0.9703" style="stop-color:#A3A3A3"/>
</linearGradient>
<path style="fill:url(#SVGID_00000129914292942306812380000003954944909836808836_);stroke:#000000;stroke-miterlimit:10;" d="
	M477.3,307.6"/>
<g>
	<defs>
		<path id="SVGID_00000137113974495716371810000001219636487487021756_" d="M496.6,479.1c-0.7,12.4,11.3,17.4-9.2,48.9
			s34.2,21.3-36.5,48.5c-68.5,26.3-57.6-0.1-127.3,6.5c-36.5,3.4-55.3,5-71,4c-6.8-0.4-16-9-9.5-14.5c1.4-1.1,3-1.8,4.6-2.7
			c4.2-2.5,8.5-5,12.7-7.6c0.1-0.1,0.1-0.1,0.1-0.1c13.4-8.4,26.1-17.5,34.7-29.2c6.2-8.3,10-17.6,14.1-26.8
			c3.8-8.4,8-16.7,14.5-23.9c3-3.3,6.5-6.4,10-9.4c3.6-3,7.4-6,10.9-9.2c9.1-8.3,16.5-17.7,23.8-27.1c9.3-12,18.7-24,28-36
			c10.7-13.7,21.3-27.5,31.8-41.4c0.1-0.2,0.2-0.3,0.3-0.4c13.5-18,26.5-36.3,38.5-55c4.4-6.8,8.6-13.7,12.6-20.7
			c1.5-2.7,3.7-5.1,6.8-6.2l2.3-1c1.1-0.4,2.3-0.7,3.4-0.9c1.3-0.2,2.6-0.3,3.9-0.4c1.3,0,2.6,0.1,3.9,0.3c0.6,0.1,1.3,0.2,1.9,0.4
			l0.9,0.3l0.7,0.2c3.8,1.1,7.9,2,12.3,3.7c4.5,1.8,8.5,4.7,11.8,8c3.2,3.3,5.8,6.9,8.3,10.3l29.1,40.5c4.9,6.8,9.7,13.5,14.5,20.3
			l7.2,10.2c2.4,3.4,4.8,6.7,7.2,10.2c2.4,3.5,4.8,7.1,6.8,11c2.1,3.9,3.8,8.1,4.9,12.6c0.5,2.2,0.8,4.6,0.9,6.9
			c0.1,2.3,0,4.5-0.1,6.7c-0.3,4.3-0.8,8.3-0.6,12c0.1,1.9,0.3,3.6,0.8,5.4c0.5,1.8,1.1,3.5,1.9,5.2c1.6,3.5,3.8,6.8,6.1,10.1
			l14.5,20.3c9.7,13.5,19.3,27.1,29,40.7c9.7,13.5,19,27.2,30.3,39.3c2.8,3,5.8,5.9,8.8,8.6c3.1,2.8,6.3,5.3,9.5,8
			c1.6,1.3,9.2,4.7,10.8,6c1.6,1.4,3.1,2.9,4.3,4.7c1.2,1.8,2.1,3.6,3.1,5.5c1,1.8,2,3.7,3,5.5c-1.2-1.7-2.3-3.5-3.5-5.2
			c-1.1-1.7-2.3-3.5-3.5-5.1c-1.3-1.6-2.8-2.9-4.5-4.1c-1.6-1.2-9.3-4.4-11-5.6c-3.4-2.3-6.8-4.9-10.1-7.5c-3.2-2.7-6.3-5.5-9.3-8.5
			c-12-11.8-19-25.4-29-38.6c-3.7-4.9-7.4-9.8-11.1-14.7c-6.3-8.4-12.7-16.7-19-25.2l-15-20c-2.5-3.4-5-7-7-11.1
			c-1-2-1.9-4.2-2.5-6.4c-0.6-2.3-1-4.6-1.1-6.9c-0.3-4.6,0.2-8.9,0.4-12.9c0.1-2,0.2-4,0-5.8c-0.1-1.9-0.4-3.7-0.8-5.5
			c-1.8-7.2-8.1-14.1-12.7-20.7c-2.4-3.3-4.9-6.7-7.3-10l-7.4-10.1c-4.9-6.7-9.8-13.4-14.7-20.2l-29.3-40.4
			c-2.4-3.4-4.8-6.5-7.4-9.2c-2.6-2.6-6.5-4.7-9.7-5.9c-2.6-1-5.5-1.8-8.6-2.6c3.9,7.7,9.1,21.7,13.1,46.3c7.2,44.5-11.8,1.6,1,69
			c4,21-5.8,25.8-20,48S497.4,466.8,496.6,479.1"/>
	</defs>
	<clipPath id="SVGID_00000054976576331270135310000006958952640472783235_">
		<use xlink:href="#SVGID_00000137113974495716371810000001219636487487021756_"  style="overflow:visible;"/>
	</clipPath>
	<g style="clip-path:url(#SVGID_00000054976576331270135310000006958952640472783235_);">
		<path class="st12" d="M438.8,506.8c-14,0-17.6,0.2-23.4,0.6c0.6-7.6,1.4-12.3,3.3-18.4c4.1-12.9,11.5-24.8,22.5-34.9
			c5.9-5.5,11.9-10,27.8-20.7c13.4-9,16.7-13.1,16.7-20.3c0-7.5-6.7-12.5-16.7-12.5c-7.5,0-12.8,2.5-16.2,7.8
			c-2.2,3.4-3.1,6.6-3.9,13.1L416,418c2.3-13.6,5.1-20.4,11.4-27.8c8.9-10.5,23.1-16.1,41.3-16.1c21.1,0,37.1,7,44.9,19.7
			c3.4,5.5,5.1,11.5,5.1,18.3c0,11.4-4.7,21.1-14.4,29c-5.1,4.5-6.7,5.6-22.6,16.7c-13.6,9.4-19.3,14.8-22.9,21.7h36.3
			c11.7,0,18.9-0.3,25-1.1v29.5c-9-0.8-15.6-1.1-26.7-1.1H438.8z"/>
	</g>
	<g style="clip-path:url(#SVGID_00000054976576331270135310000006958952640472783235_);">
		<path class="st13" d="M536.9,327.4c-6.2-1.2-11.6-1.5-17.7-1.4c-6.4-0.6-12,0.5-16.2,5.9c-3,3.8-4.8,8.3-8.8,11.5
			c-7,5.5-15.8,3-23.6,5.3c0,0-0.3-0.5-0.3-0.5c5.9-7.3,17.2-5.6,23.3-12.4c1.5-1.6,3.3-3.6,5.2-5c0,0,1-0.8,1-0.8
			c3.2-2,6.5-3.6,9.7-5.2c2.9-1.4,5.8-3.1,9.2-3.9c6.5-1.3,14,0.8,18.5,5.9C537.2,326.9,536.9,327.4,536.9,327.4L536.9,327.4z"/>
	</g>
	<g style="clip-path:url(#SVGID_00000054976576331270135310000006958952640472783235_);">
		<path class="st13" d="M511.8,581c-2.7,1.7-6.1,2.3-9.3,1.9c-9.6-1.1-16.7-8.5-24-14c-4.6-3.8-10.1-5.8-16.1-5.7
			c-9.2,0.1-18.5,0.3-27.7-0.5c-9.1-0.9-18.2-2.4-27.2-3.7c-11.9-1.9-23.8-3-36-1.8c0,0-0.1-0.5-0.1-0.5c5.8-2.3,12-3.3,18.2-3.7
			c20.1-1.3,39.5,5.3,59.1,8.2c4.5,0.6,9,0.7,13.7,0.4c3.1-0.1,6.2-0.3,9.5,0.3c3.2,0.6,6.3,1.9,9,3.5c10.1,6.2,17.8,18,30.8,15.2
			C511.6,580.6,511.8,581,511.8,581L511.8,581z"/>
	</g>
	<g style="clip-path:url(#SVGID_00000054976576331270135310000006958952640472783235_);">
		<path class="st13" d="M406.7,556.1c8.9-0.9,16.1-5.8,24.5-8.8c4.3-1.5,8.8-2.3,13.3-2.5c6.5-0.2,13.2,0.7,19.2-2
			c3.9-1.8,7-4.8,10.6-7.2c3.8-2.8,8.8-3.9,13.4-4.1c6.5-0.4,13.2,0.5,19.2-2.7c0,0,0.2,0.3,0.2,0.3c-6.6,6.5-16.9,4.9-25.1,7.5
			c-4.1,1.2-7.3,3.7-10.9,6.1c-9,6.6-16.8,2.7-26.5,3.4c-4.3,0.4-8.3,2.4-12.2,4.3c-7.9,3.7-16.8,8.1-25.8,6.2
			C406.6,556.5,406.7,556.1,406.7,556.1L406.7,556.1z"/>
	</g>
	<g style="clip-path:url(#SVGID_00000054976576331270135310000006958952640472783235_);">
		<path class="st13" d="M339.7,544.7c5.3-5.8,13.5-7.8,20.9-9c7.3-0.5,15-2.1,18.4-9.3c3.1-6.9,1-13.9,2.6-21.5
			c1.4-8.3,10-15.4,18.4-14c0,0,0.1,0.6,0.1,0.6c-3.4,1.3-6.3,3.3-8.5,6c-5.9,7.1-3.3,16.9-6.6,25.4c-2.2,5.8-7.6,9.4-12.8,12.4
			c-3.3,1.9-6.8,4-10.5,5.3c-7.2,2.3-14.4,2.5-21.7,4.6C340,545.2,339.7,544.7,339.7,544.7L339.7,544.7z"/>
	</g>
	<g style="clip-path:url(#SVGID_00000054976576331270135310000006958952640472783235_);">
		<path class="st13" d="M375.6,473.1c17.4,3.1,35.7-0.2,50.9-9.1c3.9-2.4,7.4-4.6,12-2c1.7,0.9,3.3,1.5,5.2,1.8
			c7.5,1,14.6-3.5,20.1-8.3c8.4-7.7,16.3-19.6,29-21.4c4.3-0.6,8.3-0.1,12.2,0.1c3.8,0.2,7.6,0.1,10.6-1.5c3.1-1.4,5.3-4.9,8.8-7.4
			c6.8-5,16.1-5.9,23.4-2.5c0,0-0.1,0.4-0.1,0.4c-9.4-2.9-19.6,0.8-25.4,8.5c-11,13-25.7,0.7-38.8,10.5
			c-9.8,6.5-16.5,17.6-27.7,22.2c-5.6,2.6-12.7,3-18.2-0.4c-1.6-0.9-3-1.4-4.8-0.9c-3.4,1.2-6.9,3.8-10.4,5.2
			c-7.3,3.3-15.1,5.3-23,6.2c-7.9,0.8-15.9,0.4-23.7-1.2C375.5,473.5,375.6,473.1,375.6,473.1L375.6,473.1z"/>
	</g>
	<g style="clip-path:url(#SVGID_00000054976576331270135310000006958952640472783235_);">
		<path class="st13" d="M497.5,342.4c6.6-1.1,13.6,4.3,14.2,11.1c0.2,2.2,0.1,4.3,0.8,6c0.7,1.7,2,3.1,3.6,4.3
			c3.3,2.5,7.4,4.9,9.4,8.9c1,2,1.4,4.7,0.3,6.7c0,0-0.3-0.1-0.3-0.1c0.3-6.9-7-9.2-11.3-13.3c-1.6-1.5-3.2-3.4-3.9-5.8
			c-0.7-2.4-0.3-4.6-0.4-6.6c-0.3-6.1-6-11.2-12.2-10.9C497.5,342.7,497.5,342.4,497.5,342.4L497.5,342.4z"/>
	</g>
</g>
<g class="st3">
	<rect x="703.9" y="639.8" class="st14" width="58.5" height="58.5"/>
	<polygon class="st15" points="709.8,676.1 709.8,662 726.1,662 726.1,645.8 740.1,645.8 740.1,662 756.4,662 756.4,676.1 
		740.1,676.1 740.1,692.3 726.1,692.3 726.1,676.1 	"/>
	<path class="st16" d="M228.4,698.9c-3.9,0-7.3-0.5-10-1.4c-2.8-1-5-2.2-6.8-3.8c-1.8-1.6-3.1-3.3-4-5.3c-0.9-2-1.3-4-1.3-6H218
		c0.1,0.3,0.1,0.9,0.3,1.7c0.1,0.9,0.5,1.8,1.2,2.8c0.7,1,1.7,1.9,3,2.6c1.4,0.8,3.3,1.2,5.9,1.2c1.2,0,2.4-0.1,3.7-0.4
		c1.2-0.3,2.4-0.7,3.4-1.4c1-0.6,1.8-1.5,2.5-2.5c0.6-1,0.9-2.3,0.9-3.7c0-2-0.8-3.6-2.3-4.9c-1.6-1.2-3.5-2.3-5.8-3.2
		c-2.3-0.9-4.9-1.8-7.6-2.6c-2.7-0.9-5.3-1.9-7.6-3.3c-2.3-1.3-4.3-3.1-5.8-5.1c-1.6-2.1-2.3-4.8-2.3-8.2c0-2.9,0.6-5.4,1.7-7.4
		c1.2-2,2.7-3.7,4.6-4.9c1.9-1.3,4.1-2.2,6.6-2.8c2.5-0.6,5-0.9,7.7-0.9c3,0,5.7,0.3,8.3,0.9c2.6,0.6,4.8,1.4,6.6,2.6
		c1.9,1.2,3.4,2.6,4.5,4.4c1.1,1.8,1.7,3.9,1.7,6.3h-11.7c-0.1-0.7-0.4-1.3-0.9-2.1c-0.5-0.7-1.2-1.4-2-1.9
		c-0.8-0.6-1.7-1.1-2.9-1.4c-1.1-0.4-2.3-0.6-3.7-0.6c-1.1,0-2.1,0.1-3.2,0.4c-1.1,0.2-2,0.6-2.9,1.2c-0.9,0.5-1.5,1.2-2,2.1
		c-0.5,0.9-0.8,1.9-0.8,3.2c0,2,0.8,3.6,2.3,4.8c1.6,1.2,3.5,2.2,5.8,3c2.3,0.9,4.9,1.7,7.6,2.6c2.8,0.8,5.3,1.9,7.6,3.3
		c2.3,1.4,4.3,3.1,5.8,5.3c1.6,2.2,2.3,5,2.3,8.5c0,3.1-0.7,5.7-2,7.8c-1.3,2.1-3,3.9-5.1,5.3c-2.1,1.4-4.5,2.4-7.2,3
		C233.8,698.6,231.1,698.9,228.4,698.9"/>
	<polygon class="st16" points="270.2,697.8 254.9,640.4 266.9,640.4 276.9,681.4 289.2,640.4 300.3,640.4 312.4,681.4 322.5,640.4 
		334.3,640.4 318.8,697.8 306.8,697.8 294.6,656.1 282.2,697.8 	"/>
	<rect x="341.7" y="640.4" class="st16" width="11.8" height="57.4"/>
	<path class="st16" d="M386.5,698.9c-3.9,0-7.3-0.5-10-1.4c-2.8-1-5-2.2-6.8-3.8c-1.8-1.6-3.1-3.3-4-5.3c-0.9-2-1.3-4-1.3-6h11.7
		c0.1,0.3,0.1,0.9,0.3,1.7c0.1,0.9,0.5,1.8,1.2,2.8c0.7,1,1.7,1.9,3,2.6c1.4,0.8,3.3,1.2,5.9,1.2c1.2,0,2.4-0.1,3.7-0.4
		c1.2-0.3,2.4-0.7,3.4-1.4c1-0.6,1.8-1.5,2.5-2.5c0.6-1,0.9-2.3,0.9-3.7c0-2-0.8-3.6-2.3-4.9c-1.6-1.2-3.5-2.3-5.8-3.2
		c-2.3-0.9-4.9-1.8-7.6-2.6c-2.7-0.9-5.3-1.9-7.6-3.3c-2.3-1.3-4.3-3.1-5.8-5.1c-1.6-2.1-2.3-4.8-2.3-8.2c0-2.9,0.6-5.4,1.7-7.4
		c1.2-2,2.7-3.7,4.6-4.9c1.9-1.3,4.1-2.2,6.6-2.8c2.5-0.6,5-0.9,7.7-0.9c3,0,5.7,0.3,8.3,0.9c2.6,0.6,4.8,1.4,6.6,2.6
		c1.9,1.2,3.4,2.6,4.5,4.4c1.1,1.8,1.7,3.9,1.7,6.3h-11.7c-0.1-0.7-0.4-1.3-0.9-2.1c-0.5-0.7-1.2-1.4-2-1.9
		c-0.8-0.6-1.7-1.1-2.9-1.4c-1.1-0.4-2.3-0.6-3.7-0.6c-1.1,0-2.1,0.1-3.2,0.4c-1.1,0.2-2,0.6-2.9,1.2c-0.9,0.5-1.5,1.2-2,2.1
		c-0.5,0.9-0.8,1.9-0.8,3.2c0,2,0.8,3.6,2.3,4.8c1.6,1.2,3.5,2.2,5.8,3c2.3,0.9,4.9,1.7,7.6,2.6c2.8,0.8,5.3,1.9,7.6,3.3
		c2.3,1.4,4.3,3.1,5.8,5.3c1.6,2.2,2.3,5,2.3,8.5c0,3.1-0.7,5.7-2,7.8c-1.3,2.1-3,3.9-5.1,5.3c-2.1,1.4-4.5,2.4-7.2,3
		C391.9,698.6,389.2,698.9,386.5,698.9"/>
	<path class="st16" d="M438.5,698.9c-3.9,0-7.3-0.5-10-1.4c-2.8-1-5-2.2-6.8-3.8c-1.8-1.6-3.1-3.3-4-5.3c-0.9-2-1.3-4-1.3-6h11.7
		c0.1,0.3,0.1,0.9,0.3,1.7c0.1,0.9,0.5,1.8,1.1,2.8c0.7,1,1.7,1.9,3,2.6c1.4,0.8,3.3,1.2,5.9,1.2c1.2,0,2.4-0.1,3.7-0.4
		c1.2-0.3,2.4-0.7,3.4-1.4c1-0.6,1.8-1.5,2.5-2.5c0.6-1,0.9-2.3,0.9-3.7c0-2-0.8-3.6-2.3-4.9c-1.6-1.2-3.5-2.3-5.8-3.2
		c-2.3-0.9-4.9-1.8-7.6-2.6c-2.7-0.9-5.3-1.9-7.6-3.3c-2.3-1.3-4.3-3.1-5.8-5.1c-1.6-2.1-2.3-4.8-2.3-8.2c0-2.9,0.6-5.4,1.7-7.4
		c1.2-2,2.7-3.7,4.6-4.9c1.9-1.3,4.1-2.2,6.6-2.8c2.5-0.6,5-0.9,7.7-0.9c3,0,5.7,0.3,8.3,0.9c2.6,0.6,4.8,1.4,6.6,2.6
		c1.9,1.2,3.4,2.6,4.5,4.4c1.1,1.8,1.7,3.9,1.7,6.3h-11.7c-0.1-0.7-0.4-1.3-0.9-2.1c-0.5-0.7-1.2-1.4-2-1.9
		c-0.8-0.6-1.7-1.1-2.9-1.4c-1.1-0.4-2.3-0.6-3.7-0.6c-1.1,0-2.1,0.1-3.2,0.4c-1.1,0.2-2,0.6-2.9,1.2c-0.9,0.5-1.5,1.2-2,2.1
		c-0.5,0.9-0.8,1.9-0.8,3.2c0,2,0.8,3.6,2.3,4.8c1.6,1.2,3.5,2.2,5.8,3c2.3,0.9,4.9,1.7,7.6,2.6c2.8,0.8,5.3,1.9,7.6,3.3
		c2.3,1.4,4.3,3.1,5.8,5.3c1.6,2.2,2.3,5,2.3,8.5c0,3.1-0.7,5.7-2,7.8c-1.3,2.1-3,3.9-5.1,5.3c-2.1,1.4-4.5,2.4-7.2,3
		C443.9,698.6,441.2,698.9,438.5,698.9"/>
	<path class="st17" d="M489,698.8c-3.3,0-5.8-0.4-7.6-1.1c-1.8-0.7-3.2-1.6-4.4-2.8c-0.8-0.8-1.4-1.6-1.8-2.5
		c-0.4-0.9-0.7-1.8-0.9-2.9c-0.2-1-0.3-2.1-0.3-3.2c0-1.1,0-2.3,0-3.5v-22.2h-8.4v-8.1h8.4v-12.3h12.4v12.3h12.2v8.1h-12.2v22.2
		c0,3,0.6,5,1.7,6c1.1,1,2.8,1.5,5,1.5c1.2,0,2.3-0.1,3.2-0.3c0.9-0.2,1.7-0.3,2.3-0.4v7.7c-0.4,0.1-1.6,0.4-3.4,0.8
		C493.2,698.6,491.2,698.8,489,698.8"/>
	<path class="st17" d="M527,690.7c3.9,0,6.6-1.4,8.3-4.1c1.7-2.7,2.5-6.5,2.5-11.4c0-4.9-0.8-8.6-2.5-11.3c-1.7-2.7-4.4-4-8.2-4
		c-3.7,0-6.4,1.3-8,4c-1.7,2.7-2.5,6.5-2.5,11.3c0,4.9,0.8,8.6,2.5,11.4C520.7,689.3,523.3,690.7,527,690.7 M527,698.8
		c-2.9,0-5.8-0.4-8.6-1.2c-2.8-0.8-5.3-2.1-7.5-3.9c-2.2-1.8-3.9-4.3-5.2-7.3c-1.3-3-2-6.8-2-11.3c0-4.5,0.7-8.3,2.1-11.3
		c1.4-3,3.2-5.4,5.4-7.2c2.2-1.8,4.8-3.1,7.6-3.8c2.8-0.7,5.7-1.1,8.6-1.1c2.9,0,5.8,0.4,8.6,1.1c2.8,0.7,5.2,2,7.4,3.8
		c2.1,1.8,3.9,4.2,5.2,7.2c1.3,3,2,6.8,2,11.3c0,4.5-0.7,8.3-2,11.3c-1.3,3-3.1,5.4-5.3,7.3c-2.2,1.8-4.7,3.1-7.5,3.9
		C532.8,698.4,530,698.8,527,698.8z"/>
	<path class="st17" d="M574.8,698.6c-1.9,0-3.8-0.3-5.7-0.9c-1.9-0.6-3.6-1.6-4.9-2.9c-1-1-1.9-2.1-2.4-3.3c-0.6-1.2-1-2.4-1.3-3.6
		c-0.3-1.2-0.5-2.5-0.6-3.8c-0.1-1.3-0.1-2.5-0.1-3.7v-27.8h12.4v25.8c0,1.2,0,2.4,0.1,3.7c0.1,1.3,0.4,2.5,0.8,3.5
		c0.4,1.1,1.1,2,2,2.7c0.9,0.7,2.1,1.1,3.7,1.1c2.4,0,4.4-0.5,5.7-1.6c1.4-1.1,2.4-2.4,3-4c0.6-1.6,1-3.3,1.1-5.1
		c0.1-1.8,0.2-3.4,0.2-4.8v-21.3h12.4v45.1h-11.2l-0.4-7.3c-0.2,0.4-0.6,1.1-1.1,2c-0.5,0.9-1.3,1.8-2.4,2.8
		c-1.1,0.9-2.6,1.7-4.4,2.4C579.8,698.3,577.5,698.6,574.8,698.6"/>
	<path class="st17" d="M613.6,697.8v-45.1H625l0.4,9.5c0.1-0.3,0.3-1,0.6-2.1c0.3-1.1,1-2.2,2-3.5c1-1.2,2.5-2.3,4.5-3.3
		c2-1,4.6-1.5,8-1.5c0.6,0,1.1,0,1.5,0.1c0.4,0.1,0.7,0.1,0.9,0.1v9.9c-0.3,0-0.7,0-1.1-0.1c-0.4-0.1-1.1-0.1-2-0.1
		c-2.6,0-4.5,0.4-5.9,1.1c-1.4,0.7-2.6,1.5-3.5,2.5c-1.5,1.4-2.5,3.4-3.1,5.9c-0.6,2.5-0.9,5.1-0.9,8v18.5H613.6z"/>
	<path class="st17" d="M664.9,699c-3.2,0-6.2-0.4-8.9-1.2c-2.7-0.8-4.9-2-6.7-3.8c-1.6-1.5-2.6-3.1-3-4.7c-0.4-1.6-0.6-2.9-0.6-3.8
		h11.2c0.1,0.2,0.2,0.7,0.3,1.4c0.2,0.7,0.5,1.4,1,2.1s1.3,1.3,2.3,1.9c1,0.5,2.5,0.8,4.3,0.8c1.2,0,2.2-0.2,3-0.5
		c0.8-0.4,1.4-0.8,1.9-1.3c0.5-0.5,0.8-1.1,1-1.7c0.2-0.6,0.3-1.1,0.3-1.6c0-0.8-0.1-1.4-0.4-1.9c-0.2-0.5-0.6-0.9-1.1-1.4
		c-0.9-0.8-2-1.5-3.5-2.1c-1.5-0.6-3.1-1.2-4.8-1.8c-1.7-0.6-3.4-1.3-5.2-2c-1.7-0.7-3.3-1.6-4.8-2.8c-1.4-1.1-2.6-2.5-3.5-4.1
		c-0.9-1.6-1.4-3.6-1.4-5.9c0-1.5,0.3-3,1-4.5c0.6-1.4,1.5-2.7,2.6-3.8c3.2-3.1,8.1-4.7,14.5-4.7c2.4,0,4.5,0.2,6.2,0.6
		c1.7,0.4,3.1,0.8,4.2,1.3c1.1,0.5,2,1,2.6,1.6c0.6,0.5,1.1,0.9,1.4,1.2c1.4,1.4,2.3,2.8,2.8,4.4c0.4,1.6,0.7,2.8,0.7,3.8h-11
		c-0.1-0.2-0.2-0.7-0.4-1.3c-0.2-0.6-0.5-1.2-1-1.8c-0.5-0.6-1.1-1.1-2-1.6c-0.9-0.5-2-0.7-3.5-0.7c-0.7,0-1.5,0.1-2.2,0.2
		c-0.7,0.1-1.4,0.4-2,0.7c-0.6,0.4-1.1,0.8-1.5,1.4c-0.4,0.6-0.6,1.4-0.6,2.3c0,1.5,0.6,2.6,1.8,3.5c1.2,0.9,2.8,1.6,4.6,2.3
		c1.8,0.7,3.8,1.4,6,2c2.2,0.7,4.2,1.6,6,2.7c1.8,1.1,3.4,2.5,4.6,4.3c1.2,1.7,1.8,3.9,1.8,6.7c0,1.7-0.4,3.4-1.1,5.1
		c-0.7,1.7-1.8,3.2-3.3,4.5c-1.5,1.3-3.4,2.4-5.7,3.2S668.1,699,664.9,699"/>
	<path class="st18" d="M228.4,698.9c-3.9,0-7.3-0.5-10-1.4c-2.8-1-5-2.2-6.8-3.8c-1.8-1.6-3.1-3.3-4-5.3c-0.9-2-1.3-4-1.3-6H218
		c0.1,0.3,0.1,0.9,0.3,1.7c0.1,0.9,0.5,1.8,1.2,2.8c0.7,1,1.7,1.9,3,2.6c1.4,0.8,3.3,1.2,5.9,1.2c1.2,0,2.4-0.1,3.7-0.4
		c1.2-0.3,2.4-0.7,3.4-1.4c1-0.6,1.8-1.5,2.5-2.5c0.6-1,0.9-2.3,0.9-3.7c0-2-0.8-3.6-2.3-4.9c-1.6-1.2-3.5-2.3-5.8-3.2
		c-2.3-0.9-4.9-1.8-7.6-2.6c-2.7-0.9-5.3-1.9-7.6-3.3c-2.3-1.3-4.3-3.1-5.8-5.1c-1.6-2.1-2.3-4.8-2.3-8.2c0-2.9,0.6-5.4,1.7-7.4
		c1.2-2,2.7-3.7,4.6-4.9c1.9-1.3,4.1-2.2,6.6-2.8c2.5-0.6,5-0.9,7.7-0.9c3,0,5.7,0.3,8.3,0.9c2.6,0.6,4.8,1.4,6.6,2.6
		c1.9,1.2,3.4,2.6,4.5,4.4c1.1,1.8,1.7,3.9,1.7,6.3h-11.7c-0.1-0.7-0.4-1.3-0.9-2.1c-0.5-0.7-1.2-1.4-2-1.9
		c-0.8-0.6-1.7-1.1-2.9-1.4c-1.1-0.4-2.3-0.6-3.7-0.6c-1.1,0-2.1,0.1-3.2,0.4c-1.1,0.2-2,0.6-2.9,1.2c-0.9,0.5-1.5,1.2-2,2.1
		c-0.5,0.9-0.8,1.9-0.8,3.2c0,2,0.8,3.6,2.3,4.8c1.6,1.2,3.5,2.2,5.8,3c2.3,0.9,4.9,1.7,7.6,2.6c2.8,0.8,5.3,1.9,7.6,3.3
		c2.3,1.4,4.3,3.1,5.8,5.3c1.6,2.2,2.3,5,2.3,8.5c0,3.1-0.7,5.7-2,7.8c-1.3,2.1-3,3.9-5.1,5.3c-2.1,1.4-4.5,2.4-7.2,3
		C233.8,698.6,231.1,698.9,228.4,698.9z"/>
	<polygon class="st18" points="270.2,697.8 254.9,640.4 266.9,640.4 276.9,681.4 289.2,640.4 300.3,640.4 312.4,681.4 322.5,640.4 
		334.3,640.4 318.8,697.8 306.8,697.8 294.6,656.1 282.2,697.8 	"/>
	<rect x="341.7" y="640.4" class="st18" width="11.8" height="57.4"/>
	<path class="st18" d="M386.5,698.9c-3.9,0-7.3-0.5-10-1.4c-2.8-1-5-2.2-6.8-3.8c-1.8-1.6-3.1-3.3-4-5.3c-0.9-2-1.3-4-1.3-6h11.7
		c0.1,0.3,0.1,0.9,0.3,1.7c0.1,0.9,0.5,1.8,1.2,2.8c0.7,1,1.7,1.9,3,2.6c1.4,0.8,3.3,1.2,5.9,1.2c1.2,0,2.4-0.1,3.7-0.4
		c1.2-0.3,2.4-0.7,3.4-1.4c1-0.6,1.8-1.5,2.5-2.5c0.6-1,0.9-2.3,0.9-3.7c0-2-0.8-3.6-2.3-4.9c-1.6-1.2-3.5-2.3-5.8-3.2
		c-2.3-0.9-4.9-1.8-7.6-2.6c-2.7-0.9-5.3-1.9-7.6-3.3c-2.3-1.3-4.3-3.1-5.8-5.1c-1.6-2.1-2.3-4.8-2.3-8.2c0-2.9,0.6-5.4,1.7-7.4
		c1.2-2,2.7-3.7,4.6-4.9c1.9-1.3,4.1-2.2,6.6-2.8c2.5-0.6,5-0.9,7.7-0.9c3,0,5.7,0.3,8.3,0.9c2.6,0.6,4.8,1.4,6.6,2.6
		c1.9,1.2,3.4,2.6,4.5,4.4c1.1,1.8,1.7,3.9,1.7,6.3h-11.7c-0.1-0.7-0.4-1.3-0.9-2.1c-0.5-0.7-1.2-1.4-2-1.9
		c-0.8-0.6-1.7-1.1-2.9-1.4c-1.1-0.4-2.3-0.6-3.7-0.6c-1.1,0-2.1,0.1-3.2,0.4c-1.1,0.2-2,0.6-2.9,1.2c-0.9,0.5-1.5,1.2-2,2.1
		c-0.5,0.9-0.8,1.9-0.8,3.2c0,2,0.8,3.6,2.3,4.8c1.6,1.2,3.5,2.2,5.8,3c2.3,0.9,4.9,1.7,7.6,2.6c2.8,0.8,5.3,1.9,7.6,3.3
		c2.3,1.4,4.3,3.1,5.8,5.3c1.6,2.2,2.3,5,2.3,8.5c0,3.1-0.7,5.7-2,7.8c-1.3,2.1-3,3.9-5.1,5.3c-2.1,1.4-4.5,2.4-7.2,3
		C391.9,698.6,389.2,698.9,386.5,698.9z"/>
	<path class="st18" d="M438.5,698.9c-3.9,0-7.3-0.5-10-1.4c-2.8-1-5-2.2-6.8-3.8c-1.8-1.6-3.1-3.3-4-5.3c-0.9-2-1.3-4-1.3-6h11.7
		c0.1,0.3,0.1,0.9,0.3,1.7c0.1,0.9,0.5,1.8,1.1,2.8c0.7,1,1.7,1.9,3,2.6c1.4,0.8,3.3,1.2,5.9,1.2c1.2,0,2.4-0.1,3.7-0.4
		c1.2-0.3,2.4-0.7,3.4-1.4c1-0.6,1.8-1.5,2.5-2.5c0.6-1,0.9-2.3,0.9-3.7c0-2-0.8-3.6-2.3-4.9c-1.6-1.2-3.5-2.3-5.8-3.2
		c-2.3-0.9-4.9-1.8-7.6-2.6c-2.7-0.9-5.3-1.9-7.6-3.3c-2.3-1.3-4.3-3.1-5.8-5.1c-1.6-2.1-2.3-4.8-2.3-8.2c0-2.9,0.6-5.4,1.7-7.4
		c1.2-2,2.7-3.7,4.6-4.9c1.9-1.3,4.1-2.2,6.6-2.8c2.5-0.6,5-0.9,7.7-0.9c3,0,5.7,0.3,8.3,0.9c2.6,0.6,4.8,1.4,6.6,2.6
		c1.9,1.2,3.4,2.6,4.5,4.4c1.1,1.8,1.7,3.9,1.7,6.3h-11.7c-0.1-0.7-0.4-1.3-0.9-2.1c-0.5-0.7-1.2-1.4-2-1.9
		c-0.8-0.6-1.7-1.1-2.9-1.4c-1.1-0.4-2.3-0.6-3.7-0.6c-1.1,0-2.1,0.1-3.2,0.4c-1.1,0.2-2,0.6-2.9,1.2c-0.9,0.5-1.5,1.2-2,2.1
		c-0.5,0.9-0.8,1.9-0.8,3.2c0,2,0.8,3.6,2.3,4.8c1.6,1.2,3.5,2.2,5.8,3c2.3,0.9,4.9,1.7,7.6,2.6c2.8,0.8,5.3,1.9,7.6,3.3
		c2.3,1.4,4.3,3.1,5.8,5.3c1.6,2.2,2.3,5,2.3,8.5c0,3.1-0.7,5.7-2,7.8c-1.3,2.1-3,3.9-5.1,5.3c-2.1,1.4-4.5,2.4-7.2,3
		C443.9,698.6,441.2,698.9,438.5,698.9z"/>
	<path class="st19" d="M489,698.8c-3.3,0-5.8-0.4-7.6-1.1c-1.8-0.7-3.2-1.6-4.4-2.8c-0.8-0.8-1.4-1.6-1.8-2.5
		c-0.4-0.9-0.7-1.8-0.9-2.9c-0.2-1-0.3-2.1-0.3-3.2c0-1.1,0-2.3,0-3.5v-22.2h-8.4v-8.1h8.4v-12.3h12.4v12.3h12.2v8.1h-12.2v22.2
		c0,3,0.6,5,1.7,6c1.1,1,2.8,1.5,5,1.5c1.2,0,2.3-0.1,3.2-0.3c0.9-0.2,1.7-0.3,2.3-0.4v7.7c-0.4,0.1-1.6,0.4-3.4,0.8
		C493.2,698.6,491.2,698.8,489,698.8z"/>
	<path class="st19" d="M527,690.7c3.9,0,6.6-1.4,8.3-4.1c1.7-2.7,2.5-6.5,2.5-11.4c0-4.9-0.8-8.6-2.5-11.3c-1.7-2.7-4.4-4-8.2-4
		c-3.7,0-6.4,1.3-8,4c-1.7,2.7-2.5,6.5-2.5,11.3c0,4.9,0.8,8.6,2.5,11.4C520.7,689.3,523.3,690.7,527,690.7z M527,698.8
		c-2.9,0-5.8-0.4-8.6-1.2c-2.8-0.8-5.3-2.1-7.5-3.9c-2.2-1.8-3.9-4.3-5.2-7.3c-1.3-3-2-6.8-2-11.3c0-4.5,0.7-8.3,2.1-11.3
		c1.4-3,3.2-5.4,5.4-7.2c2.2-1.8,4.8-3.1,7.6-3.8c2.8-0.7,5.7-1.1,8.6-1.1c2.9,0,5.8,0.4,8.6,1.1c2.8,0.7,5.2,2,7.4,3.8
		c2.1,1.8,3.9,4.2,5.2,7.2c1.3,3,2,6.8,2,11.3c0,4.5-0.7,8.3-2,11.3c-1.3,3-3.1,5.4-5.3,7.3c-2.2,1.8-4.7,3.1-7.5,3.9
		C532.8,698.4,530,698.8,527,698.8z"/>
	<path class="st19" d="M574.8,698.6c-1.9,0-3.8-0.3-5.7-0.9c-1.9-0.6-3.6-1.6-4.9-2.9c-1-1-1.9-2.1-2.4-3.3c-0.6-1.2-1-2.4-1.3-3.6
		c-0.3-1.2-0.5-2.5-0.6-3.8c-0.1-1.3-0.1-2.5-0.1-3.7v-27.8h12.4v25.8c0,1.2,0,2.4,0.1,3.7c0.1,1.3,0.4,2.5,0.8,3.5
		c0.4,1.1,1.1,2,2,2.7c0.9,0.7,2.1,1.1,3.7,1.1c2.4,0,4.4-0.5,5.7-1.6c1.4-1.1,2.4-2.4,3-4c0.6-1.6,1-3.3,1.1-5.1
		c0.1-1.8,0.2-3.4,0.2-4.8v-21.3h12.4v45.1h-11.2l-0.4-7.3c-0.2,0.4-0.6,1.1-1.1,2c-0.5,0.9-1.3,1.8-2.4,2.8
		c-1.1,0.9-2.6,1.7-4.4,2.4C579.8,698.3,577.5,698.6,574.8,698.6z"/>
	<path class="st19" d="M613.6,697.8v-45.1H625l0.4,9.5c0.1-0.3,0.3-1,0.6-2.1c0.3-1.1,1-2.2,2-3.5c1-1.2,2.5-2.3,4.5-3.3
		c2-1,4.6-1.5,8-1.5c0.6,0,1.1,0,1.5,0.1c0.4,0.1,0.7,0.1,0.9,0.1v9.9c-0.3,0-0.7,0-1.1-0.1c-0.4-0.1-1.1-0.1-2-0.1
		c-2.6,0-4.5,0.4-5.9,1.1c-1.4,0.7-2.6,1.5-3.5,2.5c-1.5,1.4-2.5,3.4-3.1,5.9c-0.6,2.5-0.9,5.1-0.9,8v18.5H613.6z"/>
	<path class="st19" d="M664.9,699c-3.2,0-6.2-0.4-8.9-1.2c-2.7-0.8-4.9-2-6.7-3.8c-1.6-1.5-2.6-3.1-3-4.7c-0.4-1.6-0.6-2.9-0.6-3.8
		h11.2c0.1,0.2,0.2,0.7,0.3,1.4c0.2,0.7,0.5,1.4,1,2.1s1.3,1.3,2.3,1.9c1,0.5,2.5,0.8,4.3,0.8c1.2,0,2.2-0.2,3-0.5
		c0.8-0.4,1.4-0.8,1.9-1.3c0.5-0.5,0.8-1.1,1-1.7c0.2-0.6,0.3-1.1,0.3-1.6c0-0.8-0.1-1.4-0.4-1.9c-0.2-0.5-0.6-0.9-1.1-1.4
		c-0.9-0.8-2-1.5-3.5-2.1c-1.5-0.6-3.1-1.2-4.8-1.8c-1.7-0.6-3.4-1.3-5.2-2c-1.7-0.7-3.3-1.6-4.8-2.8c-1.4-1.1-2.6-2.5-3.5-4.1
		c-0.9-1.6-1.4-3.6-1.4-5.9c0-1.5,0.3-3,1-4.5c0.6-1.4,1.5-2.7,2.6-3.8c3.2-3.1,8.1-4.7,14.5-4.7c2.4,0,4.5,0.2,6.2,0.6
		c1.7,0.4,3.1,0.8,4.2,1.3c1.1,0.5,2,1,2.6,1.6c0.6,0.5,1.1,0.9,1.4,1.2c1.4,1.4,2.3,2.8,2.8,4.4c0.4,1.6,0.7,2.8,0.7,3.8h-11
		c-0.1-0.2-0.2-0.7-0.4-1.3c-0.2-0.6-0.5-1.2-1-1.8c-0.5-0.6-1.1-1.1-2-1.6c-0.9-0.5-2-0.7-3.5-0.7c-0.7,0-1.5,0.1-2.2,0.2
		c-0.7,0.1-1.4,0.4-2,0.7c-0.6,0.4-1.1,0.8-1.5,1.4c-0.4,0.6-0.6,1.4-0.6,2.3c0,1.5,0.6,2.6,1.8,3.5c1.2,0.9,2.8,1.6,4.6,2.3
		c1.8,0.7,3.8,1.4,6,2c2.2,0.7,4.2,1.6,6,2.7c1.8,1.1,3.4,2.5,4.6,4.3c1.2,1.7,1.8,3.9,1.8,6.7c0,1.7-0.4,3.4-1.1,5.1
		c-0.7,1.7-1.8,3.2-3.3,4.5c-1.5,1.3-3.4,2.4-5.7,3.2S668.1,699,664.9,699z"/>
</g>
<g class="st3">
	<g class="st20">
		<g>
			
				<radialGradient id="SVGID_00000165235656886132136500000017300942773175027355_" cx="-1034.4023" cy="19832.3086" r="13.8344" gradientTransform="matrix(0.6693 -0.6086 -0.1365 -0.1536 3885.4558 2668.8027)" gradientUnits="userSpaceOnUse">
				<stop  offset="2.272730e-03" style="stop-color:#FFFFFF"/>
				<stop  offset="6.158653e-02" style="stop-color:#E0E0E0"/>
				<stop  offset="0.1852" style="stop-color:#A6A6A6"/>
				<stop  offset="0.3088" style="stop-color:#737373"/>
				<stop  offset="0.4294" style="stop-color:#4A4A4A"/>
				<stop  offset="0.5464" style="stop-color:#2A2A2A"/>
				<stop  offset="0.6587" style="stop-color:#131313"/>
				<stop  offset="0.7646" style="stop-color:#050505"/>
				<stop  offset="0.8571" style="stop-color:#000000"/>
			</radialGradient>
			<path style="opacity:0.88;fill:url(#SVGID_00000165235656886132136500000017300942773175027355_);" d="M495.3,243.7
				c-1-1.2-6,1.6-11.1,6.3c-5.1,4.6-8.4,9.4-7.4,10.5c1,1.2,6-1.6,11.1-6.3C493,249.6,496.3,244.9,495.3,243.7z"/>
			
				<radialGradient id="SVGID_00000042716758959605127690000010622901982451790770_" cx="-520.1058" cy="162114.875" r="31.151" gradientTransform="matrix(1.0337 -0.9398 -1.940000e-02 -2.170000e-02 4168.9414 3281.1672)" gradientUnits="userSpaceOnUse">
				<stop  offset="2.272730e-03" style="stop-color:#FFFFFF"/>
				<stop  offset="6.158653e-02" style="stop-color:#E0E0E0"/>
				<stop  offset="0.1852" style="stop-color:#A6A6A6"/>
				<stop  offset="0.3088" style="stop-color:#737373"/>
				<stop  offset="0.4294" style="stop-color:#4A4A4A"/>
				<stop  offset="0.5464" style="stop-color:#2A2A2A"/>
				<stop  offset="0.6587" style="stop-color:#131313"/>
				<stop  offset="0.7646" style="stop-color:#050505"/>
				<stop  offset="0.8571" style="stop-color:#000000"/>
			</radialGradient>
			<path style="opacity:0.57;fill:url(#SVGID_00000042716758959605127690000010622901982451790770_);" d="M511.8,227.9
				c-0.4-0.4-6.4,5.4-26.5,23.7c-20.1,18.3-25.6,23.5-25.2,23.9c0.4,0.4,6.5-4.1,26.6-22.4C506.8,234.8,512.2,228.3,511.8,227.9z"/>
		</g>
		<g>
			
				<radialGradient id="SVGID_00000000937619377772009530000012163673401646198166_" cx="4567.5117" cy="1785.5826" r="13.771" gradientTransform="matrix(-0.7247 -0.6802 -0.2555 0.2666 4252.5396 2883.9463)" gradientUnits="userSpaceOnUse">
				<stop  offset="2.272730e-03" style="stop-color:#FFFFFF"/>
				<stop  offset="6.158653e-02" style="stop-color:#E0E0E0"/>
				<stop  offset="0.1852" style="stop-color:#A6A6A6"/>
				<stop  offset="0.3088" style="stop-color:#737373"/>
				<stop  offset="0.4294" style="stop-color:#4A4A4A"/>
				<stop  offset="0.5464" style="stop-color:#2A2A2A"/>
				<stop  offset="0.6587" style="stop-color:#131313"/>
				<stop  offset="0.7646" style="stop-color:#050505"/>
				<stop  offset="0.8571" style="stop-color:#000000"/>
			</radialGradient>
			<path style="opacity:0.88;fill:url(#SVGID_00000000937619377772009530000012163673401646198166_);" d="M476.3,243.8
				c-1.9,2,0.9,7.9,6.5,13c5.5,5.2,11.6,7.7,13.5,5.7c1.9-2-0.9-7.9-6.5-13C484.3,244.3,478.2,241.8,476.3,243.8z"/>
			
				<radialGradient id="SVGID_00000096759631970289591170000005522135842266249380_" cx="3093.085" cy="34813.9141" r="30.4345" gradientTransform="matrix(-1.1185 -1.0504 -3.620000e-02 3.770000e-02 5211.2817 2194.0491)" gradientUnits="userSpaceOnUse">
				<stop  offset="2.272730e-03" style="stop-color:#FFFFFF"/>
				<stop  offset="6.158653e-02" style="stop-color:#E0E0E0"/>
				<stop  offset="0.1852" style="stop-color:#A6A6A6"/>
				<stop  offset="0.3088" style="stop-color:#737373"/>
				<stop  offset="0.4294" style="stop-color:#4A4A4A"/>
				<stop  offset="0.5464" style="stop-color:#2A2A2A"/>
				<stop  offset="0.6587" style="stop-color:#131313"/>
				<stop  offset="0.7646" style="stop-color:#050505"/>
				<stop  offset="0.8571" style="stop-color:#000000"/>
			</radialGradient>
			<path style="opacity:0.57;fill:url(#SVGID_00000096759631970289591170000005522135842266249380_);" d="M463,231.8
				c-0.7,0.7,0.7,2.2,22.4,22.5c21.7,20.4,20.8,17.6,30.3,26.9c10.7,10.3-6.1-9.2-27.8-29.5C466.2,231.4,463.7,231.1,463,231.8z"/>
		</g>
	</g>
	<g class="st20">
		
			<radialGradient id="SVGID_00000084499250513540495080000018155614759554238896_" cx="4884.4585" cy="5063.6421" r="52.1625" gradientTransform="matrix(-0.1652 -0.5862 -0.5273 0.2112 3962.7644 2046.1154)" gradientUnits="userSpaceOnUse">
			<stop  offset="2.272730e-03" style="stop-color:#FFFFFF"/>
			<stop  offset="0.1226" style="stop-color:#D0D0D0"/>
			<stop  offset="0.326" style="stop-color:#878787"/>
			<stop  offset="0.5085" style="stop-color:#4D4D4D"/>
			<stop  offset="0.6634" style="stop-color:#232323"/>
			<stop  offset="0.7845" style="stop-color:#090909"/>
			<stop  offset="0.8571" style="stop-color:#000000"/>
		</radialGradient>
		<path style="opacity:0.57;fill:url(#SVGID_00000084499250513540495080000018155614759554238896_);" d="M477.2,221.7
			c-15.2,6.1-23.7,24.7-18.9,41.6c4.8,16.9,20.9,25.7,36.1,19.6c15.2-6.1,23.6-24.7,18.9-41.6C508.6,224.4,492.4,215.6,477.2,221.7z
			"/>
		<g>
			
				<radialGradient id="SVGID_00000159440889246904302560000010386974610564212393_" cx="1006.4067" cy="21473.7578" r="6.1794" gradientTransform="matrix(0.8549 -1.1514 -0.7381 9.240000e-02 15475.4092 -572.4135)" gradientUnits="userSpaceOnUse">
				<stop  offset="2.272730e-03" style="stop-color:#FFFFFF"/>
				<stop  offset="6.158653e-02" style="stop-color:#E0E0E0"/>
				<stop  offset="0.1852" style="stop-color:#A6A6A6"/>
				<stop  offset="0.3088" style="stop-color:#737373"/>
				<stop  offset="0.4294" style="stop-color:#4A4A4A"/>
				<stop  offset="0.5464" style="stop-color:#2A2A2A"/>
				<stop  offset="0.6587" style="stop-color:#131313"/>
				<stop  offset="0.7646" style="stop-color:#050505"/>
				<stop  offset="0.8571" style="stop-color:#000000"/>
			</radialGradient>
			<path style="opacity:0.88;fill:url(#SVGID_00000159440889246904302560000010386974610564212393_);" d="M491.3,245.9
				c-2.5,0.3-6.9,3.8-9.8,7.7c-2.9,3.9-3.2,6.9-0.7,6.5c2.5-0.3,6.9-3.8,9.8-7.7C493.5,248.5,493.8,245.6,491.3,245.9z"/>
			
				<radialGradient id="SVGID_00000103236130205617868340000011323508497066512306_" cx="808.7103" cy="172612.2812" r="23.8971" gradientTransform="matrix(1.8343 -1.8845 -0.1379 2.010000e-02 22804.0664 -1692.1429)" gradientUnits="userSpaceOnUse">
				<stop  offset="2.272730e-03" style="stop-color:#FFFFFF"/>
				<stop  offset="6.158653e-02" style="stop-color:#E0E0E0"/>
				<stop  offset="0.1852" style="stop-color:#A6A6A6"/>
				<stop  offset="0.3088" style="stop-color:#737373"/>
				<stop  offset="0.4294" style="stop-color:#4A4A4A"/>
				<stop  offset="0.5464" style="stop-color:#2A2A2A"/>
				<stop  offset="0.6587" style="stop-color:#131313"/>
				<stop  offset="0.7646" style="stop-color:#050505"/>
				<stop  offset="0.8571" style="stop-color:#000000"/>
			</radialGradient>
			<path style="opacity:0.57;fill:url(#SVGID_00000103236130205617868340000011323508497066512306_);" d="M515.1,223.4
				c-1.2,0.2-16.8,11.9-32.8,28.3c-16,16.4-26.1,31.2-24.9,31c1.2-0.2,15.1-13.6,31-30C504.3,236.4,516.3,223.2,515.1,223.4z"/>
		</g>
		<g>
			
				<radialGradient id="SVGID_00000095330528896875768200000015287047520764936099_" cx="4865.29" cy="-2870.3982" r="6.1515" gradientTransform="matrix(-1.0922 -0.1385 7.640000e-02 1.1787 6019.7236 4310.4434)" gradientUnits="userSpaceOnUse">
				<stop  offset="2.272730e-03" style="stop-color:#FFFFFF"/>
				<stop  offset="6.158653e-02" style="stop-color:#E0E0E0"/>
				<stop  offset="0.1852" style="stop-color:#A6A6A6"/>
				<stop  offset="0.3088" style="stop-color:#737373"/>
				<stop  offset="0.4294" style="stop-color:#4A4A4A"/>
				<stop  offset="0.5464" style="stop-color:#2A2A2A"/>
				<stop  offset="0.6587" style="stop-color:#131313"/>
				<stop  offset="0.7646" style="stop-color:#050505"/>
				<stop  offset="0.8571" style="stop-color:#000000"/>
			</radialGradient>
			<path style="opacity:0.88;fill:url(#SVGID_00000095330528896875768200000015287047520764936099_);" d="M479.8,252.4
				c0.3,4,3.5,7.6,7.2,8.1c3.7,0.5,6.5-2.4,6.2-6.4c-0.3-4-3.5-7.6-7.2-8.1C482.4,245.5,479.6,248.4,479.8,252.4z"/>
			
				<radialGradient id="SVGID_00000168808992039853225180000003611929480545895359_" cx="3290.2888" cy="1863.9333" r="15.6817" gradientTransform="matrix(-1.6864 -0.214 1.070000e-02 0.1666 6015.4302 646.402)" gradientUnits="userSpaceOnUse">
				<stop  offset="2.272730e-03" style="stop-color:#FFFFFF"/>
				<stop  offset="6.158653e-02" style="stop-color:#E0E0E0"/>
				<stop  offset="0.1852" style="stop-color:#A6A6A6"/>
				<stop  offset="0.3088" style="stop-color:#737373"/>
				<stop  offset="0.4294" style="stop-color:#4A4A4A"/>
				<stop  offset="0.5464" style="stop-color:#2A2A2A"/>
				<stop  offset="0.6587" style="stop-color:#131313"/>
				<stop  offset="0.7646" style="stop-color:#050505"/>
				<stop  offset="0.8571" style="stop-color:#000000"/>
			</radialGradient>
			<path style="opacity:0.57;fill:url(#SVGID_00000168808992039853225180000003611929480545895359_);" d="M460.2,249.5
				c0.1,1.4,12,4.1,26.6,6c14.6,1.9,26.4,2.2,26.3,0.7c-0.1-1.4-12-4.1-26.6-6C471.9,248.4,460.1,248,460.2,249.5z"/>
		</g>
	</g>
</g>
<path class="st13" d="M515,411c1.5-0.5,7.1-2.3,9,0c1.6,1.9-0.4,5.4-5,15c-7.9,16.3-8.6,19.3-12,20c-4.4,1-10-2.5-12-7
	C490.9,429.5,502.8,414.9,515,411z"/>
</svg>
