<svg width="45" height="44" viewBox="0 0 45 44" fill="none" xmlns="http://www.w3.org/2000/svg">
<circle cx="22.957" cy="22" r="22" fill="white"/>
<path fill-rule="evenodd" clip-rule="evenodd" d="M22.6651 12.7918C22.8486 12.6077 23.108 12.4949 23.3863 12.4783C23.6646 12.4617 23.9391 12.5427 24.1493 12.7033L32.3419 18.9584C32.5042 19.0816 32.6197 19.2453 32.6727 19.4277C32.7258 19.61 32.7138 19.8022 32.6385 19.9784C32.5632 20.1546 32.4282 20.3064 32.2515 20.4134C32.0749 20.5204 31.865 20.5774 31.6503 20.5769L12.0106 20.5769C11.7316 20.5769 11.4639 20.4798 11.2666 20.307C11.0693 20.1341 10.9585 19.8997 10.9585 19.6552C10.9585 19.4108 11.0693 19.1764 11.2666 19.0035C11.4639 18.8307 11.7316 18.7336 12.0106 18.7336L28.8418 18.7336L22.7675 14.0932C22.5572 13.9326 22.4282 13.7055 22.409 13.4617C22.3898 13.2178 22.4819 12.9761 22.6651 12.7918ZM20.9957 31.2082C20.8123 31.3924 20.5529 31.5051 20.2746 31.5217C19.9962 31.5383 19.7218 31.4574 19.5116 31.2967L11.319 25.0416C11.1566 24.9184 11.0412 24.7547 10.9881 24.5723C10.9351 24.39 10.947 24.1979 11.0223 24.0216C11.0976 23.8454 11.2327 23.6936 11.4094 23.5866C11.586 23.4796 11.7958 23.4226 12.0106 23.4231L31.6503 23.4231C31.9293 23.4231 32.1969 23.5202 32.3942 23.693C32.5915 23.8659 32.7024 24.1003 32.7024 24.3448C32.7024 24.5892 32.5915 24.8236 32.3942 24.9965C32.1969 25.1693 31.9293 25.2665 31.6503 25.2665L14.8191 25.2665L20.8933 29.9068C21.1037 30.0674 21.2327 30.2945 21.2519 30.5383C21.2711 30.7822 21.1789 31.0239 20.9957 31.2082Z" fill="#0B0B0B"/>
</svg>
