<svg width="20" height="20" viewBox="0 0 20 20" fill="none" xmlns="http://www.w3.org/2000/svg">
<path d="M18.1151 1.88482C15.602 -0.6283 11.513 -0.628261 8.99991 1.88486C7.28331 3.60146 6.68706 6.13119 7.43035 8.4263L0.17168 15.685C0.117241 15.7394 0.0740578 15.804 0.0445995 15.8751C0.0151412 15.9462 -1.42082e-05 16.0224 9.99491e-09 16.0993V19.4141C9.99491e-09 19.7379 0.26207 20 0.585937 20H3.9007C4.05632 20 4.20511 19.9382 4.31496 19.8283L5.14351 18.9992C5.20596 18.9367 5.25348 18.8609 5.28252 18.7775C5.31155 18.694 5.32134 18.6051 5.31117 18.5174L5.20816 17.627L6.44183 17.5109C6.57763 17.4982 6.70474 17.4385 6.80119 17.3421C6.89763 17.2456 6.95734 17.1185 6.96999 16.9827L7.08617 15.749L7.97652 15.8526C8.14187 15.8749 8.30839 15.8194 8.4337 15.7084C8.49537 15.6534 8.54472 15.5859 8.57854 15.5105C8.61236 15.435 8.62988 15.3533 8.62995 15.2707V14.1797H9.70112C9.85675 14.1797 10.0055 14.1179 10.1154 14.008L11.618 12.5253C13.9125 13.2691 16.3985 12.7178 18.1151 11C20.6282 8.48696 20.6282 4.39794 18.1151 1.88482ZM16.4575 6.02818C15.772 6.71369 14.6573 6.71369 13.9718 6.02818C13.2863 5.34267 13.2863 4.22802 13.9718 3.54252C14.6573 2.85701 15.772 2.85701 16.4575 3.54252C17.143 4.22802 17.143 5.34267 16.4575 6.02818Z" fill="#CC0000"/>
</svg>
