<svg width="24" height="24" viewBox="0 0 24 24" fill="none" xmlns="http://www.w3.org/2000/svg">
<path d="M23.363 8.58405L15.985 7.45705L12.678 0.413055C12.431 -0.112945 11.568 -0.112945 11.321 0.413055L8.01497 7.45705L0.636973 8.58405C0.50075 8.60498 0.372927 8.66304 0.26754 8.75185C0.162152 8.84067 0.0832741 8.95681 0.0395673 9.08751C-0.00413947 9.21822 -0.0109853 9.35844 0.0197814 9.49279C0.0505481 9.62713 0.117738 9.7504 0.213973 9.84905L5.57397 15.3431L4.30697 23.1101C4.28435 23.249 4.30127 23.3914 4.35579 23.5212C4.41031 23.6509 4.50024 23.7627 4.6153 23.8438C4.73035 23.9248 4.86589 23.9719 5.00642 23.9795C5.14695 23.9872 5.28679 23.9551 5.40997 23.8871L12 20.2451L18.59 23.8881C18.7132 23.9561 18.853 23.9882 18.9935 23.9805C19.1341 23.9729 19.2696 23.9258 19.3847 23.8448C19.4997 23.7637 19.5896 23.6519 19.6442 23.5222C19.6987 23.3924 19.7156 23.25 19.693 23.1111L18.426 15.3441L23.786 9.85005C23.8825 9.75143 23.9499 9.62808 23.9809 9.4936C24.0118 9.35911 24.005 9.2187 23.9613 9.08781C23.9176 8.95693 23.8386 8.84064 23.733 8.75176C23.6274 8.66288 23.4994 8.60485 23.363 8.58405Z" fill="#CC0000"/>
</svg>
