<svg width="22" height="24" viewBox="0 0 22 24" fill="none" xmlns="http://www.w3.org/2000/svg">
<path d="M11 0C5.94736 0 0.894745 0.631599 0.894745 5.05262V17.0526C0.894745 19.4905 2.87788 21.4737 5.31582 21.4737L3.42108 23.3685V24.0001H6.23791L8.76424 21.4737H13.5264L16.0527 24H18.579V23.3684L16.6842 21.4737C19.1221 21.4737 21.1053 19.4905 21.1053 17.0526V5.05262C21.1053 0.631599 16.5832 0 11 0ZM5.31582 18.9474C4.26738 18.9474 3.42108 18.1011 3.42108 17.0526C3.42108 16.0042 4.26738 15.1579 5.31582 15.1579C6.36426 15.1579 7.21056 16.0042 7.21056 17.0526C7.21056 18.1011 6.3642 18.9474 5.31582 18.9474ZM9.73684 10.1053H3.42108V5.05262H9.7369V10.1053H9.73684ZM16.6842 18.9474C15.6358 18.9474 14.7895 18.1011 14.7895 17.0526C14.7895 16.0042 15.6358 15.1579 16.6842 15.1579C17.7327 15.1579 18.579 16.0042 18.579 17.0526C18.579 18.1011 17.7326 18.9474 16.6842 18.9474ZM18.579 10.1053H12.2632V5.05262H18.579V10.1053Z" fill="#CC0000"/>
</svg>
