<svg width="25" height="18" viewBox="0 0 25 18" fill="none" xmlns="http://www.w3.org/2000/svg">
<path d="M2.99998 6.5H5.49997C5.42404 6.49995 5.34912 6.48264 5.28086 6.44938C5.21261 6.41611 5.15281 6.36777 5.10598 6.308C5.01097 6.18702 4.97797 6.029 5.015 5.879L5.32602 4.63602C5.4068 4.31135 5.59398 4.02308 5.85768 3.81719C6.12139 3.61129 6.44645 3.49963 6.78102 3.5H10C10.827 3.5 11.5 4.17298 11.5 5V5.99998C11.5 6.27598 11.276 6.5 11 6.5H14C13.724 6.5 13.5 6.27598 13.5 5.99998V5C13.5 4.17298 14.173 3.5 15 3.5H18.219C18.5536 3.49963 18.8786 3.61129 19.1423 3.81719C19.406 4.02308 19.5932 4.31135 19.674 4.63602L19.985 5.879C20.0036 5.9527 20.0051 6.0297 19.9894 6.10407C19.9736 6.17845 19.941 6.24821 19.894 6.308C19.8472 6.36777 19.7874 6.41611 19.7191 6.44937C19.6509 6.48263 19.576 6.49995 19.5 6.5H22C22.276 6.5 22.5 6.27598 22.5 5.99998V2.99998C22.5 1.622 21.378 0.5 20 0.5H5C3.62202 0.5 2.50002 1.622 2.50002 2.99998V5.99998C2.50002 6.27598 2.72398 6.5 2.99998 6.5ZM22 7.49998H2.99998C1.622 7.49998 0.5 8.62199 0.5 9.99997V17C0.5 17.276 0.724016 17.5 1.00002 17.5C1.27602 17.5 1.50003 17.276 1.50003 17V15.5H23.5V17C23.5 17.276 23.724 17.5 24 17.5C24.276 17.5 24.5 17.276 24.5 17V9.99997C24.5 8.62199 23.378 7.49998 22 7.49998ZM23.5 14.5H1.49998V13.5H23.5V14.5H23.5Z" fill="#CC0000"/>
</svg>
