<svg width="20" height="24" viewBox="0 0 20 24" fill="none" xmlns="http://www.w3.org/2000/svg">
<g filter="url(#filter0_d_1213_6417)">
<path d="M10.0022 1.6694L15.26 6.96397V22.54H4.73999V6.96409L10.0022 1.6694Z" stroke="#1F1449" shape-rendering="crispEdges"/>
</g>
<mask id="path-2-inside-1_1213_6417" fill="white">
<path d="M9.63369 12.5222C9.63369 11.4998 8.80713 10.6685 7.79097 10.6685C6.77481 10.6685 5.94873 11.4998 5.94873 12.5222C5.94873 13.5441 6.77529 14.3755 7.79097 14.3755C8.80665 14.3755 9.63369 13.5441 9.63369 12.5222ZM7.79097 13.8955C7.03977 13.8955 6.42873 13.2797 6.42873 12.5222C6.42873 11.7648 7.03977 11.1485 7.79097 11.1485C8.54217 11.1485 9.15369 11.7648 9.15369 12.5222C9.15369 13.2797 8.54265 13.8955 7.79097 13.8955ZM12.2089 14.4614C11.1927 14.4614 10.3662 15.2928 10.3662 16.3147C10.3662 17.3371 11.1927 18.1685 12.2089 18.1685C13.225 18.1685 14.0511 17.3371 14.0511 16.3147C14.0511 15.2928 13.2246 14.4614 12.2089 14.4614ZM12.2089 17.6889C11.4577 17.6889 10.8462 17.0726 10.8462 16.3152C10.8462 15.5577 11.4572 14.9419 12.2089 14.9419C12.9601 14.9419 13.5711 15.5577 13.5711 16.3152C13.5711 17.0726 12.9601 17.6889 12.2089 17.6889ZM11.6286 10.6881C11.5996 10.6757 11.5685 10.669 11.5369 10.6686C11.5054 10.6682 11.4741 10.674 11.4448 10.6857C11.4155 10.6974 11.3888 10.7147 11.3663 10.7367C11.3437 10.7587 11.3257 10.7849 11.3132 10.8139L8.29785 17.8344C8.28543 17.8633 8.27884 17.8944 8.27844 17.9259C8.27803 17.9574 8.28384 17.9886 8.29552 18.0179C8.30719 18.0471 8.32452 18.0738 8.3465 18.0963C8.36847 18.1188 8.39468 18.1368 8.42361 18.1493C8.45254 18.1617 8.48364 18.1683 8.51512 18.1687C8.5466 18.1691 8.57786 18.1633 8.6071 18.1516C8.63634 18.1399 8.66299 18.1226 8.68553 18.1006C8.70808 18.0786 8.72607 18.0524 8.73849 18.0235L11.7538 11.003C11.7664 10.9741 11.7732 10.943 11.7737 10.9115C11.7742 10.88 11.7685 10.8487 11.7568 10.8195C11.7452 10.7902 11.7279 10.7635 11.7058 10.741C11.6838 10.7184 11.6576 10.7005 11.6286 10.6881Z"/>
</mask>
<path d="M11.6286 10.6881L11.2334 11.6068L11.2371 11.6083L11.6286 10.6881ZM11.3132 10.8139L12.232 11.2085L12.2321 11.2085L11.3132 10.8139ZM8.29785 17.8344L7.37902 17.4397L7.37891 17.44L8.29785 17.8344ZM8.73849 18.0235L7.81966 17.6288L7.81955 17.6291L8.73849 18.0235ZM11.7538 11.003L10.8372 10.6033L10.835 10.6084L11.7538 11.003ZM10.6337 12.5222C10.6337 10.9531 9.36499 9.66846 7.79097 9.66846V11.6685C8.24928 11.6685 8.63369 12.0465 8.63369 12.5222H10.6337ZM7.79097 9.66846C6.21662 9.66846 4.94873 10.9535 4.94873 12.5222H6.94873C6.94873 12.0462 7.333 11.6685 7.79097 11.6685V9.66846ZM4.94873 12.5222C4.94873 14.0908 6.21744 15.3755 7.79097 15.3755V13.3755C7.33315 13.3755 6.94873 12.9974 6.94873 12.5222H4.94873ZM7.79097 15.3755C9.36417 15.3755 10.6337 14.0912 10.6337 12.5222H8.63369C8.63369 12.9971 8.24913 13.3755 7.79097 13.3755V15.3755ZM7.79097 12.8955C7.59958 12.8955 7.42873 12.7349 7.42873 12.5222H5.42873C5.42873 13.8244 6.47996 14.8955 7.79097 14.8955V12.8955ZM7.42873 12.5222C7.42873 12.3091 7.60003 12.1485 7.79097 12.1485V10.1485C6.47951 10.1485 5.42873 11.2205 5.42873 12.5222H7.42873ZM7.79097 12.1485C7.98237 12.1485 8.15369 12.3095 8.15369 12.5222H10.1537C10.1537 11.22 9.10198 10.1485 7.79097 10.1485V12.1485ZM8.15369 12.5222C8.15369 12.7347 7.98307 12.8955 7.79097 12.8955V14.8955C9.10223 14.8955 10.1537 13.8246 10.1537 12.5222H8.15369ZM12.2089 13.4614C10.635 13.4614 9.36617 14.7459 9.36617 16.3147H11.3662C11.3662 15.8396 11.7504 15.4614 12.2089 15.4614V13.4614ZM9.36617 16.3147C9.36617 17.8838 10.6349 19.1685 12.2089 19.1685V17.1685C11.7506 17.1685 11.3662 16.7904 11.3662 16.3147H9.36617ZM12.2089 19.1685C13.7832 19.1685 15.0511 17.8835 15.0511 16.3147H13.0511C13.0511 16.7907 12.6669 17.1685 12.2089 17.1685V19.1685ZM15.0511 16.3147C15.0511 14.7461 13.7824 13.4614 12.2089 13.4614V15.4614C12.6667 15.4614 13.0511 15.8395 13.0511 16.3147H15.0511ZM12.2089 16.6889C12.0175 16.6889 11.8462 16.5279 11.8462 16.3152H9.84617C9.84617 17.6174 10.8979 18.6889 12.2089 18.6889V16.6889ZM11.8462 16.3152C11.8462 16.1027 12.0168 15.9419 12.2089 15.9419V13.9419C10.8976 13.9419 9.84617 15.0128 9.84617 16.3152H11.8462ZM12.2089 15.9419C12.4003 15.9419 12.5711 16.1025 12.5711 16.3152H14.5711C14.5711 15.013 13.5199 13.9419 12.2089 13.9419V15.9419ZM12.5711 16.3152C12.5711 16.5283 12.3998 16.6889 12.2089 16.6889V18.6889C13.5204 18.6889 14.5711 17.6169 14.5711 16.3152H12.5711ZM12.0237 9.76952C11.8741 9.70515 11.7132 9.6709 11.5503 9.66872L11.5236 11.6685C11.4237 11.6672 11.3251 11.6462 11.2334 11.6068L12.0237 9.76952ZM11.5503 9.66872C11.3874 9.66653 11.2257 9.69647 11.0744 9.75681L11.8152 11.6145C11.7225 11.6515 11.6234 11.6699 11.5236 11.6685L11.5503 9.66872ZM11.0744 9.75681C10.9231 9.81715 10.7852 9.90671 10.6685 10.0204L12.0641 11.453C11.9925 11.5227 11.908 11.5776 11.8152 11.6145L11.0744 9.75681ZM10.6685 10.0204C10.5518 10.134 10.4587 10.2696 10.3944 10.4193L12.2321 11.2085C12.1927 11.3003 12.1356 11.3833 12.0641 11.453L10.6685 10.0204ZM10.3944 10.4192L7.37902 17.4397L9.21668 18.229L12.232 11.2085L10.3944 10.4192ZM7.37891 17.44C7.3147 17.5896 7.28059 17.7504 7.27852 17.9132L9.27835 17.9386C9.27708 18.0384 9.25617 18.137 9.21679 18.2288L7.37891 17.44ZM7.27852 17.9132C7.27645 18.076 7.30646 18.2376 7.36685 18.3888L9.22419 17.647C9.26122 17.7397 9.27962 17.8388 9.27835 17.9386L7.27852 17.9132ZM7.36685 18.3888C7.42723 18.5399 7.5168 18.6778 7.63045 18.7944L9.06254 17.3982C9.13224 17.4697 9.18716 17.5543 9.22419 17.647L7.36685 18.3888ZM7.63045 18.7944C7.7441 18.9109 7.87959 19.004 8.02921 19.0682L8.81801 17.2303C8.90976 17.2697 8.99285 17.3268 9.06254 17.3982L7.63045 18.7944ZM8.02921 19.0682C8.17884 19.1324 8.33963 19.1665 8.5024 19.1686L8.52784 17.1688C8.62765 17.17 8.72625 17.1909 8.81801 17.2303L8.02921 19.0682ZM8.5024 19.1686C8.66519 19.1707 8.8268 19.1406 8.978 19.0803L8.23619 17.2229C8.32891 17.1859 8.42801 17.1675 8.52784 17.1688L8.5024 19.1686ZM8.978 19.0803C9.12918 19.0199 9.26701 18.9303 9.38359 18.8167L7.98748 17.3846C8.05897 17.3149 8.14349 17.2599 8.23619 17.2229L8.978 19.0803ZM9.38359 18.8167C9.50017 18.703 9.59322 18.5675 9.65743 18.4179L7.81955 17.6291C7.85892 17.5374 7.91598 17.4543 7.98748 17.3846L9.38359 18.8167ZM9.65732 18.4181L12.6727 11.3977L10.835 10.6084L7.81966 17.6288L9.65732 18.4181ZM12.6705 11.4028C12.7359 11.2528 12.7709 11.0914 12.7736 10.9278L10.7738 10.8953C10.7755 10.7947 10.797 10.6955 10.8372 10.6033L12.6705 11.4028ZM12.7736 10.9278C12.7762 10.7643 12.7465 10.6018 12.686 10.4498L10.8277 11.1891C10.7905 11.0957 10.7722 10.9958 10.7738 10.8953L12.7736 10.9278ZM12.686 10.4498C12.6255 10.2978 12.5355 10.1593 12.4212 10.0422L10.9904 11.4397C10.9202 11.3678 10.8649 11.2826 10.8277 11.1891L12.686 10.4498ZM12.4212 10.0422C12.3069 9.92522 12.1706 9.83199 12.0201 9.76795L11.2371 11.6083C11.1445 11.569 11.0607 11.5116 10.9904 11.4397L12.4212 10.0422Z" fill="#1F1449" mask="url(#path-2-inside-1_1213_6417)"/>
<path d="M10.3306 5.10823C10.3306 5.30229 10.1761 5.44791 9.99999 5.44791C9.82386 5.44791 9.66943 5.30229 9.66943 5.10823C9.66943 4.91418 9.82386 4.76855 9.99999 4.76855C10.1761 4.76855 10.3306 4.91418 10.3306 5.10823Z" stroke="#1F1449" stroke-width="2"/>
<defs>
<filter id="filter0_d_1213_6417" x="0.23999" y="0.959961" width="19.52" height="30.0801" filterUnits="userSpaceOnUse" color-interpolation-filters="sRGB">
<feFlood flood-opacity="0" result="BackgroundImageFix"/>
<feColorMatrix in="SourceAlpha" type="matrix" values="0 0 0 0 0 0 0 0 0 0 0 0 0 0 0 0 0 0 127 0" result="hardAlpha"/>
<feOffset dy="4"/>
<feGaussianBlur stdDeviation="2"/>
<feComposite in2="hardAlpha" operator="out"/>
<feColorMatrix type="matrix" values="0 0 0 0 0 0 0 0 0 0 0 0 0 0 0 0 0 0 0.25 0"/>
<feBlend mode="normal" in2="BackgroundImageFix" result="effect1_dropShadow_1213_6417"/>
<feBlend mode="normal" in="SourceGraphic" in2="effect1_dropShadow_1213_6417" result="shape"/>
</filter>
</defs>
</svg>
