<svg width="18" height="18" viewBox="0 0 18 18" fill="none" xmlns="http://www.w3.org/2000/svg">
<path fill-rule="evenodd" clip-rule="evenodd" d="M6 0V6C6 6.55228 6.44772 7 7 7H11C11.5523 7 12 6.55228 12 6V0H6ZM13 6V0H16C17.1046 0 18 0.895431 18 2V16C18 17.1046 17.1046 18 16 18H2C0.89543 18 0 17.1046 0 16V2C0 0.89543 0.895431 0 2 0H5V6C5 7.10457 5.89543 8 7 8H11C12.1046 8 13 7.10457 13 6ZM6.5 14H11.5C11.7761 14 12 14.2239 12 14.5C12 14.7761 11.7761 15 11.5 15H6.5C6.22386 15 6 14.7761 6 14.5C6 14.2239 6.22386 14 6.5 14ZM5 14.5C5 13.6716 5.67157 13 6.5 13H11.5C12.3284 13 13 13.6716 13 14.5C13 15.3284 12.3284 16 11.5 16H6.5C5.67157 16 5 15.3284 5 14.5Z" fill="#CC0000"/>
</svg>
