<svg width="24" height="25" viewBox="0 0 24 25" fill="none" xmlns="http://www.w3.org/2000/svg">
<path d="M20.2501 21.6739C20.1516 21.6741 20.054 21.6547 19.963 21.617C19.872 21.5793 19.7894 21.5239 19.7199 21.4541L3.21994 4.95408C3.08522 4.81228 3.01123 4.62347 3.01373 4.4279C3.01624 4.23233 3.09504 4.04547 3.23334 3.90717C3.37164 3.76887 3.5585 3.69007 3.75407 3.68756C3.94964 3.68506 4.13845 3.75905 4.28025 3.89377L20.7803 20.3938C20.8851 20.4987 20.9564 20.6323 20.9854 20.7777C21.0143 20.9231 20.9994 21.0739 20.9427 21.2109C20.8859 21.3479 20.7899 21.465 20.6666 21.5474C20.5433 21.6298 20.3984 21.6739 20.2501 21.6739ZM11.6251 15.4794L9.19744 13.0517C9.18353 13.0379 9.16565 13.0288 9.1463 13.0257C9.12696 13.0226 9.10713 13.0257 9.0896 13.0344C9.07206 13.0431 9.05771 13.0572 9.04855 13.0745C9.03939 13.0918 9.03589 13.1115 9.03853 13.131C9.13654 13.7608 9.43227 14.3431 9.88299 14.7938C10.3337 15.2446 10.916 15.5403 11.5459 15.6383C11.5653 15.6409 11.585 15.6374 11.6024 15.6283C11.6197 15.6191 11.6337 15.6048 11.6424 15.5872C11.6512 15.5697 11.6542 15.5499 11.6511 15.5305C11.648 15.5112 11.6389 15.4933 11.6251 15.4794ZM12.3751 9.86845L14.8065 12.2989C14.8204 12.3129 14.8383 12.3222 14.8577 12.3254C14.8772 12.3286 14.8971 12.3256 14.9148 12.3169C14.9324 12.3081 14.9469 12.294 14.956 12.2765C14.9652 12.2591 14.9686 12.2392 14.9659 12.2197C14.8681 11.589 14.5722 11.0058 14.1209 10.5545C13.6696 10.1033 13.0864 9.80731 12.4557 9.70955C12.4362 9.70653 12.4162 9.70977 12.3986 9.71879C12.381 9.72781 12.3668 9.74216 12.3578 9.75978C12.3489 9.77741 12.3457 9.7974 12.3488 9.81692C12.3519 9.83644 12.3611 9.85447 12.3751 9.86845Z" fill="black"/>
<path d="M23.0156 13.4856C23.1708 13.242 23.2529 12.9591 23.252 12.6703C23.2512 12.3814 23.1675 12.0989 23.0109 11.8563C21.7706 9.93813 20.1614 8.30875 18.3577 7.14391C16.3594 5.85391 14.1562 5.17188 11.985 5.17188C10.8404 5.17345 9.7035 5.36007 8.61843 5.72453C8.58807 5.73463 8.56079 5.75234 8.5392 5.77596C8.51761 5.79959 8.50242 5.82835 8.49509 5.8595C8.48776 5.89066 8.48853 5.92317 8.49732 5.95394C8.50611 5.98472 8.52263 6.01273 8.54531 6.03531L10.7597 8.24969C10.7827 8.27273 10.8113 8.28939 10.8427 8.29802C10.8741 8.30665 10.9072 8.30696 10.9387 8.29891C11.6893 8.11599 12.4744 8.1294 13.2183 8.33783C13.9622 8.54626 14.6399 8.9427 15.1862 9.48897C15.7325 10.0353 16.1289 10.713 16.3373 11.4569C16.5458 12.2008 16.5592 12.9858 16.3762 13.7364C16.3683 13.7679 16.3686 13.8009 16.3773 13.8322C16.3859 13.8635 16.4025 13.892 16.4255 13.915L19.6106 17.1025C19.6438 17.1357 19.6881 17.1553 19.735 17.1573C19.7819 17.1594 19.8278 17.1439 19.8637 17.1138C21.0898 16.0687 22.1522 14.8457 23.0156 13.4856ZM12 17.1719C11.3188 17.1719 10.6465 17.0173 10.0337 16.7197C9.42094 16.4221 8.88375 15.9892 8.46263 15.4537C8.04151 14.9183 7.74745 14.2942 7.60262 13.6286C7.45779 12.9629 7.46598 12.2731 7.62656 11.6111C7.63452 11.5796 7.63417 11.5466 7.62555 11.5153C7.61692 11.484 7.60031 11.4555 7.57734 11.4325L4.44422 8.29797C4.41099 8.26471 4.36649 8.24514 4.31952 8.24314C4.27255 8.24115 4.22655 8.25687 4.19062 8.28719C3.04734 9.26266 1.9875 10.4495 1.01859 11.8366C0.84899 12.08 0.755584 12.3683 0.750243 12.665C0.744901 12.9616 0.827865 13.2531 0.988591 13.5025C2.22656 15.4398 3.81937 17.0716 5.59547 18.2205C7.59656 19.5156 9.74625 20.1719 11.985 20.1719C13.1412 20.1688 14.2899 19.9861 15.39 19.6305C15.4206 19.6207 15.4482 19.6032 15.4702 19.5796C15.4921 19.5561 15.5076 19.5273 15.5152 19.496C15.5227 19.4648 15.5222 19.4321 15.5134 19.4011C15.5047 19.3702 15.4882 19.342 15.4655 19.3192L13.2403 17.0945C13.2174 17.0716 13.1888 17.055 13.1575 17.0463C13.1262 17.0377 13.0932 17.0373 13.0617 17.0453C12.7141 17.1295 12.3577 17.172 12 17.1719Z" fill="black"/>
</svg>
