<svg width="24" height="25" viewBox="0 0 24 25" fill="none" xmlns="http://www.w3.org/2000/svg">
<path d="M23.0935 10.5864L13.3042 10.5859C12.8719 10.5859 12.5215 10.9363 12.5215 11.3686V14.4958C12.5215 14.928 12.8719 15.2785 13.3041 15.2785H18.8169C18.2132 16.8451 17.0865 18.157 15.6491 18.9907L17.9997 23.0598C21.7704 20.8791 23.9997 17.0527 23.9997 12.7694C23.9997 12.1595 23.9548 11.7235 23.8649 11.2326C23.7965 10.8596 23.4727 10.5864 23.0935 10.5864Z" fill="#167EE6"/>
<path d="M12.0003 19.9756C9.30242 19.9756 6.94723 18.5015 5.68231 16.3203L1.61328 18.6657C3.68398 22.2545 7.56308 24.6712 12.0003 24.6712C14.177 24.6712 16.2309 24.0852 18.0003 23.0638V23.0582L15.6496 18.989C14.5744 19.6126 13.3302 19.9756 12.0003 19.9756Z" fill="#12B347"/>
<path d="M18 23.067V23.0614L15.6494 18.9922C14.5741 19.6158 13.33 19.9788 12 19.9788V24.6744C14.1767 24.6744 16.2308 24.0883 18 23.067Z" fill="#0F993E"/>
<path d="M4.69566 12.6741C4.69566 11.3443 5.05856 10.1002 5.68205 9.02503L1.61302 6.67969C0.586031 8.44345 0 10.4918 0 12.6741C0 14.8564 0.586031 16.9048 1.61302 18.6685L5.68205 16.3232C5.05856 15.248 4.69566 14.0039 4.69566 12.6741Z" fill="#FFD500"/>
<path d="M12.0003 5.36753C13.7595 5.36753 15.3755 5.99266 16.6377 7.03248C16.9491 7.28898 17.4017 7.27047 17.6869 6.98523L19.9027 4.76945C20.2263 4.44583 20.2033 3.91609 19.8575 3.61619C17.7428 1.78155 14.9912 0.671875 12.0003 0.671875C7.56308 0.671875 3.68398 3.08861 1.61328 6.67745L5.68231 9.0228C6.94723 6.84156 9.30242 5.36753 12.0003 5.36753Z" fill="#FF4B26"/>
<path d="M16.6374 7.03248C16.9488 7.28898 17.4015 7.27047 17.6866 6.98523L19.9024 4.76945C20.226 4.44583 20.2029 3.91609 19.8573 3.61619C17.7425 1.7815 14.991 0.671875 12 0.671875V5.36753C13.7592 5.36753 15.3752 5.99266 16.6374 7.03248Z" fill="#D93F21"/>
</svg>
