<?xml version="1.0" encoding="utf-8"?>
<!-- Generator: Adobe Illustrator 25.4.1, SVG Export Plug-In . SVG Version: 6.00 Build 0)  -->
<svg version="1.1" id="Layer_1" xmlns="http://www.w3.org/2000/svg" xmlns:xlink="http://www.w3.org/1999/xlink" x="0px" y="0px"
	 viewBox="0 0 512 512" style="enable-background:new 0 0 512 512;" xml:space="preserve">
<style type="text/css">
	.st0{display:none;}
	.st1{display:inline;}
	.st2{fill:#FFFFFF;}
	.st3{fill:#CC0000;}
	.st4{fill:#FFEFD2;}
	.st5{display:inline;fill:#FFFFFF;}
	.st6{display:inline;fill:#CC0000;}
	.st7{fill:none;stroke:#000000;stroke-width:14;stroke-linecap:round;stroke-linejoin:round;stroke-miterlimit:10;}
	.st8{fill:none;stroke:#CC0000;stroke-width:14;stroke-linecap:round;stroke-linejoin:round;stroke-miterlimit:10;}
</style>
<g class="st0">
	<g class="st1">
		<path class="st2" d="M451.2,324c-0.1,1.3-0.2,2.6-0.2,3.9c0,20.6,16.7,37.3,37.3,37.3c0.3,0,0.6,0,0.9,0v44.2
			c0,19.6-15.8,35.4-35.4,35.4h-398c-19.6,0-35.4-15.9-35.4-35.4v-44.2c3.4-0.1,6.6-0.6,9.8-1.5c15.4-4.6,26.6-18.8,26.6-35.7
			c0-9.2-3.3-17.6-8.8-24.1c0,0-0.1-0.1-0.1-0.1c-6.6-7.8-16.5-12.8-27.5-13.1v-38.3c0-19.6,15.9-35.4,35.4-35.4h398
			c19.6,0,35.4,15.9,35.4,35.4v38.3c-0.3,0-0.6,0-0.9,0C469,290.7,453.1,305.3,451.2,324L451.2,324z"/>
		<path class="st2" d="M489.1,252.4v38.3c-0.3,0-0.6,0-0.9,0c-19.3,0-35.1,14.6-37.1,33.4L85.8,429.2c-18.8,5.4-38.4-5.4-43.8-24.2
			L30,363.7c15.4-4.6,26.6-18.8,26.6-35.7c0-9.2-3.3-17.6-8.8-24.1c0,0-0.1-0.1-0.1-0.1c-6.6-7.8-16.5-12.8-27.5-13.1v-38.3
			c0-19.6,15.9-35.4,35.4-35.4h398C473.3,217,489.1,232.8,489.1,252.4L489.1,252.4z"/>
		<path class="st2" d="M443.8,176c5.7,19.8,26.4,31.2,46.1,25.5c0.3-0.1,0.6-0.2,0.8-0.3l12.2,42.5c5.4,18.8-5.4,38.4-24.2,43.8
			L96.3,397.6c-18.8,5.4-38.4-5.4-43.8-24.2l-12.2-42.5c19.3-6,30.3-26.4,24.7-45.9c-5.6-19.5-25.8-30.9-45.3-25.7L9,222.5
			c-5.4-18.8,5.4-38.4,24.2-43.8L415.7,68.6c18.8-5.4,38.4,5.4,43.8,24.2l10.6,36.8c-0.3,0.1-0.6,0.1-0.9,0.2
			C449.5,135.6,438.1,156.2,443.8,176L443.8,176z"/>
		<path class="st2" d="M459.2,91.7c-5.8-18.1-25.1-28.5-43.5-23.2L33.2,178.7c-18.1,5.2-28.8,23.6-24.8,41.7L459.2,91.7z"/>
		<path class="st2" d="M294.7,103.4l63,219L96.3,397.6c-18.8,5.4-38.4-5.4-43.8-24.2l-12.2-42.5c19.3-6,30.3-26.4,24.7-45.9
			c-5.6-19.5-25.8-30.9-45.3-25.7L9,222.5c-5.4-18.8,5.4-38.4,24.2-43.8L294.7,103.4z"/>
		<path class="st2" d="M294.7,103.4L33.2,178.7c-11.4,3.3-21.5,12.8-24.5,25.1c-1.4,5.3-1.6,10.9-0.3,16.6c0,0,0,0,0,0L304.1,136
			L294.7,103.4z"/>
		<g>
			<path class="st2" d="M188.1,261.2l-3.8,65.8l23.1-6.6l17.7-68.6L188.1,261.2z"/>
			<path class="st2" d="M182.6,242.3l-38.1-53.7l23.1-6.6l51.5,48.7L182.6,242.3z"/>
			<path class="st2" d="M111.1,261.8c0,0,114.5-39.8,128.1-43.7s28.9,9.8,28.9,9.8s-5.7,19.8-19.3,23.7
				c-13.6,3.9-131.7,31.1-131.7,31.1l-14.2,4.9l-19.2-32.9L111.1,261.8z"/>
		</g>
		<path class="st2" d="M335.9,124.1l76.5-22l8.5,29.6l-76.5,22L335.9,124.1z"/>
		<path class="st3" d="M263.7,287l41.9-12.1l16.6,57.6l-41.9,12.1L263.7,287z"/>
		<path class="st4" d="M355,383.8h84v29.4h-84V383.8z"/>
	</g>
	<g class="st1">
		<path d="M510.3,241.6l-12.2-42.5c-1-3.2-5.1-6.9-10.3-4.9c-15.7,4.5-32.2-4.6-36.7-20.3c-4.5-15.7,4.6-32.2,20.3-36.7
			c3.3-0.7,7.4-4.2,6.1-9.6l-10.6-36.8c-3.2-11-10.5-20.2-20.5-25.7c-10.1-5.6-21.7-6.9-32.7-3.7L31.1,171.4
			c-11,3.2-20.2,10.5-25.7,20.5c-5.6,10.1-6.9,21.7-3.7,32.7l10.6,36.8c0.1,0.3,0.2,0.7,0.4,1v28.3c0,4.1,3.3,7.5,7.4,7.6
			c12.6,0.3,23.5,8.6,27.4,20.2c-2.8,2.2-6,4-9.6,5.1c-3.9,1.2-6.2,5.4-5,9.4l5.2,18c-5.1,4.1-11.3,6.5-18,6.6
			c-4.1,0.1-7.4,3.5-7.4,7.6v44.2c0,23.7,19.3,43,43,43H152c4.2,0,7.6-3.4,7.6-7.6s-3.4-7.6-7.6-7.6H55.7
			c-15.3,0-27.8-12.5-27.8-27.8V372c5.2-1,10.1-2.9,14.6-5.6l2.6,9.1c3.2,11,10.5,20.2,20.5,25.7c9.1,4.7,20.2,7.4,32.7,3.7
			l352.2-101.4c-4.6,7-7.2,15.4-7.2,24.4c0,22.5,16.6,41.1,38.2,44.4v37.1c0,15.3-12.5,27.8-27.8,27.8H188.4c-4.2,0-7.6,3.4-7.6,7.6
			c0,4.2,3.4,7.6,7.6,7.6h265.3c23.7,0,43-19.3,43-43v-44.2c-0.1-3.3-3-8-8.5-7.6c-16.4,0-29.7-13.3-29.7-29.7
			c0-16.4,13.3-29.7,29.7-29.7c3.4,0.2,8.2-2,8.5-7.6v-4.3c3.9-3.3,7.3-7.4,9.9-12.1C512.2,264.3,513.5,252.7,510.3,241.6
			L510.3,241.6z M27.9,283.9v-18.2c20.1-0.8,35.5,19.1,29.5,38.3C50.8,293.7,40.1,286.3,27.9,283.9L27.9,283.9z M273,292.3l27.3-7.9
			l12.4,43l-27.3,7.9L273,292.3z M493.3,267c-3.7,6.8-9.6,10.8-16.6,13.3L362.9,313c-2.3-14-20-8.5-14.6,4.2l-21,6l-14.5-50.3
			c-0.6-1.9-1.9-3.6-3.6-4.6c-1.8-1-3.8-1.2-5.8-0.7l-41.9,12.1c-1.9,0.6-3.6,1.9-4.6,3.6c-1,1.8-1.2,3.8-0.7,5.8l14.5,50.3
			L94.2,390.3c-7.1,2.1-14.7,1.2-21.2-2.4c-6.5-3.6-11.2-9.5-13.3-16.6l-10.3-35.9c18.3-9.2,28.1-30.6,23.2-50.6
			c-5.4-21.9-25.6-35.4-47.6-34.1l-8.7-30.3c-2.1-7.1-1.2-14.7,2.4-21.2c3.6-6.5,9.5-11.2,16.6-13.3l254.1-73.1l0.8,2.9
			c1,3.3,4,5.5,7.3,5.5c0.7,0,1.4-0.1,2.1-0.3c4-1.2,6.4-5.4,5.2-9.4l-0.8-2.9l113.7-32.7c7.1-2.1,14.7-1.2,21.2,2.4
			c6.5,3.6,11.2,9.5,13.3,16.6l8.6,30c-19.8,9.1-30.6,31.6-24.4,53.2c6.2,21.6,27.3,34.9,48.9,32.1l10.3,35.6
			C497.7,253,496.9,260.5,493.3,267L493.3,267z"/>
		<path d="M320.6,166l-5.6-19.4c-1.2-4-5.4-6.4-9.4-5.2c-4,1.2-6.4,5.4-5.2,9.4l5.6,19.4C308.3,178.9,322.7,176.3,320.6,166z"/>
		<path d="M336.3,220.5l-5.6-19.4c-1.2-4-5.4-6.4-9.4-5.2c-4,1.2-6.4,5.4-5.2,9.4l5.6,19.4C324,233.4,338.4,230.8,336.3,220.5z"/>
		<path d="M346.4,255.6c-1.2-4-5.4-6.4-9.4-5.2c-4,1.2-6.4,5.4-5.2,9.4l5.6,19.4c2.3,8.7,16.7,6.1,14.6-4.2L346.4,255.6z"/>
		<path d="M427.5,135.4c1-1.8,1.2-3.8,0.7-5.8l-8.5-29.6c-1.2-4-5.4-6.4-9.4-5.2l-76.5,22c-4,1.2-6.4,5.4-5.2,9.4l8.5,29.6
			c0.6,1.9,1.9,3.6,3.6,4.6c1.1,0.6,2.4,0.9,3.7,0.9c0.7,0,1.4-0.1,2.1-0.3l76.5-22C424.9,138.5,426.5,137.2,427.5,135.4
			L427.5,135.4z M349.6,144.4l-4.3-14.9l61.9-17.8l4.3,14.9L349.6,144.4z"/>
		<path d="M415.5,251.3l40.9-11.8c4-1.2,6.4-5.4,5.2-9.4c-1.2-4-5.4-6.4-9.4-5.2l-40.9,11.8c-4,1.2-6.4,5.4-5.2,9.4
			c1,3.3,4,5.5,7.3,5.5C414.1,251.6,414.8,251.5,415.5,251.3z"/>
		<path d="M459.7,251.1l-40.9,11.8c-4,1.2-6.4,5.4-5.2,9.4c1,3.3,4,5.5,7.3,5.5c0.7,0,1.4-0.1,2.1-0.3l40.9-11.8
			c4-1.2,6.4-5.4,5.2-9.4C468,252.3,463.8,249.9,459.7,251.1z"/>
		<path d="M145.5,330.2l-57.6,16.6c-4,1.2-6.4,5.4-5.2,9.4c1,3.3,4,5.5,7.3,5.5c0.7,0,1.4-0.1,2.1-0.3l57.6-16.6
			c4-1.2,6.4-5.4,5.2-9.4C153.8,331.3,149.5,329,145.5,330.2L145.5,330.2z"/>
		<path d="M439,420.8c4.2,0,7.6-3.4,7.6-7.6v-29.4c0-4.2-3.4-7.6-7.6-7.6h-84c-4.2,0-7.6,3.4-7.6,7.6v29.4c0,4.2,3.4,7.6,7.6,7.6
			H439z M362.6,391.4h68.7v14.2h-68.7V391.4z"/>
		<path d="M317.8,404.6c4.2,0,7.6-3.4,7.6-7.6s-3.4-7.6-7.6-7.6h-80.8c-4.2,0-7.6,3.4-7.6,7.6s3.4,7.6,7.6,7.6H317.8z"/>
		<path d="M237.1,210.8c-3,0.9-10.7,3.4-20.9,6.8l-43.5-41.1c-2-1.9-4.7-2.5-7.3-1.8l-23.1,6.6c-3.6,1.1-7.4,6.1-4.1,11.7l29.3,41.2
			c-25.3,8.7-49.4,17-56.8,19.6l-25.1-6.5c-5.2-1.4-11.9,4.4-8.5,11.2l19.2,32.9c2.3,2.4,3.7,4.6,9,3.4l13.8-4.7
			c4.2-1,31.5-7.3,60.4-14l-2.9,50.4c0.6,3.7,1.6,8.9,9.7,7.7l23.1-6.6c2.6-0.7,4.6-2.8,5.3-5.4l14.9-57.9
			c10.5-2.5,18.3-4.5,21.3-5.3c17.2-4.9,23.8-26.5,24.5-28.9c0.8-2.8-0.1-5.8-2.2-7.7C271.3,220.6,254.3,205.8,237.1,210.8z
			 M156.9,193l8.6-2.5l34.5,32.6c-5.6,1.9-11.4,3.9-17.4,5.9L156.9,193z M201.1,314.2l-8.6,2.5l2.5-44.2c6.1-1.4,12.2-2.9,17.9-4.2
			L201.1,314.2z M246.7,244.3c-3.2,0.9-12.7,3.2-25.1,6.2c0,0,0,0,0,0c-5.1,1.2-11,2.6-17.6,4.2c-0.4,0.1-0.8,0.2-1.2,0.3
			c-0.2,0.1-0.4,0.1-0.7,0.2c-38,9-86,20-86.7,20.2c-0.3,0.1-0.5,0.1-0.8,0.2l-8.3,2.8l-6.9-11.8l9.7,2.5c1.5,0.4,3,0.3,4.4-0.2
			c0.7-0.3,47.2-16.4,84.1-29c1.1-0.4,2.3-0.8,3.4-1.2c0.1,0,0.1,0,0.2-0.1c5.7-2,10.9-3.7,15.5-5.3c0,0,0,0,0,0
			c12.1-4.1,21.3-7.1,24.5-8.1c5.7-1.6,13,2,17.7,5.2C256.7,235.8,252.4,242.7,246.7,244.3L246.7,244.3z"/>
	</g>
</g>
<g class="st0">
	<path class="st2" d="M343.2,460.8c-38.3,0-76.7,0-115,0c1.2-0.5,2.4-1,3.6-1.6c9.9-4.7,12.3-17.8,4.6-25.6
		c-3.7-3.8-8.3-4.9-13.5-4.9c-39.3,0.1-78.5,0.2-117.8-0.1c-5.4,0-11.3-1.1-16.2-3.4c-12.7-6-18.1-16.9-18.1-30.8
		c0-81.6,0-163.2,0-244.8c0-1.1,0-2.1,0-3.2c0.8-15,10.3-27.5,24.5-30.2c8.8-1.7,17.9-1.1,27.3-1.6c0,6.1-0.2,11.4,0,16.7
		c0.4,11,10.7,18.3,21,14.9c6.4-2.1,10.7-8,10.9-15.2c0.1-5.3,0-10.5,0-15.7c24.3,0,47.9,0,71.9,0c0,4.2,0,8.2,0,12.2
		c0,12.3,6.1,19.6,16.1,19.6c9.9-0.1,15.9-7.4,15.9-19.4c0-4.1,0-8.2,0-12.3c24.5,0,48.4,0,72.7,0c0,5.5-0.1,10.6,0,15.8
		c0.1,5.7,2.6,10.3,7.5,13.4c10.4,6.6,23.8-0.5,24.4-13c0.2-5.4,0-10.8,0-16.5c6.4,0,12.2,0,18.1,0c21.2,0,34.6,13.4,34.6,34.7
		c0,27.9,0,55.7,0,83.6c0,2-0.1,4,0.1,6c0.7,6.7,4.1,11.5,10.4,13.9c6.2,2.3,12,1,16.5-3.7c2.1-2.2,3.3-5.4,4.9-8.1
		c0,38.1,0,76.3,0,114.4c-0.2-1-0.6-2-0.7-3.1c-2.6-21.5-11-40.4-26.2-55.6c-28-28.1-61.8-37.3-99.5-25
		c-36.8,12-58.7,38.5-65.5,76.9c-7.7,43.3,18.5,89.3,59.7,104.5C324.4,457,334,458.5,343.2,460.8z M154.7,219.1
		c0-8.8-7.3-16-16.1-15.9c-8.6,0.1-15.7,7.2-15.8,15.8c-0.1,8.8,7.1,16.1,15.9,16.1C147.5,235.2,154.8,227.9,154.7,219.1z
		 M224.2,219.3c0-8.8-7.2-16.1-16-16c-8.6,0-15.8,7.1-15.9,15.7c-0.2,8.8,7,16.1,15.8,16.2C216.9,235.3,224.2,228.1,224.2,219.3z
		 M293.7,219.5c0.2-8.8-6.9-16.2-15.7-16.3c-8.6-0.1-15.9,6.8-16.2,15.4c-0.3,8.8,6.7,16.3,15.5,16.5
		C286.1,235.4,293.5,228.3,293.7,219.5z M363.1,219.2c0-8.8-7.3-16-16.1-15.9c-8.6,0.1-15.7,7.2-15.8,15.8
		c-0.1,8.8,7.1,16.1,15.9,16.1C355.9,235.2,363.2,228,363.1,219.2z M154.7,288.6c-0.1-8.8-7.4-15.9-16.2-15.8
		c-8.6,0.2-15.6,7.3-15.7,16c0,8.8,7.2,16,16,16C147.7,304.7,154.8,297.4,154.7,288.6z M224.2,288.7c-0.1-8.8-7.4-16-16.1-15.9
		c-8.6,0.1-15.7,7.2-15.7,15.9c-0.1,8.8,7.2,16.1,15.9,16.1C217.1,304.8,224.3,297.5,224.2,288.7z M154.7,358.5
		c0-8.8-7.2-16.1-16-16c-8.6,0-15.8,7.1-15.9,15.7c-0.1,8.8,7,16.1,15.8,16.2C147.4,374.5,154.7,367.3,154.7,358.5z M208.4,342.4
		c-8.8-0.1-16.1,7.1-16.1,15.9c0,8.6,7,15.8,15.6,16c8.8,0.2,16.1-6.9,16.3-15.7C224.3,349.8,217.2,342.5,208.4,342.4z"/>
	<path class="st1" d="M489.9,237.3c-1.8,3.2-3.2,6.8-5.6,9.4c-5.3,5.4-12,6.9-19.1,4.3c-7.3-2.7-11.3-8.3-12.1-16
		c-0.2-2.3-0.1-4.6-0.1-6.9c0-32.2,0-64.5,0-96.7c0-24.6-15.5-40.1-40.1-40.2c-6.8,0-13.5,0-20.9,0c0,6.5,0.2,12.8,0,19
		c-0.6,14.5-16.1,22.7-28.2,15.1c-5.6-3.6-8.5-8.9-8.6-15.5c-0.1-6,0-12,0-18.3c-28,0-55.8,0-84.1,0c0,4.8,0,9.5,0,14.2
		c0,13.9-6.9,22.4-18.4,22.4c-11.6,0.1-18.6-8.5-18.6-22.7c0-4.6,0-9.2,0-14.1c-27.7,0-55.1,0-83.2,0c0,5.9,0.1,12,0,18.1
		c-0.2,8.4-5.1,15.1-12.6,17.6c-11.9,3.9-23.8-4.4-24.3-17.2c-0.2-6.1,0-12.3,0-19.3c-10.9,0.5-21.5-0.1-31.6,1.8
		c-16.5,3.1-27.4,17.5-28.4,34.9c-0.1,1.2-0.1,2.5-0.1,3.7c0,94.4,0,188.9,0,283.3c0,16,6.2,28.7,21,35.6c5.6,2.6,12.4,3.9,18.7,3.9
		c45.4,0.3,90.9,0.2,136.3,0.1c6,0,11.3,1.3,15.6,5.6c8.9,9,6.2,24.1-5.3,29.6c-1.4,0.7-2.8,1.2-4.2,1.8c-51.1,0-102.3,0-153.4,0
		c-5.2-1.3-10.5-2.3-15.5-4c-30.6-10.7-50-38.2-50.1-71c-0.1-95.7,0-191.3,0-287c0-1.7,0-3.4,0.1-5.1c0.8-11.6,3.7-22.5,9.7-32.5
		C41.4,67,63.1,54.6,91.6,54.1c7.3-0.1,14.7,0,22.3,0c0-5,0.2-9.5,0-13.9c-0.8-11.5,3.8-19.3,14.8-23.1c2.5,0,4.9,0,7.4,0
		c11,3.8,15.6,11.6,14.8,23.1c-0.3,4.5,0,9.1,0,13.7c28,0,55.5,0,83.2,0c0-4.8,0.2-9.2,0-13.7c-0.8-11.5,3.8-19.3,14.8-23.1
		c2.5,0,4.9,0,7.4,0c11,3.8,15.6,11.6,14.8,23.1c-0.3,4.5,0,9.1,0,13.7c28.3,0,56.1,0,84.1,0c0-4.8,0.2-9.2,0-13.7
		c-0.8-11.5,3.8-19.3,14.8-23.1c2.5,0,4.9,0,7.4,0c11,3.8,15.6,11.6,14.8,23.1c-0.3,4.5,0,9.1,0,14c9.2,0,17.8-0.4,26.4,0.1
		c29.2,1.6,50.7,15.6,63.9,41.6c3.7,7.4,5.2,15.9,7.7,23.9C489.9,159,489.9,198.1,489.9,237.3z"/>
	<path class="st1" d="M368.9,491c-10.7-2.7-21.7-4.4-32-8.2c-47.7-17.6-77.9-70.8-69-120.9c7.9-44.4,33.2-75.1,75.8-89
		c43.6-14.2,82.7-3.6,115.1,28.9c17.6,17.7,27.3,39.6,30.3,64.4c0.1,1.2,0.5,2.4,0.8,3.5c0,6.2,0,12.3,0,18.5
		c-0.3,1.5-0.7,3-0.9,4.5c-6.9,44.3-31,75-72.7,91.2c-9.2,3.6-19.3,4.8-29,7.1C381.2,491,375.1,491,368.9,491z M453,378.8
		c-0.1-41.3-34-75-75.1-74.8c-41,0.2-74.5,33.8-74.5,74.9c0,41.3,33.7,75.1,74.9,75C419.4,453.9,453.1,420,453,378.8z"/>
	<path class="st2" d="M135.6,51.2c-9.5,3.3-13.5,10.1-12.8,20c0.3,3.8,0,7.7,0,12c-6.6,0-12.9-0.1-19.3,0
		C79,83.7,60.2,94.4,47.5,115.5c-5.2,8.6-7.7,18.1-8.4,28.1C39,145,39,146.5,39,148c0,82.7-0.1,165.3,0,248
		c0,28.4,16.8,52.1,43.3,61.4c4.3,1.5,8.9,2.3,13.4,3.5c-19.2,0-38.3,0-57.5,0c0-136.5,0-273.1,0-409.6
		C70.7,51.2,103.1,51.2,135.6,51.2z"/>
	<path class="st2" d="M447.8,140c-2.2-6.9-3.4-14.3-6.6-20.7c-11.4-22.5-30-34.6-55.2-36c-7.4-0.4-14.8-0.1-22.8-0.1
		c0-4.2-0.2-8.2,0-12.1c0.7-9.9-3.3-16.7-12.8-19.9c32.5,0,64.9,0,97.4,0C447.8,80.8,447.8,110.4,447.8,140z"/>
	<path class="st2" d="M344,51.2c-9.5,3.3-13.5,10-12.8,19.9c0.3,3.8,0,7.7,0,11.8c-24.2,0-48.2,0-72.7,0c0-3.9-0.2-7.9,0-11.8
		c0.7-9.9-3.3-16.7-12.8-19.9C278.5,51.2,311.3,51.2,344,51.2z"/>
	<path class="st2" d="M239.4,51.2c-9.5,3.3-13.5,10-12.8,19.9c0.3,3.8,0,7.7,0,11.8c-23.9,0-47.6,0-71.9,0c0-3.9-0.2-7.9,0-11.8
		c0.7-9.9-3.3-16.7-12.8-19.9C174.5,51.2,206.9,51.2,239.4,51.2z"/>
	<path class="st2" d="M359.2,460.8c8.4-2,17.1-3,25-6.1c36-14,56.8-40.6,62.8-78.8c0.2-1.3,0.5-2.6,0.8-3.9c0,29.6,0,59.2,0,88.8
		C418.3,460.8,388.7,460.8,359.2,460.8z"/>
	<path class="st1" d="M150.8,211.3c0,10.2-8.3,18.6-18.5,18.6c-10.2,0-18.5-8.5-18.4-18.6c0.1-10,8.3-18.2,18.3-18.3
		C142.3,192.8,150.8,201.2,150.8,211.3z"/>
	<path class="st1" d="M231.2,211.5c0,10.2-8.5,18.5-18.6,18.4c-10.2-0.1-18.4-8.6-18.2-18.8c0.2-10,8.4-18.1,18.4-18.2
		C222.9,192.9,231.2,201.3,231.2,211.5z"/>
	<path class="st1" d="M311.6,211.8c-0.2,10.2-8.8,18.4-19,18.1c-10.2-0.3-18.3-8.9-17.9-19.1c0.3-10,8.7-18,18.7-17.9
		C303.6,193.1,311.8,201.6,311.6,211.8z"/>
	<path class="st1" d="M392,211.4c0,10.2-8.4,18.6-18.5,18.5c-10.2,0-18.5-8.5-18.4-18.7c0.1-10,8.3-18.2,18.3-18.3
		C383.5,192.8,391.9,201.2,392,211.4z"/>
	<path class="st1" d="M150.8,291.7c0.1,10.2-8.2,18.6-18.4,18.7c-10.2,0.1-18.6-8.3-18.5-18.5c0-10,8.1-18.3,18.1-18.5
		C142.2,273.3,150.7,281.6,150.8,291.7z"/>
	<path class="st1" d="M231.2,291.8c0.1,10.2-8.3,18.6-18.4,18.6c-10.2,0-18.5-8.4-18.5-18.6c0.1-10,8.2-18.2,18.2-18.4
		C222.7,273.3,231.1,281.7,231.2,291.8z"/>
	<path class="st1" d="M150.8,372.6c0,10.2-8.5,18.5-18.6,18.4c-10.2-0.1-18.4-8.6-18.3-18.8c0.2-10,8.4-18.2,18.4-18.2
		C142.5,354,150.8,362.4,150.8,372.6z"/>
	<path class="st1" d="M212.9,354c10.2,0.1,18.4,8.6,18.3,18.8c-0.1,10.2-8.7,18.4-18.8,18.2c-10-0.2-18.1-8.5-18.1-18.5
		C194.3,362.3,202.7,353.9,212.9,354z"/>
	<path class="st5" d="M453,378.8c0.1,41.2-33.6,75.1-74.7,75.2c-41.2,0.1-74.9-33.7-74.9-75c0-41.1,33.5-74.7,74.5-74.9
		C419,303.8,452.8,337.5,453,378.8z M396.6,360.5c0-7.1,0.2-13.5,0-20c-0.4-10.3-8.5-18-18.5-18c-9.8,0.1-18,7.7-18.2,17.8
		c-0.3,13.1-0.3,26.2,0,39.3c0.2,9.9,7.8,17.5,17.7,17.8c9.4,0.3,18.8,0.3,28.1,0c10.1-0.3,17.7-8.4,17.8-18.2
		c0.1-10-7.7-18.1-17.9-18.6C402.7,360.4,400,360.5,396.6,360.5z"/>
	<path class="st6" d="M396.6,360.5c3.4,0,6.1-0.1,8.9,0c10.3,0.5,18,8.6,17.9,18.6c-0.1,9.8-7.7,17.9-17.8,18.2
		c-9.4,0.3-18.8,0.3-28.1,0c-9.9-0.3-17.5-7.9-17.7-17.8c-0.3-13.1-0.3-26.2,0-39.3c0.2-10.1,8.4-17.7,18.2-17.8
		c10-0.1,18.1,7.7,18.5,18C396.8,347,396.6,353.4,396.6,360.5z"/>
</g>
<g class="st0">
	<path class="st2" d="M507,502c-165.8,0-331.6,0-497.5,0c0-165.7,0-331.5,0-497.5c165.8,0,331.6,0,497.5,0
		C507,170.2,507,336.1,507,502z M428.4,249.9c10.3,10.3,19.6,19.8,29,29c12,11.7,17.7,25.9,17.6,42.7c-0.2,33.2-0.2,66.4,0,99.6
		c0.1,11-2.1,21-9,29.5c-6.9,8.6-7.1,18.5-6.4,28.6c0.3,4.3,3.8,7.2,7.8,7.1c4-0.1,7.1-3.1,7.5-7.4c0.1-1.4,0.2-2.9,0-4.4
		c-0.8-6.3,1.1-11.6,4.9-16.7c7.7-10.4,10.8-22.2,10.7-35.1c-0.2-33.5-0.2-67.1,0-100.6c0.2-21.6-7.2-39.8-22.7-54.8
		c-12.2-11.9-24-24.1-36.1-36c-2.5-2.5-3.5-4.9-3.5-8.5c0.1-63.8,0.1-127.6,0.1-191.5c0-9.6-2.1-11.7-11.7-11.7
		c-100.9,0-201.7,0-302.6,0c-9.6,0-11.7,2.1-11.7,11.6c0,119.2,0,238.4,0,357.7c0,9.8,2,11.8,12,11.8c71.3,0,142.6,0,213.8,0
		c1.9,0,3.8,0,5.7,0c-1.2,24.8,1.1,39,10.5,54.3c4.4,7.2,7.2,14.1,6.4,22.6c-0.5,5.2,3.2,8.7,7.7,8.6c4.5-0.1,7.3-3.5,7.7-8.8
		c0.7-10.2,0-19.9-7.3-28.2c-2.3-2.6-3.6-6.2-4.9-9.4c-5-12.5-6.8-25.4-4-38.8c9,0,17.7,0,26.4,0c2.3,10.8,7.6,19.8,14.7,27.8
		c3.3,3.7,7.8,4.1,11.2,1.3c3.2-2.7,3.6-7,0.9-10.9c-1.4-2-3-3.8-4.5-5.7c-10.7-14.6-10.9-33.8-0.4-48.5c5.5-7.7,5.4-9.5-1.2-16.1
		c-12.5-12.5-24.9-25-37.4-37.5c-4.8-4.8-6.3-10.5-4-16.9c2.2-6.1,6.9-9.3,13.2-9.8c5.5-0.5,9.9,1.8,13.8,5.7
		c16.9,17,33.8,33.9,50.7,50.9c5.4,5.4,9.6,6.2,13.3,2.6c3.8-3.7,3.1-8.1-2.2-13.4c-4.7-4.7-9.4-9.3-14-14.1
		c-1.1-1.2-2.3-2.9-2.3-4.4C428.4,291.8,428.4,271.5,428.4,249.9z"/>
	<path class="st1" d="M394.6,258.8c0,22.6-0.1,43.8,0.1,65c0,1.6,1.2,3.4,2.4,4.6c4.8,5,9.8,9.9,14.7,14.8c5.5,5.6,6.3,10.1,2.3,14
		c-3.9,3.8-8.3,3-14-2.7c-17.7-17.7-35.5-35.5-53.1-53.3c-4-4.1-8.7-6.5-14.5-6c-6.6,0.6-11.5,3.9-13.8,10.3
		c-2.4,6.7-0.8,12.7,4.2,17.7c13,13.1,26.1,26.1,39.1,39.2c6.9,6.9,7,8.8,1.3,16.9c-11,15.4-10.8,35.5,0.4,50.8c1.5,2,3.2,3.9,4.7,6
		c2.9,4,2.4,8.5-0.9,11.4c-3.5,3-8.3,2.5-11.7-1.3c-7.4-8.4-12.9-17.8-15.4-29.1c-9.1,0-18.2,0-27.7,0c-2.9,14-1.1,27.5,4.2,40.6
		c1.4,3.4,2.7,7.2,5.1,9.9c7.7,8.6,8.4,18.8,7.6,29.5c-0.4,5.6-3.3,9.2-8.1,9.2c-4.8,0.1-8.6-3.5-8.1-9c0.8-8.9-2.1-16.2-6.7-23.7
		c-9.9-16-12.3-30.8-11-56.8c-2,0-4,0-6,0c-74.6,0-149.2,0-223.9,0c-10.5,0-12.6-2.1-12.6-12.3c0-124.8,0-249.6,0-374.4
		c0-10,2.2-12.2,12.2-12.2c105.6,0,211.2,0,316.8,0c10,0,12.2,2.2,12.2,12.2c0,66.8,0,133.6-0.1,200.4c0,3.7,1,6.3,3.6,8.9
		c12.7,12.5,25.1,25.3,37.8,37.7c16.2,15.8,23.9,34.8,23.7,57.4c-0.3,35.1-0.2,70.2,0,105.3c0.1,13.5-3.2,25.9-11.2,36.7
		c-3.9,5.3-6,10.9-5.1,17.5c0.2,1.5,0.1,3.1,0,4.6c-0.4,4.5-3.6,7.7-7.8,7.8c-4.2,0.1-7.9-3-8.2-7.4c-0.7-10.6-0.5-20.9,6.7-29.9
		c7.2-8.9,9.5-19.4,9.4-30.9c-0.3-34.8-0.2-69.5-0.1-104.3c0.1-17.6-5.9-32.4-18.4-44.7C415.1,279.5,405.4,269.6,394.6,258.8z
		 M337.8,400.4c2.9-8.5,5.3-16.5,8.6-24.2c1.4-3.2,1.5-4.8-1-7.3c-11.4-11.1-22.6-22.4-33.8-33.8c-13.3-13.6-13.6-33.8-0.9-46.6
		c12.8-12.8,33.5-12.6,47,0.6c5.8,5.7,11.5,11.5,17.3,17.2c0.9,0.8,1.9,1.5,3.1,2.5c0-91.8,0-182.9,0-274.2
		c-102.9,0-205.5,0-308.1,0c0,122.2,0,244,0,365.8C159.9,400.4,249.3,400.4,337.8,400.4z"/>
	<path class="st5" d="M337.8,400.4c-88.5,0-177.9,0-267.8,0c0-121.8,0-243.6,0-365.8c102.6,0,205.2,0,308.1,0
		c0,91.3,0,182.5,0,274.2c-1.2-0.9-2.2-1.6-3.1-2.5c-5.8-5.7-11.4-11.6-17.3-17.2c-13.5-13.2-34.3-13.4-47-0.6
		c-12.7,12.8-12.4,33,0.9,46.6c11.1,11.4,22.4,22.7,33.8,33.8c2.5,2.5,2.4,4.1,1,7.3C343.1,383.9,340.7,391.9,337.8,400.4z
		 M224,115.7c37.2,0,74.5,0,111.7,0c7.3,0,10.2-2.9,10.2-10.1c0-14.9,0-29.9,0-44.8c0-7.3-2.9-10.2-10.1-10.2
		c-74.5,0-148.9,0-223.4,0c-7.3,0-10.2,2.8-10.2,10.1c0,14.4,0,28.8,0,43.3c0,9.4,2.3,11.7,11.6,11.7
		C150.5,115.7,187.3,115.7,224,115.7z M146.5,189c14.3-14.4,28-28.2,41.6-42.1c4.2-4.3,4.4-9,0.7-12.5c-3.5-3.3-8-3.1-12.1,1
		c-3.2,3.2-6.2,6.7-8.3,9c-4.4-1.7-7.5-4-10.6-4c-15.6-0.4-31.1-0.2-46.7-0.1c-5.8,0-9,3.1-9,8.7c-0.1,15.9-0.1,31.9,0,47.8
		c0,5.4,3.2,8.5,8.6,8.5c15.9,0.1,31.8,0.1,47.7,0c5.2,0,8.6-3.5,8.6-8.1c0-4.6-3.4-7.9-8.6-8.1C154.6,188.9,150.8,189,146.5,189z
		 M168.4,225.7c-4.3-1.7-7.3-4-10.4-4c-15.6-0.4-31.1-0.2-46.7-0.1c-6,0-9.1,3.1-9.1,9.1c-0.1,15.6-0.1,31.2,0,46.8
		c0,6,3.1,9.1,9.1,9.1c15.6,0.1,31.1,0.1,46.7,0c5.6,0,9.1-3.3,9.1-8.1c0-4.8-3.5-8-9.1-8.1c-3.8-0.1-7.5,0-11.6,0
		c14.2-14.4,27.9-28.2,41.6-42c4.2-4.3,4.4-9,0.8-12.5c-3.6-3.5-8.1-3.1-12.5,1.2C173.3,220.2,170.4,223.5,168.4,225.7z
		 M168.3,307.2c-4.2-1.7-7.3-4-10.4-4c-15.6-0.4-31.1-0.2-46.7-0.1c-6,0-9.1,3.1-9.1,9.1c-0.1,15.6-0.1,31.2,0,46.8
		c0,6,3.1,9.1,9.1,9.2c15.6,0.1,31.1,0.1,46.7,0c5.6,0,9.1-3.3,9.2-8.1c0-4.8-3.5-8-9-8.2c-3.8-0.1-7.5,0-11.6,0
		c14.2-14.4,27.9-28.1,41.6-42c4.2-4.3,4.5-9,0.9-12.5c-3.6-3.5-8.1-3.2-12.5,1.2C173.3,301.6,170.4,304.9,168.3,307.2z
		 M273.1,156.4c-12.5,0-25,0-37.6,0c-9.1,0-18.3-0.1-27.4,0.1c-5.1,0.1-8.5,3.6-8.5,8.2c0.1,4.4,3.4,7.6,8.2,8c0.8,0.1,1.7,0,2.5,0
		c41.5,0,82.9,0,124.4,0c1.5,0,3.4,0.4,4.5-0.3c2.3-1.7,5.4-3.7,6-6c0.6-2.4-1-6-2.7-7.9c-1.4-1.5-4.6-1.9-7-1.9
		C314.7,156.3,293.9,156.4,273.1,156.4z M273.3,189c-21.7,0-43.3,0-65,0c-5.3,0-8.5,3.1-8.6,7.9c-0.1,5.1,3.1,8.4,8.6,8.4
		c43,0,86,0,129-0.1c2,0,5-0.7,5.8-2.1c1.5-2.5,2.7-5.9,2.3-8.7c-0.7-3.7-4-5.5-8.1-5.5C315.9,189,294.6,189,273.3,189z
		 M273.1,237.8c-14,0-28.1,0-42.1,0c-7.1,0-14.2,0-21.3,0c-6.4,0-10.1,3.1-10,8.2c0.1,5.1,3.8,8,10.2,8c0.3,0,0.7,0,1,0
		c41.3,0,82.6,0,123.9,0c1.5,0,3.1,0.2,4.5-0.2c4-1.1,6.5-3.7,6.4-8c-0.1-4.3-2.5-6.9-6.6-7.8c-1.5-0.3-3-0.2-4.6-0.2
		C314.1,237.8,293.6,237.8,273.1,237.8z M256.5,351.8c-15.6,0-31.1,0-46.7,0c-6.4,0-10.1,3.1-10.1,8.2c0,5.1,3.7,8.1,10.2,8.1
		c31.1,0,62.3,0,93.4,0c6.4,0,10.1-3.1,10.1-8.2c0-5.1-3.7-8.1-10.2-8.1C287.6,351.8,272,351.8,256.5,351.8z M244.3,286.7
		c11.5,0,23,0,34.5,0c6.4,0,10.1-3.1,10.1-8.1c0-5.1-3.7-8.1-10.1-8.1c-23,0-46,0-69,0c-6.4,0-10.1,3-10.1,8.1
		c0,5.1,3.7,8.1,10.1,8.1C221.3,286.7,232.8,286.7,244.3,286.7z M244.4,319.2c-11.5,0-23,0-34.5,0c-6.4,0-10.1,3-10.2,8.1
		c0,5.1,3.7,8.2,10.1,8.2c23,0,46,0,69,0c6.4,0,10.1-3,10.2-8.1c0-5.1-3.7-8.2-10.1-8.2C267.4,319.2,255.9,319.2,244.4,319.2z"/>
	<path class="st1" d="M224,115.7c-36.7,0-73.5,0-110.2,0c-9.3,0-11.6-2.4-11.6-11.7c0-14.4,0-28.8,0-43.3c0-7.3,2.9-10.1,10.2-10.1
		c74.5,0,148.9,0,223.4,0c7.3,0,10.1,2.9,10.1,10.2c0,14.9,0,29.9,0,44.8c0,7.3-2.9,10.1-10.2,10.1
		C298.4,115.7,261.2,115.7,224,115.7z M329.4,67.2c-70.6,0-140.7,0-210.8,0c0,10.8,0,21.3,0,31.9c70.4,0,140.5,0,210.8,0
		C329.4,88.4,329.4,77.9,329.4,67.2z"/>
	<g class="st1">
		<path class="st7" d="M159.5,202.1h-46.6c-5.4,0-9.8-4.4-9.8-9.8v-46.6c0-5.4,4.4-9.8,9.8-9.8h46.6"/>
		<polyline class="st8" points="179,144.7 143.3,184.3 126.6,170 		"/>
	</g>
	<g class="st1">
		<path class="st7" d="M159.5,290.1h-46.6c-5.4,0-9.8-4.4-9.8-9.8v-46.6c0-5.4,4.4-9.8,9.8-9.8h46.6"/>
		<polyline class="st8" points="179,232.8 143.3,272.3 126.6,258 		"/>
	</g>
	<g class="st1">
		<path class="st7" d="M159.5,378.1h-46.6c-5.4,0-9.8-4.4-9.8-9.8v-46.6c0-5.4,4.4-9.8,9.8-9.8h46.6"/>
		<polyline class="st8" points="179,320.8 143.3,360.3 126.6,346.1 		"/>
	</g>
	<path class="st1" d="M273.1,156.4c20.8,0,41.6-0.1,62.4,0.1c2.4,0,5.6,0.4,7,1.9c1.8,2,3.3,5.6,2.7,7.9c-0.6,2.4-3.6,4.4-6,6
		c-1,0.7-3,0.3-4.5,0.3c-41.5,0-82.9,0-124.4,0c-0.8,0-1.7,0-2.5,0c-4.9-0.4-8.1-3.6-8.2-8c-0.1-4.6,3.3-8.1,8.5-8.2
		c9.1-0.2,18.3-0.1,27.4-0.1C248.1,156.4,260.6,156.4,273.1,156.4z"/>
	<path class="st1" d="M273.3,189c21.3,0,42.7,0,64,0c4.1,0,7.4,1.7,8.1,5.5c0.5,2.7-0.7,6.2-2.3,8.7c-0.8,1.4-3.8,2.1-5.8,2.1
		c-43,0.1-86,0.1-129,0.1c-5.5,0-8.7-3.3-8.6-8.4c0.1-4.8,3.3-7.8,8.6-7.9C229.9,188.9,251.6,189,273.3,189z"/>
	<path class="st1" d="M273.1,237.8c20.5,0,41,0,61.4,0c1.5,0,3.1-0.1,4.6,0.2c4.1,0.9,6.6,3.6,6.6,7.8c0.1,4.3-2.4,7-6.4,8
		c-1.4,0.4-3,0.2-4.5,0.2c-41.3,0-82.6,0-123.9,0c-0.3,0-0.7,0-1,0c-6.5-0.1-10.2-3-10.2-8c-0.1-5.1,3.6-8.2,10-8.2
		c7.1,0,14.2,0,21.3,0C245.1,237.8,259.1,237.8,273.1,237.8z"/>
	<path class="st1" d="M256.5,351.8c15.6,0,31.1,0,46.7,0c6.4,0,10.1,3,10.2,8.1c0,5.1-3.7,8.2-10.1,8.2c-31.1,0-62.3,0-93.4,0
		c-6.4,0-10.1-3-10.2-8.1c0-5.1,3.7-8.2,10.1-8.2C225.3,351.8,240.9,351.8,256.5,351.8z"/>
	<path class="st1" d="M244.3,286.7c-11.5,0-23,0-34.5,0c-6.4,0-10.1-3.1-10.1-8.1c0-5.1,3.7-8.1,10.1-8.1c23,0,46,0,69,0
		c6.4,0,10.1,3,10.1,8.1c0,5.1-3.7,8.1-10.1,8.1C267.3,286.7,255.8,286.7,244.3,286.7z"/>
	<path class="st1" d="M244.4,319.2c11.5,0,23,0,34.5,0c6.4,0,10.1,3.1,10.1,8.2c0,5.1-3.8,8.1-10.2,8.1c-23,0-46,0-69,0
		c-6.4,0-10.1-3.1-10.1-8.2c0-5.1,3.7-8.1,10.2-8.1C221.4,319.2,232.9,319.2,244.4,319.2z"/>
	<path class="st5" d="M329.4,67.2c0,10.7,0,21.2,0,31.9c-70.3,0-140.4,0-210.8,0c0-10.6,0-21.1,0-31.9
		C188.7,67.2,258.8,67.2,329.4,67.2z"/>
	<path class="st5" d="M137.9,188.8c-5.8,0-12.3,0-19.2,0c0-6.7,0-13.4,0-20C125.2,175.5,131.6,182.2,137.9,188.8z"/>
	<path class="st5" d="M142.2,168.9c-3.7-4.1-7.5-8.1-11.2-12.2c7.6,0,15.5,0,23,0C150.3,160.6,146.5,164.5,142.2,168.9z"/>
</g>
<g class="st0">
	<path class="st5" d="M8,454.7C8,305.4,8,156.2,8,7c165.3,0,330.7,0,496,0c0,165.3,0,330.7,0,496c-165.3,0-330.7,0-496,0
		c0-12.9,0-25.8,0-38.7c7.2,17,13.1,20.8,32,20.8c29.6,0,59.3,0,88.9,0c1.9,0,3.9,0,5.8-0.2c4.6-0.6,6.8-3.3,7.7-7.9
		c1-4.8,2-9.8,4.2-14.1c23.5-45.6,47.3-91.1,71.1-136.6c4.1-7.9,2.1-12-6.3-14.9c-5.3-1.8-10.6-4-15.3-6.9
		c-16.7-9.9-33.1-10.3-49.7,0c-14.6,9-30.3,11.1-46.9,7.7c-8-1.7-9.9-1-13.8,5.8c-16.7,29-33.5,58-50.1,87.1
		C26.3,421.5,17.2,438.1,8,454.7z M323.7,484.9c50.6,0,101.2-0.4,151.7,0.2c19.5,0.2,33.3-18.6,24.8-37.7
		c-24.9-56-49.3-112.2-73.9-168.3c-2.8-6.3-5-7.6-12-7c-14.2,1.3-27.4-1.7-39.8-8.8c-17.7-10.2-35.4-10.2-53.1,0.3
		c-14.3,8.5-29.8,10.8-46.1,7.8c-8.1-1.5-10-0.6-13.8,6.7c-20.7,39.7-41.3,79.3-62,119c-12.9,24.7-25.7,49.4-38.6,74
		c-2.1,4.1-3.2,8.3,0.7,11.4c2.1,1.7,5.6,2.4,8.4,2.4C221.3,484.9,272.5,484.9,323.7,484.9z M113.2,159.8
		c-0.4,19.9,17.6,32.3,34.2,25.2c6.3-2.7,12.5-6,18.4-9.5c3.8-2.3,6.9-2.1,10.6,0.1c4.8,2.9,9.9,5.3,14.9,7.9c9.3,5,18.6,5,27.3-1.2
		c9-6.4,11.5-15.5,9.7-26c-1-6.2-2.4-12.3-3.1-18.5c-0.2-2,0.7-4.7,2.1-6.2c4.7-5.1,9.9-9.7,14.7-14.7c7-7.2,9.2-15.7,6.1-25.3
		c-3.1-9.6-10-15.1-19.9-16.8c-6.8-1.2-13.7-1.8-20.5-3.1c-1.9-0.4-4.1-1.8-5-3.4c-3.2-5.6-5.9-11.4-8.6-17.2
		c-4.6-9.8-12.2-15.3-23.1-15.3c-10.7,0-18.2,5.5-22.8,15.1c-2.8,5.8-5.5,11.6-8.7,17.2c-0.9,1.6-3,3.3-4.9,3.6
		c-6.5,1.3-13,2.1-19.5,3c-10.3,1.4-17.7,6.8-21,16.8c-3.3,9.7-1,18.4,6.2,25.7c4.6,4.7,9.3,9.4,14.2,13.8c2.4,2.2,3.1,4.3,2.5,7.6
		C115.2,146.2,114.1,154,113.2,159.8z M399.4,255.5c10.3,0.2,14.1-5.5,11.2-12.1c-10.5-24.2-20.9-48.4-31.8-72.4
		c-5.7-12.5-16.2-19-29.9-19.3c-13.6-0.3-24.1,5.6-30.5,17.6c-13,24.4-25.7,49-38.5,73.6c-3.8,7.2,0.2,13.4,8.4,13.3
		c8.5-0.2,16.6-1.9,24-6.4c23.7-14.2,47.4-14,71.4-0.3C389.4,252.7,396.1,254.3,399.4,255.5z M171.4,204c-11.8,0.2-21.9,4.5-28,14.5
		c-13.2,21.9-25.8,44.2-38.5,66.4c-3.3,5.9,0.5,11.9,7.3,12.2c8.9,0.4,17.2-1.6,24.9-6.3c22.8-14,45.5-13.9,68.3,0.1
		c6.4,4,13.5,6.1,21,6.2c8.2,0.2,12.9-6.9,8.9-14.1c-11.6-21.2-23.2-42.3-35.3-63.2C193.8,209.2,183.7,204.2,171.4,204z M373.1,90.3
		c0,11.6,0,23.2,0,34.8c0,7.8,2.8,10.5,10.4,10.5c14.2,0,28.3,0,42.5,0c16.9-0.1,26.3-14.2,20.1-29.8c-7.5-18.6-7.5-11.4,0-30.1
		c6.2-15.4-3.1-29.6-19.7-29.8c-14.3-0.2-28.7-0.1-43,0c-7.4,0-10.3,2.9-10.3,10.2C373.1,67.4,373.1,78.8,373.1,90.3z M356.6,86.4
		c0-14,0.1-28,0-42c0-6.8-3.4-10.2-9.1-9.7c-5.1,0.5-7.4,3.6-7.4,10.5c0,25.4,0,50.8,0,76.2c0,2.6,0.1,5.2,0,7.7
		c-0.2,4.2,1.7,6.4,6,6c1.1-0.1,2.3-0.1,3.4,0c6.1,0.1,7.1-0.7,7.1-6.7C356.6,114.4,356.6,100.4,356.6,86.4z M59.9,126
		c0.2-0.3,0.3-0.6,0.5-0.9c3-0.3,6.1-0.6,9.1-1c5-0.7,7.9-4.2,7.5-8.9c-0.4-4.4-3.8-7.6-8.5-7.4c-4,0.1-8,0.4-12,1.1
		c-6.6,1.2-9.6,8.7-5.2,13.1C53.4,124.1,57,124.7,59.9,126z M281.1,125.1c0,0,0-0.1,0-0.1c0.6,0,1.3,0.1,1.9,0.1
		c5.5,0.1,9-2.7,9.3-7.5c0.3-4.8-2.8-8.3-8.1-8.9c-3.7-0.4-7.4-0.9-11-0.9c-4.7-0.1-8.1,3.2-8.4,7.6c-0.3,4.5,2.5,8,7.2,8.7
		C275.1,124.5,278.1,124.7,281.1,125.1z M251.5,187.5c-3.1,2.7-5.9,4.3-7.5,6.7c-2.1,3.2-1,6.8,1.8,9.1c3.4,2.7,7.2,4.9,11,6.8
		c3.5,1.7,7.2,0.6,8.9-2.5c1.3-2.5,2.2-7.3,0.8-8.7C262.4,194.7,257.1,191.6,251.5,187.5z M98.8,197.5c0-5.9-6.2-10-11.6-7.4
		c-3.6,1.7-7.1,3.9-10.2,6.5c-4.7,3.9-3.5,11,1.9,13.5C85,212.8,98.7,204.1,98.8,197.5z M92.9,50.2c2.3-1.7,5.5-2.9,6.4-5.1
		c1.1-2.4,0.9-6.1-0.3-8.4c-1.6-3.2-4.4-5.9-7.1-8.4c-3.1-3-7.9-2.9-10.9-0.2c-3.1,2.8-3.8,7.4-1.2,10.9c2.1,2.8,4.4,5.5,7,8
		C88.3,48.2,90.4,48.8,92.9,50.2z M255.1,26c-0.5,0.1-1.9-0.1-2.4,0.5c-3.9,4.3-8.2,8.4-11.1,13.3c-0.9,1.5,1.5,6,3.5,8
		c2.6,2.6,6.5,2.2,9.2-0.3c3-2.8,6-6,8.1-9.4C265.7,32.7,261.7,26,255.1,26z"/>
	<path class="st1" d="M8,454.7c9.2-16.6,18.3-33.2,27.6-49.6C52.2,375.9,69,347,85.8,318c3.9-6.8,5.8-7.5,13.8-5.8
		c16.6,3.5,32.3,1.4,46.9-7.7c16.5-10.2,33-9.9,49.7,0c4.8,2.9,10.1,5.1,15.3,6.9c8.4,2.9,10.4,7,6.3,14.9
		c-23.7,45.5-47.5,91-71.1,136.6c-2.2,4.3-3.3,9.3-4.2,14.1c-0.9,4.6-3.1,7.3-7.7,7.9c-1.9,0.2-3.9,0.2-5.8,0.2
		c-29.6,0-59.3,0-88.9,0c-19,0-24.9-3.8-32-20.8C8,461.1,8,457.9,8,454.7z"/>
	<path class="st1" d="M323.7,484.9c-51.2,0-102.4,0-153.7-0.1c-2.9,0-6.3-0.7-8.4-2.4c-3.9-3.1-2.9-7.3-0.7-11.4
		c12.9-24.6,25.8-49.3,38.6-74c20.7-39.7,41.3-79.3,62-119c3.8-7.4,5.8-8.2,13.8-6.7c16.3,3,31.7,0.7,46.1-7.8
		c17.7-10.5,35.4-10.4,53.1-0.3c12.4,7.1,25.6,10.1,39.8,8.8c7.1-0.6,9.3,0.7,12,7c24.6,56.1,49,112.3,73.9,168.3
		c8.5,19.1-5.3,37.9-24.8,37.7C424.8,484.4,374.3,484.9,323.7,484.9z"/>
	<path class="st1" d="M144.1,174.5c0.5-2.7,1-6.3,1.7-9.9c0.3-1.5,0-2.5-1.1-3.5c-2.3-2.1-4.4-4.2-6.6-6.4
		c-3.3-3.4-4.4-7.4-2.9-11.9c1.6-4.6,5-7.1,9.7-7.8c3-0.4,6.1-0.8,9.1-1.4c0.8-0.2,1.8-0.9,2.3-1.7c1.5-2.6,2.7-5.3,4-8
		c2.1-4.4,5.6-7,10.6-7c5.1,0,8.6,2.6,10.7,7.1c1.3,2.7,2.5,5.4,4,8c0.4,0.7,1.5,1.4,2.3,1.6c3.1,0.6,6.3,0.9,9.5,1.5
		c4.6,0.8,7.8,3.3,9.2,7.8c1.4,4.4,0.4,8.4-2.8,11.7c-2.2,2.3-4.7,4.4-6.8,6.8c-0.6,0.7-1.1,1.9-1,2.9c0.3,2.9,1,5.7,1.4,8.6
		c0.8,4.9-0.3,9.1-4.5,12.1c-4,2.9-8.3,2.9-12.7,0.5c-2.3-1.2-4.7-2.3-6.9-3.7c-1.7-1-3.1-1.1-4.9,0c-2.7,1.6-5.6,3.2-8.5,4.4
		C152.3,189.4,143.9,183.7,144.1,174.5z"/>
	<path class="st1" d="M399.4,255.5c-3.3-1.3-10-2.9-15.8-6.2c-24-13.7-47.6-13.8-71.4,0.3c-7.4,4.4-15.5,6.2-24,6.4
		c-8.2,0.2-12.2-6-8.4-13.3c12.7-24.6,25.4-49.2,38.5-73.6c6.4-12,17-17.9,30.5-17.6c13.8,0.3,24.2,6.8,29.9,19.3
		c10.9,24,21.3,48.2,31.8,72.4C413.6,250.1,409.7,255.8,399.4,255.5z"/>
	<path class="st1" d="M171.4,204c12.3,0.3,22.4,5.2,28.6,15.9c12.1,20.9,23.7,42,35.3,63.2c4,7.2-0.7,14.2-8.9,14.1
		c-7.6-0.1-14.6-2.2-21-6.2c-22.7-14-45.5-14.1-68.3-0.1c-7.6,4.7-16,6.7-24.9,6.3c-6.8-0.3-10.6-6.4-7.3-12.2
		c12.6-22.2,25.3-44.5,38.5-66.4C149.5,208.4,159.6,204.2,171.4,204z"/>
	<path class="st6" d="M362.1,89.3c0-11.4-0.1-22.9,0-34.3c0-7.3,2.9-10.2,10.3-10.2c14.3,0,28.7-0.1,43,0
		c16.6,0.2,25.9,14.4,19.7,29.8c-7.5,18.7-7.5,11.5,0,30.1c6.3,15.6-3.2,29.8-20.1,29.8c-14.2,0-28.3,0-42.5,0
		c-7.7,0-10.4-2.7-10.4-10.5C362.1,112.4,362.1,100.9,362.1,89.3z"/>
	<path class="st6" d="M356.6,86.4c0,14,0,28,0,42c0,6-1,6.9-7.1,6.7c-1.1,0-2.3,0-3.4,0c-4.4,0.4-6.2-1.8-6-6c0.1-2.6,0-5.1,0-7.7
		c0-25.4,0-50.8,0-76.2c0-6.9,2.3-10,7.4-10.5c5.7-0.5,9.1,2.9,9.1,9.7C356.7,58.4,356.6,72.4,356.6,86.4z"/>
	<path d="M59.9,126c-2.9-1.3-6.5-1.9-8.6-4c-4.5-4.5-1.4-12,5.2-13.1c3.9-0.7,8-1,12-1.1c4.7-0.1,8.1,3.1,8.5,7.4
		c0.4,4.7-2.5,8.2-7.5,8.9c-3,0.4-6.1,0.7-9.1,1C60.2,125.4,60,125.7,59.9,126z"/>
	<path d="M281.1,125.1c-3-0.3-6.1-0.6-9.1-1c-4.7-0.7-7.5-4.2-7.2-8.7c0.3-4.4,3.7-7.7,8.4-7.6c3.7,0.1,7.4,0.5,11,0.9
		c5.3,0.6,8.4,4.1,8.1,8.9c-0.3,4.8-3.8,7.6-9.3,7.5c-0.6,0-1.3-0.1-1.9-0.1C281.1,125,281.1,125,281.1,125.1z"/>
	<path d="M251.5,187.5c5.6,4.1,10.9,7.2,15,11.4c1.4,1.4,0.5,6.2-0.8,8.7c-1.7,3.1-5.4,4.3-8.9,2.5c-3.9-1.9-7.6-4.2-11-6.8
		c-2.9-2.3-4-5.9-1.8-9.1C245.6,191.8,248.4,190.2,251.5,187.5z"/>
	<path d="M98.8,197.5c0,6.6-13.8,15.3-19.8,12.6c-5.5-2.5-6.7-9.7-1.9-13.5c3.1-2.5,6.6-4.7,10.2-6.5
		C92.6,187.4,98.8,191.6,98.8,197.5z"/>
	<path d="M92.9,50.2c-2.5-1.3-4.6-2-6.1-3.3c-2.6-2.4-4.9-5.1-7-8c-2.6-3.5-1.9-8.1,1.2-10.9c3.1-2.7,7.8-2.8,10.9,0.2
		c2.6,2.6,5.5,5.2,7.1,8.4c1.2,2.4,1.3,6.1,0.3,8.4C98.4,47.2,95.2,48.5,92.9,50.2z"/>
	<path d="M255.1,26c6.6,0.1,10.7,6.8,7.3,12c-2.2,3.5-5.1,6.6-8.1,9.4c-2.7,2.6-6.6,2.9-9.2,0.3c-2-2-4.4-6.5-3.5-8
		c2.9-4.9,7.2-9,11.1-13.3C253.2,25.9,254.5,26.1,255.1,26z"/>
</g>
<g>
	<path d="M374.1,245.8c16.7-3.8,31,5,32.8,24.1c4.4,0,9.1-0.7,13.3,0.1c10.7,2.2,18.4,11.5,18.5,22.4c0.2,33.9,0.1,67.8,0.1,101.7
		c0,1.3-0.4,2.6-0.7,3.9c-0.1,0.3-0.2,0.6-0.3,1c-5.1,15.1-12.1,29.9-14.6,45.4c-2.5,15.4-0.5,31.6-0.6,47.5c0,2.3,0,4.8-0.8,6.9
		c-1.3,3.8-4.6,5-8.5,5c-39.6,0-79.2,0-118.9,0c-6.5,0-9.4-3.1-9.4-9.8c0-18,0-36.1,0-55c-2.1,0-4,0-5.9,0c-34.9,0-69.8,0-104.7,0
		c-26,0-43.1-17.1-43.1-43c0-48.2,0-96.4,0-144.7c0-2,0-4,0-6.4c-26.1-1-47.6-11-63.7-31.4c-12.4-15.7-18-33.8-17.1-53.7
		c1.7-38.2,32-75.6,80.9-77.4c0-7.2,0-14.4,0-21.6c0.1-25.6,17.2-42.7,42.9-42.8c52.4,0,104.9,0,157.3,0c25.3,0,42.6,17.2,42.6,42.5
		c0,59.7,0,119.4,0,179C374.1,241.7,374.1,243.7,374.1,245.8z M406.5,487.4c0-3.7,0.3-6.9,0-10.1c-2.5-26.8,2.2-52.2,13.5-76.5
		c0.5-1.1,1-2.2,1.2-3.3c0.6-2.8,1.4-5.6,1.5-8.3c0.1-28,0.1-56,0.1-84c0-3.9,0.1-7.8,0-11.6c-0.2-4.9-3.4-8.2-7.8-8.3
		c-4.6-0.1-8,3.3-8.3,8.3c-0.1,1.5,0,3,0,4.6c0,14.3,0.1,28.7,0,43c0,5.2-3.3,8.7-7.8,8.8c-4.7,0.1-8.1-3.4-8.3-8.9
		c-0.1-1.5,0-3,0-4.6c0-22.1,0-44.2,0-66.3c0-5.6-3.1-9.2-7.9-9.3c-4.9-0.1-8.2,3.5-8.3,9.4c-0.1,11.8,0,23.6,0,35.4
		c0,6.6,0.1,13.2-0.1,19.7c-0.1,4.9-3.5,8.2-7.8,8.3c-4.6,0.1-8-3.3-8.3-8.4c-0.1-1.3,0-2.7,0-4c0-19.7,0-39.5,0-59.2
		c0-5.6-3.1-9.1-7.9-9.3c-4.9-0.1-8.2,3.5-8.3,9.4c-0.1,9.1,0,18.2,0,27.3c0,8.3,0.1,16.5-0.1,24.8c-0.1,4.9-3.4,8.2-7.8,8.3
		c-4.6,0.1-8-3.2-8.3-8.3c-0.1-1.3,0-2.7,0-4c0-34.1,0-68.1,0-102.2c0-1.5,0.1-3.1-0.1-4.5c-0.5-4.4-4-7.6-8.2-7.3
		c-4.5,0.3-7.1,2.8-7.8,7.2c-0.2,1.5-0.1,3-0.1,4.5c0,31,0,62,0,93.1c0,13.5,0.1,27-0.1,40.5c-0.1,5.1-3.7,8.5-8.2,8.4
		c-4.4-0.1-7.7-3.4-7.8-8.3c-0.2-4.7-0.1-9.4-0.1-14.2c0-3.9,0-7.9,0-12.5c-9.8,4.2-14.1,11.6-15,20.4c-1.1,11.7-0.3,23.6-1.4,35.3
		c-1.4,15.1,1.7,28.6,10.9,40.7c11.4,15,15.7,31.8,13.6,50.6c-0.9,8.3-0.2,16.7-0.2,25.3C336.5,487.4,371.2,487.4,406.5,487.4z
		 M196,164c0-35.7-29-64.9-64.5-64.9c-36,0-65,28.9-65,64.8c0,35.6,29,64.6,64.7,64.7C166.7,228.7,196,199.5,196,164z M293.8,196.3
		c-7.8,0-15.6,0-23.3,0c-6.7-0.1-9.7-2.9-9.7-9.5c-0.1-9.8-0.1-19.6,0-29.3c0-6.9,3-9.7,10-9.7c9.4,0,18.9,0,28.3,0
		c7.5,0,10.2,2.8,10.2,10.5c0,7.6,0,15.1,0,22.3c5.6,0,10.7,0,15.9,0c0-16.1,0-32.4,0-48.8c-39.8,0-79.4,0-119.3,0
		c1.7,5.4,3.2,10.5,5,16c8,0,16.1-0.1,24.1,0c6.6,0.1,9.5,3,9.6,9.6c0.1,9.8,0.1,19.6,0,29.3c0,6.6-3,9.5-9.6,9.6
		c-8.6,0.1-17.2,0.1-25.8,0c-2.7-0.1-4.1,0.8-5.3,3.3c-4.9,10.3-11.9,19.2-20.8,26.4c-2.5,2.1-3.3,4.2-3.2,7.3
		c0.1,29.2,0.1,58.3,0.1,87.5c0,1.6,0.1,3.2,0.2,4.8c13.6,0,26.7,0,40.2,0c0-1.9,0-3.5,0-5.2c0-11.3-0.1-22.6,0-33.9
		c0-6.1,3-9.2,8.9-9.2c15.7-0.1,31.4-0.1,47,0c5.6,0,8.6,3.2,8.7,8.9c0.1,4.7,0,9.4,0,14.6c3-0.9,5.5-1.7,7.7-2.4
		c0-12.7,0-24.9,0-37.3c-7.6,0-14.9,0-22.1,0c-6.9-0.1-9.8-2.9-9.8-9.9c-0.1-9.4,0-18.9,0-28.3c0-7.6,2.8-10.3,10.4-10.3
		c7.2,0,14.4,0,21.7,0C293.2,206.9,293.5,201.9,293.8,196.3z M147.6,84.5c19,4.4,34.5,13.8,46.8,28.6c1.2,1.4,4,2.1,6.1,2.1
		c43.2,0.1,86.3,0.1,129.5,0.1c9.3,0,11.7,2.3,11.7,11.6c0,35.1,0,70.1,0,105.2c0,1.8,0,3.6,0,5.1c5.6,0,10.7,0,15.9,0
		c0-56.6,0-113.3,0-170.1c-70.2,0-140,0-210,0C147.6,73,147.6,78.5,147.6,84.5z M147.6,390.1c38,0,75.4,0,112.9,0
		c0-16.1,0-31.9,0-48.2c-2,0-3.8,0-5.7,0c-26.8,0-53.6,0-80.4,0c-8.2,0-10.8-2.6-10.8-10.9c0-29,0-58,0-87c0-1.8-0.2-3.5-0.2-5.5
		c-5.6,1.8-10.7,3.4-15.8,5C147.6,292.4,147.6,341.1,147.6,390.1z M356.1,50.3c-0.4-1.2-0.6-2.2-1.1-3c-5-8.9-12.8-13-22.9-13
		c-45.3,0-90.7,0-136,0c-8.3,0-16.5-0.1-24.8,0.1c-10.4,0.2-19.4,6.9-21.7,15.9C218.4,50.3,287,50.3,356.1,50.3z M275.5,422.8
		c-2.5-4.5-4.8-8.2-6.7-12.1c-1.5-3.1-3.5-4.2-7-4.1c-35.9,0.1-71.8,0.1-107.6,0.1c-1.5,0-2.9,0.1-4.4,0.2
		c2.2,8.9,11.1,15.8,21.2,15.9C205.4,422.9,239.9,422.8,275.5,422.8z M236.8,325.4c9.2,0,18.1,0,26.3,0c8-10,5.5-21,5.7-31.6
		c-11.1,0-21.6,0-32,0C236.8,304.5,236.8,314.9,236.8,325.4z M212.6,164.1c0,5.5,0,10.6,0,15.6c5.5,0,10.6,0,15.5,0
		c0-5.4,0-10.4,0-15.6C222.9,164.1,217.9,164.1,212.6,164.1z M277.4,164c0,5.2,0,10.5,0,15.7c5.3,0,10.4,0,15.4,0
		c0-5.4,0-10.5,0-15.7C287.5,164,282.7,164,277.4,164z M292.9,228.9c-5.6,0-10.6,0-15.6,0c0,5.4,0,10.5,0,15.5c5.4,0,10.5,0,15.6,0
		C292.9,239.1,292.9,234.1,292.9,228.9z"/>
	<path class="st2" d="M406.5,487.4c-35.3,0-70,0-105.2,0c0-8.6-0.8-17,0.2-25.3c2.1-18.8-2.3-35.6-13.6-50.6
		c-9.2-12.1-12.3-25.6-10.9-40.7c1.1-11.7,0.2-23.6,1.4-35.3c0.9-8.8,5.1-16.3,15-20.4c0,4.6,0,8.5,0,12.5c0,4.7-0.1,9.4,0.1,14.2
		c0.2,4.8,3.5,8.1,7.8,8.3c4.6,0.1,8.2-3.3,8.2-8.4c0.1-13.5,0.1-27,0.1-40.5c0-31,0-62,0-93.1c0-1.5-0.1-3.1,0.1-4.5
		c0.7-4.4,3.3-6.9,7.8-7.2c4.2-0.3,7.7,2.9,8.2,7.3c0.2,1.5,0.1,3,0.1,4.5c0,34.1,0,68.1,0,102.2c0,1.3-0.1,2.7,0,4
		c0.3,5.1,3.7,8.4,8.3,8.3c4.4-0.1,7.7-3.4,7.8-8.3c0.2-8.3,0.1-16.5,0.1-24.8c0-9.1-0.1-18.2,0-27.3c0-5.9,3.3-9.5,8.3-9.4
		c4.7,0.1,7.8,3.6,7.9,9.3c0.1,19.7,0,39.5,0,59.2c0,1.3-0.1,2.7,0,4c0.3,5.1,3.7,8.5,8.3,8.4c4.4-0.1,7.7-3.4,7.8-8.3
		c0.2-6.6,0.1-13.1,0.1-19.7c0-11.8,0-23.6,0-35.4c0-5.9,3.4-9.5,8.3-9.4c4.7,0.1,7.8,3.6,7.9,9.3c0.1,22.1,0,44.2,0,66.3
		c0,1.5,0,3,0,4.6c0.2,5.4,3.5,9,8.3,8.9c4.6-0.1,7.8-3.6,7.8-8.8c0.1-14.3,0-28.7,0-43c0-1.5-0.1-3,0-4.6c0.3-5.1,3.7-8.5,8.3-8.3
		c4.4,0.1,7.6,3.4,7.8,8.3c0.2,3.9,0,7.8,0,11.6c0,28,0,56-0.1,84c0,2.8-0.9,5.6-1.5,8.3c-0.2,1.1-0.7,2.2-1.2,3.3
		c-11.3,24.3-16,49.8-13.5,76.5C406.7,480.5,406.5,483.7,406.5,487.4z"/>
	<path class="st3" d="M196,164c0,35.5-29.3,64.7-64.8,64.6c-35.7-0.1-64.7-29.1-64.7-64.7c0-35.9,29-64.8,65-64.8
		C167.1,99.2,196,128.3,196,164z M115.7,176.3c-0.9-0.3-1.1-0.4-1.2-0.5c-2.9-2.8-5.8-5.7-8.7-8.5c-4.4-4.2-8.9-4.6-12.5-1.1
		c-3.5,3.5-3.3,8.2,0.9,12.5c4.3,4.5,8.8,8.8,13.2,13.2c5.9,5.9,9.5,5.9,15.4,0c14.9-14.9,29.8-29.8,44.7-44.7
		c0.8-0.8,1.7-1.6,2.4-2.6c2.7-3.6,2.6-7.2-0.4-10.6c-2.8-3.2-7.3-3.4-10.9-0.6c-1.2,0.9-2.2,2.1-3.3,3.1
		C142,149.8,128.9,163.1,115.7,176.3z"/>
	<path class="st0" d="M115.7,176.3c13.2-13.2,26.4-26.5,39.6-39.7c1.1-1.1,2.1-2.2,3.3-3.1c3.6-2.8,8.1-2.6,10.9,0.6
		c3,3.3,3.1,7,0.4,10.6c-0.7,0.9-1.6,1.8-2.4,2.6c-14.9,14.9-29.8,29.8-44.7,44.7c-5.9,5.9-9.5,5.9-15.4,0
		c-4.4-4.4-8.9-8.8-13.2-13.2c-4.2-4.3-4.4-9-0.9-12.5c3.5-3.4,8.1-3,12.5,1.1c2.9,2.8,5.8,5.6,8.7,8.5
		C114.6,175.9,114.7,176,115.7,176.3z"/>
	<path d="M196,236.3c0-4.9-0.1-9.8,0-14.7c0.1-6,3.1-9.1,9-9.2c10.1-0.1,20.2-0.1,30.3,0c6,0.1,9.1,3.1,9.2,9
		c0.1,10.1,0.1,20.2,0,30.3c-0.1,6-3.1,9.1-9,9.2c-10.1,0.1-20.2,0.1-30.3,0c-6-0.1-9-3.1-9.2-9C196,246.8,196,241.5,196,236.3z
		 M212.6,228.8c0,5.6,0,10.7,0,15.7c5.4,0,10.3,0,15.5,0c0-5.3,0-10.4,0-15.7C222.9,228.8,217.9,228.8,212.6,228.8z"/>
	<path d="M284.6,99.1c-15.3,0-30.7,0-46,0c-6.4,0-10.1-3-10.1-8.1c0-5.1,3.7-8.1,10.1-8.1c31,0,62,0,93.1,0c6.4,0,10.1,3,10.1,8.1
		c0,5-3.7,8.1-10.1,8.1C315.9,99.2,300.2,99.1,284.6,99.1z"/>
	<path d="M212.2,90.9c0.1,4.4-3.5,8.1-7.9,8.2c-4.4,0.1-8.1-3.5-8.2-7.9c-0.1-4.4,3.5-8.1,7.9-8.2C208.3,82.9,212.1,86.5,212.2,90.9
		z"/>
	<path d="M187.9,374.3c-5.2,0-10.5,0.1-15.7,0c-5.2-0.1-8.5-3.5-8.5-8.1c0-4.6,3.4-7.9,8.6-8c10.4-0.1,20.9-0.1,31.4,0
		c5.2,0.1,8.6,3.5,8.5,8.1c0,4.6-3.4,7.9-8.6,8C198.4,374.4,193.1,374.3,187.9,374.3z"/>
</g>
</svg>
