<svg width="24" height="25" viewBox="0 0 24 25" fill="none" xmlns="http://www.w3.org/2000/svg">
<g clip-path="url(#clip0_4781_13997)">
<path d="M18.7887 19.8627C22.3917 16.1029 22.2646 10.1342 18.5048 6.53122C14.745 2.92822 8.77635 3.05534 5.17336 6.81509C1.67839 10.4622 1.67839 16.2156 5.17336 19.8627L2.72353 23.1285C2.4395 23.5073 2.51625 24.0445 2.89494 24.3286C3.27364 24.6126 3.81095 24.5359 4.09497 24.1572L6.46936 20.9908C9.75408 23.384 14.2079 23.384 17.4926 20.9908L19.867 24.1572C20.151 24.5359 20.6883 24.6126 21.067 24.3286C21.4458 24.0445 21.5225 23.5072 21.2384 23.1285L18.7887 19.8627ZM12.8383 13.3568C12.8382 13.5422 12.7781 13.7227 12.6668 13.8711L10.0953 17.2998C9.81129 17.6785 9.27398 17.7553 8.89528 17.4712C8.51659 17.1871 8.43979 16.6499 8.72387 16.2712L11.124 13.0713V8.21371C11.124 7.74028 11.5077 7.35651 11.9812 7.35651C12.4546 7.35651 12.8384 7.74028 12.8384 8.21371V13.3568H12.8383ZM7.29657 1.75486C5.60187 0.102355 2.88847 0.136559 1.23591 1.83125C-0.387063 3.49566 -0.387264 6.15046 1.23551 7.81512C1.57026 8.14977 2.11284 8.14977 2.44754 7.81512L7.29657 2.96694C7.63122 2.63219 7.63122 2.08961 7.29657 1.75486ZM22.7257 1.75486C21.0521 0.081713 18.3391 0.081713 16.6655 1.75486C16.3309 2.08961 16.3309 2.63219 16.6655 2.96689L21.5137 7.81507C21.8484 8.14972 22.391 8.14972 22.7257 7.81507C24.3989 6.14147 24.3989 3.42851 22.7257 1.75486Z" fill="#0B0B0B"/>
</g>
<defs>
<clipPath id="clip0_4781_13997">
<rect width="24" height="24" fill="white" transform="translate(0 0.5)"/>
</clipPath>
</defs>
</svg>
