<svg width="24" height="24" viewBox="0 0 24 24" fill="none" xmlns="http://www.w3.org/2000/svg">
<g clip-path="url(#clip0_4781_13951)">
<path d="M21.1406 22.5965V16.409H22.5938V15.0027H1.40625V16.409H2.85938V22.5965H0V24.0027H24V22.5965H21.1406ZM5.67188 22.5965H4.26562V16.409H5.67188V22.5965ZM8.48438 22.5965H7.07812V16.409H8.48438V22.5965ZM11.2969 22.5965H9.89062V16.409H11.2969V22.5965ZM14.1094 22.5965H12.7031V16.409H14.1094V22.5965ZM16.9219 22.5965H15.5156V16.409H16.9219V22.5965ZM19.7344 22.5965H18.3281V16.409H19.7344V22.5965ZM8.30095 3.64062H11.2969V13.5965H8.30095V3.64062ZM12.7031 3.64062H15.699V13.5965H12.7031V3.64062Z" fill="#0B0B0B"/>
<path d="M6.89476 2.23167H17.1054V13.5938H19.337V0H4.66309V13.5938H6.89476V2.23167Z" fill="#0B0B0B"/>
</g>
<defs>
<clipPath id="clip0_4781_13951">
<rect width="24" height="24" fill="white"/>
</clipPath>
</defs>
</svg>
