<svg width="24" height="24" viewBox="0 0 24 24" fill="none" xmlns="http://www.w3.org/2000/svg">
<g clip-path="url(#clip0_4781_13970)">
<path d="M4.23926 8.82582C4.59893 12.7915 7.94223 15.9087 11.9999 15.9087C16.0577 15.9087 19.401 12.7915 19.7606 8.82582H4.23926ZM17.3697 23.1565L16.0713 16.3783C15.6387 16.5926 15.1898 16.7724 14.7288 16.9159L15.0937 18.8207H8.90574L9.27047 16.9157C8.80948 16.7722 8.36056 16.5924 7.92793 16.3781L6.6302 23.1566C6.55647 23.5416 6.80884 23.9135 7.19392 23.9872C7.23901 23.9959 7.28387 24.0001 7.32817 24.0001C7.66192 24.0001 7.95948 23.7635 8.02459 23.4235L8.63396 20.2404H15.3657L15.9754 23.4236C16.0406 23.7636 16.338 24.0001 16.6718 24.0001C16.7161 24.0001 16.7611 23.9959 16.8062 23.9872C17.1911 23.9135 17.4435 23.5416 17.3697 23.1565ZM9.27488 3.66561C9.44138 3.49442 9.84389 3.02497 9.98592 2.36455C10.1032 1.81916 10.0732 1.00166 9.26433 0.204322C8.98519 -0.0708798 8.53571 -0.0676923 8.26051 0.211541C7.98531 0.49068 7.98854 0.940163 8.26773 1.21537C8.64722 1.58947 8.63794 1.88 8.59796 2.0661C8.5298 2.38288 8.30209 2.62948 8.25713 2.6757C8.09063 2.84694 7.68812 3.31634 7.54613 3.97676C7.42885 4.52215 7.45885 5.33969 8.26768 6.13699C8.40037 6.2681 8.57946 6.34152 8.76601 6.34127C8.94938 6.34127 9.13266 6.27067 9.2715 6.12977C9.54675 5.85058 9.54347 5.40115 9.26433 5.1259C8.88479 4.75179 8.89411 4.46126 8.9341 4.27517C9.00225 3.95848 9.22993 3.71187 9.27488 3.66561ZM12.5088 3.66561C12.6753 3.49442 13.0778 3.02497 13.2198 2.36455C13.3371 1.81916 13.3071 1.00166 12.4982 0.204322C12.2191 -0.0708798 11.7696 -0.0676923 11.4944 0.211541C11.2192 0.49068 11.2224 0.940163 11.5016 1.21537C11.8812 1.58947 11.8719 1.88 11.8319 2.0661C11.7637 2.38288 11.536 2.62948 11.4911 2.6757C11.3246 2.84694 10.9221 3.31634 10.7801 3.97676C10.6628 4.52215 10.6928 5.33969 11.5016 6.13699C11.6343 6.2681 11.8134 6.34152 11.9999 6.34127C12.094 6.3414 12.1872 6.32276 12.274 6.28645C12.3608 6.25013 12.4394 6.19686 12.5054 6.12977C12.7806 5.85058 12.7774 5.40115 12.4982 5.1259C12.1187 4.75179 12.128 4.46126 12.168 4.27517C12.2361 3.95848 12.4638 3.71187 12.5088 3.66561ZM15.7427 3.66561C15.9092 3.49442 16.3117 3.02497 16.4538 2.36455C16.571 1.81916 16.541 1.00166 15.7322 0.204322C15.4531 -0.0708798 15.0035 -0.0676923 14.7283 0.211541C14.4531 0.49068 14.4564 0.940163 14.7356 1.21537C15.1151 1.58947 15.1058 1.88 15.0658 2.0661C14.9976 2.38288 14.7699 2.62948 14.725 2.6757C14.5585 2.84694 14.156 3.31634 14.014 3.97676C13.8967 4.52215 13.9267 5.33969 14.7355 6.13699C14.8682 6.2681 15.0473 6.34152 15.2338 6.34127C15.4172 6.34127 15.6005 6.27067 15.7393 6.12977C16.0146 5.85058 16.0113 5.40115 15.7321 5.1259C15.3526 4.75179 15.3619 4.46126 15.4019 4.27517C15.4701 3.95848 15.6978 3.71187 15.7427 3.66561Z" fill="#0B0B0B"/>
</g>
<defs>
<clipPath id="clip0_4781_13970">
<rect width="24" height="24" fill="white"/>
</clipPath>
</defs>
</svg>
