<svg width="24" height="24" viewBox="0 0 24 24" fill="none" xmlns="http://www.w3.org/2000/svg">
<path fill-rule="evenodd" clip-rule="evenodd" d="M5.63974 3.38924C5.44761 3.43632 5.27472 3.54159 5.14468 3.69065C5.01465 3.83971 4.93383 4.0253 4.91326 4.22203L3.1159 21.4368C3.10608 21.5308 3.07784 21.622 3.03278 21.7051C2.98771 21.7883 2.92672 21.8617 2.85328 21.9213C2.77983 21.9808 2.69538 22.0253 2.60473 22.0522C2.51409 22.0792 2.41903 22.088 2.32498 22.0782C2.23093 22.0683 2.13974 22.0401 2.05661 21.995C1.97348 21.95 1.90003 21.889 1.84047 21.8155C1.78091 21.7421 1.7364 21.6576 1.70948 21.567C1.68256 21.4763 1.67376 21.3813 1.68358 21.2872L3.48118 4.07275C3.54276 3.48265 3.82074 2.93628 4.26147 2.53907C4.7022 2.14187 5.27443 1.92199 5.86774 1.92188H17.9198C18.5081 1.92191 19.076 2.13804 19.5154 2.52922C19.9549 2.92039 20.2353 3.45935 20.3035 4.04371L22.3147 21.2784C22.3257 21.3723 22.318 21.4674 22.2922 21.5584C22.2664 21.6494 22.2229 21.7344 22.1643 21.8085C22.0458 21.9583 21.8727 22.0549 21.683 22.0771C21.5891 22.088 21.4939 22.0804 21.403 22.0546C21.312 22.0288 21.227 21.9853 21.1528 21.9267C21.003 21.8082 20.9064 21.6351 20.8843 21.4454L18.8731 4.21051C18.8498 4.01107 18.7646 3.82395 18.6294 3.67546C18.4942 3.52698 18.3159 3.42461 18.1195 3.38275V15.4893C18.3515 15.5185 18.565 15.6314 18.7197 15.8068C18.8744 15.9822 18.9598 16.208 18.9597 16.4419V16.6819C18.9597 16.9365 18.8586 17.1807 18.6786 17.3607C18.4985 17.5407 18.2543 17.6419 17.9997 17.6419H13.1997C12.9451 17.6419 12.701 17.5407 12.5209 17.3607C12.3409 17.1807 12.2397 16.9365 12.2397 16.6819V16.4419C12.2397 16.208 12.325 15.9821 12.4796 15.8067C12.6343 15.6313 12.8477 15.5183 13.0797 15.4891V3.36187H10.6797V15.4891C10.9118 15.5183 11.1252 15.6313 11.2798 15.8067C11.4345 15.9821 11.5198 16.208 11.5197 16.4419V16.6819C11.5197 16.9365 11.4186 17.1807 11.2386 17.3607C11.0585 17.5407 10.8143 17.6419 10.5597 17.6419H5.75974C5.50513 17.6419 5.26095 17.5407 5.08092 17.3607C4.90088 17.1807 4.79974 16.9365 4.79974 16.6819V16.4419C4.79966 16.208 4.88496 15.9821 5.03963 15.8067C5.1943 15.6313 5.40769 15.5183 5.63974 15.4891V3.38924ZM9.95974 3.36187H6.35974V15.4819H9.95974V3.36187ZM13.7997 3.36187V15.4819H17.3997V3.36187H13.7997Z" fill="#0B0B0B"/>
</svg>
