<svg width="24" height="24" viewBox="0 0 24 24" fill="none" xmlns="http://www.w3.org/2000/svg">
<path d="M19.7345 4.21875C20.8977 4.21875 21.8439 3.27253 21.8439 2.10938C21.8439 0.946219 20.8977 0 19.7345 0H5.67204C5.28373 0 4.96891 0.314812 4.96891 0.703125V4.21875H19.7345ZM21.1408 19.7812H9.18766V5.71875H4.6602L2.1633 23.1973C2.13448 23.3992 2.1949 23.6038 2.32812 23.7576C2.46134 23.9114 2.65629 24 2.85954 24H21.1408C21.5294 24 21.8439 23.6855 21.8439 23.2969V20.4844C21.8439 20.0957 21.5294 19.7812 21.1408 19.7812ZM5.67204 21.1875C5.28373 21.1875 4.96891 20.8727 4.96891 20.4844C4.96891 20.096 5.28373 19.7812 5.67204 19.7812C6.06035 19.7812 6.37516 20.096 6.37516 20.4844C6.37516 20.8727 6.06035 21.1875 5.67204 21.1875Z" fill="#0B0B0B"/>
<path d="M19.7344 12.75H19.0313V12.0469C19.0313 11.6582 18.7168 11.3438 18.3281 11.3438H15.5156V9.9375H14.1094V11.3438H11.2969C10.9082 11.3438 10.5938 11.6582 10.5938 12.0469V15.5625C10.5938 16.6469 11.0164 17.6269 11.691 18.375H17.934C18.3 17.9691 18.5825 17.4908 18.7729 16.9688H19.7344C20.8975 16.9688 21.8438 16.0225 21.8438 14.8594C21.8438 13.6962 20.8975 12.75 19.7344 12.75ZM19.7344 15.5625H19.0313V14.1562H19.7344C20.1217 14.1562 20.4375 14.4714 20.4375 14.8594C20.4375 15.2473 20.1217 15.5625 19.7344 15.5625ZM13.4063 8.53125H16.2188C16.3663 8.53113 16.5101 8.48467 16.6299 8.39843C16.7496 8.31219 16.8393 8.19052 16.8862 8.05059L17.6634 5.71875H11.9616L12.7388 8.05059C12.7857 8.19052 12.8754 8.31218 12.9951 8.39842C13.1149 8.48466 13.2587 8.53112 13.4063 8.53125Z" fill="#0B0B0B"/>
</svg>
