<svg width="24" height="24" viewBox="0 0 24 24" fill="none" xmlns="http://www.w3.org/2000/svg">
<g clip-path="url(#clip0_4781_13944)">
<path d="M19.8571 0H4.14371C2.97652 0 2.02637 0.949687 2.02637 2.11734V2.17078C4.97574 3.83531 8.37887 4.78547 12.0004 4.78547C15.622 4.78547 19.0251 3.83531 21.9745 2.17078V2.11734C21.9745 0.949687 21.0243 0 19.8571 0ZM9.18793 2.97891C8.7998 2.97891 8.4848 2.66391 8.4848 2.27578C8.4848 1.88719 8.7998 1.57266 9.18793 1.57266C9.57605 1.57266 9.89105 1.88719 9.89105 2.27578C9.89105 2.66391 9.57605 2.97891 9.18793 2.97891ZM12.0004 2.97891C11.6123 2.97891 11.2973 2.66391 11.2973 2.27578C11.2973 1.88719 11.6123 1.57266 12.0004 1.57266C12.3886 1.57266 12.7036 1.88719 12.7036 2.27578C12.7036 2.66391 12.3886 2.97891 12.0004 2.97891ZM14.8129 2.97891C14.4248 2.97891 14.1098 2.66391 14.1098 2.27578C14.1098 1.88719 14.4248 1.57266 14.8129 1.57266C15.2011 1.57266 15.5161 1.88719 15.5161 2.27578C15.5161 2.66391 15.2011 2.97891 14.8129 2.97891ZM10.26 16.8727C8.02951 17.4471 7.26193 15.4614 6.56059 16.0378C6.25355 16.2909 6.05762 16.8792 6.02996 17.3044C5.94971 18.5254 7.02043 20.1642 8.27527 20.1642C9.40187 20.1642 10.5092 18.6218 11.0845 17.6512C10.7445 17.4708 10.4596 17.2018 10.26 16.8727Z" fill="#0B0B0B"/>
<path d="M12.7345 16.052C12.8848 15.6894 12.7127 15.2737 12.3502 15.1234C11.9877 14.973 11.5719 15.1451 11.4216 15.5076C11.2713 15.8702 11.4433 16.2859 11.8059 16.4362C12.1684 16.5866 12.5841 16.4145 12.7345 16.052Z" fill="#0B0B0B"/>
<path d="M10.8152 14.079C11.1247 13.8495 11.4913 13.7094 11.875 13.674C12.3218 11.4321 14.4492 11.5795 14.2338 10.7054C14.1396 10.3187 13.6947 9.88696 13.3239 9.67696C12.6958 9.32165 11.7438 9.2579 10.9549 9.519C8.87474 10.2076 9.59404 12.2401 10.8152 14.079ZM15.0475 20.4273C15.4202 20.5674 16.0277 20.4427 16.4102 20.2548C17.5205 19.7081 18.4169 17.9266 17.741 16.8385C17.2338 16.0224 15.6972 15.7206 14.1864 15.7023C14.2049 16.0473 14.1227 16.447 13.9235 16.8057C15.5264 18.4394 14.2019 20.1094 15.0475 20.4273Z" fill="#0B0B0B"/>
<path d="M2.02637 3.78125V21.8862C2.02637 23.0539 2.97652 24.0036 4.14371 24.0036H19.8571C21.0243 24.0036 21.9745 23.0539 21.9745 21.8862V3.78125C18.9028 5.36562 15.5198 6.19531 12.0004 6.19531C8.48387 6.19531 5.1009 5.36703 2.02637 3.78125ZM15.3642 11.8025C14.8189 12.6418 13.8414 12.8302 13.5243 13.3025C13.3771 13.5214 13.2811 13.7675 13.2412 14.0197C13.3654 14.1022 13.4807 14.1978 13.5848 14.3042C14.3348 14.2798 15.3187 14.3066 16.2698 14.5109C17.5561 14.787 18.4528 15.3209 18.9356 16.0981C19.4025 16.8495 19.5061 17.8006 19.2271 18.7752C18.273 22.1081 14.3624 22.7927 13.5061 20.7458C12.9869 19.5025 13.8544 18.6694 12.8709 17.743C12.7823 17.7791 12.6909 17.81 12.5971 17.8339C12.2437 18.4963 11.729 19.3339 11.0779 20.0553C7.77296 23.7171 4.44727 19.9539 4.62652 17.2156C4.71929 15.8046 5.63757 14.3662 7.05652 14.5475C8.04924 14.6746 8.64408 15.4726 9.20668 15.553C9.46777 15.5905 9.73121 15.5698 9.97496 15.4967C9.98105 15.4522 9.98809 15.4081 9.99652 15.365C8.8973 13.8582 7.71488 11.6338 8.46559 9.93453C8.82371 9.12547 9.55074 8.50438 10.5131 8.18563C13.8159 7.09358 16.5707 9.94803 15.3642 11.8025Z" fill="#0B0B0B"/>
</g>
<defs>
<clipPath id="clip0_4781_13944">
<rect width="24" height="24" fill="white"/>
</clipPath>
</defs>
</svg>
