<svg width="24" height="24" viewBox="0 0 24 24" fill="none" xmlns="http://www.w3.org/2000/svg">
<g clip-path="url(#clip0_4781_13956)">
<path d="M12 0C5.37259 0 0 5.37259 0 12C0 18.6274 5.37259 24 12 24C18.6274 24 24 18.6274 24 12C24 5.37259 18.6274 0 12 0ZM12.8388 1.01157C12.6574 3.38835 12.476 5.7651 12.2945 8.14188C12.0699 8.12462 11.8442 8.12711 11.6201 8.14933L10.918 1.03286C11.5564 0.969523 12.1991 0.962398 12.8388 1.01157ZM9.96624 1.1689L11.286 8.1971C10.5199 8.34095 9.81515 8.71281 9.264 9.26396L4.20741 4.20741C5.77714 2.63764 7.78439 1.57856 9.96624 1.1689ZM9.1102 12C9.1102 10.404 10.404 9.1102 12 9.1102C13.596 9.1102 14.8898 10.404 14.8898 12C14.8898 13.596 13.596 14.8898 12 14.8898C10.404 14.8898 9.1102 13.596 9.1102 12ZM11.1612 22.9884C11.3426 20.6116 11.524 18.2349 11.7055 15.8581C11.9301 15.8754 12.1558 15.8729 12.3799 15.8507L13.082 22.9671C12.4436 23.0305 11.8009 23.0376 11.1612 22.9884ZM14.0338 22.8311L12.7141 15.8029C13.4801 15.6591 14.1849 15.2872 14.736 14.736L19.7926 19.7926C18.2229 21.3624 16.2156 22.4214 14.0338 22.8311Z" fill="#0B0B0B"/>
<path d="M12 13.9063C13.055 13.9063 13.9102 13.0511 13.9102 11.9961C13.9102 10.9412 13.055 10.0859 12 10.0859C10.9451 10.0859 10.0898 10.9412 10.0898 11.9961C10.0898 13.0511 10.9451 13.9063 12 13.9063Z" fill="#0B0B0B"/>
</g>
<defs>
<clipPath id="clip0_4781_13956">
<rect width="24" height="24" fill="white"/>
</clipPath>
</defs>
</svg>
