<svg width="24" height="24" viewBox="0 0 24 24" fill="none" xmlns="http://www.w3.org/2000/svg">
<path d="M16.3347 4.78125C16.4898 4.47224 16.7275 4.21228 17.0215 4.03023C17.3154 3.84819 17.6541 3.75118 17.9998 3.75H18.7498C19.2469 3.75058 19.7235 3.94831 20.075 4.29982C20.4265 4.65132 20.6243 5.1279 20.6248 5.625V13.125C20.6243 13.6221 20.4265 14.0987 20.075 14.4502C19.7235 14.8017 19.2469 14.9994 18.7498 15H18.2268C18.2467 15.2667 18.2637 15.5151 18.279 15.75H18.7498C19.4458 15.7492 20.113 15.4724 20.6051 14.9803C21.0972 14.4882 21.374 13.8209 21.3748 13.125V5.625C21.374 4.92905 21.0972 4.26184 20.6051 3.76974C20.113 3.27763 19.4458 3.00081 18.7498 3H15.3217C15.3393 3.06875 15.352 3.13864 15.3598 3.20916C15.7266 3.58298 16.0505 4.12205 16.3347 4.78125ZM4.34327 5.625H2.80371L3.72101 7.91817C3.88472 7.14259 4.09248 6.37696 4.34327 5.625Z" fill="#0B0B0B"/>
<path d="M17.1114 11.4331C16.4605 6.39844 15.54 4.46887 14.8479 3.75H6.15143C5.87018 4.04227 5.55082 4.54045 5.22738 5.36034C5.22128 5.38111 5.21333 5.40128 5.20362 5.42062C4.73918 6.6203 4.26771 8.49563 3.88788 11.4331C3.56051 13.9651 3.4309 16.3433 3.39002 17.25H17.6093C17.5684 16.3433 17.4388 13.9651 17.1114 11.4331ZM5.24965 19.5H15.7496C16.1817 19.4995 16.6004 19.35 16.9351 19.0768C17.2699 18.8035 17.5001 18.4232 17.5871 18H3.41238C3.49939 18.4232 3.72963 18.8035 4.0643 19.0767C4.39897 19.3499 4.8176 19.4994 5.24965 19.5ZM10.4996 1.5C8.4086 1.5 6.8628 2.23097 6.4713 3H14.528C14.1365 2.23097 12.5907 1.5 10.4996 1.5ZM18.3479 22.5C18.2569 21.8756 17.9444 21.3047 17.4674 20.8916C16.9903 20.4785 16.3807 20.2508 15.7496 20.25H5.24965C4.61863 20.2508 4.00895 20.4785 3.53192 20.8916C3.0549 21.3047 2.74236 21.8756 2.65137 22.5H18.3479ZM9.37465 21H11.6246C11.7241 21 11.8195 21.0395 11.8898 21.1098C11.9601 21.1802 11.9996 21.2755 11.9996 21.375C11.9996 21.4745 11.9601 21.5698 11.8898 21.6402C11.8195 21.7105 11.7241 21.75 11.6246 21.75H9.37465C9.27519 21.75 9.17981 21.7105 9.10948 21.6402C9.03916 21.5698 8.99965 21.4745 8.99965 21.375C8.99965 21.2755 9.03916 21.1802 9.10948 21.1098C9.17981 21.0395 9.27519 21 9.37465 21Z" fill="#0B0B0B"/>
</svg>
