<svg width="24" height="24" viewBox="0 0 24 24" fill="none" xmlns="http://www.w3.org/2000/svg">
<path d="M17 2H7C6.20435 2 5.44129 2.31607 4.87868 2.87868C4.31607 3.44129 4 4.20435 4 5V19C4 19.7956 4.31607 20.5587 4.87868 21.1213C5.44129 21.6839 6.20435 22 7 22H17C17.7956 22 18.5587 21.6839 19.1213 21.1213C19.6839 20.5587 20 19.7956 20 19V5C20 4.20435 19.6839 3.44129 19.1213 2.87868C18.5587 2.31607 17.7956 2 17 2ZM15.8 14.6L12.8 18.6C12.7069 18.7242 12.5861 18.825 12.4472 18.8944C12.3084 18.9639 12.1552 19 12 19C11.8448 19 11.6916 18.9639 11.5528 18.8944C11.4139 18.825 11.2931 18.7242 11.2 18.6L8.2 14.6C8.08857 14.4514 8.02072 14.2748 8.00404 14.0898C7.98736 13.9048 8.02252 13.7189 8.10557 13.5528C8.18863 13.3867 8.31629 13.247 8.47427 13.1493C8.63225 13.0517 8.81429 13 9 13H15C15.1857 13 15.3678 13.0517 15.5257 13.1493C15.6837 13.247 15.8114 13.3867 15.8944 13.5528C15.9775 13.7189 16.0126 13.9048 15.996 14.0898C15.9793 14.2748 15.9114 14.4514 15.8 14.6ZM15.894 10.445C15.8113 10.6115 15.6838 10.7516 15.5259 10.8496C15.368 10.9476 15.1859 10.9997 15 11H9C8.81326 11.0008 8.63002 10.9494 8.47102 10.8515C8.31202 10.7535 8.18362 10.613 8.10036 10.4459C8.0171 10.2787 7.9823 10.0916 7.99991 9.90571C8.01752 9.7198 8.08683 9.54254 8.2 9.394L11.2 5.379C11.297 5.26056 11.4191 5.16514 11.5574 5.09961C11.6958 5.03409 11.8469 5.0001 12 5.0001C12.1531 5.0001 12.3042 5.03409 12.4426 5.09961C12.5809 5.16514 12.703 5.26056 12.8 5.379L15.8 9.394C15.9115 9.5433 15.9793 9.72061 15.9959 9.90619C16.0125 10.0918 15.9772 10.2783 15.894 10.445Z" fill="#0B0B0B"/>
</svg>
