<svg width="24" height="24" viewBox="0 0 24 24" fill="none" xmlns="http://www.w3.org/2000/svg">
<g clip-path="url(#clip0_4781_13979)">
<path d="M6.78262 23.2969L0.703125 17.2174M12.2874 23.2969L0.703125 11.7126M17.7921 23.2969L0.703125 6.20789M23.0554 23.0554L0.944625 0.944625M23.0554 17.5506L6.44939 0.944625M23.2969 12.2874L11.7126 0.703125M23.2969 6.78262L17.2174 0.703125M0.703125 6.78262L6.78262 0.703125M0.703125 12.2874L12.2874 0.703125M0.703125 17.7921L17.7921 0.703125M0.944625 23.0554L23.0554 0.944625M6.20789 23.2969L23.2969 6.20789M11.5985 23.411L23.411 11.5985M17.2174 23.2969L23.2969 17.2174M0.703125 0.703125H23.2969V23.2969H0.703125V0.703125Z" stroke="#0B0B0B" stroke-miterlimit="10"/>
</g>
<defs>
<clipPath id="clip0_4781_13979">
<rect width="24" height="24" fill="white"/>
</clipPath>
</defs>
</svg>
