<svg width="24" height="24" viewBox="0 0 24 24" fill="none" xmlns="http://www.w3.org/2000/svg">
<path d="M12.675 11.25C12.975 13.2 15.375 14.025 15.375 15.9C15.375 17.025 14.775 18.225 13.725 18.75C13.575 17.7 13.2 15.75 12.075 15.75C10.95 15.75 10.2 17.625 9.825 18.75C9.15 18.15 8.7 16.95 8.7 15.9C8.625 13.875 10.35 11.25 12.675 11.25ZM22.5 2.25V3.75C22.5 4.575 21.825 5.25 21 5.25H3C2.175 5.25 1.5 4.575 1.5 3.75V2.25H22.5Z" fill="#0B0B0B"/>
<path d="M20.25 6.75H3.75V20.25H1.5V21.75H22.5V20.25H20.25V6.75ZM18 20.25H6V11.25C8.025 10.8 9.975 9 12 9C14.025 9 15.975 10.8 18 11.25V20.25Z" fill="#0B0B0B"/>
</svg>
