<svg width="24" height="24" viewBox="0 0 24 24" fill="none" xmlns="http://www.w3.org/2000/svg">
<path d="M0.999023 5.29657V24H23.001V5.29657H0.999023ZM10.0473 6.63593C10.443 6.63593 10.736 6.95933 10.7531 7.34173C10.7702 7.7229 10.4165 8.04752 10.0473 8.04752C9.65165 8.04752 9.35865 7.72413 9.34152 7.34173C9.32444 6.9606 9.67814 6.63593 10.0473 6.63593ZM4.49506 8.04752C4.09939 8.04752 3.80639 7.72413 3.78927 7.34173C3.77219 6.96055 4.12588 6.63593 4.49506 6.63593C4.89073 6.63593 5.18373 6.95933 5.20086 7.34173C5.21794 7.7229 4.86424 8.04752 4.49506 8.04752ZM7.27119 8.04752C6.87552 8.04752 6.58252 7.72413 6.56539 7.34173C6.54831 6.96055 6.90201 6.63593 7.27119 6.63593C7.66686 6.63593 7.95986 6.95933 7.97698 7.34173C7.99407 7.7229 7.64037 8.04752 7.27119 8.04752ZM14.4597 15.6545L15.5515 15.1644L16.1296 16.4521L15.1637 16.8858L15.2711 17.9391L13.8668 18.0823L13.7432 16.8709L12.7144 16.2768V17.4821L13.6847 18.1825L12.8585 19.3271L12 18.7074L11.1415 19.3271L10.3153 18.1825L11.3027 17.4697V16.2719L10.26 16.8739L10.1376 18.0749L8.73322 17.9318L8.84064 16.8784L7.87474 16.4448L8.45288 15.157L9.5542 15.6515L10.5927 15.0519L9.55853 14.4548L8.45711 14.9493L7.87897 13.6615L8.84488 13.2279L8.73745 12.1746L10.1418 12.0314L10.2643 13.2324L11.3028 13.8319V12.6377L10.3238 11.9311L11.1501 10.7866L12.0085 11.4063L12.867 10.7866L13.6932 11.9311L12.7144 12.6377V13.827L13.7496 13.2293L13.871 12.0387L15.2754 12.1819L15.168 13.2353L16.1339 13.6689L15.5557 14.9566L14.4448 14.4579L13.4159 15.0519L14.4597 15.6545ZM23.001 3.88498V2.42704C23.001 1.08876 21.9123 0 20.574 0H3.42606C2.08783 0 0.99907 1.08876 0.99907 2.42704V3.88498H23.001Z" fill="#0B0B0B"/>
</svg>
