<svg width="24" height="24" viewBox="0 0 24 24" fill="none" xmlns="http://www.w3.org/2000/svg">
<path d="M17.7369 0H6.2622C5.78955 0 5.41699 0.411656 5.41699 0.884391V7.63106H18.582V0.884391C18.5821 0.411656 18.2096 0 17.7369 0ZM8.15491 4.31067C8.15491 4.63242 7.8941 4.89319 7.5724 4.89319C7.2507 4.89319 6.98988 4.63237 6.98988 4.31067V2.56313C6.98988 2.24137 7.2507 1.98061 7.5724 1.98061C7.8941 1.98061 8.15491 2.24142 8.15491 2.56313V4.31067ZM5.41704 22.8932V23.1156C5.41704 23.5883 5.78955 24 6.26224 24H17.7369C18.2095 24 18.5821 23.5883 18.5821 23.1156V22.8932H5.41704ZM5.41704 8.79614V21.7282H18.5821V8.79614H5.41704ZM8.15491 15.7282C8.15491 16.0499 7.8941 16.3107 7.5724 16.3107C7.2507 16.3107 6.98988 16.0499 6.98988 15.7282V11.1845C6.98988 10.8627 7.2507 10.602 7.5724 10.602C7.8941 10.602 8.15491 10.8628 8.15491 11.1845V15.7282Z" fill="#0B0B0B"/>
</svg>
