<svg width="24" height="24" viewBox="0 0 24 24" fill="none" xmlns="http://www.w3.org/2000/svg">
<g clip-path="url(#clip0_4781_13961)">
<path d="M1.40625 16.2336H0V23.9993H1.40625V20.7649H4.28128V23.9993H5.68753V19.3586H1.40625V16.2336ZM18.1426 9.49533C18.247 9.43331 18.348 9.35456 18.4671 9.26156C18.8388 8.97117 19.3478 8.57339 20.28 8.57339C21.2122 8.57339 21.7213 8.97108 22.093 9.26152C22.4045 9.50475 22.5924 9.65161 23.0405 9.65161C23.4576 9.65161 23.6494 9.52444 23.9252 9.31069C22.8193 4.87073 19.3021 1.45884 14.9724 0.368906C15.3214 0.822891 15.672 1.38572 16.0153 2.08162C16.9454 3.96684 17.6762 6.5182 18.1426 9.49533ZM1.90641 9.26161C2.27812 8.97122 2.78723 8.57344 3.71939 8.57344C4.65145 8.57344 5.16056 8.97117 5.53223 9.26161C5.65148 9.3548 5.75269 9.43369 5.85727 9.4957C6.32367 6.51839 7.05455 3.96689 7.98464 2.08162C8.32795 1.38577 8.67848 0.822938 9.02752 0.368953C4.69786 1.45889 1.18069 4.87083 0.0748594 9.31087C0.350438 9.52458 0.542297 9.6517 0.959297 9.6517C1.40719 9.65166 1.59506 9.50484 1.90641 9.26161ZM18.8797 16.9367V15.5305H12.7031V10.9709C12.4986 11.0244 12.267 11.0579 11.9996 11.0579C11.7326 11.0579 11.5012 11.0245 11.2969 10.9711V15.5305H5.1203V16.9367H6.26719L10.7914 20.1729L7.04048 22.856V23.9993H8.44673V23.5791L11.2969 21.5403V23.9993H12.7031V21.5403L15.5533 23.579V23.9993H16.9595V22.8559L13.2086 20.1729L17.7328 16.9367H18.8797V16.9367ZM7.30898 9.35264C7.32239 9.34247 7.33603 9.33192 7.34977 9.32133L7.36805 9.30722C7.38713 9.29241 7.40653 9.27727 7.42655 9.26161C7.79827 8.97122 8.30737 8.57344 9.23948 8.57344C10.1716 8.57344 10.6807 8.97117 11.0525 9.26166C11.3638 9.50484 11.5516 9.65166 11.9995 9.65166C12.4475 9.65166 12.6354 9.50484 12.9467 9.26161C13.3185 8.97122 13.8275 8.57344 14.7596 8.57344C15.6917 8.57344 16.2008 8.97117 16.5726 9.26161C16.5929 9.2775 16.6126 9.29292 16.632 9.30797L16.6492 9.32114C16.6628 9.33164 16.6763 9.34209 16.6896 9.35217L16.6963 9.35723C16.2514 6.6742 15.5859 4.38994 14.7541 2.70384C13.894 0.960187 12.9159 0 12 0C11.0841 0 10.106 0.960234 9.24577 2.70384C8.41402 4.3898 7.74858 6.67383 7.30373 9.35662L7.30898 9.35264ZM22.5938 16.2336V19.3586H18.3125V23.9993H19.7187V20.7649H22.5938V23.9993H24V16.2336H22.5938Z" fill="#0B0B0B"/>
</g>
<defs>
<clipPath id="clip0_4781_13961">
<rect width="24" height="24" fill="white"/>
</clipPath>
</defs>
</svg>
