<svg width="24" height="24" viewBox="0 0 24 24" fill="none" xmlns="http://www.w3.org/2000/svg">
<g clip-path="url(#clip0_4781_13922)">
<path d="M9.18848 6.88068e-06C8.80016 6.88068e-06 8.48535 0.314819 8.48535 0.703132V9.65626C8.48535 9.78549 8.38021 9.89063 8.25098 9.89063H6.37598V0.703132C6.37598 0.314819 6.06116 6.88068e-06 5.67285 6.88068e-06C5.28454 6.88068e-06 4.96973 0.314819 4.96973 0.703132V9.89063H3.09473C2.96549 9.89063 2.86035 9.78549 2.86035 9.65626V0.703132C2.86035 0.314819 2.54554 6.88068e-06 2.15723 6.88068e-06C1.76891 6.88068e-06 1.4541 0.314819 1.4541 0.703132V9.65626C1.4541 10.5609 2.19009 11.2969 3.09473 11.2969H4.96973V12.75H4.2666C3.87829 12.75 3.56348 13.0648 3.56348 13.4531V20.2711C3.54829 20.3368 2.76065 21.5149 3.58776 22.8432C4.5472 24.3841 6.79293 24.3872 7.75401 22.8425C8.56551 21.5381 7.78846 20.3179 7.77754 20.2708V13.4531C7.77754 13.0648 7.46273 12.75 7.07441 12.75H6.37602V11.2969H8.25102C9.15566 11.2969 9.89165 10.5609 9.89165 9.65626V0.703132C9.8916 0.314819 9.57679 6.88068e-06 9.18848 6.88068e-06ZM18.0183 0.122819C17.9017 0.0430025 17.7637 0.000201394 17.6223 7.08971e-07C17.481 -0.000199976 17.3428 0.0422091 17.2259 0.121694C15.8322 1.06836 14.6914 2.34184 13.9032 3.83092C13.115 5.32 12.7033 6.97941 12.7041 8.66424V12.4746C12.7041 13.3793 13.4401 14.1152 14.3447 14.1152H16.9229V9.18901C16.9229 8.80069 17.2377 8.48588 17.626 8.48588C18.0143 8.48588 18.3291 8.80069 18.3291 9.18901V14.1153H20.9048C21.8095 14.1153 22.5455 13.3793 22.5455 12.4747V8.66902C22.5455 5.24185 20.8525 2.04671 18.0183 0.122819Z" fill="#0B0B0B"/>
<path d="M16.9227 15.5645H16.2172C15.8289 15.5645 15.514 15.8793 15.514 16.2676V20.2763C15.4988 20.3428 14.7131 21.5199 15.54 22.8466C16.5012 24.3888 18.7456 24.3861 19.7043 22.8446C20.5139 21.5427 19.7385 20.3204 19.7282 20.2756V16.2676C19.7282 15.8793 19.4133 15.5645 19.025 15.5645H18.3289V14.1172H16.9227V15.5645Z" fill="#0B0B0B"/>
</g>
<defs>
<clipPath id="clip0_4781_13922">
<rect width="24" height="24" fill="white"/>
</clipPath>
</defs>
</svg>
