<svg width="24" height="24" viewBox="0 0 24 24" fill="none" xmlns="http://www.w3.org/2000/svg">
<g clip-path="url(#clip0_4781_13940)">
<path d="M23.2666 0.774369C22.9833 0.537031 22.6278 0.453642 22.3162 0.563241L18.3744 2.11822V9.05769L22.3124 10.6138C22.6273 10.7207 22.9817 10.6416 23.2666 10.4042C23.4096 10.2842 23.5243 10.1341 23.6027 9.96468C23.681 9.79522 23.721 9.61056 23.7198 9.42387V1.75309C23.7208 1.56668 23.6807 1.38234 23.6023 1.21319C23.524 1.04403 23.4094 0.894213 23.2666 0.774369ZM9.36576 12.9208C9.85351 13.723 10.2532 14.5756 10.5578 15.4636H11.4302V12.7941H9.29199L9.36576 12.9208Z" fill="#0B0B0B"/>
<path d="M8.55371 0.211706C6.65606 -0.269384 4.69697 0.078053 3.17407 1.16642C1.63082 2.27132 0.746164 3.97599 0.746164 5.85279C0.746114 5.86978 0.745212 5.88672 0.743508 5.90356C0.758492 7.28374 1.38496 8.62067 2.50751 9.67315C3.55949 10.6572 4.22926 11.6729 4.5548 12.7767L6.35408 18.9112C6.40543 19.0799 6.49717 19.2334 6.62133 19.3586V20.9387C6.83711 21.4581 7.21122 21.8962 7.6904 22.1906C7.68133 22.5514 7.0944 22.9342 6.67956 22.9342H6.55984C6.4199 22.9306 6.2843 22.8849 6.17079 22.8029C6.05729 22.721 5.97118 22.6067 5.92375 22.475L2.76564 14.4258C2.59621 13.9934 2.31021 13.6812 1.93922 13.524C1.55219 13.3599 1.10052 13.3759 0.635463 13.57C0.357183 13.6686 0.211553 13.9741 0.310126 14.2524C0.408699 14.5307 0.714242 14.6763 0.992523 14.5777C1.01091 14.5712 1.02896 14.5637 1.04655 14.5552C1.23793 14.475 1.40736 14.4584 1.52177 14.5071C1.62335 14.5498 1.70724 14.654 1.77089 14.8155L4.92469 22.8625C5.1957 23.5537 5.8334 24.0001 6.55558 24.0001H6.6753C7.63749 24.0001 8.75627 23.2052 8.75627 22.1826V19.6526L9.31699 18.0672C9.59006 17.3163 9.61888 16.4984 9.39933 15.7301C9.3478 15.6545 9.3182 15.566 9.31378 15.4746C9.19025 15.1274 9.01801 14.7994 8.80223 14.5006L8.60443 14.213C8.28421 13.7728 8.04159 13.2811 7.88705 12.7591L7.86515 12.6848C7.8056 12.4964 7.7861 12.2976 7.80792 12.1013C7.82974 11.9049 7.89239 11.7153 7.99184 11.5446C8.17967 11.2468 8.47774 11.0354 8.82092 10.9566C10.895 10.4402 17.3052 9.05415 17.3052 9.05415H17.8398V2.11472H17.3053L8.55371 0.211706ZM8.22391 19.7301V20.2647H7.15479V19.6767C7.2662 19.7109 7.38197 19.7289 7.49852 19.7301H8.22391V19.7301Z" fill="#0B0B0B"/>
</g>
<defs>
<clipPath id="clip0_4781_13940">
<rect width="24" height="24" fill="white"/>
</clipPath>
</defs>
</svg>
