<svg width="24" height="24" viewBox="0 0 24 24" fill="none" xmlns="http://www.w3.org/2000/svg">
<path fill-rule="evenodd" clip-rule="evenodd" d="M19.3688 6.76345C19.5047 6.63832 19.6441 6.51704 19.7868 6.39975C20.4359 5.86631 21.1473 5.42053 21.921 5.0625C22.4719 5.27911 22.6641 5.87095 22.4737 6.26077C21.9149 6.51933 21.3965 6.82767 20.9186 7.18566C20.4676 7.04925 20.0172 6.91955 19.558 6.80831C19.495 6.79304 19.432 6.77808 19.3688 6.76345ZM19.7695 17.3195C19.3408 17.6988 18.9647 18.2118 18.6353 18.9348H1.05853C0.977951 18.9348 0.90867 18.8978 0.863857 18.831C0.819092 18.7642 0.810935 18.6861 0.841357 18.6117C1.01871 18.1767 1.20598 17.7459 1.40301 17.3195H19.7695ZM20.2422 7.64822C19.6606 7.63266 8.31337 3.27595 1.716 16.6632H20.8177C21.4036 16.4082 22.0649 16.2545 22.8109 16.0874C22.9226 16.0628 23.0214 15.9981 23.0885 15.9055C23.1556 15.813 23.1864 15.6989 23.175 15.5851C22.8218 11.8997 22.019 11.1254 20.2422 7.64822ZM17.4343 9.36075C19.2544 9.79828 18.0197 13.3634 12.5868 13.3634H8.49544C4.69561 13.3634 11.7748 8.0003 17.4343 9.36075ZM11.9563 11.8323H13.9023C14.3007 11.8323 14.638 12.1063 14.7354 12.4752C14.0129 12.6444 13.2612 12.7072 12.5869 12.7072H11.095V12.6937C11.0949 12.2199 11.4825 11.8323 11.9563 11.8323Z" fill="#0B0B0B"/>
</svg>
