<svg width="24" height="24" viewBox="0 0 24 24" fill="none" xmlns="http://www.w3.org/2000/svg">
<path d="M8.53392 22.3527H15.5156C19.0202 22.3527 21.9844 19.9954 22.9063 16.7832H1.14323C2.06517 19.9954 5.02936 22.3527 8.53392 22.3527ZM11.3559 1.65734V1.68031C11.363 1.67 11.37 1.65969 11.3775 1.64938C11.3705 1.65172 11.363 1.65453 11.3559 1.65734ZM12.7477 1.64844C12.7523 1.65547 12.7575 1.6625 12.7622 1.66953V1.65359C12.757 1.65172 12.7523 1.64984 12.7477 1.64844ZM18.7528 11.9462V9.69406C18.7528 7.01703 17.6208 4.745 15.4786 3.12406C15.3342 3.01484 15.1898 2.91219 15.0469 2.81563C15.7833 4.36953 16.4766 6.57078 16.4766 9.34859V11.9462H15.0703V9.34859C15.0703 5.68531 13.7714 3.11422 12.7622 1.66953V11.9462H11.3559V1.68031C11.1736 1.94328 10.9823 2.24234 10.7916 2.5775C10.0064 3.95797 9.07031 6.25344 9.07031 9.34859V11.9462H7.66406V9.34859C7.66406 6.57641 8.35078 4.37844 9.08109 2.825C8.93437 2.92484 8.78578 3.03078 8.63766 3.14375C6.49641 4.77313 5.36484 7.03813 5.36484 9.69406V11.9462H0V13.3527H0.846563V14.6652C0.846563 14.9052 0.857813 15.1423 0.879844 15.3767H23.1698C23.1914 15.1423 23.2031 14.9052 23.2031 14.6652V13.3527H24V11.9462H18.7528Z" fill="#0B0B0B"/>
</svg>
