<svg width="24" height="24" viewBox="0 0 24 24" fill="none" xmlns="http://www.w3.org/2000/svg">
<path d="M14.2166 11.8763L13.2266 12.9338L19.4516 18.7688C20.5128 19.83 18.9228 21.42 17.8616 20.3625L12.0603 14.175L6.25907 20.3625C5.20157 21.42 3.60782 19.83 4.66907 18.7688L10.8978 12.93L9.90782 11.8763L9.86282 11.8313C8.51282 12.7875 6.93407 12.615 5.40032 11.0813C3.64157 9.32251 2.62532 6.44626 4.07282 4.98001C5.52032 3.51376 8.41532 4.54876 10.1703 6.30751C11.7078 7.84126 11.8803 9.42001 10.9203 10.77L10.9653 10.815L12.0566 11.8388L13.1516 10.815C12.8001 10.4634 12.6026 9.98656 12.6026 9.48938C12.6026 8.9922 12.8001 8.51537 13.1516 8.16376L17.9291 3.39001C17.9641 3.35525 18.0057 3.32775 18.0514 3.30909C18.097 3.29043 18.146 3.28097 18.1953 3.28126C18.2937 3.28167 18.388 3.32073 18.4578 3.39001C18.493 3.42487 18.5209 3.46634 18.5399 3.51204C18.5589 3.55774 18.5687 3.60675 18.5687 3.65626C18.5687 3.70576 18.5589 3.75478 18.5399 3.80047C18.5209 3.84617 18.493 3.88765 18.4578 3.92251L14.7453 7.63126C14.7106 7.6663 14.6831 7.70785 14.6644 7.75354C14.6457 7.79923 14.6363 7.84815 14.6366 7.89751C14.6363 7.94686 14.6457 7.99578 14.6644 8.04147C14.6831 8.08716 14.7106 8.12872 14.7453 8.16376C14.7802 8.1989 14.8217 8.2268 14.8674 8.24584C14.913 8.26488 14.9621 8.27468 15.0116 8.27468C15.0611 8.27468 15.1101 8.26488 15.1558 8.24584C15.2015 8.2268 15.243 8.1989 15.2778 8.16376L18.9903 4.45126C19.0602 4.38198 19.1544 4.34292 19.2528 4.34251C19.3022 4.34222 19.3511 4.35168 19.3968 4.37034C19.4425 4.389 19.484 4.4165 19.5191 4.45126C19.5889 4.52152 19.6281 4.61656 19.6281 4.71563C19.6281 4.8147 19.5889 4.90975 19.5191 4.98001L15.8066 8.69251C15.7714 8.72737 15.7435 8.76884 15.7245 8.81454C15.7054 8.86024 15.6956 8.90925 15.6956 8.95876C15.6956 9.00826 15.7054 9.05728 15.7245 9.10297C15.7435 9.14867 15.7714 9.19015 15.8066 9.22501C15.8768 9.29485 15.9719 9.33405 16.0709 9.33405C16.17 9.33405 16.2651 9.29485 16.3353 9.22501L20.0478 5.51251C20.0827 5.47736 20.1242 5.44946 20.1699 5.43042C20.2155 5.41138 20.2646 5.40158 20.3141 5.40158C20.3636 5.40158 20.4126 5.41138 20.4583 5.43042C20.504 5.44946 20.5455 5.47736 20.5803 5.51251C20.6502 5.58277 20.6894 5.67781 20.6894 5.77688C20.6894 5.87595 20.6502 5.971 20.5803 6.04126L16.8753 9.74626C16.8402 9.78112 16.8123 9.82259 16.7932 9.86829C16.7742 9.91399 16.7644 9.963 16.7644 10.0125C16.7644 10.062 16.7742 10.111 16.7932 10.1567C16.8123 10.2024 16.8402 10.2439 16.8753 10.2788C16.9456 10.3486 17.0406 10.3878 17.1397 10.3878C17.2388 10.3878 17.3338 10.3486 17.4041 10.2788L21.1166 6.56626C21.1514 6.53111 21.1929 6.50321 21.2386 6.48417C21.2843 6.46513 21.3333 6.45533 21.3828 6.45533C21.4323 6.45533 21.4813 6.46513 21.527 6.48417C21.5727 6.50321 21.6142 6.53111 21.6491 6.56626C21.7189 6.63652 21.7581 6.73156 21.7581 6.83063C21.7581 6.9297 21.7189 7.02475 21.6491 7.09501L16.8753 11.8763C16.5237 12.2278 16.0469 12.4252 15.5497 12.4252C15.0525 12.4252 14.5757 12.2278 14.2241 11.8763H14.2166Z" fill="#0B0B0B"/>
</svg>
