<svg width="24" height="24" viewBox="0 0 24 24" fill="none" xmlns="http://www.w3.org/2000/svg">
<path d="M21.6333 20.4162C21.6333 20.6802 21.4173 20.8962 21.1533 20.8962H18.5613C18.2973 20.8962 18.0813 20.6802 18.0813 20.4162C18.0813 20.1522 18.2973 19.9362 18.5613 19.9362H21.1533C21.4173 19.9362 21.6333 20.1522 21.6333 20.4162ZM5.91333 20.4162C5.91333 20.6802 5.69733 20.8962 5.43333 20.8962H2.84133C2.57733 20.8962 2.36133 20.6802 2.36133 20.4162C2.36133 20.1522 2.57733 19.9362 2.84133 19.9362H5.43333C5.69733 19.9362 5.91333 20.1522 5.91333 20.4162ZM10.4733 8.73781C10.4733 8.47381 10.2573 8.25781 9.99333 8.25781C9.72933 8.25781 9.51333 8.47381 9.51333 8.73781C9.51333 8.83861 9.49413 8.86261 9.39333 8.98261C9.25413 9.14581 9.04773 9.39541 9.04773 9.84661C9.04773 10.2978 9.25413 10.5474 9.39333 10.7106C9.49413 10.8306 9.51333 10.8594 9.51333 10.9554C9.51333 11.0514 9.49413 11.0802 9.39333 11.2002C9.25413 11.3634 9.04773 11.613 9.04773 12.0642C9.04773 12.3282 9.26373 12.5442 9.52773 12.5442C9.79173 12.5442 10.0077 12.3282 10.0077 12.0642C10.0077 11.9634 10.0269 11.9394 10.1277 11.8194C10.2669 11.6562 10.4733 11.4066 10.4733 10.9554C10.4733 10.5042 10.2669 10.2546 10.1277 10.0914C10.0269 9.97141 10.0077 9.94261 10.0077 9.84661C10.0077 9.74581 10.0269 9.72181 10.1277 9.60181C10.2669 9.43861 10.4733 9.18901 10.4733 8.73781ZM8.19813 10.1778C8.19813 9.91381 7.98213 9.69781 7.71813 9.69781C7.45413 9.69781 7.23813 9.91381 7.23813 10.1778C7.23813 10.2786 7.21893 10.3026 7.11813 10.4226C6.97893 10.5858 6.77253 10.8354 6.77253 11.2866C6.77253 11.7378 6.97893 11.9874 7.11813 12.1506C7.21893 12.2706 7.23813 12.2994 7.23813 12.3954C7.23813 12.4914 7.21893 12.5202 7.11813 12.6402C6.97893 12.8034 6.77253 13.053 6.77253 13.5042C6.77253 13.7682 6.98853 13.9842 7.25253 13.9842C7.51653 13.9842 7.73253 13.7682 7.73253 13.5042C7.73253 13.4034 7.75173 13.3794 7.85253 13.2594C7.99173 13.0962 8.19813 12.8466 8.19813 12.3954C8.19813 11.9442 7.99173 11.6946 7.85253 11.5314C7.75173 11.4114 7.73253 11.3826 7.73253 11.2866C7.73253 11.1858 7.75173 11.1618 7.85253 11.0418C7.99173 10.8786 8.19813 10.629 8.19813 10.1778ZM12.7485 10.1778C12.7485 9.91381 12.5325 9.69781 12.2685 9.69781C12.0045 9.69781 11.7885 9.91381 11.7885 10.1778C11.7885 10.2786 11.7693 10.3026 11.6685 10.4226C11.5293 10.5858 11.3229 10.8354 11.3229 11.2866C11.3229 11.7378 11.5293 11.9874 11.6685 12.1506C11.7693 12.2706 11.7885 12.2994 11.7885 12.3954C11.7885 12.4914 11.7693 12.5202 11.6685 12.6402C11.5293 12.8034 11.3229 13.053 11.3229 13.5042C11.3229 13.7682 11.5389 13.9842 11.8029 13.9842C12.0669 13.9842 12.2829 13.7682 12.2829 13.5042C12.2829 13.4034 12.3021 13.3794 12.4029 13.2594C12.5421 13.0962 12.7485 12.8466 12.7485 12.3954C12.7485 11.9442 12.5421 11.6946 12.4029 11.5314C12.3021 11.4114 12.2829 11.3826 12.2829 11.2866C12.2829 11.1858 12.3021 11.1618 12.4029 11.0418C12.5421 10.8786 12.7485 10.629 12.7485 10.1778Z" fill="#0B0B0B"/>
<path d="M22.0848 3.10156H1.9104C0.8544 3.10156 0 3.96076 0 5.01196V17.2424C0 18.2936 0.8544 19.1528 1.9104 19.1528H22.0848C23.1408 19.1528 24 18.2936 24 17.2424V5.01196C24 3.96076 23.1408 3.10156 22.0848 3.10156ZM19.3728 6.25996H21.2688C21.5376 6.25996 21.7488 6.47596 21.7488 6.73996C21.7488 7.00396 21.5376 7.21996 21.2688 7.21996H19.3728C19.104 7.21996 18.8928 7.00396 18.8928 6.73996C18.8928 6.47596 19.104 6.25996 19.3728 6.25996ZM19.3728 8.21836H21.2688C21.5376 8.21836 21.7488 8.43436 21.7488 8.69836C21.7488 8.96236 21.5376 9.17836 21.2688 9.17836H19.3728C19.104 9.17836 18.8928 8.96236 18.8928 8.69836C18.8928 8.43436 19.104 8.21836 19.3728 8.21836ZM17.6016 16.7528C17.6016 17.0168 17.3856 17.2328 17.1216 17.2328H2.4C2.1312 17.2328 1.92 17.0168 1.92 16.7528V5.50156C1.92 5.23756 2.1312 5.02156 2.4 5.02156H17.1216C17.3856 5.02156 17.6016 5.23756 17.6016 5.50156V16.7528ZM20.3184 15.9944C19.4688 15.9944 18.7728 15.3032 18.7728 14.4488C18.7728 13.5944 19.4688 12.9032 20.3184 12.9032C21.1728 12.9032 21.864 13.5944 21.864 14.4488C21.864 15.3032 21.1728 15.9944 20.3184 15.9944Z" fill="#0B0B0B"/>
</svg>
