<svg width="24" height="24" viewBox="0 0 24 24" fill="none" xmlns="http://www.w3.org/2000/svg">
<g clip-path="url(#clip0_4781_14021)">
<path d="M20.4853 3.51469C18.2188 1.24823 15.2053 0 12 0C8.79469 0 5.78123 1.24823 3.51469 3.51469C1.24823 5.78123 0 8.79469 0 12C0 15.2053 1.24823 18.2188 3.51469 20.4853C5.78123 22.7518 8.79469 24 12 24C15.2053 24 18.2188 22.7518 20.4853 20.4853C22.7518 18.2188 24 15.2053 24 12C24 8.79469 22.7518 5.78123 20.4853 3.51469ZM22.5938 12C22.5938 14.6558 21.6112 17.0862 19.9909 18.9475L16.138 14.6029C16.2128 14.5379 16.2858 14.471 16.3569 14.4021C17.3764 13.4132 17.9378 12.1037 17.9378 10.715C17.9378 9.3263 17.3764 8.0168 16.3569 7.02787C15.3487 6.04987 14.0247 5.51123 12.6288 5.51123H8.17153C8.14087 5.51123 8.11092 5.51386 8.0813 5.51766L6.05681 3.23475C7.7527 2.08125 9.79894 1.40625 12 1.40625C17.8414 1.40625 22.5938 6.15858 22.5938 12ZM12.6612 12.5556C12.2492 12.5556 11.448 12.5595 10.8629 12.5627C10.8596 11.9644 10.8556 11.1375 10.8556 10.7193C10.8556 10.3682 10.8533 9.50597 10.8515 8.883H12.6612C13.6888 8.883 14.5569 9.72389 14.5569 10.7193C14.5569 11.7147 13.6888 12.5556 12.6612 12.5556ZM1.40625 12C1.40625 8.86495 2.77561 6.04406 4.94705 4.10273L7.46841 6.94598V18.9107C7.46841 19.0972 7.54248 19.276 7.67435 19.4079C7.80621 19.5397 7.98505 19.6138 8.17153 19.6138H8.17406L10.1663 19.6066C10.5536 19.6052 10.8668 19.2908 10.8668 18.9035V15.917C11.2167 15.917 11.6315 15.9176 11.9788 15.9181C12.2505 15.9185 12.4863 15.9188 12.6288 15.9188C13.4445 15.9188 14.2355 15.7346 14.9535 15.3865L18.9974 19.9467C17.1297 21.5932 14.6797 22.5938 12 22.5938C6.15858 22.5938 1.40625 17.8414 1.40625 12Z" fill="#0B0B0B"/>
</g>
<defs>
<clipPath id="clip0_4781_14021">
<rect width="24" height="24" fill="white"/>
</clipPath>
</defs>
</svg>
