<svg width="24" height="25" viewBox="0 0 24 25" fill="none" xmlns="http://www.w3.org/2000/svg">
<g clip-path="url(#clip0_4781_14001)">
<path d="M21.8941 2.60772C20.5349 1.24855 18.7279 0.5 16.8058 0.5C14.8836 0.5 13.0766 1.24855 11.7176 2.60772L9.8525 4.47265C8.49323 5.83182 7.74468 7.63893 7.74468 9.56108C7.74468 9.88817 7.76805 10.2116 7.81069 10.5304L7.81079 15.6317L5.41663 18.0257C4.91707 17.8927 4.36237 18.0206 3.97047 18.4125L0.440658 21.9426C-0.144299 22.5276 -0.144298 23.4761 0.440758 24.0612C0.579711 24.2005 0.744822 24.3109 0.926604 24.3862C1.10839 24.4615 1.30325 24.5002 1.50001 24.4999C1.88342 24.4999 2.26684 24.3537 2.55937 24.0612L6.08928 20.5311C6.48108 20.1392 6.60912 19.5846 6.47609 19.0851L8.87025 16.6909L13.9713 16.6908C14.2901 16.7336 14.6135 16.7569 14.9407 16.7569H14.9413C16.8632 16.7569 18.6701 16.0084 20.0291 14.6493L21.8942 12.7842C24.6997 9.97845 24.6997 5.41326 21.8941 2.60772ZM21.8859 10.2741L19.9294 8.31757L22.2442 6.00281C22.6785 7.40642 22.559 8.94527 21.8859 10.2741ZM21.8283 5.00617L19.2231 7.61136L16.8903 5.27853L19.4974 2.67124C19.9895 2.93606 20.44 3.27157 20.8347 3.66708C21.23 4.06209 21.5648 4.51332 21.8283 5.00617ZM10.9117 13.5903C10.5162 13.1955 10.1807 12.745 9.91592 12.253L12.5232 9.64558L14.856 11.9783L12.2488 14.5856C11.7568 14.321 11.3063 13.9856 10.9117 13.5903ZM9.30499 10.4081C9.30489 10.4064 9.30449 10.4049 9.30429 10.4033C9.26326 10.1244 9.24269 9.84295 9.24277 9.56108C9.24277 8.64934 9.457 7.77096 9.85899 6.98136L11.817 8.93937L9.49905 11.2573C9.41266 10.9797 9.34779 10.6957 9.30499 10.4081ZM13.2295 8.93928L16.1842 5.98473L18.517 8.31757L15.5624 11.2721L13.2295 8.93928ZM18.5019 2.25437L16.1841 4.57222L14.226 2.61421C15.0157 2.21232 15.894 1.9981 16.8058 1.9981C17.3896 1.9981 17.9597 2.08608 18.5019 2.25437ZM12.777 3.66698C12.9594 3.48499 13.1538 3.31546 13.3588 3.15952L15.4778 5.27853L12.5232 8.23307L10.4042 6.11407C10.5602 5.90893 10.7298 5.71447 10.9119 5.53201L12.777 3.66698ZM9.30889 15.1928L9.30879 14.0392C9.47846 14.2526 9.65991 14.4564 9.8523 14.6495C10.0453 14.8418 10.249 15.0232 10.4623 15.1927L9.30889 15.1928ZM14.9407 15.2588C14.6566 15.2588 14.3757 15.2381 14.0995 15.1974L14.0932 15.1965C13.8057 15.1537 13.5219 15.0888 13.2443 15.0025L15.5622 12.6845L17.5205 14.6427C16.7309 15.0446 15.8527 15.2587 14.9411 15.2587L14.9407 15.2588ZM18.9696 13.5901C18.7872 13.772 18.5927 13.9416 18.3877 14.0976L16.2684 11.9784L19.2231 9.02377L21.3416 11.1423C21.1859 11.3477 21.0166 11.5423 20.8346 11.7248L18.9696 13.5901Z" fill="#0B0B0B"/>
</g>
<defs>
<clipPath id="clip0_4781_14001">
<rect width="24" height="24" fill="white" transform="translate(0 0.5)"/>
</clipPath>
</defs>
</svg>
