<svg width="24" height="24" viewBox="0 0 24 24" fill="none" xmlns="http://www.w3.org/2000/svg">
<g clip-path="url(#clip0_4781_13931)">
<path d="M21.375 6.78375V5.25C21.375 4.65326 21.1379 4.08097 20.716 3.65901C20.294 3.23705 19.7217 3 19.125 3H9.375C8.77826 3 8.20597 3.23705 7.78401 3.65901C7.36205 4.08097 7.125 4.65326 7.125 5.25C7.125 5.44891 7.20402 5.63968 7.34467 5.78033C7.48532 5.92098 7.67609 6 7.875 6C8.07391 6 8.26468 5.92098 8.40533 5.78033C8.54598 5.63968 8.625 5.44891 8.625 5.25C8.625 5.05109 8.70402 4.86032 8.84467 4.71967C8.98532 4.57902 9.17609 4.5 9.375 4.5H19.125C19.3239 4.5 19.5147 4.57902 19.6553 4.71967C19.796 4.86032 19.875 5.05109 19.875 5.25V6.75H5.25V1.5C5.25 1.30109 5.17098 1.11032 5.03033 0.96967C4.88968 0.829018 4.69891 0.75 4.5 0.75C4.30109 0.75 4.11032 0.829018 3.96967 0.96967C3.82902 1.11032 3.75 1.30109 3.75 1.5V6.75H3C2.40326 6.75 1.83097 6.98705 1.40901 7.40901C0.987053 7.83097 0.75 8.40326 0.75 9V21C0.75 21.5967 0.987053 22.169 1.40901 22.591C1.83097 23.0129 2.40326 23.25 3 23.25H21C21.5967 23.25 22.169 23.0129 22.591 22.591C23.0129 22.169 23.25 21.5967 23.25 21V9C23.2495 8.46867 23.0609 7.95468 22.7177 7.54904C22.3746 7.1434 21.8989 6.8723 21.375 6.78375ZM3.75 15C3.75 14.0358 4.03591 13.0933 4.57159 12.2916C5.10726 11.4899 5.86863 10.8651 6.75942 10.4961C7.65021 10.1271 8.63041 10.0306 9.57607 10.2187C10.5217 10.4068 11.3904 10.8711 12.0721 11.5529C12.7539 12.2346 13.2182 13.1033 13.4063 14.0489C13.5944 14.9946 13.4979 15.9748 13.1289 16.8656C12.7599 17.7564 12.1351 18.5177 11.3334 19.0534C10.5317 19.5891 9.58918 19.875 8.625 19.875C7.33207 19.875 6.09209 19.3614 5.17785 18.4471C4.26361 17.5329 3.75 16.2929 3.75 15ZM19.5712 18.75H15.75C15.5511 18.75 15.3603 18.671 15.2197 18.5303C15.079 18.3897 15 18.1989 15 18C15 17.8011 15.079 17.6103 15.2197 17.4697C15.3603 17.329 15.5511 17.25 15.75 17.25H19.5712C19.7702 17.25 19.9609 17.329 20.1016 17.4697C20.2422 17.6103 20.3212 17.8011 20.3212 18C20.3212 18.1989 20.2422 18.3897 20.1016 18.5303C19.9609 18.671 19.7702 18.75 19.5712 18.75ZM15.75 14.25H19.5C19.6989 14.25 19.8897 14.329 20.0303 14.4697C20.171 14.6103 20.25 14.8011 20.25 15C20.25 15.1989 20.171 15.3897 20.0303 15.5303C19.8897 15.671 19.6989 15.75 19.5 15.75H15.75C15.5511 15.75 15.3603 15.671 15.2197 15.5303C15.079 15.3897 15 15.1989 15 15C15 14.8011 15.079 14.6103 15.2197 14.4697C15.3603 14.329 15.5511 14.25 15.75 14.25ZM15 12C15 11.8011 15.079 11.6103 15.2197 11.4697C15.3603 11.329 15.5511 11.25 15.75 11.25H19.5C19.6989 11.25 19.8897 11.329 20.0303 11.4697C20.171 11.6103 20.25 11.8011 20.25 12C20.25 12.1989 20.171 12.3897 20.0303 12.5303C19.8897 12.671 19.6989 12.75 19.5 12.75H15.75C15.5511 12.75 15.3603 12.671 15.2197 12.5303C15.079 12.3897 15 12.1989 15 12ZM8.625 18.375C7.95749 18.375 7.30497 18.1771 6.74995 17.8062C6.19493 17.4354 5.76235 16.9083 5.50691 16.2916C5.25146 15.6749 5.18462 14.9963 5.31485 14.3416C5.44508 13.6869 5.76651 13.0855 6.23851 12.6135C6.71052 12.1415 7.31188 11.8201 7.96657 11.6898C8.62126 11.5596 9.29986 11.6265 9.91656 11.8819C10.5333 12.1374 11.0604 12.5699 11.4312 13.125C11.8021 13.68 12 14.3325 12 15C12 15.8951 11.6444 16.7535 11.0115 17.3865C10.3785 18.0194 9.52011 18.375 8.625 18.375Z" fill="#0B0B0B"/>
</g>
<defs>
<clipPath id="clip0_4781_13931">
<rect width="24" height="24" fill="white"/>
</clipPath>
</defs>
</svg>
