<svg width="24" height="25" viewBox="0 0 24 25" fill="none" xmlns="http://www.w3.org/2000/svg">
<path d="M14.1125 8.65756C14.1125 8.65756 15.7925 8.03356 15.6005 6.54556C15.4085 5.05756 14.3525 4.91356 15.2165 3.13756C15.2165 3.13756 13.4405 3.85756 14.4485 5.72956C15.4085 7.60156 14.1125 8.65756 14.1125 8.65756ZM11.2325 7.12156C11.2325 7.12156 12.9125 6.49756 12.7205 5.00956C12.5285 3.52156 11.4725 3.37756 12.3365 1.60156C12.3365 1.60156 10.5605 2.32156 11.5685 4.19356C12.5285 6.06556 11.2325 7.12156 11.2325 7.12156ZM8.40047 8.65756C8.40047 8.65756 10.0805 8.03356 9.88847 6.54556C9.69647 5.05756 8.64047 4.91356 9.45647 3.13756C9.45647 3.13756 7.68047 3.85756 8.68847 5.72956C9.64847 7.60156 8.40047 8.65756 8.40047 8.65756ZM3.50447 19.1696C3.88847 20.4176 4.99247 21.3296 6.28847 21.4736L5.95247 22.4336C5.80847 22.8176 6.00047 23.2496 6.38447 23.3456C6.76847 23.4896 7.20047 23.2976 7.29647 22.9136L7.82447 21.4736H16.2725L16.8005 22.9136C16.9445 23.2976 17.3765 23.4896 17.7125 23.3456C18.0965 23.2016 18.2885 22.7696 18.1445 22.4336L17.8085 21.4736C19.0565 21.2816 20.1125 20.4176 20.4965 19.1696L22.3205 12.9296H1.68047L3.50447 19.1696ZM22.5605 10.4336H1.44047C0.912469 10.4336 0.480469 10.8656 0.480469 11.3936C0.480469 11.9216 0.912469 12.3536 1.44047 12.3536H22.5605C23.0885 12.3536 23.5205 11.9216 23.5205 11.3936C23.5205 10.8656 23.0885 10.4336 22.5605 10.4336Z" fill="#0B0B0B"/>
</svg>
