<svg width="24" height="24" viewBox="0 0 24 24" fill="none" xmlns="http://www.w3.org/2000/svg">
<path d="M2.4375 8.4362H4.3125V13.6862H2.4375V8.4362ZM9.375 11.0612C9.375 10.8362 9.405 10.6225 9.4575 10.4162L8.76 10.1237C8.58173 10.736 8.58173 11.3864 8.76 11.9987L9.4575 11.7062C9.4031 11.4955 9.37539 11.2788 9.375 11.0612ZM9.74625 12.4L9.045 12.6925C9.35382 13.2488 9.81242 13.7074 10.3687 14.0162L10.6613 13.315C10.2863 13.09 9.97125 12.775 9.74625 12.4ZM10.6613 8.80745L10.3687 8.1062C9.81242 8.41502 9.35382 8.87363 9.045 9.42995L9.74625 9.72245C9.97125 9.34745 10.2863 9.03245 10.6613 8.80745ZM12 13.6862C11.775 13.6862 11.5613 13.6562 11.355 13.6037L11.0625 14.3012C11.6748 14.4795 12.3252 14.4795 12.9375 14.3012L12.645 13.6037C12.4388 13.6562 12.225 13.6862 12 13.6862ZM12 8.4362C12.225 8.4362 12.4388 8.4662 12.645 8.5187L12.9375 7.8212C12.3252 7.64293 11.6748 7.64293 11.0625 7.8212L11.355 8.5187C11.5613 8.4662 11.775 8.4362 12 8.4362ZM12 12.9362C14.4784 12.859 14.4776 9.26308 12 9.1862C9.52163 9.26345 9.52238 12.8593 12 12.9362ZM13.3387 13.315L13.6312 14.0162C14.1876 13.7074 14.6462 13.2488 14.955 12.6925L14.2537 12.4C14.0287 12.775 13.7137 13.09 13.3387 13.315ZM13.6312 8.1062L13.3387 8.80745C13.7137 9.03245 14.0287 9.34745 14.2537 9.72245L14.955 9.42995C14.6462 8.87363 14.1876 8.41502 13.6312 8.1062ZM14.5425 11.7062L15.24 11.9987C15.4183 11.3864 15.4183 10.736 15.24 10.1237L14.5425 10.4162C14.6513 10.8393 14.6513 11.2831 14.5425 11.7062Z" fill="#0B0B0B"/>
<path d="M5.0625 4.125V18H18.9375V4.125H5.0625ZM15.8137 12.6337C15.0187 14.6906 12.4331 15.7725 10.4175 14.8688C6.285 13.0714 7.50187 7.01625 12 6.9375C14.8778 6.89175 16.9556 9.99337 15.8137 12.6337Z" fill="#0B0B0B"/>
<path d="M19.6875 1.5H4.3125C3.2775 1.5 2.4375 2.34 2.4375 3.375V7.6875H4.3125V3.75C4.3125 3.54375 4.48125 3.375 4.6875 3.375H19.3125C19.5187 3.375 19.6875 3.54375 19.6875 3.75V18.375C19.6875 18.5812 19.5187 18.75 19.3125 18.75H4.6875C4.48125 18.75 4.3125 18.5812 4.3125 18.375V14.4375H2.4375V18.75C2.4375 19.7213 3.17625 20.52 4.125 20.6138C4.185 20.6213 4.24875 20.625 4.3125 20.625H19.6875C20.7071 20.625 21.5674 19.7895 21.5625 18.75V3.375C21.5625 2.34 20.7225 1.5 19.6875 1.5ZM7.125 22.5C7.5375 22.5 7.875 22.1625 7.875 21.75V21.375H4.3125C4.24875 21.375 4.185 21.3713 4.125 21.3675V21.75C4.125 22.1625 4.4625 22.5 4.875 22.5H7.125ZM16.125 21.375V21.75C16.125 22.1625 16.4625 22.5 16.875 22.5H19.125C19.5375 22.5 19.875 22.1625 19.875 21.75V21.3675C19.8187 21.3713 19.755 21.375 19.6875 21.375H16.125Z" fill="#0B0B0B"/>
</svg>
