<svg width="24" height="25" viewBox="0 0 24 25" fill="none" xmlns="http://www.w3.org/2000/svg">
<g clip-path="url(#clip0_4781_14009)">
<path d="M11.9998 24.5C18.6274 24.5 23.9996 19.1274 23.9996 12.4998C23.9996 5.87269 18.6274 0.5 11.9998 0.5C5.3723 0.5 0 5.87269 0 12.4998C0 19.1274 5.37226 24.5 11.9998 24.5ZM14.1873 6.47686C14.7915 6.47686 15.2813 6.96662 15.2813 7.57084C15.2813 8.17505 14.7915 8.66481 14.1873 8.66481C13.5831 8.66481 13.0933 8.17505 13.0933 7.57084C13.0938 6.96618 13.5831 6.47686 14.1873 6.47686ZM13.0938 10.9183C13.698 10.9183 14.1878 11.4081 14.1878 12.0123C14.1878 12.6165 13.698 13.1063 13.0938 13.1063C12.4896 13.1058 11.9998 12.6165 11.9998 12.0123C11.9998 11.4081 12.4896 10.9183 13.0938 10.9183Z" fill="#0B0B0B"/>
</g>
<defs>
<clipPath id="clip0_4781_14009">
<rect width="24" height="24" fill="white" transform="translate(0 0.5)"/>
</clipPath>
</defs>
</svg>
