<svg width="24" height="24" viewBox="0 0 24 24" fill="none" xmlns="http://www.w3.org/2000/svg">
<g clip-path="url(#clip0_4771_13910)">
<path d="M21.8906 9.84379H2.10938C0.946219 9.84379 0 10.79 0 11.9532C0 13.6508 1.2098 15.071 2.8125 15.3976V20.4844C2.8125 22.4228 4.3897 24 6.32812 24H17.6719C19.6103 24 21.1875 22.4228 21.1875 20.4844V15.3976C22.7902 15.071 24 13.6508 24 11.9532C24 10.79 23.0538 9.84379 21.8906 9.84379ZM1.40625 11.9532C1.40625 11.5652 1.72144 11.25 2.10938 11.25H2.8125V13.933C1.99584 13.6418 1.40625 12.8686 1.40625 11.9532ZM21.1875 13.933V11.25H21.8906C22.2786 11.25 22.5938 11.5652 22.5938 11.9532C22.5938 12.8686 22.0042 13.6418 21.1875 13.933ZM2.92392 8.02832C3.08742 8.38476 3.5093 8.53396 3.85641 8.37304L19.2319 1.34226C19.5848 1.18022 19.7393 0.762043 19.5766 0.409778C19.4146 0.0568557 18.9964 -0.0983475 18.6442 0.0650588L13.4873 2.39165C12.8379 0.979121 11.1649 0.360559 9.75675 1.01287C8.34562 1.66157 7.72884 3.32976 8.37787 4.74375L3.26859 7.09584C2.91567 7.25789 2.76117 7.67536 2.92392 8.02832ZM19.5402 3.7567C19.5402 3.36806 19.2257 3.05357 18.8371 3.05357C18.7052 3.05357 17.5311 3.0735 16.8472 3.7567C16.1647 4.44061 16.1448 5.61407 16.1448 5.74593C16.1448 5.99104 16.0597 6.53418 15.8536 6.7402C15.6586 6.9352 15.1437 7.02928 14.8594 7.03134C14.4707 7.03134 14.1562 7.34582 14.1562 7.73447C14.1562 8.12311 14.4707 8.43759 14.8594 8.43759C14.9912 8.43759 16.1647 8.41767 16.8479 7.73447C17.5311 7.05126 17.551 5.87779 17.551 5.74593C17.551 5.50082 17.6369 4.95698 17.8422 4.75097C18.0365 4.55662 18.5508 4.46259 18.8385 4.45982C19.2264 4.45912 19.5402 4.14464 19.5402 3.7567ZM19.0781 8.43754C19.21 8.43754 20.3835 8.41762 21.0667 7.73442C21.7499 7.05121 21.7698 5.87775 21.7698 5.74589C21.7698 5.50078 21.8556 4.95693 22.0609 4.75092C22.2553 4.55657 22.7695 4.46254 23.0573 4.45978C23.4452 4.45907 23.759 4.14459 23.759 3.75665C23.759 3.36801 23.4445 3.05353 23.0559 3.05353C22.924 3.05353 21.7499 3.07345 21.066 3.75665C20.3835 4.44056 20.3636 5.61403 20.3636 5.74589C20.3636 5.991 20.2785 6.53414 20.0724 6.74015C19.8774 6.93515 19.3625 7.02923 19.0782 7.03129C18.6895 7.03129 18.375 7.34578 18.375 7.73442C18.375 8.12306 18.6895 8.43754 19.0781 8.43754Z" fill="#0B0B0B"/>
</g>
<defs>
<clipPath id="clip0_4771_13910">
<rect width="24" height="24" fill="white"/>
</clipPath>
</defs>
</svg>
