<svg width="24" height="24" viewBox="0 0 24 24" fill="none" xmlns="http://www.w3.org/2000/svg">
<g clip-path="url(#clip0_4781_13927)">
<path d="M20.9026 22.451H19.7898V6.62891H23.2252C23.6527 6.62891 23.9993 6.28227 23.9993 5.85474V2.99998C23.9993 2.602 23.6976 2.26887 23.3015 2.22958L0.850524 0.00383588C0.394828 -0.0412596 0 0.317037 0 0.774234V5.85474C0 6.28227 0.346635 6.62891 0.774172 6.62891H18.2414V22.451H12.7738V16.4996H15.9673C16.3949 16.4996 16.7415 16.153 16.7415 15.7254C16.7415 15.2979 16.3949 14.9513 15.9673 14.9513H8.03203C7.6045 14.9513 7.25786 15.2979 7.25786 15.7254C7.25786 16.153 7.6045 16.4996 8.03203 16.4996H11.2255V22.451H8.70943V18.6286C8.70943 18.201 8.3628 17.8544 7.93526 17.8544H4.11279V13.3061C4.11279 12.8786 3.76615 12.532 3.33862 12.532C2.91108 12.532 2.56444 12.8786 2.56444 13.3061V22.451H0.774172C0.346635 22.451 0 22.7977 0 23.2252C0 23.6527 0.346635 23.9994 0.774172 23.9994H20.9026C21.3302 23.9994 21.6768 23.6527 21.6768 23.2252C21.6768 22.7977 21.3302 22.451 20.9026 22.451ZM4.11279 19.4027H7.16109V22.451H4.11279V19.4027ZM23.3011 22.4549C22.7642 22.3979 22.3232 22.9129 22.4848 23.4502C22.6884 24.1173 23.5946 24.1889 23.9073 23.59C24.1692 23.1084 23.8472 22.5072 23.3011 22.4549Z" fill="#0B0B0B"/>
</g>
<defs>
<clipPath id="clip0_4781_13927">
<rect width="24" height="24" fill="white"/>
</clipPath>
</defs>
</svg>
