<svg width="24" height="24" viewBox="0 0 24 24" fill="none" xmlns="http://www.w3.org/2000/svg">
<g clip-path="url(#clip0_4771_13871)">
<path d="M23.22 12.9675C23.0325 13.5825 22.6275 14.3325 21.75 14.73V12H22.5C23.0025 12 23.3625 12.4875 23.22 12.9675ZM20.25 11.25V19.5C20.25 20.475 19.62 21.3 18.75 21.615V22.5C18.75 22.9125 18.4125 23.25 18 23.25C17.5875 23.25 17.25 22.9125 17.25 22.5V21.75H3.75V22.5C3.75 22.9125 3.4125 23.25 3 23.25C2.5875 23.25 2.25 22.9125 2.25 22.5V21.615C1.38 21.3 0.75 20.475 0.75 19.5V11.25C0.75 10.0125 1.7625 9 3 9H18C19.2375 9 20.25 10.0125 20.25 11.25ZM15.75 12C15.75 12.4125 16.0875 12.75 16.5 12.75C16.9125 12.75 17.25 12.4125 17.25 12C17.25 11.5875 16.9125 11.25 16.5 11.25C16.0875 11.25 15.75 11.5875 15.75 12ZM7.5 18.75C7.5 18.3375 7.1625 18 6.75 18H3.75C3.3375 18 3 18.3375 3 18.75C3 19.1625 3.3375 19.5 3.75 19.5H6.75C7.1625 19.5 7.5 19.1625 7.5 18.75ZM17.25 14.25C17.25 13.8375 16.9125 13.5 16.5 13.5C16.0875 13.5 15.75 13.8375 15.75 14.25C15.75 14.6625 16.0875 15 16.5 15C16.9125 15 17.25 14.6625 17.25 14.25ZM11.9625 2.25C11.8761 1.82649 11.6459 1.44585 11.3111 1.17251C10.9762 0.899169 10.5572 0.749912 10.125 0.75H4.875C4.37772 0.75 3.90081 0.947544 3.54917 1.29917C3.19754 1.65081 3 2.12772 3 2.625C3 3.2325 3.3 3.7725 3.75 4.1175V7.5H11.25V4.1175C11.7 3.7725 12 3.2325 12 2.625C12 2.4975 11.985 2.37 11.9625 2.25ZM16.125 2.25H13.4775C13.4925 2.3775 13.5 2.505 13.5 2.625C13.5 3.405 13.23 4.14 12.75 4.74V7.5H17.25V5.6175C17.7 5.2725 18 4.7325 18 4.125C18 3.87877 17.9515 3.63495 17.8573 3.40747C17.763 3.17998 17.6249 2.97328 17.4508 2.79917C17.2767 2.62506 17.07 2.48695 16.8425 2.39273C16.615 2.2985 16.3712 2.25 16.125 2.25Z" fill="#0B0B0B"/>
</g>
<defs>
<clipPath id="clip0_4771_13871">
<rect width="24" height="24" fill="white"/>
</clipPath>
</defs>
</svg>
