<svg width="24" height="24" viewBox="0 0 24 24" fill="none" xmlns="http://www.w3.org/2000/svg">
<path d="M23.1844 3.14062H0.815578C0.365156 3.14062 0 3.50578 0 3.9562V16.1142C0 16.5646 0.365156 16.9298 0.815578 16.9298H23.1844C23.6348 16.9298 24 16.5646 24 16.1142V3.9562C24 3.50578 23.6348 3.14062 23.1844 3.14062ZM16.6605 19.4384H13.8916V18.3447H10.1084V19.4384H7.3395C6.9488 19.4384 6.63202 19.7551 6.63202 20.1458C6.63202 20.5365 6.94875 20.8533 7.3395 20.8533H16.6605C17.0512 20.8533 17.3679 20.5366 17.3679 20.1458C17.3679 19.7551 17.0512 19.4384 16.6605 19.4384Z" fill="#0B0B0B"/>
</svg>
