<svg width="24" height="25" viewBox="0 0 24 25" fill="none" xmlns="http://www.w3.org/2000/svg">
<path d="M0.0537109 5.86719C0.0537109 4.42391 1.22372 3.25391 2.66699 3.25391H20.8779C22.3212 3.25391 23.4912 4.42391 23.4912 5.86719V8.48047H0.0537109V5.86719Z" fill="#CC0000"/>
<path d="M21.0599 2.97208H17.3461V1.18083C17.3461 1.079 17.3056 0.981337 17.2336 0.909332C17.1616 0.837327 17.064 0.796875 16.9621 0.796875C16.8603 0.796875 16.7626 0.837327 16.6906 0.909332C16.6186 0.981337 16.5782 1.079 16.5782 1.18083V2.97208H6.9679V1.18083C6.9679 1.079 6.92745 0.981337 6.85544 0.909332C6.78344 0.837327 6.68578 0.796875 6.58395 0.796875C6.48212 0.796875 6.38446 0.837327 6.31245 0.909332C6.24045 0.981337 6.2 1.079 6.2 1.18083V2.97208H2.4854C1.14464 2.97208 0.0537109 4.06302 0.0537109 5.40377V22.3652C0.0537109 23.7059 1.14464 24.7969 2.4854 24.7969H21.0599C22.4007 24.7969 23.4916 23.7059 23.4916 22.3652V5.40377C23.4916 4.06302 22.4007 2.97208 21.0599 2.97208ZM2.4854 3.73999H6.2V5.43116C6.2 5.53299 6.24045 5.63065 6.31245 5.70266C6.38446 5.77466 6.48212 5.81511 6.58395 5.81511C6.68578 5.81511 6.78344 5.77466 6.85544 5.70266C6.92745 5.63065 6.9679 5.53299 6.9679 5.43116V3.73999H16.5784V5.43116C16.5784 5.53299 16.6189 5.63065 16.6909 5.70266C16.7629 5.77466 16.8606 5.81511 16.9624 5.81511C17.0642 5.81511 17.1619 5.77466 17.2339 5.70266C17.3059 5.63065 17.3463 5.53299 17.3463 5.43116V3.73999H21.0602C21.9776 3.73999 22.724 4.48639 22.724 5.40377V8.54782C22.6986 8.54266 22.6728 8.54008 22.6469 8.54014H0.898147C0.871783 8.54014 0.846441 8.54296 0.821613 8.54782V5.40377C0.821613 4.48639 1.56801 3.73999 2.4854 3.73999ZM21.0599 24.029H2.4854C2.0443 24.0284 1.62143 23.853 1.30952 23.5411C0.99762 23.2292 0.822155 22.8063 0.821613 22.3652V9.30036C0.846441 9.30548 0.871783 9.30804 0.898147 9.30804H22.6469C22.6735 9.30804 22.6989 9.30523 22.724 9.30036V22.3652C22.7234 22.8063 22.5478 23.2292 22.2359 23.5411C21.9239 23.853 21.501 24.0284 21.0599 24.029Z" fill="black"/>
</svg>
