<svg version="1.2" xmlns="http://www.w3.org/2000/svg" viewBox="0 0 1487 997" width="1487" height="997">
	<title>map_background1-svg</title>
	<style>
		.s0 { fill: #ffffff;stroke: #d9d9d9 } 
		.s1 { fill: none } 
		.s2 { fill: none;stroke: #ffffff;stroke-linecap: round;stroke-linejoin: round;stroke-width: 2 } 
		.s3 { fill: none;stroke: #29cc6a;stroke-linecap: round;stroke-linejoin: round;stroke-width: 2 } 
		.s4 { fill: none;stroke: #cc0000;stroke-linecap: round;stroke-linejoin: round;stroke-width: 2;stroke-dasharray: 7 } 
		.s5 { fill: none;stroke: #ffffff;stroke-linecap: round;stroke-linejoin: round;stroke-width: 2;stroke-dasharray: 7 } 
		.s6 { fill: #0b0b0b } 
		.s7 { fill: #ffffff } 
		.s8 { fill: none;stroke: #ffa235;stroke-linecap: round;stroke-linejoin: round;stroke-width: 2 } 
		.s9 { fill: none;stroke: #ffa235;stroke-width: 2 } 
		.s10 { fill: #000000 } 
		.s11 { fill: #213857 } 
		.s12 { fill: #222222 } 
		.s13 { fill: none;stroke: #ffffff;stroke-width: 2;stroke-dasharray: 7 } 
	</style>
	<path id="Layer" class="s0" d="m0.5 21.4c0-11.1 9-20.1 20.1-20.1h1445c11.1 0 20.2 9 20.2 20.1v954.1c0 11.1-9.1 20.1-20.2 20.1h-1445c-11.1 0-20.1-9-20.1-20.1z"/>
	<path id="Layer" class="s1" d="m189 128.3h1297.3v868.3h-1297.3z"/>
	<path id="Layer" fill-rule="evenodd" class="s2" d="m1075.8 568.3c0.4 1.4 7.8 9.1 11.1 11.9 1.5 1.4 0.9 4.4 3.7 6.2 8.5 5.6 7.2 8 10.5 10.8 3.4 2.8 4.4 9.5 1 12-1.8 1.3-11.5 1.3-9.8 7.3 1.5 5.6 3.3 11.2-5.4 12.7-8.8 1.6-15.6 2.8-15.6 7.9 0 5.2 11.4 6.7 16.7 6.2 6.3-0.6 21.6-3 25.9 1.5 3.1 3.2 7.3 10.1 11.2 10.1 9.2 0 7.6-5.3 15.4-7.1 4.2-1 10.5-1.5 14.5-3 2.3-0.8 10.7-1.7 9.3 5.6-0.3 1.3-1.5 2.4-1.8 4.1-0.5 2.3 4.5 9.9 4.2 12.3-0.6 4.3-3.8 6-5 10.2-1.6 5.4-5.3 13.6 5.8 7.7 2.1-1.2 6.1-2.9 8.5-2.5q4.8 0.8-1.3 12 1.7 5.2 3.4 7 1.8 1.9 6.7 3.9"/>
	<path id="Layer" fill-rule="evenodd" class="s2" d="m1060.3 838.1c-0.7 2.6-1.4 10.3 5.1 14.1 1.8 1.1 2.3 4.8 3.9 5.6 1.9 0.9 5.8-0.2 9.3 2.2 3.5 2.5-0.8 5.8 2.9 9.1 4.7 4.1 17.8 5 25.5 8.1"/>
	<path id="Layer" fill-rule="evenodd" class="s3" d="m1216.9 496.3c0 0 4.6-4.3 6.1-4.3 1.5 0 7-5.5 9.5-6.9 2.5-1.5 2.5-4.5 4.7-7.2 2.1-2.7 2.9-7.8 0.9-10-2-2.3-5.4-1.8-8.1-1.8-2.7 0-13.6 1-17.9 3.2-4.3 2.3-2.3 1.6-6.9 3.4-4.5 1.9-5 2.1-7.1 3.3-2.1 1.2-3.3 0.8-4.4 3.1-1.2 2.2-0.3 3-2.6 4.5-2.2 1.5-4.5 1.4-6 2.9-1.5 1.6-3.3 5.3-4.2 6.8-0.8 1.5-0.8 3-2.4 6-1.7 3-2.4 2.6-3.6 2.2-1.2-0.4-1.5-2.5-0.9-3.8q0.6-1.3 2.3-5.7 1-3.6-3.4-5.5c-4.4-1.8-3-1.4-4.5-4.4-1.5-3-7.3-12.5-6-16.5 1.2-3.9-1.6-15.4-3.9-16.4-2.2-1-2.2-6.7 0-11.2 2.3-4.5 3.3-5.2 6.1-5.2 2.8 0 7.5-0.2 10.3-3 2.8-2.9 5-3.3 6-7.2 1.1-4-1-8.9 0-10.9 1.1-2.1 3.8-8.2 8.3-10 4.5-1.8 5.7-2.9 6.8-4.3 1-1.3 6.1-7.9 6.1-11.7 0-3.8 0.4-17.6-1.8-20.5-2.2-3-2-3.6-4.3-5.5-2.3-1.9-6.6-0.3-6.8-3.8-0.3-3.4 0-4.8-4.1-7.1-4.2-2.2-7.5-5.4-8.8-7.2-1.4-1.7-4-1.6-6.7-1.6-2.7 0-1.1 1.2-5 0-3.8-1.3-6.1-4.3-9.1-4.3-3 0-2-1.5-8.1-1.5-6.1 0-6.4-3.5-13.5-2.3-7.1 1.3-8.7 0.2-12.5 1.3-3.8 1-9.2 4-12.9 4-3.7 0-11.9 1.5-14.3 0q-2.4-1.5-4.2-1.5-15.6-3.8-21.7-3.8c-6 0-21.9 3.8-27.9 3.8-6.1 0-8 2.6-12.9 4.3-4.8 1.6-10.9 1.6-17.5 1.6-6.7 0-9 2.3-11.8 2.3-2.7 0-28.6 2.9-33.4 4.9-4.7 2-6.9 1.1-10.2 4.1-3.3 3-13.3 6.8-14.4 6.8-1.1 0-6.8 0.7-9.2 3.1-2.4 2.4-2 5.7-5.3 7.8-3.3 2-29.8 2-32.5 5.2-2.7 3.3-10.3 2.3-20.5 6.1q-10.1 3.8-12.5 6l-15.9 9.5q-0.9 6.7-6.6 5.5c-5.7-1.2-5.7-1.2-13.4-1.2-7.7 0-20.4 5.9-23.1 5.9-2.6 0-33.9 4.5-36.2 8.4-0.9 1.5 7.9 3.6 5.4 5.5q-2 1.6-13.5 4.1"/>
	<path id="Layer" fill-rule="evenodd" class="s4" d="m1102.4 308.8c-17-1.7-154.5-16.4-154.5-50.2 0-37.5 180.1-68.7 203.3-69.7"/>
	<path id="Layer" fill-rule="evenodd" class="s2" d="m1112.4 312.9c7.9 0.8 10.6 5.7 3.3 9.4-7.1 3.6-17.7-0.6-25.8 3-5 2.3-0.9 8.3 0 9.4"/>
	<path id="Layer" fill-rule="evenodd" class="s5" d="m1114.6 311.5l-328.6 139.5"/>
	<path id="Layer" class="s6" d="m1113.2 317c3 0 5.4-2.5 5.4-5.5 0-3-2.4-5.4-5.4-5.4-3 0-5.4 2.4-5.4 5.4 0 3 2.4 5.5 5.4 5.5z"/>
	<path id="Layer" class="s7" d="m1113.2 313.5c1.1 0 2-0.9 2-2 0-1-0.9-1.9-2-1.9-1 0-1.9 0.9-1.9 1.9 0 1.1 0.9 2 1.9 2z"/>
	<path id="Layer" fill-rule="evenodd" class="s8" d="m1062.4 836.1c-6.1-1.5-8.5-2-9.7-3.8-10.5-15.6 20.8-33.8 24.7-43.7 3.9-9.8 2.4-11.2 8.5-17.3 4.4-4.3 10.7-9.8 24.2-12 12.2-2 20.2-1.8 27.5-1.6 12.4 0.4 5.2-5 8.6-9.7q2.1-2.9 3.4-6.1c3.4-8.1 9.2-5.8 13.4-9 4.3-3.1 0.9-4.5 6.7-9.2 5.5-4.4 11.4-3.8 13.6-7.5 2.7-4.4 2.6-9.7 5.5-16.2 1.9-4.2 9.9-7.4 9.6-13.5-0.5-10-6.8-12-6.8-18.2 0-6.2 1.7-16.1 0-20.5q0-9.4-4.1-11.9c-4.2-2.5-6-4.3-6-8.1 0-3.8 2.4-7 0-9.6-2.5-2.5-4-1.7-6.3-6.1-2.2-4.3-3-4.9-4.5-10.7q-1.5-5.8-7.7-14.8-3.8-17 0-20.7c3.9-3.8 4.5-6.8 15.6-11.9 5-2.3 9.4-7.5 13.7-10.9 5.3-4.4 7.5-4.1 12.4-10.8 4-5.4 4-5.4 7-13.9 3.1-8.6 7.1-18.5 7.1-18.5 0 0 5.3-5.9 6.8-5.9"/>
	<path id="Layer" fill-rule="evenodd" class="s9" d="m762.7 431.4c6.9 4.3 18.5 13.9 22.1 15.4 19.3 8.5 47.1 17.1 57.4 21.2 3.2 1.1 53.3 11.1 72.6 17.1 4.1 1.2 7 3.5 7.8 3.8 14.4 5.1 23.8 11.9 36.3 15.6 17.2 5.2 29.3 13.7 34.6 14.7 4.5 0.8 10.1 10.3 18 14.3 13.7 7.2 32.3 10 39.1 11.4 18.3 3.7 30.8 4.7 41.7 10.3 6.6 3.4 10.2 8 20.9 10 22.4 4.4 40.3 17.3 54.1 28.5"/>
	<path id="Layer" fill-rule="evenodd" class="s2" d="m758.8 435.3l-180.3-20.7 24.7 24.6"/>
	<path id="Layer" class="s6" d="m1060.3 853.7c8.6 0 15.5-7 15.5-15.6 0-8.6-6.9-15.7-15.5-15.7-8.6 0-15.6 7.1-15.6 15.7 0 8.6 7 15.6 15.6 15.6z"/>
	<path id="Layer" class="s7" d="m1060.3 842c2.1 0 3.9-1.7 3.9-3.9 0-2.2-1.8-3.9-3.9-3.9-2.2 0-3.9 1.7-3.9 3.9 0 2.2 1.7 3.9 3.9 3.9z"/>
	<path id="Layer" class="s6" d="m1107 892.8c8.6 0 15.5-7 15.5-15.6 0-8.6-6.9-15.6-15.5-15.6-8.6 0-15.6 7-15.6 15.6 0 8.6 7 15.6 15.6 15.6z"/>
	<path id="Layer" class="s7" d="m1107 881.1c2.1 0 3.9-1.7 3.9-3.9 0-2.2-1.8-3.9-3.9-3.9-2.2 0-3.9 1.7-3.9 3.9 0 2.2 1.7 3.9 3.9 3.9z"/>
	<path id="Layer" class="s6" d="m1184.8 720.8c8.6 0 15.5-7 15.5-15.7 0-8.6-6.9-15.6-15.5-15.6-8.6 0-15.6 7-15.6 15.6 0 8.7 7 15.7 15.6 15.7z"/>
	<path id="Layer" class="s7" d="m1184.8 709.1c2.1 0 3.9-1.8 3.9-4 0-2.1-1.8-3.9-3.9-3.9-2.2 0-3.9 1.8-3.9 3.9 0 2.2 1.7 4 3.9 4z"/>
	<path id="Layer" class="s6" d="m1097.2 353.2c8.6 0 15.6-7 15.6-15.7 0-8.6-7-15.6-15.6-15.6-8.5 0-15.5 7-15.5 15.6 0 8.7 7 15.7 15.5 15.7z"/>
	<path id="Layer" class="s7" d="m1097.3 341.5c2.1 0 3.8-1.8 3.8-4 0-2.1-1.7-3.9-3.8-3.9-2.2 0-3.9 1.8-3.9 3.9 0 2.2 1.7 4 3.9 4z"/>
	<path id="Layer" class="s6" d="m1075.8 583.9c8.6 0 15.6-7 15.6-15.6 0-8.7-7-15.7-15.6-15.7-8.5 0-15.5 7-15.5 15.7 0 8.6 7 15.6 15.5 15.6z"/>
	<path id="Layer" class="s7" d="m1075.8 572.2c2.2 0 3.9-1.8 3.9-3.9 0-2.2-1.7-3.9-3.9-3.9-2.1 0-3.8 1.7-3.8 3.9 0 2.1 1.7 3.9 3.8 3.9z"/>
	<path id="Layer" class="s6" d="m603.2 454.9c8.6 0 15.6-7 15.6-15.7 0-8.6-7-15.6-15.6-15.6-8.6 0-15.6 7-15.6 15.6 0 8.7 7 15.7 15.6 15.7z"/>
	<path id="Layer" class="s7" d="m603.2 443.1c2.1 0 3.9-1.7 3.9-3.9 0-2.1-1.8-3.9-3.9-3.9-2.2 0-3.9 1.8-3.9 3.9 0 2.2 1.7 3.9 3.9 3.9z"/>
	<path id="Layer" class="s6" d="m758.8 450.9c8.6 0 15.6-7 15.6-15.6 0-8.6-7-15.6-15.6-15.6-8.6 0-15.6 7-15.6 15.6 0 8.6 7 15.6 15.6 15.6z"/>
	<path id="Layer" class="s7" d="m758.8 439.2c2.1 0 3.9-1.7 3.9-3.9 0-2.2-1.8-3.9-3.9-3.9-2.1 0-3.9 1.7-3.9 3.9 0 2.2 1.8 3.9 3.9 3.9z"/>
	<path id="Layer" class="s6" d="m786 466.6c8.6 0 15.6-7 15.6-15.6 0-8.7-7-15.7-15.6-15.7-8.6 0-15.5 7-15.5 15.7 0 8.6 6.9 15.6 15.5 15.6z"/>
	<path id="Layer" class="s7" d="m786 454.9c2.2 0 3.9-1.8 3.9-3.9 0-2.2-1.7-4-3.9-4-2.1 0-3.9 1.8-3.9 4 0 2.1 1.8 3.9 3.9 3.9z"/>
	<path id="Layer" class="s6" d="m1147.8 210.5c8.6 0 15.6-7 15.6-15.7 0-8.6-7-15.6-15.6-15.6-8.6 0-15.5 7-15.5 15.6 0 8.7 6.9 15.7 15.5 15.7z"/>
	<path id="Layer" class="s7" d="m1147.8 198.7c2.2 0 3.9-1.7 3.9-3.9 0-2.1-1.7-3.9-3.9-3.9-2.1 0-3.9 1.8-3.9 3.9 0 2.2 1.8 3.9 3.9 3.9z"/>
	<path id="Layer" class="s6" d="m1037.4 804.8h-178c-1.3 0-2.5 0.9-2.5 2v27.3c0 1.1 1.2 2 2.5 2h178c1.4 0 2.5-0.9 2.5-2v-27.3c0-1.1-1.1-2-2.5-2z"/>
	<g id="Layer" style="opacity: .5">
		<path id="Layer" fill-rule="evenodd" class="s10" d="m1170.2 232.2q-2.1 0-3.2-1.3-1.2-1.2-1.2-3.5h3.1q0 2.2 1.3 2.2 1.3 0 1.3-2.5v-10.4h3.1v10.6q0 2.2-1.2 3.5-1.2 1.4-3.2 1.4zm11.7 0q-2.4 0-3.7-1.3-1.3-1.3-1.3-3.7v-10.5h3.1v10.5q0 1.3 0.4 1.9 0.4 0.5 1.5 0.5 1.1 0 1.5-0.5 0.4-0.6 0.5-1.8v-10.6h3v10.6q0 2.3-1.3 3.6-1.3 1.3-3.7 1.3zm10.4-0.2h-3v-15.3h3l4.5 10v-10h3.1v15.3h-3.1l-4.5-10.1zm11.3-1.4q-1.4-1.6-1.5-4.7v-2.8q0-3.1 1.4-4.9 1.4-1.7 4-1.7 2.5 0 3.7 1.3 1.3 1.2 1.5 3.8h-3q-0.1-1.4-0.6-2-0.5-0.5-1.5-0.5-1.2 0-1.8 0.9-0.6 0.9-0.6 2.9v2.8q0 2.1 0.6 3 0.7 1 2.1 1 0.9 0 1.4-0.4l0.3-0.2v-2.8h-2.1v-2.3h5.2v6.3c-0.6 0.7-1.4 1.2-2.2 1.5q-1.3 0.4-2.8 0.4-2.6 0-4.1-1.6zm11.3 1.4v-15.3h8.4v2.6h-5.4v3.9h4.8v2.6h-4.8v6.2zm10.2 0v-15.3h4.9q2.3 0 3.6 1.3 1.3 1.2 1.3 3.4 0 3-2.3 4.2l2.7 6.3v0.1h-3.3l-2.3-5.5h-1.5v5.5zm6.2-8.7q0.5-0.6 0.5-1.7 0-2.3-1.8-2.3h-1.8v4.6h1.7q0.9 0 1.4-0.6zm4.7 8.7l4.7-15.2h2.8l4.8 15.2h-3.3l-0.8-3.1h-4.2l-0.8 3.1zm6.1-11.1l-1.4 5.4h2.9zm8.6 10.1q-1.3-1.3-1.3-3.7v-10.5h3.1v10.5q0 1.3 0.4 1.9 0.4 0.5 1.5 0.5 1.1 0 1.5-0.5 0.4-0.6 0.4-1.8v-10.6h3.1v10.6q0 2.4-1.3 3.6-1.3 1.3-3.7 1.3-2.4 0-3.7-1.3zm14.7 1.3q-2.1 0-3.2-1.2-1.2-1.3-1.2-3.5h3.1q0 2.1 1.3 2.1 1.3 0 1.3-2.5v-10.4h3.1v10.6q0 2.2-1.2 3.6-1.3 1.3-3.2 1.3zm12.1 0q-2.6 0-4.1-1.7-1.4-1.7-1.4-4.7v-2.6q0-3.2 1.4-4.9 1.5-1.8 4-1.8 2.6 0 4 1.7 1.5 1.8 1.5 4.9v2.6q0 3.1-1.4 4.8-1.5 1.7-4 1.7zm1.8-3.5q0.5-0.9 0.6-2.9v-2.6q-0.1-2.1-0.6-3.1-0.6-1-1.8-1-1.3 0-1.9 0.9-0.5 1-0.6 3v2.7q0 2 0.6 3 0.6 0.9 1.9 0.9 1.2 0 1.8-0.9zm6.9 1.8q-1.4-1.7-1.3-4.9v-2.5q0-3.2 1.4-4.9 1.4-1.7 3.9-1.7 2.5 0 3.8 1.4 1.3 1.4 1.5 4h-3.1q-0.1-1.6-0.5-2.2-0.5-0.7-1.7-0.6-1.2-0.1-1.7 0.8-0.5 0.9-0.6 2.9v2.9q0 2.2 0.5 3.1 0.6 0.8 1.8 0.8 1.2 0 1.7-0.6 0.4-0.6 0.5-2.1h3.1q-0.2 2.6-1.5 4-1.4 1.3-3.8 1.3-2.6 0-4-1.7zm11.1 1.5v-15.3h3.1v6.2h4.5v-6.2h3.1v15.3h-3.1v-6.6h-4.5v6.6zm-127.8 25.4v-12.7h-3.6v-2.6h10.5v2.6h-3.8v12.7zm9.6-1.5q-1.5-1.7-1.5-4.7v-2.6q0-3.2 1.4-4.9 1.5-1.8 4.1-1.8 2.5 0 4 1.7 1.4 1.8 1.5 4.9v2.6q0 3.1-1.5 4.8-1.4 1.7-4 1.7-2.6 0-4-1.7zm5.8-1.8q0.6-0.9 0.6-2.9v-2.6q0-2.1-0.6-3.1-0.6-1-1.8-1-1.2 0-1.8 1-0.6 0.9-0.6 2.9v2.7q0 2 0.6 3 0.6 0.9 1.8 0.9 1.2 0 1.8-0.9zm8.9 3.3zm0 0h-3v-15.3h5.2q2.2 0 3.6 1.4 1.3 1.4 1.3 3.7 0 2.2-1.3 3.5-1.4 1.3-3.7 1.3h-2.1zm3.5-8.5q0.5-0.6 0.5-1.7 0-1.1-0.5-1.8-0.2-0.3-0.6-0.5-0.3-0.2-0.7-0.2h-2.2v4.8h2.2q0.8 0 1.3-0.6zm11.8 7.1q-1.5-1.7-1.5-4.8v-2.6q0-3.1 1.5-4.9 1.4-1.8 4-1.8 2.5 0 4 1.8 1.5 1.7 1.5 4.8v2.7q0 3-1.5 4.7-1.4 1.7-4 1.7-2.5 0-4-1.6zm5.8-1.9q0.6-0.9 0.6-2.8v-2.7q0-2.1-0.6-3.1-0.6-1-1.8-1-1.2 0-1.8 1-0.6 1-0.6 2.9v2.8q0 2 0.6 2.9 0.6 1 1.8 1 1.2 0 1.8-1zm5.9 3.3v-15.3h8.4v2.6h-5.3v3.9h4.7v2.6h-4.7v6.2zm23.8 0h-8.7v-15.3h8.7v2.6h-5.7v3.6h4.8v2.5h-4.8v4.1h5.7zm2.9-1.1q-1.3-1.3-1.3-3.7v-10.5h3.1v10.5q0 1.3 0.5 1.9 0.4 0.5 1.5 0.5 1.1 0 1.5-0.5 0.4-0.6 0.4-1.8v-10.6h3.1v10.6q-0.1 2.4-1.3 3.6-1.3 1.3-3.7 1.3-2.5 0-3.8-1.3zm11.1 1.1v-15.3h4.9q2.3 0 3.6 1.2 1.2 1.2 1.2 3.4 0 3.1-2.2 4.3l2.7 6.2v0.2h-3.3l-2.3-5.6h-1.5v5.6zm6.2-8.8q0.4-0.6 0.4-1.6 0-2.3-1.8-2.3h-1.8v4.5h1.8q0.9 0 1.4-0.6zm6.8 7.3q-1.4-1.7-1.4-4.7v-2.6q-0.1-3.2 1.4-5 1.5-1.7 4-1.7 2.6 0 4 1.7 1.5 1.8 1.5 4.9v2.6q0 3.1-1.4 4.8-1.5 1.7-4 1.7-2.6 0-4.1-1.7zm5.8-1.8q0.6-0.9 0.6-2.9v-2.7q0-2-0.5-3-0.6-1-1.9-1-1.2 0-1.8 0.9-0.6 1-0.6 3v2.7q0 2 0.6 3 0.6 0.9 1.9 0.9 1.2 0 1.7-0.9zm5.9 3.3v-15.3h5.2q2.3 0 3.6 1.4 1.3 1.4 1.3 3.6 0 2.3-1.3 3.6-1.3 1.3-3.7 1.3h-2v5.4zm6.5-8.5q0.5-0.6 0.5-1.7 0-1.2-0.5-1.8-0.2-0.4-0.6-0.6-0.3-0.1-0.7-0.1h-2.1v4.7h2.1q0.9 0 1.3-0.5zm14.4 8.5zm0 0h-8.7v-15.3h8.7v2.6h-5.7v3.6h4.8v2.5h-4.8v4h5.7z"/>
		<path id="Layer" fill-rule="evenodd" class="s11" d="m1170.2 232.2q-2.1 0-3.2-1.3-1.2-1.2-1.2-3.5h3.1q0 2.2 1.3 2.2 1.3 0 1.3-2.5v-10.4h3.1v10.6q0 2.2-1.2 3.5-1.2 1.4-3.2 1.4zm11.7 0q-2.4 0-3.7-1.3-1.3-1.3-1.3-3.7v-10.5h3.1v10.5q0 1.3 0.4 1.9 0.4 0.5 1.5 0.5 1.1 0 1.5-0.5 0.4-0.6 0.5-1.8v-10.6h3v10.6q0 2.3-1.3 3.6-1.3 1.3-3.7 1.3zm10.4-0.2h-3v-15.3h3l4.5 10v-10h3.1v15.3h-3.1l-4.5-10.1zm11.3-1.4q-1.4-1.6-1.5-4.7v-2.8q0-3.1 1.4-4.9 1.4-1.7 4-1.7 2.5 0 3.7 1.3 1.3 1.2 1.5 3.8h-3q-0.1-1.4-0.6-2-0.5-0.5-1.5-0.5-1.2 0-1.8 0.9-0.6 0.9-0.6 2.9v2.8q0 2.1 0.6 3 0.7 1 2.1 1 0.9 0 1.4-0.4l0.3-0.2v-2.8h-2.1v-2.3h5.2v6.3c-0.6 0.7-1.4 1.2-2.2 1.5q-1.3 0.4-2.8 0.4-2.6 0-4.1-1.6zm11.3 1.4v-15.3h8.4v2.6h-5.4v3.9h4.8v2.6h-4.8v6.2zm10.2 0v-15.3h4.9q2.3 0 3.6 1.3 1.3 1.2 1.3 3.4 0 3-2.3 4.2l2.7 6.3v0.1h-3.3l-2.3-5.5h-1.5v5.5zm6.2-8.7q0.5-0.6 0.5-1.7 0-2.3-1.8-2.3h-1.8v4.6h1.7q0.9 0 1.4-0.6zm4.7 8.7l4.7-15.2h2.8l4.8 15.2h-3.3l-0.8-3.1h-4.2l-0.8 3.1zm6.1-11.1l-1.4 5.4h2.9zm8.6 10.1q-1.3-1.3-1.3-3.7v-10.5h3.1v10.5q0 1.3 0.4 1.9 0.4 0.5 1.5 0.5 1.1 0 1.5-0.5 0.4-0.6 0.4-1.8v-10.6h3.1v10.6q0 2.4-1.3 3.6-1.3 1.3-3.7 1.3-2.4 0-3.7-1.3zm14.7 1.3q-2.1 0-3.2-1.2-1.2-1.3-1.2-3.5h3.1q0 2.1 1.3 2.1 1.3 0 1.3-2.5v-10.4h3.1v10.6q0 2.2-1.2 3.6-1.3 1.3-3.2 1.3zm12.1 0q-2.6 0-4.1-1.7-1.4-1.7-1.4-4.7v-2.6q0-3.2 1.4-4.9 1.5-1.8 4-1.8 2.6 0 4 1.7 1.5 1.8 1.5 4.9v2.6q0 3.1-1.4 4.8-1.5 1.7-4 1.7zm1.8-3.5q0.5-0.9 0.6-2.9v-2.6q-0.1-2.1-0.6-3.1-0.6-1-1.8-1-1.3 0-1.9 0.9-0.5 1-0.6 3v2.7q0 2 0.6 3 0.6 0.9 1.9 0.9 1.2 0 1.8-0.9zm6.9 1.8q-1.4-1.7-1.3-4.9v-2.5q0-3.2 1.4-4.9 1.4-1.7 3.9-1.7 2.5 0 3.8 1.4 1.3 1.4 1.5 4h-3.1q-0.1-1.6-0.5-2.2-0.5-0.7-1.7-0.6-1.2-0.1-1.7 0.8-0.5 0.9-0.6 2.9v2.9q0 2.2 0.5 3.1 0.6 0.8 1.8 0.8 1.2 0 1.7-0.6 0.4-0.6 0.5-2.1h3.1q-0.2 2.6-1.5 4-1.4 1.3-3.8 1.3-2.6 0-4-1.7zm11.1 1.5v-15.3h3.1v6.2h4.5v-6.2h3.1v15.3h-3.1v-6.6h-4.5v6.6zm-127.8 25.4v-12.7h-3.6v-2.6h10.5v2.6h-3.8v12.7zm9.6-1.5q-1.5-1.7-1.5-4.7v-2.6q0-3.2 1.4-4.9 1.5-1.8 4.1-1.8 2.5 0 4 1.7 1.4 1.8 1.5 4.9v2.6q0 3.1-1.5 4.8-1.4 1.7-4 1.7-2.6 0-4-1.7zm5.8-1.8q0.6-0.9 0.6-2.9v-2.6q0-2.1-0.6-3.1-0.6-1-1.8-1-1.2 0-1.8 1-0.6 0.9-0.6 2.9v2.7q0 2 0.6 3 0.6 0.9 1.8 0.9 1.2 0 1.8-0.9zm8.9 3.3zm0 0h-3v-15.3h5.2q2.2 0 3.6 1.4 1.3 1.4 1.3 3.7 0 2.2-1.3 3.5-1.4 1.3-3.7 1.3h-2.1zm3.5-8.5q0.5-0.6 0.5-1.7 0-1.1-0.5-1.8-0.2-0.3-0.6-0.5-0.3-0.2-0.7-0.2h-2.2v4.8h2.2q0.8 0 1.3-0.6zm11.8 7.1q-1.5-1.7-1.5-4.8v-2.6q0-3.1 1.5-4.9 1.4-1.8 4-1.8 2.5 0 4 1.8 1.5 1.7 1.5 4.8v2.7q0 3-1.5 4.7-1.4 1.7-4 1.7-2.5 0-4-1.6zm5.8-1.9q0.6-0.9 0.6-2.8v-2.7q0-2.1-0.6-3.1-0.6-1-1.8-1-1.2 0-1.8 1-0.6 1-0.6 2.9v2.8q0 2 0.6 2.9 0.6 1 1.8 1 1.2 0 1.8-1zm5.9 3.3v-15.3h8.4v2.6h-5.3v3.9h4.7v2.6h-4.7v6.2zm23.8 0h-8.7v-15.3h8.7v2.6h-5.7v3.6h4.8v2.5h-4.8v4.1h5.7zm2.9-1.1q-1.3-1.3-1.3-3.7v-10.5h3.1v10.5q0 1.3 0.5 1.9 0.4 0.5 1.5 0.5 1.1 0 1.5-0.5 0.4-0.6 0.4-1.8v-10.6h3.1v10.6q-0.1 2.4-1.3 3.6-1.3 1.3-3.7 1.3-2.5 0-3.8-1.3zm11.1 1.1v-15.3h4.9q2.3 0 3.6 1.2 1.2 1.2 1.2 3.4 0 3.1-2.2 4.3l2.7 6.2v0.2h-3.3l-2.3-5.6h-1.5v5.6zm6.2-8.8q0.4-0.6 0.4-1.6 0-2.3-1.8-2.3h-1.8v4.5h1.8q0.9 0 1.4-0.6zm6.8 7.3q-1.4-1.7-1.4-4.7v-2.6q-0.1-3.2 1.4-5 1.5-1.7 4-1.7 2.6 0 4 1.7 1.5 1.8 1.5 4.9v2.6q0 3.1-1.4 4.8-1.5 1.7-4 1.7-2.6 0-4.1-1.7zm5.8-1.8q0.6-0.9 0.6-2.9v-2.7q0-2-0.5-3-0.6-1-1.9-1-1.2 0-1.8 0.9-0.6 1-0.6 3v2.7q0 2 0.6 3 0.6 0.9 1.9 0.9 1.2 0 1.7-0.9zm5.9 3.3v-15.3h5.2q2.3 0 3.6 1.4 1.3 1.4 1.3 3.6 0 2.3-1.3 3.6-1.3 1.3-3.7 1.3h-2v5.4zm6.5-8.5q0.5-0.6 0.5-1.7 0-1.2-0.5-1.8-0.2-0.4-0.6-0.6-0.3-0.1-0.7-0.1h-2.1v4.7h2.1q0.9 0 1.3-0.5zm14.4 8.5zm0 0h-8.7v-15.3h8.7v2.6h-5.7v3.6h4.8v2.5h-4.8v4h5.7z"/>
	</g>
	<path id="Layer" class="s6" d="m1165.5 210.6h170.3c0.6 0 1.1 0.2 1.5 0.6 0.4 0.3 0.7 0.8 0.7 1.3v52.8c0 0.6-0.3 1.1-0.7 1.4-0.4 0.4-0.9 0.6-1.5 0.6h-170.3c-0.5 0-1.1-0.2-1.5-0.6-0.4-0.3-0.6-0.8-0.6-1.4v-52.8c0-0.5 0.2-1 0.6-1.3 0.4-0.4 1-0.6 1.5-0.6z"/>
	<path id="Layer" fill-rule="evenodd" class="s12" d="m107.4 868.5v33.6q0 3.9-2.5 6.5-2.4 2.5-6.7 2.5-4.7 0-7.2-2.9-2.6-2.8-2.6-7.9h1.2q0 4.2 2.1 7 2 2.7 6.5 2.7 4.3 0 6.1-2.3 1.9-2.4 1.9-5.6v-33.6zm36.5 9.8v32.4h-1.2v-8.8q-1.1 4.6-4.5 7-3.5 2.4-8.2 2.4-5.7 0-9.4-3.5-3.6-3.6-3.6-10.7v-18.8h1.1v18.9q0 6.4 3.2 9.7 3.2 3.3 8.7 3.3 5.8 0 9.2-3.7 3.5-3.8 3.5-11.1v-17.1zm24.2-0.7q5.7 0 9.3 3.5 3.7 3.6 3.7 10.7v18.9h-1.2v-19q0-6.4-3.1-9.7-3.2-3.3-8.7-3.3-5.8 0-9.3 3.7-3.5 3.8-3.5 11.1v17.2h-1.2v-32.4h1.2v8.5q1.2-4.5 4.6-6.8 3.4-2.4 8.2-2.4zm37.2 0.3q5.5 0 9.4 2.9 3.9 2.8 5.2 7.3v-9.8h1.1v33.6q0 4.5-1.9 7.8-2 3.4-5.3 5.1-3.3 1.7-7.1 1.7-5.9 0-9.8-2.8-3.8-2.9-5.3-7.7h1.2q1.4 4.4 4.9 6.9 3.5 2.6 9 2.6 3.7 0 6.7-1.7 3-1.7 4.8-4.8 1.7-3 1.7-7.1v-11q-1.3 4.5-5.2 7.3-3.9 2.9-9.4 2.9-4.7 0-8.3-2-3.6-2-5.5-5.7-2-3.8-2-8.9 0-5.1 2-8.8 1.9-3.8 5.5-5.8 3.6-2 8.3-2zm14.6 16.6q0-4.6-1.9-8.1-1.9-3.5-5.2-5.5-3.3-1.9-7.5-1.9-4.5 0-7.8 1.8-3.2 1.9-5 5.4-1.8 3.5-1.8 8.3 0 4.8 1.8 8.3 1.8 3.5 5 5.4 3.3 1.8 7.8 1.8 4.2 0 7.5-1.9 3.3-2 5.2-5.4 1.9-3.6 1.9-8.2zm23.2-27q-5.2 0-7.2 2-2.1 2-2.1 6.5v2.3h9.3v1.3h-9.3v31.1h-1.2v-31.1h-5.3v-1.3h5.3v-2.3q0-4.9 2.4-7.3 2.4-2.4 8.1-2.4zm8.4 18.7q2-8.6 12.8-8.6v1.3h-0.5q-5.1 0-8.7 3-3.6 2.9-3.6 9.5v19.3h-1.2v-32.4h1.2zm17.6 8.3q0-5.1 2-8.8 2-3.8 5.6-5.7 3.6-2.1 8.2-2.1 5.6 0 9.4 3 3.9 2.8 5.2 7.3v-9.9h1.2v32.4h-1.2v-9.9q-1.3 4.5-5.2 7.5-3.8 2.9-9.4 2.9-4.6 0-8.2-2-3.6-2.1-5.6-5.8-2-3.8-2-8.9zm30.4 0q0-4.6-1.9-8.1-1.8-3.5-5.2-5.4-3.3-2-7.5-2-4.4 0-7.7 1.9-3.3 1.8-5.1 5.4-1.8 3.4-1.8 8.2 0 4.8 1.8 8.4 1.8 3.5 5.1 5.3 3.3 1.9 7.7 1.9 4.2 0 7.5-1.9 3.4-2 5.2-5.5 1.9-3.5 1.9-8.2zm38-16.2v32.4h-1.2v-8.8q-1.1 4.6-4.5 7-3.5 2.4-8.2 2.4-5.7 0-9.4-3.5-3.6-3.5-3.6-10.7v-18.8h1.1v18.9q0 6.4 3.2 9.8 3.2 3.3 8.7 3.3 5.8 0 9.2-3.8 3.5-3.7 3.5-11.1v-17.1z"/>
	<path id="Layer" fill-rule="evenodd" class="s7" d="m1180.5 229.6v-9.9h2.7v9.9q0 1.4-0.7 2.5-0.6 1-1.6 1.5-1.1 0.5-2.4 0.5-1.4 0-2.5-0.4-1-0.5-1.6-1.4-0.6-1-0.6-2.5h2.7q0 0.8 0.2 1.3 0.3 0.5 0.7 0.7 0.5 0.2 1.1 0.2 0.6 0 1-0.2 0.5-0.3 0.7-0.9 0.3-0.5 0.3-1.3zm13.3-9.9h2.6v9.5q0 1.6-0.7 2.7-0.7 1.1-1.9 1.7-1.2 0.5-2.7 0.5-1.6 0-2.8-0.5-1.2-0.6-1.9-1.7-0.7-1.1-0.7-2.7v-9.5h2.6v9.5q0.1 1 0.4 1.6 0.3 0.6 0.9 0.9 0.6 0.3 1.5 0.3 0.8 0 1.4-0.3 0.6-0.3 0.9-0.9 0.3-0.6 0.3-1.6zm16.7 0v14.2h-2.7l-6-9.9v9.9h-2.7v-14.2h2.7l6 9.8v-9.8zm13.8 6.8v5.6q-0.3 0.4-0.9 0.8-0.7 0.5-1.8 0.9-1.1 0.3-2.6 0.3-1.4 0-2.5-0.5-1.1-0.4-1.9-1.3-0.8-0.9-1.3-2.2-0.4-1.2-0.4-2.9v-0.9q0-1.6 0.4-2.9 0.4-1.3 1.2-2.1 0.8-0.9 1.9-1.4 1-0.4 2.4-0.4 1.8 0 3 0.6 1.1 0.6 1.8 1.6 0.6 1 0.7 2.4h-2.6q-0.1-0.8-0.4-1.3-0.3-0.6-0.9-0.9-0.6-0.3-1.5-0.3-0.8 0-1.4 0.3-0.6 0.3-1.1 0.9-0.4 0.6-0.6 1.5-0.2 0.9-0.2 2v0.9q0 1.2 0.2 2.1 0.3 0.9 0.7 1.5 0.5 0.6 1.1 0.9 0.7 0.3 1.5 0.3 0.8 0 1.3-0.2 0.5-0.1 0.8-0.3 0.3-0.2 0.5-0.3v-2.7h-2.9v-2zm5.3-0.7h5.7v2.1h-5.7v6h-2.7v-14.2h9.2v2.1h-6.5zm8.3-6.2h5.1q1.7 0 2.8 0.5 1.2 0.5 1.8 1.5 0.7 0.9 0.7 2.3 0 1.1-0.4 1.9-0.4 0.9-1.1 1.4-0.5 0.4-1.1 0.6l3.1 5.9v0.2h-2.9l-2.8-5.4h-2.5v5.4h-2.7zm2.7 8.8v-2.1h-0.9v2.1zm2.5-2.1q0.8 0 1.4-0.3 0.5-0.3 0.8-0.8 0.3-0.5 0.3-1.2 0-0.7-0.3-1.2-0.3-0.5-0.8-0.8-0.6-0.3-1.4-0.3h-2.5v4.6zm9.1 7.5h-2.8l5.3-14.2h2.5l5.3 14.2h-2.8l-1.1-3.2h-5.3zm3.7-11l-1.9 5.7h3.8zm15.8-3.1h2.7v9.4q0 1.6-0.7 2.7-0.7 1.1-1.9 1.7-1.2 0.6-2.8 0.6-1.5 0-2.7-0.6-1.3-0.6-2-1.7-0.6-1.1-0.6-2.7v-9.4h2.6v9.4q0 1 0.4 1.6 0.3 0.7 0.9 1 0.6 0.3 1.4 0.3 0.9 0 1.5-0.3 0.6-0.3 0.9-1 0.3-0.6 0.3-1.6zm11.1 9.9v-9.9h2.7v9.9q-0.1 1.4-0.7 2.4-0.6 1-1.6 1.6-1.1 0.5-2.4 0.5-1.4 0-2.5-0.4-1.1-0.5-1.7-1.5-0.6-0.9-0.6-2.4h2.7q0 0.8 0.3 1.3 0.2 0.5 0.7 0.7 0.4 0.2 1.1 0.2 0.6 0 1-0.3 0.5-0.3 0.7-0.8 0.3-0.5 0.3-1.3zm16.8-3.2v0.8q0 1.6-0.4 2.9-0.4 1.3-1.2 2.2-0.8 0.9-1.9 1.3-1.1 0.5-2.4 0.5-1.4 0-2.5-0.5-1.1-0.4-1.9-1.3-0.8-0.9-1.2-2.2-0.4-1.3-0.4-2.9v-0.8q0-1.6 0.4-2.9 0.5-1.2 1.2-2.1 0.8-0.9 1.9-1.4 1.1-0.5 2.4-0.5 1.4 0 2.5 0.5 1.1 0.5 1.9 1.4 0.8 0.9 1.2 2.1 0.4 1.3 0.4 2.9zm-2.7 0.8v-0.8q0-1.1-0.2-2-0.2-0.9-0.6-1.5-0.5-0.6-1.1-0.9-0.6-0.3-1.4-0.3-0.7 0-1.3 0.3-0.6 0.3-1.1 0.9-0.4 0.6-0.6 1.5-0.2 0.9-0.2 2v0.8q0 1.1 0.2 2 0.2 0.9 0.6 1.5 0.5 0.6 1.1 0.9 0.6 0.4 1.4 0.4 0.7 0 1.4-0.4 0.6-0.3 1-0.9 0.4-0.6 0.6-1.5 0.2-0.9 0.2-2zm13.3 2h2.7q-0.1 1.5-0.8 2.6-0.7 1.1-1.9 1.7-1.2 0.6-2.9 0.6-1.4 0-2.5-0.5-1-0.4-1.8-1.3-0.7-0.9-1.1-2.1-0.4-1.3-0.4-2.8v-1.1q0-1.6 0.4-2.8 0.4-1.3 1.2-2.2 0.7-0.8 1.8-1.3 1.1-0.5 2.4-0.5 1.8 0 3 0.6 1.2 0.7 1.8 1.8 0.7 1.1 0.8 2.5h-2.7q0-0.9-0.4-1.5-0.3-0.6-0.9-0.9-0.6-0.4-1.6-0.4-0.8 0-1.4 0.3-0.5 0.3-0.9 0.9-0.4 0.6-0.6 1.5-0.2 0.8-0.2 2v1.1q0 1 0.2 1.9 0.1 0.9 0.5 1.5 0.4 0.5 1 0.9 0.5 0.3 1.4 0.3 0.9 0 1.6-0.3 0.6-0.4 0.9-1 0.3-0.6 0.4-1.5zm7.5-1.5v6.2h-2.7v-14.2h2.7v5.9h6v-5.9h2.7v14.2h-2.7v-6.2zm-136.7 30.2h-2.7v-12.1h-4.3v-2.1h11.4v2.1h-4.4zm17.4-7.5v0.8q0 1.6-0.4 2.9-0.4 1.3-1.2 2.2-0.8 0.9-1.9 1.3-1.1 0.5-2.4 0.5-1.4 0-2.4-0.5-1.1-0.4-1.9-1.3-0.8-0.9-1.3-2.2-0.4-1.3-0.4-2.9v-0.8q0-1.6 0.4-2.9 0.5-1.2 1.2-2.1 0.8-0.9 1.9-1.4 1.1-0.5 2.5-0.5 1.3 0 2.4 0.5 1.1 0.5 1.9 1.4 0.8 0.9 1.2 2.1 0.4 1.3 0.4 2.9zm-2.7 0.8v-0.8q0-1.1-0.2-2-0.2-0.9-0.6-1.5-0.4-0.6-1.1-0.9-0.6-0.3-1.3-0.3-0.8 0-1.4 0.3-0.6 0.3-1 0.9-0.5 0.6-0.7 1.5-0.2 0.9-0.2 2v0.8q0 1.1 0.2 2 0.2 0.9 0.7 1.5 0.4 0.6 1 0.9 0.6 0.4 1.4 0.4 0.7 0 1.4-0.4 0.6-0.3 1-0.9 0.4-0.6 0.6-1.5 0.2-0.9 0.2-2zm10.5 1.5h-2.8v5.2h-2.7v-14.2h5.5q1.6 0 2.8 0.6 1.2 0.6 1.8 1.6 0.6 1.1 0.6 2.4 0 1.4-0.6 2.4-0.6 1-1.8 1.5-1.2 0.5-2.8 0.5zm-2.8 0v-2.1h-0.9v2.1zm2.8-2.1q0.9 0 1.5-0.3 0.5-0.3 0.8-0.8 0.2-0.5 0.3-1.2-0.1-0.6-0.3-1.2-0.3-0.6-0.8-0.9-0.6-0.4-1.5-0.4h-2.8v4.8zm23.9-0.2v0.8q0 1.6-0.4 2.9-0.5 1.3-1.3 2.2-0.8 0.9-1.9 1.3-1.1 0.5-2.4 0.5-1.3 0-2.4-0.5-1.1-0.4-1.9-1.3-0.8-0.9-1.2-2.2-0.5-1.3-0.5-2.9v-0.8q0-1.6 0.5-2.9 0.4-1.2 1.2-2.1 0.8-0.9 1.9-1.4 1.1-0.5 2.4-0.5 1.3 0 2.4 0.5 1.1 0.5 1.9 1.4 0.8 0.9 1.2 2.1 0.5 1.3 0.5 2.9zm-2.7 0.8v-0.8q0-1.1-0.2-2-0.3-0.9-0.7-1.5-0.4-0.6-1-0.9-0.6-0.3-1.4-0.3-0.8 0-1.4 0.3-0.6 0.3-1 0.9-0.4 0.6-0.6 1.5-0.3 0.9-0.3 2v0.8q0 1.1 0.3 2 0.2 0.9 0.6 1.5 0.4 0.6 1 0.9 0.6 0.4 1.4 0.4 0.8 0 1.4-0.4 0.6-0.3 1-0.9 0.4-0.6 0.7-1.5 0.2-0.9 0.2-2zm7.6-1.4h5.8v2.2h-5.8v5.9h-2.6v-14.2h9.1v2.1h-6.5zm22.8 6v2.1h-9.5v-14.2h9.4v2.1h-6.7v3.7h5.8v2.1h-5.8v4.2zm9.8-12.1h2.7v9.4q0 1.7-0.7 2.8-0.7 1.1-1.9 1.6-1.2 0.6-2.8 0.6-1.5 0-2.8-0.6-1.2-0.5-1.9-1.6-0.7-1.1-0.7-2.8v-9.4h2.7v9.4q0 1 0.3 1.7 0.4 0.6 1 0.9 0.6 0.3 1.4 0.3 0.9 0 1.5-0.3 0.6-0.3 0.9-0.9 0.3-0.7 0.3-1.7zm5.2 0h5.2q1.6 0 2.8 0.5 1.1 0.5 1.8 1.5 0.6 0.9 0.6 2.3 0 1.1-0.4 1.9-0.4 0.8-1.1 1.4-0.5 0.4-1.1 0.6l3.1 5.9v0.1h-2.8l-2.8-5.3h-2.6v5.3h-2.7zm2.7 8.9v-2.1h-0.9v2.1zm2.6-2.1q0.8 0 1.3-0.3 0.6-0.3 0.9-0.8 0.2-0.6 0.2-1.2 0-0.7-0.2-1.3-0.3-0.5-0.9-0.8-0.5-0.2-1.4-0.2h-2.5v4.6zm19.1 0v0.7q0 1.6-0.5 2.9-0.4 1.3-1.2 2.2-0.8 0.9-1.9 1.4-1.1 0.5-2.4 0.5-1.3 0-2.4-0.5-1.1-0.5-1.9-1.4-0.8-0.9-1.2-2.2-0.5-1.3-0.5-2.9v-0.7q0-1.6 0.5-2.9 0.4-1.3 1.2-2.2 0.8-0.9 1.9-1.4 1.1-0.5 2.4-0.5 1.3 0 2.4 0.5 1.1 0.5 1.9 1.4 0.8 0.9 1.2 2.2 0.5 1.3 0.5 2.9zm-2.7 0.7v-0.7q0-1.2-0.3-2.1-0.2-0.9-0.6-1.5-0.4-0.6-1-0.9-0.6-0.3-1.4-0.3-0.8 0-1.4 0.3-0.6 0.3-1 0.9-0.4 0.6-0.7 1.5-0.2 0.9-0.2 2.1v0.7q0 1.2 0.2 2.1 0.3 0.8 0.7 1.5 0.4 0.6 1 0.9 0.6 0.3 1.4 0.3 0.8 0 1.4-0.3 0.6-0.3 1-0.9 0.4-0.7 0.6-1.5 0.3-0.9 0.3-2.1zm10.4 1.6h-2.8v5.2h-2.6v-14.3h5.4q1.7 0 2.9 0.6 1.1 0.6 1.8 1.7 0.6 1 0.6 2.3 0 1.4-0.6 2.4-0.7 1-1.8 1.5-1.2 0.6-2.9 0.6zm-2.8 0v-2.1h-0.8v2.1zm2.8-2.1q0.8 0 1.4-0.3 0.6-0.3 0.8-0.9 0.3-0.5 0.3-1.2 0-0.6-0.3-1.2-0.2-0.5-0.8-0.9-0.6-0.3-1.4-0.3h-2.8v4.8zm16.7 5.1v2.2h-9.4v-14.3h9.4v2.2h-6.7v3.7h5.8v2.1h-5.8v4.1z"/>
	<g id="Layer">
		<path id="Layer" class="s7" d="m636.7 407.2v5.6q-0.4 0.4-1 0.8-0.7 0.5-1.8 0.8-1 0.4-2.6 0.4-1.4 0-2.5-0.5-1.1-0.4-1.9-1.3-0.8-0.9-1.3-2.2-0.4-1.2-0.4-2.9v-0.9q0-1.6 0.4-2.9 0.4-1.3 1.2-2.2 0.8-0.8 1.9-1.3 1.1-0.5 2.4-0.5 1.8 0 3 0.6 1.1 0.6 1.8 1.7 0.6 1 0.8 2.4h-2.7q-0.1-0.8-0.4-1.3-0.3-0.6-0.9-0.9-0.6-0.3-1.5-0.3-0.8 0-1.4 0.3-0.6 0.3-1 0.9-0.5 0.6-0.7 1.5-0.2 0.8-0.2 2v0.9q0 1.2 0.3 2.1 0.2 0.8 0.6 1.4 0.5 0.6 1.1 1 0.7 0.3 1.5 0.3 0.8 0 1.3-0.2 0.5-0.1 0.8-0.3 0.3-0.2 0.5-0.4v-2.6h-2.8v-2zm2.5-6.9h5.2q1.6 0 2.7 0.5 1.2 0.5 1.8 1.5 0.7 0.9 0.7 2.3 0 1.1-0.4 1.9-0.4 0.9-1.1 1.4-0.7 0.6-1.7 0.9l-0.8 0.4h-4.6v-2.1h3.4q0.8 0 1.4-0.3 0.5-0.3 0.8-0.8 0.3-0.5 0.3-1.2 0-0.7-0.3-1.2-0.3-0.6-0.8-0.8-0.6-0.3-1.4-0.3h-2.5v12.1h-2.7zm8 14.2l-3.3-6.4h2.9l3.3 6.2v0.2zm7.5-14.2v14.2h-2.6v-14.2zm14.3 0v14.2h-2.7l-6.1-9.9v9.9h-2.6v-14.2h2.6l6.1 9.8v-9.8zm7 14.2h-3.1v-2.1h3.1q1.2 0 2.1-0.6 0.8-0.5 1.2-1.6 0.5-1 0.5-2.5v-0.7q0-1.1-0.3-2-0.2-0.8-0.7-1.4-0.5-0.6-1.2-0.9-0.6-0.3-1.5-0.3h-3.2v-2.1h3.2q1.4 0 2.6 0.4 1.1 0.5 2 1.4 0.9 0.9 1.3 2.1 0.5 1.3 0.5 2.8v0.7q0 1.6-0.5 2.8-0.4 1.2-1.3 2.1-0.9 0.9-2.1 1.4-1.1 0.5-2.6 0.5zm-1.6-14.2v14.2h-2.7v-14.2zm19.8 12.1v2.1h-7.5v-2.1zm-6.8-12.1v14.2h-2.7v-14.2zm5.8 5.8v2.1h-6.6v-2.1zm1-5.8v2.1h-7.6v-2.1zm11 12.1v2.1h-7.2v-2.1zm-6.3-12.1v14.2h-2.7v-14.2zm10.5 11.5l2.8-11.5h1.5l0.1 2.4-3 11.8h-1.6zm-1.8-11.5l2.3 11.4v2.8h-1.8l-3.2-14.2zm9.2 11.4l2.3-11.4h2.7l-3.2 14.2h-1.8zm-2.3-11.4l2.8 11.5 0.2 2.7h-1.6l-3.1-11.8 0.2-2.4zm14.1 2.2l-4 12h-2.9l5.4-14.2h1.8zm3.4 12.1l-4.1-12.1-0.2-2.2h1.8l5.3 14.3zm-0.2-5.3v2.1h-7.6v-2.1zm13.5 3.2v2.1h-7.1v-2.1zm-6.4-12.2v14.3h-2.6v-14.3zm12.3 14.3h-3v-2.1h3q1.3 0 2.1-0.6 0.9-0.6 1.3-1.6 0.4-1 0.4-2.5v-0.7q0-1.1-0.2-2-0.3-0.9-0.7-1.4-0.5-0.6-1.2-0.9-0.7-0.3-1.6-0.3h-3.2v-2.2h3.2q1.4 0 2.6 0.5 1.2 0.5 2 1.4 0.9 0.9 1.4 2.1 0.4 1.3 0.4 2.8v0.7q0 1.5-0.4 2.8-0.5 1.2-1.4 2.1-0.8 0.9-2 1.4-1.2 0.5-2.7 0.5zm-1.5-14.3v14.3h-2.7v-14.3z"/>
	</g>
	<path id="Layer" class="s6" d="m506.4 462.9c0-2.3 1.8-4 4-4h200.2c2.2 0 4 1.7 4 4v23c0 2.2-1.8 4-4 4h-200.2c-2.2 0-4-1.8-4-4z"/>
	<g id="Layer">
		<path id="Layer" class="s7" d="m523.3 473.2v5.6q-0.3 0.4-1 0.8-0.7 0.5-1.8 0.9-1 0.3-2.6 0.3-1.3 0-2.5-0.5-1.1-0.4-1.9-1.3-0.8-0.9-1.3-2.1-0.4-1.3-0.4-2.9v-1q0-1.6 0.4-2.9 0.4-1.2 1.2-2.1 0.8-0.9 1.9-1.4 1.1-0.4 2.4-0.4 1.8 0 3 0.6 1.2 0.6 1.8 1.6 0.6 1 0.8 2.4h-2.7q-0.1-0.7-0.4-1.3-0.3-0.6-0.9-0.9-0.6-0.3-1.5-0.3-0.8 0-1.4 0.3-0.6 0.3-1 0.9-0.4 0.6-0.7 1.5-0.2 0.9-0.2 2v1q0 1.1 0.3 2 0.2 0.9 0.6 1.5 0.5 0.6 1.1 0.9 0.7 0.3 1.5 0.3 0.8 0 1.3-0.1 0.5-0.2 0.8-0.4 0.3-0.2 0.5-0.3v-2.7h-2.8v-2zm2.5-6.8h5.2q1.6 0 2.8 0.5 1.1 0.5 1.7 1.4 0.7 1 0.7 2.4 0 1.1-0.4 1.9-0.4 0.8-1.1 1.3-0.7 0.6-1.7 0.9l-0.8 0.4h-4.6v-2.1h3.4q0.8 0 1.4-0.3 0.5-0.3 0.8-0.8 0.3-0.5 0.3-1.2 0-0.7-0.3-1.2-0.3-0.5-0.8-0.8-0.6-0.3-1.4-0.3h-2.5v12.1h-2.7zm8 14.2l-3.3-6.4h2.9l3.3 6.3v0.1zm7.6-14.2v14.2h-2.7v-14.2zm14.3 0v14.2h-2.7l-6-9.8v9.8h-2.7v-14.2h2.7l6 9.9v-9.9zm7 14.2h-3.1l0.1-2.1h3q1.2 0 2.1-0.5 0.8-0.6 1.3-1.6 0.4-1.1 0.4-2.5v-0.8q0-1.1-0.3-1.9-0.2-0.9-0.7-1.5-0.5-0.6-1.1-0.9-0.7-0.3-1.6-0.3h-3.2v-2.1h3.2q1.4 0 2.6 0.5 1.1 0.5 2 1.4 0.9 0.8 1.3 2.1 0.5 1.2 0.5 2.8v0.7q0 1.5-0.5 2.7-0.4 1.3-1.3 2.2-0.9 0.9-2 1.3-1.2 0.5-2.7 0.5zm-1.6-14.2v14.2h-2.6v-14.2zm19.7 12.1v2.1h-7.5v-2.1zm-6.8-12.1v14.2h-2.7v-14.2zm5.8 5.9v2h-6.6v-2zm1-5.9v2.1h-7.6v-2.1zm11 12.1v2.1h-7.2v-2.1zm-6.3-12.1v14.2h-2.7v-14.2zm10.5 11.5l2.8-11.5h1.5l0.1 2.4-3 11.8h-1.6zm-1.8-11.5l2.3 11.5v2.7h-1.7l-3.3-14.2zm9.2 11.4l2.3-11.4h2.7l-3.2 14.2h-1.8zm-2.3-11.4l2.8 11.6 0.2 2.7h-1.6l-3-11.9 0.1-2.4zm14.2 2.2l-4.1 12.1h-2.8l5.3-14.3h1.8zm3.4 12.1l-4.1-12.1-0.2-2.1h1.8l5.3 14.2zm-0.2-5.3v2.1h-7.6v-2.1zm13.5 3.2v2.1h-7.1v-2.1zm-6.3-12.1v14.2h-2.7v-14.2zm12.4 14.2h-3.1v-2.1h3.1q1.2 0 2-0.6 0.9-0.5 1.3-1.6 0.4-1 0.4-2.5v-0.7q0-1.1-0.2-2-0.3-0.8-0.7-1.4-0.5-0.6-1.2-0.9-0.7-0.3-1.6-0.3h-3.2v-2.1h3.2q1.4 0 2.6 0.5 1.2 0.4 2.1 1.3 0.8 0.9 1.3 2.2 0.5 1.2 0.5 2.7v0.7q0 1.6-0.5 2.8-0.5 1.3-1.3 2.2-0.9 0.8-2.1 1.3-1.2 0.5-2.6 0.5zm-1.6-14.2v14.2h-2.7v-14.2zm15.3 7.1v2h-5.4v-2zm5.1-7.1v14.2h-2.6v-14.2zm5.7 6.1v2.1h-6.5v-2.1zm0.8-6.1v2.1h-7.2v-2.1zm4.7 0v14.2h-2.7v-14.2zm2.9 0h5.2q1.6 0 2.8 0.5 1.1 0.5 1.8 1.4 0.6 1 0.6 2.4 0 1.1-0.4 1.9-0.4 0.8-1.1 1.3-0.7 0.6-1.7 0.9l-0.8 0.4h-4.6v-2.1h3.4q0.8 0 1.4-0.3 0.5-0.3 0.8-0.8 0.3-0.5 0.3-1.2 0-0.7-0.3-1.2-0.3-0.5-0.8-0.8-0.6-0.3-1.4-0.3h-2.5v12.1h-2.7zm8 14.2l-3.2-6.4h2.8l3.3 6.3v0.1zm12.2-3.7q0-0.4-0.2-0.7-0.1-0.3-0.4-0.6-0.3-0.3-0.9-0.5-0.6-0.3-1.5-0.6-1-0.3-1.8-0.7-0.9-0.4-1.5-0.9-0.7-0.5-1-1.2-0.4-0.7-0.4-1.6 0-0.8 0.4-1.6 0.3-0.7 1-1.2 0.7-0.5 1.7-0.8 0.9-0.3 2.1-0.3 1.5 0 2.7 0.6 1.2 0.6 1.8 1.5 0.6 1 0.6 2.3h-2.6q0-0.7-0.3-1.2-0.3-0.5-0.9-0.8-0.5-0.3-1.4-0.3-0.8 0-1.3 0.2-0.6 0.3-0.9 0.7-0.2 0.4-0.2 0.9 0 0.4 0.2 0.7 0.2 0.3 0.5 0.6 0.4 0.3 0.9 0.5 0.6 0.2 1.3 0.5 1.2 0.3 2.1 0.7 0.9 0.5 1.5 1 0.6 0.6 0.8 1.3 0.3 0.6 0.3 1.5 0 0.9-0.3 1.6-0.4 0.8-1 1.3-0.7 0.5-1.7 0.7-0.9 0.3-2.1 0.3-1 0-2-0.3-1-0.2-1.8-0.8-0.9-0.6-1.4-1.4-0.4-0.9-0.4-2.1h2.7q0 0.7 0.2 1.2 0.2 0.5 0.6 0.8 0.4 0.3 0.9 0.4 0.6 0.1 1.2 0.1 0.8 0 1.4-0.2 0.5-0.2 0.8-0.6 0.3-0.4 0.3-1zm10.8-10.5v14.2h-2.7v-14.2zm4.5 0v2.1h-11.5v-2.1z"/>
	</g>
	<g id="Layer">
		<path id="Layer" class="s7" d="m821.8 454.5v5.6q-0.3 0.4-1 0.8-0.6 0.5-1.7 0.8-1.1 0.4-2.6 0.4-1.4 0-2.5-0.5-1.1-0.4-1.9-1.3-0.9-0.9-1.3-2.2-0.4-1.2-0.4-2.9v-0.9q0-1.6 0.4-2.9 0.4-1.3 1.2-2.2 0.7-0.8 1.8-1.3 1.1-0.5 2.5-0.5 1.8 0 2.9 0.6 1.2 0.6 1.8 1.7 0.7 1 0.8 2.4h-2.6q-0.1-0.8-0.4-1.3-0.4-0.6-0.9-0.9-0.6-0.3-1.6-0.3-0.8 0-1.4 0.3-0.6 0.3-1 0.9-0.4 0.6-0.6 1.5-0.2 0.8-0.2 2v0.9q0 1.2 0.2 2.1 0.3 0.8 0.7 1.4 0.4 0.6 1.1 0.9 0.7 0.4 1.5 0.4 0.8 0 1.3-0.2 0.5-0.1 0.8-0.3 0.3-0.2 0.4-0.4v-2.6h-2.8v-2zm2.6-6.9h5.1q1.6 0 2.8 0.5 1.2 0.5 1.8 1.5 0.6 0.9 0.6 2.3 0 1.1-0.4 2-0.4 0.8-1.1 1.3-0.7 0.6-1.6 0.9l-0.9 0.4h-4.5l-0.1-2.1h3.5q0.8 0 1.3-0.3 0.6-0.3 0.8-0.8 0.3-0.5 0.3-1.2 0-0.7-0.2-1.2-0.3-0.6-0.9-0.8-0.5-0.3-1.4-0.3h-2.5v12.1h-2.6zm8 14.2l-3.3-6.4h2.8l3.4 6.2v0.2zm7.5-14.2v14.2h-2.7v-14.2zm14.4 0v14.2h-2.7l-6.1-9.9v9.9h-2.7v-14.2h2.7l6.1 9.8v-9.8zm7 14.2h-3.1v-2.1h3.1q1.2 0 2-0.6 0.9-0.5 1.3-1.6 0.4-1 0.4-2.5v-0.7q0-1.1-0.2-2-0.2-0.8-0.7-1.4-0.5-0.6-1.2-0.9-0.7-0.3-1.6-0.3h-3.2v-2.1h3.2q1.4 0 2.6 0.4 1.2 0.5 2.1 1.4 0.8 0.9 1.3 2.2 0.5 1.2 0.5 2.7v0.7q0 1.6-0.5 2.8-0.5 1.3-1.3 2.1-0.9 0.9-2.1 1.4-1.2 0.5-2.6 0.5zm-1.6-14.2v14.2h-2.7v-14.2zm19.8 12.1v2.1h-7.6v-2.1zm-6.7-12.1v14.2h-2.7v-14.2zm5.7 5.8v2.1h-6.5v-2.1zm0.9-5.8v2.1h-7.5v-2.1zm10.9 12.1v2.1h-7.1v-2.1zm-6.4-12.1v14.2h-2.7v-14.2zm10.5 11.5l2.9-11.5h1.5l0.1 2.4-3 11.8h-1.7zm-1.7-11.5l2.3 11.4v2.8h-1.8l-3.2-14.2zm9.2 11.4l2.3-11.4h2.6l-3.2 14.2h-1.8zm-2.3-11.4l2.9 11.5 0.1 2.7h-1.6l-3-11.8 0.1-2.4zm14.2 2.2l-4 12h-2.9l5.3-14.2h1.8zm3.4 12.1l-4-12.1-0.3-2.2h1.8l5.4 14.3zm-0.2-5.3v2.1h-7.6v-2.1zm13.5 3.2v2.1h-7.2v-2.1zm-6.3-12.2v14.3h-2.7v-14.3zm12.4 14.3h-3.1l0.1-2.1h3q1.2 0 2.1-0.6 0.8-0.5 1.3-1.6 0.4-1 0.4-2.5v-0.7q0-1.1-0.3-2-0.2-0.9-0.7-1.4-0.4-0.6-1.1-0.9-0.7-0.3-1.6-0.3h-3.2v-2.2h3.2q1.4 0 2.6 0.5 1.1 0.5 2 1.4 0.9 0.9 1.3 2.1 0.5 1.3 0.5 2.8v0.7q0 1.5-0.5 2.8-0.4 1.2-1.3 2.1-0.9 0.9-2 1.4-1.2 0.5-2.7 0.5zm-1.6-14.3v14.3h-2.6v-14.3zm20.9 0v14.3h-2.7v-14.3zm4.4 0v2.2h-11.4v-2.2zm11.2 12.2v2.1h-7.6v-2.1zm-6.7-12.2v14.3h-2.7v-14.3zm5.8 5.9v2.1h-6.6v-2.1zm0.9-5.9v2.2h-7.5v-2.2zm1.9 0h5.2q1.6 0 2.8 0.5 1.1 0.5 1.7 1.5 0.7 0.9 0.7 2.3 0 1.1-0.4 1.9-0.4 0.9-1.1 1.4-0.7 0.6-1.7 0.9l-0.8 0.4h-4.6v-2.1h3.4q0.8 0 1.4-0.3 0.5-0.3 0.8-0.8 0.3-0.5 0.3-1.2 0-0.7-0.3-1.2-0.3-0.6-0.8-0.9-0.6-0.2-1.4-0.2h-2.5v12.1h-2.7zm8 14.2l-3.3-6.4h2.9l3.3 6.2v0.2zm5.9-14.2h2.3l3.9 10.7 3.9-10.7h2.3l-5.3 14.2h-1.8zm-1.2 0h2.3l0.4 9.8v4.4h-2.7zm12.5 0h2.2v14.2h-2.6v-4.4zm7.8 0v14.3h-2.6v-14.3zm14.3 0v14.3h-2.7l-6.1-9.9v9.9h-2.6v-14.3h2.6l6.1 9.9v-9.9zm8.6 2.2l-4.1 12.1h-2.8l5.3-14.3h1.8zm3.4 12.1l-4.1-12.1-0.2-2.1h1.8l5.3 14.2zm-0.1-5.3v2.1h-7.7v-2.1zm13.6 3.2v2.1h-7.2v-2.1zm-6.3-12.1v14.2h-2.7v-14.2z"/>
	</g>
	<g id="Layer">
		<path id="Layer" class="s7" d="m1122.2 513.1l2.8-11.5h1.5l0.2 2.4-3.1 11.8h-1.6zm-1.8-11.5l2.3 11.4v2.8h-1.7l-3.3-14.2zm9.2 11.4l2.3-11.4h2.7l-3.2 14.2h-1.8zm-2.3-11.4l2.8 11.5 0.2 2.7h-1.6l-3.1-11.8 0.2-2.4zm18.4 12.1v2.1h-7.6v-2.1zm-6.7-12.1v14.2h-2.7v-14.2zm5.7 5.9v2h-6.5v-2zm0.9-5.9v2.1h-7.5v-2.1zm13.3 0v14.2h-2.7l-6-9.8v9.8h-2.7v-14.2h2.7l6 9.9v-9.9zm13.9 6.9v5.5q-0.4 0.4-1 0.9-0.7 0.4-1.8 0.8-1 0.3-2.6 0.3-1.4 0-2.5-0.4-1.1-0.5-1.9-1.4-0.8-0.9-1.3-2.1-0.4-1.3-0.4-2.9v-1q0-1.6 0.4-2.9 0.4-1.2 1.2-2.1 0.8-0.9 1.9-1.3 1.1-0.5 2.4-0.5 1.8 0 3 0.6 1.1 0.6 1.8 1.6 0.6 1.1 0.7 2.4h-2.6q-0.1-0.7-0.4-1.3-0.3-0.6-0.9-0.9-0.6-0.3-1.5-0.3-0.8 0-1.4 0.3-0.6 0.3-1.1 0.9-0.4 0.6-0.6 1.5-0.2 0.9-0.2 2v1q0 1.1 0.3 2 0.2 0.9 0.6 1.5 0.5 0.6 1.1 0.9 0.7 0.3 1.5 0.3 0.8 0 1.3-0.1 0.5-0.2 0.8-0.3 0.3-0.2 0.5-0.4v-2.7h-2.9v-1.9zm12 5.2v2.1h-7.5v-2.1zm-6.8-12.1v14.2h-2.7v-14.2zm5.8 5.9v2h-6.6v-2zm1-5.9v2.1h-7.6v-2.1zm13.4 0v14.2h-2.7l-6.1-9.8v9.8h-2.7v-14.2h2.7l6.1 9.9v-9.9z"/>
	</g>
	<g id="Layer">
		<path id="Layer" class="s7" d="m1135.4 307.5v2.1h-7.5v-2.1zm-6.8-12.1v14.2h-2.6v-14.2zm5.7 5.8v2.1h-6.6v-2.1zm1-5.8v2.1h-7.5v-2.1zm4.7 0v14.2h-2.7v-14.2zm14 6.8v5.6q-0.3 0.4-1 0.8-0.6 0.5-1.7 0.8-1.1 0.4-2.7 0.4-1.3 0-2.4-0.5-1.2-0.4-2-1.3-0.8-0.9-1.2-2.2-0.4-1.2-0.5-2.9v-0.9q0.1-1.6 0.5-2.9 0.4-1.3 1.1-2.1 0.8-0.9 1.9-1.4 1.1-0.4 2.5-0.4 1.8 0 2.9 0.6 1.2 0.5 1.8 1.6 0.6 1 0.8 2.4h-2.6q-0.1-0.8-0.4-1.3-0.4-0.6-1-0.9-0.5-0.3-1.5-0.3-0.8 0-1.4 0.3-0.6 0.3-1 0.9-0.4 0.6-0.6 1.5-0.2 0.9-0.2 2v0.9q0 1.2 0.2 2.1 0.2 0.9 0.7 1.5 0.4 0.6 1.1 0.9 0.7 0.3 1.5 0.3 0.8 0 1.2-0.2 0.6-0.1 0.9-0.3 0.3-0.2 0.4-0.3v-2.7h-2.8v-2zm12 5.3v2.1h-7.6v-2.1zm-6.7-12.1v14.2h-2.7v-14.2zm5.7 5.8v2.1h-6.5v-2.1zm0.9-5.8v2.1h-7.5v-2.1zm1.9 0h5.2q1.6 0 2.7 0.5 1.2 0.4 1.8 1.4 0.7 1 0.6 2.3 0 1.2-0.3 2-0.4 0.8-1.1 1.3-0.7 0.6-1.7 0.9l-0.8 0.4h-4.6v-2.1h3.4q0.8 0 1.4-0.3 0.5-0.3 0.8-0.8 0.3-0.5 0.3-1.2 0-0.7-0.3-1.2-0.3-0.6-0.8-0.8-0.6-0.3-1.4-0.3h-2.5v12.1h-2.7zm8 14.2l-3.3-6.4h2.9l3.3 6.3v0.1zm20.8-7.4v5.6q-0.4 0.4-1 0.9-0.7 0.4-1.8 0.8-1 0.3-2.6 0.3-1.4 0-2.5-0.5-1.1-0.4-1.9-1.3-0.8-0.9-1.3-2.1-0.4-1.3-0.4-2.9v-1q0-1.6 0.4-2.9 0.4-1.2 1.2-2.1 0.8-0.9 1.9-1.4 1.1-0.4 2.4-0.4 1.8 0 3 0.6 1.1 0.6 1.8 1.6 0.6 1 0.7 2.4h-2.6q-0.1-0.7-0.4-1.3-0.3-0.6-0.9-0.9-0.6-0.3-1.5-0.3-0.8 0-1.4 0.3-0.6 0.3-1.1 0.9-0.4 0.6-0.6 1.5-0.2 0.9-0.2 2v1q0 1.1 0.3 2 0.2 0.9 0.6 1.5 0.5 0.6 1.1 0.9 0.7 0.3 1.5 0.3 0.8 0 1.3-0.1 0.5-0.2 0.8-0.4 0.3-0.1 0.5-0.3v-2.7h-2.9v-2zm11.6 5.3v2.1h-7.1v-2.1zm-6.4-12.1v14.2h-2.7v-14.2zm14 2.1l-4 12.1h-2.9l5.3-14.2h1.9zm3.3 12l-4-12-0.3-2.2h1.9l5.3 14.2zm-0.2-5.2v2.1h-7.6v-2.1zm12.6 0.6h2.7q-0.1 1.4-0.8 2.5-0.7 1.1-1.9 1.7-1.2 0.6-2.9 0.6-1.4 0-2.4-0.4-1.1-0.5-1.9-1.4-0.7-0.9-1.1-2.1-0.4-1.3-0.4-2.8v-1.1q0-1.6 0.4-2.8 0.4-1.3 1.2-2.1 0.7-0.9 1.8-1.4 1.1-0.5 2.4-0.5 1.8 0 3 0.7 1.2 0.6 1.8 1.7 0.7 1.1 0.8 2.6h-2.7q0-0.9-0.3-1.6-0.3-0.6-1-0.9-0.6-0.3-1.6-0.3-0.8 0-1.4 0.3-0.5 0.3-0.9 0.8-0.4 0.6-0.6 1.5-0.2 0.8-0.2 2v1.1q0 1.1 0.2 1.9 0.1 0.9 0.5 1.5 0.4 0.6 1 0.9 0.6 0.3 1.4 0.3 1 0 1.6-0.3 0.6-0.3 0.9-0.9 0.3-0.6 0.4-1.5zm7.7-9.6v14.2h-2.7v-14.2zm12.3 12.1v2.1h-7.6v-2.1zm-6.7-12.1v14.2h-2.7v-14.2zm5.8 5.9v2.1h-6.6v-2.1zm1-5.9v2.1h-7.6v-2.1zm1.9 0h5.2q1.6 0 2.8 0.5 1.1 0.5 1.8 1.5 0.6 0.9 0.6 2.3 0 1.1-0.4 1.9-0.4 0.8-1.1 1.4-0.7 0.5-1.7 0.8l-0.8 0.5h-4.6v-2.1h3.4q0.8 0 1.4-0.3 0.5-0.3 0.8-0.9 0.3-0.5 0.3-1.1 0-0.7-0.3-1.3-0.2-0.5-0.8-0.8-0.6-0.3-1.4-0.3h-2.5v12.1h-2.7zm8 14.3l-3.2-6.4h2.8l3.3 6.2v0.2z"/>
	</g>
	<g id="Layer">
		<path id="Layer" fill-rule="evenodd" class="s7" d="m926.7 592.2v14.2h-2.7l-6-9.8v9.8h-2.7v-14.2h2.7l6 9.9v-9.9zm5.6 0v14.2h-2.7v-14.2zm11.3 9.5h2.6q-0.1 1.5-0.8 2.6-0.6 1.1-1.9 1.7-1.2 0.6-2.9 0.6-1.4 0-2.4-0.5-1.1-0.4-1.9-1.3-0.7-0.9-1.1-2.1-0.4-1.3-0.4-2.8v-1.1q0-1.6 0.4-2.8 0.4-1.3 1.2-2.2 0.7-0.8 1.8-1.3 1.1-0.5 2.4-0.5 1.8 0 3 0.6 1.2 0.7 1.8 1.8 0.7 1.1 0.8 2.5h-2.6q-0.1-0.9-0.4-1.5-0.3-0.6-0.9-0.9-0.7-0.4-1.7-0.4-0.7 0-1.3 0.3-0.6 0.3-1 0.9-0.4 0.6-0.6 1.5-0.2 0.8-0.2 2v1.1q0 1 0.2 1.9 0.2 0.9 0.5 1.5 0.4 0.5 1 0.9 0.6 0.3 1.4 0.3 1 0 1.6-0.3 0.6-0.4 0.9-1 0.4-0.6 0.5-1.5zm14.1 2.6v2.1h-9.4v-14.2h9.4v2.1h-6.7v3.8h5.8v2h-5.8v4.2zm6.9-12.1h5.1q1.6 0 2.8 0.5 1.2 0.5 1.8 1.4 0.6 1 0.6 2.4 0 1.1-0.4 1.9-0.4 0.8-1.1 1.4-0.5 0.3-1.1 0.6l3.2 5.9v0.1h-2.9l-2.8-5.4h-2.6v5.4h-2.6zm2.6 8.9v-2.2h-0.9l0.1 2.2zm2.5-2.2q0.8 0 1.3-0.2 0.6-0.3 0.9-0.9 0.2-0.5 0.2-1.1 0-0.8-0.2-1.3-0.3-0.5-0.9-0.8-0.5-0.3-1.4-0.3h-2.4v4.6zm16.9 5.4v2.1h-9.4v-14.2h9.4v2.1h-6.7v3.8h5.7v2h-5.7v4.2zm10.1-2.5h2.7q-0.1 1.4-0.8 2.5-0.6 1.1-1.9 1.7-1.2 0.6-2.9 0.6-1.4 0-2.4-0.4-1.1-0.5-1.9-1.4-0.7-0.9-1.1-2.1-0.4-1.3-0.4-2.8v-1.1q0-1.6 0.4-2.8 0.4-1.3 1.2-2.1 0.7-0.9 1.8-1.4 1.1-0.5 2.4-0.5 1.8 0 3 0.7 1.2 0.6 1.8 1.7 0.7 1.1 0.8 2.6h-2.6q-0.1-0.9-0.4-1.6-0.3-0.6-1-0.9-0.6-0.3-1.6-0.3-0.7 0-1.3 0.3-0.6 0.2-1 0.8-0.4 0.6-0.6 1.5-0.2 0.8-0.2 2v1.1q0 1.1 0.2 1.9 0.2 0.9 0.5 1.5 0.4 0.6 1 0.9 0.6 0.3 1.4 0.3 1 0 1.6-0.3 0.6-0.3 0.9-0.9 0.4-0.6 0.4-1.5zm16.3-2.8v0.7q0 1.6-0.4 2.9-0.4 1.3-1.2 2.2-0.8 0.9-1.9 1.4-1.1 0.4-2.4 0.4-1.4 0-2.5-0.4-1.1-0.5-1.9-1.4-0.8-0.9-1.2-2.2-0.4-1.3-0.4-2.9v-0.7q0-1.7 0.4-2.9 0.4-1.3 1.2-2.2 0.8-0.9 1.9-1.4 1.1-0.5 2.4-0.5 1.4 0 2.5 0.5 1.1 0.5 1.9 1.4 0.8 0.9 1.2 2.2 0.4 1.2 0.4 2.9zm-2.7 0.7v-0.8q0-1.1-0.2-2-0.2-0.9-0.6-1.5-0.5-0.6-1.1-0.9-0.6-0.3-1.4-0.3-0.7 0-1.3 0.3-0.6 0.3-1.1 0.9-0.4 0.6-0.6 1.5-0.2 0.9-0.2 2v0.8q0 1.2 0.2 2 0.2 0.9 0.6 1.5 0.5 0.6 1.1 1 0.6 0.3 1.4 0.3 0.7 0 1.3-0.3 0.7-0.4 1.1-1 0.4-0.6 0.6-1.5 0.2-0.8 0.2-2zm5-7.5h5.2q1.6 0 2.8 0.5 1.1 0.5 1.7 1.5 0.7 0.9 0.7 2.3 0 1.1-0.4 1.9-0.4 0.8-1.1 1.4-0.5 0.4-1.1 0.6l3.1 5.9v0.1h-2.9l-2.7-5.3h-2.6v5.3h-2.7zm2.7 8.9v-2.1h-0.9v2.1zm2.5-2.1q0.9 0 1.4-0.3 0.5-0.3 0.8-0.8 0.3-0.6 0.3-1.2 0-0.7-0.3-1.2-0.2-0.6-0.8-0.9-0.6-0.2-1.4-0.2h-2.5v4.6zm11.8 7.5h-4.3v-14.3h4.3q1.5 0 2.6 0.5 1.2 0.5 2.1 1.4 0.9 0.9 1.3 2.1 0.5 1.3 0.5 2.8v0.7q0 1.5-0.5 2.8-0.4 1.2-1.3 2.1-0.9 0.9-2.1 1.4-1.2 0.5-2.6 0.5zm0-2.2q1.2 0 2.1-0.5 0.8-0.6 1.2-1.6 0.5-1 0.5-2.5v-0.7q0-1.1-0.3-2-0.2-0.9-0.7-1.5-0.5-0.5-1.2-0.8-0.7-0.3-1.6-0.3h-1.6v9.9z"/>
	</g>
	<g id="Layer">
		<path id="Layer" class="s7" d="m1271 542v2.1h-7.2v-2.1zm-6.3-12.1v14.2h-2.7v-14.2zm14 2.2l-4.1 12h-2.8l5.3-14.2h1.8zm3.4 12.1l-4.1-12.1-0.2-2.2h1.8l5.4 14.3zm-0.2-5.3v2.1h-7.7v-2.1zm12.3-9h2.7v9.5q0 1.6-0.7 2.7-0.7 1.1-2 1.7-1.2 0.6-2.7 0.6-1.6 0-2.8-0.6-1.2-0.6-1.9-1.7-0.7-1.1-0.7-2.7v-9.5h2.7v9.5q0 1 0.3 1.6 0.4 0.6 1 0.9 0.6 0.4 1.4 0.4 0.8 0 1.4-0.4 0.6-0.3 1-0.9 0.3-0.6 0.3-1.6zm11.3 0v14.2h-2.7v-14.2zm4.4 0v2.1h-11.4v-2.1zm11.2 12.1v2.1h-7.5v-2.1zm-6.8-12.1v14.2h-2.7v-14.2zm5.8 5.9v2h-6.6v-2zm1-5.9v2.1h-7.6v-2.1zm1.9 0h5.2q1.6 0 2.8 0.5 1.1 0.5 1.8 1.4 0.6 1 0.6 2.4 0 1.1-0.4 1.9-0.4 0.8-1.1 1.4-0.7 0.5-1.7 0.8l-0.8 0.4h-4.6v-2.1h3.4q0.9 0 1.4-0.3 0.6-0.3 0.8-0.8 0.3-0.5 0.3-1.2 0-0.7-0.3-1.2-0.2-0.5-0.8-0.8-0.5-0.3-1.4-0.3h-2.5v12.1h-2.7zm8.1 14.2l-3.3-6.3h2.8l3.3 6.2v0.1zm10.2-6.3h-3.7v-1.9h3.1q0.8 0 1.4-0.2 0.5-0.3 0.8-0.7 0.3-0.4 0.3-1 0-0.7-0.3-1.1-0.2-0.5-0.8-0.7-0.5-0.2-1.4-0.2h-2.2v12.1h-2.7v-14.2h4.9q1.2 0 2.2 0.2 0.9 0.3 1.6 0.7 0.7 0.5 1 1.3 0.4 0.7 0.4 1.7 0 0.8-0.5 1.6-0.3 0.7-1.2 1.2-0.8 0.4-2.1 0.5zm-0.1 6.3h-4.3l1.1-2.1h3.2q0.8 0 1.3-0.2 0.5-0.3 0.8-0.7 0.2-0.5 0.2-1.1 0-0.7-0.2-1.2-0.2-0.5-0.7-0.7-0.5-0.3-1.3-0.3h-2.8v-1.9h3.6l0.6 0.7q1.2 0.1 2 0.5 0.8 0.5 1.1 1.3 0.4 0.7 0.4 1.6 0 1.4-0.6 2.3-0.6 0.9-1.7 1.4-1.1 0.4-2.7 0.4zm7.3-14.2h5.2q1.6 0 2.8 0.5 1.2 0.5 1.8 1.5 0.6 0.9 0.6 2.3 0 1.1-0.4 1.9-0.4 0.8-1.1 1.4-0.7 0.5-1.6 0.8l-0.9 0.5h-4.5l-0.1-2.1h3.4q0.9 0 1.4-0.3 0.6-0.3 0.8-0.8 0.3-0.6 0.3-1.2 0-0.7-0.3-1.3-0.2-0.5-0.8-0.8-0.5-0.3-1.4-0.3h-2.5v12.1h-2.7zm8.1 14.3l-3.3-6.4h2.8l3.4 6.2v0.2zm12.5-14.3h2.7v9.5q0 1.6-0.7 2.7-0.7 1.1-1.9 1.7-1.2 0.6-2.7 0.6-1.6 0-2.8-0.6-1.2-0.6-1.9-1.7-0.7-1.1-0.7-2.7v-9.5h2.7v9.5q0 1 0.3 1.6 0.3 0.6 0.9 0.9 0.6 0.4 1.5 0.4 0.8 0 1.4-0.4 0.6-0.3 0.9-0.9 0.4-0.6 0.3-1.6zm16.7 0v14.2h-2.7l-6-9.9v9.9h-2.7v-14.2h2.7l6 9.9v-9.9zm14.2 0v14.2h-2.7l-6-9.9v9.9h-2.7v-14.2h2.7l6 9.9v-9.9zm12.2 12.1v2.1h-7.6v-2.1zm-6.7-12.1v14.2h-2.7v-14.2zm5.7 5.9v2h-6.5v-2zm0.9-5.9v2.1h-7.5v-2.1zm13.3 0v14.2h-2.7l-6-9.9v9.9h-2.7v-14.2h2.7l6 9.9v-9.9z"/>
	</g>
	<g id="Layer">
		<path id="Layer" class="s7" d="m1133.8 361.5v14.2h-2.7v-14.2zm8.5 0l-5.6 6.9-3.3 3.5-0.5-2.6 2.3-3 3.9-4.8zm-3 14.2l-4.4-6.7 1.9-1.7 5.7 8.4zm13.4-2.1v2.1h-7.1v-2.1zm-6.4-12.1v14.2h-2.6v-14.2zm17.5 12.1v2.1h-7.5v-2.1zm-6.8-12.1v14.2h-2.7v-14.2zm5.8 5.8v2.1h-6.6v-2.1zm1-5.8v2.1h-7.6v-2.1zm4.8 0v14.2h-2.7v-14.2zm14.3 0v14.2h-2.7l-6-9.9v9.9h-2.7v-14.2h2.7l6.1 9.8v-9.8zm12.1 12.1v2.1h-7.5v-2.1zm-6.8-12.1v14.2h-2.7v-14.2zm5.8 5.8v2.1h-6.6v-2.1zm1-5.8v2.1h-7.5v-2.1zm14.3 10.5q0-0.4-0.2-0.7-0.1-0.4-0.4-0.6-0.3-0.3-0.9-0.6-0.5-0.2-1.4-0.5-1-0.3-1.9-0.7-0.9-0.4-1.5-0.9-0.7-0.5-1-1.2-0.4-0.7-0.4-1.6 0-0.9 0.4-1.6 0.4-0.7 1.1-1.2 0.7-0.6 1.6-0.8 0.9-0.3 2.1-0.3 1.6 0 2.7 0.6 1.2 0.5 1.8 1.5 0.7 1 0.7 2.2h-2.7q0-0.6-0.3-1.1-0.3-0.5-0.8-0.8-0.6-0.3-1.5-0.3-0.8 0-1.3 0.2-0.6 0.3-0.8 0.7-0.3 0.4-0.3 0.9 0 0.4 0.2 0.7 0.2 0.3 0.5 0.6 0.4 0.3 1 0.5 0.5 0.2 1.3 0.4 1.1 0.4 2 0.8 0.9 0.5 1.5 1 0.6 0.5 0.9 1.2 0.3 0.7 0.3 1.6 0 0.9-0.4 1.6-0.4 0.7-1 1.3-0.7 0.5-1.6 0.7-1 0.3-2.1 0.3-1.1 0-2.1-0.3-1-0.3-1.8-0.8-0.8-0.6-1.3-1.5-0.5-0.8-0.5-2h2.7q0 0.7 0.2 1.2 0.2 0.4 0.6 0.7 0.4 0.3 1 0.5 0.5 0.1 1.2 0.1 0.8 0 1.3-0.2 0.5-0.3 0.8-0.7 0.3-0.4 0.3-0.9zm13.1-1h2.6q-0.1 1.4-0.7 2.5-0.7 1.1-1.9 1.8-1.3 0.6-3 0.6-1.3 0-2.4-0.5-1.1-0.5-1.8-1.3-0.8-0.9-1.2-2.2-0.4-1.2-0.4-2.8v-1.1q0-1.5 0.4-2.8 0.4-1.2 1.2-2.1 0.8-0.9 1.8-1.4 1.1-0.4 2.5-0.4 1.7 0 2.9 0.6 1.2 0.6 1.9 1.8 0.6 1.1 0.8 2.5h-2.7q-0.1-0.9-0.4-1.5-0.3-0.6-0.9-1-0.6-0.3-1.6-0.3-0.8 0-1.4 0.3-0.6 0.3-1 0.9-0.4 0.6-0.6 1.4-0.2 0.9-0.2 2v1.1q0 1.1 0.2 2 0.2 0.8 0.5 1.4 0.4 0.6 1 0.9 0.6 0.3 1.4 0.3 1 0 1.6-0.3 0.6-0.3 0.9-0.9 0.4-0.6 0.5-1.5zm14.2-3.7v2.2h-7.5v-2.2zm-6.8-5.8v14.2h-2.7v-14.2zm8.8 0v14.2h-2.7v-14.2zm12.2 12.1v2.1h-7.6v-2.1zm-6.7-12.1v14.2h-2.7v-14.2zm5.7 5.8v2.1h-6.6v-2.1zm1-5.8v2.1h-7.5v-2.1zm4.7 0v14.2h-2.7v-14.2zm7.2 14.2h-3.1v-2.1h3.1q1.2 0 2.1-0.6 0.8-0.5 1.2-1.6 0.5-1 0.5-2.5v-0.7q0-1.1-0.3-2-0.2-0.8-0.7-1.4-0.5-0.6-1.2-0.9-0.6-0.3-1.5-0.3h-3.2v-2.1h3.2q1.4 0 2.6 0.5 1.1 0.4 2 1.3 0.9 0.9 1.3 2.2 0.5 1.2 0.5 2.7v0.7q0 1.6-0.5 2.8-0.4 1.3-1.3 2.1-0.9 0.9-2.1 1.4-1.2 0.5-2.6 0.5zm-1.6-14.2v14.2h-2.7v-14.2zm19.8 12.1v2.1h-7.5v-2.1zm-6.8-12.1v14.2h-2.7v-14.2zm5.8 5.8v2.1h-6.6v-2.1zm1-5.8v2.1h-7.6v-2.1zm13 6.8v5.6q-0.3 0.4-1 0.8-0.6 0.5-1.7 0.9-1.1 0.3-2.6 0.3-1.4 0-2.5-0.5-1.1-0.4-1.9-1.3-0.9-0.9-1.3-2.1-0.4-1.3-0.4-2.9v-1q0-1.6 0.4-2.9 0.4-1.3 1.2-2.1 0.7-0.9 1.8-1.4 1.1-0.4 2.5-0.4 1.8 0 2.9 0.6 1.2 0.6 1.8 1.6 0.7 1 0.8 2.4h-2.6q-0.1-0.8-0.4-1.3-0.4-0.6-0.9-0.9-0.6-0.3-1.6-0.3-0.8 0-1.4 0.3-0.6 0.3-1 0.9-0.4 0.6-0.6 1.5-0.2 0.9-0.2 2v1q0 1.1 0.2 2 0.3 0.9 0.7 1.5 0.4 0.6 1.1 0.9 0.7 0.3 1.5 0.3 0.8 0 1.3-0.2 0.5-0.1 0.8-0.3 0.3-0.2 0.4-0.3v-2.7h-2.8v-2zm13.7 0v5.6q-0.4 0.4-1 0.8-0.7 0.5-1.8 0.9-1 0.3-2.6 0.3-1.4 0-2.5-0.5-1.1-0.4-1.9-1.3-0.8-0.9-1.3-2.1-0.4-1.3-0.4-2.9v-1q0-1.6 0.4-2.9 0.4-1.3 1.2-2.1 0.8-0.9 1.9-1.4 1.1-0.4 2.4-0.4 1.8 0 3 0.6 1.1 0.6 1.8 1.6 0.6 1 0.8 2.4h-2.7q-0.1-0.8-0.4-1.3-0.3-0.6-0.9-0.9-0.6-0.3-1.5-0.3-0.8 0-1.4 0.3-0.6 0.3-1 0.9-0.5 0.6-0.7 1.5-0.2 0.9-0.2 2v1q0 1.1 0.3 2 0.2 0.9 0.6 1.5 0.5 0.6 1.1 0.9 0.7 0.3 1.5 0.3 0.8 0 1.3-0.2 0.5-0.1 0.8-0.3 0.3-0.2 0.5-0.3v-2.7h-2.8v-2z"/>
	</g>
	<g id="Layer">
		<path id="Layer" class="s7" d="m1205.7 732.1l2.8-11.5h1.5l0.1 2.4-3 11.8h-1.6zm-1.8-11.5l2.3 11.4v2.8h-1.8l-3.2-14.2zm9.2 11.4l2.3-11.4h2.7l-3.3 14.2h-1.7zm-2.3-11.4l2.8 11.5 0.2 2.7h-1.7l-3-11.8 0.1-2.4zm11.9 0v14.2h-2.7v-14.2zm11.9 12.1v2.1h-7.1v-2.1zm-6.4-12.1v14.2h-2.7v-14.2zm12.4 14.2h-3.1l0.1-2.1h3q1.3 0 2.1-0.5 0.8-0.6 1.3-1.6 0.4-1.1 0.4-2.5v-0.8q0-1.1-0.2-1.9-0.3-0.9-0.8-1.5-0.4-0.6-1.1-0.9-0.7-0.3-1.6-0.3h-3.2v-2.1h3.2q1.4 0 2.6 0.5 1.2 0.5 2 1.4 0.9 0.8 1.3 2.1 0.5 1.2 0.5 2.8v0.7q0 1.5-0.5 2.7-0.4 1.3-1.3 2.2-0.8 0.9-2 1.3-1.2 0.5-2.7 0.5zm-1.5-14.2v14.2h-2.7v-14.2zm19.7 12.1v2.1h-7.5v-2.1zm-6.8-12.1v14.2h-2.6v-14.2zm5.7 5.9v2h-6.6v-2zm1-5.9v2.1h-7.5v-2.1zm1.9 0h5.1q1.6 0 2.8 0.5 1.2 0.5 1.8 1.4 0.6 1 0.6 2.4 0 1.1-0.4 1.9-0.4 0.8-1.1 1.4-0.7 0.5-1.6 0.8l-0.9 0.4h-4.5v-2.1h3.4q0.8 0 1.3-0.3 0.6-0.3 0.9-0.8 0.2-0.5 0.2-1.2 0-0.7-0.2-1.2-0.3-0.5-0.9-0.8-0.5-0.3-1.4-0.3h-2.5v12.1h-2.6zm8 14.2l-3.3-6.3h2.8l3.4 6.2v0.1zm12.1-3.7q0-0.4-0.1-0.7-0.2-0.3-0.5-0.6-0.3-0.3-0.9-0.5-0.5-0.3-1.4-0.6-1-0.3-1.9-0.7-0.8-0.4-1.5-0.9-0.6-0.5-1-1.2-0.4-0.6-0.4-1.5 0-0.9 0.4-1.6 0.4-0.8 1.1-1.3 0.7-0.5 1.6-0.8 1-0.3 2.1-0.3 1.6 0 2.7 0.6 1.2 0.6 1.8 1.6 0.7 0.9 0.7 2.2h-2.7q0-0.7-0.3-1.2-0.3-0.5-0.8-0.8-0.6-0.3-1.4-0.3-0.9 0-1.4 0.3-0.5 0.2-0.8 0.6-0.3 0.4-0.3 1 0 0.3 0.2 0.7 0.2 0.3 0.6 0.5 0.3 0.3 0.9 0.5 0.5 0.3 1.3 0.5 1.2 0.3 2 0.8 0.9 0.4 1.5 0.9 0.6 0.6 0.9 1.3 0.3 0.7 0.3 1.5 0 0.9-0.4 1.7-0.3 0.7-1 1.2-0.7 0.5-1.6 0.8-1 0.2-2.1 0.2-1.1 0-2.1-0.2-1-0.3-1.8-0.9-0.8-0.5-1.3-1.4-0.5-0.9-0.5-2h2.7q0 0.6 0.2 1.1 0.2 0.5 0.6 0.8 0.4 0.3 1 0.4 0.5 0.2 1.2 0.2 0.8 0 1.3-0.3 0.6-0.2 0.8-0.6 0.3-0.4 0.3-1zm8.3 1l2.8-11.5h1.5l0.1 2.4-3 11.8h-1.6zm-1.8-11.5l2.3 11.5v2.8h-1.8l-3.2-14.3zm9.2 11.4l2.3-11.4h2.7l-3.3 14.3h-1.7zm-2.3-11.4l2.8 11.5 0.2 2.7h-1.7l-3-11.8 0.1-2.4zm11.9 0v14.2h-2.7v-14.2zm11.9 12.1v2.1h-7.1v-2.1zm-6.4-12.1v14.2h-2.7v-14.2z"/>
	</g>
	<g id="Layer">
		<path id="Layer" class="s7" d="m1126.6 776.4h2.3l3.9 10.7 3.9-10.7h2.3l-5.3 14.2h-1.8zm-1.2 0h2.3l0.4 9.8v4.4h-2.7zm12.5 0h2.3v14.2h-2.7v-4.3zm10.8 2.1l-4 12.1h-2.9l5.3-14.2h1.9zm3.4 12l-4.1-12-0.3-2.2h1.9l5.3 14.2zm-0.2-5.3v2.2h-7.6v-2.2zm9.4-8.9v14.2h-2.7v-14.2zm4.4 0v2.1h-11.5v-2.1zm8.1 0v14.2h-2.7v-14.2zm4.4 0v2.1h-11.4v-2.1zm11.2 12.1v2.1h-7.6v-2.1zm-6.7-12.1v14.2h-2.7v-14.2zm5.8 5.9v2h-6.6v-2zm0.9-5.9v2.1h-7.5v-2.1zm13.3 0v14.2h-2.7l-6-9.8v9.8h-2.7v-14.2h2.7l6.1 9.9v-9.9zm13.1 7.9h-3.6v-1.9h3.1q0.8 0 1.3-0.2 0.6-0.3 0.8-0.7 0.3-0.4 0.3-1 0-0.7-0.3-1.1-0.2-0.5-0.8-0.7-0.5-0.2-1.3-0.2h-2.2v12.1h-2.7v-14.2h4.9q1.2 0 2.1 0.2 1 0.3 1.6 0.7 0.7 0.5 1 1.2 0.4 0.8 0.4 1.8 0 0.8-0.4 1.6-0.4 0.7-1.3 1.2-0.8 0.4-2.1 0.5zm-0.1 6.3h-4.3l1.1-2.1h3.2q0.8 0 1.3-0.2 0.6-0.3 0.8-0.8 0.3-0.4 0.3-1 0-0.7-0.3-1.2-0.2-0.5-0.7-0.7-0.5-0.3-1.3-0.3h-2.8l0.1-1.9h3.5l0.6 0.7q1.3 0.1 2 0.5 0.8 0.5 1.2 1.3 0.4 0.7 0.4 1.6 0 1.4-0.6 2.3-0.6 0.9-1.8 1.4-1.1 0.4-2.7 0.4zm7.3-1.2q0-0.6 0.4-1 0.4-0.4 1.1-0.4 0.7 0 1.1 0.4 0.4 0.4 0.4 1 0 0.6-0.4 1-0.4 0.3-1.1 0.4-0.7-0.1-1.1-0.4-0.4-0.4-0.4-1zm13.6-13v14.2h-2.7v-14.2zm14.4 0v14.2h-2.7l-6.1-9.8v9.8h-2.7v-14.2h2.7l6.1 9.9v-9.9zm8.5 0v14.2h-2.7v-14.2zm4.5 0v2.1h-11.5v-2.1zm11.2 12.1v2.1h-7.5v-2.1zm-6.8-12.1v14.2h-2.7v-14.2zm5.8 5.9v2.1h-6.6v-2.1zm1-5.9v2.1h-7.6v-2.1zm1.9 0h5.2q1.6 0 2.8 0.5 1.1 0.5 1.8 1.5 0.6 0.9 0.6 2.3 0 1.1-0.4 1.9-0.4 0.8-1.1 1.4-0.7 0.5-1.7 0.8l-0.8 0.5h-4.6v-2.1h3.4q0.9 0 1.4-0.3 0.5-0.3 0.8-0.9 0.3-0.5 0.3-1.1 0-0.7-0.3-1.3-0.2-0.5-0.8-0.8-0.6-0.3-1.4-0.3h-2.5v12.1h-2.7zm8.1 14.3l-3.3-6.4h2.8l3.3 6.2v0.2zm13.7-2.1v2.1h-7.1v-2.1zm-6.3-12.2v14.3h-2.7v-14.3zm14 2.2l-4.1 12.1h-2.8l5.3-14.3h1.8zm3.4 12.1l-4.1-12.1-0.2-2.1h1.8l5.3 14.2zm-0.2-5.3v2.1h-7.6v-2.1zm7.2-8.9v14.2h-2.7v-14.2zm8.5 0l-5.7 6.9-3.2 3.5-0.5-2.6 2.3-2.9 3.9-4.9zm-3 14.2l-4.5-6.7 2-1.7 5.7 8.4zm13.8-2.1v2.1h-7.5v-2.1zm-6.8-12.1v14.2h-2.7v-14.2zm5.8 5.9v2h-6.6v-2zm1-5.9v2.1h-7.6v-2.1zm13.4 0v14.2h-2.7l-6.1-9.9v9.9h-2.7v-14.2h2.7l6.1 9.9v-9.9z"/>
	</g>
	<g id="Layer">
		<path id="Layer" class="s7" d="m866.7 812.9v14.2h-2.6v-14.2zm14.3 0v14.2h-2.7l-6.1-9.8v9.8h-2.6v-14.2h2.6l6.1 9.9v-9.9zm8.6 0v14.2h-2.7v-14.2zm4.4 0v2.1h-11.5v-2.1zm11.2 12.1v2.1h-7.5v-2.1zm-6.7-12.1v14.2h-2.7v-14.2zm5.7 5.9v2.1h-6.6v-2.1zm1-5.9v2.1h-7.5v-2.1zm1.9 0h5.1q1.7 0 2.8 0.5 1.2 0.5 1.8 1.5 0.6 0.9 0.6 2.3 0 1.1-0.4 1.9-0.3 0.8-1.1 1.4-0.7 0.5-1.6 0.8l-0.9 0.5h-4.5v-2.1h3.4q0.8 0 1.3-0.3 0.6-0.3 0.9-0.9 0.2-0.5 0.2-1.1 0-0.7-0.2-1.3-0.3-0.5-0.9-0.8-0.5-0.3-1.4-0.3h-2.4v12.1h-2.7zm8 14.3l-3.3-6.4h2.8l3.4 6.2v0.2zm13.7-2.2v2.2h-7.2v-2.2zm-6.3-12.1v14.3h-2.7v-14.3zm14 2.2l-4.1 12.1h-2.8l5.3-14.3h1.8zm3.4 12.1l-4-12.1-0.3-2.1h1.8l5.4 14.2zm-0.2-5.3v2.1h-7.6v-2.1zm7.2-8.9v14.2h-2.7v-14.2zm8.5 0l-5.7 6.9-3.3 3.5-0.4-2.6 2.2-2.9 3.9-4.9zm-3 14.2l-4.4-6.7 1.9-1.7 5.7 8.4zm13.9-2.1v2.1h-7.6v-2.1zm-6.7-12.1v14.2h-2.7v-14.2zm5.7 5.9v2h-6.5v-2zm0.9-5.9v2.1h-7.5v-2.1zm13.3 0v14.2h-2.7l-6-9.9v9.9h-2.7v-14.2h2.7l6 9.9v-9.9zm17.2 12.1v2.1h-7.6v-2.1zm-6.7-12.1v14.2h-2.7v-14.2zm5.8 5.9v2h-6.6v-2zm0.9-5.9v2.1h-7.5v-2.1zm7.6 2.1l-4.1 12.1h-2.8l5.3-14.2h1.8zm3.4 12l-4.1-12-0.2-2.2h1.8l5.3 14.2zm-0.1-5.2v2.1h-7.7v-2.1zm12 1.6q0-0.5-0.2-0.8-0.1-0.3-0.4-0.6-0.3-0.2-0.9-0.5-0.6-0.3-1.5-0.6-0.9-0.3-1.8-0.7-0.9-0.3-1.5-0.9-0.7-0.5-1-1.2-0.4-0.6-0.4-1.5 0-0.9 0.4-1.6 0.4-0.8 1.1-1.3 0.7-0.5 1.6-0.8 0.9-0.3 2.1-0.3 1.6 0 2.7 0.6 1.2 0.6 1.8 1.6 0.6 1 0.6 2.2h-2.6q0-0.7-0.3-1.2-0.3-0.5-0.9-0.8-0.5-0.3-1.4-0.3-0.8 0-1.3 0.3-0.6 0.2-0.8 0.6-0.3 0.4-0.3 1 0 0.4 0.2 0.7 0.2 0.3 0.5 0.5 0.4 0.3 1 0.5 0.5 0.3 1.2 0.5 1.2 0.3 2.1 0.8 0.9 0.4 1.5 0.9 0.6 0.6 0.9 1.3 0.3 0.7 0.3 1.5 0 1-0.4 1.7-0.4 0.7-1 1.2-0.7 0.5-1.7 0.8-0.9 0.2-2.1 0.2-1 0-2-0.2-1-0.3-1.8-0.9-0.8-0.5-1.3-1.4-0.5-0.9-0.5-2h2.7q0 0.6 0.2 1.1 0.2 0.5 0.6 0.8 0.4 0.3 1 0.4 0.5 0.2 1.1 0.2 0.9 0 1.4-0.3 0.5-0.2 0.8-0.6 0.3-0.4 0.3-0.9zm10.8-10.6v14.2h-2.6v-14.2zm4.4 0v2.1h-11.5v-2.1z"/>
	</g>
	<g id="Layer">
		<path id="Layer" class="s7" d="m1134.8 846.5v2.1h-7.4v-2.1zm-6.8-5.9v14.3h-2.7v-14.3zm8.8 0v14.3h-2.7v-14.3zm8.5 2.2l-4 12.1h-2.8l5.3-14.3h1.8zm3.4 12.1l-4.1-12.1-0.2-2.1h1.8l5.3 14.2zm-0.2-5.3v2.1h-7.6v-2.1zm4.5-8.9h5.2q1.6 0 2.8 0.5 1.1 0.5 1.8 1.4 0.6 1 0.6 2.4 0 1.1-0.4 1.9-0.4 0.8-1.1 1.3-0.7 0.6-1.7 0.9l-0.8 0.4h-4.6v-2.1h3.4q0.8 0 1.4-0.3 0.5-0.3 0.8-0.8 0.3-0.5 0.3-1.2 0-0.7-0.3-1.2-0.3-0.5-0.8-0.8-0.6-0.3-1.4-0.3h-2.5v12.1h-2.7zm8 14.2l-3.2-6.3 2.8-0.1 3.3 6.3v0.1zm9 0h-3.1v-2.1h3.1q1.2 0 2-0.5 0.9-0.6 1.3-1.6 0.4-1.1 0.4-2.5v-0.8q0-1.1-0.2-1.9-0.2-0.9-0.7-1.5-0.5-0.6-1.2-0.9-0.7-0.3-1.6-0.3h-3.2v-2.1h3.2q1.4 0 2.6 0.5 1.2 0.5 2.1 1.4 0.8 0.8 1.3 2.1 0.5 1.2 0.5 2.8v0.7q0 1.5-0.5 2.7-0.5 1.3-1.3 2.2-0.9 0.9-2.1 1.3-1.2 0.5-2.6 0.5zm-1.6-14.2v14.2h-2.7v-14.2zm19.8 12.1v2.1h-7.6v-2.1zm-6.7-12.1v14.2h-2.7v-14.2zm5.8 5.9v2h-6.6v-2zm0.9-5.9v2.1h-7.5v-2.1zm1.9 0h5.2q1.6 0 2.7 0.5 1.2 0.5 1.8 1.4 0.7 1 0.7 2.4 0 1.1-0.4 1.9-0.4 0.8-1.1 1.4-0.7 0.5-1.7 0.8l-0.8 0.5h-4.6v-2.2h3.4q0.8 0 1.4-0.3 0.5-0.3 0.8-0.8 0.3-0.5 0.3-1.2 0-0.7-0.3-1.2-0.3-0.5-0.8-0.8-0.6-0.3-1.4-0.3h-2.5v12.1h-2.7zm8 14.2l-3.3-6.3h2.9l3.3 6.2v0.1zm12.4-14.2v14.2h-2.7v-14.2zm8.5 0l-5.7 7-3.3 3.4-0.4-2.6 2.2-2.9 3.9-4.9zm-3 14.2l-4.4-6.6 1.9-1.8 5.7 8.4zm12.4-14.2h2.6v9.5q0 1.6-0.7 2.7-0.7 1.1-1.9 1.7-1.2 0.5-2.7 0.5-1.6 0-2.8-0.5-1.2-0.6-1.9-1.7-0.7-1.1-0.7-2.7v-9.5h2.7v9.5q0 1 0.3 1.6 0.3 0.6 0.9 0.9 0.6 0.3 1.5 0.3 0.8 0 1.4-0.3 0.6-0.3 0.9-0.9 0.4-0.6 0.4-1.6zm14.2 12.1v2.1h-7.1v-2.1zm-6.4-12.1v14.2h-2.7v-14.2zm9.4 0h2.3l3.9 10.7 3.8-10.7h2.4l-5.3 14.2h-1.9zm-1.2 0h2.3l0.4 9.8v4.4h-2.7zm12.5 0h2.3v14.2h-2.7v-4.4z"/>
	</g>
	<path id="Layer" fill-rule="evenodd" class="s13" d="m1223.1 498.1c11.6-7 35.6-22.7 39.1-29.7 4.4-8.7 7.6-24 12-27.3 4.3-3.2 20.7-21.8 26.1-25 4.4-2.6 16.4-10.6 21.8-14.2"/>
	<path id="Layer" class="s6" d="m1221.7 513.5c8.6 0 15.6-7 15.6-15.6 0-8.7-7-15.7-15.6-15.7-8.6 0-15.5 7-15.5 15.7 0 8.6 6.9 15.6 15.5 15.6z"/>
	<path id="Layer" class="s7" d="m1221.7 501.8c2.2 0 3.9-1.8 3.9-3.9 0-2.2-1.7-3.9-3.9-3.9-2.1 0-3.9 1.7-3.9 3.9 0 2.1 1.8 3.9 3.9 3.9z"/>
	<path id="Layer" class="s6" d="m1322.1 407.4c3 0 5.5-2.5 5.5-5.5 0-3-2.5-5.4-5.5-5.4-3 0-5.4 2.4-5.4 5.4 0 3 2.4 5.5 5.4 5.5z"/>
	<path id="Layer" class="s7" d="m1322.1 403.9c1.1 0 2-0.9 2-2 0-1.1-0.9-1.9-2-1.9-1 0-1.9 0.8-1.9 1.9 0 1.1 0.9 2 1.9 2z"/>
	<path id="Layer" class="s6" d="m1108.5 776.6c8.6 0 15.5-7 15.5-15.6 0-8.7-6.9-15.7-15.5-15.7-8.6 0-15.6 7-15.6 15.7 0 8.6 7 15.6 15.6 15.6z"/>
	<path id="Layer" class="s7" d="m1108.5 764.9c2.1 0 3.9-1.8 3.9-3.9 0-2.2-1.8-3.9-3.9-3.9-2.2 0-3.9 1.7-3.9 3.9 0 2.1 1.7 3.9 3.9 3.9z"/>
</svg>