<svg width="28" height="28" viewBox="0 0 28 28" fill="none" xmlns="http://www.w3.org/2000/svg">
<g clip-path="url(#clip0_4798_13977)">
<path d="M27.777 13.582C27.7385 13.2933 27.473 13.0906 27.1846 13.1291C26.8959 13.1676 26.6931 13.4328 26.7316 13.7216C26.7535 13.886 26.7646 14.0533 26.7646 14.2189C26.7646 15.9932 25.5099 17.6844 23.2316 18.9811C20.8596 20.331 17.6945 21.0744 14.3193 21.0744C12.1866 21.0744 10.138 20.7773 8.32017 20.2181C7.76103 18.4003 7.46387 16.3517 7.46387 14.2189C7.46387 10.8438 8.20732 7.6786 9.55721 5.30659C10.8538 3.02817 12.545 1.77345 14.3193 1.77345C15.8082 1.77345 16.9938 2.63208 17.8475 3.57609H17.3074C17.0162 3.57609 16.78 3.81218 16.78 4.10344C16.78 4.39469 17.0162 4.63079 17.3074 4.63079H18.9435C19.2347 4.63079 19.4708 4.39469 19.4708 4.10344V2.46728C19.4708 2.17603 19.2347 1.93993 18.9435 1.93993C18.6523 1.93993 18.4161 2.17603 18.4161 2.46728V2.64495C17.1931 1.39365 15.774 0.71875 14.3193 0.71875C12.1495 0.71875 10.1328 2.16279 8.64053 4.78488C7.20162 7.31336 6.40918 10.6637 6.40918 14.2189C6.40918 16.1723 6.64891 18.0635 7.10316 19.7908C6.50284 19.5519 5.9352 19.2816 5.40712 18.981C3.12879 17.6844 1.87402 15.9932 1.87402 14.2189C1.87402 12.7212 2.74277 11.5302 3.69336 10.6754V11.2127C3.69336 11.504 3.9295 11.7401 4.2207 11.7401C4.5119 11.7401 4.74805 11.504 4.74805 11.2127V9.57659C4.74805 9.28533 4.5119 9.04924 4.2207 9.04924H2.58462C2.29342 9.04924 2.05728 9.28533 2.05728 9.57659C2.05728 9.86784 2.29342 10.1039 2.58462 10.1039H2.76434C1.50109 11.3311 0.819336 12.757 0.819336 14.2189C0.819336 16.3887 2.26336 18.4055 4.88542 19.8977C5.67717 20.3483 6.54951 20.7355 7.48348 21.0548C7.80279 21.9888 8.18997 22.8612 8.64053 23.6529C10.1328 26.275 12.1495 27.719 14.3193 27.719C15.5633 27.719 16.7986 27.2244 17.8916 26.2887C18.1128 26.0992 18.1387 25.7664 17.9493 25.5451C17.7599 25.3239 17.427 25.298 17.2058 25.4874C16.2936 26.2684 15.3224 26.6643 14.3193 26.6643C12.545 26.6643 10.8538 25.4096 9.55721 23.1312C9.25668 22.6031 8.98636 22.0354 8.74747 21.4351C10.4748 21.8894 12.3659 22.1291 14.3193 22.1291C17.8745 22.1291 21.2248 21.3367 23.7533 19.8977C26.3753 18.4055 27.8193 16.3887 27.8193 14.2189C27.8193 14.0059 27.8051 13.7931 27.777 13.582Z" fill="black"/>
<path d="M27.129 11.695L27.1267 11.691C26.9868 11.4382 26.6689 11.345 26.4143 11.4829C26.1582 11.6216 26.063 11.9416 26.2018 12.1977L26.2061 12.2055C26.2396 12.2661 26.2847 12.3196 26.3389 12.3628C26.393 12.4059 26.4552 12.438 26.5217 12.4572C26.5883 12.4763 26.658 12.4822 26.7268 12.4744C26.7956 12.4666 26.8622 12.4453 26.9228 12.4117C27.1776 12.2707 27.27 11.9499 27.129 11.695ZM19.2448 23.9134C19.0082 23.7439 18.6769 23.8014 18.5071 24.0374L18.5045 24.0411C18.3367 24.2786 18.3903 24.6106 18.6274 24.7789C18.7158 24.8417 18.8215 24.8754 18.9299 24.8752C19.0963 24.8752 19.2609 24.7969 19.3645 24.6517C19.5334 24.415 19.4812 24.0827 19.2448 23.9134ZM18.0381 12.7009C18.0292 11.9592 17.4205 11.3559 16.6813 11.3559H14.8213V9.96497C14.8214 9.88631 14.8527 9.81091 14.9083 9.75529C14.9639 9.69968 15.0393 9.6684 15.118 9.66833H16.647C16.9382 9.66833 17.1743 9.43224 17.1743 9.14098C17.1743 8.84973 16.9382 8.61363 16.647 8.61363H15.118C14.3728 8.61363 13.7666 9.21982 13.7666 9.96497V14.2222C13.7666 14.9673 14.3728 15.5735 15.118 15.5735H16.6813C17.4205 15.5735 18.0292 14.9702 18.0381 14.2286L18.0382 14.2222V12.7072L18.0381 12.7009ZM16.9834 14.2182C16.9801 14.3842 16.8451 14.5188 16.6813 14.5188H15.1179C15.0393 14.5187 14.9638 14.4874 14.9082 14.4318C14.8526 14.3762 14.8213 14.3008 14.8213 14.2222V12.4105H16.6813C16.8451 12.4105 16.9801 12.5452 16.9834 12.7112V14.2182ZM21.5384 8.61363H19.9695C19.2244 8.61363 18.6182 9.21982 18.6182 9.96497V14.2222C18.6182 14.9673 19.2244 15.5735 19.9695 15.5735H21.5384C22.2835 15.5735 22.8897 14.9673 22.8897 14.2222V9.96497C22.8897 9.21982 22.2835 8.61363 21.5384 8.61363ZM21.835 14.2222C21.8349 14.3009 21.8037 14.3763 21.748 14.4319C21.6924 14.4875 21.617 14.5188 21.5384 14.5188H19.9695C19.8909 14.5188 19.8155 14.4875 19.7598 14.4319C19.7042 14.3763 19.673 14.3009 19.6729 14.2222V9.96497C19.673 9.88631 19.7042 9.81091 19.7598 9.75529C19.8155 9.69968 19.8909 9.6684 19.9695 9.66833H21.5384C21.617 9.6684 21.6924 9.69968 21.748 9.75529C21.8037 9.81091 21.8349 9.88631 21.835 9.96497V14.2222ZM11.8344 8.61363H10.488C9.7429 8.61363 9.13672 9.21982 9.13672 9.96497V9.98358C9.13672 10.2748 9.37286 10.5109 9.66406 10.5109C9.95526 10.5109 10.1914 10.2748 10.1914 9.98358V9.96497C10.1915 9.88631 10.2228 9.81091 10.2784 9.75529C10.334 9.69968 10.4094 9.6684 10.488 9.66833H11.8344C11.913 9.6684 11.9885 9.69968 12.0441 9.75529C12.0997 9.81091 12.131 9.88631 12.131 9.96497V11.5663H10.7784C10.4872 11.5663 10.251 11.8024 10.251 12.0936C10.251 12.3849 10.4872 12.621 10.7784 12.621H12.131V14.2222C12.131 14.3009 12.0997 14.3763 12.0441 14.4319C11.9885 14.4875 11.913 14.5188 11.8344 14.5188H10.488C10.4094 14.5188 10.334 14.4875 10.2784 14.4319C10.2228 14.3763 10.1915 14.3009 10.1914 14.2222V14.1492C10.1914 13.858 9.95526 13.6219 9.66406 13.6219C9.37286 13.6219 9.13672 13.858 9.13672 14.1492V14.2222C9.13672 14.9673 9.7429 15.5735 10.488 15.5735H11.8344C12.5795 15.5735 13.1857 14.9673 13.1857 14.2222V9.96497C13.1857 9.21982 12.5795 8.61363 11.8344 8.61363ZM25.0219 7.74219C24.2506 7.74219 23.6231 8.36968 23.6231 9.14098C23.6231 9.91228 24.2506 10.5398 25.0219 10.5398C25.7932 10.5398 26.4207 9.91228 26.4207 9.14098C26.4207 8.36968 25.7932 7.74219 25.0219 7.74219ZM25.0219 9.48503C24.9307 9.48491 24.8432 9.44862 24.7787 9.38412C24.7142 9.31961 24.6779 9.23215 24.6778 9.14093C24.6779 9.0497 24.7142 8.96225 24.7787 8.89774C24.8432 8.83323 24.9307 8.79695 25.0219 8.79683C25.1131 8.79693 25.2006 8.83322 25.2651 8.89773C25.3296 8.96223 25.3659 9.0497 25.366 9.14093C25.3659 9.23215 25.3296 9.31961 25.2651 9.38412C25.2006 9.44862 25.1131 9.48491 25.0219 9.48503Z" fill="black"/>
</g>
<defs>
<clipPath id="clip0_4798_13977">
<rect width="27" height="27.0003" fill="white" transform="translate(0.819336 0.726562)"/>
</clipPath>
</defs>
</svg>
