<svg width="25" height="25" viewBox="0 0 25 25" fill="none" xmlns="http://www.w3.org/2000/svg">
<path d="M21.5 7.56802C21.5 6.88604 21.2291 6.23198 20.7468 5.74975C20.2646 5.26751 19.6106 4.99659 18.9286 4.99659H18.2857V4.37182C18.2857 4.02588 18.0197 3.72896 17.6738 3.71168C17.5869 3.70749 17.5 3.721 17.4185 3.75137C17.3369 3.78175 17.2624 3.82836 17.1994 3.8884C17.1364 3.94843 17.0862 4.02062 17.052 4.10061C17.0177 4.1806 17 4.26671 17 4.35374V4.99659H8V4.37182C8 4.02588 7.73402 3.72896 7.38808 3.71168C7.30116 3.70749 7.21429 3.721 7.13275 3.75137C7.0512 3.78175 6.97667 3.82836 6.91367 3.8884C6.85067 3.94843 6.80051 4.02062 6.76624 4.10061C6.73197 4.1806 6.71429 4.26671 6.71429 4.35374V4.99659H6.07143C5.38944 4.99659 4.73539 5.26751 4.25315 5.74975C3.77092 6.23198 3.5 6.88604 3.5 7.56802V8.05016C3.5 8.09279 3.51693 8.13367 3.54707 8.16381C3.57721 8.19395 3.61809 8.21088 3.66071 8.21088H21.3393C21.3819 8.21088 21.4228 8.19395 21.4529 8.16381C21.4831 8.13367 21.5 8.09279 21.5 8.05016V7.56802ZM3.5 19.1395C3.5 19.8214 3.77092 20.4755 4.25315 20.9577C4.73539 21.44 5.38944 21.7109 6.07143 21.7109H18.9286C19.6106 21.7109 20.2646 21.44 20.7468 20.9577C21.2291 20.4755 21.5 19.8214 21.5 19.1395V9.61713C21.5 9.58516 21.4873 9.5545 21.4647 9.5319C21.4421 9.50929 21.4114 9.49659 21.3795 9.49659H3.62054C3.58857 9.49659 3.55791 9.50929 3.5353 9.5319C3.5127 9.5545 3.5 9.58516 3.5 9.61713V19.1395ZM17.3214 10.7823C17.5121 10.7823 17.6986 10.8389 17.8572 10.9448C18.0157 11.0508 18.1393 11.2014 18.2123 11.3776C18.2853 11.5538 18.3044 11.7477 18.2672 11.9347C18.23 12.1218 18.1381 12.2936 18.0033 12.4284C17.8684 12.5633 17.6966 12.6551 17.5096 12.6924C17.3225 12.7296 17.1286 12.7105 16.9524 12.6375C16.7762 12.5645 16.6256 12.4409 16.5197 12.2823C16.4137 12.1237 16.3571 11.9373 16.3571 11.7466C16.3571 11.4908 16.4587 11.2456 16.6396 11.0647C16.8204 10.8839 17.0657 10.7823 17.3214 10.7823ZM17.3214 13.9966C17.5121 13.9966 17.6986 14.0531 17.8572 14.1591C18.0157 14.2651 18.1393 14.4157 18.2123 14.5919C18.2853 14.7681 18.3044 14.9619 18.2672 15.149C18.23 15.3361 18.1381 15.5079 18.0033 15.6427C17.8684 15.7776 17.6966 15.8694 17.5096 15.9066C17.3225 15.9438 17.1286 15.9247 16.9524 15.8518C16.7762 15.7788 16.6256 15.6552 16.5197 15.4966C16.4137 15.338 16.3571 15.1516 16.3571 14.9609C16.3571 14.7051 16.4587 14.4599 16.6396 14.279C16.8204 14.0982 17.0657 13.9966 17.3214 13.9966ZM14.1071 10.7823C14.2979 10.7823 14.4843 10.8389 14.6429 10.9448C14.8014 11.0508 14.925 11.2014 14.998 11.3776C15.071 11.5538 15.0901 11.7477 15.0529 11.9347C15.0157 12.1218 14.9239 12.2936 14.789 12.4284C14.6541 12.5633 14.4823 12.6551 14.2953 12.6924C14.1082 12.7296 13.9143 12.7105 13.7381 12.6375C13.5619 12.5645 13.4113 12.4409 13.3054 12.2823C13.1994 12.1237 13.1429 11.9373 13.1429 11.7466C13.1429 11.4908 13.2445 11.2456 13.4253 11.0647C13.6061 10.8839 13.8514 10.7823 14.1071 10.7823ZM14.1071 13.9966C14.2979 13.9966 14.4843 14.0531 14.6429 14.1591C14.8014 14.2651 14.925 14.4157 14.998 14.5919C15.071 14.7681 15.0901 14.9619 15.0529 15.149C15.0157 15.3361 14.9239 15.5079 14.789 15.6427C14.6541 15.7776 14.4823 15.8694 14.2953 15.9066C14.1082 15.9438 13.9143 15.9247 13.7381 15.8518C13.5619 15.7788 13.4113 15.6552 13.3054 15.4966C13.1994 15.338 13.1429 15.1516 13.1429 14.9609C13.1429 14.7051 13.2445 14.4599 13.4253 14.279C13.6061 14.0982 13.8514 13.9966 14.1071 13.9966ZM14.1071 17.2109C14.2979 17.2109 14.4843 17.2674 14.6429 17.3734C14.8014 17.4793 14.925 17.6299 14.998 17.8061C15.071 17.9823 15.0901 18.1762 15.0529 18.3633C15.0157 18.5503 14.9239 18.7222 14.789 18.857C14.6541 18.9919 14.4823 19.0837 14.2953 19.1209C14.1082 19.1581 13.9143 19.139 13.7381 19.066C13.5619 18.9931 13.4113 18.8695 13.3054 18.7109C13.1994 18.5523 13.1429 18.3659 13.1429 18.1752C13.1429 17.9194 13.2445 17.6742 13.4253 17.4933C13.6061 17.3125 13.8514 17.2109 14.1071 17.2109ZM10.8929 13.9966C11.0836 13.9966 11.27 14.0531 11.4286 14.1591C11.5872 14.2651 11.7108 14.4157 11.7837 14.5919C11.8567 14.7681 11.8758 14.9619 11.8386 15.149C11.8014 15.3361 11.7096 15.5079 11.5747 15.6427C11.4399 15.7776 11.268 15.8694 11.081 15.9066C10.8939 15.9438 10.7 15.9247 10.5238 15.8518C10.3476 15.7788 10.197 15.6552 10.0911 15.4966C9.98513 15.338 9.92857 15.1516 9.92857 14.9609C9.92857 14.7051 10.0302 14.4599 10.211 14.279C10.3918 14.0982 10.6371 13.9966 10.8929 13.9966ZM10.8929 17.2109C11.0836 17.2109 11.27 17.2674 11.4286 17.3734C11.5872 17.4793 11.7108 17.6299 11.7837 17.8061C11.8567 17.9823 11.8758 18.1762 11.8386 18.3633C11.8014 18.5503 11.7096 18.7222 11.5747 18.857C11.4399 18.9919 11.268 19.0837 11.081 19.1209C10.8939 19.1581 10.7 19.139 10.5238 19.066C10.3476 18.9931 10.197 18.8695 10.0911 18.7109C9.98513 18.5523 9.92857 18.3659 9.92857 18.1752C9.92857 17.9194 10.0302 17.6742 10.211 17.4933C10.3918 17.3125 10.6371 17.2109 10.8929 17.2109ZM7.67857 13.9966C7.86929 13.9966 8.05572 14.0531 8.2143 14.1591C8.37288 14.2651 8.49647 14.4157 8.56946 14.5919C8.64244 14.7681 8.66154 14.9619 8.62433 15.149C8.58712 15.3361 8.49528 15.5079 8.36042 15.6427C8.22557 15.7776 8.05375 15.8694 7.86669 15.9066C7.67964 15.9438 7.48576 15.9247 7.30956 15.8518C7.13336 15.7788 6.98275 15.6552 6.8768 15.4966C6.77084 15.338 6.71429 15.1516 6.71429 14.9609C6.71429 14.7051 6.81588 14.4599 6.99672 14.279C7.17756 14.0982 7.42283 13.9966 7.67857 13.9966ZM7.67857 17.2109C7.86929 17.2109 8.05572 17.2674 8.2143 17.3734C8.37288 17.4793 8.49647 17.6299 8.56946 17.8061C8.64244 17.9823 8.66154 18.1762 8.62433 18.3633C8.58712 18.5503 8.49528 18.7222 8.36042 18.857C8.22557 18.9919 8.05375 19.0837 7.86669 19.1209C7.67964 19.1581 7.48576 19.139 7.30956 19.066C7.13336 18.9931 6.98275 18.8695 6.8768 18.7109C6.77084 18.5523 6.71429 18.3659 6.71429 18.1752C6.71429 17.9194 6.81588 17.6742 6.99672 17.4933C7.17756 17.3125 7.42283 17.2109 7.67857 17.2109Z" fill="#112211"/>
</svg>
