<svg width="19" height="18" viewBox="0 0 19 18" fill="none" xmlns="http://www.w3.org/2000/svg">
<path d="M15.8242 10.6741V6.60156H10.1992V16.7266H15.8242V16.0966C14.8539 15.8519 14.1367 15.0025 14.1367 13.9956C14.1367 13.6806 14.2127 13.2447 14.3561 12.7891H13.5742V11.1016H14.6992V11.9425C14.9805 11.3884 15.3602 10.8991 15.8242 10.6741ZM12.4492 12.7891H11.3242V11.1016H12.4492V12.7891ZM12.4492 9.97656H11.3242V8.28906H12.4492V9.97656ZM13.5742 9.97656V8.28906H14.6992V9.97656H13.5742ZM1.76172 2.10156V16.7266H9.63672V2.10156H1.76172ZM4.01172 13.9141H2.88672V12.2266H4.01172V13.9141ZM4.01172 11.1016H2.88672V9.41406H4.01172V11.1016ZM4.01172 8.28906H2.88672V6.60156H4.01172V8.28906ZM4.01172 5.47656H2.88672V3.78906H4.01172V5.47656ZM6.26172 13.9141H5.13672V12.2266H6.26172V13.9141ZM6.26172 11.1016H5.13672V9.41406H6.26172V11.1016ZM6.26172 8.28906H5.13672V6.60156H6.26172V8.28906ZM6.26172 5.47656H5.13672V3.78906H6.26172V5.47656ZM8.51172 13.9141H7.38672V12.2266H8.51172V13.9141ZM8.51172 11.1016H7.38672V9.41406H8.51172V11.1016ZM8.51172 8.28906H7.38672V6.60156H8.51172V8.28906ZM8.51172 5.47656H7.38672V3.78906H8.51172V5.47656ZM2.88672 0.976562H8.51172V1.82031H2.88672V0.976562ZM18.3555 17.2891H0.917969C0.763281 17.2891 0.636719 17.1625 0.636719 17.0078C0.636719 16.8531 0.763281 16.7266 0.917969 16.7266H18.3555C18.5102 16.7266 18.6367 16.8531 18.6367 17.0078C18.6367 17.1625 18.5102 17.2891 18.3555 17.2891Z" fill="#CC0000"/>
<path d="M16.3867 17.0078C16.232 17.0078 16.1055 16.8813 16.1055 16.7266V15.3203C16.1055 15.1656 16.232 15.0391 16.3867 15.0391C16.5414 15.0391 16.668 15.1656 16.668 15.3203V16.7266C16.668 16.8813 16.5414 17.0078 16.3867 17.0078Z" fill="#CC0000"/>
<path d="M18.0742 13.9956C18.0742 14.8844 17.3177 15.6016 16.3867 15.6016C15.4558 15.6016 14.6992 14.8816 14.6992 13.9956C14.6992 13.1097 15.4558 11.1016 16.3867 11.1016C17.3177 11.1016 18.0742 13.1069 18.0742 13.9956Z" fill="#CC0000"/>
</svg>
