<svg version="1.2" xmlns="http://www.w3.org/2000/svg" viewBox="0 0 1487 1022" width="1487" height="1022">
	<title>map-svg</title>
	<defs>
		<clipPath clipPathUnits="userSpaceOnUse" id="cp1">
			<path d="m98.52 937.38h18v18h-18z"/>
		</clipPath>
		<clipPath clipPathUnits="userSpaceOnUse" id="cp2">
			<path d="m318.52 937.38h18v18h-18z"/>
		</clipPath>
		<clipPath clipPathUnits="userSpaceOnUse" id="cp3">
			<path d="m573.52 937.38h18v18h-18z"/>
		</clipPath>
		<clipPath clipPathUnits="userSpaceOnUse" id="cp4">
			<path d="m1064.52 937.38h18v18h-18z"/>
		</clipPath>
		<clipPath clipPathUnits="userSpaceOnUse" id="cp5">
			<path d="m828.52 937.38h18v18h-18z"/>
		</clipPath>
		<clipPath clipPathUnits="userSpaceOnUse" id="cp6">
			<path d="m1274.52 937.38h18v18h-18z"/>
		</clipPath>
		<clipPath clipPathUnits="userSpaceOnUse" id="cp7">
			<path d="m699.54 469.11h24v24h-24z"/>
		</clipPath>
		<clipPath clipPathUnits="userSpaceOnUse" id="cp8">
			<path d="m766.09 435.66h24v24h-24z"/>
		</clipPath>
		<clipPath clipPathUnits="userSpaceOnUse" id="cp9">
			<path d="m790.09 324.68h24v24h-24z"/>
		</clipPath>
		<clipPath clipPathUnits="userSpaceOnUse" id="cp10">
			<path d="m670.88 714.51h24v24h-24z"/>
		</clipPath>
		<clipPath clipPathUnits="userSpaceOnUse" id="cp11">
			<path d="m913.54 212.52h24v24h-24z"/>
		</clipPath>
		<clipPath clipPathUnits="userSpaceOnUse" id="cp12">
			<path d="m606.54 183.52h24v24h-24z"/>
		</clipPath>
	</defs>
	<style>
		.s0 { fill: none;stroke: #cc0000 } 
		.s1 { fill: #0b0b0b } 
		.s2 { fill: none } 
		.s3 { fill: #ffffff;stroke: #d9d9d9 } 
		.s4 { opacity: .2;fill: none } 
		.s5 { fill: #222222 } 
		.s6 { fill: none;stroke: #000000 } 
		.s7 { fill: #cc0000 } 
		.s8 { fill: #0099ff } 
		.s9 { fill: #cf0a2c } 
		.s10 { fill: #ffffff } 
		.s11 { mix-blend-mode: luminosity;fill: #cc0000 } 
	</style>
	<path id="Layer" class="s0" d="m43.2-31.3h160.3"/>
	<path id="Layer" fill-rule="evenodd" class="s1" d="m69.9-73.2v19.5h-3.9v-12.7l-5.2 12.7h-3l-5.3-12.7v12.7h-3.9v-19.5h4.5l6.2 14.5 6.2-14.5zm2.9 11.7q0-2.3 0.9-4.2 0.9-1.8 2.5-2.8 1.7-0.9 3.7-0.9 1.7 0 3 0.7 1.3 0.7 2.1 1.7v-2.2h3.9v15.5h-3.9v-2.2q-0.8 1.1-2.1 1.8-1.3 0.7-3.1 0.7-1.9 0-3.6-1-1.6-1-2.5-2.9-0.9-1.8-0.9-4.2zm12.2 0.1q0-1.5-0.6-2.5-0.5-1-1.5-1.5-0.9-0.6-2-0.6-1.1 0-2.1 0.5-0.9 0.6-1.5 1.6-0.5 1-0.5 2.4 0 1.4 0.5 2.5 0.6 1 1.5 1.6 1 0.5 2.1 0.5 1.1 0 2-0.5 1-0.6 1.5-1.6 0.6-1 0.6-2.4zm11.7-5.5q0.7-1.1 2-1.8 1.4-0.7 3.1-0.7 2 0 3.6 0.9 1.6 1 2.5 2.8 1 1.8 1 4.2 0 2.4-1 4.2-0.9 1.9-2.5 2.9-1.6 1-3.6 1-1.7 0-3-0.7-1.3-0.7-2.1-1.8v9.6h-3.9v-22.9h3.9zm8.2 5.5q0-1.4-0.6-2.4-0.6-1.1-1.5-1.6-0.9-0.5-2-0.5-1.1 0-2.1 0.5-0.9 0.6-1.5 1.6-0.5 1-0.5 2.4 0 1.4 0.5 2.5 0.6 1 1.5 1.6 1 0.5 2.1 0.5 1.1 0 2-0.6 0.9-0.5 1.5-1.6 0.6-1 0.6-2.4z"/>
	<path id="Layer" class="s2" d="m73.8 67h1384.9v816.4h-1384.9z"/>
	<path id="Layer" class="s3" d="m0.5 13.9c0-11.1 9-20.2 20.1-20.2h1445c11.1 0 20.2 9.1 20.2 20.2v986.7c0 11.1-9.1 20.2-20.2 20.2h-1445c-11.1 0-20.1-9.1-20.1-20.2z"/>
	<path id="Layer" class="s2" d="m39.1 67h1357.5v816.4h-1357.5z"/>
	<path id="Layer" class="s4" d="m192.2 67h1207.1v816.4h-1207.1z"/>
	<path id="Layer" fill-rule="evenodd" class="s5" d="m115.2 833.8q-4 0-7-1.4-3-1.5-4.6-3.8-1.6-2.4-1.9-5.2h1.2q0.3 2.1 1.5 4.2 1.3 2.1 3.9 3.6 2.7 1.5 6.9 1.5 3.4 0 5.9-1.2 2.6-1.4 4-3.5 1.4-2.2 1.4-4.8 0-3.4-1.6-5.4-1.5-2.1-3.9-3-2.3-1-6.2-2-4-1.1-6.5-2.2-2.5-1-4.2-3.3-1.7-2.2-1.7-6.1 0-2.7 1.5-5.1 1.6-2.5 4.4-3.9 2.9-1.5 6.5-1.5 3.8 0 6.5 1.3 2.7 1.4 4.2 3.4 1.5 2 2 4.2h-1.2q-0.4-1.7-1.7-3.5-1.4-1.8-3.8-3-2.5-1.3-6-1.3-3 0-5.6 1.2-2.5 1.1-4.1 3.3-1.5 2.1-1.5 4.9 0 3.5 1.6 5.6 1.6 2 3.9 3.1 2.4 0.9 6.3 1.9 4.1 1.1 6.5 2.2 2.4 1 4.1 3.2 1.7 2.2 1.7 6 0 2.6-1.5 5.1-1.3 2.4-4.2 4-2.8 1.5-6.8 1.5zm62.5-32.8l-10.2 32.4h-0.9l-11.8-30.2-11.8 30.2h-0.9l-10.2-32.4h1.3l9.4 30.2 11.7-30.2h0.9l11.7 30.2 9.5-30.2zm6.9-8.3q-0.7 0-1.1-0.4-0.5-0.5-0.5-1.2 0-0.7 0.5-1.2 0.4-0.4 1.1-0.4 0.7 0 1.1 0.4 0.5 0.5 0.5 1.2 0 0.7-0.5 1.2-0.4 0.4-1.1 0.4zm0.6 8.3v32.4h-1.2v-32.4zm12.8 1.2v22.7q0 2.9 0.7 4.5 0.6 1.5 2.1 2.2 1.4 0.6 4 0.6h3.4v1.2h-3.5q-4.2 0-6.1-1.9-1.8-2-1.8-6.6v-22.7h-5.3v-1.2h5.3v-8.3h1.2v8.3h10.2v1.2zm15.7 30.1h19.5v1.1h-20.8v-1.1l18.9-30.2h-18.3v-1.1h19.6v1.1zm40.6 0.4q5.4 0 9.2-2.8 3.7-2.7 4.5-7.5h1.2q-0.9 5.1-4.8 8.2-3.9 3.2-10.1 3.2-4.5 0-8.1-2-3.5-2-5.5-5.8-2-3.8-2-8.9 0-5.1 2-8.8 2-3.8 5.5-5.8 3.6-2 8.1-2 4.7 0 8.1 2.1 3.3 1.9 5 5.1 1.8 3.2 1.8 6.7 0 2.2-0.1 3.3h-29.2q0 5 2 8.3 2.1 3.4 5.3 5.1 3.2 1.6 7.1 1.6zm0-31.1q-3.9 0-7.1 1.7-3.2 1.6-5.3 5-2 3.3-2 8.3h28.2q0.3-5-1.6-8.3-1.9-3.4-5.2-5-3.2-1.7-7-1.7zm24.8 7.2q1.9-8.6 12.7-8.6v1.3h-0.5q-5.1 0-8.7 3-3.5 3-3.5 9.6v19.2h-1.2v-32.4h1.2zm20.2-19.8v44.4h-1.2v-44.4zm8.8 28.2q0-5.1 1.9-8.8 2-3.8 5.6-5.8 3.6-2 8.2-2 5.6 0 9.5 2.9 3.9 2.9 5.2 7.4v-9.9h1.1v32.4h-1.1v-9.9q-1.3 4.5-5.2 7.4-3.9 2.9-9.5 2.9-4.6 0-8.2-2-3.6-2-5.6-5.7-1.9-3.8-1.9-8.9zm30.4 0q0-4.6-1.9-8.1-1.9-3.6-5.3-5.5-3.3-2-7.5-2-4.4 0-7.7 1.9-3.2 1.9-5 5.4-1.8 3.5-1.8 8.3 0 4.8 1.8 8.3 1.8 3.5 5 5.4 3.3 1.8 7.7 1.8 4.2 0 7.5-1.9 3.4-2 5.3-5.5 1.9-3.5 1.9-8.1zm25.2-16.9q5.7 0 9.4 3.5 3.7 3.5 3.7 10.7v18.9h-1.2v-19q0-6.4-3.2-9.7-3.1-3.4-8.7-3.4-5.7 0-9.2 3.8-3.5 3.7-3.5 11.1v17.2h-1.2v-32.4h1.2v8.5q1.2-4.5 4.6-6.8 3.4-2.4 8.1-2.4zm21.5 16.9q0-5.1 2-8.8 1.9-3.8 5.5-5.8 3.6-2 8.3-2 5.5 0 9.4 2.9 3.9 2.9 5.2 7.4v-21.9h1.1v44.4h-1.1v-10q-1.3 4.6-5.2 7.5-3.9 2.9-9.4 2.9-4.7 0-8.3-2-3.6-2-5.5-5.7-2-3.8-2-8.9zm30.4 0q0-4.6-1.9-8.1-1.9-3.6-5.2-5.5-3.3-2-7.5-2-4.5 0-7.8 1.9-3.2 1.9-5 5.4-1.8 3.5-1.8 8.3 0 4.8 1.8 8.3 1.8 3.5 5 5.4 3.3 1.8 7.8 1.8 4.2 0 7.5-1.9 3.3-2 5.2-5.5 1.9-3.5 1.9-8.1z"/>
	<path id="Layer" fill-rule="evenodd" class="s5" d="m1126 791.3v21.1h-0.5v-21.1zm6.4 5.5v11.3q0 1.5 0.3 2.3 0.3 0.7 1 1.1 0.8 0.3 2 0.3h1.8v0.6h-1.8q-2.1 0-3-1-0.9-0.9-0.9-3.3v-11.3h-2.7v-0.6h2.7v-4.2h0.6v4.2h5.1v0.6zm8 7.5q0-2.6 1-4.4 1-1.9 2.8-2.9 1.8-1 4.1-1 2.8 0 4.8 1.4 1.9 1.5 2.6 3.7v-4.9h0.5v16.2h-0.5v-5q-0.7 2.3-2.6 3.7-2 1.5-4.8 1.5-2.3 0-4.1-1-1.8-1-2.8-2.9-1-1.9-1-4.4zm15.3 0q0-2.3-1-4.1-0.9-1.7-2.6-2.7-1.7-1-3.8-1-2.2 0-3.8 0.9-1.6 1-2.6 2.7-0.8 1.8-0.8 4.2 0 2.4 0.8 4.1 1 1.8 2.6 2.7 1.6 0.9 3.8 0.9 2.1 0 3.8-0.9 1.7-1 2.6-2.7 1-1.8 1-4.1zm6.2-14.1v22.2h-0.6v-22.2zm17.1 6l-9.3 23.8h-0.6l3-7.5-7-16.3h0.6l6.7 15.5 6-15.5z"/>
	<path id="Layer" fill-rule="evenodd" class="s5" d="m184.2 358.3v0.5h-9.7v9.7h8.8v0.6h-8.8v10.3h-0.6v-21.1zm4.3 8.8q1-4.3 6.4-4.3v0.7h-0.2q-2.6 0-4.4 1.5-1.8 1.4-1.8 4.7v9.7h-0.6v-16.2h0.6zm8.8 4.1q0-2.5 1-4.4 1-1.9 2.8-2.8 1.8-1.1 4.1-1.1 2.8 0 4.7 1.5 2 1.4 2.6 3.7v-5h0.6v16.2h-0.6v-4.9q-0.6 2.2-2.6 3.7-1.9 1.5-4.7 1.5-2.3 0-4.1-1-1.8-1.1-2.8-2.9-1-1.9-1-4.5zm15.2 0q0-2.3-0.9-4-1-1.8-2.6-2.7-1.7-1-3.8-1-2.2 0-3.9 0.9-1.6 0.9-2.5 2.7-0.9 1.7-0.9 4.1 0 2.4 0.9 4.2 0.9 1.8 2.5 2.7 1.7 0.9 3.9 0.9 2.1 0 3.8-0.9 1.6-1 2.6-2.8 0.9-1.7 0.9-4.1zm12.7-8.4q2.8 0 4.6 1.8 1.9 1.7 1.9 5.3v9.4h-0.6v-9.5q0-3.1-1.6-4.8-1.6-1.7-4.3-1.7-2.9 0-4.7 1.9-1.7 1.9-1.7 5.5v8.6h-0.6v-16.2h0.6v4.3q0.6-2.2 2.3-3.4 1.7-1.2 4.1-1.2zm10.7 8.4q0-2.5 1-4.4 1-1.9 2.8-2.9 1.7-1 4-1 3.1 0 5 1.6 2 1.6 2.4 4.1h-0.6q-0.4-2.4-2.2-3.7-1.9-1.4-4.6-1.4-2 0-3.6 0.8-1.6 0.9-2.6 2.6-1 1.8-1 4.3 0 2.6 1 4.4 1 1.7 2.6 2.6 1.6 0.8 3.6 0.8 2.7 0 4.6-1.4 1.8-1.3 2.2-3.7h0.6q-0.4 2.5-2.4 4.1-1.9 1.6-5 1.6-2.3 0-4-1-1.8-1-2.8-2.9-1-1.9-1-4.5zm26.6 7.8q2.7 0 4.6-1.4 1.9-1.3 2.3-3.7h0.6q-0.5 2.5-2.4 4.1-2 1.6-5.1 1.6-2.2 0-4-1-1.8-1-2.8-2.9-1-1.9-1-4.5 0-2.5 1-4.4 1-1.9 2.8-2.9 1.8-1 4-1 2.4 0 4.1 1.1 1.6 0.9 2.5 2.5 0.9 1.6 0.9 3.4 0 1.1-0.1 1.6h-14.6q0 2.5 1 4.2 1.1 1.7 2.7 2.5 1.6 0.8 3.5 0.8zm0-15.5q-1.9 0-3.5 0.8-1.6 0.8-2.7 2.5-1 1.7-1 4.2h14.1q0.2-2.5-0.8-4.2-0.9-1.7-2.6-2.5-1.6-0.8-3.5-0.8z"/>
	<path id="Layer" fill-rule="evenodd" class="s5" d="m1138.7 121.3q-1-2.6-3.3-4.2-2.3-1.7-5.5-1.7-2.6 0-4.8 1.3-2.1 1.2-3.4 3.5-1.2 2.4-1.2 5.4 0 3.1 1.2 5.5 1.3 2.3 3.4 3.5 2.2 1.3 4.8 1.3 2.6 0 4.7-1.2 2.2-1.2 3.5-3.5 1.3-2.3 1.3-5.3h-9.9v-0.5h10.5v0.2q0 3.2-1.3 5.6-1.3 2.5-3.6 3.9-2.3 1.3-5.2 1.3-2.9 0-5.2-1.3-2.3-1.4-3.6-3.9-1.3-2.4-1.3-5.6 0-3.1 1.3-5.5 1.3-2.5 3.6-3.8 2.3-1.4 5.2-1.4 3.4 0 5.9 1.7 2.4 1.8 3.5 4.7zm12.7 14.5q2.7 0 4.6-1.3 1.8-1.4 2.2-3.8h0.6q-0.4 2.5-2.4 4.1-1.9 1.6-5 1.6-2.3 0-4-1-1.8-1-2.8-2.9-1-1.9-1-4.4 0-2.6 1-4.5 1-1.9 2.8-2.8 1.7-1 4-1 2.4 0 4 1 1.7 1 2.6 2.6 0.8 1.6 0.8 3.3 0 1.1 0 1.6h-14.6q0 2.5 1 4.2 1 1.7 2.6 2.5 1.7 0.8 3.6 0.8zm0-15.5q-1.9 0-3.6 0.8-1.6 0.9-2.6 2.5-1 1.7-1 4.2h14.1q0.1-2.5-0.8-4.2-1-1.6-2.6-2.5-1.6-0.8-3.5-0.8zm12.4 3.6q0.9-4.3 6.4-4.3v0.7h-0.3q-2.6 0-4.4 1.5-1.7 1.4-1.7 4.7v9.7h-0.6v-16.2h0.6zm28.5-4.3q2.7 0 4.4 1.8 1.8 1.7 1.8 5.3v9.4h-0.6v-9.5q0-3.1-1.5-4.8-1.5-1.7-4.1-1.7-2.7 0-4.4 2-1.7 1.9-1.7 5.6v8.4h-0.6v-9.5q0-3.1-1.5-4.8-1.5-1.7-4.1-1.7-2.8 0-4.4 2-1.7 1.9-1.7 5.6v8.4h-0.6v-16.2h0.6v4.3q0.6-2.3 2.2-3.4 1.7-1.2 3.9-1.2 2.3 0 3.9 1.3 1.7 1.2 2.1 3.8 0.5-2.6 2.2-3.8 1.7-1.3 4.1-1.3zm10.3 8.4q0-2.5 1-4.4 1-1.9 2.8-2.8 1.8-1.1 4.1-1.1 2.8 0 4.7 1.5 2 1.4 2.7 3.7v-5h0.5v16.2h-0.5v-4.9q-0.7 2.2-2.7 3.7-1.9 1.5-4.7 1.5-2.3 0-4.1-1-1.8-1.1-2.8-2.9-1-1.9-1-4.5zm15.3 0q0-2.3-1-4-0.9-1.8-2.6-2.7-1.7-1-3.8-1-2.2 0-3.8 0.9-1.7 0.9-2.6 2.7-0.9 1.7-0.9 4.1 0 2.4 0.9 4.2 0.9 1.8 2.6 2.7 1.6 0.9 3.8 0.9 2.1 0 3.8-0.9 1.7-1 2.6-2.8 1-1.7 1-4.1zm12.6-8.4q2.8 0 4.7 1.8 1.8 1.7 1.8 5.3v9.4h-0.6v-9.5q0-3.1-1.6-4.8-1.6-1.7-4.3-1.7-2.9 0-4.6 1.9-1.8 1.9-1.8 5.5v8.6h-0.6v-16.2h0.6v4.3q0.6-2.2 2.3-3.4 1.7-1.2 4.1-1.2zm23.4 0.3l-9.2 23.9h-0.7l3-7.6-7-16.3h0.6l6.7 15.6 6-15.6z"/>
	<path id="Layer" fill-rule="evenodd" class="s5" d="m1226.5 316.5h-10.5l-2.2 5.8h-0.7l7.9-20.4h0.6l7.8 20.4h-0.7zm-0.2-0.5l-5-13.2-5 13.2zm19.8-9.8v16.2h-0.6v-4.4q-0.5 2.3-2.3 3.5-1.7 1.2-4.1 1.2-2.8 0-4.6-1.8-1.9-1.8-1.9-5.3v-9.4h0.6v9.4q0 3.2 1.6 4.9 1.6 1.6 4.3 1.6 2.9 0 4.7-1.8 1.7-1.9 1.7-5.6v-8.5zm10.3 16.4q-2.6 0-4.3-1.1-1.6-1.1-1.9-3.3h0.6q0.2 1.8 1.6 2.8 1.5 1 4.1 1 1.3 0 2.3-0.5 1-0.5 1.5-1.3 0.6-0.9 0.6-1.9 0-1.1-0.7-1.7-0.6-0.7-1.5-1.1-0.9-0.3-2.5-0.8-1.8-0.4-2.9-0.9-1-0.4-1.8-1.3-0.8-1-0.8-2.5 0-1.1 0.7-2 0.6-0.9 1.8-1.5 1.2-0.5 2.6-0.5 2.5 0 4 1.2 1.5 1.2 1.6 3.4h-0.6q-0.1-1.8-1.4-2.9-1.3-1.2-3.6-1.2-1.3 0-2.3 0.5-1 0.5-1.6 1.3-0.6 0.8-0.6 1.7 0 1.3 0.7 2.1 0.7 0.8 1.7 1.2 1 0.4 2.7 0.9 1.7 0.5 2.7 0.8 1 0.4 1.6 1.2 0.7 0.8 0.7 2.1 0 1.2-0.6 2.2-0.7 1-1.8 1.5-1.2 0.6-2.6 0.6zm10.6-15.8v11.3q0 1.5 0.3 2.3 0.4 0.7 1.1 1.1 0.7 0.3 2 0.3h1.7v0.6h-1.8q-2.1 0-3-1-0.9-1-0.9-3.3v-11.3h-2.6v-0.6h2.6v-4.2h0.6v4.2h5.1v0.6zm9.5 3.3q0.9-4.3 6.3-4.3v0.7h-0.2q-2.6 0-4.4 1.5-1.7 1.4-1.7 4.7v9.7h-0.6v-16.2h0.6zm9.8-8.1q-0.3 0-0.6-0.2-0.2-0.3-0.2-0.6 0-0.4 0.2-0.6 0.3-0.2 0.6-0.2 0.3 0 0.5 0.2 0.3 0.2 0.3 0.6 0 0.3-0.3 0.6-0.2 0.2-0.5 0.2zm0.3 4.1v16.2h-0.6v-16.2zm4.4 8.1q0-2.5 0.9-4.4 1-1.9 2.8-2.9 1.8-1 4.1-1 2.8 0 4.8 1.5 1.9 1.4 2.6 3.7v-5h0.5v16.2h-0.5v-4.9q-0.7 2.2-2.6 3.7-2 1.4-4.8 1.4-2.3 0-4.1-0.9-1.8-1.1-2.8-2.9-0.9-1.9-0.9-4.5zm15.2 0q0-2.3-1-4-0.9-1.8-2.6-2.7-1.7-1-3.8-1-2.2 0-3.8 0.9-1.6 0.9-2.5 2.7-0.9 1.7-0.9 4.1 0 2.4 0.9 4.2 0.9 1.7 2.5 2.7 1.6 0.9 3.8 0.9 2.1 0 3.8-1 1.7-0.9 2.6-2.7 1-1.8 1-4.1z"/>
	<path id="Layer" class="s6" d="m98.5 896.9h1289"/>
	<g id="Clip-Path" clip-path="url(#cp1)">
		<g id="Layer">
			<path id="Layer" fill-rule="evenodd" class="s7" d="m112.6 949.2v-0.9h-1.1v1.7h0.7c-0.1 0.5-0.2 0.9-0.2 1.2 0 1 0.7 1.9 1.7 2.1v0.7h-5.6v-10.2h5.6v4.1c-0.5 0.2-0.8 0.7-1.1 1.3zm-2.3-0.9h-1.1v1.7h1.1zm0-2.8h-1.1v1.7h1.1zm2.3 1.7v-1.7h-1.1v1.7zm-5.1-7.9v14.7h-7.9v-14.7zm-5.6 10.2h-1.1v1.6h1.1zm0-2.8h-1.1v1.7h1.1zm0-2.8h-1.1v1.7h1.1zm0-2.8h-1.1v1.7h1.1zm2.2 8.4h-1.1v1.7h1.1zm0-2.8h-1.1v1.7h1.1zm0-2.9h-1.1v1.7h1.1zm0-2.8h-1.1v1.7h1.1zm2.3 8.5h-1.1v1.6h1.1zm0-2.8h-1.1v1.7h1.1zm0-2.8h-1.1v1.7h1.1zm0-2.8h-1.1v1.7h1.1zm-5.6-2.8h5.6v0.8h-5.6zm15.7 16c0-0.1-0.1-0.3-0.3-0.3h-17.4c-0.2 0-0.3 0.2-0.3 0.3 0 0.2 0.1 0.3 0.3 0.3h17.4c0.2 0 0.3-0.1 0.3-0.3z"/>
			<path id="Layer" class="s7" d="m114.3 954.3c-0.2 0-0.3-0.2-0.3-0.3v-1.4c0-0.2 0.1-0.3 0.3-0.3 0.1 0 0.3 0.1 0.3 0.3v1.4c0 0.1-0.2 0.3-0.3 0.3z"/>
			<path id="Layer" class="s7" d="m116 951.2c0 0.9-0.8 1.6-1.7 1.6-1 0-1.7-0.7-1.7-1.6 0-0.9 0.7-2.9 1.7-2.9 0.9 0 1.7 2 1.7 2.9z"/>
		</g>
	</g>
	<path id="Layer" fill-rule="evenodd" class="s1" d="m129.9 951.9h4.9v1.5h-6.7v-14h1.8zm16.5-9.4v10.9h-1.8v-1.6q-0.5 0.8-1.5 1.3-0.9 0.5-2 0.5-1.3 0-2.3-0.6-1-0.5-1.6-1.5-0.6-1.1-0.6-2.6v-6.4h1.8v6.1q0 1.7 0.8 2.5 0.8 0.9 2.3 0.9 1.4 0 2.3-0.9 0.8-0.9 0.8-2.6v-6zm4.4 9.4h5.4v1.5h-7.5v-1.5l5.4-8h-5.3v-1.4h7.4v1.4zm17.7-4.4q0 0.6-0.1 1.1h-8.7q0.1 1.7 1.1 2.6 1 0.9 2.4 0.9 1.2 0 2-0.6 0.8-0.5 1.1-1.4h2q-0.5 1.5-1.8 2.5-1.3 1-3.3 1-1.5 0-2.8-0.7-1.2-0.7-1.9-2-0.7-1.3-0.7-3 0-1.7 0.7-2.9 0.7-1.3 1.9-2 1.2-0.7 2.8-0.7 1.6 0 2.8 0.7 1.2 0.7 1.8 1.9 0.7 1.1 0.7 2.6zm-1.9-0.3q0-1.1-0.4-1.8-0.5-0.8-1.3-1.2-0.8-0.4-1.7-0.4-1.4 0-2.4 0.9-1 0.9-1.1 2.5zm6.1-2.9q0.5-1 1.4-1.5 0.9-0.5 2.1-0.5v1.9h-0.4q-3.1 0-3.1 3.3v5.9h-1.8v-10.9h1.8zm11-2q2 0 3.2 1.2 1.3 1.2 1.3 3.5v6.5h-1.8v-6.2q0-1.7-0.8-2.5-0.9-0.9-2.3-0.9-1.4 0-2.3 0.9-0.8 0.9-0.8 2.6v6.1h-1.8v-11h1.8v1.6q0.5-0.9 1.4-1.3 1-0.5 2.1-0.5z"/>
	<g id="Clip-Path" clip-path="url(#cp2)">
		<g id="Layer">
			<path id="Layer" fill-rule="evenodd" class="s7" d="m332.6 949.2v-0.9h-1.1v1.7h0.7c-0.1 0.5-0.2 0.9-0.2 1.2 0 1 0.7 1.9 1.7 2.1v0.7h-5.6v-10.2h5.6v4.1c-0.5 0.2-0.8 0.7-1.1 1.3zm-2.3-0.9h-1.1v1.7h1.1zm0-2.8h-1.1v1.7h1.1zm2.3 1.7v-1.7h-1.1v1.7zm-5.1-7.9v14.7h-7.9v-14.7zm-5.6 10.2h-1.1v1.6h1.1zm0-2.8h-1.1v1.7h1.1zm0-2.8h-1.1v1.7h1.1zm0-2.8h-1.1v1.7h1.1zm2.2 8.4h-1.1v1.7h1.1zm0-2.8h-1.1v1.7h1.1zm0-2.9h-1.1v1.7h1.1zm0-2.8h-1.1v1.7h1.1zm2.3 8.5h-1.1v1.6h1.1zm0-2.8h-1.1v1.7h1.1zm0-2.8h-1.1v1.7h1.1zm0-2.8h-1.1v1.7h1.1zm-5.6-2.8h5.6v0.8h-5.6zm15.7 16c0-0.1-0.1-0.3-0.3-0.3h-17.4c-0.2 0-0.3 0.2-0.3 0.3 0 0.2 0.1 0.3 0.3 0.3h17.4c0.2 0 0.3-0.1 0.3-0.3z"/>
			<path id="Layer" class="s7" d="m334.3 954.3c-0.2 0-0.3-0.2-0.3-0.3v-1.4c0-0.2 0.1-0.3 0.3-0.3 0.1 0 0.3 0.1 0.3 0.3v1.4c0 0.1-0.2 0.3-0.3 0.3z"/>
			<path id="Layer" class="s7" d="m336 951.2c0 0.9-0.8 1.6-1.7 1.6-1 0-1.7-0.7-1.7-1.6 0-0.9 0.7-2.9 1.7-2.9 0.9 0 1.7 2 1.7 2.9z"/>
		</g>
	</g>
	<path id="Layer" fill-rule="evenodd" class="s1" d="m362.2 939.5v13.9h-1.8v-10.4l-4.6 10.4h-1.3l-4.6-10.4v10.4h-1.8v-13.9h1.9l5.1 11.5 5.2-11.5zm13 8q0 0.5 0 1.1h-8.8q0.1 1.6 1.1 2.5 1 0.9 2.5 0.9 1.2 0 1.9-0.5 0.8-0.6 1.2-1.5h1.9q-0.4 1.6-1.7 2.6-1.4 1-3.3 1-1.6 0-2.8-0.8-1.2-0.6-1.9-1.9-0.7-1.3-0.7-3 0-1.7 0.6-3 0.7-1.3 1.9-2 1.3-0.7 2.9-0.7 1.5 0 2.7 0.7 1.2 0.7 1.9 1.9 0.6 1.2 0.6 2.7zm-1.8-0.4q0-1-0.5-1.8-0.5-0.7-1.3-1.1-0.7-0.4-1.7-0.4-1.4 0-2.4 0.9-0.9 0.8-1.1 2.4zm5.3-6.5q-0.6 0-0.9-0.3-0.4-0.4-0.4-0.9 0-0.5 0.4-0.9 0.3-0.4 0.9-0.4 0.5 0 0.8 0.4 0.4 0.4 0.4 0.9 0 0.5-0.4 0.9-0.3 0.3-0.8 0.3zm0.8 1.8v11h-1.8v-11zm5 1.8q0.4-0.9 1.3-1.5 0.9-0.5 2.2-0.5v1.9h-0.5q-3.1 0-3 3.3v6h-1.9v-11h1.9zm6.5-3.5q-0.5 0-0.8-0.4-0.4-0.4-0.4-0.9 0-0.5 0.4-0.9 0.3-0.3 0.8-0.3 0.5 0 0.9 0.3 0.3 0.4 0.3 0.9 0 0.5-0.3 0.9-0.4 0.4-0.9 0.4zm0.9 1.7v11h-1.8v-11zm8.4-0.2q2 0 3.3 1.3 1.2 1.2 1.2 3.4v6.5h-1.8v-6.2q0-1.6-0.8-2.5-0.8-0.9-2.2-0.9-1.5 0-2.3 0.9-0.9 0.9-0.9 2.6v6.1h-1.8v-11h1.8v1.6q0.6-0.8 1.5-1.3 0.9-0.5 2-0.5zm12 0.1q1.4 0 2.5 0.6 1.1 0.6 1.6 1.5v-2h1.8v11.2q0 1.5-0.6 2.7-0.7 1.2-1.9 1.8-1.1 0.7-2.7 0.7-2.2 0-3.6-1-1.5-1-1.7-2.8h1.8q0.3 1 1.2 1.6 1 0.6 2.3 0.6 1.5 0 2.4-0.9 1-1 1-2.7v-2.3q-0.6 1-1.6 1.6-1.1 0.7-2.5 0.7-1.5 0-2.7-0.8-1.1-0.7-1.8-2-0.7-1.3-0.7-2.9 0-1.7 0.7-3 0.7-1.2 1.8-1.9 1.2-0.7 2.7-0.7zm4.1 5.6q0-1.2-0.5-2.2-0.5-0.9-1.4-1.4-0.8-0.5-1.8-0.5-1.1 0-1.9 0.5-0.8 0.5-1.3 1.4-0.5 0.9-0.5 2.2 0 1.2 0.5 2.2 0.5 0.9 1.3 1.4 0.8 0.5 1.9 0.5 1 0 1.8-0.5 0.9-0.5 1.4-1.4 0.5-1 0.5-2.2zm14.9-0.4q0 0.5-0.1 1.1h-8.7q0.1 1.6 1.1 2.5 1 0.9 2.4 0.9 1.2 0 2-0.5 0.8-0.6 1.1-1.5h2q-0.5 1.6-1.8 2.6-1.3 1-3.3 1-1.5 0-2.8-0.7-1.2-0.7-1.9-2-0.7-1.3-0.7-3 0-1.7 0.7-3 0.7-1.3 1.9-1.9 1.2-0.7 2.8-0.7 1.6 0 2.8 0.6 1.2 0.7 1.8 1.9 0.7 1.2 0.7 2.7zm-1.9-0.4q0-1-0.4-1.8-0.5-0.7-1.3-1.1-0.8-0.4-1.7-0.4-1.4 0-2.4 0.9-1 0.9-1.1 2.4zm9.6-4.9q2 0 3.3 1.3 1.2 1.2 1.2 3.4v6.5h-1.8v-6.2q0-1.6-0.8-2.5-0.8-0.9-2.3-0.9-1.4 0-2.3 0.9-0.8 0.9-0.8 2.6v6.1h-1.8v-11h1.8v1.6q0.5-0.8 1.5-1.3 0.9-0.5 2-0.5z"/>
	<g id="Clip-Path" clip-path="url(#cp3)">
		<g id="Layer">
			<path id="Layer" fill-rule="evenodd" class="s7" d="m587.6 949.2v-0.9h-1.1v1.7h0.7c-0.1 0.5-0.2 0.9-0.2 1.2 0 1 0.7 1.9 1.7 2.1v0.7h-5.6v-10.2h5.6v4.1c-0.5 0.2-0.8 0.7-1.1 1.3zm-2.3-0.9h-1.1v1.7h1.1zm0-2.8h-1.1v1.7h1.1zm2.3 1.7v-1.7h-1.1v1.7zm-5.1-7.9v14.7h-7.9v-14.7zm-5.6 10.2h-1.1v1.6h1.1zm0-2.8h-1.1v1.7h1.1zm0-2.8h-1.1v1.7h1.1zm0-2.8h-1.1v1.7h1.1zm2.2 8.4h-1.1v1.7h1.1zm0-2.8h-1.1v1.7h1.1zm0-2.9h-1.1v1.7h1.1zm0-2.8h-1.1v1.7h1.1zm2.3 8.5h-1.1v1.6h1.1zm0-2.8h-1.1v1.7h1.1zm0-2.8h-1.1v1.7h1.1zm0-2.8h-1.1v1.7h1.1zm-5.6-2.8h5.6v0.8h-5.6zm15.7 16c0-0.1-0.1-0.3-0.3-0.3h-17.4c-0.2 0-0.3 0.2-0.3 0.3 0 0.2 0.1 0.3 0.3 0.3h17.4c0.2 0 0.3-0.1 0.3-0.3z"/>
			<path id="Layer" class="s7" d="m589.3 954.3c-0.2 0-0.3-0.2-0.3-0.3v-1.4c0-0.2 0.1-0.3 0.3-0.3 0.1 0 0.3 0.1 0.3 0.3v1.4c0 0.1-0.2 0.3-0.3 0.3z"/>
			<path id="Layer" class="s7" d="m591 951.2c0 0.9-0.8 1.6-1.7 1.6-1 0-1.7-0.7-1.7-1.6 0-0.9 0.7-2.9 1.7-2.9 0.9 0 1.7 2 1.7 2.9z"/>
		</g>
	</g>
	<path id="Layer" fill-rule="evenodd" class="s1" d="m604.9 939.4v14h-1.8v-14zm8.4 2.8q2 0 3.2 1.2 1.3 1.2 1.3 3.5v6.5h-1.8v-6.2q0-1.7-0.8-2.5-0.9-0.9-2.3-0.9-1.4 0-2.3 0.9-0.8 0.9-0.8 2.6v6.1h-1.8v-11h1.8v1.6q0.5-0.9 1.4-1.3 1-0.5 2.1-0.5zm9.7 1.7v6.5q0 0.8 0.3 1.1 0.4 0.3 1.2 0.3h1.3v1.6h-1.6q-1.5 0-2.3-0.7-0.7-0.7-0.7-2.3v-6.5h-1.5v-1.5h1.5v-2.7h1.8v2.7h2.8v1.5zm15.1 3.6q0 0.5-0.1 1.1h-8.7q0.1 1.6 1.1 2.5 1 0.9 2.4 0.9 1.2 0 2-0.5 0.8-0.6 1.1-1.5h2q-0.5 1.6-1.8 2.6-1.3 1-3.3 1-1.5 0-2.8-0.8-1.2-0.6-1.9-1.9-0.7-1.3-0.7-3 0-1.7 0.7-3 0.7-1.3 1.9-2 1.2-0.7 2.8-0.7 1.6 0 2.8 0.7 1.2 0.7 1.8 1.9 0.7 1.2 0.7 2.7zm-1.9-0.4q0-1-0.4-1.8-0.5-0.7-1.3-1.1-0.8-0.4-1.7-0.4-1.4 0-2.4 0.9-1 0.8-1.1 2.4zm6.1-2.9q0.5-0.9 1.4-1.5 0.9-0.5 2.1-0.5v1.9h-0.4q-3.1 0-3.1 3.3v6h-1.8v-11h1.8zm7.5-5.6v14.8h-1.9v-14.8zm2.5 9.3q0-1.7 0.6-3 0.7-1.2 1.9-1.9 1.2-0.7 2.7-0.7 1.4 0 2.5 0.6 1 0.6 1.5 1.5v-2h1.9v11h-1.9v-2.1q-0.5 1-1.6 1.7-1 0.6-2.5 0.6-1.4 0-2.6-0.8-1.2-0.7-1.9-2-0.6-1.3-0.6-2.9zm9.2 0q0-1.2-0.5-2.2-0.5-0.9-1.3-1.4-0.9-0.5-1.9-0.5-1 0-1.8 0.5-0.9 0.5-1.4 1.4-0.5 0.9-0.5 2.2 0 1.2 0.5 2.2 0.5 0.9 1.4 1.4 0.8 0.5 1.8 0.5 1 0 1.9-0.5 0.8-0.5 1.3-1.4 0.5-1 0.5-2.2zm11.1 5.5l-4.3-4.8v4.8h-1.8v-14.8h1.8v8.7l4.2-4.9h2.5l-5.1 5.5 5.2 5.5zm14.1-5.9q0 0.5 0 1.1h-8.8q0.1 1.6 1.1 2.5 1 0.9 2.5 0.9 1.2 0 1.9-0.5 0.8-0.6 1.2-1.5h1.9q-0.4 1.6-1.7 2.6-1.4 1-3.3 1-1.6 0-2.8-0.7-1.2-0.7-1.9-2-0.7-1.3-0.7-3 0-1.7 0.6-3 0.7-1.3 1.9-1.9 1.3-0.7 2.9-0.7 1.5 0 2.7 0.6 1.2 0.7 1.9 1.9 0.6 1.2 0.6 2.7zm-1.8-0.4q0-1-0.5-1.8-0.5-0.7-1.3-1.1-0.7-0.4-1.7-0.4-1.4 0-2.4 0.9-0.9 0.9-1.1 2.4zm9.7-4.9q2 0 3.2 1.3 1.2 1.2 1.2 3.4v6.5h-1.8v-6.2q0-1.6-0.8-2.5-0.8-0.9-2.2-0.9-1.5 0-2.3 0.9-0.9 0.9-0.9 2.6v6.1h-1.8v-11h1.8v1.6q0.6-0.8 1.5-1.3 0.9-0.5 2.1-0.5z"/>
	<g id="Clip-Path" clip-path="url(#cp4)">
		<g id="Layer">
			<path id="Layer" fill-rule="evenodd" class="s7" d="m1078.6 949.2v-0.9h-1.1v1.7h0.7c-0.1 0.5-0.2 0.9-0.2 1.2 0 1 0.7 1.9 1.7 2.1v0.7h-5.6v-10.2h5.6v4.1c-0.5 0.2-0.8 0.7-1.1 1.3zm-2.3-0.9h-1.1v1.7h1.1zm0-2.8h-1.1v1.7h1.1zm2.3 1.7v-1.7h-1.1v1.7zm-5.1-7.9v14.7h-7.9v-14.7zm-5.6 10.2h-1.1v1.6h1.1zm0-2.8h-1.1v1.7h1.1zm0-2.8h-1.1v1.7h1.1zm0-2.8h-1.1v1.7h1.1zm2.2 8.4h-1.1v1.7h1.1zm0-2.8h-1.1v1.7h1.1zm0-2.9h-1.1v1.7h1.1zm0-2.8h-1.1v1.7h1.1zm2.3 8.5h-1.1v1.6h1.1zm0-2.8h-1.1v1.7h1.1zm0-2.8h-1.1v1.7h1.1zm0-2.8h-1.1v1.7h1.1zm-5.6-2.8h5.6v0.8h-5.6zm15.7 16c0-0.1-0.1-0.3-0.3-0.3h-17.4c-0.1 0-0.3 0.2-0.3 0.3 0 0.2 0.2 0.3 0.3 0.3h17.4c0.2 0 0.3-0.1 0.3-0.3z"/>
			<path id="Layer" class="s7" d="m1080.3 954.3c-0.2 0-0.3-0.2-0.3-0.3v-1.4c0-0.2 0.1-0.3 0.3-0.3 0.1 0 0.3 0.1 0.3 0.3v1.4c0 0.1-0.2 0.3-0.3 0.3z"/>
			<path id="Layer" class="s7" d="m1082 951.2c0 0.9-0.8 1.6-1.7 1.6-1 0-1.7-0.7-1.7-1.6 0-0.9 0.7-2.9 1.7-2.9 0.9 0 1.7 2 1.7 2.9z"/>
		</g>
	</g>
	<path id="Layer" fill-rule="evenodd" class="s1" d="m1101 946.2q0.8 0.1 1.4 0.6 0.7 0.5 1 1.2 0.4 0.8 0.4 1.6 0 1.1-0.5 1.9-0.6 0.9-1.6 1.4-1 0.5-2.4 0.5h-5.2v-14h5q1.4 0 2.4 0.5 1 0.5 1.5 1.3 0.5 0.8 0.5 1.8 0 1.2-0.7 2-0.7 0.8-1.8 1.2zm-5.1-0.7h3q1.3 0 2-0.7 0.7-0.5 0.7-1.6 0-1.1-0.7-1.7-0.7-0.6-2-0.6h-3zm3.2 6.4q1.4 0.1 2.1-0.6 0.8-0.6 0.8-1.8 0-1.1-0.8-1.8-0.8-0.7-2.2-0.7h-3.1v4.9zm6.5-4q0-1.6 0.7-2.9 0.7-1.3 1.9-2 1.2-0.7 2.6-0.7 1.5 0 2.5 0.6 1.1 0.7 1.6 1.6v-2h1.9v11h-1.9v-2.1q-0.5 1-1.6 1.6-1.1 0.6-2.5 0.6-1.5 0-2.6-0.7-1.2-0.7-1.9-2-0.7-1.3-0.7-3zm9.3 0q0-1.2-0.5-2.1-0.5-0.9-1.3-1.4-0.9-0.5-1.9-0.5-1 0-1.9 0.5-0.8 0.5-1.3 1.4-0.5 0.9-0.5 2.1 0 1.3 0.5 2.2 0.5 1 1.3 1.4 0.9 0.5 1.9 0.5 1 0 1.9-0.5 0.8-0.4 1.3-1.4 0.5-0.9 0.5-2.2zm8.8 5.7q-1.3 0-2.3-0.4-1-0.4-1.5-1.2-0.6-0.8-0.7-1.8h1.9q0.1 0.9 0.8 1.4 0.7 0.5 1.8 0.5 1 0 1.6-0.5 0.6-0.4 0.6-1.1 0-0.7-0.6-1.1-0.7-0.3-2-0.7-1.2-0.3-2-0.6-0.8-0.4-1.3-1-0.6-0.7-0.6-1.7 0-0.9 0.5-1.6 0.5-0.7 1.5-1.1 0.9-0.4 2.1-0.4 1.8 0 2.9 0.9 1.1 1 1.2 2.6h-1.8q-0.1-0.9-0.7-1.4-0.6-0.5-1.7-0.6-1 0.1-1.6 0.5-0.5 0.4-0.5 1.1 0 0.5 0.3 0.9 0.4 0.3 0.9 0.5 0.5 0.2 1.5 0.5 1.1 0.3 1.9 0.6 0.7 0.3 1.2 0.9 0.6 0.7 0.6 1.7 0 0.9-0.5 1.6-0.5 0.7-1.4 1.1-0.9 0.4-2.1 0.4zm16.6-6.1q0 0.6-0.1 1.1h-8.7q0.1 1.7 1.1 2.6 1 0.9 2.4 0.9 1.2 0 2-0.6 0.8-0.5 1.1-1.4h2q-0.5 1.6-1.8 2.5-1.3 1-3.3 1-1.5 0-2.8-0.7-1.2-0.7-1.9-1.9-0.7-1.3-0.7-3.1 0-1.6 0.7-2.9 0.7-1.3 1.9-2 1.2-0.7 2.8-0.7 1.6 0 2.8 0.7 1.2 0.7 1.8 1.9 0.7 1.2 0.7 2.6zm-1.9-0.3q0-1.1-0.5-1.8-0.4-0.8-1.2-1.1-0.8-0.4-1.8-0.5-1.4 0.1-2.3 0.9-1 0.9-1.1 2.5zm6.1-8.5v14.8h-1.8v-14.8z"/>
	<g id="Clip-Path" clip-path="url(#cp5)">
		<g id="Layer">
			<path id="Layer" fill-rule="evenodd" class="s7" d="m842.6 949.2v-0.9h-1.1v1.7h0.7c-0.1 0.5-0.2 0.9-0.2 1.2 0 1 0.7 1.9 1.7 2.1v0.7h-5.6v-10.2h5.6v4.1c-0.5 0.2-0.8 0.7-1.1 1.3zm-2.3-0.9h-1.1v1.7h1.1zm0-2.8h-1.1v1.7h1.1zm2.3 1.7v-1.7h-1.1v1.7zm-5.1-7.9v14.7h-7.9v-14.7zm-5.6 10.2h-1.1v1.6h1.1zm0-2.8h-1.1v1.7h1.1zm0-2.8h-1.1v1.7h1.1zm0-2.8h-1.1v1.7h1.1zm2.2 8.4h-1.1v1.7h1.1zm0-2.8h-1.1v1.7h1.1zm0-2.9h-1.1v1.7h1.1zm0-2.8h-1.1v1.7h1.1zm2.3 8.5h-1.1v1.6h1.1zm0-2.8h-1.1v1.7h1.1zm0-2.8h-1.1v1.7h1.1zm0-2.8h-1.1v1.7h1.1zm-5.6-2.8h5.6v0.8h-5.6zm15.7 16c0-0.1-0.1-0.3-0.3-0.3h-17.4c-0.2 0-0.3 0.2-0.3 0.3 0 0.2 0.1 0.3 0.3 0.3h17.4c0.2 0 0.3-0.1 0.3-0.3z"/>
			<path id="Layer" class="s7" d="m844.3 954.3c-0.2 0-0.3-0.2-0.3-0.3v-1.4c0-0.2 0.1-0.3 0.3-0.3 0.1 0 0.3 0.1 0.3 0.3v1.4c0 0.1-0.2 0.3-0.3 0.3z"/>
			<path id="Layer" class="s7" d="m846 951.2c0 0.9-0.8 1.6-1.7 1.6-1 0-1.7-0.7-1.7-1.6 0-0.9 0.7-2.9 1.7-2.9 0.9 0 1.7 2 1.7 2.9z"/>
		</g>
	</g>
	<path id="Layer" fill-rule="evenodd" class="s1" d="m859.6 951.8h6.8v1.6h-9v-1.5l6.8-10.9h-6.7v-1.6h8.9v1.5zm19.2-4.3q0 0.5 0 1.1h-8.8q0.1 1.6 1.1 2.5 1 0.9 2.5 0.9 1.2 0 1.9-0.5 0.8-0.6 1.2-1.5h1.9q-0.4 1.6-1.7 2.6-1.4 1-3.3 1-1.6-0.1-2.8-0.8-1.2-0.7-1.9-1.9-0.7-1.3-0.7-3 0-1.7 0.6-3 0.7-1.3 1.9-2 1.3-0.7 2.9-0.7 1.5 0 2.7 0.7 1.2 0.7 1.9 1.9 0.6 1.2 0.6 2.7zm-1.8-0.4q0-1.1-0.5-1.8-0.5-0.7-1.3-1.1-0.7-0.4-1.7-0.4-1.4 0-2.4 0.8-0.9 0.9-1.1 2.5zm6.1-2.9q0.5-1 1.4-1.5 0.9-0.5 2.2-0.5v1.9h-0.5q-3.1 0-3.1 3.3v6h-1.8v-11h1.8zm18.9-2q1.2 0 2.2 0.6 1 0.5 1.6 1.5 0.6 1.1 0.6 2.6v6.5h-1.8v-6.2q0-1.7-0.8-2.5-0.8-0.9-2.2-0.9-1.4 0-2.3 0.9-0.8 0.9-0.8 2.6v6.1h-1.8v-6.2q0-1.7-0.8-2.5-0.8-0.9-2.2-0.9-1.4 0-2.3 0.9-0.8 0.9-0.8 2.6v6.1h-1.8v-11h1.8v1.6q0.5-0.9 1.4-1.3 1-0.5 2.1-0.5 1.3 0 2.4 0.6 1.1 0.7 1.6 1.9 0.4-1.2 1.5-1.8 1.1-0.7 2.4-0.7zm6.7 5.7q0-1.7 0.7-3 0.7-1.3 1.8-2 1.2-0.7 2.7-0.7 1.4 0 2.5 0.7 1.1 0.6 1.6 1.5v-2h1.8v11h-1.8v-2.1q-0.6 1-1.6 1.6-1.1 0.7-2.5 0.7-1.5 0-2.7-0.8-1.1-0.7-1.8-2-0.7-1.3-0.7-2.9zm9.3 0q0-1.2-0.5-2.2-0.5-0.9-1.4-1.4-0.8-0.5-1.8-0.5-1.1 0-1.9 0.5-0.8 0.5-1.3 1.4-0.5 0.9-0.5 2.2 0 1.2 0.5 2.2 0.5 0.9 1.3 1.4 0.8 0.5 1.9 0.5 1 0 1.8-0.5 0.9-0.5 1.4-1.4 0.5-1 0.5-2.2zm7.1-4v6.5q0 0.8 0.4 1.1 0.3 0.3 1.1 0.3h1.4v1.6h-1.7q-1.5 0-2.2-0.7-0.8-0.7-0.8-2.3v-6.5h-1.4v-1.5h1.4v-2.7h1.8v2.7h2.9v1.5zm7.3 0v6.5q0 0.8 0.3 1.1 0.3 0.3 1.2 0.3h1.3v1.6h-1.6q-1.5 0-2.3-0.7-0.8-0.7-0.8-2.3v-6.5h-1.4v-1.5h1.4v-2.7h1.9v2.7h2.8v1.5z"/>
	<g id="Clip-Path" clip-path="url(#cp6)">
		<g id="Layer">
			<path id="Layer" fill-rule="evenodd" class="s7" d="m1288.6 949.2v-0.9h-1.1v1.7h0.7c-0.1 0.5-0.2 0.9-0.2 1.2 0 1 0.7 1.9 1.7 2.1v0.7h-5.6v-10.2h5.6v4.1c-0.5 0.2-0.8 0.7-1.1 1.3zm-2.3-0.9h-1.1v1.7h1.1zm0-2.8h-1.1v1.7h1.1zm2.3 1.7v-1.7h-1.1v1.7zm-5.1-7.9v14.7h-7.9v-14.7zm-5.6 10.2h-1.1v1.6h1.1zm0-2.8h-1.1v1.7h1.1zm0-2.8h-1.1v1.7h1.1zm0-2.8h-1.1v1.7h1.1zm2.2 8.4h-1.1v1.7h1.1zm0-2.8h-1.1v1.7h1.1zm0-2.9h-1.1v1.7h1.1zm0-2.8h-1.1v1.7h1.1zm2.3 8.5h-1.1v1.6h1.1zm0-2.8h-1.1v1.7h1.1zm0-2.8h-1.1v1.7h1.1zm0-2.8h-1.1v1.7h1.1zm-5.6-2.8h5.6v0.8h-5.6zm15.7 16c0-0.1-0.1-0.3-0.3-0.3h-17.4c-0.1 0-0.3 0.2-0.3 0.3 0 0.2 0.2 0.3 0.3 0.3h17.4c0.2 0 0.3-0.1 0.3-0.3z"/>
			<path id="Layer" class="s7" d="m1290.3 954.3c-0.2 0-0.3-0.2-0.3-0.3v-1.4c0-0.2 0.1-0.3 0.3-0.3 0.1 0 0.3 0.1 0.3 0.3v1.4c0 0.1-0.2 0.3-0.3 0.3z"/>
			<path id="Layer" class="s7" d="m1292 951.2c0 0.9-0.8 1.6-1.7 1.6-1 0-1.7-0.7-1.7-1.6 0-0.9 0.7-2.9 1.7-2.9 0.9 0 1.7 2 1.7 2.9z"/>
		</g>
	</g>
	<path id="Layer" class="s1" d="m1305.6 951.8h6.8v1.6h-9v-1.5l6.8-10.9h-6.7v-1.6h8.9v1.5zm19-9.4v11h-1.9v-1.7q-0.5 0.9-1.4 1.4-0.9 0.4-2.1 0.4-1.2 0-2.3-0.5-1-0.5-1.6-1.6-0.6-1-0.6-2.6v-6.4h1.8v6.2q0 1.6 0.9 2.5 0.8 0.8 2.2 0.8 1.5 0 2.3-0.9 0.8-0.9 0.8-2.6v-6zm4.9 1.8q0.5-1 1.4-1.5 0.9-0.5 2.2-0.5v1.9h-0.5q-3.1 0-3.1 3.3v6h-1.8v-11h1.8zm6.6-3.6q-0.5 0-0.9-0.3-0.3-0.4-0.3-0.9 0-0.5 0.3-0.9 0.4-0.3 0.9-0.3 0.5 0 0.9 0.3 0.3 0.4 0.3 0.9 0 0.5-0.3 0.9-0.4 0.3-0.9 0.3zm0.9 1.8v11h-1.8v-11zm2.4 5.5q0-1.7 0.7-3 0.7-1.3 1.9-2 1.2-0.7 2.7-0.7 2.1 0 3.4 1 1.3 1 1.7 2.7h-2q-0.2-1-1.1-1.5-0.8-0.6-2-0.6-1.5 0-2.5 1.1-0.9 1-0.9 3 0 2 0.9 3 1 1.1 2.5 1.1 1.2 0 2-0.5 0.8-0.6 1.1-1.6h2q-0.4 1.6-1.8 2.7-1.3 1-3.3 1-1.5 0-2.7-0.7-1.2-0.7-1.9-2-0.7-1.3-0.7-3zm18.3-5.7q1.2 0 2.2 0.6 1 0.5 1.6 1.5 0.5 1.1 0.5 2.6v6.5h-1.8v-6.2q0-1.7-0.8-2.5-0.8-0.9-2.2-0.9-1.5 0-2.3 0.9-0.9 0.9-0.9 2.6v6.1h-1.8v-14.8h1.8v5.4q0.6-0.9 1.5-1.3 1-0.5 2.2-0.5z"/>
	<path id="Layer" fill-rule="evenodd" class="s1" d="m599.2 474.1v13.5h-2.2v-13.5zm8.3 2.7q1.2 0 2.2 0.5 1 0.5 1.6 1.5 0.6 1.1 0.6 2.5v6.3h-2.2v-6q0-1.4-0.8-2.1-0.7-0.8-1.9-0.8-1.3 0-2 0.8-0.7 0.7-0.7 2.1v6h-2.2v-10.7h2.2v1.3q0.5-0.7 1.4-1.1 0.8-0.3 1.8-0.3zm9.7 1.9v5.9q0 0.6 0.3 0.9 0.3 0.3 1 0.3h1.3v1.8h-1.7q-1.5 0-2.3-0.7-0.8-0.7-0.8-2.3v-5.9h-1.2v-1.8h1.2v-2.6h2.2v2.6h2.6v1.8zm14.5 3.3q0 0.6-0.1 1.1h-8.2q0.1 1.3 1 2 0.8 0.8 2.1 0.8 1.7 0 2.5-1.5h2.4q-0.5 1.5-1.8 2.5-1.3 0.9-3.1 0.9-1.6 0-2.8-0.7-1.2-0.7-1.9-1.9-0.7-1.3-0.7-2.9 0-1.7 0.7-2.9 0.7-1.3 1.9-2 1.2-0.6 2.8-0.6 1.5 0 2.7 0.6 1.1 0.7 1.8 1.9 0.7 1.2 0.7 2.7zm-2.4-0.7q0-1.2-0.8-1.9-0.9-0.8-2.1-0.8-1.2 0-2 0.8-0.8 0.7-1 1.9zm6.7-2.8q0.5-0.8 1.3-1.3 0.8-0.4 1.9-0.4v2.2h-0.5q-1.3 0-2 0.7-0.7 0.7-0.7 2.3v5.6h-2.2v-10.7h2.2zm7.5-5.2v14.4h-2.3v-14.4zm2.2 9q0-1.6 0.7-2.9 0.6-1.2 1.8-1.9 1.2-0.7 2.5-0.7 1.3 0 2.2 0.5 1 0.5 1.5 1.2v-1.5h2.3v10.7h-2.3v-1.6q-0.5 0.7-1.5 1.2-0.9 0.5-2.2 0.5-1.4 0-2.5-0.7-1.2-0.7-1.8-1.9-0.7-1.3-0.7-2.9zm8.7 0q0-1.1-0.4-1.9-0.5-0.8-1.2-1.2-0.7-0.5-1.6-0.5-0.8 0-1.6 0.5-0.7 0.4-1.2 1.2-0.4 0.8-0.4 1.9 0 1.1 0.4 1.9 0.5 0.8 1.2 1.3 0.8 0.4 1.6 0.4 0.9 0 1.6-0.4 0.7-0.4 1.2-1.2 0.4-0.9 0.4-2zm9.4 0l4.9 5.4h-3l-3.9-4.6v4.6h-2.2v-14.4h2.2v8.4l3.9-4.7h3zm16.3-0.3q0 0.6-0.1 1.1h-8.1q0.1 1.3 0.9 2.1 0.9 0.7 2.1 0.7 1.8 0 2.5-1.5h2.4q-0.5 1.5-1.8 2.5-1.2 0.9-3.1 0.9-1.5 0-2.7-0.7-1.2-0.7-1.9-1.9-0.7-1.3-0.7-2.9 0-1.7 0.6-2.9 0.7-1.3 1.9-2 1.2-0.6 2.8-0.6 1.5 0 2.7 0.6 1.2 0.7 1.8 1.9 0.7 1.2 0.7 2.7zm-2.3-0.7q0-1.2-0.9-1.9-0.8-0.8-2.1-0.8-1.1 0-1.9 0.8-0.9 0.7-1 1.9zm9.9-4.5q1.2 0 2.2 0.5 1 0.5 1.6 1.5 0.5 1.1 0.5 2.5v6.3h-2.2v-6q0-1.4-0.7-2.1-0.7-0.8-1.9-0.8-1.3 0-2 0.8-0.7 0.7-0.7 2.1v6h-2.2v-10.7h2.2v1.3q0.5-0.7 1.4-1.1 0.8-0.3 1.8-0.3z"/>
	<g id="Clip-Path" clip-path="url(#cp7)">
		<g id="Layer">
			<path id="Layer" fill-rule="evenodd" class="s7" d="m714.2 491.4v-4.4c0-0.5-0.5-1-1-1h-3.3c-0.6 0-1 0.5-1 1v4.4h-7.5v-5.8h20.3v5.8zm-7.1-4.6c0-0.2-0.1-0.3-0.2-0.3h-3.7c-0.1 0-0.2 0.1-0.2 0.3v3.5c0 0.1 0.1 0.2 0.2 0.2h3.7c0.1 0 0.2-0.1 0.2-0.2zm8.8 3.5c0 0.1 0.1 0.2 0.3 0.2h3.7c0.1 0 0.2-0.1 0.2-0.2v-3.5c0-0.1-0.1-0.3-0.2-0.3h-3.7c-0.2 0-0.3 0.2-0.3 0.3zm-16-5.8c0-0.3 0.2-0.5 0.6-0.5h22.1c0.3 0 0.6 0.2 0.6 0.5 0 0.4-0.2 0.6-0.6 0.6h-22.1c-0.4 0-0.6-0.2-0.6-0.6z"/>
			<path id="Layer" fill-rule="evenodd" class="s7" d="m713.2 486.5c0.3 0 0.5 0.3 0.5 0.5v4.4h-4.3v-4.4c0-0.2 0.2-0.5 0.5-0.5zm-2.8 2.7c0-0.1-0.1-0.3-0.3-0.3-0.2 0-0.3 0.2-0.3 0.3 0 0.2 0.1 0.4 0.3 0.4 0.2 0 0.3-0.2 0.3-0.4zm1.1-17.6l10.2 8.3v3.6h-20.4v-3.6zm-2.1 7.1c0-0.1-0.1-0.3-0.2-0.3h-3.6c-0.1 0-0.2 0.2-0.2 0.3v3.4c0 0.1 0.1 0.2 0.2 0.2h3.6c0.1 0 0.2-0.1 0.2-0.2zm4.3 3.4c0 0.1 0.1 0.2 0.2 0.2h3.6c0.1 0 0.2-0.1 0.2-0.2v-3.4c0-0.1-0.1-0.3-0.2-0.3h-3.6c-0.1 0-0.2 0.2-0.2 0.3z"/>
			<path id="Layer" class="s7" d="m700.7 479.7l10.8-8.7 10.8 8.7c0.4 0.3 0.8 0.1 0.8-0.3v-0.8q0-0.3-0.1-0.4l-11-8.9c-0.3-0.2-0.7-0.2-0.9 0l-11 8.9q-0.2 0.1-0.2 0.4v0.8c0 0.4 0.5 0.6 0.8 0.3zm21.9 12.2h-22.1c-0.4 0-0.6 0.3-0.6 0.6 0 0.3 0.2 0.6 0.6 0.6h22.1c0.3 0 0.6-0.3 0.6-0.6 0-0.3-0.3-0.6-0.6-0.6z"/>
		</g>
	</g>
	<g id="Clip-Path" clip-path="url(#cp8)">
		<g id="Layer">
			<path id="Layer" fill-rule="evenodd" class="s7" d="m780.8 458v-4.4c0-0.6-0.5-1-1-1h-3.4c-0.5 0-1 0.4-1 1v4.4h-7.5v-5.8h20.4v5.8zm-7.1-4.7c0-0.1-0.1-0.2-0.2-0.2h-3.7c-0.2 0-0.3 0.1-0.3 0.2v3.5c0 0.2 0.1 0.3 0.3 0.3h3.7c0.1 0 0.2-0.1 0.2-0.3zm8.8 3.5c0 0.2 0.1 0.3 0.2 0.3h3.7c0.2 0 0.3-0.1 0.3-0.3v-3.5c0-0.1-0.1-0.2-0.3-0.2h-3.7c-0.1 0-0.2 0.1-0.2 0.2zm-16.1-5.7c0-0.3 0.3-0.6 0.6-0.6h22.2c0.3 0 0.6 0.3 0.6 0.6 0 0.3-0.3 0.6-0.6 0.6h-22.2c-0.3 0-0.6-0.3-0.6-0.6z"/>
			<path id="Layer" fill-rule="evenodd" class="s7" d="m779.8 453.1c0.2 0 0.5 0.2 0.5 0.5v4.4h-4.4v-4.4c0-0.3 0.3-0.5 0.5-0.5zm-2.7 2.7c0-0.2-0.1-0.3-0.3-0.3-0.2 0-0.3 0.1-0.3 0.3 0 0.2 0.1 0.3 0.3 0.3 0.2 0 0.3-0.1 0.3-0.3zm1.1-17.7l10.1 8.3v3.6h-20.3v-3.6zm-2.1 7.1c0-0.1-0.1-0.2-0.2-0.2h-3.6c-0.1 0-0.2 0.1-0.2 0.2v3.4c0 0.2 0.1 0.3 0.2 0.3h3.6c0.1 0 0.2-0.1 0.2-0.3zm4.2 3.4c0 0.2 0.1 0.3 0.3 0.3h3.5c0.1 0 0.3-0.1 0.3-0.3v-3.4c0-0.1-0.2-0.2-0.3-0.2h-3.5c-0.2 0-0.3 0.1-0.3 0.2z"/>
			<path id="Layer" class="s7" d="m767.3 446.3l10.8-8.8 10.8 8.8c0.3 0.3 0.8 0 0.8-0.4v-0.8q0-0.2-0.2-0.4l-10.9-8.9c-0.3-0.2-0.7-0.2-1 0l-10.9 8.9q-0.2 0.2-0.2 0.4v0.8c0 0.4 0.5 0.7 0.8 0.4zm21.9 12.2h-22.2c-0.3 0-0.6 0.3-0.6 0.6 0 0.3 0.3 0.6 0.6 0.6h22.2c0.3 0 0.6-0.3 0.6-0.6 0-0.3-0.3-0.6-0.6-0.6z"/>
		</g>
	</g>
	<path id="Layer" fill-rule="evenodd" class="s1" d="m811.7 440.7v13.5h-2.2v-9.3l-4.1 9.3h-1.5l-4.1-9.3v9.3h-2.3v-13.5h2.4l4.8 10.6 4.7-10.6zm12.6 7.9q0 0.6 0 1h-8.2q0.1 1.3 1 2.1 0.8 0.8 2.1 0.8 1.7 0 2.5-1.5h2.4q-0.5 1.5-1.8 2.4-1.3 0.9-3.1 0.9-1.6 0-2.8-0.6-1.2-0.7-1.9-2-0.7-1.2-0.7-2.9 0-1.6 0.7-2.9 0.7-1.2 1.9-1.9 1.2-0.7 2.8-0.7 1.5 0 2.6 0.7 1.2 0.6 1.9 1.8 0.6 1.2 0.6 2.8zm-2.3-0.7q0-1.3-0.8-2-0.9-0.7-2.1-0.7-1.2 0-2 0.7-0.8 0.7-1 2zm5.6-5.8q-0.6 0-1-0.4-0.4-0.4-0.4-1 0-0.6 0.4-1.1 0.4-0.4 1-0.4 0.6 0 1 0.4 0.4 0.5 0.4 1.1 0 0.6-0.4 1-0.4 0.4-1 0.4zm1.1 1.4v10.7h-2.2v-10.7zm5.1 1.5q0.5-0.8 1.3-1.2 0.8-0.5 1.9-0.5v2.3h-0.5q-1.3 0-2 0.7-0.7 0.6-0.7 2.2v5.7h-2.2v-10.7h2.2zm6.4-3q-0.6 0-1-0.4-0.4-0.4-0.4-1 0-0.6 0.4-1 0.4-0.4 1-0.4 0.5 0 1 0.4 0.4 0.4 0.4 1 0 0.6-0.4 1-0.5 0.4-1 0.4zm1 1.4v10.7h-2.2v-10.7zm8.3-0.1q1.3 0 2.3 0.5 1 0.5 1.5 1.5 0.6 1.1 0.6 2.5v6.3h-2.2v-6q0-1.4-0.7-2.1-0.7-0.8-2-0.8-1.2 0-1.9 0.8-0.8 0.7-0.8 2.1v6h-2.2v-10.7h2.2v1.3q0.6-0.7 1.4-1.1 0.9-0.3 1.8-0.3zm11.5 0q1.3 0 2.2 0.5 1 0.4 1.5 1.2v-1.6h2.2v10.9q0 1.5-0.6 2.6-0.6 1.2-1.8 1.8-1.1 0.7-2.8 0.7-2.1 0-3.6-1.1-1.4-1-1.6-2.7h2.2q0.2 0.8 1.1 1.3 0.8 0.6 1.9 0.6 1.4 0 2.2-0.9 0.8-0.8 0.8-2.3v-1.8q-0.5 0.8-1.5 1.3-1 0.5-2.2 0.5-1.4 0-2.5-0.7-1.2-0.7-1.9-2-0.6-1.3-0.6-2.9 0-1.6 0.6-2.8 0.7-1.3 1.9-1.9 1.1-0.7 2.5-0.7zm3.7 5.5q0-1.1-0.4-2-0.5-0.8-1.2-1.2-0.8-0.4-1.6-0.4-0.9 0-1.6 0.4-0.7 0.4-1.2 1.2-0.5 0.8-0.5 1.9 0 1.1 0.5 2 0.5 0.8 1.2 1.2 0.8 0.5 1.6 0.5 0.8 0 1.6-0.5 0.7-0.4 1.2-1.2 0.4-0.8 0.4-1.9zm14.9-0.3q0 0.6 0 1.1h-8.2q0.1 1.3 0.9 2 0.9 0.8 2.1 0.8 1.8 0 2.6-1.5h2.3q-0.4 1.5-1.7 2.5-1.3 0.9-3.2 0.9-1.5 0-2.7-0.7-1.2-0.7-1.9-1.9-0.7-1.3-0.7-2.9 0-1.7 0.7-2.9 0.6-1.3 1.8-2 1.3-0.6 2.8-0.6 1.5 0 2.7 0.6 1.2 0.7 1.9 1.9 0.6 1.2 0.6 2.7zm-2.3-0.7q0-1.2-0.8-1.9-0.9-0.8-2.2-0.8-1.1 0-1.9 0.8-0.8 0.7-1 1.9zm9.9-4.5q1.2 0 2.2 0.5 1 0.5 1.6 1.5 0.6 1.1 0.6 2.5v6.3h-2.2v-6q0-1.4-0.7-2.1-0.8-0.8-2-0.8-1.2 0-2 0.8-0.7 0.7-0.7 2.1v6h-2.2v-10.7h2.2v1.3q0.5-0.7 1.4-1.1 0.8-0.3 1.8-0.3z"/>
	<g id="Clip-Path" clip-path="url(#cp9)">
		<g id="Layer">
			<path id="Layer" fill-rule="evenodd" class="s7" d="m804.8 347v-4.4c0-0.5-0.5-1-1-1h-3.4c-0.5 0-1 0.5-1 1v4.4h-7.5v-5.8h20.4v5.8zm-7.1-4.6c0-0.2-0.1-0.3-0.2-0.3h-3.7c-0.2 0-0.3 0.1-0.3 0.3v3.5c0 0.1 0.1 0.2 0.3 0.2h3.7c0.1 0 0.2-0.1 0.2-0.2zm8.8 3.5c0 0.1 0.1 0.2 0.2 0.2h3.7c0.2 0 0.3-0.1 0.3-0.2v-3.5c0-0.2-0.1-0.3-0.3-0.3h-3.7c-0.1 0-0.2 0.1-0.2 0.3zm-16.1-5.8c0-0.3 0.3-0.6 0.6-0.6h22.2c0.3 0 0.6 0.3 0.6 0.6 0 0.3-0.3 0.6-0.6 0.6h-22.2c-0.3 0-0.6-0.3-0.6-0.6z"/>
			<path id="Layer" fill-rule="evenodd" class="s7" d="m803.8 342.1c0.2 0 0.5 0.2 0.5 0.5v4.4h-4.4v-4.4c0-0.3 0.3-0.5 0.5-0.5zm-2.7 2.7c0-0.2-0.1-0.3-0.3-0.3-0.2 0-0.3 0.1-0.3 0.3 0 0.2 0.1 0.3 0.3 0.3 0.2 0 0.3-0.1 0.3-0.3zm1.1-17.6l10.1 8.2v3.6h-20.3v-3.6zm-2.1 7.2c0-0.2-0.1-0.3-0.2-0.3h-3.6c-0.1 0-0.2 0.1-0.2 0.3v3.3c0 0.2 0.1 0.3 0.2 0.3h3.6c0.1 0 0.2-0.1 0.2-0.3zm4.2 3.5c0 0.1 0.1 0.2 0.3 0.2h3.5c0.1 0 0.3-0.1 0.3-0.2v-3.4c0-0.2-0.2-0.3-0.3-0.3h-3.5c-0.2 0-0.3 0.1-0.3 0.3z"/>
			<path id="Layer" class="s7" d="m791.3 335.3l10.8-8.8 10.8 8.8c0.3 0.3 0.8 0 0.8-0.4v-0.8q0-0.2-0.2-0.3l-10.9-9c-0.3-0.2-0.7-0.2-1 0l-10.9 9q-0.2 0.1-0.2 0.3v0.8c0 0.4 0.5 0.7 0.8 0.4zm21.9 12.2h-22.2c-0.3 0-0.6 0.3-0.6 0.6 0 0.3 0.3 0.6 0.6 0.6h22.2c0.3 0 0.6-0.3 0.6-0.6 0-0.3-0.3-0.6-0.6-0.6z"/>
		</g>
	</g>
	<path id="Layer" fill-rule="evenodd" class="s1" d="m823.8 341.4h4.5v1.8h-6.8v-13.5h2.3zm16-8.9v10.7h-2.2v-1.3q-0.5 0.7-1.4 1.1-0.8 0.4-1.7 0.4-1.3 0-2.3-0.6-1-0.5-1.6-1.5-0.5-1-0.5-2.5v-6.3h2.1v6q0 1.4 0.8 2.2 0.7 0.7 1.9 0.7 1.3 0 2-0.7 0.7-0.8 0.7-2.2v-6zm4.9 8.9h4.8v1.8h-7.4v-1.8l4.9-7.1h-4.9v-1.8h7.4v1.8zm17-3.8q0 0.6-0.1 1.1h-8.2q0.1 1.3 1 2.1 0.8 0.7 2.1 0.7 1.8 0 2.5-1.4h2.4q-0.5 1.4-1.8 2.4-1.2 0.9-3.1 0.9-1.6 0-2.8-0.7-1.2-0.7-1.9-1.9-0.7-1.3-0.7-2.9 0-1.7 0.7-2.9 0.7-1.3 1.9-1.9 1.2-0.7 2.8-0.7 1.5 0 2.7 0.6 1.1 0.7 1.8 1.9 0.7 1.2 0.7 2.7zm-2.3-0.7q-0.1-1.2-0.9-1.9-0.9-0.8-2.1-0.8-1.2 0-2 0.8-0.8 0.7-1 1.9zm6.7-2.8q0.5-0.8 1.3-1.3 0.8-0.4 1.9-0.4v2.3h-0.5q-1.3 0-2 0.6-0.7 0.7-0.7 2.3v5.6h-2.2v-10.6h2.2zm10.6-1.8q1.3 0 2.3 0.6 1 0.5 1.6 1.5 0.5 1 0.5 2.5v6.3h-2.2v-6q0-1.4-0.7-2.2-0.7-0.7-1.9-0.7-1.3 0-2 0.7-0.7 0.8-0.7 2.2v6h-2.2v-10.7h2.2v1.2q0.5-0.6 1.3-1 0.9-0.4 1.8-0.4z"/>
	<path id="Layer" fill-rule="evenodd" class="s1" d="m590.5 731.1h6.2v1.9h-8.8v-1.7l6.2-9.8h-6.2v-2h8.8v1.8zm18.5-3.7q0 0.6-0.1 1.1h-8.2q0.1 1.3 1 2 0.8 0.8 2.1 0.8 1.8 0 2.5-1.5h2.4q-0.5 1.5-1.8 2.4-1.2 1-3.1 1-1.5 0-2.8-0.7-1.2-0.7-1.9-2-0.6-1.2-0.6-2.9 0-1.6 0.6-2.8 0.7-1.3 1.9-2 1.2-0.7 2.8-0.7 1.5 0 2.7 0.7 1.2 0.7 1.8 1.9 0.7 1.1 0.7 2.7zm-2.3-0.7q-0.1-1.2-0.9-2-0.9-0.7-2.1-0.7-1.2 0-2 0.7-0.8 0.8-0.9 2zm6.6-2.8q0.5-0.8 1.3-1.3 0.8-0.5 1.9-0.5v2.3h-0.5q-1.3 0-2 0.7-0.7 0.6-0.7 2.3v5.6h-2.2v-10.7h2.2zm18.2-1.7q1.3 0 2.2 0.5 1 0.5 1.6 1.6 0.6 1 0.6 2.4v6.3h-2.2v-5.9q0-1.5-0.7-2.2-0.7-0.8-2-0.8-1.2 0-1.9 0.8-0.8 0.7-0.8 2.2v5.9h-2.2v-5.9q0-1.5-0.7-2.2-0.7-0.8-1.9-0.8-1.3 0-2 0.8-0.7 0.7-0.7 2.2v5.9h-2.2v-10.6h2.2v1.2q0.5-0.7 1.4-1 0.8-0.4 1.7-0.4 1.3 0 2.3 0.5 1 0.6 1.6 1.6 0.5-1 1.5-1.5 1-0.6 2.2-0.6zm6.5 5.5q0-1.7 0.6-2.9 0.7-1.2 1.8-1.9 1.2-0.7 2.6-0.7 1.3 0 2.2 0.5 0.9 0.5 1.5 1.2v-1.5h2.2v10.6h-2.2v-1.6q-0.6 0.8-1.5 1.3-1 0.5-2.2 0.5-1.4 0-2.6-0.7-1.1-0.7-1.8-2-0.6-1.2-0.6-2.8zm8.7 0q0-1.1-0.5-1.9-0.4-0.8-1.1-1.3-0.8-0.4-1.6-0.4-0.9 0-1.6 0.4-0.8 0.4-1.2 1.3-0.5 0.7-0.5 1.9 0 1.1 0.5 1.9 0.4 0.8 1.2 1.3 0.7 0.4 1.6 0.4 0.8 0 1.6-0.4 0.7-0.5 1.1-1.3 0.5-0.8 0.5-1.9zm7.7-3.5v5.9q0 0.6 0.3 0.8 0.3 0.3 0.9 0.3h1.4v1.8h-1.7q-1.5 0-2.3-0.7-0.8-0.7-0.8-2.2v-5.9h-1.3v-1.8h1.3v-2.7h2.2v2.7h2.6v1.8zm7.2 0v5.9q0 0.6 0.3 0.8 0.3 0.3 0.9 0.3h1.4v1.8h-1.7q-1.5 0-2.3-0.7-0.8-0.7-0.8-2.2v-5.9h-1.3v-1.8h1.3v-2.7h2.2v2.7h2.6v1.8z"/>
	<g id="Clip-Path" clip-path="url(#cp10)">
		<g id="Layer">
			<path id="Layer" fill-rule="evenodd" class="s7" d="m685.5 736.8v-4.4c0-0.5-0.4-1-1-1h-3.3c-0.5 0-1 0.5-1 1v4.4h-7.5v-5.8h20.3v5.8zm-7-4.6c0-0.2-0.1-0.3-0.3-0.3h-3.6c-0.2 0-0.3 0.1-0.3 0.3v3.5c0 0.1 0.1 0.2 0.3 0.2h3.6c0.2 0 0.3-0.1 0.3-0.2zm8.8 3.5c0 0.1 0.1 0.2 0.2 0.2h3.7c0.1 0 0.3-0.1 0.3-0.2v-3.5c0-0.1-0.2-0.3-0.3-0.3h-3.7c-0.1 0-0.2 0.2-0.2 0.3zm-16.1-5.8c0-0.3 0.3-0.5 0.6-0.5h22.2c0.3 0 0.6 0.2 0.6 0.5 0 0.4-0.3 0.6-0.6 0.6h-22.2c-0.3 0-0.6-0.2-0.6-0.6z"/>
			<path id="Layer" fill-rule="evenodd" class="s7" d="m684.5 731.9c0.3 0 0.5 0.3 0.5 0.5v4.4h-4.3v-4.4c0-0.2 0.2-0.5 0.5-0.5zm-2.7 2.7c0-0.1-0.1-0.3-0.3-0.3-0.2 0-0.3 0.2-0.3 0.3 0 0.2 0.1 0.4 0.3 0.4 0.2 0 0.3-0.2 0.3-0.4zm1.1-17.6l10.1 8.3v3.6h-20.3v-3.6zm-2.1 7.1c0-0.2-0.1-0.3-0.3-0.3h-3.5c-0.1 0-0.3 0.1-0.3 0.3v3.4c0 0.1 0.2 0.2 0.3 0.2h3.5c0.2 0 0.3-0.1 0.3-0.2zm4.2 3.4c0 0.1 0.1 0.2 0.2 0.2h3.6c0.1 0 0.2-0.1 0.2-0.2v-3.4c0-0.1-0.1-0.3-0.2-0.3h-3.6c-0.1 0-0.2 0.2-0.2 0.3z"/>
			<path id="Layer" class="s7" d="m672.1 725.1l10.8-8.7 10.8 8.7c0.3 0.3 0.8 0.1 0.8-0.3v-0.8q0-0.3-0.2-0.4l-10.9-8.9c-0.3-0.2-0.7-0.2-1 0l-10.9 8.9q-0.2 0.1-0.2 0.4v0.8c0 0.4 0.5 0.6 0.8 0.3zm21.9 12.2h-22.2c-0.3 0-0.6 0.3-0.6 0.6 0 0.3 0.3 0.6 0.6 0.6h22.2c0.3 0 0.5-0.3 0.5-0.6 0-0.3-0.2-0.6-0.5-0.6z"/>
		</g>
	</g>
	<g id="Layer" style="opacity: .1">
		<path id="Layer" class="s8" d="m925.4 232c1.1 0.5 1 2.2 0.8 2.9-2.2 4.4 3.1 3.1 4.9 3.1 1.8 0 0.9-3.9 0.9-4.8-0.1-1-3.7-4.8-5.5-4.9-1.8-0.1-2.3 3-1.1 3.7z"/>
		<path id="Layer" class="s8" d="m1011.2 313.5c-1.3 2 0.8 3.1 2 3.4 2.7-1.2 15.9 3.5 17.9 3.5 1.9 0 9.4 1.8 11.2 0 1.8-1.8 3-1.7 6.5-0.7 3.5 1 4.5 0.5 7 0 2.6-0.5 3.9-2.1 4.2-3.7 0.4-1.6-0.7-2-4.2 0-3.5 2-8-3.4-11.1-1.5-3.2 1.9-7.1 0-11 0-4 0-10.1-2.3-15.9-3.6-5.7-1.4-5 0.1-6.6 2.6z"/>
		<path id="Layer" class="s8" d="m975.9 357.3c-3.2-0.5-0.9-2.7 0.7-3.6 0.7-0.7 3.5 0 5.2 0.3 1.8 0.3 1.3-2 4.6-3.3 3.3-1.3 3.5 0.1 3.5 1.3 0.1 1.1-1.8 2.9-2.5 3.2-0.7 0.4-4.4 0-5.6 1-1.2 1-2 1.9-5.9 1.1z"/>
		<path id="Layer" class="s8" d="m945.3 774.3c-1.4 3.2 0.6 4.2 1.9 4.3 1 0.8 0.9 4.3 0.9 6.6 0 2.3 1.2 10.2 3.3 13.8 2 3.7 3.1 1.8 3.7 0 0.6-1.7 2.8-3.8 4.4-6.1 1.6-2.3 3.6-4.2 7.4-3.9 3.9 0.2 4.9 11.8 6.4 11.8 1.6 0 0.9-4.4 0.9-7.9 0-3.5-2.5-5.8-4.9-9.5-2.4-3.6-2.3 4.9-3.5-1.3-1.3-6.2 1-6.4 2.3-11.9 1.3-5.6 10.2-12.4 14.1-15.8 3.9-3.5 5.6-1 8.5-1.5 2.8-0.5 9 1.1 12.2 0.5 3.1-0.6 5.3-8.1 5.3-8.9 0-0.8-0.5-1.6-2.4-1.6-1.9 0.1-6 4.7-6.7 5.2-0.7 0.5-5.7 0.3-7.8 0-2-0.4-5.2-0.2-5.6 0.7-0.4 0.9-3 1-3.5 0.4-0.4-0.6-1 0.6-2.4 2.3-1.4 1.7-5.8 4.3-7.5 5.6-1.7 1.3-1.6 1.5-4.2 0.7-2.6-0.7-3.3 0-3.9 0-0.6 0-0.7 2.5 0.6 4.4 1.4 1.9 1 7.5 0.5 8-0.5 0.4-2.2 3.6-2.9 8.9-0.8 5.3-3.6 8.4-5.5 11.4-1.8 3-2.3 0.7-3.6-0.6-1.3-1.3-0.7-4.2-0.7-9 0-4.8-0.6-3.9-1.2-6-0.5-2.2 0-3.4 1.6-7.9 1.5-4.5-0.7-4-1.6-4.8-0.8-0.8-3.2 1.9-3.3 4.8 0 2.9-0.9 3.4-2.8 7.3z"/>
		<path id="Layer" class="s8" d="m909.4 243.6c-1.2 1.3-2-0.1-2.2-1 0-0.7-0.2-2.3-1.2-2.5-1.2-0.3-2.1-2.4-2.3-3.4-0.2-0.9-3.9-3.8-5.5-4.4-1.5-0.6-1.9-3.3-0.4-5.3 1.4-2 3.4-1 3.6 0 0.2 1 3.3 3.6 4.6 4.3 1.3 0.6 0.8 0.5 1.2 3 0.4 2.4 1 1.4 2.2 2.9 1.2 1.5 1 0.1 2.2 1.1 1.3 0.9-0.7 3.7-2.2 5.3z"/>
		<path id="Layer" class="s8" d="m965 322.3c-1.6 0-1.6 1.9-1.4 2.9 0 1.7 2.4 3.8 3.8 4.3 1.3 0.5-1.2 4.5-1.4 5.7-0.2 1.2 0 1.9 0.7 2.6 0.6 0.6 2.7-1.7 4.1-5.9 1.4-4.2-1.9-6.7-1.9-7.5 0-0.7-1.8-2.1-3.9-2.1z"/>
		<path id="Layer" class="s8" d="m869.1 230.7c-2.7-1.1-2.2 2.7-1.6 4.8 0.4 2.4 3.1 5.7 5.4 7.8 2.2 2.2 0.6 4.7 0.5 6.6-0.2 1.9 5.4 4 5.9 8.7 0.5 4.7 4.1 6.7 5.7 8.9 1.7 2.3 6.4 2.9 10.5 3.1 4.2 0.2 8.6 7 11.2 9.2 2.6 2.1 4.7 7.7 8.3 5.7 3.5-2 9.7 0.7 12.3 0.5 2.7-0.1 7.8-1.3 9 0.7 1.2 1.9 5.9 4.9 7.5 5 1.6 0.1 5.8-1.1 8.1-3.4 2.3-2.3 5.3-3.4 6.6-2.2 1.3 1.3 3.5 1.6 6.4 1.6 3 0 5.6-5 6.1-6.2 0.6-1.3 0.1-2.2-3-3-3.2-0.7-3.7 0.9-6 1.9-2.3 0.9-10.8-0.1-11.2-0.5-0.4-0.4-1.6-1.4-2.3 0-0.6 1.3-3.7 2.5-4.7 1.6-1-1-3 0-5 0-2.1 0-2.1-2.9 0-4.7 2-1.7-2.2-2.6-3.7-2.6-1.5 0-2.3 1.5-4 2.6-1.6 1.2-10.8-0.8-14.4-1.1-3.7-0.4-7.1-9.1-12.6-8.6-5.5 0.4-11.6-3.7-12.7-4.7-1.1-1.1-2.8-2-4.6-3.8-1.9-1.8-1.8-3.6-1.8-4.7 0-1.2-2.9-5.1-4.6-6.4-1.6-1.2-1.6-4.2-3.2-6.6-1.7-2.4-1.9-5.1-3.1-5.8-1.1-0.7-1.7-3-5-4.4z"/>
		<path id="Layer" class="s8" d="m888.4 310.5c-2.4-1.4-2.1 1.3-1.6 2.9 0.3 0.6 1.2 2.2 1.8 3.6 0.9 1.7 2.5 0.6 4.2 0.6 1.6-0.1 1.7 2.6 3 4.5 1.3 2 2.3 1.3 3.8 0.5 1.6-0.9 1.2-3.7 0.4-3.9-0.8-0.3-3.8-4.1-4.2-4.8-0.4-0.8-0.9-1.3-2.6-1.2-1.7 0-1.8-0.3-4.8-2.2z"/>
		<path id="Layer" class="s8" d="m927 309.3c-0.8 1.2 0.6 2.4 1.4 2.9 1.1 1 2.2 2.5 2.2 4.1 0 1.5 0.8 4.7 2.2 6 1.4 1.4 1.4 3.9 2.8 4 1.5 0 2.6 3.3 5.1 4.1 2.6 0.9 2.4-1.1 2.4-2.3-0.1-1.2-2.7-1.4-4.9-3.9-2.1-2.5-0.7-2.9-0.7-4.8 0-1.9-2.1-3.5-2.6-5.8-0.5-2.4 0-4.3 0-6.2 0-1.8-2.3-2.6-3.1-2.8-0.8-0.2-0.9-0.2-1.6 2-0.7 2.2-2.3 1.3-3.2 2.7z"/>
		<path id="Layer" class="s8" d="m861 321.6c1.7-1.4 0.1-2.5-0.9-2.8-0.7-0.5-2.2-1.4-2.6-1.6-0.5-0.3-1.2-2.5-0.4-4.1 0.8-1.6-0.8-2.5-1.7-3-0.9-0.5-1.4-3.1 0-3.6 1.4-0.6-0.6-4.3-1-5.9-0.3-1.7 1.1-4.6 3.6-5.2 2.6-0.6 5.1 3.1 5.5 4 0.4 1 2.7 0.3 3.6 1.9 0.9 1.6-1 4.1-2.2 5.2-1.2 1 0 4.5 0 5.8 0 1.3-1.3 1.9-1.4 4.4-0.2 2.5 0.8 1.6 1.4 4 0.6 2.3 4.1 5.8 5.8 6.3 1.3 0.4 0.7 7.4 0.3 10.8-1 1.1-3.3 2.5-4.9-0.5-2.1-3.6-3.2-4.4-5.1-5.7-1.8-1.3-4.2-4.7-4.4-5.9-0.2-1.3 2.3-2.3 4.4-4.1z"/>
		<path id="Layer" class="s8" d="m819.7 367.2c0.2 1.1-2.3 2-3.5 2.3-2.8 0.8 1.5 2 4.5 1.9 3-0.1-0.5 2.4 4 2 4.6-0.5 5.5-5.2 6.2-5.8 0.7-0.5 2.8-5.4 3.7-6.8 1-1.4 4.2 0.5 9.4 0.6 5.3 0 4.3 2.3 6.1 2.3 1.8 0 4.6-1.8 7-3.1 2.5-1.3 0.4 2.3 0 4.2-0.3 1.8-3 1.7-5.3 1.4-2.2-0.4-3.5 0.4-4.6 2-1.1 1.5-0.2 3.9 0.7 5.2 0.9 1.2 4.5 0.4 8.6 0 4.2-0.5 8.8 5.8 10.9 5.6 2.1-0.2 2.1-3.3 5.9-3.7 3.8-0.4 7.5-1.5 9.3-4.5 1.9-3.1 5.5-4.1 7.5-3.1 2.1 0.9-1.1 10.2-1.1 12.8-0.1 2.5 2.2 11 2.3 12.3 0.2 1.3-1.6 6.2-1.7 7.6-0.1 1.3 2.3 5.1 3.3 5.8 1 0.6 4.4-4.5 5.2-6.5 0.8-2.1-2.6-5.7-4.6-9.3-2-3.6 1.4-5.6 2.9-6.8 1.6-1.1 0.9-1.1 0.9-3.1 0.1-2.1-3.5-11.2-4.4-13.8-1-2.6-4.5-4.8-6.8-4.8-2.2 0-4.7 2.2-7.7 4.3-2.4 1.6-7.2 0.6-9.2 0-3.1 0.6-8.7 0.9-6.9-2.5 2.2-4.3-0.6-5.5-1.2-6.2-0.6-0.8-11.4-4.3-12.8-3.5-1.5 0.8-6.7-1-6.7-3 0-2.1 2.9-4.5 5.1-6.1 2.2-1.6 3-8.6 3-10.7 0.1-2.1-1.6-1.1-1.8 0-0.2 1.1-8.9 8.5-10.3 9.8-1.3 1.3-3.6 4.9-5 5.8-1.3 1-9.3-7-9.5-7.4-0.2-0.5-2.4-0.9-3.8 0-1.5 0.8 2.8 4.5 4.6 5.8 1.9 1.3 2.1 10.3 1.4 12.6-0.6 2.4-2.7 1.1-4.6 0-1.8-1-1.1 5.1-1 6.4z"/>
		<path id="Layer" class="s8" d="m717.9 481.6c-0.7 2-3 3.1-4.1 3.4-5.1 1.5-4.3 2.9-4.1 3.5 0.2 0.6 8.2 0.7 10.5-0.6 2.3-1.4 5-3.7 6-3.7 1.1 0 4.3-4.6 5.3-5.2 1.1-0.6 4.2-2.5 6.1-5 1.5-2 4.8-3.2 6.3-3.6 1-1.5 3.6-4.5 5.6-4.5 2.6 0 3.8-1 5-2 1.3-0.9-3.3-4-5.6-4.3-2.3-0.3-6.2 1.6-9.9 2.8-3.7 1.1-8.2 7.5-9.5 9.7-1.2 2.1-3.5 2.7-5.4 3.1-1.9 0.4-5.2 3.9-6.2 6.4z"/>
		<path id="Layer" class="s8" d="m504.1 337.4c-1.2 1.6-0.1 3.4 0.6 4.1 3.9 0.4 1 0 4.4-0.5 3.4-0.4 7.8-4.9 8.8-5.6 1-0.7 1.7-5.7 3-5.2 1.3 0.4-1.5 4.5-2.1 5.9-0.6 1.5-1.9 3.5-4.4 4.1-2.5 0.5-4 2.3-4.3 3-0.3 0.7 0.2 2.9 1.9 2.9 1.7 0 3.8-1.3 4.9-2.9 1.2-1.6 3.3-0.7 4-0.7 0.6 0 7.4-0.3 7.7-3.8 0.2-3.4 2-4.9 3.9-5.9 1.8-0.9 3.4-4.3 4.5-7.5 1.1-3.3 1.4-4.8 3.6-5.5 2.2-0.7 2.4-3.5 3.9-7.3 1.4-3.7-1.6-3.1-2.7-3.1-1.2 0-9.2 6.9-10.6 7.7-1.5 0.9-2.5 4.8-4.2 5.5-1.7 0.7-4.5 3-6.1 4.3-1.6 1.2-4.2 1.9-8.3 3.3-4 1.3-7.2 5.2-8.5 7.2z"/>
		<path id="Layer" class="s8" d="m648.7 463.1c-2.6-1.6-1.5 0.7-0.7 2 0 5.1-2.7 5.7-2.9 6.9-0.2 1.3 1.8 1.5 3.6 2 1.5 0.5 1.8 3.8 1.8 5.3 1.4 0.6 4.6 2.1 5.6 3.5 1.3 1.8 4 2.6 4.9 2.6 1 0 6.8 5.8 7.5 7.4 0.7 1.5 1.3 2 3.8 1.8 2.4-0.3 4.6 3.2 7.2 4.3 2.5 1 4.8-0.2 5.9-1.1 1.1-0.9 6.8-1.1 10.8-1.8 4.1-0.6 0.2-2.4-0.7-3.2-0.8-0.8-5.3-3.6-7.5-3.8-2.3-0.1-8.6 1.2-11.1 1.3-2.5 0.1-2.6-3.5-2.8-4.9-0.2-1.3-5.5-5.5-7.1-6.1-1.7-0.5-6-2.9-8-5.8-2.1-3-4.4-3.5-6.3-4.9-1.8-1.3-0.7-3.5-4-5.5z"/>
		<path id="Layer" class="s8" d="m198.6 712.1c-8.8 4.2-13.2 12.7-14.2 16.4 0 2.1 0.5 5.4 2.7 2.1 2.7-4 2.9-4.2 8-10.7 5.1-6.6 13.3-7.8 18.7-9.3 5.4-1.5 9.7 0 11.9 0 2.2 0 8.2-4.4 10.5-6.9 1.8-2 6.4-10.7 8.5-14.8 1.9-1.7 5.9-6.2 6.9-10.6 1.2-5.6 2.4-9.5 5.1-13.9 2.1-3.5 6.6-9.2 8.6-11.5 0.7-0.8 2.3-3.1 2.7-6.2 0.5-3.8 5.1-10.2 8.9-15.7 3.8-5.5 9.1-7 13.7-8 4.6-0.9 6.9 4.6 7.3 7.1 0.3 2.6 1.2 4.1 4.4 4.6 3.1 0.6 5.9-3.7 7.8-6.3 1.9-2.5 6.6-1.5 7.9-2.1 1.3-0.6 8.4-3.2 9.4-5.8 1.8-4.3 2.6-5.9 5.6-7.9 2.5-1.7 0.6 0.6 3.8-0.7 3.2-1.4 7.2 1.3 10.4 1.7 5 0.6 17.5-2.4 22-3.6 4.6-1.1 7.1 0.9 8.8 0.9 1.6 0 17.6 1.7 21.6 1 3.2-0.6 6.7 2.8 12.3 4.3 4.5 2.1 15.9 4 19.4 1.4 3.6-2.6 8.2-1.8 10.1-1.2 2.2 0.3 7.3-0.3 10.2-4.7 3.5-5.6-4.1-12.2-4.8-13.3-0.7-1-6.9-3.7-10.2-4.7-3.3-1.1-5-3.1-6.4-4.5-1.4-1.5-4.8-4.2-7.7-5.4-3-1.3-12.3-4.7-14.4-7.4-2.1-2.6-6.1-1.4-8.4-0.8h-0.1c-2.2 0.7-4.2-1.4-5.1-2.8-0.8-1.4-2.3-3.5-3.7-3.5-1.4 0-4.2-0.3-6.2-1-2-0.6-5.9-1.9-6.6-1.9-0.7 0-6.1 0.6-6.5 0-0.3-0.7-2.9-2.7-4.9-1.8-2 0.9-5-1.6-6.7-2.9-1.8-1.2-3.9 1.3-8.6 2.9-4.6 1.5-7.8-0.8-9-1.6-1.1-0.7-2.1 0-3.1 1.6-1.1 1.5-3.9 3.3-4.7 5.8-0.8 2.4-2.6 0.7-3.8 1-1.3 0.3-4.6 6.2-6 8.5-1.4 2.3-5.6 1.3-6.7 1.3-1 0-8.3 3.7-9.8 4.4-1.5 0.6-5.2-2.1-5.9-2.2-0.7-0.2-10.1 2.4-11.7 3.6-1.7 1.1-1 3.4-1.3 5.5-0.4 2.1-9.5 5.2-10 7-0.6 1.8 1.5 6.6-0.9 7.5-2.3 0.9-3.9 4.6-4.3 6.6-0.5 2-3-0.3-4.3 0-1.4 0.2-3.9 3.9-4.5 5.7-0.7 1.7-5.9 8-8.6 11.7-2.7 3.7-2.3 7-2.7 11.9-0.5 5-4.8 6.5-6.1 7.7-1.4 1.3-4.3 7.3-4.3 11.5 0 4.2-2.3 9.2-5.2 16.2-3 6.9 0 6.4 0 13.9 0 7.5-13.8 15.2-14.9 15.2-1.2 0-13.8-0.5-24.9 4.7z"/>
		<path id="Layer" class="s8" d="m510 472.8c0.1-1.9-1.7-0.3-2.6 0.7-1.5 1.4-2.6 5.1-2.8 6.4-0.1 1.3 0.4 4.9 1.6 5.7 1.2 0.8 0.6 2.1-0.6 2.6-1.2 0.4-2.9 3.6-4.2 6.2-1.4 2.7 0.8 1.6 1.7 1.9 0.8 0.3-0.1 13.7 0 16.7 0 3.1 1.6 6.2 2.5 6.9 0.9 0.7 2.6 0.3 2.1-0.7-0.5-1.1-0.9-3.6-0.9-4.4 0-0.9 0.1-7.8 0-9.1-0.1-1.4-0.7-6.9-0.6-10.5 0.1-3.5 1.2-3.6 2-5.2 0.7-1.7 5.8 0.5 2.8-1.8-3-2.4-3.2-6.9-2.8-8.8 0.3-2 1.7-4.1 1.8-6.6z"/>
		<path id="Layer" class="s8" d="m492 392.5c-1.2-1.8 0.5-3 1.5-3.4 0.8-0.4 2.7-1.5 4.1-2.5 1.7-1.3 1.7-5.4 6.1-5.4 4.4 0 4.7-2 7-3.9 2.4-1.9 3.6-0.6 5.7 0 2.1 0.6 1.3 2.5 1.1 3.9-0.3 1.4-3.2 3-4.7 3.9-1.5 0.8-2.6 3-2.9 4-0.3 0.9-2.1 1.2-3.2 1.2-1.2 0-2.4 2.2-3 4-0.7 1.7-4.3 2-6.1 2-1.8 0-4.1-1.6-5.6-3.8z"/>
	</g>
	<g id="Clip-Path" clip-path="url(#cp11)">
		<g id="Layer">
			<path id="Layer" fill-rule="evenodd" class="s7" d="m928.2 234.9v-4.5c0-0.5-0.5-1-1-1h-3.3c-0.6 0-1 0.5-1 1v4.5h-7.5v-5.9h20.3v5.9zm-7.1-4.7c0-0.1-0.1-0.3-0.2-0.3h-3.7c-0.1 0-0.2 0.2-0.2 0.3v3.5c0 0.1 0.1 0.2 0.2 0.2h3.7c0.1 0 0.2-0.1 0.2-0.2zm8.8 3.5c0 0.1 0.1 0.3 0.3 0.3h3.7c0.1 0 0.2-0.2 0.2-0.3v-3.5c0-0.1-0.1-0.2-0.2-0.2h-3.7c-0.2 0-0.3 0.1-0.3 0.2zm-16-5.7c0-0.4 0.2-0.6 0.6-0.6h22.1c0.3 0 0.6 0.2 0.6 0.6 0 0.3-0.2 0.5-0.6 0.5h-22.1c-0.4 0-0.6-0.2-0.6-0.5z"/>
			<path id="Layer" fill-rule="evenodd" class="s7" d="m927.2 229.9c0.3 0 0.5 0.3 0.5 0.5v4.5h-4.3v-4.5c0-0.2 0.2-0.5 0.5-0.5zm-2.8 2.7c0-0.1-0.1-0.3-0.3-0.3-0.2 0-0.3 0.2-0.3 0.3 0 0.2 0.1 0.4 0.3 0.4 0.2 0 0.3-0.2 0.3-0.4zm1.1-17.6l10.2 8.3v3.6h-20.4v-3.6zm-2.1 7.1c0-0.1-0.1-0.3-0.2-0.3h-3.6c-0.1 0-0.2 0.2-0.2 0.3v3.4c0 0.1 0.1 0.2 0.2 0.2h3.6c0.1 0 0.2-0.1 0.2-0.2zm4.3 3.4c0 0.1 0.1 0.2 0.2 0.2h3.6c0.1 0 0.2-0.1 0.2-0.2v-3.4c0-0.1-0.1-0.2-0.2-0.2h-3.6c-0.1 0-0.2 0.1-0.2 0.2z"/>
			<path id="Layer" class="s7" d="m914.7 223.1l10.8-8.7 10.8 8.7c0.4 0.3 0.8 0.1 0.8-0.3v-0.8q0-0.3-0.1-0.4l-11-8.9c-0.3-0.2-0.7-0.2-0.9 0l-11 8.9q-0.2 0.1-0.2 0.4v0.8c0 0.4 0.5 0.6 0.8 0.3zm21.9 12.3h-22.1c-0.4 0-0.6 0.2-0.6 0.5 0 0.4 0.2 0.6 0.6 0.6h22.1c0.3 0 0.6-0.2 0.6-0.6 0-0.3-0.3-0.5-0.6-0.5z"/>
		</g>
	</g>
	<path id="Layer" class="s1" d="m947.1 229.1h6.3v1.9h-8.9v-1.7l6.2-9.8h-6.2v-1.9h8.9v1.7zm18.3-8.8v10.7h-2.2v-1.3q-0.5 0.7-1.4 1.1-0.8 0.4-1.8 0.4-1.2 0-2.2-0.6-1-0.5-1.6-1.5-0.6-1-0.6-2.5v-6.3h2.2v6q0 1.4 0.8 2.2 0.7 0.7 1.9 0.7 1.3 0 2-0.7 0.7-0.8 0.7-2.2v-6zm5.1 1.6q0.5-0.8 1.3-1.3 0.8-0.5 1.9-0.5v2.3h-0.5q-1.3 0-2 0.7-0.7 0.7-0.7 2.3v5.6h-2.2v-10.7h2.2zm6.4-2.9q-0.6 0-1-0.4-0.4-0.5-0.4-1.1 0-0.6 0.4-1 0.4-0.4 1-0.4 0.6 0 1 0.4 0.4 0.4 0.4 1 0 0.6-0.4 1.1-0.4 0.4-1 0.4zm1.1 1.4v10.6h-2.2v-10.6zm2.1 5.3q0-1.6 0.7-2.9 0.7-1.2 1.8-1.9 1.2-0.7 2.7-0.7 2 0 3.2 0.9 1.3 0.9 1.8 2.6h-2.4q-0.3-0.8-0.9-1.2-0.7-0.4-1.7-0.4-1.3 0-2.1 0.9-0.8 1-0.8 2.7 0 1.7 0.8 2.7 0.8 1 2.1 1 2 0 2.6-1.7h2.4q-0.5 1.6-1.8 2.6-1.3 0.9-3.2 0.9-1.5 0-2.7-0.7-1.1-0.7-1.8-1.9-0.7-1.3-0.7-2.9zm17.9-5.5q1.2 0 2.2 0.5 0.9 0.5 1.5 1.6 0.5 1 0.5 2.5v6.2h-2.2v-5.9q0-1.5-0.7-2.2-0.7-0.8-1.9-0.8-1.3 0-2 0.8-0.7 0.7-0.7 2.2v5.9h-2.2v-14.3h2.2v4.9q0.5-0.7 1.4-1 0.9-0.4 1.9-0.4z"/>
	<g id="Clip-Path" clip-path="url(#cp12)">
		<g id="Layer">
			<path id="Layer" fill-rule="evenodd" class="s7" d="m621.2 205.9v-4.5c0-0.5-0.5-1-1-1h-3.3c-0.6 0-1 0.5-1 1v4.5h-7.5v-5.9h20.3v5.9zm-7.1-4.7c0-0.1-0.1-0.3-0.2-0.3h-3.7c-0.1 0-0.2 0.2-0.2 0.3v3.5c0 0.1 0.1 0.2 0.2 0.2h3.7c0.1 0 0.2-0.1 0.2-0.2zm8.8 3.5c0 0.1 0.1 0.3 0.3 0.3h3.7c0.1 0 0.2-0.2 0.2-0.3v-3.5c0-0.1-0.1-0.2-0.2-0.2h-3.7c-0.2 0-0.3 0.1-0.3 0.2zm-16-5.7c0-0.4 0.2-0.6 0.6-0.6h22.1c0.3 0 0.6 0.2 0.6 0.6 0 0.3-0.2 0.5-0.6 0.5h-22.1c-0.4 0-0.6-0.2-0.6-0.5z"/>
			<path id="Layer" fill-rule="evenodd" class="s7" d="m620.2 200.9c0.3 0 0.5 0.3 0.5 0.5v4.5h-4.3v-4.5c0-0.2 0.2-0.5 0.5-0.5zm-2.8 2.7c0-0.1-0.1-0.3-0.3-0.3-0.2 0-0.3 0.2-0.3 0.3 0 0.2 0.1 0.4 0.3 0.4 0.2 0 0.3-0.2 0.3-0.4zm1.1-17.6l10.2 8.3v3.6h-20.4v-3.6zm-2.1 7.1c0-0.1-0.1-0.3-0.2-0.3h-3.6c-0.1 0-0.2 0.2-0.2 0.3v3.4c0 0.1 0.1 0.2 0.2 0.2h3.6c0.1 0 0.2-0.1 0.2-0.2zm4.3 3.4c0 0.1 0.1 0.2 0.2 0.2h3.6c0.1 0 0.2-0.1 0.2-0.2v-3.4c0-0.1-0.1-0.2-0.2-0.2h-3.6c-0.1 0-0.2 0.1-0.2 0.2z"/>
			<path id="Layer" class="s7" d="m607.7 194.1l10.8-8.7 10.8 8.7c0.4 0.3 0.8 0.1 0.8-0.3v-0.8q0-0.3-0.1-0.4l-11-8.9c-0.3-0.2-0.7-0.2-0.9 0l-11 8.9q-0.2 0.1-0.2 0.4v0.8c0 0.4 0.5 0.6 0.8 0.3zm21.9 12.3h-22.1c-0.4 0-0.6 0.2-0.6 0.5 0 0.4 0.2 0.6 0.6 0.6h22.1c0.3 0 0.6-0.2 0.6-0.6 0-0.3-0.3-0.5-0.6-0.5z"/>
		</g>
	</g>
	<path id="Layer" fill-rule="evenodd" class="s1" d="m645.2 195.1q1.1 0.2 1.8 1.1 0.8 1 0.8 2.2 0 1-0.6 1.9-0.5 0.8-1.5 1.3-1 0.4-2.3 0.4h-5.4v-13.4h5.1q1.4 0 2.4 0.4 1 0.5 1.5 1.3 0.5 0.8 0.5 1.7 0 1.2-0.6 2-0.7 0.7-1.7 1.1zm-5-0.9h2.7q1.1 0 1.7-0.5 0.6-0.5 0.6-1.4 0-0.9-0.6-1.4-0.6-0.5-1.7-0.5h-2.7zm3 6q1.1 0 1.7-0.6 0.7-0.5 0.7-1.5 0-1-0.7-1.6-0.7-0.5-1.8-0.5h-2.9v4.2zm6.3-3.6q0-1.6 0.6-2.9 0.7-1.2 1.8-1.9 1.2-0.7 2.6-0.7 1.3 0 2.2 0.5 0.9 0.5 1.5 1.2v-1.5h2.2v10.7h-2.2v-1.6q-0.6 0.7-1.5 1.2-1 0.5-2.2 0.5-1.4 0-2.6-0.7-1.1-0.7-1.8-1.9-0.6-1.3-0.6-2.9zm8.7 0q0-1.1-0.5-1.9-0.4-0.8-1.1-1.2-0.8-0.5-1.6-0.5-0.9 0-1.6 0.5-0.8 0.4-1.2 1.2-0.5 0.8-0.5 1.9 0 1.1 0.5 1.9 0.4 0.8 1.2 1.3 0.7 0.4 1.6 0.4 0.8 0 1.6-0.4 0.7-0.4 1.1-1.2 0.5-0.9 0.5-2zm9 5.5q-1.3 0-2.3-0.4-0.9-0.5-1.5-1.2-0.6-0.8-0.6-1.8h2.2q0.1 0.7 0.7 1.1 0.6 0.5 1.5 0.5 0.9 0 1.4-0.4 0.5-0.3 0.5-0.9 0-0.6-0.6-0.9-0.5-0.3-1.8-0.6-1.2-0.4-1.9-0.7-0.8-0.3-1.3-0.9-0.6-0.7-0.6-1.7 0-0.9 0.5-1.6 0.5-0.7 1.5-1.1 0.9-0.4 2.1-0.4 1.9 0 3 0.9 1.1 1 1.2 2.5h-2.2q-0.1-0.7-0.6-1.1-0.6-0.4-1.4-0.4-0.9 0-1.4 0.3-0.4 0.3-0.4 0.9 0 0.4 0.3 0.7 0.3 0.3 0.7 0.5 0.5 0.1 1.3 0.4 1.2 0.3 1.9 0.6 0.8 0.3 1.3 0.9 0.6 0.7 0.6 1.7 0 0.9-0.5 1.6-0.5 0.7-1.4 1.1-1 0.4-2.2 0.4zm16.3-5.7q0 0.6-0.1 1h-8.2q0.1 1.3 1 2.1 0.8 0.8 2.1 0.8 1.8 0 2.5-1.5h2.4q-0.5 1.5-1.8 2.4-1.3 0.9-3.1 0.9-1.6 0-2.8-0.6-1.2-0.7-1.9-2-0.7-1.2-0.7-2.9 0-1.6 0.7-2.9 0.7-1.2 1.9-1.9 1.2-0.7 2.8-0.7 1.5 0 2.7 0.7 1.1 0.6 1.8 1.8 0.7 1.2 0.7 2.8zm-2.3-0.7q-0.1-1.3-0.9-2-0.9-0.7-2.1-0.7-1.2 0-2 0.7-0.8 0.7-1 2zm6.7-8.1v14.4h-2.2v-14.4z"/>
	<path id="Layer" class="s9" d="m1032.5 236.5h-26.3l19.3-24h12.9z"/>
	<path id="Layer" class="s10" d="m1028.5 222.3v-5.2h-4.5v5.2h-5.1v4.4h5.1v5.2h4.5v-5.2h5.1v-4.4z"/>
	<path id="Layer" class="s9" d="m359.4 712h-26.3l19.3-24h12.9z"/>
	<path id="Layer" class="s10" d="m355.4 697.8v-5.2h-4.5v5.2h-5.1v4.4h5.1v5.2h4.5v-5.2h5.1v-4.4z"/>
	<g id="Layer">
		<path id="Layer" fill-rule="evenodd" class="s11" d="m254.1 685.5c0 5.4-4.3 9.7-9.7 9.7-5.3 0-9.6-4.3-9.6-9.7 0-5.3 4.3-9.7 9.6-9.7 5.4 0 9.7 4.4 9.7 9.7zm-13.9 0c0 2.3 1.9 4.2 4.2 4.2 2.4 0 4.2-1.9 4.2-4.2 0-2.3-1.8-4.2-4.2-4.2-2.3 0-4.2 1.9-4.2 4.2z"/>
	</g>
	<path id="Layer" fill-rule="evenodd" class="s1" d="m265.3 696.9q-0.5-1-1.4-1.5-1-0.5-2.2-0.5-1.3 0-2.4 0.6-1 0.6-1.6 1.7-0.6 1.1-0.6 2.5 0 1.5 0.6 2.6 0.6 1.1 1.6 1.7 1.1 0.6 2.4 0.6 1.8 0 2.9-1 1.2-1 1.4-2.7h-5v-1.8h7.4v1.8q-0.2 1.5-1.1 2.8-0.9 1.4-2.4 2.1-1.4 0.8-3.2 0.8-1.9 0-3.5-0.8-1.5-0.9-2.5-2.5-0.9-1.6-0.9-3.6 0-1.9 0.9-3.5 1-1.6 2.5-2.4 1.6-0.9 3.5-0.9 2.2 0 3.8 1 1.7 1.1 2.5 3zm15 4q0 0.6-0.1 1.1h-8.1q0.1 1.3 0.9 2 0.9 0.8 2.1 0.8 1.8 0 2.5-1.5h2.4q-0.5 1.5-1.8 2.5-1.2 0.9-3.1 0.9-1.5 0-2.8-0.7-1.2-0.7-1.9-1.9-0.6-1.3-0.6-2.9 0-1.7 0.6-2.9 0.7-1.3 1.9-2 1.2-0.6 2.8-0.6 1.5 0 2.7 0.6 1.2 0.7 1.8 1.9 0.7 1.2 0.7 2.7zm-2.3-0.7q0-1.2-0.9-1.9-0.8-0.8-2.1-0.8-1.1 0-2 0.8-0.8 0.7-0.9 1.9zm9.8-4.5q1.3 0 2.3 0.5 1 0.5 1.6 1.5 0.5 1.1 0.5 2.5v6.3h-2.2v-6q0-1.4-0.7-2.1-0.7-0.8-1.9-0.8-1.3 0-2 0.8-0.7 0.7-0.7 2.1v6h-2.2v-10.7h2.2v1.3q0.5-0.7 1.3-1.1 0.9-0.3 1.8-0.3zm17 5.2q0 0.6-0.1 1.1h-8.1q0.1 1.3 0.9 2 0.9 0.8 2.1 0.8 1.8 0 2.5-1.5h2.4q-0.5 1.5-1.7 2.5-1.3 0.9-3.2 0.9-1.5 0-2.7-0.7-1.2-0.7-1.9-1.9-0.7-1.3-0.7-2.9 0-1.7 0.7-2.9 0.6-1.3 1.8-2 1.3-0.6 2.8-0.6 1.5 0 2.7 0.6 1.2 0.7 1.9 1.9 0.6 1.2 0.6 2.7zm-2.3-0.7q0-1.2-0.9-1.9-0.8-0.8-2.1-0.8-1.1 0-1.9 0.8-0.8 0.7-1 1.9zm8.6 4.3l3-8.7h2.4l-4.1 10.7h-2.6l-4.1-10.7h2.4zm16.8-3.6q0 0.6-0.1 1.1h-8.1q0.1 1.3 0.9 2.1 0.9 0.7 2.1 0.7 1.8 0 2.5-1.5h2.4q-0.5 1.5-1.8 2.5-1.2 0.9-3.1 0.9-1.5 0-2.7-0.7-1.2-0.7-1.9-1.9-0.7-1.3-0.7-2.9 0-1.7 0.6-2.9 0.7-1.3 1.9-2 1.2-0.6 2.8-0.6 1.5 0 2.7 0.6 1.2 0.7 1.8 1.9 0.7 1.2 0.7 2.7zm-2.3-0.7q0-1.2-0.9-1.9-0.8-0.8-2.1-0.8-1.1 0-1.9 0.8-0.9 0.7-1 1.9z"/>
</svg>