<svg width="18" height="18" viewBox="0 0 18 18" fill="none" xmlns="http://www.w3.org/2000/svg">
<path d="M16.6133 11.2468C16.3657 11.2468 16.165 11.4475 16.165 11.6951V15.6755C16.1641 16.418 15.5626 17.0197 14.8201 17.0204H2.24147C1.49896 17.0197 0.897483 16.418 0.896586 15.6755V3.99342C0.897483 3.25109 1.499 2.64944 2.24147 2.64854H6.22186C6.46945 2.64854 6.67015 2.44784 6.67015 2.20025C6.67015 1.95279 6.46945 1.75195 6.22186 1.75195H2.24147C1.00409 1.75334 0.00138971 2.75604 0 3.99342V15.6757C0.00138971 16.913 1.00409 17.9157 2.24147 17.9171H14.8201C16.0575 17.9157 17.0602 16.913 17.0616 15.6757V11.6951C17.0616 11.4475 16.8609 11.2468 16.6133 11.2468Z" fill="#CC0000"/>
<path d="M16.8836 0.598685C16.0957 -0.189145 14.8184 -0.189145 14.0306 0.598685L6.03272 8.59655C5.97797 8.65129 5.93834 8.71928 5.91769 8.79389L4.86595 12.5909C4.84472 12.6674 4.84417 12.7481 4.86435 12.8248C4.88453 12.9016 4.92473 12.9716 4.98082 13.0277C5.03692 13.0838 5.1069 13.124 5.18363 13.1442C5.26035 13.1644 5.34107 13.1639 5.41753 13.1427L9.21457 12.0908C9.28918 12.0701 9.35717 12.0305 9.41191 11.9757L17.4095 3.97774C18.1962 3.18933 18.1962 1.91313 17.4095 1.12476L16.8836 0.598685ZM7.0095 8.88794L13.5552 2.34214L15.6662 4.45315L9.12038 10.999L7.0095 8.88794ZM6.58784 9.73409L8.27432 11.4208L5.94149 12.0671L6.58784 9.73409ZM16.7757 3.34381L16.3002 3.81918L14.1891 1.70799L14.6647 1.23257C15.1023 0.794948 15.8119 0.794948 16.2495 1.23257L16.7757 1.7586C17.2126 2.19676 17.2126 2.90583 16.7757 3.34381Z" fill="#CC0000"/>
</svg>
