<svg width="17" height="18" viewBox="0 0 17 18" fill="none" xmlns="http://www.w3.org/2000/svg">
<path d="M16.7718 10.8042C16.6965 10.7291 16.6015 10.6769 16.4978 10.6536C16.394 10.6303 16.2858 10.6369 16.1857 10.6726C14.8398 11.1524 13.3854 11.2406 11.9914 10.9267C10.5975 10.6128 9.32121 9.90986 8.31089 8.89948C7.30057 7.8891 6.59768 6.61278 6.28389 5.21881C5.97011 3.82484 6.0583 2.37044 6.53823 1.0246C6.57389 0.924432 6.58043 0.816208 6.55709 0.712474C6.53376 0.60874 6.48149 0.513745 6.40637 0.438502C6.33124 0.363258 6.23633 0.310849 6.13263 0.287348C6.02894 0.263848 5.9207 0.27022 5.82048 0.305725C4.60711 0.734202 3.50598 1.43079 2.59904 2.34366C0.973202 3.97073 0.0601122 6.17689 0.060547 8.47705C0.0609819 10.7772 0.974906 12.983 2.60136 14.6095C4.22781 16.2359 6.43363 17.1498 8.73378 17.1503C11.0339 17.1507 13.2401 16.2376 14.8672 14.6118C15.7801 13.7047 16.4767 12.6034 16.9051 11.3898C16.9405 11.2896 16.9467 11.1814 16.9231 11.0777C16.8995 10.9741 16.8471 10.8793 16.7718 10.8042Z" fill="black"/>
</svg>
