<svg id="info-3" xmlns="http://www.w3.org/2000/svg" width="16" height="16.001" viewBox="0 0 16 16.001">
  <path id="Path_174" data-name="Path 174" d="M8,0a8,8,0,1,0,8,8A8,8,0,0,0,8,0ZM8,14.7A6.7,6.7,0,1,1,14.7,8,6.694,6.694,0,0,1,8,14.7Z" fill="#c00"/>
  <path id="Path_175" data-name="Path 175" d="M13.98,11.143H11.872v0h-.785v1.225h.785v4.377h-.833V17.92h.833v.008H13.98V17.92h.69V16.749h-.69Z" transform="translate(-4.939 -4.795)" fill="#c00"/>
  <path id="Path_176" data-name="Path 176" d="M13.665,7.462a1.055,1.055,0,1,0-1.094-1.055A1.038,1.038,0,0,0,13.665,7.462Z" transform="translate(-5.686 -2.424)" fill="#c00"/>
</svg>
