<svg xmlns="http://www.w3.org/2000/svg" width="29.317" height="16.703" viewBox="0 0 29.317 16.703">
  <g id="train" transform="translate(0 -0.5)">
    <path id="Path_160" data-name="Path 160" d="M65.6,244.542a1.144,1.144,0,0,1-1.144-1.144v-1.144h2.288V243.4a1.144,1.144,0,0,1-1.144,1.144Zm0,0" transform="translate(-60.763 -227.911)" fill="#898998"/>
    <path id="Path_161" data-name="Path 161" d="M348.609,244.542a1.144,1.144,0,0,1-1.144-1.144v-1.144h2.288V243.4a1.144,1.144,0,0,1-1.144,1.144Zm0,0" transform="translate(-327.569 -227.911)" fill="#898998"/>
    <path id="Path_162" data-name="Path 162" d="M35.1,73.691a3.135,3.135,0,0,0-.918-2.217l-5.2-5.2a9.271,9.271,0,0,0-6.555-2.715H9.992V73.787H35l.094,0c0-.031,0-.062,0-.094Zm0,0" transform="translate(-9.42 -59.444)" fill="#c12020"/>
    <path id="Path_163" data-name="Path 163" d="M265.445,86.414h-7.972a1.6,1.6,0,1,0,0,3.2h11.176Zm0,0" transform="translate(-241.22 -80.994)" fill="#fff"/>
    <path id="Path_164" data-name="Path 164" d="M9.992,86.414h8.924a1.6,1.6,0,1,1,0,3.2H9.992" transform="translate(-9.42 -80.994)" fill="#fff"/>
    <path id="Path_165" data-name="Path 165" d="M28.749,16.059H22.662a1.706,1.706,0,0,0,.1-.572v-.572h2.825a3.707,3.707,0,0,0,2.621-6.328l-.369-.369-3.2-3.2h0L23,3.383A9.778,9.778,0,0,0,16.042.5H.576a.572.572,0,0,0,0,1.144H16.042a8.641,8.641,0,0,1,6.151,2.548l.656.656H16.257a2.174,2.174,0,0,0,0,4.348H27.2l.2.2a2.563,2.563,0,0,1-1.812,4.375H.576a.572.572,0,0,0,0,1.144H3.123v.572a1.708,1.708,0,0,0,.1.572H.606a.572.572,0,1,0,0,1.144h9.61a.572.572,0,1,0,0-1.144H6.456a1.708,1.708,0,0,0,.1-.572v-.572H19.328v.572a1.708,1.708,0,0,0,.1.572H14.68a.572.572,0,1,0,0,1.144H28.749a.572.572,0,0,0,0-1.144ZM16.257,8.051a1.03,1.03,0,1,1,0-2.059h7.736l2.059,2.059ZM5.411,15.487a.572.572,0,0,1-1.144,0v-.572H5.411Zm15.061,0v-.572h1.144v.572a.572.572,0,0,1-1.144,0Zm0,0" transform="translate(-0.004)"/>
    <path id="Path_166" data-name="Path 166" d="M207.881,272.223a.572.572,0,1,0,.4.168A.576.576,0,0,0,207.881,272.223Zm0,0" transform="translate(-195.438 -256.164)"/>
    <path id="Path_167" data-name="Path 167" d="M9.5,79.625H.576a.572.572,0,0,0,0,1.144H9.5a2.174,2.174,0,0,0,0-4.348H2.76a.572.572,0,0,0,0,1.144H9.5a1.03,1.03,0,0,1,0,2.059Zm0,0" transform="translate(-0.004 -71.574)"/>
    <path id="Path_168" data-name="Path 168" d="M.572,76.422a.573.573,0,1,0,.4.168.577.577,0,0,0-.4-.168Zm0,0" transform="translate(0 -71.574)"/>
  </g>
</svg>
